<svg width="50" height="50" viewBox="0 0 50 50"  xmlns="http://www.w3.org/2000/svg">
<path d="M26.7248 35.1888L26.8357 13.9751C26.8385 13.4228 26.3932 12.9774 25.8409 12.9803L23.8699 12.9906C23.3176 12.9935 22.8675 13.4436 22.8647 13.9958L22.7538 35.2096C22.7509 35.7618 23.1962 36.2072 23.7485 36.2043L25.7195 36.194C26.2718 36.1911 26.7219 35.7411 26.7248 35.1888Z" />
<path d="M14.2083 27.0689L35.422 26.958C35.9743 26.9551 36.4243 26.505 36.4272 25.9528L36.4376 23.9665C36.4405 23.4142 35.9951 22.9689 35.4428 22.9718L14.2291 23.0827C13.6769 23.0855 13.2268 23.5356 13.2239 24.0879L13.2135 26.0741C13.2106 26.6264 13.656 27.0718 14.2083 27.0689Z"/>
</svg>
