<svg width="46" height="46" viewBox="0 0 46 46"  xmlns="http://www.w3.org/2000/svg">
<path d="M33.6547 11.0002H11.3396C9.4908 11.0002 8 12.4793 8 14.3282V28.6378C8 30.4808 9.4908 31.954 11.3396 31.954H11.8737V36.9019C11.8737 37.2951 12.1085 37.6532 12.4666 37.8116C12.5957 37.8703 12.7365 37.8997 12.8715 37.8997C13.1122 37.8997 13.3528 37.794 13.5407 37.6297L19.7913 31.9538H33.6604C35.5034 31.9538 37 30.4806 37 28.6376V14.3279C36.9941 12.4791 35.5033 11 33.6545 11L33.6547 11.0002ZM34.9988 28.6375C34.9988 29.383 34.4001 29.9581 33.6547 29.9581H19.404C19.1575 29.9581 18.9169 30.0638 18.7349 30.2281L13.8692 34.6536V30.9853C13.8692 30.4336 13.4232 29.9581 12.8714 29.9581H11.3395C10.5941 29.9581 9.99544 29.3829 9.99544 28.6375V14.3279C9.99544 13.5824 10.5941 12.9955 11.3395 12.9955H33.6605C34.4059 12.9955 35.0046 13.5825 35.0046 14.3279V28.6375L34.9988 28.6375Z" />
<path d="M23.565 26.9884L23.6224 16C23.6253 15.4477 23.1799 15.0023 22.6276 15.0052L22.4058 15.0064C21.8535 15.0093 21.4035 15.4593 21.4006 16.0116L21.3431 27C21.3402 27.5523 21.7856 27.9976 22.3379 27.9947L22.5597 27.9936C23.112 27.9907 23.5621 27.5406 23.565 26.9884Z" />
<path d="M17 22.8834L27.9884 22.8259C28.5406 22.823 28.9907 22.373 28.9936 21.8207L28.9948 21.5903C28.9977 21.038 28.5523 20.5927 28 20.5956L17.0116 20.653C16.4594 20.6559 16.0093 21.1059 16.0064 21.6582L16.0052 21.8886C16.0023 22.4409 16.4477 22.8862 17 22.8834Z" />
</svg>
