<svg width="54" height="38" viewBox="0 0 54 38" fill="none" xmlns="http://www.w3.org/2000/svg">
<path d="M53.5 18.5C53.1985 17.5866 52.6433 16 51.7392 16H8.5L18.8804 3.74975C19.6341 2.83632 19.6341 1.31433 18.7297 0.553145C17.8252 -0.208021 16.3181 -0.208021 15.5644 0.705375L0.642173 17.45C0.189955 18.0589 -0.111526 18.6679 0.0392104 19.4287V19.5809C0.0392104 19.7331 0.0392104 19.8854 0.189947 19.8854C0.189947 20.0376 0.340684 20.1898 0.491428 20.1898L0.642165 20.3421L15.5644 37.2388C16.0166 37.6955 16.6196 38 17.2225 38C17.8254 38 18.2777 37.8478 18.7299 37.3911C19.6344 36.4776 19.7851 35.1079 18.8806 34.1945L8.5 21.5H51.3936C52.5996 21.5 53.5 19.7175 53.5 18.5C53.6507 18.6522 53.3493 18.3478 53.5 18.5Z" />
</svg>
