<svg width="50" height="50" viewBox="0 0 50 50" xmlns="http://www.w3.org/2000/svg">
<path d="M11.0007 25.6527L21.9175 14.7359C22.3081 14.3454 22.3045 13.7158 21.9097 13.3296L21.046 12.485C20.6511 12.0989 20.0144 12.1024 19.6239 12.4929L8.70706 23.4098C8.31654 23.8003 8.32005 24.4299 8.71491 24.816L9.57863 25.6607C9.97349 26.0468 10.6102 26.0433 11.0007 25.6527Z" />
<path d="M9.27133 25.3761L20.1882 36.2929C20.5787 36.6834 21.2083 36.6799 21.5944 36.285L22.4391 35.4213C22.8252 35.0265 22.8217 34.3898 22.4311 33.9993L11.5143 23.0824C11.1238 22.6919 10.4942 22.6954 10.108 23.0903L9.26339 23.954C8.87725 24.3489 8.8808 24.9855 9.27133 25.3761Z" />
<path d="M38 24.2262L11 24.2262" stroke="black" stroke-width="4" stroke-linecap="round"/>
</svg>
