<svg width="50" height="50" viewBox="0 0 50 50" fill="none" xmlns="http://www.w3.org/2000/svg">
<path d="M36.9041 23.4058C37.253 23.7581 37.4485 24.2346 37.4475 24.7308C37.4461 25.2269 37.2486 25.7023 36.8979 26.0529C36.5473 26.4039 36.0719 26.6018 35.5758 26.6028H17.3888L25.0654 34.2795C25.4909 34.7611 25.6405 35.4276 25.4612 36.0451C25.2823 36.6625 24.7993 37.1452 24.1818 37.3245C23.5643 37.5037 22.8982 37.3541 22.4162 36.9283L11.5504 26.0625L11.4501 25.9543L11.4498 25.9546C11.2101 25.6778 11.0571 25.3368 11.0098 24.9738C10.9967 24.8479 10.9967 24.7211 11.0098 24.5952C11.0405 24.1505 11.2298 23.7316 11.5425 23.4137L22.4701 12.4702C22.9521 12.0448 23.6182 11.8951 24.2356 12.0744C24.8531 12.2533 25.3362 12.7364 25.5151 13.3538C25.6943 13.9713 25.5447 14.6374 25.1189 15.1194L17.3961 22.8422H35.5831C36.081 22.8467 36.5564 23.0494 36.904 23.4059L36.9041 23.4058Z" />
</svg>
