<svg width="27" height="37" viewBox="0 0 27 37" fill="none" xmlns="http://www.w3.org/2000/svg">
<path d="M5.71139 17.412H18.1731C19.8936 17.412 21.2886 15.9501 21.2886 14.1471V9.67278C19.2075 9.17801 17.6539 7.22759 17.6539 4.89704C17.6539 2.19246 19.7462 0 22.327 0C24.9078 0 27 2.19253 27 4.89704C27 7.22759 25.4464 9.17803 23.3653 9.67278V14.1471C23.3653 17.1523 21.0409 19.5882 18.1731 19.5882H5.71139V27.3272C7.79252 27.822 9.34606 29.7724 9.34606 32.103C9.34606 34.8075 7.25383 37 4.67303 37C2.09223 37 0 34.8075 0 32.103C0 29.7724 1.5536 27.822 3.63467 27.3272V9.67284C1.55354 9.17808 0 7.22766 0 4.89711C0 2.19253 2.09223 6.60718e-05 4.67303 6.60718e-05C7.25383 6.60718e-05 9.34606 2.19259 9.34606 4.89711C9.34606 7.22766 7.79246 9.1781 5.71139 9.67284V17.412ZM4.67303 7.61748C6.1069 7.61748 7.26915 6.39951 7.26915 4.89691C7.26915 3.39431 6.1069 2.17634 4.67303 2.17634C3.23916 2.17634 2.07691 3.39431 2.07691 4.89691C2.07691 6.39951 3.23916 7.61748 4.67303 7.61748V7.61748ZM4.67303 34.8239C6.1069 34.8239 7.26915 33.6059 7.26915 32.1033C7.26915 30.6007 6.1069 29.3827 4.67303 29.3827C3.23916 29.3827 2.07691 30.6007 2.07691 32.1033C2.07691 33.6059 3.23916 34.8239 4.67303 34.8239V34.8239ZM22.3268 7.61748C23.7607 7.61748 24.923 6.39951 24.923 4.89691C24.923 3.39431 23.7607 2.17634 22.3268 2.17634C20.893 2.17634 19.7307 3.39431 19.7307 4.89691C19.7307 6.39951 20.893 7.61748 22.3268 7.61748V7.61748Z"/>
</svg>
