<svg width="50" height="50" viewBox="0 0 50 50" xmlns="http://www.w3.org/2000/svg">
<path d="M39.3193 18.5034C38.2639 17.9978 36.9723 18.2314 35.947 19.1122L33.7503 20.9972V19.7839C33.7503 18.2494 32.5324 17 31.0366 17H14.7137C13.2179 17 12 18.2494 12 19.7839V31.2164C12 32.7506 13.2179 34 14.7137 34H31.0366C32.5322 34 33.7503 32.7506 33.7503 31.2161V30.5032L35.947 32.3882V32.3873C36.6151 32.961 37.3949 33.2596 38.1488 33.2596C38.5539 33.2596 38.9506 33.1735 39.3191 32.997C40.3724 32.4911 41 31.3428 41 29.9231V21.5773C41 20.1579 40.3726 19.0093 39.3193 18.5034ZM31.6787 31.2164C31.6787 31.5797 31.3908 31.8752 31.0364 31.8752H14.7135C14.3591 31.8752 14.0713 31.58 14.0713 31.2164V19.7839C14.0713 19.4203 14.3591 19.125 14.7135 19.125H22.875H31.0364C31.3906 19.125 31.6787 19.4203 31.6787 19.7839V28.7259V31.2164ZM38.9287 29.9233C38.9287 30.5046 38.7516 30.9232 38.4418 31.0707C38.1218 31.2258 37.6775 31.1015 37.2757 30.7562L33.7501 27.7324V23.7694L37.2757 20.7443C37.6775 20.4 38.1219 20.279 38.4418 20.4298C38.7516 20.5776 38.9287 20.9962 38.9287 21.5772V29.9233Z"/>
</svg>
