<svg width="50" height="30" viewBox="0 0 50 30" fill="none" xmlns="http://www.w3.org/2000/svg">
<path d="M48.825 2.875C48.4449 2.65558 48.0138 2.54007 47.575 2.54007C47.1362 2.54007 46.705 2.65558 46.325 2.875L37.5 7.225C37.4288 5.28393 36.6073 3.44618 35.2084 2.0986C33.8095 0.751012 31.9424 -0.00130444 30 1.69789e-06H7.5C5.51088 1.69789e-06 3.60322 0.790178 2.1967 2.1967C0.790176 3.60322 0 5.51088 0 7.5V22.5C0 24.4891 0.790176 26.3968 2.1967 27.8033C3.60322 29.2098 5.51088 30 7.5 30H30C31.9424 30.0013 33.8095 29.249 35.2084 27.9014C36.6073 26.5538 37.4288 24.7161 37.5 22.775L46.4 27.225C46.7408 27.3997 47.1171 27.4938 47.5 27.5C47.9681 27.5015 48.4271 27.3716 48.825 27.125C49.1853 26.8998 49.4822 26.5865 49.6878 26.2147C49.8934 25.8429 50.0008 25.4249 50 25V5C50.0008 4.57514 49.8934 4.15707 49.6878 3.78526C49.4822 3.41346 49.1853 3.10018 48.825 2.875V2.875ZM32.5 22.5C32.5 23.163 32.2366 23.7989 31.7678 24.2678C31.2989 24.7366 30.663 25 30 25H7.5C6.83696 25 6.20107 24.7366 5.73223 24.2678C5.26339 23.7989 5 23.163 5 22.5V7.5C5 6.83696 5.26339 6.20108 5.73223 5.73223C6.20107 5.26339 6.83696 5 7.5 5H30C30.663 5 31.2989 5.26339 31.7678 5.73223C32.2366 6.20108 32.5 6.83696 32.5 7.5V22.5ZM45 20.95L37.5 17.2V12.8L45 9.05V20.95Z" />
</svg>
