<svg width="50" height="50" viewBox="0 0 50 50" fill="none" xmlns="http://www.w3.org/2000/svg">
<path d="M42.6047 36.565C41.8019 37.9413 40.0814 38.4002 38.7054 37.597C37.501 36.909 36.985 35.4753 37.4438 34.2137L30.1605 29.9704C29.0137 31.576 27.1212 32.6656 24.9997 32.6656C22.8781 32.6656 20.9856 31.6336 19.8388 29.9704L12.5559 34.1565C12.9575 35.4181 12.4987 36.8517 11.2943 37.5397C9.9179 38.3425 8.19786 37.8837 7.39503 36.5077C6.59222 35.1313 7.05102 33.4113 8.42704 32.6085C9.63149 31.9204 11.1223 32.2069 11.9823 33.1821L19.2653 28.9956C18.9212 28.1928 18.6916 27.2751 18.6916 26.3575C18.6916 23.0886 21.2149 20.3938 24.4261 20.107V11.6773C23.1073 11.3905 22.1325 10.2436 22.1325 8.86725C22.1325 7.26159 23.3941 6 24.9998 6C26.6055 6 27.8671 7.26159 27.8671 8.86725C27.8671 10.2436 26.8922 11.3905 25.5735 11.6773V20.107C28.7847 20.3938 31.308 23.089 31.308 26.3575C31.308 27.2751 31.0788 28.1927 30.7344 28.9956L38.0173 33.1817C38.8773 32.2069 40.3685 31.9201 41.5726 32.6081C42.949 33.4113 43.4078 35.1889 42.605 36.565H42.6047Z" />
</svg>
