<svg width="18" height="17" viewBox="0 0 18 17" fill="none" xmlns="http://www.w3.org/2000/svg">
<path fill-rule="evenodd" clip-rule="evenodd" d="M3.30194 14.9044H4.32379C4.54318 14.9044 4.75358 14.9916 4.90872 15.1467C5.06385 15.3019 5.151 15.5123 5.151 15.7316C5.151 15.951 5.06385 16.1614 4.90872 16.3166C4.75358 16.4717 4.54318 16.5589 4.32379 16.5589H3.30194C2.64377 16.5589 2.01256 16.2974 1.54717 15.832C1.08177 15.3666 0.820312 14.7354 0.820312 14.0772V13.0554C0.820312 12.836 0.907465 12.6256 1.0626 12.4705C1.21773 12.3153 1.42813 12.2282 1.64752 12.2282C1.86691 12.2282 2.07732 12.3153 2.23245 12.4705C2.38758 12.6256 2.47473 12.836 2.47473 13.0554V14.0772C2.47473 14.2966 2.56189 14.507 2.71702 14.6622C2.87215 14.8173 3.08255 14.9044 3.30194 14.9044ZM2.23245 4.10306C2.07732 4.25819 1.86691 4.34534 1.64752 4.34534C1.42813 4.34534 1.21773 4.25819 1.0626 4.10306C0.907465 3.94793 0.820312 3.73752 0.820312 3.51813V2.49629C0.820312 1.83812 1.08177 1.2069 1.54717 0.741509C2.01256 0.276113 2.64377 0.0146561 3.30194 0.0146561H4.32379C4.54318 0.0146561 4.75358 0.101808 4.90872 0.25694C5.06385 0.412072 5.151 0.622476 5.151 0.841866C5.151 1.06126 5.06385 1.27166 4.90872 1.42679C4.75358 1.58192 4.54318 1.66908 4.32379 1.66908H3.30194C3.08255 1.66908 2.87215 1.75623 2.71702 1.91136C2.56189 2.06649 2.47473 2.2769 2.47473 2.49629V3.51813C2.47473 3.73752 2.38758 3.94793 2.23245 4.10306ZM13.861 0.0146561H14.8829C15.5411 0.0146561 16.1723 0.276113 16.6377 0.741509C17.1031 1.2069 17.3645 1.83812 17.3645 2.49629V3.51813C17.3645 3.73752 17.2774 3.94793 17.1222 4.10306C16.9671 4.25819 16.7567 4.34534 16.5373 4.34534C16.3179 4.34534 16.1075 4.25819 15.9524 4.10306C15.7972 3.94793 15.7101 3.73752 15.7101 3.51813V2.49629C15.7101 2.2769 15.6229 2.06649 15.4678 1.91136C15.3127 1.75623 15.1023 1.66908 14.8829 1.66908H13.861C13.6416 1.66908 13.4312 1.58192 13.2761 1.42679C13.121 1.27166 13.0338 1.06126 13.0338 0.841866C13.0338 0.622476 13.121 0.412072 13.2761 0.25694C13.4312 0.101808 13.6416 0.0146561 13.861 0.0146561ZM15.9524 12.4705C16.1075 12.3153 16.3179 12.2282 16.5373 12.2282C16.7567 12.2282 16.9671 12.3153 17.1222 12.4705C17.2774 12.6256 17.3645 12.836 17.3645 13.0554V14.0772C17.3645 14.7354 17.1031 15.3666 16.6377 15.832C16.1723 16.2974 15.5411 16.5589 14.8829 16.5589H13.861C13.6416 16.5589 13.4312 16.4717 13.2761 16.3166C13.121 16.1614 13.0338 15.951 13.0338 15.7316C13.0338 15.5123 13.121 15.3019 13.2761 15.1467C13.4312 14.9916 13.6416 14.9044 13.861 14.9044H14.8829C15.1023 14.9044 15.3127 14.8173 15.4678 14.6622C15.6229 14.507 15.7101 14.2966 15.7101 14.0772V13.0554C15.7101 12.836 15.7972 12.6256 15.9524 12.4705ZM1.6479 5.66723C1.19143 5.66723 0.821386 6.03728 0.821386 6.49375V10.0798C0.821386 10.5362 1.19143 10.9063 1.6479 10.9063C2.10438 10.9063 2.47442 10.5362 2.47442 10.0798V6.49375C2.47442 6.03728 2.10438 5.66723 1.6479 5.66723ZM15.7115 6.49375C15.7115 6.03728 16.0815 5.66723 16.538 5.66723C16.9944 5.66723 17.3645 6.03728 17.3645 6.49375V10.0798C17.3645 10.5362 16.9944 10.9063 16.538 10.9063C16.0815 10.9063 15.7115 10.5362 15.7115 10.0798V6.49375ZM5.46532 8.28677C5.46532 8.74324 5.83536 9.11328 6.29184 9.11328H11.8939C12.3503 9.11328 12.7204 8.74324 12.7204 8.28677C12.7204 7.83029 12.3503 7.46025 11.8939 7.46025L6.29184 7.46025C5.83536 7.46025 5.46532 7.83029 5.46532 8.28677Z" />
</svg>
