<svg width="43" height="43" viewBox="0 0 43 43" xmlns="http://www.w3.org/2000/svg">
<path fill-rule="evenodd" clip-rule="evenodd" d="M6.44998 38.6999H9.10585C9.67607 38.6999 10.2229 38.9264 10.6261 39.3296C11.0293 39.7328 11.2558 40.2796 11.2558 40.8499C11.2558 41.4201 11.0293 41.9669 10.6261 42.3701C10.2229 42.7733 9.67607 42.9999 9.10585 42.9999H6.44998C4.73934 42.9999 3.09876 42.3203 1.88915 41.1107C0.67955 39.9011 0 38.2605 0 36.5499V33.894C0 33.3238 0.226516 32.7769 0.629718 32.3737C1.03292 31.9705 1.57978 31.744 2.14999 31.744C2.72021 31.744 3.26707 31.9705 3.67027 32.3737C4.07347 32.7769 4.29999 33.3238 4.29999 33.894V36.5499C4.29999 37.1201 4.5265 37.6669 4.9297 38.0701C5.33291 38.4733 5.87976 38.6999 6.44998 38.6999ZM3.67027 10.6261C3.26707 11.0293 2.72021 11.2558 2.14999 11.2558C1.57978 11.2558 1.03292 11.0293 0.629718 10.6261C0.226516 10.2229 0 9.67607 0 9.10585V6.44998C0 4.73934 0.67955 3.09876 1.88915 1.88915C3.09876 0.679549 4.73934 0 6.44998 0H9.10585C9.67607 0 10.2229 0.226516 10.6261 0.629718C11.0293 1.03292 11.2558 1.57978 11.2558 2.14999C11.2558 2.72021 11.0293 3.26707 10.6261 3.67027C10.2229 4.07347 9.67607 4.29998 9.10585 4.29998H6.44998C5.87976 4.29998 5.33291 4.5265 4.9297 4.9297C4.5265 5.33291 4.29999 5.87976 4.29999 6.44998V9.10585C4.29999 9.67607 4.07347 10.2229 3.67027 10.6261ZM33.894 0H36.5499C38.2605 0 39.9011 0.679549 41.1107 1.88915C42.3203 3.09876 42.9999 4.73934 42.9999 6.44998V9.10585C42.9999 9.67607 42.7733 10.2229 42.3701 10.6261C41.9669 11.0293 41.4201 11.2558 40.8499 11.2558C40.2796 11.2558 39.7328 11.0293 39.3296 10.6261C38.9264 10.2229 38.6999 9.67607 38.6999 9.10585V6.44998C38.6999 5.87976 38.4733 5.33291 38.0701 4.9297C37.6669 4.5265 37.1201 4.29998 36.5499 4.29998H33.894C33.3238 4.29998 32.7769 4.07347 32.3737 3.67027C31.9705 3.26707 31.744 2.72021 31.744 2.14999C31.744 1.57978 31.9705 1.03292 32.3737 0.629718C32.7769 0.226516 33.3238 0 33.894 0ZM39.3296 32.3737C39.7328 31.9705 40.2796 31.744 40.8499 31.744C41.4201 31.744 41.9669 31.9705 42.3701 32.3737C42.7733 32.7769 42.9999 33.3238 42.9999 33.894V36.5499C42.9999 38.2605 42.3203 39.9011 41.1107 41.1107C39.9011 42.3203 38.2605 42.9999 36.5499 42.9999H33.894C33.3238 42.9999 32.7769 42.7733 32.3737 42.3701C31.9705 41.9669 31.744 41.4201 31.744 40.8499C31.744 40.2796 31.9705 39.7328 32.3737 39.3296C32.7769 38.9264 33.3238 38.6999 33.894 38.6999H36.5499C37.1201 38.6999 37.6669 38.4733 38.0701 38.0701C38.4733 37.6669 38.6999 37.1201 38.6999 36.5499V33.894C38.6999 33.3238 38.9264 32.7769 39.3296 32.3737ZM2.15002 14.6914C0.963606 14.6914 0.00182576 15.6532 0.00182576 16.8396V26.16C0.00182576 27.3464 0.963606 28.3082 2.15002 28.3082C3.33644 28.3082 4.29822 27.3464 4.29822 26.16V16.8396C4.29822 15.6532 3.33644 14.6914 2.15002 14.6914ZM38.7043 16.8396C38.7043 15.6532 39.6661 14.6914 40.8525 14.6914C42.039 14.6914 43.0007 15.6532 43.0007 16.8396V26.16C43.0007 27.3464 42.039 28.3082 40.8525 28.3082C39.6661 28.3082 38.7043 27.3464 38.7043 26.16V16.8396ZM14.8352 14.8334C13.9963 15.6724 13.9963 17.0325 14.8352 17.8714L25.1308 28.167C25.9697 29.0059 27.3299 29.0059 28.1688 28.167C29.0077 27.3281 29.0077 25.9679 28.1688 25.129L17.8732 14.8334C17.0343 13.9945 15.6741 13.9945 14.8352 14.8334ZM16.8401 42.9967C15.6537 42.9967 14.6919 42.0349 14.6919 40.8485C14.6919 39.6621 15.6537 38.7003 16.8401 38.7003H26.1605C27.3469 38.7003 28.3087 39.6621 28.3087 40.8485C28.3087 42.0349 27.3469 42.9967 26.1605 42.9967H16.8401ZM14.6919 2.14827C14.6919 3.33469 15.6537 4.29647 16.8401 4.29647L26.1605 4.29647C27.3469 4.29647 28.3087 3.33469 28.3087 2.14827C28.3087 0.961858 27.3469 7.8125e-05 26.1605 7.81768e-05L16.8401 7.85842e-05C15.6537 7.86361e-05 14.6919 0.961859 14.6919 2.14827Z"/>
<rect x="16.3545" y="29.6855" width="4.29639" height="18.8565" rx="2.1482" transform="rotate(-135 16.3545 29.6855)"/>
</svg>
