<svg width="50" height="51" viewBox="0 0 50 51" xmlns="http://www.w3.org/2000/svg">
<path d="M32.831 13.4404C32.5994 12.8544 32.1595 12.396 31.6122 12.1703C31.0724 11.9349 30.4689 11.9439 29.9353 12.1951C29.4015 12.4465 28.9815 12.9195 28.7685 13.5094L25.1575 23.454C24.6428 23.29 24.0944 23.3025 23.5863 23.4902C23.0785 23.6777 22.6358 24.0313 22.3182 24.5025L20.9641 26.5111C18.8398 28.4434 16.284 29.7275 13.5568 30.233C13.2783 30.2726 13.0518 30.4965 12.9883 30.7948C12.9251 31.0932 13.0383 31.4031 13.2725 31.5721C19.1404 35.8945 22.6746 38.0312 24.8505 39.0208C24.9289 39.0804 25.0182 39.1208 25.1123 39.1389C25.8377 39.5026 26.6178 39.7193 27.4143 39.7789C27.6069 39.8079 27.803 39.7771 27.9804 39.6901C28.1575 39.603 28.3086 39.4633 28.4164 39.2866C30.9397 34.8312 30.4972 31.2769 30.3664 30.5286L30.6417 28.1015V28.1017C30.707 27.5176 30.6054 26.9257 30.3509 26.4066C30.0966 25.8877 29.7014 25.467 29.2198 25.202L32.8309 15.2675C33.0564 14.6836 33.0564 14.0251 32.8309 13.4409L32.831 13.4404ZM27.3468 38.3561C26.9779 38.3434 26.6146 38.2531 26.277 38.0902C26.6273 37.5324 26.938 36.9467 27.207 36.3377C27.2962 36.1581 27.3132 35.946 27.2539 35.7522C27.1949 35.5584 27.0645 35.4001 26.8944 35.3149C26.7242 35.2294 26.5291 35.2247 26.3558 35.3021C26.1823 35.3792 26.0459 35.5313 25.9792 35.7223C25.6967 36.3393 25.3739 36.9331 25.0131 37.4995C24.616 37.2927 24.1871 37.0612 23.7267 36.7955C24.5283 35.8944 25.1778 34.8462 25.6451 33.6988C25.7835 33.3197 25.6136 32.8898 25.266 32.7388C24.9182 32.5881 24.5241 32.7731 24.3859 33.1525C23.9216 34.2419 23.281 35.2307 22.4945 36.0718C21.3525 35.3826 20.0978 34.5949 18.8067 33.7087C19.8878 33.0588 20.9229 32.3217 21.9033 31.5033C22.1961 31.245 22.2416 30.7767 22.0048 30.4571C21.7679 30.1375 21.3384 30.0881 21.0456 30.3463C19.9162 31.2624 18.7259 32.0852 17.4842 32.8079C16.7801 32.3156 16.0714 31.8233 15.3718 31.3309C17.647 30.6507 19.7691 29.4657 21.6055 27.8503L29.0715 31.0749C29.1844 32.0496 29.2747 34.9001 27.3472 38.356L27.3468 38.3561ZM29.3013 27.8849L29.1207 29.4849L22.5486 26.664L23.4244 25.3693H23.4242C23.5874 25.1172 23.823 24.932 24.0936 24.8427C24.3645 24.7535 24.6546 24.7656 24.9184 24.877L25.3065 25.0493L28.1141 26.2603L28.5069 26.4277C28.7678 26.5414 28.9871 26.7458 29.1308 27.0093C29.2742 27.2728 29.3343 27.5805 29.3013 27.8849L29.3013 27.8849ZM31.5582 14.7012L27.9471 24.6166L26.4396 23.9469L30.0507 14.0366C30.1345 13.816 30.2951 13.6404 30.497 13.5483C30.6991 13.456 30.9264 13.4547 31.1294 13.5443C31.3317 13.636 31.4927 13.8109 31.5771 14.0314C31.6617 14.2516 31.663 14.4995 31.5807 14.7208L31.5582 14.7012ZM17.3941 37.4115C17.2905 37.5717 17.1326 37.68 16.9554 37.7123C16.7781 37.7449 16.5965 37.6985 16.4507 37.5838C16.3874 37.5345 14.9069 36.4121 13.4625 37.249H13.4627C13.3033 37.3508 13.1126 37.3774 12.9349 37.3222C12.7572 37.2671 12.6079 37.135 12.5216 36.957C12.4352 36.7787 12.4195 36.5697 12.4779 36.3787C12.5361 36.1875 12.6637 36.0306 12.8308 35.9445C15.0244 34.6744 17.1505 36.3137 17.2408 36.3827L17.2406 36.3825C17.5428 36.6209 17.6115 37.0809 17.3941 37.4115L17.3941 37.4115ZM13.6251 34.9943L11.5036 34.3837C11.1421 34.2791 10.9269 33.8745 11.0228 33.4804C11.1189 33.0862 11.4897 32.8514 11.8513 32.956L13.9727 33.5666C14.3465 33.6183 14.6113 33.9908 14.564 34.3985C14.5166 34.8064 14.1751 35.0952 13.8013 35.0435C13.7406 35.0369 13.6812 35.0205 13.6251 34.9943L13.6251 34.9943Z" fill="black"/>
</svg>
