<svg width="50" height="50" viewBox="0 0 50 50" fill="none" xmlns="http://www.w3.org/2000/svg">
<path d="M29.1974 39.3001H17.8639C17.1044 39.3001 16.3759 38.9722 15.8389 38.3883C15.3016 37.8045 15 37.0128 15 36.187V19.9544C15 19.1289 15.3017 18.3371 15.8389 17.7532C16.3759 17.1694 17.1044 16.8416 17.8639 16.8416H29.1974C29.9569 16.8416 30.6856 17.1694 31.2226 17.7532C31.7596 18.3371 32.0615 19.1289 32.0615 19.9544V36.187C32.0615 37.0128 31.7596 37.8045 31.2226 38.3883C30.6856 38.9722 29.9569 39.3001 29.1974 39.3001ZM17.8639 18.4178C17.4892 18.4184 17.13 18.5806 16.865 18.8686C16.6001 19.1566 16.4509 19.5471 16.4502 19.9543V36.1869C16.4509 36.5943 16.6 36.9848 16.865 37.2728C17.13 37.5608 17.4892 37.7229 17.8639 37.7237H29.1974C29.5721 37.7229 29.9313 37.5608 30.1963 37.2728C30.4612 36.9848 30.6105 36.5943 30.6113 36.1869V19.9543C30.6105 19.5471 30.4612 19.1566 30.1963 18.8686C29.9313 18.5806 29.5721 18.4184 29.1974 18.4178H17.8639Z"/>
<path d="M35.4665 32.1599H34.8312C34.5735 32.1599 34.3356 32.0105 34.2067 31.7681C34.0779 31.5255 34.0779 31.2266 34.2067 30.9842C34.3356 30.7416 34.5735 30.5921 34.8312 30.5921H35.4771C35.764 30.5913 36.0392 30.4672 36.242 30.2465C36.4451 30.026 36.5595 29.7269 36.56 29.4148V14.1131C36.5595 13.7057 36.4102 13.3152 36.1452 13.0272C35.8802 12.7392 35.521 12.5771 35.1464 12.5763H24.659C24.3731 12.5763 24.0989 12.6993 23.896 12.9182C23.693 13.1372 23.578 13.4345 23.576 13.7451C23.576 14.0253 23.4386 14.2841 23.2154 14.424C22.9922 14.564 22.7174 14.564 22.4942 14.424C22.271 14.2841 22.1337 14.0253 22.1337 13.7451C22.1342 13.0173 22.4006 12.3195 22.8741 11.8048C23.3476 11.2902 23.9896 11.0008 24.659 11H35.1362C35.8957 11 36.6241 11.3279 37.1612 11.9118C37.6984 12.4956 38 13.2873 38 14.1131V29.4234V29.4232C37.9973 30.151 37.7291 30.848 37.2541 31.3611C36.779 31.8742 36.1363 32.1614 35.4667 32.1598L35.4665 32.1599Z"/>
</svg>
