<svg width="50" height="50" viewBox="0 0 50 50" fill="none" xmlns="http://www.w3.org/2000/svg">
<path d="M37.3 12.3077H29.6286C28.9739 12.3077 28.6466 12.3077 28.4061 12.4551C28.2715 12.5376 28.1584 12.6507 28.0759 12.7852C27.9286 13.0257 27.9286 13.3531 27.9286 14.0077V35.6627C27.9286 36.3174 27.9286 36.6447 28.0759 36.8852C28.1584 37.0197 28.2715 37.1329 28.4061 37.2153C28.6466 37.3627 28.9739 37.3627 29.6286 37.3627H37.3C37.9547 37.3627 38.282 37.3627 38.5225 37.2153C38.6571 37.1329 38.7702 37.0197 38.8527 36.8852C39 36.6447 39 36.3174 39 35.6627V14.0077C39 13.3531 39 13.0257 38.8527 12.7852C38.7702 12.6507 38.6571 12.5376 38.5225 12.4551C38.282 12.3077 37.9547 12.3077 37.3 12.3077Z" fill="#C4C4C4" stroke="black" stroke-width="2"/>
<path d="M27.9286 10L27.9286 40" stroke="grey" stroke-width="4" stroke-linecap="round" stroke-linejoin="round"/>
<path d="M27.7499 13.6375C28.3022 13.6375 28.7499 13.1898 28.7499 12.6375C28.7499 12.0852 28.3022 11.6375 27.7499 11.6375V13.6375ZM15.7856 12.6375V11.6375H14.7856V12.6375H15.7856ZM15.7856 37.0331H14.7856V38.0331H15.7856V37.0331ZM27.7499 38.0331C28.3022 38.0331 28.7499 37.5854 28.7499 37.0331C28.7499 36.4808 28.3022 36.0331 27.7499 36.0331V38.0331ZM27.7499 11.6375H26.2544V13.6375H27.7499V11.6375ZM23.2633 11.6375H21.7678V13.6375H23.2633V11.6375ZM21.7678 11.6375H20.2723V13.6375H21.7678V11.6375ZM17.2812 11.6375H15.7856V13.6375H17.2812V11.6375ZM14.7856 12.6375V14.6704H16.7856V12.6375H14.7856ZM14.7856 18.7364V22.8023H16.7856V18.7364H14.7856ZM14.7856 26.8683V30.9342H16.7856V26.8683H14.7856ZM14.7856 35.0001V37.0331H16.7856V35.0001H14.7856ZM15.7856 38.0331H18.7767V36.0331H15.7856V38.0331ZM24.7589 38.0331H27.7499V36.0331H24.7589V38.0331Z" fill="black"/>
<path d="M20.5857 23.5164H9.2C9.08954 23.5164 9 23.606 9 23.7164V26.2835C9 26.3939 9.08954 26.4835 9.2 26.4835H20.5857C20.6962 26.4835 20.7857 26.573 20.7857 26.6835V30.1724C20.7857 30.3428 20.9852 30.4352 21.1151 30.325L27.2103 25.1548C27.3054 25.0741 27.3043 24.9271 27.2081 24.8478L21.1128 19.8297C20.9824 19.7223 20.7857 19.8151 20.7857 19.9841V23.3164C20.7857 23.4269 20.6962 23.5164 20.5857 23.5164Z" fill="black"/>
</svg>
