<svg width="33" height="39" viewBox="0 0 33 39" fill="none" xmlns="http://www.w3.org/2000/svg">
<path fill-rule="evenodd" clip-rule="evenodd" d="M16.4996 0C15.5926 0 14.8574 0.735272 14.8574 1.64227V37.1813C14.8574 38.0883 15.5926 38.8235 16.4996 38.8235C17.4066 38.8235 18.1419 38.0883 18.1419 37.1813V1.64227C18.1419 0.73527 17.4066 0 16.4996 0ZM4.95 32.6119H9.9C10.3376 32.6119 10.7573 32.7857 11.0667 33.0952C11.3762 33.4046 11.55 33.8243 11.55 34.2619C11.55 34.6995 11.3762 35.1192 11.0667 35.4286C10.7573 35.7381 10.3376 35.9119 9.9 35.9119H4.95C3.63718 35.9119 2.37813 35.3904 1.44982 34.4621C0.521517 33.5338 0 32.2747 0 30.9619V26.2232V26.0119V12.8119V11.3416V7.8619C0 6.54908 0.521517 5.29003 1.44982 4.36172C2.37813 3.43342 3.63718 2.9119 4.95 2.9119H9.9C10.3376 2.9119 10.7573 3.08574 11.0667 3.39517C11.3762 3.70461 11.55 4.12429 11.55 4.5619C11.55 4.99951 11.3762 5.41919 11.0667 5.72863C10.7573 6.03806 10.3376 6.2119 9.9 6.2119H4.95C4.51239 6.2119 4.09271 6.38574 3.78327 6.69517C3.47384 7.00461 3.3 7.42429 3.3 7.8619V12.8119C3.3 12.8275 3.29978 12.8432 3.29934 12.8587V25.9651C3.29978 25.9806 3.3 25.9963 3.3 26.0119V30.9619C3.3 31.3995 3.47384 31.8192 3.78327 32.1286C4.09271 32.4381 4.51239 32.6119 4.95 32.6119ZM23.1 2.9119H28.05C29.3628 2.9119 30.6219 3.43342 31.5502 4.36172C32.4785 5.29003 33 6.54908 33 7.8619V12.8119C33 12.8275 32.9998 12.8431 32.9993 12.8587V25.9651C32.9996 25.9733 32.9997 25.9816 32.9999 25.9898C33 25.9972 33 26.0045 33 26.0119V30.9619C33 32.2747 32.4785 33.5338 31.5502 34.4621C30.6219 35.3904 29.3628 35.9119 28.05 35.9119H23.1C22.6624 35.9119 22.2427 35.7381 21.9333 35.4286C21.6238 35.1192 21.45 34.6995 21.45 34.2619C21.45 33.8243 21.6238 33.4046 21.9333 33.0952C22.2427 32.7857 22.6624 32.6119 23.1 32.6119H28.05C28.4876 32.6119 28.9073 32.4381 29.2167 32.1286C29.5262 31.8192 29.7 31.3995 29.7 30.9619V26.2232V26.0119V12.8119V11.3416V7.8619C29.7 7.42429 29.5262 7.00461 29.2167 6.69517C28.9073 6.38574 28.4876 6.2119 28.05 6.2119H23.1C22.6624 6.2119 22.2427 6.03806 21.9333 5.72863C21.6238 5.41919 21.45 4.99951 21.45 4.5619C21.45 4.12429 21.6238 3.70461 21.9333 3.39517C22.2427 3.08574 22.6624 2.9119 23.1 2.9119Z" />
</svg>
