<svg width="24" height="28" viewBox="0 0 24 28" fill="none" xmlns="http://www.w3.org/2000/svg">
<path fill-rule="evenodd" clip-rule="evenodd" d="M11.8741 0C11.2213 0 10.6921 0.529172 10.6921 1.18194V26.7592C10.6921 27.412 11.2213 27.9412 11.8741 27.9412C12.5268 27.9412 13.056 27.412 13.056 26.7592V1.18194C13.056 0.529172 12.5268 0 11.8741 0ZM3.5625 23.4699H7.125C7.43995 23.4699 7.74199 23.595 7.96469 23.8177C8.18739 24.0404 8.3125 24.3424 8.3125 24.6574C8.3125 24.9723 8.18739 25.2743 7.96469 25.497C7.74199 25.7197 7.43995 25.8449 7.125 25.8449H3.5625C2.61767 25.8449 1.71153 25.4695 1.04343 24.8014C0.375334 24.1333 0 23.2272 0 22.2824V18.8719V18.7199V9.21986V8.16171V5.65736C0 4.71252 0.375334 3.80639 1.04343 3.13829C1.71153 2.47019 2.61767 2.09486 3.5625 2.09486H7.125C7.43995 2.09486 7.74199 2.21997 7.96469 2.44267C8.18739 2.66537 8.3125 2.96741 8.3125 3.28236C8.3125 3.5973 8.18739 3.89935 7.96469 4.12205C7.74199 4.34475 7.43995 4.46986 7.125 4.46986H3.5625C3.24756 4.46986 2.94551 4.59497 2.72281 4.81767C2.50011 5.04037 2.375 5.34241 2.375 5.65736V9.21986C2.375 9.23111 2.37484 9.24235 2.37452 9.25357V18.6861C2.37484 18.6974 2.375 18.7086 2.375 18.7199V22.2824C2.375 22.5973 2.50011 22.8993 2.72281 23.122C2.94551 23.3447 3.24756 23.4699 3.5625 23.4699ZM16.625 2.09486H20.1875C21.1323 2.09486 22.0385 2.47019 22.7066 3.13829C23.3747 3.80639 23.75 4.71252 23.75 5.65736V9.21986C23.75 9.23727 23.7496 9.25464 23.7489 9.27196V18.6678C23.7496 18.6851 23.75 18.7024 23.75 18.7199V22.2824C23.75 23.2272 23.3747 24.1333 22.7066 24.8014C22.0385 25.4695 21.1323 25.8449 20.1875 25.8449H16.625C16.3101 25.8449 16.008 25.7197 15.7853 25.497C15.5626 25.2743 15.4375 24.9723 15.4375 24.6574C15.4375 24.3424 15.5626 24.0404 15.7853 23.8177C16.008 23.595 16.3101 23.4699 16.625 23.4699H20.1875C20.5024 23.4699 20.8045 23.3447 21.0272 23.122C21.2499 22.8993 21.375 22.5973 21.375 22.2824V18.8728H21.3743V8.16254H21.375V5.65736C21.375 5.34241 21.2499 5.04037 21.0272 4.81767C20.8045 4.59497 20.5024 4.46986 20.1875 4.46986H16.625C16.3101 4.46986 16.008 4.34475 15.7853 4.12205C15.5626 3.89935 15.4375 3.5973 15.4375 3.28236C15.4375 2.96741 15.5626 2.66537 15.7853 2.44267C16.008 2.21997 16.3101 2.09486 16.625 2.09486Z"/>
</svg>
