<svg width="50" height="50" viewBox="0 0 50 50" fill="none" xmlns="http://www.w3.org/2000/svg">
<circle cx="25" cy="25" r="25" fill="white"/>
<path d="M33.1697 14.7479L14.7071 33.2106C14.3166 33.6011 14.3211 34.2296 14.7172 34.6145L16.152 36.0084C16.5481 36.3933 17.1858 36.3887 17.5764 35.9982L36.039 17.5355C36.4295 17.145 36.425 16.5165 36.0288 16.1316L34.5941 14.7377C34.198 14.3528 33.5603 14.3574 33.1697 14.7479Z" fill="black"/>
<path d="M35.0883 33.1697L16.6257 14.7071C16.2352 14.3166 15.6066 14.3211 15.2218 14.7172L13.8278 16.152C13.443 16.5481 13.4476 17.1858 13.8381 17.5764L32.3007 36.039C32.6912 36.4295 33.3198 36.425 33.7046 36.0288L35.0986 34.5941C35.4834 34.198 35.4788 33.5603 35.0883 33.1697Z" fill="black"/>
</svg>
