<svg width="47" height="47" viewBox="0 0 47 47" fill="none" xmlns="http://www.w3.org/2000/svg">
<path d="M23.5 46C11.0736 46 1 35.9264 1 23.5C1 11.0736 11.0736 0.999998 23.5 0.999999C35.9264 1 46 11.0736 46 23.5C46 35.9264 35.9264 46 23.5 46Z" stroke="#7D7D7D" stroke-width="2"/>
<path d="M23.5922 31.6465C23.8912 31.6238 24.1744 31.4959 24.3966 31.2831L35.1207 21.0823C35.3852 20.8309 35.5444 20.4788 35.5633 20.1033C35.5822 19.7279 35.4592 19.3599 35.2215 19.0803C34.9837 18.8007 34.6506 18.6324 34.2955 18.6124C33.9403 18.5924 33.5922 18.7224 33.3278 18.9738L23.5003 28.3248L13.6729 18.9717C13.5418 18.8473 13.3888 18.7513 13.2227 18.6894C13.0565 18.6274 12.8804 18.6007 12.7045 18.6107C12.5285 18.6207 12.3562 18.6672 12.1973 18.7476C12.0383 18.828 11.8959 18.9407 11.7782 19.0793C11.6605 19.2179 11.5697 19.3796 11.5111 19.5553C11.4525 19.7309 11.4272 19.917 11.4367 20.103C11.4461 20.289 11.4901 20.4712 11.5662 20.6392C11.6422 20.8073 11.7489 20.9578 11.88 21.0822L22.6041 31.2856C22.7374 31.4132 22.8936 31.5111 23.0635 31.5735C23.2333 31.6359 23.4133 31.6616 23.5927 31.649L23.5922 31.6465Z" fill="#7D7D7D"/>
</svg>
