<svg width="50" height="50" viewBox="0 0 50 50" fill="none" xmlns="http://www.w3.org/2000/svg">
<path d="M36.4259 14.2016C36.8164 13.8111 36.8164 13.1779 36.4259 12.7874C36.0353 12.3969 35.4022 12.3969 35.0116 12.7874L36.4259 14.2016ZM26.1673 21.6317C25.7768 22.0222 25.7768 22.6554 26.1673 23.0459C26.5579 23.4364 27.191 23.4364 27.5816 23.0459L26.1673 21.6317ZM35.0116 12.7874L26.1673 21.6317L27.5816 23.0459L36.4259 14.2016L35.0116 12.7874Z" fill="black"/>
<path d="M35.9455 14.2678C36.4978 14.2678 36.9455 13.8201 36.9455 13.2678C36.9455 12.7155 36.4978 12.2678 35.9455 12.2678L35.9455 14.2678ZM31.41 12.2678C30.8577 12.2678 30.41 12.7155 30.41 13.2678C30.41 13.8201 30.8577 14.2678 31.41 14.2678L31.41 12.2678ZM35.9455 12.2678L31.41 12.2678L31.41 14.2678L35.9455 14.2678L35.9455 12.2678Z" fill="black"/>
<path d="M36.9454 13.2678C36.9454 12.7155 36.4977 12.2678 35.9454 12.2678C35.3931 12.2678 34.9454 12.7155 34.9454 13.2678L36.9454 13.2678ZM34.9454 17.8034C34.9454 18.3556 35.3931 18.8034 35.9454 18.8034C36.4977 18.8034 36.9454 18.3556 36.9454 17.8034L34.9454 17.8034ZM34.9454 13.2678L34.9454 17.8034L36.9454 17.8034L36.9454 13.2678L34.9454 13.2678Z" fill="black"/>
<path d="M12.7874 35.0115C12.3969 35.402 12.3969 36.0352 12.7874 36.4257C13.1779 36.8163 13.8111 36.8163 14.2016 36.4257L12.7874 35.0115ZM23.0459 27.5814C23.4364 27.1909 23.4364 26.5577 23.0459 26.1672C22.6554 25.7767 22.0222 25.7767 21.6317 26.1672L23.0459 27.5814ZM14.2016 36.4257L23.0459 27.5814L21.6317 26.1672L12.7874 35.0115L14.2016 36.4257Z" fill="black"/>
<path d="M13.2678 34.9454C12.7155 34.9454 12.2678 35.3931 12.2678 35.9454C12.2678 36.4977 12.7155 36.9454 13.2678 36.9454L13.2678 34.9454ZM17.8033 36.9454C18.3556 36.9454 18.8033 36.4977 18.8033 35.9454C18.8033 35.3931 18.3556 34.9454 17.8033 34.9454L17.8033 36.9454ZM13.2678 36.9454L17.8033 36.9454L17.8033 34.9454L13.2678 34.9454L13.2678 36.9454Z" fill="black"/>
<path d="M12.2678 35.9454C12.2678 36.4977 12.7155 36.9454 13.2678 36.9454C13.8201 36.9454 14.2678 36.4977 14.2678 35.9454L12.2678 35.9454ZM14.2678 31.4099C14.2678 30.8576 13.8201 30.4099 13.2678 30.4099C12.7155 30.4099 12.2678 30.8576 12.2678 31.4099L14.2678 31.4099ZM14.2678 35.9454L14.2678 31.4099L12.2678 31.4099L12.2678 35.9454L14.2678 35.9454Z" fill="black"/>
</svg>
