<svg width="20" height="20" viewBox="0 0 20 20" xmlns="http://www.w3.org/2000/svg">
<path d="M14.6154 9.06067C14.613 8.42819 14.3978 7.8156 14.0055 7.32395C14.1388 6.76199 14.0971 6.17191 13.8867 5.63474C13.8452 5.53133 13.7601 5.45227 13.655 5.41921C13.5062 5.3675 12.9432 5.27056 11.7959 6.0246C11.3024 5.89249 10.7935 5.83026 10.2832 5.83943C9.77221 5.83011 9.26241 5.89249 8.76828 6.02475C7.59126 5.2534 6.97932 5.3783 6.85617 5.41497C6.75049 5.44939 6.66558 5.5301 6.62452 5.63471C6.41348 6.17007 6.37035 6.7585 6.50136 7.31972C6.09616 7.8088 5.88024 8.43059 5.89371 9.06922C5.89371 11.4524 7.2385 12.172 8.47084 12.4263C8.40756 12.5832 8.36399 12.7475 8.34131 12.9154C8.33909 12.9333 8.33909 12.9515 8.34131 12.9694V13.6286C7.21957 13.7234 6.97944 13.0576 6.95604 12.9821C6.95055 12.9645 6.94418 12.9474 6.93677 12.9304C6.7201 12.4823 6.33875 12.1379 5.87444 11.9717C5.6797 11.9057 5.46894 12.0122 5.40391 12.2097C5.33885 12.4072 5.44392 12.621 5.63866 12.6871C5.89594 12.7813 6.11056 12.9674 6.24214 13.2106C6.39094 13.6996 6.99859 14.4732 8.33701 14.3869V15.0075C8.33701 15.2159 8.50344 15.3846 8.70885 15.3846C8.91412 15.3846 9.0807 15.2159 9.0807 15.0075V12.9973C9.10886 12.7777 9.20312 12.5724 9.35043 12.409C9.45595 12.3089 9.49419 12.1558 9.44854 12.0167C9.40289 11.8779 9.28152 11.7785 9.13805 11.7626C7.84202 11.6096 6.64379 11.1766 6.64379 9.05416C6.62645 8.53622 6.82356 8.03452 7.18755 7.6708C7.28625 7.56319 7.31886 7.40943 7.27262 7.27011C7.14739 6.90127 7.13924 6.50192 7.2492 6.12811C7.70536 6.23257 8.13382 6.43623 8.5048 6.72497C8.60143 6.78975 8.72192 6.80643 8.83203 6.77021C9.3042 6.62441 9.79624 6.55678 10.2896 6.56986C10.7821 6.55678 11.2736 6.62442 11.745 6.77021C11.8551 6.80673 11.9757 6.79005 12.0722 6.72497C12.4295 6.44721 12.8386 6.24566 13.2747 6.13235C13.3831 6.51035 13.3734 6.913 13.247 7.28515C13.2048 7.41155 13.2323 7.55133 13.3193 7.65143C13.671 8.03229 13.8702 8.53247 13.8781 9.05418C13.8781 11.1722 12.6182 11.6118 11.3838 11.7626C11.2325 11.7797 11.107 11.889 11.0675 12.0381C11.0281 12.1872 11.0828 12.3455 11.2054 12.4371C11.3371 12.5384 11.4901 12.8228 11.4901 13.2989V15.0055C11.4901 15.2138 11.6565 15.3826 11.8618 15.3826C12.0672 15.3826 12.2336 15.2138 12.2336 15.0055V13.2989C12.2375 12.9988 12.1834 12.7009 12.0743 12.4219C13.0729 12.2066 14.6154 11.5408 14.6154 9.06067Z"/>
</svg>
