<svg width="57" height="108" viewBox="0 0 57 108" fill="none" xmlns="http://www.w3.org/2000/svg">
<mask id="path-1-inside-1_651_190" fill="white">
<path d="M39.5854 13.8639C39.5854 20.2008 34.4482 25.3373 28.1114 25.3373C21.7753 25.3373 16.638 20.201 16.638 13.8639C16.638 7.52705 21.7751 2.3905 28.1114 2.3905C34.4482 2.3905 39.5854 7.52685 39.5854 13.8639"/>
</mask>
<path d="M38.5854 13.8639C38.5854 19.6484 33.896 24.3373 28.1114 24.3373V26.3373C35.0004 26.3373 40.5854 20.7531 40.5854 13.8639H38.5854ZM28.1114 24.3373C22.3275 24.3373 17.638 19.6486 17.638 13.8639H15.638C15.638 20.7533 21.2231 26.3373 28.1114 26.3373V24.3373ZM17.638 13.8639C17.638 8.07937 22.3274 3.3905 28.1114 3.3905V1.3905C21.2229 1.3905 15.638 6.97473 15.638 13.8639H17.638ZM28.1114 3.3905C33.896 3.3905 38.5854 8.07921 38.5854 13.8639H40.5854C40.5854 6.97448 35.0004 1.3905 28.1114 1.3905V3.3905Z" fill="black" mask="url(#path-1-inside-1_651_190)"/>
<path d="M52.2859 0.504229L52.2859 0.504274L52.2897 0.504396C54.5008 0.606507 56.2169 2.51483 56.014 4.84662L56.0132 4.85554L56.0128 4.86448L55.4446 15.9971L55.4444 16.0017C55.2238 21.2919 52.5813 25.9259 48.3788 29.0231C48.3782 29.0235 48.3776 29.024 48.377 29.0244L42.2528 33.4477C42.2519 33.4484 42.2509 33.4491 42.2499 33.4498C41.153 34.2173 40.0501 34.77 38.8112 35.3333L38.4999 35.4748L38.519 35.8163L39.8819 60.2403L39.8818 60.2403L39.8827 60.2514L43.1767 102.397L43.1767 102.398C43.3813 104.952 41.4426 107.209 38.8834 107.425H38.4499C36.0992 107.425 34.043 105.582 33.8365 103.113C33.8364 103.113 33.8364 103.112 33.8363 103.112L30.8832 65.2858L30.8472 64.8247H30.3847H25.7269H25.2644L25.2284 65.2858L22.2751 103.114C22.2751 103.114 22.275 103.114 22.275 103.114C22.069 105.683 19.8074 107.631 17.2468 107.426C14.6779 107.221 12.729 104.959 12.9341 102.398L16.3414 60.2528L16.3421 60.2443L16.3425 60.2358L17.1381 43.1958L17.22 41.4408L16.2263 42.8897C13.4693 46.9093 11.2876 51.5028 9.90968 56.3263L8.54671 61.0975L8.54574 61.101C8.03715 62.9317 6.41501 64.1431 4.59709 64.1431C4.1455 64.1431 3.86058 64.1415 3.47663 64.0466C1.35753 63.4362 0.0437507 61.1007 0.647422 58.9871L2.01038 54.2159L2.01064 54.215C4.14914 46.6735 7.9757 39.5844 13.1507 33.7346L13.1508 33.7347L13.1558 33.7288C15.784 30.6628 19.733 28.9047 23.7954 28.9047H30.725C33.0972 28.9047 35.4705 28.1934 37.4889 26.7689L37.489 26.7689L37.4934 26.7657L43.6274 22.3353L43.6347 22.33L43.6417 22.3245C45.7815 20.659 47.2341 18.2596 47.3555 15.4781C47.3555 15.4774 47.3555 15.4767 47.3555 15.476L47.923 4.35735C48.1308 2.12157 50.0644 0.403507 52.2859 0.504229Z" stroke="black"/>
</svg>
