<svg width="50" height="50" viewBox="0 0 50 50" fill="none" xmlns="http://www.w3.org/2000/svg">
<path d="M40.6937 21.8946L26.0881 9.21131C25.7623 8.92956 25.2851 8.92956 24.9596 9.21131L10.3061 21.9497C9.94055 22.2675 9.89592 22.8279 10.2072 23.2011C10.3796 23.4081 10.6238 23.5139 10.8697 23.5139C11.0693 23.5139 11.2703 23.4438 11.4333 23.302L11.5482 23.2011V39.1122C11.5482 39.6026 11.9375 40 12.418 40L38.5261 39.9997C39.0066 39.9997 39.396 39.6023 39.396 39.1119V23.1003L39.5667 23.2486C39.9323 23.5664 40.4814 23.5208 40.7928 23.1477C41.1041 22.7727 41.0592 22.212 40.6937 21.8946ZM28.9531 38.1681H21.9924V27.8064H28.9538L28.9531 38.1681ZM37.6556 38.2234H30.6941V26.9185C30.6941 26.4281 30.3048 26.0307 29.8243 26.0307H21.1218C20.6414 26.0307 20.252 26.4281 20.252 26.9185V38.2234H13.2906V21.6888L25.5244 11.0534L37.6556 21.5882V38.2234Z" />
</svg>
