<svg width="46" height="46" viewBox="0 0 46 46" fill="none" xmlns="http://www.w3.org/2000/svg">
<path d="M18.4667 15.5332C20.0867 15.5332 21.3999 16.9064 21.3999 18.6C21.3999 20.2934 20.0867 21.6666 18.4667 21.6666C16.8467 21.6666 15.5332 20.2934 15.5332 18.6C15.5332 16.9064 16.8467 15.5332 18.4667 15.5332ZM18.4667 20.1333C19.2766 20.1333 19.9334 19.4468 19.9334 18.6C19.9334 17.7531 19.2766 17.0666 18.4667 17.0666C17.6566 17.0666 17 17.7531 17 18.6C17 19.4468 17.6566 20.1333 18.4667 20.1333ZM33.5 11C34.329 11 35 11.671 35 12.5V33.5C35 34.3291 34.329 35 33.5 35H12.5C11.671 35 11 34.3291 11 33.5V12.5C11 11.671 11.671 11 12.5 11H33.5ZM12.5 32.75C12.5 32.9582 12.5844 33.1457 12.7212 33.2818C12.5852 33.1457 12.5 32.9582 12.5 32.75ZM33.5 32.75V30.4985L28.0324 25.0309C27.7394 24.7379 27.2647 24.7379 26.9718 25.0309C26.9718 25.0309 23.3601 28.6425 22.5625 29.4409C21.7649 30.2377 21.2275 30.226 20.4416 29.4409C19.6555 28.6541 19.0324 28.0309 19.0324 28.0309C18.7394 27.7379 18.2647 27.7379 17.9718 28.0309L12.7208 33.2819C12.8562 33.4163 13.043 33.5001 13.2496 33.5001H32.7496C33.1641 33.5001 33.4996 33.1645 33.4996 32.7501L33.5 32.75ZM33.5 28.3774V13.2498C33.5 12.8354 33.1644 12.4998 32.75 12.4998H13.25C12.8356 12.4998 12.5 12.8354 12.5 13.2498V31.3817L17.4419 26.4408C18.0277 25.8535 18.977 25.8535 19.5628 26.4408L21.5023 28.3796L26.4419 23.441C27.0276 22.8538 27.977 22.8538 28.5628 23.441L33.5 28.3774Z" fill="black"/>
</svg>
