<svg width="18" height="17" viewBox="0 0 18 17" fill="none" xmlns="http://www.w3.org/2000/svg">
<path d="M9.39157 7.52686C9.16559 7.52686 8.94887 7.61465 8.78908 7.77093C8.62929 7.92721 8.53952 8.13918 8.53952 8.36019V11.6935C8.53952 11.9145 8.62929 12.1265 8.78908 12.2828C8.94887 12.4391 9.16559 12.5269 9.39157 12.5269C9.61754 12.5269 9.83427 12.4391 9.99405 12.2828C10.1538 12.1265 10.2436 11.9145 10.2436 11.6935V8.36019C10.2436 8.13918 10.1538 7.92721 9.99405 7.77093C9.83427 7.61465 9.61754 7.52686 9.39157 7.52686ZM9.71534 4.26019C9.5079 4.17684 9.27523 4.17684 9.06779 4.26019C8.9632 4.29985 8.86765 4.35932 8.78661 4.43519C8.71135 4.51619 8.65083 4.6092 8.60768 4.71019C8.55998 4.80909 8.53664 4.91754 8.53952 5.02686C8.53887 5.13653 8.56036 5.24525 8.60277 5.34678C8.64517 5.44831 8.70764 5.54066 8.78661 5.61852C8.86943 5.69213 8.96453 5.75132 9.06779 5.79352C9.19687 5.84539 9.33701 5.86545 9.47587 5.85195C9.61474 5.83845 9.74809 5.79179 9.86421 5.71608C9.98032 5.64037 10.0756 5.53793 10.1418 5.41775C10.208 5.29757 10.2429 5.16334 10.2436 5.02686C10.2405 4.80622 10.1522 4.59488 9.99652 4.43519C9.91549 4.35932 9.81993 4.29985 9.71534 4.26019ZM9.39157 0.0268555C7.70638 0.0268555 6.05903 0.515597 4.65785 1.43128C3.25666 2.34695 2.16457 3.64844 1.51968 5.17116C0.874786 6.69388 0.706052 8.36943 1.03482 9.98594C1.36358 11.6025 2.17508 13.0873 3.36669 14.2527C4.55829 15.4182 6.0765 16.2119 7.72931 16.5334C9.38212 16.8549 11.0953 16.6899 12.6522 16.0592C14.2091 15.4285 15.5398 14.3604 16.4761 12.9899C17.4123 11.6195 17.912 10.0084 17.912 8.36019C17.912 7.26584 17.6916 6.18221 17.2635 5.17116C16.8353 4.16011 16.2076 3.24145 15.4164 2.46763C14.6252 1.69381 13.686 1.07998 12.6522 0.661193C11.6185 0.242404 10.5105 0.0268555 9.39157 0.0268555V0.0268555ZM9.39157 15.0269C8.04342 15.0269 6.72554 14.6359 5.60459 13.9033C4.48364 13.1708 3.60997 12.1296 3.09406 10.9114C2.57814 9.69324 2.44316 8.35279 2.70617 7.05959C2.96918 5.76638 3.61837 4.57849 4.57166 3.64614C5.52495 2.71379 6.73951 2.07886 8.06176 1.82162C9.38401 1.56439 10.7546 1.69641 12.0001 2.20099C13.2456 2.70558 14.3102 3.56006 15.0592 4.65639C15.8082 5.75272 16.2079 7.04165 16.2079 8.36019C16.2079 10.1283 15.4898 11.824 14.2115 13.0742C12.9332 14.3245 11.1994 15.0269 9.39157 15.0269V15.0269Z"/>
</svg>
