<svg width="21" height="17" viewBox="0 0 21 17" fill="none" xmlns="http://www.w3.org/2000/svg">
<path d="M19.7603 6.12564L18.8019 5.59856L10.1769 0.80689H10.0715C10.0128 0.782048 9.95181 0.762797 9.88944 0.74939H9.70736H9.53486C9.46939 0.762806 9.40524 0.782049 9.34319 0.80689H9.23778L0.612778 5.59856C0.465293 5.68214 0.342618 5.80335 0.25727 5.94982C0.171921 6.09629 0.126953 6.26278 0.126953 6.43231C0.126953 6.60183 0.171921 6.76832 0.25727 6.91479C0.342618 7.06126 0.465293 7.18247 0.612778 7.26606L2.99903 8.58856V13.1311C2.99903 13.8936 3.30193 14.6248 3.8411 15.164C4.38026 15.7032 5.11153 16.0061 5.87403 16.0061H13.5407C14.3032 16.0061 15.0345 15.7032 15.5736 15.164C16.1128 14.6248 16.4157 13.8936 16.4157 13.1311V8.58856L18.3324 7.51522V10.2561C18.3324 10.5102 18.4333 10.754 18.613 10.9337C18.7928 11.1134 19.0365 11.2144 19.2907 11.2144C19.5449 11.2144 19.7886 11.1134 19.9683 10.9337C20.1481 10.754 20.249 10.5102 20.249 10.2561V6.95939C20.2487 6.78958 20.2033 6.62289 20.1174 6.47639C20.0316 6.3299 19.9083 6.20885 19.7603 6.12564V6.12564ZM14.499 13.1311C14.499 13.3852 14.3981 13.629 14.2183 13.8087C14.0386 13.9884 13.7949 14.0894 13.5407 14.0894H5.87403C5.61986 14.0894 5.37611 13.9884 5.19638 13.8087C5.01666 13.629 4.91569 13.3852 4.91569 13.1311V9.65231L9.23778 12.0481L9.38153 12.1056H9.46778C9.54732 12.1157 9.62781 12.1157 9.70736 12.1056C9.78691 12.1157 9.8674 12.1157 9.94694 12.1056H10.0332C10.0841 12.0949 10.1327 12.0755 10.1769 12.0481L14.499 9.65231V13.1311ZM9.70736 10.1219L3.05653 6.42272L9.70736 2.72356L16.3582 6.42272L9.70736 10.1219Z" fill="#505050"/>
</svg>
