<svg width="50" height="50" viewBox="0 0 50 50" fill="none" xmlns="http://www.w3.org/2000/svg">
<path d="M19.5247 24.5002C20.2116 25.1871 20.2116 26.301 19.5247 26.9879C18.8378 27.6748 17.7239 27.6748 17.037 26.9879L12.0609 22.0121C9.31302 19.2639 9.31302 14.809 12.0609 12.0609C14.8091 9.31302 19.264 9.31302 22.0121 12.0609L26.9877 17.0366C27.6746 17.7235 27.6746 18.8374 26.9877 19.5243C26.3008 20.2114 25.1869 20.2114 24.4998 19.5243L19.5244 14.5486C18.1503 13.1748 15.9226 13.1748 14.5487 14.5486C13.1747 15.9227 13.1747 18.1504 14.5487 19.5243L19.5247 24.5002ZM29.4753 24.4998C28.7884 23.8129 28.7884 22.699 29.4753 22.0121C30.1624 21.325 31.2761 21.325 31.9632 22.0121L36.9391 26.9879C39.687 29.7358 39.687 34.191 36.9391 36.9391C34.1912 39.687 29.736 39.687 26.9879 36.9391L22.0123 31.9634C21.3254 31.2763 21.3254 30.1626 22.0123 29.4755C22.6994 28.7886 23.8133 28.7886 24.5002 29.4755L29.4759 34.4511C30.8497 35.8252 33.0774 35.8252 34.4515 34.4511C35.8253 33.0773 35.8253 30.8496 34.4515 29.4755L29.4753 24.4998ZM19.5241 19.5242C20.211 18.8373 21.325 18.8373 22.0118 19.5242L29.4751 26.9879C30.1622 27.6748 30.1622 28.7887 29.4751 29.4756C28.7882 30.1625 27.6743 30.1625 26.9874 29.4756L19.5241 22.0124C18.837 21.3253 18.837 20.2113 19.5241 19.5242Z"/>
</svg>
