<svg width="18" height="13" viewBox="0 0 18 13" fill="none" xmlns="http://www.w3.org/2000/svg">
<path fill-rule="evenodd" clip-rule="evenodd" d="M1.74271 2.52779C2.3352 2.52779 2.81551 2.04748 2.81551 1.45499C2.81551 0.862507 2.3352 0.382202 1.74271 0.382202C1.15023 0.382202 0.669922 0.862507 0.669922 1.45499C0.669922 2.04748 1.15023 2.52779 1.74271 2.52779ZM16.6653 2.29156H4.99868C4.77767 2.29156 4.56571 2.20376 4.40943 2.04748C4.25315 1.8912 4.16535 1.67924 4.16535 1.45823C4.16535 1.23721 4.25315 1.02525 4.40943 0.868973C4.56571 0.712693 4.77767 0.624895 4.99868 0.624895H16.6653C16.8864 0.624895 17.0983 0.712693 17.2546 0.868973C17.4109 1.02525 17.4987 1.23721 17.4987 1.45823C17.4987 1.67924 17.4109 1.8912 17.2546 2.04748C17.0983 2.20376 16.8864 2.29156 16.6653 2.29156ZM4.99868 5.52686H16.6653C16.8864 5.52686 17.0983 5.61465 17.2546 5.77093C17.4109 5.92721 17.4987 6.13917 17.4987 6.36019C17.4987 6.5812 17.4109 6.79316 17.2546 6.94944C17.0983 7.10572 16.8864 7.19352 16.6653 7.19352H4.99868C4.77767 7.19352 4.56571 7.10572 4.40943 6.94944C4.25315 6.79316 4.16535 6.5812 4.16535 6.36019C4.16535 6.13917 4.25315 5.92721 4.40943 5.77093C4.56571 5.61465 4.77767 5.52686 4.99868 5.52686ZM4.99868 10.4288H16.6653C16.8864 10.4288 17.0983 10.5166 17.2546 10.6729C17.4109 10.8292 17.4987 11.0411 17.4987 11.2621C17.4987 11.4832 17.4109 11.6951 17.2546 11.8514C17.0983 12.0077 16.8864 12.0955 16.6653 12.0955H4.99868C4.77767 12.0955 4.56571 12.0077 4.40943 11.8514C4.25315 11.6951 4.16535 11.4832 4.16535 11.2621C4.16535 11.0411 4.25315 10.8292 4.40943 10.6729C4.56571 10.5166 4.77767 10.4288 4.99868 10.4288ZM2.81555 6.36019C2.81555 6.95268 2.33525 7.43298 1.74276 7.43298C1.15028 7.43298 0.669971 6.95268 0.669971 6.36019C0.669971 5.7677 1.15028 5.2874 1.74276 5.2874C2.33525 5.2874 2.81555 5.7677 2.81555 6.36019ZM1.74271 12.3823C2.3352 12.3823 2.81551 11.902 2.81551 11.3095C2.81551 10.717 2.3352 10.2367 1.74271 10.2367C1.15023 10.2367 0.669922 10.717 0.669922 11.3095C0.669922 11.902 1.15023 12.3823 1.74271 12.3823Z" fill="#505050"/>
</svg>
