<svg width="40" height="29" viewBox="0 0 40 29" xmlns="http://www.w3.org/2000/svg">
<path fill-rule="evenodd" clip-rule="evenodd" d="M2.5499 5.0998C3.95817 5.0998 5.0998 3.95817 5.0998 2.5499C5.0998 1.14163 3.95817 0 2.5499 0C1.14163 0 0 1.14163 0 2.5499C0 3.95817 1.14163 5.0998 2.5499 5.0998ZM38.0191 4.53835H10.2888C9.76352 4.53835 9.25971 4.32967 8.88825 3.95821C8.51679 3.58675 8.30811 3.08294 8.30811 2.55762C8.30811 2.03229 8.51679 1.52848 8.88825 1.15702C9.25971 0.785565 9.76352 0.57688 10.2888 0.57688H38.0191C38.5445 0.57688 39.0483 0.785565 39.4197 1.15702C39.7912 1.52848 39.9999 2.03229 39.9999 2.55762C39.9999 3.08294 39.7912 3.58675 39.4197 3.95821C39.0483 4.32967 38.5445 4.53835 38.0191 4.53835ZM10.2888 12.2283H38.0191C38.5445 12.2283 39.0483 12.437 39.4197 12.8084C39.7912 13.1799 39.9999 13.6837 39.9999 14.209C39.9999 14.7343 39.7912 15.2381 39.4197 15.6096C39.0483 15.9811 38.5445 16.1897 38.0191 16.1897H10.2888C9.76352 16.1897 9.25971 15.9811 8.88825 15.6096C8.51679 15.2381 8.30811 14.7343 8.30811 14.209C8.30811 13.6837 8.51679 13.1799 8.88825 12.8084C9.25971 12.437 9.76352 12.2283 10.2888 12.2283ZM10.2888 23.8797H38.0191C38.5445 23.8797 39.0483 24.0883 39.4197 24.4598C39.7912 24.8313 39.9999 25.3351 39.9999 25.8604C39.9999 26.3857 39.7912 26.8895 39.4197 27.261C39.0483 27.6324 38.5445 27.8411 38.0191 27.8411H10.2888C9.76352 27.8411 9.25971 27.6324 8.88825 27.261C8.51679 26.8895 8.30811 26.3857 8.30811 25.8604C8.30811 25.3351 8.51679 24.8313 8.88825 24.4598C9.25971 24.0883 9.76352 23.8797 10.2888 23.8797ZM5.0998 14.209C5.0998 15.6173 3.95817 16.7589 2.5499 16.7589C1.14163 16.7589 0 15.6173 0 14.209C0 12.8008 1.14163 11.6591 2.5499 11.6591C3.95817 11.6591 5.0998 12.8008 5.0998 14.209ZM2.5499 28.5228C3.95817 28.5228 5.0998 27.3812 5.0998 25.9729C5.0998 24.5647 3.95817 23.423 2.5499 23.423C1.14163 23.423 0 24.5647 0 25.9729C0 27.3812 1.14163 28.5228 2.5499 28.5228Z"/>
</svg>
