<svg width="50" height="50" viewBox="0 0 50 50" xmlns="http://www.w3.org/2000/svg">
<path d="M22.8318 17.3139H37.3633C37.9849 17.3139 38.4889 16.8099 38.4889 16.1883C38.4889 15.5667 37.9849 15.0627 37.3633 15.0627H22.8318C22.2102 15.0627 21.7063 15.5667 21.7063 16.1883C21.7063 16.8099 22.2102 17.3139 22.8318 17.3139ZM22.8316 26.291H37.3097C37.9314 26.291 38.4353 25.7871 38.4353 25.1654C38.4353 24.5438 37.9314 24.0398 37.3097 24.0398H22.8316C22.21 24.0398 21.706 24.5438 21.706 25.1654C21.706 25.7871 22.21 26.291 22.8316 26.291V26.291ZM37.3634 33.0667H22.8319C22.2103 33.0667 21.7063 33.5707 21.7063 34.1923C21.7063 34.814 22.2103 35.3179 22.8319 35.3179H37.3634C37.985 35.3179 38.4889 34.814 38.4889 34.1923C38.4889 33.5707 37.985 33.0667 37.3634 33.0667ZM14.8472 16.1883C14.8472 16.7853 15.0844 17.3579 15.5066 17.7801C15.9288 18.2023 16.5014 18.4395 17.0984 18.4395C17.6954 18.4395 18.268 18.2023 18.6902 17.7801C19.1124 17.3579 19.3496 16.7853 19.3496 16.1883C19.3496 15.5913 19.1124 15.0187 18.6902 14.5965C18.268 14.1743 17.6954 13.9371 17.0984 13.9371C16.5014 13.9371 15.9288 14.1743 15.5066 14.5965C15.0844 15.0187 14.8472 15.5913 14.8472 16.1883V16.1883ZM14.8472 25.152C14.8472 25.749 15.0844 26.3216 15.5066 26.7438C15.9288 27.166 16.5014 27.4031 17.0984 27.4031C17.6954 27.4031 18.268 27.166 18.6902 26.7438C19.1124 26.3216 19.3496 25.749 19.3496 25.152C19.3496 24.5549 19.1124 23.9823 18.6902 23.5601C18.268 23.138 17.6954 22.9008 17.0984 22.9008C16.5014 22.9008 15.9288 23.138 15.5066 23.5601C15.0844 23.9823 14.8472 24.5549 14.8472 25.152V25.152ZM14.8472 34.186C14.8472 34.783 15.0844 35.3556 15.5066 35.7778C15.9288 36.2 16.5014 36.4371 17.0984 36.4371C17.6954 36.4371 18.268 36.2 18.6902 35.7778C19.1124 35.3556 19.3496 34.783 19.3496 34.186C19.3496 33.5889 19.1124 33.0163 18.6902 32.5942C18.268 32.172 17.6954 31.9348 17.0984 31.9348C16.5014 31.9348 15.9288 32.172 15.5066 32.5942C15.0844 33.0163 14.8472 33.5889 14.8472 34.186V34.186Z" fill="black"/>
</svg>
