<svg width="114" height="38" viewBox="0 0 114 38" fill="none" xmlns="http://www.w3.org/2000/svg">
<path d="M2.71023 30V7.37891H7.4156V15.8839H7.55919C7.76537 15.4274 8.0636 14.9635 8.45387 14.4922C8.85151 14.0135 9.36696 13.6159 10.0002 13.2993C10.6409 12.9753 11.4361 12.8133 12.3861 12.8133C13.6231 12.8133 14.7645 13.1373 15.8101 13.7853C16.8558 14.4259 17.6916 15.3942 18.3175 16.6902C18.9434 17.9789 19.2563 19.5952 19.2563 21.5392C19.2563 23.4316 18.9507 25.0295 18.3396 26.3329C17.7357 27.6289 16.911 28.612 15.8654 29.282C14.8271 29.9448 13.6636 30.2761 12.375 30.2761C11.4619 30.2761 10.6851 30.1252 10.0444 29.8233C9.41114 29.5214 8.89201 29.1421 8.48701 28.6856C8.08201 28.2217 7.77273 27.7541 7.55919 27.2828H7.34932V30H2.71023ZM7.31619 21.5171C7.31619 22.5259 7.4561 23.4059 7.73591 24.157C8.01573 24.908 8.42073 25.4935 8.95091 25.9132C9.4811 26.3255 10.1254 26.5317 10.8839 26.5317C11.6497 26.5317 12.2977 26.3219 12.8279 25.9021C13.3581 25.475 13.7594 24.886 14.0318 24.1349C14.3116 23.3764 14.4516 22.5038 14.4516 21.5171C14.4516 20.5377 14.3153 19.6762 14.0429 18.9325C13.7704 18.1887 13.3691 17.607 12.8389 17.1873C12.3087 16.7675 11.6571 16.5577 10.8839 16.5577C10.1181 16.5577 9.47005 16.7602 8.93987 17.1652C8.41705 17.5702 8.01573 18.1445 7.73591 18.8883C7.4561 19.632 7.31619 20.5083 7.31619 21.5171ZM27.1014 7.37891V30H22.396V7.37891H27.1014ZM37.1224 30.2761C35.8337 30.2761 34.6666 29.9448 33.6209 29.282C32.5827 28.612 31.7579 27.6289 31.1468 26.3329C30.5429 25.0295 30.241 23.4316 30.241 21.5392C30.241 19.5952 30.554 17.9789 31.1799 16.6902C31.8058 15.3942 32.6379 14.4259 33.6762 13.7853C34.7218 13.1373 35.8669 12.8133 37.1113 12.8133C38.0612 12.8133 38.8528 12.9753 39.4861 13.2993C40.1267 13.6159 40.6422 14.0135 41.0324 14.4922C41.4301 14.9635 41.732 15.4274 41.9382 15.8839H42.0818V7.37891H46.7761V30H42.137V27.2828H41.9382C41.7173 27.7541 41.4043 28.2217 40.9993 28.6856C40.6017 29.1421 40.0825 29.5214 39.4419 29.8233C38.8086 30.1252 38.0354 30.2761 37.1224 30.2761ZM38.6135 26.5317C39.3719 26.5317 40.0126 26.3255 40.5354 25.9132C41.0656 25.4935 41.4706 24.908 41.7504 24.157C42.0376 23.4059 42.1812 22.5259 42.1812 21.5171C42.1812 20.5083 42.0413 19.632 41.7614 18.8883C41.4816 18.1445 41.0766 17.5702 40.5464 17.1652C40.0163 16.7602 39.3719 16.5577 38.6135 16.5577C37.8403 16.5577 37.1886 16.7675 36.6584 17.1873C36.1283 17.607 35.7269 18.1887 35.4545 18.9325C35.182 19.6762 35.0458 20.5377 35.0458 21.5171C35.0458 22.5038 35.182 23.3764 35.4545 24.1349C35.7343 24.886 36.1356 25.475 36.6584 25.9021C37.1886 26.3219 37.8403 26.5317 38.6135 26.5317ZM50.6447 30V13.0342H55.2065V15.9944H55.3832C55.6925 14.9414 56.2117 14.1461 56.9407 13.6085C57.6697 13.0636 58.5091 12.7912 59.459 12.7912C59.6947 12.7912 59.9487 12.8059 60.2212 12.8354C60.4936 12.8648 60.7329 12.9053 60.9391 12.9569V17.132C60.7182 17.0658 60.4126 17.0069 60.0223 16.9553C59.6321 16.9038 59.2749 16.878 58.9509 16.878C58.2587 16.878 57.6402 17.029 57.0953 17.3309C56.5577 17.6254 56.1307 18.0378 55.814 18.568C55.5047 19.0981 55.3501 19.7093 55.3501 20.4015V30H50.6447ZM77.488 17.8721L73.1802 18.1372C73.1066 17.769 72.9483 17.4376 72.7053 17.1431C72.4623 16.8412 72.142 16.6019 71.7443 16.4251C71.3541 16.241 70.8865 16.149 70.3416 16.149C69.6126 16.149 68.9977 16.3036 68.497 16.6129C67.9962 16.9148 67.7459 17.3198 67.7459 17.8279C67.7459 18.2329 67.9079 18.5753 68.2319 18.8551C68.5559 19.135 69.1118 19.3595 69.8997 19.5289L72.9704 20.1475C74.6198 20.4862 75.8496 21.0311 76.6596 21.7822C77.4696 22.5333 77.8746 23.52 77.8746 24.7424C77.8746 25.8543 77.5469 26.83 76.8915 27.6694C76.2435 28.5089 75.3525 29.1642 74.2185 29.6355C73.0919 30.0994 71.7922 30.3314 70.3195 30.3314C68.0736 30.3314 66.2842 29.8638 64.9514 28.9286C63.6259 27.986 62.8491 26.7048 62.6208 25.0848L67.2488 24.8418C67.3887 25.5266 67.7275 26.0494 68.265 26.4102C68.8026 26.7637 69.4911 26.9404 70.3305 26.9404C71.1552 26.9404 71.818 26.7821 72.3187 26.4655C72.8268 26.1415 73.0845 25.7254 73.0919 25.2173C73.0845 24.7902 72.9041 24.4405 72.5506 24.168C72.1972 23.8882 71.6523 23.6746 70.9159 23.5274L67.9778 22.942C66.321 22.6106 65.0876 22.0362 64.2776 21.2189C63.475 20.4015 63.0736 19.3595 63.0736 18.093C63.0736 17.0032 63.3682 16.0643 63.9573 15.2764C64.5537 14.4885 65.3895 13.881 66.4646 13.4539C67.5471 13.0268 68.8136 12.8133 70.2642 12.8133C72.4071 12.8133 74.0933 13.2661 75.3231 14.1719C76.5602 15.0776 77.2818 16.311 77.488 17.8721Z" fill="black"/>
<path d="M101.226 16.5132L101.36 30.6168L94.5127 30.3772V30.2819L94.3594 16.6171L101.226 16.5132Z" fill="#56F553"/>
<path d="M92.468 2.89453L92.7824 30.3165L86.3412 30.0913L86 3.31894L92.468 2.89453Z" fill="#56F553"/>
<path d="M92.7852 30.3159L94.5143 30.2812" stroke="#505050" stroke-width="0.3" stroke-linecap="round" stroke-linejoin="round"/>
<path d="M86.3412 30.0912L86 3.31885" stroke="#505050" stroke-width="0.3" stroke-linecap="round" stroke-linejoin="round"/>
<path d="M86 3.31894L92.468 2.89453" stroke="#505050" stroke-width="0.3" stroke-linecap="round" stroke-linejoin="round"/>
<path d="M92.4668 2.89453L104.034 3.32471" stroke="#505050" stroke-width="0.3" stroke-linecap="round" stroke-linejoin="round"/>
<path d="M104.033 3.3252L104.152 16.5396" stroke="#505050" stroke-width="0.3" stroke-linecap="round" stroke-linejoin="round"/>
<path d="M101.359 30.6161L94.5117 30.3765" stroke="#505050" stroke-width="0.3" stroke-linecap="round" stroke-linejoin="round"/>
<path d="M101.359 30.6165L112.999 30.374" stroke="#505050" stroke-width="0.3" stroke-linecap="round" stroke-linejoin="round"/>
<path d="M112.896 16.6172L113 30.3744" stroke="#505050" stroke-width="0.3" stroke-linecap="round" stroke-linejoin="round"/>
<path d="M92.4668 2.89453L92.7812 30.3165" stroke="#505050" stroke-width="0.3" stroke-linecap="round" stroke-linejoin="round"/>
<path d="M94.5127 30.3772V30.282L94.3594 16.6172" stroke="#505050" stroke-width="0.3" stroke-linecap="round" stroke-linejoin="round"/>
<path d="M94.3594 16.6171L101.226 16.5132" stroke="#505050" stroke-width="0.3" stroke-linecap="round" stroke-linejoin="round"/>
<path d="M101.223 16.5132L104.152 16.5392L112.893 16.6171" stroke="#505050" stroke-width="0.3" stroke-linecap="round" stroke-linejoin="round"/>
<path d="M101.223 16.5132L101.357 30.6168" stroke="#505050" stroke-width="0.3" stroke-linecap="round" stroke-linejoin="round"/>
<path d="M92.7829 30.317L86.3418 30.0918" stroke="#505050" stroke-width="0.3" stroke-linecap="round" stroke-linejoin="round"/>
</svg>
