<svg width="25" height="29" viewBox="0 0 25 29" fill="none" xmlns="http://www.w3.org/2000/svg">
<path d="M5.74609 1L16.2982 1.5V14.5H7.50477L7.94444 28.5H6.18576L5.74609 1Z" fill="white" fill-opacity="0.22"/>
<path d="M23.7726 14.5H13.6602V28.5H23.7726V14.5Z" fill="white" fill-opacity="0.22"/>
<path d="M13.6476 14.5132L13.7656 28.6168L7.74423 28.3772V28.2819L7.60938 14.6171L13.6476 14.5132Z" fill="#56F553"/>
<path d="M5.94537 0.894531L6.22183 28.3165L0.557867 28.0913L0.257812 1.31894L5.94537 0.894531Z" fill="#56F553"/>
<path d="M6.22266 28.3159L7.74316 28.2812" stroke="#121212" stroke-width="0.3" stroke-linecap="round" stroke-linejoin="round"/>
<path d="M0.557867 28.0913L0.257812 1.31897" stroke="#121212" stroke-width="0.3" stroke-linecap="round" stroke-linejoin="round"/>
<path d="M0.257812 1.31894L5.94537 0.894531" stroke="#121212" stroke-width="0.3" stroke-linecap="round" stroke-linejoin="round"/>
<path d="M5.94531 0.894531L16.1168 1.32471" stroke="#121212" stroke-width="0.3" stroke-linecap="round" stroke-linejoin="round"/>
<path d="M16.1133 1.3252L16.2178 14.5396" stroke="#121212" stroke-width="0.3" stroke-linecap="round" stroke-linejoin="round"/>
<path d="M13.7635 28.6161L7.74219 28.3765" stroke="#121212" stroke-width="0.3" stroke-linecap="round" stroke-linejoin="round"/>
<path d="M13.7656 28.6165L24.0012 28.374" stroke="#121212" stroke-width="0.3" stroke-linecap="round" stroke-linejoin="round"/>
<path d="M23.9102 14.6172L24.0012 28.3744" stroke="#121212" stroke-width="0.3" stroke-linecap="round" stroke-linejoin="round"/>
<path d="M5.94531 0.894531L6.22177 28.3165" stroke="#121212" stroke-width="0.3" stroke-linecap="round" stroke-linejoin="round"/>
<path d="M7.74423 28.3772V28.282L7.60938 14.6172" stroke="#121212" stroke-width="0.3" stroke-linecap="round" stroke-linejoin="round"/>
<path d="M7.60938 14.6171L13.6476 14.5132" stroke="#121212" stroke-width="0.3" stroke-linecap="round" stroke-linejoin="round"/>
<path d="M13.6445 14.5132L16.2203 14.5392L23.9071 14.6171" stroke="#121212" stroke-width="0.3" stroke-linecap="round" stroke-linejoin="round"/>
<path d="M13.6445 14.5132L13.7625 28.6168" stroke="#121212" stroke-width="0.3" stroke-linecap="round" stroke-linejoin="round"/>
<path d="M6.22255 28.317L0.558594 28.0918" stroke="#121212" stroke-width="0.3" stroke-linecap="round" stroke-linejoin="round"/>
</svg>
