<svg xmlns="http://www.w3.org/2000/svg" viewBox="0 0 253.33 96.52">
<defs>
  <style>
    .left-face {
      fill:  lightgrey;
    }
    .right-face {
      fill: darkgrey;
    }
    .edges {
      stroke: darkgrey;
    }
  </style>
</defs>
<g id="make_2d" data-name="make 2d">
  <polygon class="right-face" points="253.08 50.55 252.89 89.04 234.86 89.51 235.01 50.35 253.08 50.55"/>
  <polygon class="left-face" points="235.01 50.35 234.86 89.51 230.32 89.38 230.46 50.4 235.01 50.35"/>
  <polygon class="right-face" points="220.95 89.88 211.47 90.13 211.57 50.08 230.46 50.29 230.46 50.4 230.32 89.38 230.32 89.63 220.98 89.88 220.95 89.88"/>
  <polygon class="left-face" points="211.57 50.08 211.47 90.13 203.21 89.87 203.29 50.19 211.57 50.08"/>
  <polygon class="right-face" points="203.37 9.73 203.29 50.19 203.21 89.87 203.21 90.19 180.54 90.79 180.6 8.61 203.37 9.73"/>
  <polygon class="left-face" points="180.6 8.61 180.54 90.79 162.62 90.2 162.62 89.74 162.61 50.03 162.59 9.71 180.6 8.61"/>
  <polygon class="right-face" points="162.61 50.03 162.62 89.74 156.86 89.88 156.83 49.97 162.6 50.03 162.61 50.03"/>
  <polygon class="left-face" points="156.83 49.97 156.86 89.88 139.87 89.33 139.8 50.21 156.83 49.97"/>
  <polygon class="right-face" points="131.3 5.88 131.48 92.24 108.85 92.83 108.55 4.76 131.3 5.88"/>
  <polygon class="left-face" points="108.55 4.76 108.85 92.83 88.75 92.06 88.36 6.21 108.55 4.76"/>
  <polygon class="right-face" points="70.4 47.78 70.67 95.43 40.31 96.27 39.96 47.42 47.6 47.51 70.4 47.78"/>
  <polygon class="right-face" points="47.29 1.74 47.6 47.51 39.96 47.42 22.05 47.78 22.45 95.11 17.94 95.23 17.12 0.25 47.29 1.74"/>
  <polygon class="left-face" points="39.96 47.42 40.31 96.27 22.45 95.44 22.45 95.11 22.05 47.78 39.96 47.42"/>
  <polygon class="left-face" points="17.12 0.25 17.94 95.23 1.14 94.45 0.25 1.72 17.12 0.25"/>
  <polyline class="edges" points="162.62 90.2 162.62 89.74 162.61 50.03 162.59 9.71"/>
  <line class="edges" x1="17.94" y1="95.23" x2="22.45" y2="95.11"/>
  <line class="edges" x1="1.14" y1="94.45" x2="0.25" y2="1.72"/>
  <line class="edges" x1="0.25" y1="1.72" x2="17.12" y2="0.25"/>
  <line class="edges" x1="17.12" y1="0.25" x2="47.29" y2="1.74"/>
  <line class="edges" x1="47.29" y1="1.74" x2="47.6" y2="47.51"/>
  <line class="edges" x1="40.31" y1="96.27" x2="22.45" y2="95.44"/>
  <line class="edges" x1="40.31" y1="96.27" x2="70.67" y2="95.43"/>
  <line class="edges" x1="70.4" y1="47.78" x2="70.67" y2="95.43"/>
  <line class="edges" x1="180.54" y1="90.79" x2="162.62" y2="90.2"/>
  <line class="edges" x1="180.54" y1="90.79" x2="203.21" y2="90.19"/>
  <line class="edges" x1="162.59" y1="9.71" x2="180.6" y2="8.61"/>
  <line class="edges" x1="180.6" y1="8.61" x2="203.37" y2="9.73"/>
  <line class="edges" x1="88.75" y1="92.06" x2="108.85" y2="92.83"/>
  <line class="edges" x1="131.48" y1="92.24" x2="131.3" y2="5.88"/>
  <line class="edges" x1="88.36" y1="6.21" x2="108.55" y2="4.76"/>
  <line class="edges" x1="131.3" y1="5.88" x2="108.55" y2="4.76"/>
  <line class="edges" x1="88.36" y1="6.21" x2="88.75" y2="92.06"/>
  <line class="edges" x1="234.86" y1="89.51" x2="252.89" y2="89.04"/>
  <line class="edges" x1="253.08" y1="50.55" x2="235.01" y2="50.35"/>
  <line class="edges" x1="156.86" y1="89.88" x2="139.87" y2="89.33"/>
  <line class="edges" x1="156.86" y1="89.88" x2="162.62" y2="89.74"/>
  <line class="edges" x1="139.87" y1="89.33" x2="139.8" y2="50.21"/>
  <line class="edges" x1="139.8" y1="50.21" x2="156.83" y2="49.97"/>
  <line class="edges" x1="156.83" y1="49.97" x2="162.6" y2="50.03"/>
  <line class="edges" x1="230.46" y1="50.29" x2="211.57" y2="50.08"/>
  <line class="edges" x1="230.32" y1="89.38" x2="234.86" y2="89.51"/>
  <line class="edges" x1="230.46" y1="50.4" x2="235.01" y2="50.35"/>
  <line class="edges" x1="203.21" y1="89.87" x2="211.47" y2="90.13"/>
  <line class="edges" x1="203.29" y1="50.19" x2="211.57" y2="50.08"/>
  <line class="edges" x1="108.85" y1="92.83" x2="131.48" y2="92.24"/>
  <polyline class="edges" points="230.32 89.63 230.32 89.38 230.46 50.4 230.46 50.29"/>
  <line class="edges" x1="17.12" y1="0.25" x2="17.94" y2="95.23"/>
  <polyline class="edges" points="22.45 95.44 22.45 95.11 22.05 47.78"/>
  <line class="edges" x1="22.05" y1="47.78" x2="39.96" y2="47.42"/>
  <polyline class="edges" points="39.96 47.42 47.6 47.51 70.4 47.78"/>
  <line class="edges" x1="39.96" y1="47.42" x2="40.31" y2="96.27"/>
  <line class="edges" x1="17.94" y1="95.23" x2="1.14" y2="94.45"/>
  <line class="edges" x1="180.6" y1="8.61" x2="180.54" y2="90.79"/>
  <polyline class="edges" points="203.37 9.73 203.29 50.19 203.21 89.87 203.21 90.19"/>
  <line class="edges" x1="108.55" y1="4.76" x2="108.85" y2="92.83"/>
  <line class="edges" x1="252.89" y1="89.04" x2="253.08" y2="50.55"/>
  <line class="edges" x1="156.83" y1="49.97" x2="156.86" y2="89.88"/>
  <line class="edges" x1="220.98" y1="89.88" x2="230.32" y2="89.63"/>
  <line class="edges" x1="211.47" y1="90.13" x2="220.95" y2="89.88"/>
  <line class="edges" x1="211.57" y1="50.08" x2="211.47" y2="90.13"/>
  <line class="edges" x1="235.01" y1="50.35" x2="234.86" y2="89.51"/>
</g>
</svg>
