<svg width="125" height="38" viewBox="0 0 125 38" fill="none" xmlns="http://www.w3.org/2000/svg">
<path d="M1.96609 30V7.37891H6.67146V15.8839H6.81505C7.02123 15.4274 7.31946 14.9635 7.70973 14.4922C8.10737 14.0135 8.62282 13.6159 9.25609 13.2993C9.89673 12.9753 10.692 12.8133 11.6419 12.8133C12.879 12.8133 14.0204 13.1373 15.066 13.7853C16.1116 14.4259 16.9474 15.3942 17.5733 16.6902C18.1992 17.9789 18.5122 19.5952 18.5122 21.5392C18.5122 23.4316 18.2066 25.0295 17.5954 26.3329C16.9916 27.6289 16.1669 28.612 15.1212 29.282C14.083 29.9448 12.9195 30.2761 11.6309 30.2761C10.7178 30.2761 9.94091 30.1252 9.30027 29.8233C8.667 29.5214 8.14786 29.1421 7.74286 28.6856C7.33786 28.2217 7.02859 27.7541 6.81505 27.2828H6.60518V30H1.96609ZM6.57205 21.5171C6.57205 22.5259 6.71196 23.4059 6.99177 24.157C7.27159 24.908 7.67659 25.4935 8.20677 25.9132C8.73696 26.3255 9.38127 26.5317 10.1397 26.5317C10.9055 26.5317 11.5535 26.3219 12.0837 25.9021C12.6139 25.475 13.0152 24.886 13.2877 24.1349C13.5675 23.3764 13.7074 22.5038 13.7074 21.5171C13.7074 20.5377 13.5712 19.6762 13.2987 18.9325C13.0263 18.1887 12.625 17.607 12.0948 17.1873C11.5646 16.7675 10.9129 16.5577 10.1397 16.5577C9.37391 16.5577 8.72591 16.7602 8.19573 17.1652C7.67291 17.5702 7.27159 18.1445 6.99177 18.8883C6.71196 19.632 6.57205 20.5083 6.57205 21.5171ZM26.3572 7.37891V30H21.6519V7.37891H26.3572ZM36.3782 30.2761C35.0896 30.2761 33.9224 29.9448 32.8768 29.282C31.8385 28.612 31.0138 27.6289 30.4026 26.3329C29.7988 25.0295 29.4969 23.4316 29.4969 21.5392C29.4969 19.5952 29.8098 17.9789 30.4358 16.6902C31.0617 15.3942 31.8938 14.4259 32.932 13.7853C33.9777 13.1373 35.1227 12.8133 36.3672 12.8133C37.3171 12.8133 38.1087 12.9753 38.7419 13.2993C39.3826 13.6159 39.898 14.0135 40.2883 14.4922C40.6859 14.9635 40.9878 15.4274 41.194 15.8839H41.3376V7.37891H46.0319V30H41.3928V27.2828H41.194C40.9731 27.7541 40.6602 28.2217 40.2552 28.6856C39.8575 29.1421 39.3384 29.5214 38.6978 29.8233C38.0645 30.1252 37.2913 30.2761 36.3782 30.2761ZM37.8693 26.5317C38.6278 26.5317 39.2684 26.3255 39.7913 25.9132C40.3214 25.4935 40.7264 24.908 41.0063 24.157C41.2934 23.4059 41.437 22.5259 41.437 21.5171C41.437 20.5083 41.2971 19.632 41.0173 18.8883C40.7375 18.1445 40.3325 17.5702 39.8023 17.1652C39.2721 16.7602 38.6278 16.5577 37.8693 16.5577C37.0962 16.5577 36.4445 16.7675 35.9143 17.1873C35.3841 17.607 34.9828 18.1887 34.7103 18.9325C34.4379 19.6762 34.3017 20.5377 34.3017 21.5171C34.3017 22.5038 34.4379 23.3764 34.7103 24.1349C34.9902 24.886 35.3915 25.475 35.9143 25.9021C36.4445 26.3219 37.0962 26.5317 37.8693 26.5317ZM49.9006 30V13.0342H54.4624V15.9944H54.6391C54.9484 14.9414 55.4675 14.1461 56.1965 13.6085C56.9255 13.0636 57.765 12.7912 58.7149 12.7912C58.9505 12.7912 59.2046 12.8059 59.477 12.8354C59.7495 12.8648 59.9888 12.9053 60.195 12.9569V17.132C59.9741 17.0658 59.6685 17.0069 59.2782 16.9553C58.8879 16.9038 58.5308 16.878 58.2068 16.878C57.5146 16.878 56.8961 17.029 56.3512 17.3309C55.8136 17.6254 55.3865 18.0378 55.0699 18.568C54.7606 19.0981 54.606 19.7093 54.606 20.4015V30H49.9006ZM76.7438 17.8721L72.4361 18.1372C72.3625 17.769 72.2041 17.4376 71.9611 17.1431C71.7181 16.8412 71.3978 16.6019 71.0002 16.4251C70.6099 16.241 70.1423 16.149 69.5974 16.149C68.8684 16.149 68.2536 16.3036 67.7528 16.6129C67.2521 16.9148 67.0017 17.3198 67.0017 17.8279C67.0017 18.2329 67.1637 18.5753 67.4877 18.8551C67.8117 19.135 68.3677 19.3595 69.1556 19.5289L72.2262 20.1475C73.8757 20.4862 75.1054 21.0311 75.9154 21.7822C76.7254 22.5333 77.1304 23.52 77.1304 24.7424C77.1304 25.8543 76.8027 26.83 76.1474 27.6694C75.4994 28.5089 74.6084 29.1642 73.4744 29.6355C72.3477 30.0994 71.0481 30.3314 69.5753 30.3314C67.3294 30.3314 65.5401 29.8638 64.2072 28.9286C62.8818 27.986 62.1049 26.7048 61.8766 25.0848L66.5047 24.8418C66.6446 25.5266 66.9833 26.0494 67.5209 26.4102C68.0584 26.7637 68.7469 26.9404 69.5864 26.9404C70.4111 26.9404 71.0738 26.7821 71.5746 26.4655C72.0826 26.1415 72.3404 25.7254 72.3477 25.2173C72.3404 24.7902 72.16 24.4405 71.8065 24.168C71.4531 23.8882 70.9081 23.6746 70.1718 23.5274L67.2337 22.942C65.5769 22.6106 64.3435 22.0362 63.5335 21.2189C62.7308 20.4015 62.3295 19.3595 62.3295 18.093C62.3295 17.0032 62.6241 16.0643 63.2131 15.2764C63.8096 14.4885 64.6454 13.881 65.7205 13.4539C66.8029 13.0268 68.0695 12.8133 69.5201 12.8133C71.6629 12.8133 73.3492 13.2661 74.5789 14.1719C75.816 15.0776 76.5376 16.311 76.7438 17.8721ZM80.0899 30.0746C79.8944 30.0746 79.7253 30.005 79.5828 29.8658C79.4436 29.7232 79.374 29.5542 79.374 29.3587C79.374 29.1598 79.4436 28.9908 79.5828 28.8516C79.7253 28.7124 79.8944 28.6428 80.0899 28.6428C80.2888 28.6428 80.4578 28.7124 80.597 28.8516C80.7362 28.9908 80.8058 29.1598 80.8058 29.3587C80.8058 29.4879 80.7727 29.6072 80.7064 29.7166C80.6434 29.826 80.5573 29.9138 80.4479 29.9801C80.3418 30.0431 80.2225 30.0746 80.0899 30.0746ZM86.6913 30.2486C86.0332 30.2486 85.4318 30.1207 84.8873 29.8651C84.3428 29.6046 83.9096 29.2306 83.5876 28.7429C83.2656 28.2505 83.1047 27.6539 83.1047 26.9531C83.1047 26.4134 83.2065 25.9588 83.4101 25.5895C83.6137 25.2202 83.9025 24.9171 84.2765 24.6804C84.6506 24.4437 85.0933 24.2566 85.6047 24.1193C86.116 23.982 86.6795 23.8755 87.295 23.7997C87.9058 23.724 88.4219 23.6577 88.8433 23.6009C89.2694 23.544 89.5938 23.4541 89.8163 23.331C90.0389 23.2079 90.1501 23.009 90.1501 22.7344V22.4787C90.1501 21.7353 89.9276 21.1506 89.4825 20.7244C89.0422 20.2936 88.4077 20.0781 87.5791 20.0781C86.7931 20.0781 86.1515 20.2509 85.6544 20.5966C85.162 20.9422 84.8163 21.3494 84.6174 21.8182L83.4172 21.3849C83.6634 20.7884 84.0043 20.3125 84.4399 19.9574C84.8755 19.5975 85.3632 19.3395 85.903 19.1832C86.4427 19.0223 86.9896 18.9418 87.5436 18.9418C87.9603 18.9418 88.3935 18.9962 88.8433 19.1051C89.2978 19.214 89.7192 19.4034 90.1075 19.6733C90.4958 19.9384 90.8106 20.3101 91.0521 20.7884C91.2936 21.2618 91.4143 21.8632 91.4143 22.5923V30H90.1501V28.2741H90.072C89.9205 28.5961 89.6956 28.9086 89.3973 29.2116C89.099 29.5147 88.7249 29.7633 88.2751 29.9574C87.8253 30.1515 87.2974 30.2486 86.6913 30.2486ZM86.8618 29.0909C87.5341 29.0909 88.1165 28.9418 88.6089 28.6435C89.1014 28.3452 89.4801 27.9498 89.7453 27.4574C90.0152 26.9602 90.1501 26.4134 90.1501 25.8168V24.2401C90.0554 24.33 89.8968 24.4105 89.6743 24.4815C89.4565 24.5526 89.2031 24.6165 88.9143 24.6733C88.6302 24.7254 88.3461 24.7704 88.0621 24.8082C87.778 24.8461 87.5223 24.8793 87.295 24.9077C86.6795 24.9834 86.1539 25.1018 85.7183 25.2628C85.2827 25.4238 84.9489 25.6463 84.7169 25.9304C84.4849 26.2098 84.3689 26.5696 84.3689 27.0099C84.3689 27.6728 84.6056 28.1866 85.0791 28.5511C85.5526 28.911 86.1468 29.0909 86.8618 29.0909ZM94.7915 30V19.0909H96.0628V30H94.7915ZM95.4378 17.2159C95.1773 17.2159 94.9548 17.1283 94.7701 16.9531C94.5855 16.7732 94.4932 16.5578 94.4932 16.3068C94.4932 16.0559 94.5855 15.8428 94.7701 15.6676C94.9548 15.4877 95.1773 15.3977 95.4378 15.3977C95.6982 15.3977 95.9207 15.4877 96.1054 15.6676C96.29 15.8428 96.3824 16.0559 96.3824 16.3068C96.3824 16.5578 96.29 16.7732 96.1054 16.9531C95.9207 17.1283 95.6982 17.2159 95.4378 17.2159Z" fill="black"/>
<rect x="100" y="7" width="11" height="12" fill="#56F553"/>
<rect x="100" y="19" width="11" height="11" fill="#56F553"/>
<rect x="114" y="19" width="11" height="11" fill="#56F553"/>
</svg>
