<svg width="230" height="80" viewBox="0 0 230 80" fill="none" xmlns="http://www.w3.org/2000/svg">
<mask id="path-2-inside-1_1104_551" fill="white">
<rect width="30" height="80" rx="2"/>
</mask>
<rect width="30" height="80" rx="2" stroke="#848484" stroke-width="5" mask="url(#path-2-inside-1_1104_551)"/>
<mask id="path-3-inside-2_1104_551" fill="white">
<rect x="32" y="40" width="30" height="40" rx="2"/>
</mask>
<rect x="32" y="40" width="30" height="40" rx="2" stroke="#848484" stroke-width="5" mask="url(#path-3-inside-2_1104_551)"/>
<mask id="path-4-inside-3_1104_551" fill="white">
<rect x="66" width="30" height="80" rx="2"/>
</mask>
<rect x="66" width="30" height="80" rx="2" stroke="#848484" stroke-width="5" mask="url(#path-4-inside-3_1104_551)"/>
<mask id="path-5-inside-4_1104_551" fill="white">
<rect x="100" y="40" width="30" height="40" rx="2"/>
</mask>
<rect x="100" y="40" width="30" height="40" rx="2" stroke="#848484" stroke-width="5" mask="url(#path-5-inside-4_1104_551)"/>
<mask id="path-6-inside-5_1104_551" fill="white">
<rect x="132" width="30" height="80" rx="2"/>
</mask>
<rect x="132" width="30" height="80" rx="2" stroke="#848484" stroke-width="5" mask="url(#path-6-inside-5_1104_551)"/>
<mask id="path-7-inside-6_1104_551" fill="white">
<rect x="166" y="40" width="30" height="40" rx="2"/>
</mask>
<rect x="166" y="40" width="30" height="40" rx="2" stroke="#848484" stroke-width="5" mask="url(#path-7-inside-6_1104_551)"/>
<mask id="path-8-inside-7_1104_551" fill="white">
<rect x="200" y="40" width="30" height="40" rx="2"/>
</mask>
<rect x="200" y="40" width="30" height="40" rx="2" stroke="#848484" stroke-width="5" mask="url(#path-8-inside-7_1104_551)"/>
</svg>
