<svg width="50" height="50" viewBox="0 0 50 50" fill="none" xmlns="http://www.w3.org/2000/svg">
<path d="M14.1789 36.6374L18.8181 39.8778C20.5147 41.0626 23.0432 40.6137 24.1985 38.9224L36.3907 21.5026C36.8743 20.8102 37.1501 19.9725 37.1803 19.1181L37.3505 11.5362C37.3722 10.8044 37.0117 10.1406 36.4232 9.72962C35.9385 9.3911 35.3726 9.27917 34.8141 9.37833C34.6671 9.40444 34.52 9.43055 34.4077 9.48074L27.3479 12.2507C26.556 12.5732 25.8889 13.0861 25.381 13.813L13.2182 31.2276C12.6378 32.0585 12.3985 33.1019 12.5812 34.1309C12.7639 35.16 13.3426 36.0276 14.1788 36.6374L14.1789 36.6374ZM27.8392 15.5298C27.9843 15.3221 28.1934 15.1333 28.4528 15.057L34.3489 12.7363L34.1999 19.071C34.188 19.346 34.1071 19.5728 33.9672 19.8098L25.2623 32.2735L19.1689 28.0178L27.8392 15.5298ZM15.6764 32.9444L17.4416 30.4171L23.5351 34.6728L21.7699 37.2001C21.6249 37.4078 21.4053 37.5378 21.1994 37.5743C20.9934 37.6109 20.7428 37.5645 20.5349 37.4194L15.8957 34.1793C15.4803 33.8892 15.3811 33.3305 15.6764 32.9445L15.6764 32.9444Z" />
</svg>
