<svg width="92" height="114" viewBox="0 0 92 114" fill="none" xmlns="http://www.w3.org/2000/svg">
<path d="M51.667 68.3334H29.0003C27.4974 68.3334 26.0561 68.9304 24.9934 69.9931C23.9307 71.0558 23.3337 72.4972 23.3337 74C23.3337 75.5029 23.9307 76.9443 24.9934 78.007C26.0561 79.0697 27.4974 79.6667 29.0003 79.6667H51.667C53.1699 79.6667 54.6112 79.0697 55.6739 78.007C56.7366 76.9443 57.3337 75.5029 57.3337 74C57.3337 72.4972 56.7366 71.0558 55.6739 69.9931C54.6112 68.9304 53.1699 68.3334 51.667 68.3334ZM74.3337 11.6667H67.647C66.4779 8.35993 64.3146 5.4957 61.4537 3.46669C58.5928 1.43769 55.1743 0.343231 51.667 0.333374H40.3337C36.8263 0.343231 33.4079 1.43769 30.547 3.46669C27.6861 5.4957 25.5228 8.35993 24.3537 11.6667H17.667C13.1583 11.6667 8.8343 13.4578 5.64618 16.6459C2.45806 19.834 0.666992 24.158 0.666992 28.6667V96.6667C0.666992 101.175 2.45806 105.499 5.64618 108.688C8.8343 111.876 13.1583 113.667 17.667 113.667H74.3337C78.8423 113.667 83.1664 111.876 86.3545 108.688C89.5426 105.499 91.3337 101.175 91.3337 96.6667V28.6667C91.3337 24.158 89.5426 19.834 86.3545 16.6459C83.1664 13.4578 78.8423 11.6667 74.3337 11.6667ZM34.667 17.3334C34.667 15.8305 35.264 14.3891 36.3267 13.3264C37.3894 12.2637 38.8308 11.6667 40.3337 11.6667H51.667C53.1699 11.6667 54.6112 12.2637 55.6739 13.3264C56.7366 14.3891 57.3337 15.8305 57.3337 17.3334V23H34.667V17.3334ZM80.0003 96.6667C80.0003 98.1696 79.4033 99.6109 78.3406 100.674C77.2779 101.736 75.8365 102.333 74.3337 102.333H17.667C16.1641 102.333 14.7228 101.736 13.6601 100.674C12.5973 99.6109 12.0003 98.1696 12.0003 96.6667V28.6667C12.0003 27.1638 12.5973 25.7225 13.6601 24.6598C14.7228 23.5971 16.1641 23 17.667 23H23.3337V28.6667C23.3337 30.1696 23.9307 31.6109 24.9934 32.6736C26.0561 33.7364 27.4974 34.3334 29.0003 34.3334H63.0003C64.5032 34.3334 65.9446 33.7364 67.0073 32.6736C68.07 31.6109 68.667 30.1696 68.667 28.6667V23H74.3337C75.8365 23 77.2779 23.5971 78.3406 24.6598C79.4033 25.7225 80.0003 27.1638 80.0003 28.6667V96.6667ZM63.0003 45.6667H29.0003C27.4974 45.6667 26.0561 46.2637 24.9934 47.3264C23.9307 48.3891 23.3337 49.8305 23.3337 51.3334C23.3337 52.8363 23.9307 54.2776 24.9934 55.3403C26.0561 56.403 27.4974 57 29.0003 57H63.0003C64.5032 57 65.9446 56.403 67.0073 55.3403C68.07 54.2776 68.667 52.8363 68.667 51.3334C68.667 49.8305 68.07 48.3891 67.0073 47.3264C65.9446 46.2637 64.5032 45.6667 63.0003 45.6667Z" fill="black"/>
</svg>
