<svg width="50" height="50" viewBox="0 0 50 50" fill="none" xmlns="http://www.w3.org/2000/svg">
<path d="M34.6229 10.807L25.4863 15.3236L12.5983 33.733C11.7168 34.9921 11.9144 36.6561 13.0383 37.443L16.9518 40.1827C18.0759 40.9697 19.7069 40.5858 20.5883 39.3267L33.4756 20.9184L34.6229 10.807ZM26.4231 16.4146L32.9505 13.1875L32.1313 20.4093L19.447 38.5277C19.0064 39.1571 18.2454 39.3875 17.7508 39.0412L13.8373 36.3015C13.343 35.9554 13.2991 35.1615 13.7397 34.5322L26.4231 16.4146Z" />
<path d="M13.7972 32.0211L21.7875 37.6149L22.5866 36.4735L14.5963 30.8796L13.7972 32.0211Z" />
<path d="M25.5552 16.4396L32.404 21.2342L33.2031 20.0927L26.3544 15.2981L25.5552 16.4396Z" />
<path d="M33.5804 14.6007C31.837 14.7445 31.4509 13.2792 31.4131 13.1108L30.051 13.4048C30.2594 14.386 31.2886 16.1896 33.6957 15.9887L33.5804 14.6007Z" />
</svg>
