<svg width="50" height="50" viewBox="0 0 50 50" fill="none" xmlns="http://www.w3.org/2000/svg">
<path d="M50 25C50 38.8071 38.8071 50 25 50C11.1929 50 0 38.8071 0 25C0 11.1929 11.1929 0 25 0C38.8071 0 50 11.1929 50 25Z" fill="white"/>
<path d="M50 25C50 38.8071 38.8071 50 25 50C11.1929 50 0 38.8071 0 25C0 11.1929 11.1929 0 25 0C38.8071 0 50 11.1929 50 25Z" fill="white"/>
<path d="M50 25C50 38.8071 38.8071 50 25 50C11.1929 50 0 38.8071 0 25C0 11.1929 11.1929 0 25 0C38.8071 0 50 11.1929 50 25Z" fill="white"/>
<path d="M50 25C50 38.8071 38.8071 50 25 50C11.1929 50 0 38.8071 0 25C0 11.1929 11.1929 0 25 0C38.8071 0 50 11.1929 50 25Z" fill="white"/>
<path d="M35 13H15C13.8954 13 13 13.8954 13 15V15.8C13 16.9046 13.8954 17.8 15 17.8H35C36.1046 17.8 37 16.9046 37 15.8V15C37 13.8954 36.1046 13 35 13Z"    />
<path d="M35 22.6H15C13.8954 22.6 13 23.4954 13 24.6V25.4C13 26.5045 13.8954 27.4 15 27.4H35C36.1046 27.4 37 26.5045 37 25.4V24.6C37 23.4954 36.1046 22.6 35 22.6Z"    />
<path d="M35 32.2H15C13.8954 32.2 13 33.0954 13 34.2V35C13 36.1046 13.8954 37 15 37H35C36.1046 37 37 36.1046 37 35V34.2C37 33.0954 36.1046 32.2 35 32.2Z"    />
</svg>
