<svg width="46" height="46" viewBox="0 0 46 46" fill="none" xmlns="http://www.w3.org/2000/svg">
<path fill-rule="evenodd" clip-rule="evenodd" d="M22.1687 10.0581C22.3825 9.98063 22.617 9.98063 22.8308 10.0581L33.4872 13.9153C33.87 14.0539 34.1249 14.4159 34.1249 14.8214V25.6969C35.0842 26.1586 35.9128 26.6929 36.5549 27.2973C37.411 28.1031 38 29.1006 38 30.25C38 31.3994 37.4109 32.3968 36.5549 33.2027C35.7009 34.0066 34.5172 34.6859 33.1348 35.2365C30.3648 36.3394 26.6042 37 22.5 37C18.3958 37 14.6353 36.3394 11.8652 35.2365C10.4827 34.6859 9.29907 34.0066 8.44512 33.2027C7.58901 32.3968 7 31.3994 7 30.25C7 29.1006 7.58906 28.1031 8.44512 27.2973C9.08716 26.6929 9.91576 26.1586 10.8751 25.6969V14.8214C10.8751 14.4159 11.13 14.0538 11.5128 13.9153L22.1687 10.0581ZM34.1249 28.3217V27.8863C34.5634 28.1502 34.9306 28.4229 35.2236 28.6988C35.8382 29.2774 36.0624 29.802 36.0624 30.2503C36.0624 30.6986 35.8382 31.2232 35.2236 31.8018C34.6069 32.3823 33.6626 32.9494 32.4153 33.4462C29.9259 34.4372 26.4206 35.0717 22.4996 35.0717C18.5786 35.0717 15.0733 34.4372 12.5839 33.4462C11.3366 32.9494 10.3923 32.3823 9.77559 31.8018C9.16101 31.2232 8.93681 30.6986 8.93681 30.2503C8.93681 29.802 9.16105 29.2774 9.77559 28.6988C10.0688 28.4229 10.4358 28.1502 10.8743 27.8863V28.3217C10.8743 28.7273 11.1293 29.0895 11.5121 29.2279L22.1685 33.085C22.3823 33.1625 22.6167 33.1625 22.8306 33.085L33.487 29.2279C33.8698 29.0895 34.1247 28.7272 34.1247 28.3217H34.1249ZM23.4685 19.3544V30.8024L32.1874 27.6466V16.1985L23.4685 19.3544ZM21.531 30.8024L12.8121 27.6466V16.1985L21.531 19.3544V30.8024ZM30.3212 14.8217L22.4997 17.6528L14.6782 14.8217L22.4997 11.9906L30.3212 14.8217Z" />
</svg>
