<svg width="40" height="40" viewBox="0 0 40 40" xmlns="http://www.w3.org/2000/svg">
<path d="M23.333 13.3335H24.9997C25.4417 13.3335 25.8656 13.1579 26.1782 12.8453C26.4907 12.5328 26.6663 12.1089 26.6663 11.6668C26.6663 11.2248 26.4907 10.8009 26.1782 10.4883C25.8656 10.1758 25.4417 10.0002 24.9997 10.0002H23.333C22.891 10.0002 22.4671 10.1758 22.1545 10.4883C21.8419 10.8009 21.6663 11.2248 21.6663 11.6668C21.6663 12.1089 21.8419 12.5328 22.1545 12.8453C22.4671 13.1579 22.891 13.3335 23.333 13.3335V13.3335ZM23.333 20.0002H24.9997C25.4417 20.0002 25.8656 19.8246 26.1782 19.512C26.4907 19.1994 26.6663 18.7755 26.6663 18.3335C26.6663 17.8915 26.4907 17.4675 26.1782 17.155C25.8656 16.8424 25.4417 16.6668 24.9997 16.6668H23.333C22.891 16.6668 22.4671 16.8424 22.1545 17.155C21.8419 17.4675 21.6663 17.8915 21.6663 18.3335C21.6663 18.7755 21.8419 19.1994 22.1545 19.512C22.4671 19.8246 22.891 20.0002 23.333 20.0002V20.0002ZM14.9997 13.3335H16.6663C17.1084 13.3335 17.5323 13.1579 17.8449 12.8453C18.1574 12.5328 18.333 12.1089 18.333 11.6668C18.333 11.2248 18.1574 10.8009 17.8449 10.4883C17.5323 10.1758 17.1084 10.0002 16.6663 10.0002H14.9997C14.5576 10.0002 14.1337 10.1758 13.8212 10.4883C13.5086 10.8009 13.333 11.2248 13.333 11.6668C13.333 12.1089 13.5086 12.5328 13.8212 12.8453C14.1337 13.1579 14.5576 13.3335 14.9997 13.3335V13.3335ZM14.9997 20.0002H16.6663C17.1084 20.0002 17.5323 19.8246 17.8449 19.512C18.1574 19.1994 18.333 18.7755 18.333 18.3335C18.333 17.8915 18.1574 17.4675 17.8449 17.155C17.5323 16.8424 17.1084 16.6668 16.6663 16.6668H14.9997C14.5576 16.6668 14.1337 16.8424 13.8212 17.155C13.5086 17.4675 13.333 17.8915 13.333 18.3335C13.333 18.7755 13.5086 19.1994 13.8212 19.512C14.1337 19.8246 14.5576 20.0002 14.9997 20.0002V20.0002ZM34.9997 33.3335H33.333V5.00016C33.333 4.55814 33.1574 4.13421 32.8449 3.82165C32.5323 3.50909 32.1084 3.3335 31.6663 3.3335H8.33301C7.89098 3.3335 7.46706 3.50909 7.1545 3.82165C6.84194 4.13421 6.66634 4.55814 6.66634 5.00016V33.3335H4.99967C4.55765 33.3335 4.13372 33.5091 3.82116 33.8217C3.5086 34.1342 3.33301 34.5581 3.33301 35.0002C3.33301 35.4422 3.5086 35.8661 3.82116 36.1787C4.13372 36.4912 4.55765 36.6668 4.99967 36.6668H34.9997C35.4417 36.6668 35.8656 36.4912 36.1782 36.1787C36.4907 35.8661 36.6663 35.4422 36.6663 35.0002C36.6663 34.5581 36.4907 34.1342 36.1782 33.8217C35.8656 33.5091 35.4417 33.3335 34.9997 33.3335ZM21.6663 33.3335H18.333V26.6668H21.6663V33.3335ZM29.9997 33.3335H24.9997V25.0002C24.9997 24.5581 24.8241 24.1342 24.5115 23.8217C24.199 23.5091 23.775 23.3335 23.333 23.3335H16.6663C16.2243 23.3335 15.8004 23.5091 15.4878 23.8217C15.1753 24.1342 14.9997 24.5581 14.9997 25.0002V33.3335H9.99967V6.66683H29.9997V33.3335Z"    />
</svg>
