<svg width="18" height="17" viewBox="0 0 18 17" fill="none" xmlns="http://www.w3.org/2000/svg">
<path d="M17.199 9.19353C17.0787 9.0941 16.9329 9.03045 16.7782 9.00982C16.6235 8.98919 16.4661 9.01242 16.324 9.07686C15.4428 9.4801 14.4847 9.68764 13.5156 9.68519C11.723 9.68303 10.0039 8.97223 8.73326 7.70778C7.46256 6.44333 6.7433 4.72778 6.73231 2.93519C6.73611 2.37339 6.80603 1.81398 6.94064 1.26853C6.9692 1.12314 6.95849 0.972771 6.9096 0.832905C6.86072 0.693039 6.77542 0.568736 6.66251 0.472802C6.5496 0.376869 6.41315 0.312774 6.26722 0.287122C6.1213 0.261469 5.97117 0.275186 5.83231 0.326859C4.52591 0.914283 3.39028 1.82416 2.53211 2.97101C1.67393 4.11786 1.12137 5.46405 0.926348 6.8831C0.731322 8.30215 0.900228 9.74749 1.4172 11.0833C1.93417 12.4192 2.78223 13.6017 3.88172 14.5197C4.98121 15.4378 6.29604 16.0613 7.70268 16.3317C9.10932 16.6021 10.5616 16.5104 11.9231 16.0654C13.2846 15.6203 14.5106 14.8365 15.486 13.7875C16.4613 12.7385 17.154 11.4588 17.499 10.0685C17.541 9.90936 17.5349 9.74131 17.4815 9.58558C17.4281 9.42986 17.3298 9.29343 17.199 9.19353V9.19353ZM9.28231 14.7685C7.88377 14.7587 6.52247 14.3167 5.3848 13.5033C4.24713 12.6899 3.38869 11.5446 2.92704 10.2245C2.46539 8.90429 2.42309 7.47368 2.80592 6.12853C3.18876 4.78338 3.97802 3.58944 5.06564 2.71019V2.93519C5.06785 5.1756 5.95882 7.3236 7.54302 8.90781C9.12723 10.492 11.2752 11.383 13.5156 11.3852C14.1039 11.3874 14.6906 11.3259 15.2656 11.2019C14.6906 12.2898 13.8294 13.2001 12.7749 13.8345C11.7205 14.4689 10.5129 14.8034 9.28231 14.8019V14.7685Z"/>
</svg>
