<svg width="50" height="50" viewBox="0 0 50 50" fill="none" xmlns="http://www.w3.org/2000/svg">
<path d="M36.2852 12.1098L12.7618 21.8983C12.2981 22.0915 11.9801 22.5905 12.001 23.0926C12.0221 23.5947 12.38 24.0656 12.8582 24.2194L22.6274 27.392L25.7806 37.1418C25.9348 37.62 26.4057 37.9782 26.9077 37.999C27.4098 38.0202 27.9089 37.7022 28.102 37.2382L37.9099 13.7156C38.3261 12.7828 37.2077 11.6378 36.2849 12.1099L36.2852 12.1098ZM34.4668 15.5532L27.1157 33.195L24.775 26.0183C24.6547 25.6496 24.3509 25.3455 23.9818 25.2252L16.8242 22.9038L34.4668 15.5532Z" fill ='black'/>
</svg>
