<svg width="50" height="50" viewBox="0 0 50 50" xmlns="http://www.w3.org/2000/svg">
<path d="M33.3409 22.9747L19.3791 36.9364C18.9886 37.327 18.9921 37.9566 19.387 38.3427L20.817 39.7412C21.2119 40.1274 21.8486 40.1238 22.2391 39.7333L36.2009 25.7715C36.5914 25.381 36.5879 24.7514 36.193 24.3653L34.7629 22.9667C34.3681 22.5806 33.7314 22.5842 33.3409 22.9747Z"></path>
<path d="M35.4973 23.6689L21.5355 9.70711C21.145 9.31658 20.5154 9.3201 20.1293 9.71496L18.7307 11.145C18.3446 11.5399 18.3482 12.1766 18.7387 12.5671L32.7004 26.5289C33.091 26.9194 33.7206 26.9159 34.1067 26.521L35.5052 25.0909C35.8914 24.6961 35.8878 24.0594 35.4973 23.6689Z"></path>
</svg>