<svg width="50" height="50" viewBox="0 0 50 50" xmlns="http://www.w3.org/2000/svg">
<path d="M16.6591 27.0253L30.6209 13.0636C31.0114 12.673 31.0079 12.0434 30.613 11.6573L29.183 10.2588C28.7881 9.87262 28.1514 9.87618 27.7609 10.2667L13.7991 24.2285C13.4086 24.619 13.4121 25.2486 13.807 25.6347L15.2371 27.0333C15.6319 27.4194 16.2686 27.4158 16.6591 27.0253Z"></path>
<path d="M14.5028 26.3311L28.4645 40.2929C28.855 40.6834 29.4847 40.6799 29.8708 40.285L31.2693 38.855C31.6555 38.4601 31.6519 37.8234 31.2614 37.4329L17.2996 23.4711C16.9091 23.0806 16.2795 23.0841 15.8933 23.479L14.4948 24.9091C14.1087 25.3039 14.1122 25.9406 14.5028 26.3311Z"></path>
</svg>
