<svg width="18" height="17" viewBox="0 0 18 17" fill="none" xmlns="http://www.w3.org/2000/svg">
<path d="M13.332 4.19352H4.9987C4.77768 4.19352 4.56572 4.28132 4.40944 4.4376C4.25316 4.59388 4.16536 4.80584 4.16536 5.02686C4.16536 5.24787 4.25316 5.45983 4.40944 5.61611C4.56572 5.77239 4.77768 5.86019 4.9987 5.86019H13.332C13.553 5.86019 13.765 5.77239 13.9213 5.61611C14.0776 5.45983 14.1654 5.24787 14.1654 5.02686C14.1654 4.80584 14.0776 4.59388 13.9213 4.4376C13.765 4.28132 13.553 4.19352 13.332 4.19352ZM13.332 7.52686H4.9987C4.77768 7.52686 4.56572 7.61465 4.40944 7.77093C4.25316 7.92721 4.16536 8.13918 4.16536 8.36019C4.16536 8.5812 4.25316 8.79317 4.40944 8.94945C4.56572 9.10573 4.77768 9.19352 4.9987 9.19352H13.332C13.553 9.19352 13.765 9.10573 13.9213 8.94945C14.0776 8.79317 14.1654 8.5812 14.1654 8.36019C14.1654 8.13918 14.0776 7.92721 13.9213 7.77093C13.765 7.61465 13.553 7.52686 13.332 7.52686ZM14.9987 0.0268555H3.33203C2.66899 0.0268555 2.03311 0.290248 1.56426 0.759089C1.09542 1.22793 0.832031 1.86381 0.832031 2.52686V10.8602C0.832031 11.5232 1.09542 12.1591 1.56426 12.628C2.03311 13.0968 2.66899 13.3602 3.33203 13.3602H12.9904L16.0737 16.4519C16.1516 16.5291 16.2439 16.5902 16.3454 16.6317C16.447 16.6731 16.5557 16.6942 16.6654 16.6935C16.7747 16.6963 16.8831 16.6735 16.982 16.6269C17.1342 16.5643 17.2645 16.4582 17.3564 16.3217C17.4484 16.1853 17.4979 16.0247 17.4987 15.8602V2.52686C17.4987 1.86381 17.2353 1.22793 16.7665 0.759089C16.2976 0.290248 15.6617 0.0268555 14.9987 0.0268555ZM15.832 13.8519L13.9237 11.9352C13.8458 11.858 13.7535 11.7969 13.652 11.7554C13.5504 11.7139 13.4417 11.6929 13.332 11.6935H3.33203C3.11102 11.6935 2.89906 11.6057 2.74278 11.4494C2.5865 11.2932 2.4987 11.0812 2.4987 10.8602V2.52686C2.4987 2.30584 2.5865 2.09388 2.74278 1.9376C2.89906 1.78132 3.11102 1.69352 3.33203 1.69352H14.9987C15.2197 1.69352 15.4317 1.78132 15.588 1.9376C15.7442 2.09388 15.832 2.30584 15.832 2.52686V13.8519Z" fill="#505050"/>
</svg>
