<svg width="50" height="50" viewBox="0 0 50 50" fill="none" xmlns="http://www.w3.org/2000/svg">
<path d="M36.1875 36.9998H13.9063C11.7741 36.9998 11 35.2059 11 33.9999V16C11 14.794 11.7741 13 13.9063 13H18.75C20.2371 13 20.9636 14.125 21.4934 14.9451C21.9778 15.6951 22.2152 16 22.625 16H33.2813C34.4496 16 36.1875 16.7991 36.1875 19V21.9999H39.0938C41.2259 21.9999 42 23.7939 42 24.9999L41.9836 25.1789C41.3586 28.7329 39.5403 37 36.1877 37L36.1875 36.9998ZM14.9176 34.9999H36.1875C37.2782 34.9999 39.1152 30.2129 40.0597 24.9279C40.0305 24.4931 39.8328 24 39.0938 24H19.7188C18.1649 24 17.7821 25.1451 17.7434 25.275L14.9176 34.9999ZM13.9063 15C13.1265 15 12.9492 15.55 12.9375 16.012V33.9999C12.9414 34.1649 12.9684 34.3439 13.0383 34.5039L15.8844 24.7131C16.1257 23.7922 17.2485 22.0002 19.7188 22.0002H34.25V19.0002C34.25 18.1953 33.7172 18.0123 33.2696 18.0002H22.625C21.1379 18.0002 20.4113 16.8752 19.8815 16.0551C19.3971 15.3051 19.1597 15.0002 18.75 15.0002L13.9063 15Z"/>
</svg>
