<svg width="20" height="20" viewBox="0 0 20 20" fill="none" xmlns="http://www.w3.org/2000/svg">
<path d="M20 10C20 15.5228 15.5228 20 10 20C4.47715 20 0 15.5228 0 10C0 4.47715 4.47715 0 10 0C15.5228 0 20 4.47715 20 10Z" fill="#E5E5E5"/>
<path d="M20 10C20 15.5228 15.5228 20 10 20C4.47715 20 0 15.5228 0 10C0 4.47715 4.47715 0 10 0C15.5228 0 20 4.47715 20 10Z" fill="#E5E5E5"/>
<path d="M5.66284 10.4922V13.5692C5.66284 13.8957 5.79642 14.2087 6.03395 14.4395C6.27159 14.6704 6.59387 14.8 6.92996 14.8H13.2654C13.6015 14.8 13.9238 14.6704 14.1614 14.4395C14.3989 14.2087 14.5325 13.8957 14.5325 13.5692V10.4922C14.5325 10.1659 14.3989 9.85286 14.1614 9.62201C13.9238 9.39117 13.6015 9.26154 13.2654 9.26154H11.9983V10.4923H13.2654V13.5693H6.92996V10.4923H8.19708V9.26165H6.92996C6.59387 9.26165 6.27161 9.39128 6.03395 9.62212C5.79641 9.85295 5.66284 10.166 5.66284 10.4923V10.4922Z"    />
<path d="M10.7312 11.8462V7.09179L11.9984 8.19945L12.8948 7.41572L10.546 5.36246C10.4271 5.25844 10.2659 5.20001 10.0977 5.20001C9.92956 5.20001 9.76837 5.25844 9.64949 5.36246L7.30066 7.41572L8.1971 8.19945L9.46421 7.09179V11.8462H10.7312Z"    />
</svg>
