<svg width="29" height="30" viewBox="0 0 29 30" fill="none" xmlns="http://www.w3.org/2000/svg">
<path d="M16.8004 15.2107H15.6004V14.0107C15.6004 13.6925 15.474 13.3872 15.2489 13.1622C15.0239 12.9371 14.7187 12.8107 14.4004 12.8107C14.0821 12.8107 13.7769 12.9371 13.5519 13.1622C13.3268 13.3872 13.2004 13.6925 13.2004 14.0107V15.2107H12.0004C11.6821 15.2107 11.3769 15.3371 11.1519 15.5622C10.9268 15.7872 10.8004 16.0925 10.8004 16.4107C10.8004 16.729 10.9268 17.0342 11.1519 17.2592C11.3769 17.4843 11.6821 17.6107 12.0004 17.6107H13.2004V18.8107C13.2004 19.129 13.3268 19.4342 13.5519 19.6592C13.7769 19.8843 14.0821 20.0107 14.4004 20.0107C14.7187 20.0107 15.0239 19.8843 15.2489 19.6592C15.474 19.4342 15.6004 19.129 15.6004 18.8107V17.6107H16.8004C17.1187 17.6107 17.4239 17.4843 17.6489 17.2592C17.874 17.0342 18.0004 16.729 18.0004 16.4107C18.0004 16.0925 17.874 15.7872 17.6489 15.5622C17.4239 15.3371 17.1187 15.2107 16.8004 15.2107ZM22.8004 6.81072H15.2644L14.8804 5.61072C14.6315 4.9066 14.1697 4.29732 13.5591 3.86731C12.9485 3.4373 12.2192 3.20784 11.4724 3.21072H6.00039C5.04561 3.21072 4.12994 3.59 3.45481 4.26514C2.77968 4.94027 2.40039 5.85594 2.40039 6.81072V22.4107C2.40039 23.3655 2.77968 24.2812 3.45481 24.9563C4.12994 25.6314 5.04561 26.0107 6.00039 26.0107H22.8004C23.7552 26.0107 24.6708 25.6314 25.346 24.9563C26.0211 24.2812 26.4004 23.3655 26.4004 22.4107V10.4107C26.4004 9.45594 26.0211 8.54027 25.346 7.86514C24.6708 7.19 23.7552 6.81072 22.8004 6.81072ZM24.0004 22.4107C24.0004 22.729 23.874 23.0342 23.6489 23.2592C23.4239 23.4843 23.1187 23.6107 22.8004 23.6107H6.00039C5.68213 23.6107 5.37691 23.4843 5.15186 23.2592C4.92682 23.0342 4.80039 22.729 4.80039 22.4107V6.81072C4.80039 6.49246 4.92682 6.18724 5.15186 5.96219C5.37691 5.73715 5.68213 5.61072 6.00039 5.61072H11.4724C11.724 5.61007 11.9694 5.6885 12.1739 5.83493C12.3785 5.98136 12.5319 6.18837 12.6124 6.42672L13.2604 8.39472C13.3409 8.63307 13.4943 8.84008 13.6988 8.98651C13.9034 9.13294 14.1488 9.21137 14.4004 9.21072H22.8004C23.1187 9.21072 23.4239 9.33715 23.6489 9.56219C23.874 9.78724 24.0004 10.0925 24.0004 10.4107V22.4107Z" />
</svg>
