<?xml version="1.0" encoding="utf-8"?>
<!-- Generator: Adobe Illustrator 26.4.1, SVG Export Plug-In . SVG Version: 6.00 Build 0)  -->
<svg version="1.1" id="Layer_1" xmlns="http://www.w3.org/2000/svg" xmlns:xlink="http://www.w3.org/1999/xlink" x="0px" y="0px"
	 viewBox="0 0 518 485" style="enable-background:new 0 0 518 485;" xml:space="preserve">
<symbol  id="a" viewBox="-8.2 -8 16.4 16.1">
	<path d="M8.2-0.1v1.4H-3.2c0.1,1.1,0.5,2,1.2,2.6c0.7,0.6,1.7,0.9,3,0.9c1,0,2.1-0.1,3.2-0.5C5.2,4,6.3,3.6,7.5,2.9v3.8
		C6.3,7.1,5.2,7.5,4,7.7C2.9,7.9,1.7,8,0.5,8c-2.8,0-4.9-0.7-6.5-2.1C-7.5,4.5-8.2,2.6-8.2,0c0-2.5,0.8-4.5,2.3-5.9
		C-4.4-7.3-2.4-8,0.3-8C2.7-8,4.6-7.3,6-5.9C7.5-4.4,8.2-2.5,8.2-0.1L8.2-0.1z M3.2-1.7c0-0.9-0.3-1.7-0.8-2.2
		C1.8-4.5,1.1-4.8,0.3-4.8c-0.9,0-1.7,0.3-2.3,0.8s-1,1.3-1.1,2.3H3.2z"/>
</symbol>
<symbol  id="b" viewBox="-8.4 -8 16.8 16.1">
	<path d="M0-4.5c-1.1,0-1.9,0.4-2.5,1.2C-3-2.6-3.3-1.5-3.3,0S-3,2.6-2.5,3.4C-1.9,4.2-1.1,4.5,0,4.5c1.1,0,1.9-0.4,2.4-1.2
		C3,2.6,3.3,1.5,3.3,0S3-2.6,2.5-3.4C1.9-4.1,1.1-4.5,0-4.5z M0-8c2.6,0,4.7,0.7,6.2,2.1C7.7-4.5,8.4-2.5,8.4,0
		c0,2.5-0.7,4.5-2.2,5.9C4.7,7.3,2.7,8,0,8c-2.6,0-4.7-0.7-6.2-2.1C-7.7,4.5-8.4,2.5-8.4,0c0-2.5,0.7-4.5,2.2-5.9
		C-4.7-7.3-2.6-8,0-8z"/>
</symbol>
<symbol  id="c" viewBox="-6.2 -9.8 12.4 19.7">
	<path d="M1.1-9.8v4.3h5V-2h-5v6.5c0,0.7,0.1,1.2,0.4,1.4s0.8,0.4,1.7,0.4h2.5v3.5H1.6c-1.9,0-3.3-0.4-4.1-1.2
		c-0.8-0.8-1.2-2.2-1.2-4.1V-2h-2.4v-3.5h2.4v-4.3H1.1z"/>
</symbol>
<symbol  id="d" viewBox="-5.7 -7.8 11.4 15.7">
	<path d="M5.7-3.3C5.2-3.5,4.8-3.6,4.4-3.7C4-3.8,3.6-3.9,3.1-3.9c-1.3,0-2.2,0.4-2.9,1.2c-0.7,0.8-1,2-1,3.5v7.1h-4.9V-7.5h4.9V-5
		c0.6-1,1.3-1.7,2.2-2.2c0.8-0.5,1.8-0.7,2.9-0.7c0.2,0,0.3,0,0.5,0c0.2,0,0.5,0,0.8,0.1L5.7-3.3z"/>
</symbol>
<symbol  id="e" viewBox="-12.3 -7.8 24.6 15.7">
	<path d="M1.9-4.9c0.6-0.9,1.3-1.7,2.2-2.2C5-7.6,5.9-7.8,6.9-7.8c1.8,0,3.1,0.5,4,1.6c0.9,1.1,1.4,2.7,1.4,4.7v9.3H7.4v-8v-0.4
		c0-0.1,0-0.3,0-0.6c0-1.1-0.2-1.9-0.5-2.3C6.6-3.9,6.1-4.1,5.4-4.1C4.5-4.1,3.8-3.8,3.2-3C2.7-2.2,2.5-1.1,2.5,0.3v7.5h-4.9v-8
		c0-1.7-0.1-2.8-0.4-3.3c-0.3-0.5-0.8-0.7-1.6-0.7c-0.9,0-1.7,0.4-2.2,1.2c-0.5,0.8-0.8,1.9-0.8,3.3v7.5h-4.9V-7.5h4.9v2.2
		c0.6-0.9,1.3-1.5,2.1-2c0.8-0.4,1.6-0.7,2.6-0.7c1.1,0,2,0.3,2.8,0.8C0.9-6.6,1.5-5.8,1.9-4.9L1.9-4.9z"/>
</symbol>
<symbol  id="f" viewBox="-7.7 -7.8 15.4 15.7">
	<path d="M7.7-1.5v9.3H2.8V0.7c0-1.3,0-2.2-0.1-2.7S2.5-2.9,2.4-3.1C2.2-3.5,1.9-3.7,1.6-3.9C1.3-4.1,0.9-4.1,0.5-4.1
		c-1,0-1.8,0.4-2.4,1.2c-0.6,0.8-0.9,1.9-0.9,3.3v7.5h-4.9V-7.5h4.9v2.2c0.7-0.9,1.5-1.5,2.3-2c0.8-0.4,1.8-0.6,2.8-0.6
		c1.8,0,3.1,0.5,4,1.6C7.2-5.1,7.7-3.5,7.7-1.5L7.7-1.5z"/>
</symbol>
<symbol  id="g" viewBox="-6.8 -8 13.5 16.1">
	<path d="M6.8-7.2v4c-0.7-0.5-1.3-0.8-2-1C4.1-4.4,3.4-4.5,2.7-4.5c-1.4,0-2.4,0.4-3.2,1.2C-1.3-2.5-1.7-1.4-1.7,0
		c0,1.4,0.4,2.5,1.1,3.3c0.8,0.8,1.8,1.2,3.2,1.2c0.8,0,1.5-0.1,2.2-0.3c0.7-0.2,1.3-0.6,1.9-1v4C6,7.5,5.2,7.7,4.4,7.8
		C3.6,8,2.9,8,2.1,8c-2.8,0-4.9-0.7-6.5-2.1C-6,4.5-6.8,2.5-6.8,0c0-2.5,0.8-4.5,2.3-5.9C-2.9-7.3-0.7-8,2.1-8C2.9-8,3.6-8,4.4-7.8
		C5.2-7.7,6-7.5,6.8-7.2L6.8-7.2z"/>
</symbol>
<symbol  id="h" viewBox="-2.4 -10.6 4.9 21.3">
	<path d="M-2.4-4.7h4.9v15.3h-4.9L-2.4-4.7z M-2.4-10.6h4.9v4h-4.9L-2.4-10.6z"/>
</symbol>
<symbol  id="i" viewBox="-8.7 -10.7 17.4 21.4">
	<path d="M-8.7-10.7h4.9L0.3-0.3l3.5-10.4h4.9L2.3,6.1C1.6,7.8,0.9,9,0,9.6c-0.9,0.7-2,1-3.4,1h-2.8V7.5h1.5c0.8,0,1.4-0.1,1.8-0.4
		C-2.5,6.8-2.2,6.3-2,5.6l0.1-0.4L-8.7-10.7z"/>
</symbol>
<symbol  id="j" viewBox="-8.2 -10.8 16.4 21.7">
	<path d="M-0.1,7.3c1.1,0,1.9-0.4,2.4-1.1c0.6-0.8,0.8-1.9,0.8-3.3c0-1.5-0.3-2.6-0.8-3.3C1.8-1.3,1-1.7-0.1-1.7
		c-1.1,0-1.9,0.4-2.4,1.2C-3,0.2-3.3,1.4-3.3,2.8c0,1.4,0.3,2.6,0.8,3.3C-1.9,6.9-1.1,7.3-0.1,7.3L-0.1,7.3z M-3.3-2.6
		c0.7-0.9,1.4-1.5,2.2-2C-0.3-5,0.7-5.2,1.7-5.2c1.9,0,3.4,0.8,4.7,2.2c1.2,1.5,1.8,3.4,1.8,5.8c0,2.4-0.6,4.3-1.8,5.8
		c-1.2,1.5-2.8,2.2-4.7,2.2c-1.1,0-2-0.2-2.8-0.6c-0.8-0.4-1.6-1.1-2.2-2v2.2h-4.9v-21.3h4.9V-2.6z"/>
</symbol>
<symbol  id="k" viewBox="-8.2 -10.8 16.4 21.7">
	<path d="M3.3-2.6v-8.2h4.9v21.3H3.3V8.2c-0.7,0.9-1.4,1.6-2.2,2c-0.8,0.4-1.8,0.6-2.8,0.6c-1.9,0-3.4-0.8-4.6-2.2
		c-1.2-1.5-1.8-3.4-1.8-5.8c0-2.4,0.6-4.3,1.8-5.8c1.2-1.5,2.8-2.2,4.6-2.2c1.1,0,2,0.2,2.8,0.6C1.9-4.2,2.6-3.5,3.3-2.6L3.3-2.6z
		 M0.1,7.3c1,0,1.8-0.4,2.4-1.1C3,5.4,3.3,4.3,3.3,2.8c0-1.5-0.3-2.6-0.8-3.3C1.9-1.3,1.1-1.7,0.1-1.7c-1,0-1.8,0.4-2.4,1.2
		c-0.6,0.8-0.8,1.9-0.8,3.3c0,1.5,0.3,2.6,0.8,3.3C-1.8,6.9-1,7.3,0.1,7.3z"/>
</symbol>
<symbol  id="l" viewBox="-7.7 -8 15.5 16.1">
	<path d="M0.3,0.8c-1,0-1.8,0.2-2.3,0.5c-0.5,0.3-0.8,0.9-0.8,1.5c0,0.6,0.2,1.1,0.6,1.5c0.4,0.3,1,0.5,1.7,0.5c0.9,0,1.7-0.3,2.3-1
		c0.6-0.7,1-1.5,1-2.5V0.8L0.3,0.8z M7.7-1.1v8.7H2.8V5.4C2.2,6.3,1.4,7,0.6,7.4C-0.2,7.8-1.2,8-2.4,8C-4,8-5.3,7.6-6.3,6.7
		c-1-0.9-1.5-2.1-1.5-3.6c0-1.8,0.6-3.1,1.8-3.9c1.2-0.8,3.2-1.3,5.8-1.3h2.9v-0.4c0-0.8-0.3-1.3-0.9-1.7C1.3-4.6,0.3-4.8-1-4.8
		c-1.1,0-2,0.1-2.9,0.3c-0.9,0.2-1.7,0.5-2.5,0.9v-3.7c1-0.2,2.1-0.4,3.1-0.6C-2.2-8-1.1-8-0.1-8c2.8,0,4.8,0.5,6,1.6
		C7.1-5.3,7.7-3.5,7.7-1.1L7.7-1.1z"/>
</symbol>
<symbol  id="m" viewBox="-4.1 -13.7 8.2 27.3">
	<path d="M-0.8-7.7h4.9v15c0,2.1-0.5,3.6-1.5,4.7c-1,1.1-2.4,1.6-4.3,1.6h-2.4v-3.2h0.9c0.9,0,1.6-0.2,1.9-0.6
		C-1,9.4-0.8,8.6-0.8,7.3L-0.8-7.7z M-0.8-13.7h4.9v4h-4.9L-0.8-13.7z"/>
</symbol>
<symbol  id="n" viewBox="-8.4 -10.2 16.8 20.4">
	<path d="M-8.4-10.2h8.7c2.6,0,4.6,0.6,6,1.7c1.4,1.1,2.1,2.8,2.1,4.9c0,2.1-0.7,3.8-2.1,4.9c-1.4,1.2-3.4,1.7-6,1.7h-3.5v7.1h-5.2
		V-10.2z M-3.1-6.4v5.7h2.9c1,0,1.8-0.2,2.4-0.8C2.7-1.9,3-2.6,3-3.5c0-0.9-0.3-1.6-0.8-2.1C1.6-6.1,0.8-6.4-0.2-6.4L-3.1-6.4z"/>
</symbol>
<symbol  id="o" viewBox="-7.7 -7.9 15.4 15.7">
	<path d="M-7.7,1.5v-9.3h4.9v1.5c0,0.8,0,1.9,0,3.1c0,1.3,0,2.1,0,2.5c0,1.2,0,2.1,0.1,2.7c0.1,0.5,0.2,0.9,0.3,1.2
		c0.2,0.3,0.5,0.6,0.8,0.8c0.3,0.2,0.7,0.2,1.1,0.2c1,0,1.8-0.4,2.4-1.2c0.6-0.8,0.9-1.9,0.9-3.3v-7.6h4.9V7.5H2.8V5.2
		c-0.7,0.9-1.5,1.6-2.3,2c-0.8,0.4-1.7,0.6-2.7,0.6c-1.8,0-3.1-0.5-4-1.6C-7.2,5.1-7.7,3.6-7.7,1.5L-7.7,1.5z"/>
</symbol>
<symbol  id="p" viewBox="-9.1 -10.2 18.3 20.4">
	<path d="M-9.1-10.2h5.9l7.4,14v-14h5v20.4H3.3l-7.4-14v14h-5V-10.2z"/>
</symbol>
<symbol  id="q" viewBox="-7.7 -10.6 15.4 21.3">
	<path d="M7.7,1.3v9.3H2.8V3.5c0-1.3,0-2.3-0.1-2.8S2.5-0.1,2.4-0.3C2.2-0.7,1.9-0.9,1.6-1.1C1.3-1.3,0.9-1.3,0.5-1.3
		c-1,0-1.8,0.4-2.4,1.2c-0.6,0.8-0.9,1.9-0.9,3.3v7.5h-4.9v-21.3h4.9v8.2c0.7-0.9,1.5-1.5,2.3-2C0.4-4.8,1.3-5,2.3-5
		c1.8,0,3.1,0.5,4,1.6C7.2-2.3,7.7-0.8,7.7,1.3L7.7,1.3z"/>
</symbol>
<symbol  id="r" viewBox="-5.9 -10.6 11.9 21.3">
	<path d="M5.9-10.6v3.2H3.2C2.6-7.4,2.1-7.3,1.8-7C1.5-6.8,1.4-6.4,1.4-5.7v1.1h4.2v3.5H1.4v11.8h-4.9V-1.2h-2.4v-3.5h2.4v-1.1
		c0-1.7,0.5-2.9,1.4-3.7c0.9-0.8,2.4-1.2,4.3-1.2L5.9-10.6z"/>
</symbol>
<symbol  id="s" viewBox="-8.4 -10.6 16.8 21.3">
	<path d="M-8.4-10.6h4.9V1l5.6-5.6h5.7l-7.5,7l8.1,8.3H2.5l-6-6.4v6.4h-4.9L-8.4-10.6z"/>
</symbol>
<symbol  id="t" viewBox="-8.7 -10.6 17.4 21.2">
	<path d="M8.7,9.1c-1,0.5-2,0.9-3,1.1c-1,0.3-2.1,0.4-3.3,0.4c-3.4,0-6.1-0.9-8.1-2.8c-2-1.9-3-4.5-3-7.7c0-3.3,1-5.8,3-7.7
		c2-1.9,4.7-2.9,8.1-2.9c1.1,0,2.2,0.1,3.3,0.4c1.1,0.2,2.1,0.6,3,1.1v4.2C7.7-5.5,6.7-6,5.8-6.3c-0.9-0.3-1.9-0.5-3-0.5
		C0.9-6.8-0.6-6.2-1.6-5c-1.1,1.2-1.6,2.9-1.6,5c0,2.1,0.5,3.8,1.6,5c1.1,1.2,2.5,1.8,4.4,1.8c1.1,0,2.1-0.1,3-0.5
		C6.7,6,7.7,5.5,8.7,4.9V9.1z"/>
</symbol>
<g>
	<path d="M114,80v317.5h226.2v-149H432V80L114,80z M133,379V248.5h188.2V379H133z M321.2,229.5H254v-56h159v56H321.2z M413,99v56
		H254.5V99H413z M235.5,173.5v56H133V99h102.5V173.5z"/>
	
		<use xlink:href="#t"  width="17.4" height="21.2" x="-8.7" y="-10.6" transform="matrix(1 0 0 1 3.0786 592.8046)" style="overflow:visible;"/>
	
		<use xlink:href="#d"  width="11.4" height="15.7" x="-5.7" y="-7.8" transform="matrix(1 0 0 1 21.5973 595.1561)" style="overflow:visible;"/>
	
		<use xlink:href="#a"  width="16.4" height="16.1" x="-8.2" y="-8" transform="matrix(1 0 0 1 36.7816 595.3516)" style="overflow:visible;"/>
	
		<use xlink:href="#l"  width="15.5" height="16.1" x="-7.7" y="-8" transform="matrix(1 0 0 1 55.293 595.3515)" style="overflow:visible;"/>
	
		<use xlink:href="#c"  width="12.4" height="19.7" x="-6.2" y="-9.8" transform="matrix(1 0 0 1 71.8047 593.1721)" style="overflow:visible;"/>
	<g>
		<defs>
			<rect id="SVGID_1_" x="78.6" y="603" width="700" height="700"/>
		</defs>
		<clipPath id="SVGID_00000065056687133481752550000010071959264722108852_">
			<use xlink:href="#SVGID_1_"  style="overflow:visible;"/>
		</clipPath>
		<g style="clip-path:url(#SVGID_00000065056687133481752550000010071959264722108852_);">
			
				<use xlink:href="#a"  width="16.4" height="16.1" x="-8.2" y="-8" transform="matrix(1 0 0 1 88.0511 595.3516)" style="overflow:visible;"/>
		</g>
	</g>
	
		<use xlink:href="#k"  width="16.4" height="21.7" x="-8.2" y="-10.8" transform="matrix(1 0 0 1 107.0941 592.5547)" style="overflow:visible;"/>
	
		<use xlink:href="#j"  width="16.4" height="21.7" x="-8.2" y="-10.8" transform="matrix(1 0 0 1 137.9805 592.5548)" style="overflow:visible;"/>
	
		<use xlink:href="#i"  width="17.4" height="21.4" x="-8.7" y="-10.7" transform="matrix(1 0 0 1 156.5 598.3679)" style="overflow:visible;"/>
	
		<use xlink:href="#e"  width="24.6" height="15.7" x="-12.3" y="-7.8" transform="matrix(1 0 0 1 190.1016 595.1558)" style="overflow:visible;"/>
	
		<use xlink:href="#h"  width="4.9" height="21.3" x="-2.4" y="-10.6" transform="matrix(1 0 0 1 209.4297 592.3596)" style="overflow:visible;"/>
	
		<use xlink:href="#s"  width="16.8" height="21.3" x="-8.4" y="-10.6" transform="matrix(1 0 0 1 224.9843 592.3597)" style="overflow:visible;"/>
	<g>
		<defs>
			<rect id="SVGID_00000055682128025703490970000002846679822339757219_" x="232.8" y="603" width="700" height="700"/>
		</defs>
		<clipPath id="SVGID_00000133501995396610604170000014174360130088172221_">
			<use xlink:href="#SVGID_00000055682128025703490970000002846679822339757219_"  style="overflow:visible;"/>
		</clipPath>
		<g style="clip-path:url(#SVGID_00000133501995396610604170000014174360130088172221_);">
			
				<use xlink:href="#h"  width="4.9" height="21.3" x="-2.4" y="-10.6" transform="matrix(1 0 0 1 237.6485 592.3596)" style="overflow:visible;"/>
		</g>
	</g>
	
		<use xlink:href="#g"  width="13.5" height="16.1" x="-6.8" y="-8" transform="matrix(1 0 0 1 250.4065 595.3519)" style="overflow:visible;"/>
	
		<use xlink:href="#b"  width="16.8" height="16.1" x="-8.4" y="-8" transform="matrix(1 0 0 1 268.6562 595.351)" style="overflow:visible;"/>
	
		<use xlink:href="#f"  width="15.4" height="15.7" x="-7.7" y="-7.8" transform="matrix(1 0 0 1 288.332 595.1564)" style="overflow:visible;"/>
	
		<use xlink:href="#r"  width="11.9" height="21.3" x="-5.9" y="-10.6" transform="matrix(1 0 0 1 -0.5233 620.3594)" style="overflow:visible;"/>
	<g>
		<defs>
			<rect id="SVGID_00000116926778790744083360000007329764947203676819_" x="5.2" y="631" width="700" height="700"/>
		</defs>
		<clipPath id="SVGID_00000024685690002500500620000013955505620314785969_">
			<use xlink:href="#SVGID_00000116926778790744083360000007329764947203676819_"  style="overflow:visible;"/>
		</clipPath>
		<g style="clip-path:url(#SVGID_00000024685690002500500620000013955505620314785969_);">
			
				<use xlink:href="#d"  width="11.4" height="15.7" x="-5.7" y="-7.8" transform="matrix(1 0 0 1 13.2301 623.1561)" style="overflow:visible;"/>
		</g>
	</g>
	<g>
		<defs>
			<rect id="SVGID_00000125577359222387877120000006117263540591502213_" x="19" y="631" width="700" height="700"/>
		</defs>
		<clipPath id="SVGID_00000066509147710677490010000001462932849073907382_">
			<use xlink:href="#SVGID_00000125577359222387877120000006117263540591502213_"  style="overflow:visible;"/>
		</clipPath>
		<g style="clip-path:url(#SVGID_00000066509147710677490010000001462932849073907382_);">
			
				<use xlink:href="#b"  width="16.8" height="16.1" x="-8.4" y="-8" transform="matrix(1 0 0 1 28.6094 623.351)" style="overflow:visible;"/>
		</g>
	</g>
	<g>
		<defs>
			<rect id="SVGID_00000034806414482649792980000008383241845721845916_" x="38.2" y="631" width="700" height="700"/>
		</defs>
		<clipPath id="SVGID_00000080896713367512378360000005481109110015458471_">
			<use xlink:href="#SVGID_00000034806414482649792980000008383241845721845916_"  style="overflow:visible;"/>
		</clipPath>
		<g style="clip-path:url(#SVGID_00000080896713367512378360000005481109110015458471_);">
			
				<use xlink:href="#e"  width="24.6" height="15.7" x="-12.3" y="-7.8" transform="matrix(1 0 0 1 52.875 623.1558)" style="overflow:visible;"/>
		</g>
	</g>
	<g>
		<defs>
			<rect id="SVGID_00000150099669737358849250000004768068496156066987_" x="77.2" y="631" width="700" height="700"/>
		</defs>
		<clipPath id="SVGID_00000052789565391371757350000011089398226902557061_">
			<use xlink:href="#SVGID_00000150099669737358849250000004768068496156066987_"  style="overflow:visible;"/>
		</clipPath>
		<g style="clip-path:url(#SVGID_00000052789565391371757350000011089398226902557061_);">
			
				<use xlink:href="#c"  width="12.4" height="19.7" x="-6.2" y="-9.8" transform="matrix(1 0 0 1 83.7148 621.1721)" style="overflow:visible;"/>
		</g>
	</g>
	
		<use xlink:href="#q"  width="15.4" height="21.3" x="-7.7" y="-10.6" transform="matrix(1 0 0 1 100.5899 620.3594)" style="overflow:visible;"/>
	<g>
		<defs>
			<rect id="SVGID_00000126299995916650913360000007664277415839426962_" x="110.5" y="631" width="700" height="700"/>
		</defs>
		<clipPath id="SVGID_00000102522123772809789710000006034873240905224598_">
			<use xlink:href="#SVGID_00000126299995916650913360000007664277415839426962_"  style="overflow:visible;"/>
		</clipPath>
		<g style="clip-path:url(#SVGID_00000102522123772809789710000006034873240905224598_);">
			
				<use xlink:href="#a"  width="16.4" height="16.1" x="-8.2" y="-8" transform="matrix(1 0 0 1 119.891 623.3516)" style="overflow:visible;"/>
		</g>
	</g>
	
		<use xlink:href="#p"  width="18.3" height="20.4" x="-9.1" y="-10.2" transform="matrix(1 0 0 1 150.9258 620.797)" style="overflow:visible;"/>
	<g>
		<defs>
			<rect id="SVGID_00000013909174714786499140000008340471022323436936_" x="162.6" y="631" width="700" height="700"/>
		</defs>
		<clipPath id="SVGID_00000097484604096276067810000015611450512183759039_">
			<use xlink:href="#SVGID_00000013909174714786499140000008340471022323436936_"  style="overflow:visible;"/>
		</clipPath>
		<g style="clip-path:url(#SVGID_00000097484604096276067810000015611450512183759039_);">
			
				<use xlink:href="#b"  width="16.8" height="16.1" x="-8.4" y="-8" transform="matrix(1 0 0 1 172.2578 623.351)" style="overflow:visible;"/>
		</g>
	</g>
	
		<use xlink:href="#o"  width="15.4" height="15.7" x="-7.7" y="-7.9" transform="matrix(1 0 0 1 191.7617 623.5387)" style="overflow:visible;"/>
	<g>
		<defs>
			<rect id="SVGID_00000096772687416306090970000009830481292573589687_" x="201.8" y="631" width="700" height="700"/>
		</defs>
		<clipPath id="SVGID_00000140737087834167704390000015673261043992421822_">
			<use xlink:href="#SVGID_00000096772687416306090970000009830481292573589687_"  style="overflow:visible;"/>
		</clipPath>
		<g style="clip-path:url(#SVGID_00000140737087834167704390000015673261043992421822_);">
			
				<use xlink:href="#f"  width="15.4" height="15.7" x="-7.7" y="-7.8" transform="matrix(1 0 0 1 211.8672 623.1564)" style="overflow:visible;"/>
		</g>
	</g>
	
		<use xlink:href="#n"  width="16.8" height="20.4" x="-8.4" y="-10.2" transform="matrix(1 0 0 1 242.4688 620.7971)" style="overflow:visible;"/>
	<g>
		<defs>
			<rect id="SVGID_00000047745406086543255930000005215233805346284195_" x="252" y="631" width="700" height="700"/>
		</defs>
		<clipPath id="SVGID_00000091706440681732934520000006222829347534280838_">
			<use xlink:href="#SVGID_00000047745406086543255930000005215233805346284195_"  style="overflow:visible;"/>
		</clipPath>
		<g style="clip-path:url(#SVGID_00000091706440681732934520000006222829347534280838_);">
			
				<use xlink:href="#d"  width="11.4" height="15.7" x="-5.7" y="-7.8" transform="matrix(1 0 0 1 260.0622 623.1561)" style="overflow:visible;"/>
		</g>
	</g>
	<g>
		<defs>
			<rect id="SVGID_00000056421258792347471150000016142742129810552475_" x="265.8" y="631" width="700" height="700"/>
		</defs>
		<clipPath id="SVGID_00000150076673016877315740000000055843021722681009_">
			<use xlink:href="#SVGID_00000056421258792347471150000016142742129810552475_"  style="overflow:visible;"/>
		</clipPath>
		<g style="clip-path:url(#SVGID_00000150076673016877315740000000055843021722681009_);">
			
				<use xlink:href="#b"  width="16.8" height="16.1" x="-8.4" y="-8" transform="matrix(1 0 0 1 275.4375 623.351)" style="overflow:visible;"/>
		</g>
	</g>
	
		<use xlink:href="#m"  width="8.2" height="27.3" x="-4.1" y="-13.7" transform="matrix(1 0 0 1 288.2148 623.3832)" style="overflow:visible;"/>
	<g>
		<defs>
			<rect id="SVGID_00000003085741168997388500000003086636483397759894_" x="294.7" y="631" width="700" height="700"/>
		</defs>
		<clipPath id="SVGID_00000081644731165872525350000018176797085289779102_">
			<use xlink:href="#SVGID_00000003085741168997388500000003086636483397759894_"  style="overflow:visible;"/>
		</clipPath>
		<g style="clip-path:url(#SVGID_00000081644731165872525350000018176797085289779102_);">
			
				<use xlink:href="#a"  width="16.4" height="16.1" x="-8.2" y="-8" transform="matrix(1 0 0 1 304.0785 623.3516)" style="overflow:visible;"/>
		</g>
	</g>
	<g>
		<defs>
			<rect id="SVGID_00000103950696749213337970000017893329571118708642_" x="313.6" y="631" width="700" height="700"/>
		</defs>
		<clipPath id="SVGID_00000174585816755075036410000016883457527608945327_">
			<use xlink:href="#SVGID_00000103950696749213337970000017893329571118708642_"  style="overflow:visible;"/>
		</clipPath>
		<g style="clip-path:url(#SVGID_00000174585816755075036410000016883457527608945327_);">
			
				<use xlink:href="#g"  width="13.5" height="16.1" x="-6.8" y="-8" transform="matrix(1 0 0 1 321.6096 623.3519)" style="overflow:visible;"/>
		</g>
	</g>
	<g>
		<defs>
			<rect id="SVGID_00000121985084033507314410000004621281958581496726_" x="330.2" y="631" width="700" height="700"/>
		</defs>
		<clipPath id="SVGID_00000098194499350804256390000004370582356000604331_">
			<use xlink:href="#SVGID_00000121985084033507314410000004621281958581496726_"  style="overflow:visible;"/>
		</clipPath>
		<g style="clip-path:url(#SVGID_00000098194499350804256390000004370582356000604331_);">
			
				<use xlink:href="#c"  width="12.4" height="19.7" x="-6.2" y="-9.8" transform="matrix(1 0 0 1 336.8047 621.1721)" style="overflow:visible;"/>
		</g>
	</g>
</g>
</svg>
