<?xml version="1.0" encoding="utf-8"?>
<!-- Generator: Adobe Illustrator 26.5.0, SVG Export Plug-In . SVG Version: 6.00 Build 0)  -->
<svg version="1.1" id="Layer_1" xmlns="http://www.w3.org/2000/svg" xmlns:xlink="http://www.w3.org/1999/xlink" x="0px" y="0px"
	 viewBox="0 0 355.7 333" style="enable-background:new 0 0 355.7 333;" xml:space="preserve">
<style type="text/css">
	.st0{clip-path:url(#SVGID_00000095314232528148233350000010874423232639353492_);}
	.st1{clip-path:url(#SVGID_00000016057270047292071030000016305648434000305285_);}
	.st2{clip-path:url(#SVGID_00000097478463027076637430000015375500833393013951_);}
	.st3{clip-path:url(#SVGID_00000145046448833075556820000003705314887848359085_);}
	.st4{clip-path:url(#SVGID_00000004503685854134690480000017482832550914025636_);}
	.st5{clip-path:url(#SVGID_00000054983101469897270970000010477090304785967545_);}
	.st6{clip-path:url(#SVGID_00000181791780947180778890000000826311108823659429_);}
	.st7{clip-path:url(#SVGID_00000087398879255381512180000017202792998602108091_);}
	.st8{clip-path:url(#SVGID_00000168111597227925505590000000988505835143852198_);}
	.st9{clip-path:url(#SVGID_00000059301296708345764960000014954767388571685279_);}
	.st10{clip-path:url(#SVGID_00000031904986001599949660000014695350067235808393_);}
	.st11{clip-path:url(#SVGID_00000171713690651283680000000016099719461409951397_);}
	.st12{clip-path:url(#SVGID_00000108998116388763835720000013633335426238701729_);}
	.st13{clip-path:url(#SVGID_00000052785553332573497450000000192973127073089952_);}
</style>
<symbol  id="a" viewBox="-8.2 -8 16.4 16">
	<path d="M8.2-0.1v1.4H-3.2c0.1,1.1,0.5,2,1.2,2.6s1.7,0.9,3,0.9c1,0,2.1-0.1,3.2-0.5c1-0.3,2.1-0.7,3.3-1.4v3.8
		C6.3,7.1,5.2,7.5,4,7.7C2.9,7.9,1.7,8,0.5,8C-2.3,8-4.4,7.3-6,5.9C-7.5,4.5-8.2,2.6-8.2,0c0-2.5,0.8-4.5,2.3-5.9S-2.4-8,0.3-8
		C2.7-8,4.6-7.3,6-5.9C7.5-4.4,8.2-2.5,8.2-0.1L8.2-0.1z M3.2-1.7c0-0.9-0.3-1.7-0.8-2.2C1.8-4.5,1.1-4.8,0.3-4.8
		C-0.6-4.8-1.4-4.5-2-4s-1,1.3-1.1,2.3H3.2z"/>
</symbol>
<symbol  id="b" viewBox="-8.4 -8 16.8 16">
	<path d="M0-4.5c-1.1,0-1.9,0.4-2.5,1.2C-3-2.6-3.3-1.5-3.3,0S-3,2.6-2.5,3.4C-1.9,4.2-1.1,4.5,0,4.5s1.9-0.4,2.4-1.2
		C3,2.6,3.3,1.5,3.3,0S3-2.6,2.5-3.4C1.9-4.1,1.1-4.5,0-4.5z M0-8c2.6,0,4.7,0.7,6.2,2.1S8.4-2.5,8.4,0S7.7,4.5,6.2,5.9S2.7,8,0,8
		c-2.6,0-4.7-0.7-6.2-2.1S-8.4,2.5-8.4,0s0.7-4.5,2.2-5.9S-2.6-8,0-8z"/>
</symbol>
<symbol  id="c" viewBox="-6.1 -9.8 12.2 19.6">
	<path d="M1.1-9.8v4.3h5V-2h-5v6.5c0,0.7,0.1,1.2,0.4,1.4s0.8,0.4,1.7,0.4h2.5v3.5H1.6c-1.9,0-3.3-0.4-4.1-1.2s-1.2-2.2-1.2-4.1V-2
		h-2.4v-3.5h2.4v-4.3H1.1z"/>
</symbol>
<symbol  id="d" viewBox="-5.7 -7.9 11.4 15.8">
	<path d="M5.7-3.3C5.2-3.5,4.8-3.6,4.4-3.7C4-3.8,3.6-3.9,3.1-3.9c-1.3,0-2.2,0.4-2.9,1.2s-1,2-1,3.5v7.1h-4.9V-7.5h4.9V-5
		c0.6-1,1.3-1.7,2.2-2.2c0.8-0.5,1.8-0.7,2.9-0.7c0.2,0,0.3,0,0.5,0s0.5,0,0.8,0.1L5.7-3.3z"/>
</symbol>
<symbol  id="e" viewBox="-12.3 -7.9 24.6 15.8">
	<path d="M1.9-4.8C2.5-5.7,3.2-6.5,4.1-7s1.8-0.7,2.8-0.7c1.8,0,3.1,0.5,4,1.6s1.4,2.7,1.4,4.7v9.3H7.4v-8v-0.4c0-0.1,0-0.3,0-0.6
		c0-1.1-0.2-1.9-0.5-2.3S6.1-4,5.4-4C4.5-4,3.8-3.7,3.2-2.9C2.7-2.1,2.5-1,2.5,0.4v7.5h-4.9v-8c0-1.7-0.1-2.8-0.4-3.3
		s-0.8-0.7-1.6-0.7c-0.9,0-1.7,0.4-2.2,1.2S-7.4-1-7.4,0.4v7.5h-4.9V-7.4h4.9v2.2c0.6-0.9,1.3-1.5,2.1-2c0.8-0.4,1.6-0.7,2.6-0.7
		c1.1,0,2,0.3,2.8,0.8C0.9-6.5,1.5-5.7,1.9-4.8L1.9-4.8z"/>
</symbol>
<symbol  id="f" viewBox="-7.7 -7.9 15.4 15.8">
	<path d="M7.7-1.5v9.3H2.8V0.7c0-1.3,0-2.2-0.1-2.7S2.5-2.9,2.4-3.1C2.2-3.5,1.9-3.7,1.6-3.9C1.3-4.1,0.9-4.1,0.5-4.1
		c-1,0-1.8,0.4-2.4,1.2S-2.8-1-2.8,0.4v7.5h-4.9V-7.5h4.9v2.2c0.7-0.9,1.5-1.5,2.3-2c0.8-0.4,1.8-0.6,2.8-0.6c1.8,0,3.1,0.5,4,1.6
		C7.2-5.1,7.7-3.5,7.7-1.5L7.7-1.5z"/>
</symbol>
<symbol  id="g" viewBox="-6.8 -8 13.6 16">
	<path d="M6.8-7.2v4c-0.7-0.5-1.3-0.8-2-1C4.1-4.4,3.4-4.5,2.7-4.5c-1.4,0-2.4,0.4-3.2,1.2S-1.7-1.4-1.7,0s0.4,2.5,1.1,3.3
		c0.8,0.8,1.8,1.2,3.2,1.2c0.8,0,1.5-0.1,2.2-0.3c0.7-0.2,1.3-0.6,1.9-1v4C6,7.5,5.2,7.7,4.4,7.8C3.6,8,2.9,8,2.1,8
		c-2.8,0-4.9-0.7-6.5-2.1S-6.8,2.5-6.8,0S-6-4.5-4.5-5.9C-2.9-7.3-0.7-8,2.1-8c0.8,0,1.5,0,2.3,0.2C5.2-7.7,6-7.5,6.8-7.2L6.8-7.2z"
		/>
</symbol>
<symbol  id="h" viewBox="-2.5 -10.6 4.9 21.2">
	<path d="M-2.5-4.7h4.9v15.3h-4.9V-4.7z M-2.5-10.6h4.9v4h-4.9V-10.6z"/>
</symbol>
<symbol  id="i" viewBox="-8.7 -10.6 17.4 21.3">
	<path d="M-8.7-10.6h4.9L0.3-0.3l3.5-10.4h4.9L2.3,6.1C1.6,7.8,0.9,9,0,9.6c-0.9,0.7-2,1-3.4,1h-2.8V7.5h1.5c0.8,0,1.4-0.1,1.8-0.4
		C-2.5,6.8-2.2,6.3-2,5.6l0.1-0.4L-8.7-10.6z"/>
</symbol>
<symbol  id="j" viewBox="-8.2 -10.9 16.4 21.7">
	<path d="M-0.1,7.3c1.1,0,1.9-0.4,2.4-1.1C2.9,5.4,3.1,4.3,3.1,3c0-1.5-0.3-2.6-0.8-3.3C1.8-1.3,1-1.7-0.1-1.7S-2-1.3-2.5-0.5
		C-3,0.2-3.3,1.4-3.3,2.8S-3,5.4-2.5,6.1C-1.9,6.9-1.1,7.3-0.1,7.3L-0.1,7.3z M-3.3-2.6c0.7-0.9,1.4-1.5,2.2-2
		C-0.3-5,0.7-5.2,1.7-5.2c1.9,0,3.4,0.8,4.7,2.2c1.2,1.5,1.8,3.4,1.8,5.8S7.6,7.2,6.4,8.6s-2.8,2.2-4.7,2.2c-1.1,0-2-0.2-2.8-0.6
		s-1.6-1.1-2.2-2v2.2h-4.9v-21.3h4.9C-3.3-10.9-3.3-2.6-3.3-2.6z"/>
</symbol>
<symbol  id="k" viewBox="-8.1 -10.8 16.3 21.6">
	<path d="M3.3-2.6v-8.2h4.9v21.3H3.3V8.2c-0.7,0.9-1.4,1.6-2.2,2s-1.8,0.6-2.8,0.6c-1.9,0-3.4-0.8-4.6-2.2c-1.2-1.5-1.8-3.4-1.8-5.8
		S-7.6-1.5-6.3-3s2.8-2.2,4.6-2.2c1.1,0,2,0.2,2.8,0.6S2.6-3.5,3.3-2.6L3.3-2.6z M0.1,7.3c1,0,1.8-0.4,2.4-1.1
		C3,5.4,3.3,4.3,3.3,2.8S3,0.2,2.5-0.5C1.9-1.3,1.1-1.7,0.1-1.7s-1.8,0.4-2.4,1.2s-0.8,1.9-0.8,3.3c0,1.5,0.3,2.6,0.8,3.3
		C-1.8,6.9-1,7.3,0.1,7.3z"/>
</symbol>
<symbol  id="l" viewBox="-7.8 -8 15.5 16">
	<path d="M0.4,0.8c-1,0-1.8,0.2-2.3,0.5s-0.8,0.9-0.8,1.5s0.2,1.1,0.6,1.5c0.4,0.3,1,0.5,1.7,0.5c0.9,0,1.7-0.3,2.3-1s1-1.5,1-2.5
		V0.8H0.4z M7.8-1.1v8.7H2.9V5.4C2.3,6.3,1.5,7,0.7,7.4S-1.1,8-2.3,8c-1.6,0-2.9-0.4-3.9-1.3s-1.5-2.1-1.5-3.6
		c0-1.8,0.6-3.1,1.8-3.9s3.2-1.3,5.8-1.3h2.9v-0.4c0-0.8-0.3-1.3-0.9-1.7C1.4-4.6,0.4-4.8-0.9-4.8c-1.1,0-2,0.1-2.9,0.3
		C-4.8-4.3-5.6-4-6.3-3.6v-3.7c1-0.2,2.1-0.4,3.1-0.6C-2.1-8-1-8,0-8c2.8,0,4.8,0.5,6,1.6S7.8-3.5,7.8-1.1L7.8-1.1z"/>
</symbol>
<symbol  id="m" viewBox="-4.1 -13.6 8.2 27.3">
	<path d="M-0.8-7.7h4.9v15c0,2.1-0.5,3.6-1.5,4.7s-2.4,1.6-4.3,1.6h-2.4v-3.2h0.9c0.9,0,1.6-0.2,1.9-0.6C-1,9.4-0.8,8.6-0.8,7.3
		V-7.7z M-0.8-13.6h4.9v4h-4.9L-0.8-13.6z"/>
</symbol>
<symbol  id="n" viewBox="-8.4 -10.1 16.8 20.3">
	<path d="M-8.4-10.1h8.7c2.6,0,4.6,0.6,6,1.7c1.4,1.1,2.1,2.8,2.1,4.9S7.7,0.2,6.3,1.3C4.9,2.5,2.9,3,0.3,3h-3.5v7.1h-5.2V-10.1z
		 M-3.1-6.4v5.7h2.9c1,0,1.8-0.2,2.4-0.8C2.7-1.9,3-2.6,3-3.5S2.7-5.1,2.2-5.6C1.6-6.1,0.8-6.4-0.2-6.4H-3.1z"/>
</symbol>
<symbol  id="o" viewBox="-7.7 -7.8 15.4 15.7">
	<path d="M-7.7,1.6v-9.3h4.9v1.5c0,0.8,0,1.9,0,3.1c0,1.3,0,2.1,0,2.5c0,1.2,0,2.1,0.1,2.7c0.1,0.5,0.2,0.9,0.3,1.2
		c0.2,0.3,0.5,0.6,0.8,0.8c0.3,0.2,0.7,0.2,1.1,0.2c1,0,1.8-0.4,2.4-1.2s0.9-1.9,0.9-3.3v-7.6h4.9V7.6H2.8V5.2
		c-0.7,0.9-1.5,1.6-2.3,2s-1.7,0.6-2.7,0.6c-1.8,0-3.1-0.5-4-1.6C-7.2,5.2-7.7,3.7-7.7,1.6L-7.7,1.6z"/>
</symbol>
<symbol  id="p" viewBox="-9.1 -10.2 18.3 20.4">
	<path d="M-9.1-10.2h5.9l7.4,14v-14h5v20.4H3.3l-7.4-14v14h-5V-10.2z"/>
</symbol>
<symbol  id="q" viewBox="-7.7 -10.6 15.4 21.3">
	<path d="M7.7,1.2v9.3H2.8V3.4c0-1.3,0-2.3-0.1-2.8s-0.2-0.8-0.3-1C2.2-0.8,1.9-1,1.6-1.2S0.9-1.4,0.5-1.4c-1,0-1.8,0.4-2.4,1.2
		s-0.9,1.9-0.9,3.3v7.5h-4.9v-21.3h4.9v8.2c0.7-0.9,1.5-1.5,2.3-2c0.9-0.4,1.8-0.6,2.8-0.6c1.8,0,3.1,0.5,4,1.6
		C7.2-2.4,7.7-0.9,7.7,1.2L7.7,1.2z"/>
</symbol>
<symbol  id="r" viewBox="-5.9 -10.7 11.8 21.4">
	<path d="M5.9-10.6v3.2H3.2C2.6-7.4,2.1-7.3,1.8-7C1.5-6.8,1.4-6.4,1.4-5.7v1.1h4.2v3.5H1.4v11.8h-4.9V-1.2h-2.4v-3.5h2.4v-1.1
		c0-1.7,0.5-2.9,1.4-3.7c0.9-0.8,2.4-1.2,4.3-1.2L5.9-10.6z"/>
</symbol>
<symbol  id="s" viewBox="-8.4 -10.7 16.8 21.3">
	<path d="M-8.4-10.7h4.9V0.9l5.6-5.6h5.7l-7.5,7l8.1,8.3H2.5l-6-6.4v6.4h-4.9V-10.7z"/>
</symbol>
<symbol  id="t" viewBox="-8.7 -10.6 17.4 21.1">
	<path d="M8.7,9.1c-1,0.5-2,0.9-3,1.1c-1,0.3-2.1,0.4-3.3,0.4c-3.4,0-6.1-0.9-8.1-2.8s-3-4.5-3-7.7c0-3.3,1-5.8,3-7.7
		s4.7-2.9,8.1-2.9c1.1,0,2.2,0.1,3.3,0.4c1.1,0.2,2.1,0.6,3,1.1v4.2c-1-0.7-2-1.2-2.9-1.5s-1.9-0.5-3-0.5c-1.9,0-3.4,0.6-4.4,1.8
		c-1.1,1.2-1.6,2.9-1.6,5s0.5,3.8,1.6,5s2.5,1.8,4.4,1.8c1.1,0,2.1-0.1,3-0.5c0.9-0.3,1.9-0.8,2.9-1.4V9.1z"/>
</symbol>
<g>
	<path d="M16.7,5v317.5h226.2v-149h91.8V5H16.7z M35.7,304V173.5h188.2V304H35.7z M223.9,154.5h-67.2v-56h159v56H223.9z M315.7,24
		v56H157.2V24H315.7z M138.2,98.5v56H35.7V24h102.5V98.5z"/>
	<g>
		<defs>
			<rect id="SVGID_1_" x="-103" y="507.2" width="17.4" height="21.2"/>
		</defs>
		<clipPath id="SVGID_00000163034062126479122000000008310582590488887699_">
			<use xlink:href="#SVGID_1_"  style="overflow:visible;"/>
		</clipPath>
		<g style="clip-path:url(#SVGID_00000163034062126479122000000008310582590488887699_);">
			
				<use xlink:href="#t"  width="17.4" height="21.1" x="-8.7" y="-10.6" transform="matrix(1 0 0 1 -94.2637 517.8546)" style="overflow:visible;"/>
		</g>
	</g>
	<g>
		<defs>
			<rect id="SVGID_00000065770577531545618010000004919182075448668836_" x="-81.4" y="512.4" width="11.4" height="15.7"/>
		</defs>
		<clipPath id="SVGID_00000141439213207034313770000000974766684183602050_">
			<use xlink:href="#SVGID_00000065770577531545618010000004919182075448668836_"  style="overflow:visible;"/>
		</clipPath>
		<g style="clip-path:url(#SVGID_00000141439213207034313770000000974766684183602050_);">
			
				<use xlink:href="#d"  width="11.4" height="15.8" x="-5.7" y="-7.9" transform="matrix(1 0 0 1 -75.745 520.1561)" style="overflow:visible;"/>
		</g>
	</g>
	<g>
		<defs>
			<rect id="SVGID_00000150099238411108661030000002917867264289576857_" x="-68.8" y="512.4" width="16.4" height="16.1"/>
		</defs>
		<clipPath id="SVGID_00000026137607559480235110000018221015395379609754_">
			<use xlink:href="#SVGID_00000150099238411108661030000002917867264289576857_"  style="overflow:visible;"/>
		</clipPath>
		<g style="clip-path:url(#SVGID_00000026137607559480235110000018221015395379609754_);">
			
				<use xlink:href="#a"  width="16.4" height="16" x="-8.2" y="-8" transform="matrix(1 0 0 1 -60.5607 520.3516)" style="overflow:visible;"/>
		</g>
	</g>
	<g>
		<defs>
			<rect id="SVGID_00000142892490854351203430000000993328443806922665_" x="-49.7" y="512.4" width="15.5" height="16.1"/>
		</defs>
		<clipPath id="SVGID_00000089549487849346889940000011071973253818236335_">
			<use xlink:href="#SVGID_00000142892490854351203430000000993328443806922665_"  style="overflow:visible;"/>
		</clipPath>
		<g style="clip-path:url(#SVGID_00000089549487849346889940000011071973253818236335_);">
			
				<use xlink:href="#l"  width="15.5" height="16" x="-7.8" y="-8" transform="matrix(1 0 0 1 -42.0993 520.3515)" style="overflow:visible;"/>
		</g>
	</g>
	<g>
		<defs>
			<rect id="SVGID_00000049216073203342436810000008327640241117529764_" x="-31.7" y="508.4" width="12.4" height="19.7"/>
		</defs>
		<clipPath id="SVGID_00000045603087426255952900000008711314799365127556_">
			<use xlink:href="#SVGID_00000049216073203342436810000008327640241117529764_"  style="overflow:visible;"/>
		</clipPath>
		<g style="clip-path:url(#SVGID_00000045603087426255952900000008711314799365127556_);">
			
				<use xlink:href="#c"  width="12.2" height="19.6" x="-6.1" y="-9.8" transform="matrix(1 0 0 1 -25.5376 518.1721)" style="overflow:visible;"/>
		</g>
	</g>
	<g>
		<g>
			<defs>
				<rect id="SVGID_00000110445545044091259270000004899289415021573529_" x="-18.7" y="528" width="700" height="700"/>
			</defs>
			<clipPath id="SVGID_00000116926390276917835310000008592268879098416555_">
				<use xlink:href="#SVGID_00000110445545044091259270000004899289415021573529_"  style="overflow:visible;"/>
			</clipPath>
			<g style="clip-path:url(#SVGID_00000116926390276917835310000008592268879098416555_);">
				<g>
					<defs>
						<rect id="SVGID_00000060722854051409613450000004125322178200183719_" x="-17.5" y="512.4" width="16.4" height="16.1"/>
					</defs>
					<clipPath id="SVGID_00000114788246426872248200000013507267229212165003_">
						<use xlink:href="#SVGID_00000060722854051409613450000004125322178200183719_"  style="overflow:visible;"/>
					</clipPath>
					<g style="clip-path:url(#SVGID_00000114788246426872248200000013507267229212165003_);">
						
							<use xlink:href="#a"  width="16.4" height="16" x="-8.2" y="-8" transform="matrix(1 0 0 1 -9.2912 520.3516)" style="overflow:visible;"/>
					</g>
				</g>
			</g>
		</g>
	</g>
	<g>
		<defs>
			<rect id="SVGID_00000130606363721229791170000008329533687505104824_" x="1.6" y="506.8" width="16.4" height="21.7"/>
		</defs>
		<clipPath id="SVGID_00000039127243040873200760000007331223916864279939_">
			<use xlink:href="#SVGID_00000130606363721229791170000008329533687505104824_"  style="overflow:visible;"/>
		</clipPath>
		<g style="clip-path:url(#SVGID_00000039127243040873200760000007331223916864279939_);">
			
				<use xlink:href="#k"  width="16.3" height="21.6" x="-8.1" y="-10.8" transform="matrix(1 0 0 1 9.8018 517.5547)" style="overflow:visible;"/>
		</g>
	</g>
	<g>
		<defs>
			<rect id="SVGID_00000012450804278899066930000000846287512280155541_" x="32.4" y="506.8" width="16.4" height="21.7"/>
		</defs>
		<clipPath id="SVGID_00000023274736673773261620000011115623440964438701_">
			<use xlink:href="#SVGID_00000012450804278899066930000000846287512280155541_"  style="overflow:visible;"/>
		</clipPath>
		<g style="clip-path:url(#SVGID_00000023274736673773261620000011115623440964438701_);">
			
				<use xlink:href="#j"  width="16.4" height="21.7" x="-8.2" y="-10.9" transform="matrix(1 0 0 1 40.6382 517.5048)" style="overflow:visible;"/>
		</g>
	</g>
	<g>
		<defs>
			<rect id="SVGID_00000105411010029931790470000002701577142419095955_" x="50.5" y="512.7" width="17.4" height="21.4"/>
		</defs>
		<clipPath id="SVGID_00000134941871030768327430000011656247797698773937_">
			<use xlink:href="#SVGID_00000105411010029931790470000002701577142419095955_"  style="overflow:visible;"/>
		</clipPath>
		<g style="clip-path:url(#SVGID_00000134941871030768327430000011656247797698773937_);">
			
				<use xlink:href="#i"  width="17.4" height="21.3" x="-8.7" y="-10.6" transform="matrix(1 0 0 1 59.1577 523.3179)" style="overflow:visible;"/>
		</g>
	</g>
	<g>
		<defs>
			<rect id="SVGID_00000096017512848099337560000001384574890635291047_" x="80.5" y="512.4" width="24.6" height="15.7"/>
		</defs>
		<clipPath id="SVGID_00000062164942397775478580000015951408387683673989_">
			<use xlink:href="#SVGID_00000096017512848099337560000001384574890635291047_"  style="overflow:visible;"/>
		</clipPath>
		<g style="clip-path:url(#SVGID_00000062164942397775478580000015951408387683673989_);">
			
				<use xlink:href="#e"  width="24.6" height="15.8" x="-12.3" y="-7.9" transform="matrix(1 0 0 1 92.7593 520.0558)" style="overflow:visible;"/>
		</g>
	</g>
	<g>
		<defs>
			<rect id="SVGID_00000169536869496354068480000007836999076256980385_" x="109.7" y="506.8" width="4.9" height="21.3"/>
		</defs>
		<clipPath id="SVGID_00000049202786322215802240000011235175274978140567_">
			<use xlink:href="#SVGID_00000169536869496354068480000007836999076256980385_"  style="overflow:visible;"/>
		</clipPath>
		<g style="clip-path:url(#SVGID_00000049202786322215802240000011235175274978140567_);">
			
				<use xlink:href="#h"  width="4.9" height="21.2" x="-2.5" y="-10.6" transform="matrix(1 0 0 1 112.1374 517.3596)" style="overflow:visible;"/>
		</g>
	</g>
	<g>
		<defs>
			<rect id="SVGID_00000007410990314649711520000014387615664021244855_" x="119.2" y="506.8" width="16.8" height="21.3"/>
		</defs>
		<clipPath id="SVGID_00000117662985394375310630000012035073070390676103_">
			<use xlink:href="#SVGID_00000007410990314649711520000014387615664021244855_"  style="overflow:visible;"/>
		</clipPath>
		<g style="clip-path:url(#SVGID_00000117662985394375310630000012035073070390676103_);">
			
				<use xlink:href="#s"  width="16.8" height="21.3" x="-8.4" y="-10.7" transform="matrix(1 0 0 1 127.642 517.4097)" style="overflow:visible;"/>
		</g>
	</g>
	<g>
		<g>
			<defs>
				<rect id="SVGID_00000111873643923479460440000018198283580504210061_" x="135.5" y="528" width="700" height="700"/>
			</defs>
			<clipPath id="SVGID_00000019667072197315409120000009663266673604442526_">
				<use xlink:href="#SVGID_00000111873643923479460440000018198283580504210061_"  style="overflow:visible;"/>
			</clipPath>
			<g style="clip-path:url(#SVGID_00000019667072197315409120000009663266673604442526_);">
				<g>
					<defs>
						<rect id="SVGID_00000134950218907534388520000017925234105530021536_" x="137.9" y="506.8" width="4.9" height="21.3"/>
					</defs>
					<clipPath id="SVGID_00000008130656611846302210000007103384101349654442_">
						<use xlink:href="#SVGID_00000134950218907534388520000017925234105530021536_"  style="overflow:visible;"/>
					</clipPath>
					<g style="clip-path:url(#SVGID_00000008130656611846302210000007103384101349654442_);">
						
							<use xlink:href="#h"  width="4.9" height="21.2" x="-2.5" y="-10.6" transform="matrix(1 0 0 1 140.3562 517.3596)" style="overflow:visible;"/>
					</g>
				</g>
			</g>
		</g>
	</g>
	<g>
		<defs>
			<rect id="SVGID_00000143575574218420439350000005694797093290836156_" x="146.3" y="512.4" width="13.5" height="16.1"/>
		</defs>
		<clipPath id="SVGID_00000001661293828462340780000010489971162871677887_">
			<use xlink:href="#SVGID_00000143575574218420439350000005694797093290836156_"  style="overflow:visible;"/>
		</clipPath>
		<g style="clip-path:url(#SVGID_00000001661293828462340780000010489971162871677887_);">
			
				<use xlink:href="#g"  width="13.6" height="16" x="-6.8" y="-8" transform="matrix(1 0 0 1 153.0642 520.3519)" style="overflow:visible;"/>
		</g>
	</g>
	<g>
		<defs>
			<rect id="SVGID_00000053517477732584441730000001760709174353159859_" x="162.9" y="512.4" width="16.8" height="16.1"/>
		</defs>
		<clipPath id="SVGID_00000024689060905152400120000014845394208226890378_">
			<use xlink:href="#SVGID_00000053517477732584441730000001760709174353159859_"  style="overflow:visible;"/>
		</clipPath>
		<g style="clip-path:url(#SVGID_00000024689060905152400120000014845394208226890378_);">
			
				<use xlink:href="#b"  width="16.8" height="16" x="-8.4" y="-8" transform="matrix(1 0 0 1 171.3139 520.351)" style="overflow:visible;"/>
		</g>
	</g>
	<g>
		<defs>
			<rect id="SVGID_00000090985459317695500740000016838907767375303348_" x="183.3" y="512.4" width="15.4" height="15.7"/>
		</defs>
		<clipPath id="SVGID_00000073701446785498025250000009172965554610565038_">
			<use xlink:href="#SVGID_00000090985459317695500740000016838907767375303348_"  style="overflow:visible;"/>
		</clipPath>
		<g style="clip-path:url(#SVGID_00000073701446785498025250000009172965554610565038_);">
			
				<use xlink:href="#f"  width="15.4" height="15.8" x="-7.7" y="-7.9" transform="matrix(1 0 0 1 190.9897 520.1564)" style="overflow:visible;"/>
		</g>
	</g>
	<g>
		<defs>
			<rect id="SVGID_00000022522273458812203250000009151433553160741774_" x="-103.8" y="534.8" width="11.9" height="21.3"/>
		</defs>
		<clipPath id="SVGID_00000126305957572557976260000015861755063982792073_">
			<use xlink:href="#SVGID_00000022522273458812203250000009151433553160741774_"  style="overflow:visible;"/>
		</clipPath>
		<g style="clip-path:url(#SVGID_00000126305957572557976260000015861755063982792073_);">
			
				<use xlink:href="#r"  width="11.8" height="21.4" x="-5.9" y="-10.7" transform="matrix(1 0 0 1 -97.8656 545.3594)" style="overflow:visible;"/>
		</g>
	</g>
	<g>
		<g>
			<defs>
				<rect id="SVGID_00000014615347124333429930000016127505983495741844_" x="-92.1" y="556" width="700" height="700"/>
			</defs>
			<clipPath id="SVGID_00000066475134734425043120000001892937806704425901_">
				<use xlink:href="#SVGID_00000014615347124333429930000016127505983495741844_"  style="overflow:visible;"/>
			</clipPath>
			<g style="clip-path:url(#SVGID_00000066475134734425043120000001892937806704425901_);">
				<g>
					<defs>
						<rect id="SVGID_00000181783470858053894460000002398109950387290791_" x="-89.8" y="540.4" width="11.4" height="15.7"/>
					</defs>
					<clipPath id="SVGID_00000179622916383881020980000005589214105276047250_">
						<use xlink:href="#SVGID_00000181783470858053894460000002398109950387290791_"  style="overflow:visible;"/>
					</clipPath>
					<g style="clip-path:url(#SVGID_00000179622916383881020980000005589214105276047250_);">
						
							<use xlink:href="#d"  width="11.4" height="15.8" x="-5.7" y="-7.9" transform="matrix(1 0 0 1 -84.1122 548.1561)" style="overflow:visible;"/>
					</g>
				</g>
			</g>
		</g>
	</g>
	<g>
		<g>
			<defs>
				<rect id="SVGID_00000119820402335462084360000013962045577128539823_" x="-78.3" y="556" width="700" height="700"/>
			</defs>
			<clipPath id="SVGID_00000147938427095955538230000009105859286402919323_">
				<use xlink:href="#SVGID_00000119820402335462084360000013962045577128539823_"  style="overflow:visible;"/>
			</clipPath>
			<g style="clip-path:url(#SVGID_00000147938427095955538230000009105859286402919323_);">
				<g>
					<defs>
						<rect id="SVGID_00000129917299256812201450000013315533718356221584_" x="-77.1" y="540.4" width="16.8" height="16.1"/>
					</defs>
					<clipPath id="SVGID_00000092424765048248980300000002231304054041416868_">
						<use xlink:href="#SVGID_00000129917299256812201450000013315533718356221584_"  style="overflow:visible;"/>
					</clipPath>
					<g style="clip-path:url(#SVGID_00000092424765048248980300000002231304054041416868_);">
						
							<use xlink:href="#b"  width="16.8" height="16" x="-8.4" y="-8" transform="matrix(1 0 0 1 -68.7329 548.351)" style="overflow:visible;"/>
					</g>
				</g>
			</g>
		</g>
	</g>
	<g>
		<g>
			<defs>
				<rect id="SVGID_00000158729420531467557320000002964994757298268822_" x="-59.1" y="556" width="700" height="700"/>
			</defs>
			<clipPath id="SVGID_00000130618432441972497420000003451077602734355083_">
				<use xlink:href="#SVGID_00000158729420531467557320000002964994757298268822_"  style="overflow:visible;"/>
			</clipPath>
			<g style="clip-path:url(#SVGID_00000130618432441972497420000003451077602734355083_);">
				<g>
					<defs>
						<rect id="SVGID_00000089539790697117264010000000259489398798778266_" x="-56.8" y="540.4" width="24.6" height="15.7"/>
					</defs>
					<clipPath id="SVGID_00000180336748285650978960000005031921961510812335_">
						<use xlink:href="#SVGID_00000089539790697117264010000000259489398798778266_"  style="overflow:visible;"/>
					</clipPath>
					<g style="clip-path:url(#SVGID_00000180336748285650978960000005031921961510812335_);">
						
							<use xlink:href="#e"  width="24.6" height="15.8" x="-12.3" y="-7.9" transform="matrix(1 0 0 1 -44.4673 548.0558)" style="overflow:visible;"/>
					</g>
				</g>
			</g>
		</g>
	</g>
	<g>
		<g>
			<defs>
				<rect id="SVGID_00000020390007352181578580000001918444257486637238_" x="-20.1" y="556" width="700" height="700"/>
			</defs>
			<clipPath id="SVGID_00000117644461918792456830000008832586335783749528_">
				<use xlink:href="#SVGID_00000020390007352181578580000001918444257486637238_"  style="overflow:visible;"/>
			</clipPath>
			<g style="clip-path:url(#SVGID_00000117644461918792456830000008832586335783749528_);">
				<g>
					<defs>
						<rect id="SVGID_00000134957811479172602040000010500410307770929548_" x="-19.8" y="536.4" width="12.4" height="19.7"/>
					</defs>
					<clipPath id="SVGID_00000162320742473249774960000002427394050350404004_">
						<use xlink:href="#SVGID_00000134957811479172602040000010500410307770929548_"  style="overflow:visible;"/>
					</clipPath>
					<g style="clip-path:url(#SVGID_00000162320742473249774960000002427394050350404004_);">
						
							<use xlink:href="#c"  width="12.2" height="19.6" x="-6.1" y="-9.8" transform="matrix(1 0 0 1 -13.6275 546.1721)" style="overflow:visible;"/>
					</g>
				</g>
			</g>
		</g>
	</g>
	<g>
		<defs>
			<rect id="SVGID_00000091005968507594197070000009326222432013030847_" x="-4.5" y="534.8" width="15.4" height="21.3"/>
		</defs>
		<clipPath id="SVGID_00000098215958633818856300000004557596479226554790_">
			<use xlink:href="#SVGID_00000091005968507594197070000009326222432013030847_"  style="overflow:visible;"/>
		</clipPath>
		<g style="clip-path:url(#SVGID_00000098215958633818856300000004557596479226554790_);">
			
				<use xlink:href="#q"  width="15.4" height="21.3" x="-7.7" y="-10.6" transform="matrix(1 0 0 1 3.2476 545.4094)" style="overflow:visible;"/>
		</g>
	</g>
	<g>
		<g>
			<defs>
				<rect id="SVGID_00000020381214121544370790000015550408369122326940_" x="13.2" y="556" width="700" height="700"/>
			</defs>
			<clipPath id="SVGID_00000042017260911255662720000011632755501042897036_">
				<use xlink:href="#SVGID_00000020381214121544370790000015550408369122326940_"  style="overflow:visible;"/>
			</clipPath>
			<g style="clip-path:url(#SVGID_00000042017260911255662720000011632755501042897036_);">
				<g>
					<defs>
						<rect id="SVGID_00000042715331074369373640000010500864088749372848_" x="14.3" y="540.4" width="16.4" height="16.1"/>
					</defs>
					<clipPath id="SVGID_00000167381065345732450930000013948641549755985292_">
						<use xlink:href="#SVGID_00000042715331074369373640000010500864088749372848_"  style="overflow:visible;"/>
					</clipPath>
					<g style="clip-path:url(#SVGID_00000167381065345732450930000013948641549755985292_);">
						
							<use xlink:href="#a"  width="16.4" height="16" x="-8.2" y="-8" transform="matrix(1 0 0 1 22.5487 548.3516)" style="overflow:visible;"/>
					</g>
				</g>
			</g>
		</g>
	</g>
	<g>
		<defs>
			<rect id="SVGID_00000119103740014043608180000016723141496798908091_" x="44.5" y="535.6" width="18.3" height="20.4"/>
		</defs>
		<clipPath id="SVGID_00000071523745652294362090000013621706192304402364_">
			<use xlink:href="#SVGID_00000119103740014043608180000016723141496798908091_"  style="overflow:visible;"/>
		</clipPath>
		<g style="clip-path:url(#SVGID_00000071523745652294362090000013621706192304402364_);">
			
				<use xlink:href="#p"  width="18.3" height="20.4" x="-9.1" y="-10.2" transform="matrix(1 0 0 1 53.6335 545.797)" style="overflow:visible;"/>
		</g>
	</g>
	<g>
		<g>
			<defs>
				<rect id="SVGID_00000006675772456389893800000015838844757760212118_" x="65.3" y="556" width="700" height="700"/>
			</defs>
			<clipPath id="SVGID_00000024702430170464447610000000330389643782025134_">
				<use xlink:href="#SVGID_00000006675772456389893800000015838844757760212118_"  style="overflow:visible;"/>
			</clipPath>
			<g style="clip-path:url(#SVGID_00000024702430170464447610000000330389643782025134_);">
				<g>
					<defs>
						<rect id="SVGID_00000142144107930410465190000005135375436354511539_" x="66.5" y="540.4" width="16.8" height="16.1"/>
					</defs>
					<clipPath id="SVGID_00000107584101450801953100000011089661379991569036_">
						<use xlink:href="#SVGID_00000142144107930410465190000005135375436354511539_"  style="overflow:visible;"/>
					</clipPath>
					<g style="clip-path:url(#SVGID_00000107584101450801953100000011089661379991569036_);">
						
							<use xlink:href="#b"  width="16.8" height="16" x="-8.4" y="-8" transform="matrix(1 0 0 1 74.9155 548.351)" style="overflow:visible;"/>
					</g>
				</g>
			</g>
		</g>
	</g>
	<g>
		<defs>
			<rect id="SVGID_00000008144140093679822040000006980827902486841259_" x="86.7" y="540.6" width="15.4" height="15.7"/>
		</defs>
		<clipPath id="SVGID_00000124162377232393365760000010608423202073212850_">
			<use xlink:href="#SVGID_00000008144140093679822040000006980827902486841259_"  style="overflow:visible;"/>
		</clipPath>
		<g style="clip-path:url(#SVGID_00000124162377232393365760000010608423202073212850_);">
			
				<use xlink:href="#o"  width="15.4" height="15.7" x="-7.7" y="-7.8" transform="matrix(1 0 0 1 94.4194 548.4887)" style="overflow:visible;"/>
		</g>
	</g>
	<g>
		<g>
			<defs>
				<rect id="SVGID_00000080887369937401009170000000896297667428542102_" x="104.5" y="556" width="700" height="700"/>
			</defs>
			<clipPath id="SVGID_00000110456038633713823370000004717498886460371132_">
				<use xlink:href="#SVGID_00000080887369937401009170000000896297667428542102_"  style="overflow:visible;"/>
			</clipPath>
			<g style="clip-path:url(#SVGID_00000110456038633713823370000004717498886460371132_);">
				<g>
					<defs>
						<rect id="SVGID_00000096763240203777705850000006526305020818160019_" x="106.8" y="540.4" width="15.4" height="15.7"/>
					</defs>
					<clipPath id="SVGID_00000112605994845487971250000009218803262211366546_">
						<use xlink:href="#SVGID_00000096763240203777705850000006526305020818160019_"  style="overflow:visible;"/>
					</clipPath>
					<g style="clip-path:url(#SVGID_00000112605994845487971250000009218803262211366546_);">
						
							<use xlink:href="#f"  width="15.4" height="15.8" x="-7.7" y="-7.9" transform="matrix(1 0 0 1 114.5249 548.1564)" style="overflow:visible;"/>
					</g>
				</g>
			</g>
		</g>
	</g>
	<g>
		<defs>
			<rect id="SVGID_00000038376076934076425300000014183204452880342406_" x="136.7" y="535.6" width="16.8" height="20.4"/>
		</defs>
		<clipPath id="SVGID_00000018197951714419950610000011672177595909683102_">
			<use xlink:href="#SVGID_00000038376076934076425300000014183204452880342406_"  style="overflow:visible;"/>
		</clipPath>
		<g style="clip-path:url(#SVGID_00000018197951714419950610000011672177595909683102_);">
			
				<use xlink:href="#n"  width="16.8" height="20.3" x="-8.4" y="-10.1" transform="matrix(1 0 0 1 145.1265 545.7471)" style="overflow:visible;"/>
		</g>
	</g>
	<g>
		<g>
			<defs>
				<rect id="SVGID_00000010271977777777060530000000477729660945106867_" x="154.7" y="556" width="700" height="700"/>
			</defs>
			<clipPath id="SVGID_00000025425079616057440750000014096013817658245043_">
				<use xlink:href="#SVGID_00000010271977777777060530000000477729660945106867_"  style="overflow:visible;"/>
			</clipPath>
			<g style="clip-path:url(#SVGID_00000025425079616057440750000014096013817658245043_);">
				<g>
					<defs>
						<rect id="SVGID_00000002379256946045483420000010025734574215226013_" x="157" y="540.4" width="11.4" height="15.7"/>
					</defs>
					<clipPath id="SVGID_00000047051203319840932790000001152592178208841906_">
						<use xlink:href="#SVGID_00000002379256946045483420000010025734574215226013_"  style="overflow:visible;"/>
					</clipPath>
					<g style="clip-path:url(#SVGID_00000047051203319840932790000001152592178208841906_);">
						
							<use xlink:href="#d"  width="11.4" height="15.8" x="-5.7" y="-7.9" transform="matrix(1 0 0 1 162.7199 548.1561)" style="overflow:visible;"/>
					</g>
				</g>
			</g>
		</g>
	</g>
	<g>
		<g>
			<defs>
				<rect id="SVGID_00000097460013157865544560000015074053601960067200_" x="168.5" y="556" width="700" height="700"/>
			</defs>
			<clipPath id="SVGID_00000007395283380015088330000005452397066003087269_">
				<use xlink:href="#SVGID_00000097460013157865544560000015074053601960067200_"  style="overflow:visible;"/>
			</clipPath>
			<g style="clip-path:url(#SVGID_00000007395283380015088330000005452397066003087269_);">
				<g>
					<defs>
						<rect id="SVGID_00000031175957851847044990000011740183340197658512_" x="169.7" y="540.4" width="16.8" height="16.1"/>
					</defs>
					<clipPath id="SVGID_00000005980653749319441320000003659911752476714655_">
						<use xlink:href="#SVGID_00000031175957851847044990000011740183340197658512_"  style="overflow:visible;"/>
					</clipPath>
					<g style="clip-path:url(#SVGID_00000005980653749319441320000003659911752476714655_);">
						
							<use xlink:href="#b"  width="16.8" height="16" x="-8.4" y="-8" transform="matrix(1 0 0 1 178.0952 548.351)" style="overflow:visible;"/>
					</g>
				</g>
			</g>
		</g>
	</g>
	<g>
		<defs>
			<rect id="SVGID_00000034082079135403329280000009023170971384875951_" x="186.8" y="534.7" width="8.2" height="27.3"/>
		</defs>
		<clipPath id="SVGID_00000030475033009114828860000017870974594203700629_">
			<use xlink:href="#SVGID_00000034082079135403329280000009023170971384875951_"  style="overflow:visible;"/>
		</clipPath>
		<g style="clip-path:url(#SVGID_00000030475033009114828860000017870974594203700629_);">
			
				<use xlink:href="#m"  width="8.2" height="27.3" x="-4.1" y="-13.6" transform="matrix(1 0 0 1 190.8725 548.3332)" style="overflow:visible;"/>
		</g>
	</g>
	<g>
		<g>
			<defs>
				<rect id="SVGID_00000173123523019000728620000013468886236319498152_" x="197.4" y="556" width="700" height="700"/>
			</defs>
			<clipPath id="SVGID_00000174569600413179837040000017250136533028085136_">
				<use xlink:href="#SVGID_00000173123523019000728620000013468886236319498152_"  style="overflow:visible;"/>
			</clipPath>
			<g style="clip-path:url(#SVGID_00000174569600413179837040000017250136533028085136_);">
				<g>
					<defs>
						<rect id="SVGID_00000141426703761434681980000017864140169049445795_" x="198.5" y="540.4" width="16.4" height="16.1"/>
					</defs>
					<clipPath id="SVGID_00000092449747791073423390000011966121290828694719_">
						<use xlink:href="#SVGID_00000141426703761434681980000017864140169049445795_"  style="overflow:visible;"/>
					</clipPath>
					<g style="clip-path:url(#SVGID_00000092449747791073423390000011966121290828694719_);">
						
							<use xlink:href="#a"  width="16.4" height="16" x="-8.2" y="-8" transform="matrix(1 0 0 1 206.7362 548.3516)" style="overflow:visible;"/>
					</g>
				</g>
			</g>
		</g>
	</g>
	<g>
		<g>
			<defs>
				<rect id="SVGID_00000139982927706804333920000002462956198723908272_" x="216.3" y="556" width="700" height="700"/>
			</defs>
			<clipPath id="SVGID_00000071542891133955881190000012275345467551612082_">
				<use xlink:href="#SVGID_00000139982927706804333920000002462956198723908272_"  style="overflow:visible;"/>
			</clipPath>
			<g style="clip-path:url(#SVGID_00000071542891133955881190000012275345467551612082_);">
				<g>
					<defs>
						<rect id="SVGID_00000075128429276466295520000006760963992026944672_" x="217.5" y="540.4" width="13.5" height="16.1"/>
					</defs>
					<clipPath id="SVGID_00000096768069655276790000000003096081536725385906_">
						<use xlink:href="#SVGID_00000075128429276466295520000006760963992026944672_"  style="overflow:visible;"/>
					</clipPath>
					<g style="clip-path:url(#SVGID_00000096768069655276790000000003096081536725385906_);">
						
							<use xlink:href="#g"  width="13.6" height="16" x="-6.8" y="-8" transform="matrix(1 0 0 1 224.2673 548.3519)" style="overflow:visible;"/>
					</g>
				</g>
			</g>
		</g>
	</g>
	<g>
		<g>
			<defs>
				<rect id="SVGID_00000181808120190180413010000008050576518769213594_" x="232.9" y="556" width="700" height="700"/>
			</defs>
			<clipPath id="SVGID_00000057860334085107540450000006325838434620585375_">
				<use xlink:href="#SVGID_00000181808120190180413010000008050576518769213594_"  style="overflow:visible;"/>
			</clipPath>
			<g style="clip-path:url(#SVGID_00000057860334085107540450000006325838434620585375_);">
				<g>
					<defs>
						<rect id="SVGID_00000064330825179317417310000000058267535206455681_" x="233.3" y="536.4" width="12.4" height="19.7"/>
					</defs>
					<clipPath id="SVGID_00000110431223595898268270000000363315073624182452_">
						<use xlink:href="#SVGID_00000064330825179317417310000000058267535206455681_"  style="overflow:visible;"/>
					</clipPath>
					<g style="clip-path:url(#SVGID_00000110431223595898268270000000363315073624182452_);">
						
							<use xlink:href="#c"  width="12.2" height="19.6" x="-6.1" y="-9.8" transform="matrix(1 0 0 1 239.4624 546.1721)" style="overflow:visible;"/>
					</g>
				</g>
			</g>
		</g>
	</g>
</g>
</svg>
