<svg width="50" height="50" viewBox="0 0 50 50" fill="none" xmlns="http://www.w3.org/2000/svg">
<path d="M19.9719 12.0093C19.7471 12.0409 19.5356 12.1363 19.3627 12.2845L7.42576 22.2851C7.15598 22.513 7 22.8493 7 23.2036C7 23.5583 7.15598 23.8945 7.42576 24.1225L19.3627 34.1231C19.5955 34.3156 19.8925 34.4124 20.1936 34.394C20.4945 34.3756 20.7776 34.2433 20.9855 34.0237C21.1937 33.8041 21.3114 33.5137 21.315 33.2103V29.2227C24.0064 29.2483 33.2632 29.7631 40.0289 35.7105C40.2934 35.939 40.6442 36.0395 40.989 35.9859C41.3334 35.932 41.6376 35.7297 41.8211 35.4314C42.0048 35.1334 42.0495 34.7696 41.9437 34.4356C38.6009 24.0814 28.5538 19.4983 21.3156 17.5096V13.2094C21.3181 12.8634 21.1722 12.533 20.9149 12.303C20.6576 12.0731 20.3136 11.9664 19.9719 12.0093ZM18.9275 15.7596V18.4099C18.9275 18.6758 19.0152 18.9344 19.1773 19.1448C19.3394 19.3555 19.5664 19.5056 19.8229 19.5723C25.6716 21.061 33.5993 24.3937 37.7779 31.173C29.7838 26.4512 20.8176 26.7746 20.0587 26.8103C19.7532 26.8265 19.4651 26.9599 19.2547 27.1831C19.0441 27.4066 18.9269 27.7027 18.9272 28.0105V30.6482L10.037 23.2106L18.9275 15.7596Z" fill="black"/>
</svg>
