<svg width="50" height="50" viewBox="0 0 50 50" fill="none" xmlns="http://www.w3.org/2000/svg">
<path d="M21.3775 15.0074C21.1977 15.0323 21.0285 15.1079 20.8901 15.2252L11.3406 23.1423C11.1248 23.3228 11 23.589 11 23.8695C11 24.1503 11.1248 24.4165 11.3406 24.5969L20.8901 32.5141C21.0764 32.6665 21.314 32.7432 21.5549 32.7286C21.7956 32.714 22.0221 32.6093 22.1884 32.4355C22.3549 32.2616 22.4491 32.0316 22.452 31.7915V28.6346C24.6051 28.6549 32.0106 29.0625 37.4231 33.7708C37.6347 33.9517 37.9154 34.0312 38.1912 33.9888C38.4667 33.9462 38.7101 33.786 38.8569 33.5499C39.0038 33.314 39.0396 33.0259 38.955 32.7615C36.2807 24.5644 28.2431 20.9361 22.4525 19.3617V15.9574C22.4545 15.6835 22.3377 15.422 22.1319 15.2399C21.9261 15.0579 21.6509 14.9734 21.3775 15.0074ZM20.542 17.9763V20.0745C20.542 20.285 20.6121 20.4898 20.7418 20.6563C20.8715 20.8231 21.0531 20.942 21.2583 20.9947C25.9373 22.1733 32.2795 24.8117 35.6224 30.1786C29.227 26.4405 22.0541 26.6966 21.447 26.7248C21.2025 26.7377 20.9721 26.8432 20.8038 27.02C20.6352 27.1969 20.5415 27.4313 20.5418 27.6749V29.7631L13.4296 23.8751L20.542 17.9763Z" />
</svg>
