<svg width="46" height="46" viewBox="0 0 46 46" fill="none" xmlns="http://www.w3.org/2000/svg">
<path d="M33.8403 15.5956H31.6953C31.191 15.5948 30.7238 15.3304 30.4635 14.8984L29.0446 12.5337C28.4714 11.5845 27.4445 11.0032 26.3354 11H20.6645C19.5556 11.0035 18.5287 11.5847 17.9553 12.5337L16.5364 14.8984C16.2765 15.3302 15.8097 15.5947 15.3058 15.5956H13.1596C12.3218 15.5962 11.5186 15.9293 10.9262 16.5218C10.3337 17.1142 10.0006 17.9174 10 18.7552V30.2444C10.0006 31.0822 10.3337 31.8854 10.9262 32.4779C11.5186 33.0703 12.3218 33.4034 13.1596 33.404H33.8404C34.6782 33.4034 35.4814 33.0703 36.0738 32.4779C36.6663 31.8854 36.9994 31.0822 37 30.2444V18.7552C36.9994 17.9174 36.6663 17.1142 36.0738 16.5218C35.4814 15.9294 34.6782 15.5962 33.8404 15.5956H33.8403ZM35.2765 30.2445C35.2759 30.6253 35.1244 30.9902 34.8551 31.2595C34.586 31.5285 34.2209 31.6801 33.8403 31.6807H13.1595C12.7789 31.6801 12.4138 31.5285 12.1448 31.2595C11.8755 30.9902 11.7239 30.6253 11.7233 30.2445V18.7553C11.7239 18.3747 11.8755 18.0096 12.1448 17.7405C12.4138 17.4713 12.7789 17.3197 13.1595 17.3191H15.3057C16.4146 17.3159 17.4415 16.7344 18.0149 15.7854L19.4327 13.4209C19.6933 12.9893 20.1601 12.7248 20.6644 12.7235H26.3354C26.8393 12.725 27.3058 12.9893 27.566 13.4209L28.9838 15.7854C29.5581 16.7346 30.5856 17.3159 31.6952 17.3191H33.8402C34.2208 17.3197 34.5859 17.4713 34.855 17.7405C35.1243 18.0096 35.2758 18.3747 35.2764 18.7553L35.2765 30.2445Z" />
<path d="M23.4999 16.7449C21.7479 16.7449 20.0673 17.4408 18.8285 18.6799C17.5896 19.9187 16.8935 21.599 16.8935 23.3511C16.8935 25.1033 17.5896 26.7837 18.8285 28.0225C20.0673 29.2614 21.7479 29.9575 23.4999 29.9575C25.252 29.9575 26.9325 29.2614 28.1713 28.0225C29.4102 26.7837 30.1063 25.1033 30.1063 23.3511C30.1042 21.5996 29.4074 19.9206 28.169 18.6822C26.9306 17.4437 25.2514 16.747 23.4999 16.7449V16.7449ZM23.4999 28.234C22.2049 28.234 20.9629 27.7195 20.0472 26.8037C19.1314 25.888 18.6169 24.6461 18.6169 23.351C18.6169 22.0559 19.1314 20.814 20.0472 19.8982C20.9629 18.9825 22.2049 18.4682 23.4999 18.4682C24.795 18.4682 26.0369 18.9825 26.9527 19.8982C27.8684 20.814 28.3829 22.0559 28.3829 23.351C28.3814 24.6457 27.8665 25.8867 26.9509 26.8022C26.0356 27.7176 24.7946 28.2325 23.4999 28.234Z" />
</svg>
