<svg width="10" height="10" viewBox="0 0 10 10" fill="none" xmlns="http://www.w3.org/2000/svg">
<rect width="10" height="10" rx="2" fill="#D0E5D1"/>
<path d="M1.85858 4.85858C1.78047 4.93668 1.78047 5.06332 1.85858 5.14142L3.13137 6.41421C3.20948 6.49232 3.33611 6.49232 3.41421 6.41421C3.49232 6.33611 3.49232 6.20948 3.41421 6.13137L2.28284 5L3.41421 3.86863C3.49232 3.79052 3.49232 3.66389 3.41421 3.58579C3.33611 3.50768 3.20948 3.50768 3.13137 3.58579L1.85858 4.85858ZM8.14142 5.14142C8.21953 5.06332 8.21953 4.93668 8.14142 4.85858L6.86863 3.58579C6.79052 3.50768 6.66389 3.50768 6.58579 3.58579C6.50768 3.66389 6.50768 3.79052 6.58579 3.86863L7.71716 5L6.58579 6.13137C6.50768 6.20948 6.50768 6.33611 6.58579 6.41421C6.66389 6.49232 6.79052 6.49232 6.86863 6.41421L8.14142 5.14142ZM2 5.2L8 5.2L8 4.8L2 4.8L2 5.2Z" fill="#459A47"/>
</svg>
