<svg width="50" height="50" viewBox="0 0 50 50" fill="none" xmlns="http://www.w3.org/2000/svg">
<path d="M35.5773 26.9421C35.3895 26.5028 35.0304 26.1637 34.5873 26.0065C34.226 25.8783 33.8339 25.8723 33.4693 25.9895C33.1044 26.1066 32.7861 26.3403 32.5614 26.6567C32.2899 26.376 31.9374 26.1911 31.5558 26.129C31.1745 26.0669 30.7834 26.1307 30.4397 26.3113C30.1554 26.4558 29.9231 26.6874 29.7745 26.9738C29.5275 26.5933 29.1517 26.3193 28.7195 26.2038C28.2869 26.0883 27.8279 26.1397 27.4303 26.3483C27.2087 26.4648 27.0137 26.6274 26.8575 26.826L24.4276 22.0067L24.428 22.0064C24.2078 21.5691 23.8265 21.2386 23.3681 21.0885C22.9097 20.9383 22.4114 20.9806 21.9834 21.2056C21.5554 21.4309 21.2326 21.8208 21.0859 22.2895C20.9396 22.7578 20.9814 23.2669 21.2022 23.7038L26.1743 33.5657L26.1609 33.5587C25.7375 33.3353 25.2444 33.2933 24.7906 33.4408C24.3365 33.5887 23.9584 33.9145 23.7396 34.347C23.5177 34.779 23.4772 35.2847 23.6268 35.748C23.7726 36.2116 24.0918 36.5978 24.5149 36.8221L30.0927 39.7462H30.0924C30.1816 39.7972 30.276 39.8376 30.3743 39.8663C30.4011 39.8747 30.4283 39.8813 30.4557 39.887C30.4894 39.9044 30.525 39.9174 30.5619 39.9257C31.2284 40.0809 31.9272 39.9912 32.5356 39.6724L37.4199 37.1022C38.107 36.7397 38.6255 36.1132 38.861 35.3608C39.0969 34.6081 39.0306 33.791 38.6771 33.088L35.5773 26.9421ZM37.9673 35.0687C37.8095 35.5807 37.4576 36.0067 36.9907 36.252L32.1062 38.8222C31.7106 39.0295 31.258 39.0939 30.8219 39.0044C30.7605 38.9784 30.6968 38.9587 30.6318 38.946C30.6135 38.94 30.5896 38.931 30.5697 38.9223H30.5694C30.5605 38.9166 30.5514 38.9113 30.5419 38.9066L24.9455 35.9729C24.7416 35.8641 24.5881 35.6775 24.5185 35.4532C24.4469 35.2346 24.4652 34.9956 24.5691 34.7913C24.6756 34.5827 24.8586 34.4258 25.0778 34.3547C25.2938 34.2813 25.53 34.3013 25.7316 34.4094L26.1847 34.6444C26.4863 34.8006 26.8519 34.7402 27.0901 34.4952C27.3283 34.2506 27.3848 33.8767 27.2299 33.5696L22.0347 23.2651C21.8152 22.8252 21.9851 22.2868 22.4147 22.0608C22.844 21.8348 23.372 22.006 23.5948 22.444L26.2798 27.7689C26.3981 28.0002 26.6389 28.1384 26.8937 28.1207C27.1469 28.1024 27.3649 27.9311 27.4475 27.6861C27.5171 27.4748 27.6648 27.2996 27.8592 27.1985C28.2905 26.9735 28.8185 27.1461 29.0413 27.5853L29.5 28.4956C29.6163 28.7239 29.8735 28.8377 30.1159 28.7673C30.3583 28.6972 30.5191 28.4625 30.5005 28.2058C30.44 27.387 30.7517 27.2231 30.8687 27.1614C31.2999 26.9357 31.8286 27.109 32.0508 27.5489L32.2324 27.9084L32.2321 27.9081C32.3334 28.1103 32.5549 28.2178 32.7722 28.1701C32.9894 28.1223 33.1482 27.9311 33.159 27.7044C33.1691 27.3883 33.3453 27.1026 33.6197 26.9564C33.8223 26.8486 34.0598 26.8312 34.2754 26.9087C34.4826 26.9841 34.6489 27.146 34.7325 27.354L37.8445 33.5261C38.0853 34.0027 38.1294 34.5581 37.9674 35.0682L37.9673 35.0687Z" />
<path d="M20.8099 30.999C20.8202 30.9993 20.8309 31 20.8412 31C21.099 30.9997 21.3101 30.7944 21.3184 30.5361C21.3264 30.2777 21.129 30.0594 20.8716 30.0427C17.5277 29.8542 14.5327 27.9055 12.9999 24.9203C11.8488 22.6561 11.6404 20.0262 12.4207 17.6079C13.2009 15.1895 14.9062 13.18 17.1623 12.0205C19.6358 10.7359 22.5468 10.603 25.127 11.6565C27.707 12.71 29.6966 14.8446 30.5706 17.4962C31.4446 20.1478 31.1151 23.0501 29.669 25.4371C29.532 25.6633 29.6037 25.9578 29.8291 26.0955C30.0548 26.2329 30.3489 26.1611 30.486 25.9351C32.0725 23.3079 32.4323 20.1164 31.4699 17.2011C30.5079 14.2858 28.3205 11.9386 25.4842 10.7784C22.6479 9.61792 19.4468 9.76057 16.7243 11.1691C14.2428 12.4453 12.3675 14.6561 11.5102 17.3164C10.6526 19.9767 10.883 22.8694 12.1501 25.3599C13.8357 28.6453 17.1301 30.7912 20.8101 30.9993L20.8099 30.999Z" />
<path d="M21.5001 15.9115C22.7022 15.9131 23.8549 16.3657 24.705 17.1702C25.5551 17.9747 26.0334 19.0655 26.0351 20.2031C26.0351 20.4553 26.2508 20.6598 26.5174 20.6598C26.7839 20.6598 27 20.4553 27 20.2031C26.9997 18.9482 26.5201 17.7358 25.6498 16.789C24.7794 15.8422 23.5769 15.2249 22.2637 15.0504C20.9505 14.8762 19.6148 15.1568 18.5028 15.8406C17.3912 16.5247 16.5777 17.5654 16.2126 18.7718C15.8475 19.9783 15.9552 21.2687 16.5162 22.406C17.0769 23.5429 18.0532 24.4503 19.2647 24.9602C19.3263 24.9863 19.3933 25 19.4606 25C19.6885 25 19.8853 24.8494 19.9328 24.6385C19.9806 24.4277 19.8658 24.2143 19.6578 24.1264C18.3819 23.5895 17.4383 22.5264 17.1 21.2441C16.7618 19.9619 17.0664 18.6039 17.9256 17.5625C18.7851 16.5208 20.1033 15.9119 21.5 15.9115L21.5001 15.9115Z" />
</svg>
