<svg width="50" height="50" viewBox="0 0 50 50" fill="none" xmlns="http://www.w3.org/2000/svg">
<path d="M38 28.6576C37.9967 27.477 37.6386 26.3244 36.9724 25.3498C36.306 24.3752 35.362 23.6234 34.2631 23.1919C31.9577 22.3134 29.5964 21.5894 27.1947 21.025V14.7879C27.1953 13.7274 26.7286 12.7204 25.9188 12.0355C25.109 11.3505 24.0385 11.0574 22.9927 11.2343C22.14 11.3989 21.3723 11.8578 20.8237 12.5309C20.275 13.2042 19.9804 14.0485 19.9913 14.917V26.7577C18.7929 26.0515 17.5113 25.4971 16.1765 25.1071C15.1026 24.7802 13.9373 24.9852 13.0398 25.6592C12.1217 26.334 11.5818 27.4073 11.5872 28.5467V28.7328V28.7326C11.5918 29.4311 11.7995 30.113 12.1847 30.6954C12.5701 31.2778 13.1164 31.7357 13.7572 32.0134C17.9263 33.9163 22.6238 39.517 22.6715 39.5679V39.5677C22.8993 39.8413 23.2368 39.9996 23.5929 40H36.7992C37.1177 40 37.4231 39.8735 37.6482 39.6483C37.8733 39.4232 37.9999 39.1177 37.9999 38.7993L38 28.6576ZM35.5988 37.5986H24.1451C22.8965 36.1699 18.7425 31.6526 14.7565 29.8308C14.536 29.7414 14.3464 29.59 14.2101 29.3951C14.0738 29.2002 13.9965 28.9701 13.9882 28.7323V28.5461V28.5464C13.9863 28.168 14.1661 27.8121 14.4714 27.5887C14.7592 27.3637 15.138 27.291 15.4889 27.3938C16.9416 27.8349 18.9674 28.6483 20.3482 30.032C20.5726 30.2537 20.8756 30.3781 21.1911 30.3783C21.5066 30.3785 21.8096 30.2544 22.0344 30.0329C22.259 29.8114 22.3876 29.5101 22.392 29.1946V14.9168C22.3813 14.6176 22.4739 14.3239 22.6543 14.085C22.8348 13.8461 23.0919 13.6767 23.3825 13.6051C23.7351 13.5425 24.0973 13.6405 24.3701 13.8723C24.6387 14.1005 24.7934 14.4353 24.7932 14.7876V21.9911C24.7934 22.2683 24.8893 22.5369 25.065 22.7513C25.2406 22.9657 25.4849 23.1129 25.7567 23.1677C28.3572 23.7272 30.9124 24.4796 33.4012 25.4188C34.0502 25.6755 34.607 26.1216 34.9989 26.6993C35.3908 27.2769 35.5996 27.9592 35.5983 28.6572L35.5988 37.5986Z" />
<path d="M11.5873 19.59C11.9057 19.59 12.211 19.4635 12.4363 19.2383C12.6613 19.0132 12.7878 18.7078 12.7878 18.3895V15.9883H15.189C15.618 15.9883 16.0143 15.7595 16.2287 15.3881C16.4431 15.0165 16.4431 14.5588 16.2287 14.1874C16.0143 13.816 15.6179 13.5872 15.189 13.5872H12.7878C12.1509 13.5872 11.5402 13.8401 11.0901 14.2904C10.6397 14.7407 10.3866 15.3515 10.3866 15.9884V18.3896C10.3866 18.7078 10.5133 19.0133 10.7383 19.2383C10.9634 19.4636 11.2689 19.5901 11.5873 19.5901L11.5873 19.59Z" />
<path d="M35.5988 19.5901C35.9173 19.5901 36.2225 19.4636 36.4478 19.2383C36.6729 19.0133 36.7993 18.7078 36.7993 18.3896V15.9884C36.7993 15.3515 36.5464 14.7408 36.0961 14.2904C35.6457 13.84 35.035 13.5872 34.3981 13.5872H31.9971C31.5681 13.5872 31.1718 13.816 30.9572 14.1874C30.7429 14.5588 30.7429 15.0165 30.9572 15.3881C31.1718 15.7595 31.5681 15.9883 31.9971 15.9883H34.3983V18.3895H34.3981C34.3981 18.7077 34.5248 19.0132 34.7499 19.2383C34.9749 19.4635 35.2804 19.59 35.5988 19.59L35.5988 19.5901Z" />
</svg>
