<svg width="20" height="20" viewBox="0 0 20 20" fill="none" xmlns="http://www.w3.org/2000/svg">
<path fill-rule="evenodd" clip-rule="evenodd" d="M18 10C18 14.4183 14.4183 18 10 18C5.58172 18 2 14.4183 2 10C2 5.58172 5.58172 2 10 2C14.4183 2 18 5.58172 18 10ZM20 10C20 15.5228 15.5228 20 10 20C4.47715 20 0 15.5228 0 10C0 4.47715 4.47715 0 10 0C15.5228 0 20 4.47715 20 10ZM10.2696 7.02694C10.8666 7.02694 11.3506 6.54292 11.3506 5.94585C11.3506 5.34879 10.8666 4.86477 10.2696 4.86477C9.67249 4.86477 9.18848 5.34879 9.18848 5.94585C9.18848 6.54292 9.67249 7.02694 10.2696 7.02694ZM10.2696 10.8107C10.8666 10.8107 11.3506 10.3267 11.3506 9.72966C11.3506 9.13259 10.8666 8.64858 10.2696 8.64858C9.67249 8.64858 9.18848 9.13259 9.18848 9.72966C9.18848 10.3267 9.67249 10.8107 10.2696 10.8107ZM11.3506 13.5134C11.3506 14.1105 10.8666 14.5945 10.2696 14.5945C9.67249 14.5945 9.18848 14.1105 9.18848 13.5134C9.18848 12.9163 9.67249 12.4323 10.2696 12.4323C10.8666 12.4323 11.3506 12.9163 11.3506 13.5134Z"/>
</svg>
