<svg width="17" height="17" viewBox="0 0 17 17" fill="none" xmlns="http://www.w3.org/2000/svg">
<path d="M13.3387 10.0269C12.8464 10.0302 12.3609 10.1425 11.9171 10.3557C11.4733 10.569 11.0823 10.8779 10.7721 11.2603L6.52208 9.30195C6.7219 8.69007 6.7219 8.03049 6.52208 7.41862L10.7721 5.46028C11.2734 6.06525 11.9724 6.47368 12.7455 6.61348C13.5187 6.75328 14.3164 6.61547 14.9979 6.22437C15.6793 5.83327 16.2007 5.21401 16.47 4.4759C16.7394 3.73779 16.7393 2.92827 16.4698 2.19021C16.2004 1.45214 15.6789 0.832987 14.9973 0.442008C14.3158 0.0510287 13.5181 -0.086638 12.7449 0.0533039C11.9718 0.193246 11.2729 0.6018 10.7717 1.20686C10.2705 1.81192 9.99906 2.5746 10.0054 3.36028C10.0079 3.55881 10.0274 3.75676 10.0637 3.95195L5.66375 5.97695C5.19465 5.51827 4.60062 5.20821 3.95609 5.08564C3.31155 4.96307 2.64518 5.03342 2.04046 5.28789C1.43573 5.54236 0.91955 5.96963 0.556582 6.51617C0.193613 7.0627 0 7.7042 0 8.36028C0 9.01637 0.193613 9.65786 0.556582 10.2044C0.91955 10.7509 1.43573 11.1782 2.04046 11.4327C2.64518 11.6871 3.31155 11.7575 3.95609 11.6349C4.60062 11.5124 5.19465 11.2023 5.66375 10.7436L10.0637 12.7686C10.0274 12.9638 10.0079 13.1618 10.0054 13.3603C10.0054 14.0196 10.2009 14.664 10.5672 15.2122C10.9335 15.7603 11.454 16.1876 12.0631 16.4399C12.6722 16.6922 13.3424 16.7582 13.989 16.6296C14.6357 16.5009 15.2296 16.1835 15.6958 15.7173C16.1619 15.2511 16.4794 14.6572 16.608 14.0106C16.7366 13.364 16.6706 12.6938 16.4183 12.0847C16.1661 11.4756 15.7388 10.955 15.1906 10.5887C14.6425 10.2224 13.998 10.0269 13.3387 10.0269ZM13.3387 1.69362C13.6684 1.69362 13.9906 1.79137 14.2647 1.9745C14.5388 2.15764 14.7524 2.41793 14.8785 2.72248C15.0047 3.02702 15.0377 3.36213 14.9734 3.68543C14.9091 4.00874 14.7503 4.30571 14.5173 4.53879C14.2842 4.77188 13.9872 4.93062 13.6639 4.99493C13.3406 5.05923 13.0055 5.02623 12.7009 4.90008C12.3964 4.77394 12.1361 4.56032 11.953 4.28623C11.7698 4.01215 11.6721 3.68992 11.6721 3.36028C11.6721 2.91826 11.8477 2.49433 12.1602 2.18177C12.4728 1.86921 12.8967 1.69362 13.3387 1.69362V1.69362ZM3.33875 10.0269C3.00911 10.0269 2.68688 9.9292 2.4128 9.74607C2.13872 9.56293 1.92509 9.30263 1.79895 8.99809C1.6728 8.69354 1.6398 8.35843 1.70411 8.03513C1.76841 7.71183 1.92715 7.41486 2.16024 7.18177C2.39332 6.94868 2.6903 6.78995 3.0136 6.72564C3.3369 6.66133 3.67201 6.69434 3.97655 6.82048C4.2811 6.94663 4.54139 7.16025 4.72453 7.43433C4.90767 7.70841 5.00541 8.03065 5.00541 8.36028C5.00541 8.80231 4.82982 9.22623 4.51726 9.53879C4.2047 9.85135 3.78078 10.0269 3.33875 10.0269ZM13.3387 15.0269C13.0091 15.0269 12.6869 14.9292 12.4128 14.7461C12.1387 14.5629 11.9251 14.3026 11.7989 13.9981C11.6728 13.6935 11.6398 13.3584 11.7041 13.0351C11.7684 12.7118 11.9271 12.4149 12.1602 12.1818C12.3933 11.9487 12.6903 11.7899 13.0136 11.7256C13.3369 11.6613 13.672 11.6943 13.9766 11.8205C14.2811 11.9466 14.5414 12.1602 14.7245 12.4343C14.9077 12.7084 15.0054 13.0306 15.0054 13.3603C15.0054 13.8023 14.8298 14.2262 14.5173 14.5388C14.2047 14.8514 13.7808 15.0269 13.3387 15.0269Z" />
</svg>
