<svg width="20" height="20" viewBox="0 0 20 20" fill="none" xmlns="http://www.w3.org/2000/svg">
<circle cx="10" cy="10" r="10" fill="#E5E5E5"/>
<path d="M11.8774 5.38793C11.9515 5.39905 12.0212 5.43269 12.0782 5.48493L16.0135 9.01079C16.1024 9.09116 16.1538 9.20971 16.1538 9.33464C16.1538 9.45967 16.1024 9.57822 16.0135 9.65859L12.0782 13.1844C12.0014 13.2523 11.9035 13.2865 11.8043 13.28C11.7051 13.2735 11.6118 13.2268 11.5432 13.1494C11.4746 13.072 11.4358 12.9696 11.4346 12.8626V11.4567C10.5473 11.4658 7.49561 11.6473 5.26517 13.7441C5.17797 13.8247 5.06231 13.8601 4.94866 13.8412C4.83511 13.8222 4.73483 13.7509 4.67434 13.6457C4.61377 13.5407 4.59904 13.4124 4.6339 13.2946C5.73593 9.64411 9.04817 8.02826 11.4344 7.32712V5.81103C11.4336 5.68904 11.4817 5.57256 11.5665 5.49149C11.6513 5.41041 11.7647 5.37278 11.8774 5.38793ZM12.2217 6.71013V7.64453C12.2217 7.73828 12.1928 7.82948 12.1393 7.90365C12.0859 7.97793 12.011 8.03086 11.9265 8.05437C9.99833 8.57922 7.38481 9.75423 6.00724 12.1444C8.64269 10.4796 11.5986 10.5936 11.8487 10.6062C11.9495 10.6119 12.0445 10.659 12.1138 10.7377C12.1833 10.8165 12.2219 10.9208 12.2218 11.0294V11.9593L15.1526 9.3371L12.2217 6.71013Z"    />
</svg>
