<svg width="50" height="50" viewBox="0 0 50 50" fill="none" xmlns="http://www.w3.org/2000/svg">
<path d="M38.9993 24.3473L28.0825 35.2641C27.6919 35.6546 27.6955 36.2842 28.0903 36.6704L28.954 37.515C29.3489 37.9011 29.9856 37.8976 30.3761 37.5071L41.2929 26.5902C41.6835 26.1997 41.6799 25.5701 41.2851 25.184L40.4214 24.3393C40.0265 23.9532 39.3898 23.9567 38.9993 24.3473Z" fill="black"/>
<path d="M40.7287 24.6239L29.8118 13.7071C29.4213 13.3166 28.7917 13.3201 28.4056 13.715L27.5609 14.5787C27.1748 14.9735 27.1783 15.6102 27.5689 16.0007L38.4857 26.9176C38.8762 27.3081 39.5058 27.3046 39.892 26.9097L40.7366 26.046C41.1228 25.6511 41.1192 25.0145 40.7287 24.6239Z" fill="black"/>
<path d="M12 25.7738L39 25.7738" stroke="black" stroke-width="4" stroke-linecap="round"/>
</svg>
