<svg width="136" height="136" viewBox="0 0 136 136" fill="none" xmlns="http://www.w3.org/2000/svg">
<path d="M31.9607 96.3334L27.9373 100.357C26.8819 101.418 26.2895 102.855 26.2895 104.352C26.2895 105.849 26.8819 107.285 27.9373 108.347C28.999 109.402 30.4353 109.995 31.9323 109.995C33.4294 109.995 34.8656 109.402 35.9273 108.347L39.9507 104.323C40.879 103.239 41.3641 101.845 41.309 100.419C41.2539 98.9926 40.6627 97.6397 39.6535 96.6305C38.6443 95.6213 37.2915 95.0301 35.8653 94.975C34.4391 94.9199 33.0447 95.405 31.9607 96.3334ZM28.334 68C28.334 66.4972 27.737 65.0558 26.6743 63.9931C25.6115 62.9304 24.1702 62.3334 22.6673 62.3334H17.0007C15.4978 62.3334 14.0564 62.9304 12.9937 63.9931C11.931 65.0558 11.334 66.4972 11.334 68C11.334 69.5029 11.931 70.9443 12.9937 72.007C14.0564 73.0697 15.4978 73.6667 17.0007 73.6667H22.6673C24.1702 73.6667 25.6115 73.0697 26.6743 72.007C27.737 70.9443 28.334 69.5029 28.334 68ZM68.0007 28.3334C69.5035 28.3334 70.9449 27.7364 72.0076 26.6736C73.0703 25.6109 73.6673 24.1696 73.6673 22.6667V17C73.6673 15.4971 73.0703 14.0558 72.0076 12.9931C70.9449 11.9304 69.5035 11.3334 68.0007 11.3334C66.4978 11.3334 65.0564 11.9304 63.9937 12.9931C62.931 14.0558 62.334 15.4971 62.334 17V22.6667C62.334 24.1696 62.931 25.6109 63.9937 26.6736C65.0564 27.7364 66.4978 28.3334 68.0007 28.3334ZM31.9607 39.95C33.0161 40.9969 34.4407 41.5871 35.9273 41.5934C36.6731 41.5977 37.4124 41.4547 38.1028 41.1727C38.7932 40.8907 39.4212 40.4752 39.9507 39.95C41.0061 38.8883 41.5985 37.4521 41.5985 35.955C41.5985 34.458 41.0061 33.0218 39.9507 31.96L35.9273 27.9367C34.8433 27.0084 33.4488 26.5233 32.0227 26.5783C30.5965 26.6334 29.2437 27.2246 28.2345 28.2338C27.2253 29.2431 26.634 30.5959 26.579 32.0221C26.5239 33.4482 27.009 34.8427 27.9373 35.9267L31.9607 39.95ZM99.9607 41.5934C101.447 41.5871 102.872 40.9969 103.927 39.95L107.951 35.9267C108.544 35.4187 109.026 34.7936 109.366 34.0905C109.706 33.3875 109.897 32.6218 109.927 31.8413C109.957 31.0609 109.826 30.2827 109.541 29.5555C109.256 28.8284 108.824 28.1679 108.272 27.6157C107.719 27.0634 107.059 26.6313 106.332 26.3464C105.605 26.0615 104.826 25.93 104.046 25.9602C103.266 25.9903 102.5 26.1815 101.797 26.5216C101.094 26.8617 100.469 27.3435 99.9607 27.9367L96.334 31.96C95.2786 33.0218 94.6862 34.458 94.6862 35.955C94.6862 37.4521 95.2786 38.8883 96.334 39.95C97.333 40.9438 98.6664 41.5296 100.074 41.5934H99.9607ZM119.001 62.3334H113.334C111.831 62.3334 110.39 62.9304 109.327 63.9931C108.264 65.0558 107.667 66.4972 107.667 68C107.667 69.5029 108.264 70.9443 109.327 72.007C110.39 73.0697 111.831 73.6667 113.334 73.6667H119.001C120.504 73.6667 121.945 73.0697 123.008 72.007C124.07 70.9443 124.667 69.5029 124.667 68C124.667 66.4972 124.07 65.0558 123.008 63.9931C121.945 62.9304 120.504 62.3334 119.001 62.3334ZM68.0007 107.667C66.4978 107.667 65.0564 108.264 63.9937 109.326C62.931 110.389 62.334 111.83 62.334 113.333V119C62.334 120.503 62.931 121.944 63.9937 123.007C65.0564 124.07 66.4978 124.667 68.0007 124.667C69.5035 124.667 70.9449 124.07 72.0076 123.007C73.0703 121.944 73.6673 120.503 73.6673 119V113.333C73.6673 111.83 73.0703 110.389 72.0076 109.326C70.9449 108.264 69.5035 107.667 68.0007 107.667ZM104.041 96.3334C102.964 95.7346 101.722 95.5029 100.502 95.6734C99.2815 95.844 98.1503 96.4075 97.2792 97.2786C96.4081 98.1497 95.8446 99.2809 95.674 100.501C95.5035 101.721 95.7352 102.963 96.334 104.04L100.357 108.063C101.419 109.119 102.855 109.711 104.352 109.711C105.849 109.711 107.286 109.119 108.347 108.063C109.403 107.002 109.995 105.565 109.995 104.068C109.995 102.571 109.403 101.135 108.347 100.073L104.041 96.3334ZM68.0007 36.8334C61.8365 36.8334 55.8107 38.6613 50.6854 42.0859C45.56 45.5105 41.5653 50.3781 39.2064 56.0731C36.8475 61.768 36.2303 68.0346 37.4328 74.0804C38.6354 80.1261 41.6038 85.6795 45.9625 90.0382C50.3212 94.3969 55.8746 97.3653 61.9203 98.5679C67.9661 99.7704 74.2327 99.1532 79.9276 96.7943C85.6226 94.4354 90.4902 90.4407 93.9148 85.3153C97.3394 80.19 99.1673 74.1642 99.1673 68C99.1523 59.7387 95.8639 51.8201 90.0223 45.9784C84.1806 40.1368 76.262 36.8484 68.0007 36.8334ZM68.0007 87.8334C64.078 87.8334 60.2434 86.6702 56.9818 84.4909C53.7203 82.3115 51.1782 79.214 49.677 75.5899C48.1759 71.9659 47.7831 67.978 48.5484 64.1307C49.3137 60.2835 51.2026 56.7495 53.9764 53.9758C56.7501 51.202 60.2841 49.3131 64.1314 48.5478C67.9786 47.7825 71.9665 48.1753 75.5905 49.6764C79.2146 51.1776 82.3122 53.7197 84.4915 56.9812C86.6708 60.2428 87.834 64.0774 87.834 68C87.834 73.2602 85.7444 78.3049 82.0249 82.0243C78.3055 85.7438 73.2608 87.8334 68.0007 87.8334Z" fill="black"/>
</svg>
