<svg width="136" height="134" viewBox="0 0 136 134" fill="none" xmlns="http://www.w3.org/2000/svg">
<path fill-rule="evenodd" clip-rule="evenodd" d="M70.6669 11H20C15.1396 11 11 15.0737 11 20.155C11 25.2364 15.1396 29.3101 20 29.3101H70.6669C75.5273 29.3101 79.6669 25.2364 79.6669 20.155C79.6669 15.0737 75.5273 11 70.6669 11ZM20 0C8.9543 0 0 9.10934 0 20.155C0 31.1766 8.91527 40.2703 19.9277 40.3099V100.678C19.9277 110.619 27.9866 118.678 37.9277 118.678H46.0952C48.4804 127.092 56.1903 133.333 65.333 133.333H116C127.046 133.333 136 124.224 136 113.178C136 102.133 127.046 93.0233 116 93.0233H65.333C56.1904 93.0233 48.4806 99.2641 46.0953 107.678H37.9277C34.0618 107.678 30.9277 104.544 30.9277 100.678V72.1666H46.0953C48.4805 80.5808 56.1903 86.8217 65.333 86.8217H116C127.046 86.8217 136 77.7123 136 66.6666C136 55.6209 127.046 46.5116 116 46.5116H65.333C56.1904 46.5116 48.4805 52.7525 46.0953 61.1666H30.9277V40.3101H70.6669C81.7126 40.3101 90.6669 31.2007 90.6669 20.155C90.6669 9.10934 81.7126 0 70.6669 0H20ZM116 57.5116H65.333C60.4726 57.5116 56.333 61.5853 56.333 66.6666C56.333 71.748 60.4726 75.8217 65.333 75.8217H116C120.86 75.8217 125 71.748 125 66.6666C125 61.5853 120.86 57.5116 116 57.5116ZM65.333 104.023H116C120.86 104.023 125 108.097 125 113.178C125 118.26 120.86 122.333 116 122.333H65.333C60.4726 122.333 56.333 118.26 56.333 113.178C56.333 108.097 60.4726 104.023 65.333 104.023Z"/>
</svg>
