<svg width="22" height="22" viewBox="0 0 22 22" fill="none" xmlns="http://www.w3.org/2000/svg">
<g clip-path="url(#clip0_1915_6599)">
<path fill-rule="evenodd" clip-rule="evenodd" d="M11.3985 2.51705H3.84634C3.12187 2.51705 2.50484 3.12425 2.50484 3.88165C2.50484 4.63905 3.12187 5.24625 3.84633 5.24625H11.3985C12.123 5.24625 12.74 4.63905 12.74 3.88165C12.74 3.12425 12.123 2.51705 11.3985 2.51705ZM3.84634 0.877441C2.19992 0.877441 0.865234 2.23523 0.865234 3.88165C0.865234 5.52448 2.1941 6.87994 3.83556 6.88584V15.884C3.83556 17.3658 5.03678 18.567 6.51855 18.567H7.73582C8.09134 19.8212 9.24053 20.7515 10.6033 20.7515H18.1555C19.8019 20.7515 21.1366 19.3937 21.1366 17.7472C21.1366 16.1008 19.8019 14.743 18.1555 14.743H10.6033C9.24055 14.743 8.09137 15.6733 7.73583 16.9274H6.51855C5.94231 16.9274 5.47517 16.4603 5.47517 15.884V11.6342H7.73582C8.09135 12.8884 9.24054 13.8186 10.6033 13.8186H18.1555C19.8019 13.8186 21.1366 12.4609 21.1366 10.8144C21.1366 9.16802 19.8019 7.81023 18.1555 7.81023H10.6033C9.24054 7.81023 8.09135 8.74046 7.73582 9.99464H5.47517V6.88586H11.3985C13.0449 6.88586 14.3796 5.52807 14.3796 3.88165C14.3796 2.23523 13.0449 0.877441 11.3985 0.877441H3.84634ZM18.1555 9.44983H10.6033C9.87884 9.44983 9.26181 10.057 9.26181 10.8144C9.26181 11.5718 9.87884 12.179 10.6033 12.179H18.1555C18.8799 12.179 19.497 11.5718 19.497 10.8144C19.497 10.057 18.8799 9.44983 18.1555 9.44983ZM10.6033 16.3826H18.1555C18.8799 16.3826 19.497 16.9898 19.497 17.7472C19.497 18.5046 18.8799 19.1118 18.1555 19.1118H10.6033C9.87884 19.1118 9.26181 18.5046 9.26181 17.7472C9.26181 16.9898 9.87884 16.3826 10.6033 16.3826Z" />
</g>
<defs>
<clipPath id="clip0_1915_6599">
<rect width="20.2715" height="20.2715" fill="white" transform="translate(0.865234 0.877441)"/>
</clipPath>
</defs>
</svg>
