<svg width="46" height="46" viewBox="0 0 46 46" fill="none" xmlns="http://www.w3.org/2000/svg">
<path fill-rule="evenodd" clip-rule="evenodd" d="M12 10C12.5522 10 13 10.4478 13 11V15C13 16.6569 14.3431 18 16 18H17V17C17 15.3431 18.3431 14 20 14H28C29.6569 14 31 15.3431 31 17V21C31 22.657 29.6569 24.0001 28 24.0001H20C18.3431 24.0001 17 22.657 17 21V20H16C14.8743 20 13.8357 19.6282 13 19.0005V27C13 28.6569 14.3431 30 16 30H21V29C21 27.343 22.3431 26 24 26H32C33.6569 26 35 27.343 35 29V33C35 34.6569 33.6569 36 32 36H24C22.3431 36 21 34.6569 21 33V32H16C13.2386 32 11 29.7613 11 27V10.9999C11 10.4477 11.4478 10 12 10ZM19 19V21C19 21.5523 19.4478 22.0001 20 22.0001H28C28.5522 22.0001 29 21.5523 29 21V17C29 16.4478 28.5522 16 28 16H20C19.4478 16 19 16.4478 19 17V19ZM24 34.0001C23.4478 34.0001 23 33.5523 23 33.0001V29.0001C23 28.4478 23.4478 28.0001 24 28.0001H32C32.5522 28.0001 33 28.4478 33 29.0001V33.0001C33 33.5523 32.5522 34.0001 32 34.0001H24Z"/>
</svg>