<svg width="37" height="37" viewBox="0 0 37 37" xmlns="http://www.w3.org/2000/svg">
<path d="M12.4135 10.5569L16.65 6.30085V24.0468C16.65 24.5375 16.8449 25.0082 17.1919 25.3552C17.5388 25.7023 18.0093 25.8972 18.5 25.8972C18.9907 25.8972 19.4612 25.7023 19.8081 25.3552C20.1551 25.0082 20.35 24.5375 20.35 24.0468V6.30085L24.5865 10.5569C24.7585 10.7303 24.9631 10.868 25.1885 10.962C25.414 11.0559 25.6558 11.1043 25.9 11.1043C26.1442 11.1043 26.386 11.0559 26.6115 10.962C26.8369 10.868 27.0415 10.7303 27.2135 10.5569C27.3869 10.3849 27.5245 10.1802 27.6185 9.95472C27.7124 9.72923 27.7607 9.48736 27.7607 9.24308C27.7607 8.9988 27.7124 8.75693 27.6185 8.53143C27.5245 8.30594 27.3869 8.10128 27.2135 7.92925L19.8135 0.527407C19.6376 0.358939 19.4301 0.226881 19.203 0.13881C18.7526 -0.0462699 18.2474 -0.0462699 17.797 0.13881C17.5699 0.226881 17.3624 0.358939 17.1865 0.527407L9.7865 7.92925C9.61401 8.10179 9.47718 8.30661 9.38383 8.53204C9.29048 8.75747 9.24243 8.99908 9.24243 9.24308C9.24243 9.48708 9.29048 9.72869 9.38383 9.95412C9.47718 10.1795 9.61401 10.3844 9.7865 10.5569C9.95899 10.7294 10.1638 10.8663 10.3891 10.9597C10.6145 11.0531 10.8561 11.1011 11.1 11.1011C11.3439 11.1011 11.5855 11.0531 11.8109 10.9597C12.0362 10.8663 12.241 10.7294 12.4135 10.5569ZM35.15 22.1963C34.6593 22.1963 34.1888 22.3913 33.8419 22.7383C33.4949 23.0853 33.3 23.556 33.3 24.0468V31.4486C33.3 31.9394 33.1051 32.4101 32.7581 32.7571C32.4112 33.1041 31.9407 33.2991 31.45 33.2991H5.55C5.05935 33.2991 4.5888 33.1041 4.24185 32.7571C3.89491 32.4101 3.7 31.9394 3.7 31.4486V24.0468C3.7 23.556 3.50509 23.0853 3.15815 22.7383C2.81121 22.3913 2.34065 22.1963 1.85 22.1963C1.35935 22.1963 0.888795 22.3913 0.541852 22.7383C0.19491 23.0853 0 23.556 0 24.0468V31.4486C0 32.9209 0.584731 34.333 1.62556 35.374C2.66638 36.4151 4.07805 37 5.55 37H31.45C32.922 37 34.3336 36.4151 35.3744 35.374C36.4153 34.333 37 32.9209 37 31.4486V24.0468C37 23.556 36.8051 23.0853 36.4581 22.7383C36.1112 22.3913 35.6407 22.1963 35.15 22.1963Z"/>
</svg>
