<svg width="50" height="50" viewBox="0 0 50 50" xmlns="http://www.w3.org/2000/svg">
<path d="M25.1352 11.0001C24.3805 11.0001 23.6258 11.2781 23.0695 11.8343L22.8708 12.0331C22.5928 12.3111 22.394 12.6291 22.2353 12.9865L21.7983 12.5495C21.1628 11.9141 20.3286 11.5961 19.4941 11.5563L19.4544 11.5563C18.6202 11.5563 17.7462 11.8741 17.1107 12.5495C16.8327 12.8275 16.634 13.1455 16.4753 13.503C15.9588 13.066 15.2835 12.8277 14.6478 12.8277L14.6081 12.8277L14.5683 12.8277C13.8534 12.8277 13.0986 13.1057 12.5424 13.662L12.0259 14.1782C11.4697 14.7344 11.1917 15.4891 11.1917 16.2438C11.1917 16.8793 11.3904 17.4753 11.7877 17.9918C11.4302 18.1508 11.1124 18.3493 10.8342 18.6273C10.278 19.1835 10 19.9383 10 20.693C10 21.4477 10.278 22.2024 10.8342 22.7586L17.8658 29.83C17.3493 29.671 16.8726 29.552 16.3564 29.552C15.6811 29.552 15.0057 29.7507 14.4099 30.148C13.8139 30.5452 13.377 31.1412 13.0592 31.8562L13.0592 31.896L13.0195 31.9755C12.9797 32.1345 12.94 32.2932 12.94 32.4919C12.94 33.0482 13.2577 33.6042 13.7742 33.8824C13.8934 33.9619 15.8001 35.0344 18.1836 36.2658C19.415 36.9013 20.7657 37.5768 22.0768 38.1725C23.3877 38.7685 24.6192 39.2847 25.6917 39.6028C25.7712 39.6425 26.9231 40 28.6313 40C29.7038 40 31.0545 39.841 32.445 39.3247C33.8355 38.8083 35.3449 37.974 36.6956 36.5838C37.8873 35.3921 38.7215 34.0414 39.2381 32.6906C39.7545 31.3399 39.953 29.9892 39.953 28.718C39.953 27.3673 39.7148 26.0961 39.357 25.0634C38.9995 24.0304 38.5228 23.1567 37.9665 22.6005L27.2406 11.8745C26.6051 11.3178 25.8901 11.0398 25.1354 11L25.1352 11.0001ZM37.4893 32.0941C37.0523 33.2063 36.4168 34.3188 35.3839 35.3515C34.1921 36.5433 32.9607 37.2582 31.7689 37.6952C30.617 38.1322 29.5045 38.2514 28.5513 38.2514C27.8363 38.2514 27.2006 38.1719 26.8033 38.0924C26.6046 38.0527 26.4458 38.0129 26.3266 37.9732C26.2868 37.9732 26.2471 37.9334 26.2073 37.9334L26.1676 37.9334C25.2538 37.6554 24.0621 37.1787 22.791 36.5827C20.8843 35.7087 18.8581 34.676 17.2691 33.8418C16.4746 33.4048 15.8388 33.0473 15.3624 32.8088C15.1241 32.6896 14.9651 32.5706 14.8061 32.4911C14.7664 32.4911 14.7664 32.4513 14.7266 32.4513C14.9254 32.0938 15.1239 31.8553 15.3621 31.6966C15.6401 31.4979 15.9184 31.4186 16.2759 31.4186C16.7129 31.4186 17.2293 31.5379 17.8251 31.8556L21.6785 33.7623C21.7977 33.8418 21.9565 33.8418 22.0757 33.8418C22.3537 33.8418 22.6319 33.7226 22.8304 33.4446C22.9497 33.2856 22.9894 33.0871 22.9894 32.9281C22.9894 32.6898 22.9099 32.4514 22.7114 32.2926L11.9855 21.5667C11.7867 21.3284 11.6678 21.0899 11.6678 20.7722C11.6678 20.4942 11.787 20.216 11.9855 19.9777C12.1842 19.779 12.4622 19.66 12.78 19.66C13.0579 19.66 13.3362 19.7792 13.5744 19.9777L21.6384 27.9622C21.7974 28.1212 22.0357 28.2402 22.2739 28.2402C22.5121 28.2402 22.7506 28.1607 22.9094 27.9622C23.0684 27.8032 23.1874 27.565 23.1874 27.3267C23.1874 27.0885 23.1079 26.85 22.9094 26.6913L13.2563 17.0382C13.0576 16.7999 12.9386 16.5614 12.9386 16.2437C12.9386 15.9657 13.0578 15.6875 13.2563 15.4492L13.7728 14.9327C14.011 14.734 14.2495 14.615 14.5673 14.615C14.8453 14.615 15.1235 14.7343 15.3617 14.9327L17.07 16.641L20.5264 20.1363L24.9755 24.5857C25.1345 24.7447 25.3728 24.8637 25.611 24.8637C25.8492 24.8637 26.0877 24.7842 26.2465 24.5857C26.4055 24.4267 26.5245 24.1884 26.5245 23.9502C26.5245 23.712 26.445 23.4735 26.2465 23.3147L18.3415 15.4098C18.1428 15.1715 18.0238 14.933 18.0238 14.6153C18.0238 14.3373 18.143 14.0591 18.3415 13.8208C18.6593 13.5031 19.0168 13.3838 19.414 13.3838C19.8112 13.3838 20.2085 13.5428 20.4864 13.8208L22.8704 16.1642L28.6305 21.964L29.266 22.5995C29.425 22.7585 29.6632 22.8775 29.9015 22.8775C30.1397 22.8775 30.3782 22.798 30.5369 22.5995C30.6959 22.4405 30.8149 22.2023 30.8149 21.964C30.8149 21.7258 30.7354 21.4873 30.5369 21.3285L24.1411 14.9327C23.9424 14.6945 23.8234 14.456 23.8234 14.1383C23.8234 13.8603 23.9426 13.582 24.1411 13.3438L24.3399 13.145C24.5781 12.9463 24.8166 12.8273 25.1343 12.8273C25.4123 12.8273 25.6906 12.9466 25.9288 13.145L36.6548 23.871C36.774 23.9902 36.9725 24.2285 37.1315 24.5462C37.2905 24.864 37.489 25.2215 37.6082 25.6585C37.8862 26.5325 38.085 27.6049 38.085 28.7571C38.0855 29.8298 37.9265 30.9818 37.4895 32.0943L37.4893 32.0941Z" fill="black"/>
</svg>
