<svg width="50" height="50" viewBox="0 0 50 50" xmlns="http://www.w3.org/2000/svg">
<circle cx="25" cy="25.0001" r="25" fill="none"/>
<path d="M25.269 19.1345C26.6868 19.1345 27.8362 17.9851 27.8362 16.5672C27.8362 15.1494 26.6868 14 25.269 14C23.8511 14 22.7017 15.1494 22.7017 16.5672C22.7017 17.9851 23.8511 19.1345 25.269 19.1345Z" fill="black"/>
<path d="M30.2622 21.8429C29.7616 21.3423 28.9016 20.4181 27.2329 20.4181C26.9633 20.4181 25.4101 20.4181 23.9725 20.4181C20.4425 20.4053 17.5 17.53 17.5 14H15C15 18.0562 17.7084 21.4963 21.4181 22.6131V39.6724H23.9853V31.9707H26.5526V39.6724H29.1198V24.3331L34.1901 29.4034L36 27.5935L30.2622 21.8429Z" fill="black"/>
</svg>
