<svg width="50" height="50" viewBox="0 0 50 50" fill="none" xmlns="http://www.w3.org/2000/svg">
<circle cx="25" cy="25" r="24.5" fill="none" />
<path d="M14 12.5724C14 11.1595 15.1093 10 16.461 10C17.8128 10 18.922 11.1595 18.922 12.5724C18.922 15.0722 20.863 17.101 23.2546 17.101H23.324C22.7694 16.3765 22.4575 15.4707 22.4575 14.4563C22.4575 12.1016 24.2945 10.1815 26.5473 10.1815C28.8001 10.1815 30.6371 12.1016 30.6371 14.4563C30.6371 15.4346 30.3252 16.3765 29.7706 17.101H29.8746C31.157 17.101 32.1968 17.4995 32.9248 18.2965C34.0686 19.5647 33.9992 21.3397 33.9992 21.3761V28.9841C33.9992 30.3971 32.8899 31.5565 31.5382 31.5565C31.2263 31.5565 30.949 31.484 30.6717 31.3753V40.034C30.6717 41.4469 29.5624 42.6064 28.2106 42.6064C27.5869 42.6064 26.9974 42.3526 26.547 41.9179C26.0963 42.3526 25.542 42.6064 24.8833 42.6064C23.5316 42.6064 22.4223 41.4469 22.4223 40.034L22.4226 22.1726C17.7087 21.7379 14 17.6078 14 12.5719L14 12.5724ZM29.0773 14.4561C29.0773 13.0071 27.9335 11.8114 26.5472 11.8114C25.1609 11.8114 24.017 13.007 24.017 14.4561C24.017 15.9051 25.1608 17.1007 26.5472 17.1007C27.9335 17.101 29.0773 15.9054 29.0773 14.4561ZM23.2196 20.5426C23.6703 20.5426 24.0168 20.905 24.0168 21.3758V40.0336C24.0168 40.5408 24.3981 40.9394 24.8833 40.9394C25.3685 40.9394 25.7498 40.5408 25.7498 40.0336V31.0489C25.7498 30.5779 26.0965 30.2157 26.5469 30.2157C26.9976 30.2157 27.3441 30.5781 27.3441 31.0489V40.0336C27.3441 40.5408 27.7253 40.9394 28.2106 40.9394C28.6958 40.9394 29.0771 40.5408 29.0771 40.0336L29.0773 28.9839V21.3758C29.0773 20.9048 29.424 20.5426 29.8745 20.5426C30.3251 20.5426 30.6716 20.905 30.6716 21.3758V28.9839C30.6716 29.4911 31.0529 29.8896 31.5381 29.8896C32.0233 29.8896 32.4046 29.4911 32.4046 28.9839V21.3396C32.4046 21.3396 32.4392 20.1802 31.7809 19.4556C31.365 18.9846 30.741 18.7672 29.9093 18.7672H23.2891C20.031 18.7672 17.3621 15.9776 17.3621 12.572C17.3621 12.0648 16.9808 11.6663 16.4956 11.6663C16.0103 11.6663 15.629 12.0648 15.629 12.572C15.5945 16.9558 19.026 20.5423 23.2197 20.5423L23.2196 20.5426Z"/>
</svg>
