<svg width="50" height="50" viewBox="0 0 50 50" fill="none" xmlns="http://www.w3.org/2000/svg">
<circle cx="25" cy="25.0001" r="25" fill="white"/>
<path d="M25 17C26.6569 17 28 15.6569 28 14C28 12.3431 26.6569 11 25 11C23.3431 11 22 12.3431 22 14C22 15.6569 23.3431 17 25 17Z" fill="black"/>
<path d="M30.4425 20.165C29.8704 19.58 28.8875 18.5 26.9804 18.5C26.6724 18.5 24.8973 18.5 23.2543 18.5C19.22 18.485 15.8571 15.125 15.8571 11H13C13 15.74 16.0954 19.76 20.335 21.065V41H23.2689V32H26.2029V41H29.1369V23.075L34.9315 29L37 26.885L30.4425 20.165Z" fill="black"/>
</svg>
