<svg width="33" height="44" viewBox="0 0 33 44" fill="none" xmlns="http://www.w3.org/2000/svg">
<path d="M9.34954 12.6964L9.81244 13.5828H9.81244L9.34954 12.6964ZM29.4496 2.19979L28.9867 1.31338V1.31338L29.4496 2.19979ZM31.0231 31.6925L30.5799 30.796L31.0231 31.6925ZM10.5437 41.8177L10.9869 42.7141L10.5437 41.8177ZM8.02782 40.2129L7.02793 40.1983L8.02782 40.2129ZM8.40719 14.232L7.40729 14.2174L8.40719 14.232ZM19.4685 22.9666C20.0161 22.8945 20.4016 22.3921 20.3295 21.8446L19.1548 12.9216C19.0827 12.374 18.5804 11.9886 18.0328 12.0607C17.4853 12.1327 17.0998 12.6351 17.1719 13.1826L18.2161 21.1142L10.2845 22.1583C9.73693 22.2304 9.35148 22.7327 9.42357 23.2803C9.49565 23.8279 9.99797 24.2133 10.5455 24.1412L19.4685 22.9666ZM21.831 21.9751C21.831 22.8867 21.0991 23.6135 20.2113 23.6135V25.6135C22.2171 25.6135 23.831 23.9778 23.831 21.9751H21.831ZM20.2113 23.6135C19.3234 23.6135 18.5916 22.8867 18.5916 21.9751H16.5916C16.5916 23.9778 18.2055 25.6135 20.2113 25.6135V23.6135ZM18.5916 21.9751C18.5916 21.0635 19.3234 20.3367 20.2113 20.3367V18.3367C18.2055 18.3367 16.5916 19.9724 16.5916 21.9751H18.5916ZM20.2113 20.3367C21.0991 20.3367 21.831 21.0635 21.831 21.9751H23.831C23.831 19.9724 22.2171 18.3367 20.2113 18.3367V20.3367ZM9.81244 13.5828L29.9125 3.0862L28.9867 1.31338L8.88665 11.8099L9.81244 13.5828ZM31 3.76129V30.1135H33V3.76129H31ZM30.5799 30.796L10.1005 40.9213L10.9869 42.7141L31.4663 32.5889L30.5799 30.796ZM9.02771 40.2275L9.40708 14.2466L7.40729 14.2174L7.02793 40.1983L9.02771 40.2275ZM10.1005 40.9213C9.61108 41.1633 9.01928 40.8048 9.02771 40.2275L7.02793 40.1983C6.99801 42.2472 9.13536 43.6295 10.9869 42.7141L10.1005 40.9213ZM31 30.1135C31 30.4068 30.8344 30.6702 30.5799 30.796L31.4663 32.5889C32.4078 32.1234 33 31.162 33 30.1135H31ZM29.9125 3.0862C30.3988 2.83227 31 3.18162 31 3.76129H33C33 1.7032 30.8255 0.353107 28.9867 1.31338L29.9125 3.0862ZM8.88665 11.8099C7.988 12.2792 7.42207 13.2053 7.40729 14.2174L9.40708 14.2466C9.41121 13.9636 9.56934 13.7097 9.81244 13.5828L8.88665 11.8099ZM19.9468 21.1818L1.60877 7.11031L0.391233 8.697L18.7293 22.7685L19.9468 21.1818Z" />
</svg>
