<svg width="47" height="36" viewBox="0 0 47 36" fill="none" xmlns="http://www.w3.org/2000/svg">
<path d="M1.97977 11.8278L2.43601 12.7177L2.43601 12.7177L1.97977 11.8278ZM22.7149 1.19658L22.2587 0.306724L22.2587 0.306724L22.7149 1.19658ZM24.3422 1.19658L23.8859 2.08643L23.8859 2.08643L24.3422 1.19658ZM45.0202 11.7986L45.4765 10.9087L45.4765 10.9087L45.0202 11.7986ZM45.0086 15.0237L45.4584 15.9168L45.4584 15.9168L45.0086 15.0237ZM23.897 25.6547L24.3468 26.5478L24.3468 26.5478L23.897 25.6547ZM22.2694 25.6426L21.8066 26.529L21.8066 26.529L22.2694 25.6426ZM1.96787 15.0409L1.50498 15.9273L1.50498 15.9273L1.96787 15.0409ZM24.684 11.8125C24.2935 11.422 23.6603 11.422 23.2698 11.8125L16.9058 18.1765C16.5153 18.567 16.5153 19.2002 16.9058 19.5907C17.2964 19.9812 17.9295 19.9812 18.32 19.5907L23.9769 13.9338L29.6337 19.5907C30.0243 19.9812 30.6574 19.9812 31.048 19.5907C31.4385 19.2002 31.4385 18.567 31.048 18.1765L24.684 11.8125ZM25.667 11.165C25.667 12.1157 24.9037 12.8742 23.9769 12.8742V14.8742C26.0216 14.8742 27.667 13.2068 27.667 11.165H25.667ZM23.9769 12.8742C23.0502 12.8742 22.2868 12.1157 22.2868 11.165H20.2868C20.2868 13.2068 21.9322 14.8742 23.9769 14.8742V12.8742ZM22.2868 11.165C22.2868 10.2143 23.0502 9.4557 23.9769 9.4557V7.4557C21.9322 7.4557 20.2868 9.1231 20.2868 11.165H22.2868ZM23.9769 9.4557C24.9037 9.4557 25.667 10.2143 25.667 11.165H27.667C27.667 9.1231 26.0216 7.4557 23.9769 7.4557V9.4557ZM2.43601 12.7177L23.1711 2.08643L22.2587 0.306724L1.52353 10.938L2.43601 12.7177ZM23.8859 2.08643L44.564 12.6884L45.4765 10.9087L24.7984 0.306725L23.8859 2.08643ZM44.5589 14.1305L23.4473 24.7615L24.3468 26.5478L45.4584 15.9168L44.5589 14.1305ZM22.7323 24.7562L2.43077 14.1545L1.50498 15.9273L21.8066 26.529L22.7323 24.7562ZM23.4473 24.7615C23.2217 24.8751 22.9564 24.8732 22.7323 24.7562L21.8066 26.529C22.6013 26.944 23.546 26.9511 24.3468 26.5478L23.4473 24.7615ZM44.564 12.6884C45.1478 12.9878 45.1446 13.8356 44.5589 14.1305L45.4584 15.9168C47.5056 14.8859 47.516 11.9544 45.4765 10.9087L44.564 12.6884ZM23.1711 2.08643C23.3959 1.97119 23.6612 1.97119 23.8859 2.08643L24.7984 0.306725C24.0008 -0.102242 23.0563 -0.102241 22.2587 0.306724L23.1711 2.08643ZM1.52353 10.938C-0.499441 11.9752 -0.510008 14.8751 1.50498 15.9273L2.43077 14.1545C1.85391 13.8532 1.85718 13.0145 2.43601 12.7177L1.52353 10.938ZM22.9769 12.5196L22.9769 36L24.9769 36L24.9769 12.5196L22.9769 12.5196Z"/>
</svg>
