<svg width="33" height="42" viewBox="0 0 33 42" fill="none" xmlns="http://www.w3.org/2000/svg">
<path d="M2.34264 11.6964L2.7999 12.5857L2.7999 12.5857L2.34264 11.6964ZM22.7577 1.19979L22.3004 0.310458L22.3004 0.310458L22.7577 1.19979ZM24.3559 30.6925L23.9182 29.7933L23.9182 29.7933L24.3559 30.6925ZM3.55555 40.8177L3.99323 41.7168L3.99323 41.7168L3.55555 40.8177ZM1.0002 39.2129L0.000312875 39.1981L0.000312874 39.1981L1.0002 39.2129ZM1.38552 13.232L2.38541 13.2468L1.38552 13.232ZM13.2366 19.9847C12.6896 20.0609 12.308 20.5661 12.3841 21.1131L13.6257 30.027C13.7019 30.574 14.2071 30.9557 14.7541 30.8795C15.3011 30.8033 15.6827 30.2981 15.6065 29.7511L14.503 21.8276L22.4265 20.724C22.9735 20.6478 23.3552 20.1426 23.279 19.5956C23.2028 19.0486 22.6976 18.667 22.1506 18.7431L13.2366 19.9847ZM15.0354 20.9751C15.0354 21.872 14.2998 22.6135 13.3746 22.6135V24.6135C15.3884 24.6135 17.0354 22.9925 17.0354 20.9751H15.0354ZM13.3746 22.6135C12.4494 22.6135 11.7138 21.872 11.7138 20.9751H9.71382C9.71382 22.9925 11.3608 24.6135 13.3746 24.6135V22.6135ZM11.7138 20.9751C11.7138 20.0782 12.4494 19.3367 13.3746 19.3367V17.3367C11.3608 17.3367 9.71382 18.9577 9.71382 20.9751H11.7138ZM13.3746 19.3367C14.2998 19.3367 15.0354 20.0782 15.0354 20.9751H17.0354C17.0354 18.9577 15.3884 17.3367 13.3746 17.3367V19.3367ZM2.7999 12.5857L23.2149 2.08913L22.3004 0.310458L1.88538 10.807L2.7999 12.5857ZM24.3481 2.76129V29.1135H26.3481V2.76129H24.3481ZM23.9182 29.7933L3.11787 39.9186L3.99323 41.7168L24.7936 31.5916L23.9182 29.7933ZM2.00009 39.2277L2.38541 13.2468L0.385625 13.2172L0.000312875 39.1981L2.00009 39.2277ZM3.11787 39.9186C2.58636 40.1773 1.99188 39.7816 2.00009 39.2277L0.000312874 39.1981C-0.0304208 41.2704 2.14701 42.6155 3.99323 41.7168L3.11787 39.9186ZM24.3481 29.1135C24.3481 29.3984 24.1846 29.6637 23.9182 29.7933L24.7936 31.5916C25.7419 31.13 26.3481 30.1703 26.3481 29.1135H24.3481ZM23.2149 2.08913C23.7427 1.81779 24.3481 2.20468 24.3481 2.76129H26.3481C26.3481 0.680141 24.1342 -0.632415 22.3004 0.310458L23.2149 2.08913ZM1.88538 10.807C0.97982 11.2726 0.400753 12.1971 0.385625 13.2172L2.38541 13.2468C2.38949 12.9717 2.54582 12.7163 2.7999 12.5857L1.88538 10.807ZM12.7718 21.773L31.3972 35.8445L32.6028 34.2487L13.9774 20.1772L12.7718 21.773Z"/>
</svg>
