<svg width="34" height="42" viewBox="0 0 34 42" fill="none" xmlns="http://www.w3.org/2000/svg">
<path d="M11.0811 1.18334L10.642 2.08179L10.642 2.08179L11.0811 1.18334ZM32.0051 11.4087L32.4442 10.5102L32.4442 10.5102L32.0051 11.4087ZM32.9998 13.0241L33.9997 13.0389L33.9997 13.0389L32.9998 13.0241ZM32.6123 39.2533L33.6122 39.2681L33.6122 39.2681L32.6123 39.2533ZM30.0737 40.8281L30.4995 39.9233L30.4995 39.9233L30.0737 40.8281ZM9.14968 30.9815L9.57548 30.0767L9.57548 30.0767L9.14968 30.9815ZM8.13136 29.3551L7.13146 29.3405L7.13146 29.3405L8.13136 29.3551ZM8.51873 2.74712L7.51884 2.73256L8.51873 2.74712ZM21.8225 21.5151C21.9161 20.9708 21.5507 20.4537 21.0064 20.3602L12.1364 18.8356C11.5921 18.7421 11.075 19.1075 10.9815 19.6518C10.8879 20.1961 11.2533 20.7132 11.7976 20.8067L19.682 22.1619L18.3269 30.0463C18.2333 30.5906 18.5987 31.1076 19.143 31.2012C19.6873 31.2947 20.2044 30.9293 20.298 30.385L21.8225 21.5151ZM0.422892 34.5471C-0.0281415 34.8658 -0.135396 35.4898 0.183332 35.9409C0.502061 36.3919 1.12608 36.4992 1.57711 36.1804L0.422892 34.5471ZM22.2336 21.1987C22.2336 22.109 21.4911 22.8546 20.5656 22.8546V24.8546C22.5871 24.8546 24.2336 23.2221 24.2336 21.1987H22.2336ZM20.5656 22.8546C19.6401 22.8546 18.8975 22.109 18.8975 21.1987H16.8975C16.8975 23.2221 18.5441 24.8546 20.5656 24.8546V22.8546ZM18.8975 21.1987C18.8975 20.2884 19.6401 19.5427 20.5656 19.5427V17.5427C18.5441 17.5427 16.8975 19.1753 16.8975 21.1987H18.8975ZM20.5656 19.5427C21.4911 19.5427 22.2336 20.2884 22.2336 21.1987H24.2336C24.2336 19.1753 22.5871 17.5427 20.5656 17.5427V19.5427ZM10.642 2.08179L31.5661 12.3071L32.4442 10.5102L11.5201 0.28488L10.642 2.08179ZM31.9999 13.0094L31.6124 39.2386L33.6122 39.2681L33.9997 13.0389L31.9999 13.0094ZM30.4995 39.9233L9.57548 30.0767L8.72389 31.8863L29.6479 41.7329L30.4995 39.9233ZM9.13125 29.3696L9.51863 2.76167L7.51884 2.73256L7.13146 29.3405L9.13125 29.3696ZM9.57548 30.0767C9.29871 29.9465 9.12689 29.6691 9.13125 29.3696L7.13146 29.3405C7.11562 30.429 7.74003 31.4234 8.72389 31.8864L9.57548 30.0767ZM31.6124 39.2386C31.6043 39.7928 31.0181 40.1673 30.4995 39.9233L29.6479 41.7329C31.4686 42.5897 33.5824 41.2895 33.6122 39.2681L31.6124 39.2386ZM31.5661 12.3071C31.8371 12.4396 32.0043 12.7139 31.9999 13.0094L33.9997 13.0389C34.0156 11.9651 33.408 10.9812 32.4442 10.5102L31.5661 12.3071ZM11.5201 0.28488C9.69615 -0.60647 7.54853 0.693073 7.51884 2.73256L9.51863 2.76167C9.52677 2.20253 10.1224 1.82788 10.642 2.08179L11.5201 0.28488ZM20.2599 20.529L0.422892 34.5471L1.57711 36.1804L21.4141 22.1624L20.2599 20.529Z"/>
</svg>
