<svg width="33" height="44" viewBox="0 0 33 44" fill="none" xmlns="http://www.w3.org/2000/svg">
<path d="M3.8466 2.18334L3.39481 3.07546L3.39481 3.07546L3.8466 2.18334ZM24.0381 12.4087L24.4898 11.5165L24.4898 11.5165L24.0381 12.4087ZM24.9979 14.0241L25.9978 14.0384L25.9978 14.0384L24.9979 14.0241ZM24.624 40.2533L25.6239 40.2676L25.6239 40.2676L24.624 40.2533ZM22.1742 41.8281L22.6125 40.9293L22.6125 40.9293L22.1742 41.8281ZM1.98285 31.9815L2.42117 31.0827L2.42117 31.0827L1.98285 31.9815ZM1.00018 30.3551L0.000279966 30.341L1.00018 30.3551ZM1.37399 3.74712L0.374093 3.73307L1.37399 3.74712ZM12.0091 22.5188C11.9305 23.0655 12.3099 23.5724 12.8565 23.6511L21.7648 24.9327C22.3114 25.0114 22.8184 24.632 22.897 24.0853C22.9757 23.5387 22.5963 23.0318 22.0496 22.9531L14.1311 21.8138L15.2704 13.8954C15.3491 13.3487 14.9697 12.8418 14.423 12.7632C13.8764 12.6845 13.3694 13.0639 13.2908 13.6106L12.0091 22.5188ZM32.5992 9.24063C33.0414 8.9097 33.1315 8.28299 32.8006 7.84083C32.4697 7.39867 31.843 7.3085 31.4008 7.63943L32.5992 9.24063ZM14.5736 22.1987C14.5736 23.1428 13.8396 23.8546 12.999 23.8546V25.8546C15.0023 25.8546 16.5736 24.1883 16.5736 22.1987H14.5736ZM12.999 23.8546C12.1585 23.8546 11.4244 23.1428 11.4244 22.1987H9.42442C9.42442 24.1883 10.9957 25.8546 12.999 25.8546V23.8546ZM11.4244 22.1987C11.4244 21.2546 12.1585 20.5427 12.999 20.5427V18.5427C10.9957 18.5427 9.42442 20.2091 9.42442 22.1987H11.4244ZM12.999 20.5427C13.8396 20.5427 14.5736 21.2546 14.5736 22.1987H16.5736C16.5736 20.2091 15.0023 18.5427 12.999 18.5427V20.5427ZM3.39481 3.07546L23.5863 13.3008L24.4898 11.5165L4.29839 1.29121L3.39481 3.07546ZM23.998 14.0099L23.6241 40.2391L25.6239 40.2676L25.9978 14.0384L23.998 14.0099ZM22.6125 40.9293L2.42117 31.0827L1.54453 32.8803L21.7359 42.7269L22.6125 40.9293ZM2.00008 30.3691L2.3739 3.76116L0.374093 3.73307L0.000279966 30.341L2.00008 30.3691ZM2.42117 31.0827C2.17246 30.9614 1.9956 30.6885 2.00008 30.3691L0.000279966 30.341C-0.0147328 31.4096 0.576755 32.4084 1.54453 32.8804L2.42117 31.0827ZM23.6241 40.2391C23.6155 40.8439 23.0384 41.1369 22.6125 40.9293L21.7359 42.7269C23.5676 43.6201 25.5958 42.2384 25.6239 40.2676L23.6241 40.2391ZM23.5863 13.3008C23.8304 13.4244 24.0025 13.695 23.998 14.0099L25.9978 14.0384C26.0128 12.984 25.4374 11.9964 24.4898 11.5165L23.5863 13.3008ZM4.29839 1.29121C2.4634 0.36194 0.402025 1.74487 0.374093 3.73307L2.3739 3.76116C2.38247 3.15074 2.96829 2.85947 3.39481 3.07546L4.29839 1.29121ZM13.5981 23.4618L32.5992 9.24063L31.4008 7.63943L12.3997 21.8607L13.5981 23.4618Z"/>
</svg>
