<svg width="35" height="34" viewBox="0 0 35 34" fill="none" xmlns="http://www.w3.org/2000/svg">
<path fill-rule="evenodd" clip-rule="evenodd" d="M3.45002 3.99999C3.45002 3.69623 3.69626 3.44999 4.00002 3.44999H9.76788V0.549988H4.00002C2.09464 0.549988 0.550018 2.09461 0.550018 3.99999V9.49999H3.45002V3.99999ZM25.3036 3.44999H31.0714C31.3752 3.44999 31.6214 3.69623 31.6214 3.99999V9.49999H34.5215V3.99999C34.5215 2.0946 32.9768 0.549988 31.0714 0.549988H25.3036V3.44999ZM3.45002 30V24.5H0.550018V30C0.550018 31.9054 2.09464 33.45 4.00002 33.45H9.76788V30.55H4.00002C3.69626 30.55 3.45002 30.3037 3.45002 30ZM31.6214 24.5V30C31.6214 30.3037 31.3752 30.55 31.0714 30.55H25.3036V33.45H31.0714C32.9768 33.45 34.5215 31.9054 34.5215 30V24.5H31.6214ZM13 12H22C22.5523 12 23 12.4477 23 13V22C23 22.5523 22.5523 23 22 23H13C12.4477 23 12 22.5523 12 22V13C12 12.4477 12.4477 12 13 12ZM9 13C9 10.7909 10.7909 9 13 9H22C24.2091 9 26 10.7909 26 13V22C26 24.2091 24.2091 26 22 26H13C10.7909 26 9 24.2091 9 22V13Z" />
</svg>
