<svg width="35" height="34" viewBox="0 0 35 34" fill="none" xmlns="http://www.w3.org/2000/svg">
<path fill-rule="evenodd" clip-rule="evenodd" d="M4.00002 3.59999C3.77911 3.59999 3.60002 3.77908 3.60002 3.99999V9.49999H0.400024V3.99999C0.400024 2.01177 2.0118 0.399994 4.00002 0.399994H9.76788V3.59999H4.00002ZM31.0715 3.59999H25.3036V0.399994H31.0715C33.0597 0.399994 34.6715 2.01177 34.6715 3.99999V9.49999H31.4715V3.99999C31.4715 3.77908 31.2924 3.59999 31.0715 3.59999ZM3.60002 24.5V30C3.60002 30.2209 3.77911 30.4 4.00003 30.4H9.76788V33.6H4.00003C2.0118 33.6 0.400024 31.9882 0.400024 30V24.5H3.60002ZM31.4715 30V24.5H34.6715V30C34.6715 31.9882 33.0597 33.6 31.0715 33.6H25.3036V30.4H31.0715C31.2924 30.4 31.4715 30.2209 31.4715 30Z"/>
<path fill-rule="evenodd" clip-rule="evenodd" d="M18.4071 7.7847L18.2849 7.7126L18.1604 7.78046L10.8804 11.7471L10.75 11.8182V11.9667V21.0333V21.1761L10.8729 21.2486L17.5929 25.2153L17.7151 25.2874L17.8396 25.2195L18.2425 25H18.25V24.9959L25.1196 21.2529L25.25 21.1818V21.0333V11.9667V11.8239L25.1271 11.7514L18.4071 7.7847ZM18.25 24.4265L24.75 20.8848V12.4226L18.2392 16H18.25V24.4265ZM24.5243 11.9761L18.2751 8.28738L11.4757 11.9922L17.725 15.712L24.5243 11.9761ZM11.25 12.4397V20.8906L17.7249 24.7126L17.75 24.6989V16.2688L17.715 16.288L17.5921 16.2148L11.25 12.4397Z" />
</svg>
