<svg width="47" height="36" viewBox="0 0 47 36" fill="none" xmlns="http://www.w3.org/2000/svg">
<path d="M1.97977 21.3351L2.42686 22.2295L2.42686 22.2295L1.97977 21.3351ZM22.7149 10.9712L22.2678 10.0767L22.2678 10.0767L22.7149 10.9712ZM24.3422 10.9712L23.8951 11.8657L23.8951 11.8657L24.3422 10.9712ZM45.0202 21.3065L45.4673 20.412L45.4673 20.412L45.0202 21.3065ZM45.0086 24.4505L45.4493 25.3482L45.4493 25.3482L45.0086 24.4505ZM23.897 34.8141L24.3377 35.7118L24.3377 35.7118L23.897 34.8141ZM22.2694 34.8024L21.8158 35.6935L21.8158 35.6935L22.2694 34.8024ZM1.96787 24.4673L1.5142 25.3585L1.5142 25.3585L1.96787 24.4673ZM23.2698 23.5969C23.6603 23.9874 24.2935 23.9874 24.684 23.5969L31.048 17.233C31.4385 16.8424 31.4385 16.2093 31.048 15.8187C30.6574 15.4282 30.0243 15.4282 29.6337 15.8187L23.9769 21.4756L18.32 15.8187C17.9295 15.4282 17.2964 15.4282 16.9058 15.8187C16.5153 16.2093 16.5153 16.8424 16.9058 17.233L23.2698 23.5969ZM25.667 22.8898C25.667 23.7789 24.9277 24.5309 23.9769 24.5309V26.5309C25.9975 26.5309 27.667 24.918 27.667 22.8898H25.667ZM23.9769 24.5309C23.0261 24.5309 22.2868 23.7789 22.2868 22.8898H20.2868C20.2868 24.918 21.9563 26.5309 23.9769 26.5309V24.5309ZM22.2868 22.8898C22.2868 22.0007 23.0261 21.2487 23.9769 21.2487V19.2487C21.9563 19.2487 20.2868 20.8616 20.2868 22.8898H22.2868ZM23.9769 21.2487C24.9277 21.2487 25.667 22.0007 25.667 22.8898H27.667C27.667 20.8616 25.9975 19.2487 23.9769 19.2487V21.2487ZM2.42686 22.2295L23.162 11.8657L22.2678 10.0767L1.53269 20.4406L2.42686 22.2295ZM23.8951 11.8657L44.5731 22.201L45.4673 20.412L24.7893 10.0767L23.8951 11.8657ZM44.568 23.5528L23.4564 33.9164L24.3377 35.7118L45.4493 25.3482L44.568 23.5528ZM22.7231 33.9112L2.42155 23.5761L1.5142 25.3585L21.8158 35.6935L22.7231 33.9112ZM23.4564 33.9164C23.2256 34.0297 22.9519 34.0277 22.7231 33.9112L21.8158 35.6935C22.6057 36.0957 23.542 36.1024 24.3377 35.7118L23.4564 33.9164ZM44.5731 22.201C45.1444 22.4865 45.1419 23.2711 44.568 23.5528L45.4493 25.3482C47.5083 24.3374 47.5195 21.4377 45.4673 20.412L44.5731 22.201ZM23.162 11.8657C23.3917 11.7509 23.6653 11.7509 23.8951 11.8657L24.7893 10.0767C23.9966 9.68052 23.0605 9.68052 22.2678 10.0767L23.162 11.8657ZM1.53269 20.4406C-0.502107 21.4576 -0.513468 24.3262 1.5142 25.3585L2.42155 23.5761C1.85737 23.2889 1.85985 22.513 2.42686 22.2295L1.53269 20.4406ZM24.9769 22.8898V0H22.9769V22.8898H24.9769Z"/>
</svg>
