<svg width="116" height="116" viewBox="0 0 116 116" fill="none" xmlns="http://www.w3.org/2000/svg">
<path d="M42.7639 47.1423L4.5029 49.5771C1.25089 49.7841 0.61465 54.2979 3.68277 55.3957L42.8986 69.427C43.8919 69.7825 44.6256 70.6335 44.8307 71.6684L52.9096 112.43C53.5316 115.569 57.978 115.683 58.7611 112.581L67.9577 76.1484C68.28 74.8714 69.3975 73.954 70.7128 73.8865L111.87 71.7759C115.151 71.6077 115.814 67.0462 112.716 65.9513L70.6406 51.0799C69.626 50.7213 68.8812 49.8468 68.6887 48.788L60.6199 4.40943C60.0361 1.19838 55.4691 1.09703 54.7434 4.27902L45.4982 44.8155C45.2027 46.1111 44.0901 47.0579 42.7639 47.1423Z" fill="#56F553" stroke-width="2"/>
</svg>
