<svg width="31" height="33" viewBox="0 0 31 33" fill="none" xmlns="http://www.w3.org/2000/svg">
<path fill-rule="evenodd" clip-rule="evenodd" d="M19.2416 0.562213L30.2292 6.55546C30.2567 6.56964 30.2826 6.58626 30.3067 6.605C30.343 6.63314 30.3746 6.66566 30.4012 6.70139C30.4069 6.70908 30.4124 6.71692 30.4176 6.72489C30.4321 6.74686 30.4449 6.77019 30.456 6.79477C30.4644 6.81357 30.4717 6.83287 30.4778 6.85253C30.4783 6.85418 30.4788 6.85582 30.4793 6.85748C30.483 6.8701 30.4863 6.88288 30.489 6.89577C30.4996 6.94522 30.5027 6.99638 30.4979 7.04744C30.4973 7.05387 30.4965 7.06031 30.4957 7.06674L28.498 25.0457C28.4962 25.0652 28.4932 25.0846 28.4892 25.1037C28.4586 25.2485 28.3667 25.3675 28.2444 25.4362C28.2274 25.4458 28.2098 25.4544 28.1916 25.4619L12.212 32.453C12.1942 32.4613 12.1758 32.4686 12.157 32.4748C12.1436 32.4793 12.1302 32.4831 12.1166 32.4863C12.1117 32.4875 12.1069 32.4886 12.102 32.4896C12.0546 32.4995 12.0068 32.5023 11.96 32.4985C11.8996 32.4937 11.8418 32.4781 11.7889 32.4534C11.7527 32.4365 11.7182 32.4152 11.6863 32.3895C11.6569 32.3658 11.6299 32.3386 11.6061 32.3081L2.61789 21.3226C2.58632 21.2852 2.56003 21.2431 2.54034 21.1971C2.52061 21.1511 2.50819 21.103 2.50292 21.0544L0.504516 5.06724C0.497494 5.01593 0.498605 4.9651 0.506943 4.91616C0.509044 4.90383 0.511605 4.89161 0.51461 4.87954C0.529712 4.8185 0.556576 4.75952 0.595508 4.70606C0.636887 4.64907 0.690337 4.60064 0.753145 4.56502C0.796992 4.54011 0.845208 4.52156 0.896706 4.51074L18.8891 0.512427C18.9084 0.508043 18.9279 0.504789 18.9476 0.502696C18.989 0.498274 19.0301 0.499124 19.07 0.504767C19.1307 0.513362 19.1888 0.533077 19.2416 0.562213ZM1.65377 6.19898L3.47826 20.7949L11.3759 30.4476L10.0138 13.194L1.65377 6.19898ZM12.4432 31.2603L27.535 24.6577L29.4188 7.70267L11.0314 13.3781L12.4432 31.2603ZM28.7206 6.87165L10.6734 12.4421L2.09931 5.26789L18.9253 1.52878L28.7206 6.87165Z" />
</svg>
