<svg width="31" height="34" viewBox="0 0 31 34" fill="none" xmlns="http://www.w3.org/2000/svg">
<path fill-rule="evenodd" clip-rule="evenodd" d="M12.3773 0.962902L12.6738 1.01522L29.6738 4.01522L30.5491 4.16968L30.4984 5.05705L29.4984 22.5571L29.4775 22.9222L29.226 23.1877L20.226 32.6877L19.8036 33.1335L19.215 32.9585L0.71503 27.4585L0 27.246V26.5V7V6.34435L0.601274 6.08293L12.1013 1.08293L12.3773 0.962902ZM12.6227 3.0371L4.12612 6.73125L19.3169 10.4263L26.8282 5.54396L12.6227 3.0371ZM2 25.754V8.2724L18.5 12.2859V30.6594L2 25.754ZM20.5 29.4904L27.5225 22.0778L28.3889 6.91487L20.5 12.0427V29.4904Z" />
</svg>
