<svg width="31" height="32" viewBox="0 0 31 32" fill="none" xmlns="http://www.w3.org/2000/svg">
<path d="M29.5 4.5L20 10.5V30.5L28.5 21.5L29.5 4.5Z" fill="#459A47"/>
<path d="M19 11L1.5 6.5V25.5L19 30.5V11Z" fill="#459A47"/>
<path d="M12.5 1.5L2 6L19.5 10L29 4L12.5 1.5Z" fill="#459A47"/>
<path fill-rule="evenodd" clip-rule="evenodd" d="M12.4387 0.481451L12.5869 0.507608L29.5869 3.50761L30.0245 3.58484L29.9992 4.02852L28.9992 21.5285L28.9888 21.7111L28.863 21.8439L19.863 31.3439L19.6518 31.5668L19.3575 31.4793L0.857515 25.9793L0.5 25.873V25.5V6V5.67218L0.800637 5.54146L12.3006 0.541465L12.4387 0.481451ZM12.5613 1.51855L2.56306 5.86562L19.4085 9.96316L28.1641 4.27198L12.5613 1.51855ZM1.5 25.127V6.6362L19 10.893V30.3297L1.5 25.127ZM20 29.7452L28.0112 21.2889L28.9445 4.95744L20 10.7713V29.7452Z" />
</svg>
