<svg width="34" height="34" viewBox="0 0 34 34" fill="none" xmlns="http://www.w3.org/2000/svg">
<path fill-rule="evenodd" clip-rule="evenodd" d="M26.324 1.43347L25.9575 0.900412L25.3211 1.01613L3.3211 5.01613L2.55525 5.15538L2.5023 5.93198L1.0023 27.932L0.951924 28.6708L1.64399 28.9345L12.144 32.9345L12.3533 33.0142L12.5767 32.9971L32.0767 31.4971L33.0462 31.4225L32.9988 30.4513L31.9988 9.95128L31.985 9.66755L31.824 9.43347L26.324 1.43347ZM3.0736 26.9544L4.44472 6.84462L24.5237 3.19391L24.9806 26.0416L3.0736 26.9544ZM6.90032 28.7967L12.6466 30.9858L28.7275 29.7488L25.749 28.0113L6.90032 28.7967ZM30.9113 28.7073L30.015 10.3324L26.5665 5.31645L26.9886 26.419L30.9113 28.7073Z" />
</svg>
