<svg width="31" height="34" viewBox="0 0 31 34" fill="none" xmlns="http://www.w3.org/2000/svg">
<path fill-rule="evenodd" clip-rule="evenodd" d="M3.69085 6.03756L19.3396 2.56006L27.5199 7.23454L11.2234 12.3808L3.69085 6.03756ZM20.0298 0.650947C19.7922 0.515186 19.5125 0.472846 19.2454 0.532209L1.4805 4.47996C1.44568 4.4877 1.4118 4.49687 1.37887 4.50738C1.37792 4.50749 1.37696 4.50761 1.37601 4.50773C0.82799 4.57623 0.439264 5.07602 0.507766 5.62404L2.50777 21.624L2.54353 21.9101L2.72609 22.1332L11.7261 33.1332L12.2062 33.7201L12.9009 33.4162L28.9009 26.4162L29.4471 26.1772L29.4966 25.5831L30.9966 7.58305C31.0332 7.14402 30.7803 6.74764 30.3972 6.58195C30.3657 6.55951 30.3326 6.53829 30.2978 6.51839L20.0298 0.650947ZM28.8797 8.90248L12.0595 14.2141L13.3864 31.0207L27.553 24.8228L28.8797 8.90248ZM10.0361 13.9956L2.80903 7.90966L4.45656 21.0899L11.2518 29.3952L10.0361 13.9956Z" />
</svg>
