<svg width="32" height="32" viewBox="0 0 32 32" fill="none" xmlns="http://www.w3.org/2000/svg">
<path fill-rule="evenodd" clip-rule="evenodd" d="M24.912 0.716736L24.7288 0.450206L24.4106 0.508065L2.41056 4.50807L2.02763 4.57769L2.00116 4.96599L0.501158 26.966L0.475969 27.3354L0.822002 27.4672L11.322 31.4672L11.4267 31.5071L11.5383 31.4985L31.0383 29.9985L31.5231 29.9612L31.4994 29.4756L30.4994 8.97564L30.4925 8.83378L30.412 8.71674L24.912 0.716736ZM1.53681 26.4772L2.97237 5.42231L24.0118 1.59695L24.4903 25.5208L1.53681 26.4772ZM3.45016 27.3983L11.5733 30.4929L29.3638 29.1244L24.8745 26.5057L3.45016 27.3983ZM30.4557 28.6036L29.5075 9.16622L25.0333 2.65823L25.4943 25.7095L30.4557 28.6036Z" />
</svg>
