<svg width="38" height="38" viewBox="0 0 38 38" fill="none" xmlns="http://www.w3.org/2000/svg">
<path d="M35.625 16.625H21.375V2.375C21.375 1.74511 21.1248 1.14102 20.6794 0.695622C20.234 0.250223 19.6299 0 19 0C18.3701 0 17.766 0.250223 17.3206 0.695622C16.8752 1.14102 16.625 1.74511 16.625 2.375V16.625H2.375C1.74511 16.625 1.14102 16.8752 0.695622 17.3206C0.250223 17.766 0 18.3701 0 19C0 19.6299 0.250223 20.234 0.695622 20.6794C1.14102 21.1248 1.74511 21.375 2.375 21.375H16.625V35.625C16.625 36.2549 16.8752 36.859 17.3206 37.3044C17.766 37.7498 18.3701 38 19 38C19.6299 38 20.234 37.7498 20.6794 37.3044C21.1248 36.859 21.375 36.2549 21.375 35.625V21.375H35.625C36.2549 21.375 36.859 21.1248 37.3044 20.6794C37.7498 20.234 38 19.6299 38 19C38 18.3701 37.7498 17.766 37.3044 17.3206C36.859 16.8752 36.2549 16.625 35.625 16.625Z" />
</svg>
