<svg width="44" height="44" viewBox="0 0 44 44" fill="none" xmlns="http://www.w3.org/2000/svg">
<path d="M23.0849 21.8375H22.1494V20.902C22.1494 20.8607 22.1329 20.821 22.1037 20.7918C22.0744 20.7625 22.0348 20.7461 21.9934 20.7461C21.9521 20.7461 21.9124 20.7625 21.8832 20.7918C21.8539 20.821 21.8375 20.8607 21.8375 20.902V21.8375H20.902C20.8607 21.8375 20.821 21.8539 20.7918 21.8832C20.7625 21.9124 20.7461 21.9521 20.7461 21.9934C20.7461 22.0348 20.7625 22.0744 20.7918 22.1037C20.821 22.1329 20.8607 22.1494 20.902 22.1494H21.8375V23.0849C21.8375 23.1262 21.8539 23.1659 21.8832 23.1951C21.9124 23.2243 21.9521 23.2408 21.9934 23.2408C22.0348 23.2408 22.0744 23.2243 22.1037 23.1951C22.1329 23.1659 22.1494 23.1262 22.1494 23.0849V22.1494H23.0849C23.1262 22.1494 23.1659 22.1329 23.1951 22.1037C23.2243 22.0744 23.2408 22.0348 23.2408 21.9934C23.2408 21.9521 23.2243 21.9124 23.1951 21.8832C23.1659 21.8539 23.1262 21.8375 23.0849 21.8375Z" fill="black"/>
<path d="M37.4 17.6C36.8165 17.6 36.2569 17.8318 35.8444 18.2444C35.4318 18.6569 35.2 19.2165 35.2 19.8V27.236L31.944 23.98C30.7943 22.8394 29.2405 22.1994 27.621 22.1994C26.0015 22.1994 24.4477 22.8394 23.298 23.98L21.758 25.542L16.302 20.064C15.1523 18.9234 13.5985 18.2834 11.979 18.2834C10.3595 18.2834 8.80567 18.9234 7.656 20.064L4.4 23.342V11C4.4 10.4165 4.63179 9.85695 5.04437 9.44437C5.45695 9.03179 6.01652 8.8 6.6 8.8H24.2C24.7835 8.8 25.3431 8.56821 25.7556 8.15563C26.1682 7.74305 26.4 7.18348 26.4 6.6C26.4 6.01652 26.1682 5.45695 25.7556 5.04437C25.3431 4.63179 24.7835 4.4 24.2 4.4H6.6C4.84957 4.4 3.17084 5.09536 1.9331 6.3331C0.695355 7.57084 0 9.24957 0 11V37.884C0.00579712 39.5043 0.652021 41.0565 1.79774 42.2023C2.94346 43.348 4.49572 43.9942 6.116 44H33.484C34.0802 43.9952 34.6727 43.9064 35.244 43.736C36.5144 43.3797 37.6327 42.6164 38.4275 41.5633C39.2223 40.5102 39.6497 39.2254 39.644 37.906V19.8C39.6441 19.5074 39.5857 19.2176 39.4724 18.9478C39.3591 18.678 39.1931 18.4335 38.9842 18.2286C38.7752 18.0237 38.5274 17.8626 38.2554 17.7547C37.9834 17.6467 37.6926 17.5941 37.4 17.6ZM6.6 39.6C6.01652 39.6 5.45695 39.3682 5.04437 38.9556C4.63179 38.5431 4.4 37.9835 4.4 37.4V29.546L10.758 23.188C11.0795 22.8683 11.5146 22.6888 11.968 22.6888C12.4215 22.6888 12.8565 22.8683 13.178 23.188L29.612 39.6H6.6ZM35.2 37.4C35.1859 37.826 35.0483 38.2387 34.804 38.588L24.86 28.6L26.422 27.06C26.5797 26.899 26.768 26.7711 26.9758 26.6838C27.1835 26.5965 27.4066 26.5516 27.632 26.5516C27.8574 26.5516 28.0805 26.5965 28.2882 26.6838C28.496 26.7711 28.6843 26.899 28.842 27.06L35.2 33.462V37.4ZM41.8 4.4H39.6V2.2C39.6 1.61652 39.3682 1.05695 38.9556 0.644365C38.5431 0.231785 37.9835 0 37.4 0C36.8165 0 36.2569 0.231785 35.8444 0.644365C35.4318 1.05695 35.2 1.61652 35.2 2.2V4.4H33C32.4165 4.4 31.8569 4.63179 31.4444 5.04437C31.0318 5.45695 30.8 6.01652 30.8 6.6C30.8 7.18348 31.0318 7.74305 31.4444 8.15563C31.8569 8.56821 32.4165 8.8 33 8.8H35.2V11C35.2 11.5835 35.4318 12.1431 35.8444 12.5556C36.2569 12.9682 36.8165 13.2 37.4 13.2C37.9835 13.2 38.5431 12.9682 38.9556 12.5556C39.3682 12.1431 39.6 11.5835 39.6 11V8.8H41.8C42.3835 8.8 42.9431 8.56821 43.3556 8.15563C43.7682 7.74305 44 7.18348 44 6.6C44 6.01652 43.7682 5.45695 43.3556 5.04437C42.9431 4.63179 42.3835 4.4 41.8 4.4Z" />
</svg>
