<svg width="40" height="40" viewBox="0 0 40 40" fill="none" xmlns="http://www.w3.org/2000/svg">
<path fill-rule="evenodd" clip-rule="evenodd" d="M6 0H34C35.5913 0 37.1174 0.632141 38.2426 1.75736C39.3679 2.88258 40 4.4087 40 6V38C39.998 38.3949 39.8792 38.7803 39.6586 39.1077C39.4379 39.4352 39.1252 39.69 38.76 39.84C38.5226 39.952 38.2624 40.0068 38 40C37.7368 40.0015 37.4759 39.9511 37.2322 39.8516C36.9885 39.752 36.7669 39.6054 36.58 39.42L29.18 32H6C4.4087 32 2.88258 31.3679 1.75736 30.2426C0.632141 29.1174 0 27.5913 0 26V6C0 4.4087 0.632141 2.88258 1.75736 1.75736C2.88258 0.632141 4.4087 0 6 0ZM31.42 28.58L36 33.18V6C36 5.46957 35.7893 4.96086 35.4142 4.58579C35.0391 4.21071 34.5304 4 34 4H6C5.46957 4 4.96086 4.21071 4.58579 4.58579C4.21071 4.96086 4 5.46957 4 6V26C4 26.5304 4.21071 27.0391 4.58579 27.4142C4.96086 27.7893 5.46957 28 6 28H30C30.2632 27.9985 30.5241 28.0489 30.7678 28.1485C31.0115 28.248 31.2331 28.3946 31.42 28.58ZM19.5417 8C20.3701 8 21.0417 8.67157 21.0417 9.5V14.0417H25.5833C26.4118 14.0417 27.0833 14.7132 27.0833 15.5417C27.0833 16.3701 26.4118 17.0417 25.5833 17.0417H21.0417V21.5833C21.0417 22.4118 20.3701 23.0833 19.5417 23.0833C18.7132 23.0833 18.0417 22.4118 18.0417 21.5833V17.0417H13.5C12.6716 17.0417 12 16.3701 12 15.5417C12 14.7132 12.6716 14.0417 13.5 14.0417H18.0417V9.5C18.0417 8.67157 18.7132 8 19.5417 8Z"/>
</svg>
