<svg width="33" height="33" viewBox="0 0 33 33" fill="none" xmlns="http://www.w3.org/2000/svg">
<path fill-rule="evenodd" clip-rule="evenodd" d="M0.5 5C0.5 2.51472 2.51472 0.5 5 0.5H28C30.4853 0.5 32.5 2.51472 32.5 5V27.535C32.5 31.0859 28.5798 33.2378 25.5841 31.3315L19.9317 27.7345C19.691 27.5814 19.4117 27.5 19.1264 27.5H5C2.51472 27.5 0.5 25.4853 0.5 23V5ZM5 3.5C4.17157 3.5 3.5 4.17157 3.5 5V23C3.5 23.8284 4.17157 24.5 5 24.5H19.1264C19.9822 24.5 20.8203 24.7441 21.5423 25.2035L27.1947 28.8005C28.1933 29.4359 29.5 28.7186 29.5 27.535V5C29.5 4.17157 28.8284 3.5 28 3.5H5ZM9.5 14C9.5 13.1716 10.1716 12.5 11 12.5H15.5V8C15.5 7.17157 16.1716 6.5 17 6.5C17.8284 6.5 18.5 7.17157 18.5 8V12.5H23C23.8284 12.5 24.5 13.1716 24.5 14C24.5 14.8284 23.8284 15.5 23 15.5H18.5V20C18.5 20.8284 17.8284 21.5 17 21.5C16.1716 21.5 15.5 20.8284 15.5 20V15.5H11C10.1716 15.5 9.5 14.8284 9.5 14Z" />
</svg>
