<svg width="24" height="20" viewBox="0 0 24 20" fill="none" xmlns="http://www.w3.org/2000/svg">
<path d="M5.90339 7.22229L0.235826 8.64997C-0.0786088 8.72918 -0.0786085 9.17945 0.235826 9.25865L5.90339 10.6863C6.01494 10.7144 6.10203 10.8022 6.12992 10.9146L7.54681 16.6253C7.62542 16.9421 8.07228 16.9421 8.15089 16.6253L9.56778 10.9146C9.59567 10.8022 9.68277 10.7144 9.79431 10.6863L15.4619 9.25865C15.7763 9.17945 15.7763 8.72918 15.4619 8.64997L9.79431 7.22229C9.68277 7.19419 9.59567 7.10643 9.56778 6.99404L8.15089 1.28331C8.07228 0.966482 7.62542 0.966483 7.54681 1.28331L6.12992 6.99404C6.10203 7.10643 6.01494 7.19419 5.90339 7.22229Z" />
<path d="M18.5644 3.24867L15.8026 3.94437C15.4882 4.02358 15.4882 4.47384 15.8026 4.55305L18.5644 5.24875C18.6759 5.27685 18.763 5.36461 18.7909 5.477L19.4814 8.25979C19.56 8.57662 20.0068 8.57662 20.0854 8.2598L20.7759 5.477C20.8038 5.36461 20.8909 5.27685 21.0024 5.24875L23.7642 4.55305C24.0786 4.47384 24.0786 4.02358 23.7642 3.94437L21.0024 3.24867C20.8909 3.22057 20.8038 3.13281 20.7759 3.02041L20.0854 0.237622C20.0068 -0.079207 19.56 -0.0792076 19.4814 0.237622L18.7909 3.02041C18.763 3.13281 18.6759 3.22057 18.5644 3.24867Z" />
<path d="M16.131 16.0061L14.1995 16.4926C13.885 16.5719 13.885 17.0221 14.1995 17.1013L16.131 17.5879C16.2425 17.616 16.3296 17.7037 16.3575 17.8161L16.8404 19.7624C16.919 20.0792 17.3659 20.0792 17.4445 19.7624L17.9274 17.8161C17.9553 17.7037 18.0424 17.616 18.1539 17.5879L20.0854 17.1013C20.3999 17.0221 20.3999 16.5719 20.0854 16.4926L18.1539 16.0061C18.0424 15.978 17.9553 15.8902 17.9274 15.7778L17.4445 13.8316C17.3659 13.5148 16.919 13.5148 16.8404 13.8316L16.3575 15.7778C16.3296 15.8902 16.2425 15.978 16.131 16.0061Z" />
</svg>
