
<svg width="48" height="48" viewBox="0 0 48 48" fill="none" xmlns="http://www.w3.org/2000/svg">
<path d="M24 26C24.5304 26 25.0391 25.7893 25.4142 25.4142C25.7893 25.0391 26 24.5304 26 24L26 16C26 15.4696 25.7893 14.9609 25.4142 14.5858C25.0391 14.2107 24.5304 14 24 14C23.4696 14 22.9609 14.2107 22.5858 14.5858C22.2107 14.9609 22 15.4696 22 16L22 24C22 24.5304 22.2107 25.0391 22.5858 25.4142C22.9609 25.7893 23.4696 26 24 26ZM23.24 33.84C23.7269 34.04 24.2731 34.04 24.76 33.84C25.0055 33.7448 25.2298 33.6021 25.42 33.42C25.5967 33.2256 25.7387 33.0024 25.84 32.76C25.952 32.5226 26.0068 32.2624 26 32C26.0015 31.7368 25.9511 31.4759 25.8515 31.2322C25.752 30.9885 25.6054 30.7669 25.42 30.58C25.2256 30.4033 25.0024 30.2613 24.76 30.16C24.457 30.0355 24.1281 29.9874 23.8021 30.0198C23.4761 30.0522 23.1631 30.1642 22.8906 30.3459C22.618 30.5276 22.3943 30.7734 22.239 31.0619C22.0837 31.3503 22.0016 31.6724 22 32C22.0074 32.5295 22.2145 33.0367 22.58 33.42C22.7702 33.6021 22.9945 33.7448 23.24 33.84ZM24 44C27.9556 44 31.8224 42.827 35.1114 40.6294C38.4004 38.4318 40.9638 35.3082 42.4776 31.6537C43.9913 27.9991 44.3874 23.9778 43.6157 20.0982C42.844 16.2186 40.9392 12.6549 38.1421 9.85786C35.3451 7.06081 31.7814 5.15599 27.9018 4.38429C24.0222 3.61258 20.0008 4.00865 16.3463 5.5224C12.6918 7.03615 9.56823 9.59961 7.3706 12.8886C5.17298 16.1776 3.99999 20.0444 3.99999 24C3.99999 26.6264 4.51731 29.2272 5.5224 31.6537C6.52749 34.0802 8.00069 36.285 9.85786 38.1421C11.715 39.9993 13.9198 41.4725 16.3463 42.4776C18.7728 43.4827 21.3736 44 24 44V44ZM24 7.99999C27.1645 7.99999 30.2579 8.93838 32.8891 10.6965C35.5203 12.4546 37.5711 14.9534 38.7821 17.8771C39.9931 20.8007 40.3099 24.0177 39.6926 27.1214C39.0752 30.2251 37.5513 33.0761 35.3137 35.3137C33.0761 37.5513 30.2251 39.0752 27.1214 39.6926C24.0177 40.3099 20.8007 39.9931 17.8771 38.7821C14.9534 37.5711 12.4546 35.5203 10.6965 32.8891C8.93838 30.2579 7.99999 27.1645 7.99999 24C7.99999 19.7565 9.6857 15.6869 12.6863 12.6863C15.6869 9.6857 19.7565 7.99999 24 7.99999V7.99999Z"/>
</svg>
