<svg width="36" height="36" viewBox="0 0 36 36" fill="none" xmlns="http://www.w3.org/2000/svg">
<path fill-rule="evenodd" clip-rule="evenodd" d="M3.2 18C3.2 9.82618 9.82619 3.2 18 3.2C26.1738 3.2 32.8 9.82618 32.8 18C32.8 26.1738 26.1738 32.8 18 32.8C9.82619 32.8 3.2 26.1738 3.2 18ZM1.57361e-06 18C2.44269e-06 8.05887 8.05888 -2.44269e-06 18 -1.57361e-06C27.9411 -7.04529e-07 36 8.05887 36 18C36 27.9411 27.9411 36 18 36C8.05887 36 7.04529e-07 27.9411 1.57361e-06 18ZM19.8 9.99999C19.8 9.00588 18.9941 8.19999 18 8.19999C17.0059 8.19999 16.2 9.00588 16.2 9.99999L16.2 19C16.2 19.9941 17.0059 20.8 18 20.8C18.9941 20.8 19.8 19.9941 19.8 19L19.8 9.99999ZM18 27.8C17.0059 27.8 16.2 26.9941 16.2 26L16.2 25C16.2 24.0059 17.0059 23.2 18 23.2C18.9941 23.2 19.8 24.0059 19.8 25L19.8 26C19.8 26.9941 18.9941 27.8 18 27.8Z" />
</svg>
