<svg width="40" height="40" viewBox="0 0 40 40" xmlns="http://www.w3.org/2000/svg">
<path d="m 20.00001,22.000017 c 0.5304,0 1.0391,-0.2107 1.4142,-0.5858 0.3751,-0.3751 0.5858,-0.8838 0.5858,-1.4142 v -8 c 0,-0.5304 -0.2107,-1.0391 -0.5858,-1.4142 -0.3751,-0.3751 -0.8838,-0.5858 -1.4142,-0.5858 -0.5304,0 -1.0391,0.2107 -1.4142,0.5858 -0.3751,0.3751 -0.5858,0.8838 -0.5858,1.4142 v 8 c 0,0.5304 0.2107,1.0391 0.5858,1.4142 0.3751,0.3751 0.8838,0.5858 1.4142,0.5858 z m -0.76,7.84 c 0.4869,0.2 1.0331,0.2 1.52,0 0.2455,-0.0952 0.4698,-0.2379 0.66,-0.42 0.1767,-0.1944 0.3187,-0.4176 0.42,-0.66 0.112,-0.2374 0.1668,-0.4976 0.16,-0.76 0.0015,-0.2632 -0.0489,-0.5241 -0.1485,-0.7678 -0.0995,-0.2437 -0.2461,-0.4653 -0.4315,-0.6522 -0.1944,-0.1767 -0.4176,-0.3187 -0.66,-0.42 -0.303,-0.1245 -0.6319,-0.1726 -0.9579,-0.1402 -0.326,0.0324 -0.639,0.1444 -0.9115,0.3261 -0.2726,0.1817 -0.4963,0.4275 -0.6516,0.716 -0.1553,0.2884 -0.2374,0.6105 -0.239,0.9381 0.0074,0.5295 0.2145,1.0367 0.58,1.42 0.1902,0.1821 0.4145,0.3248 0.66,0.42 z m 0.76,10.16 c 3.9556,0 7.8224,-1.173 11.1114,-3.3706 3.289,-2.1976 5.8524,-5.3212 7.3662,-8.9757 1.5137,-3.6546 1.9098,-7.6759 1.1381,-11.5555 -0.7717,-3.8796 -2.6765,-7.4433004 -5.4736,-10.2403404 -2.797,-2.79705 -6.3607,-4.70187 -10.2403,-5.47357004 -3.8796,-0.77171 -7.901,-0.37564 -11.5555,1.13811004 -3.6545,1.51375 -6.77807,4.07721 -8.9757,7.3662 C 1.17299,12.177617 0,16.044417 0,20.000017 c 0,2.6264 0.51732,5.2272 1.52241,7.6537 1.00509,2.4265 2.47829,4.6313 4.33546,6.4884 1.85714,1.8572 4.06194,3.3304 6.48844,4.3355 2.4265,1.0051 5.0273,1.5224 7.6537,1.5224 z m 0,-36.0000104 c 3.1645,0 6.2579,0.93839 8.8891,2.69651 2.6312,1.7581 4.682,4.2569004 5.893,7.1806004 1.211,2.9236 1.5278,6.1406 0.9105,9.2443 -0.6174,3.1037 -2.1413,5.9547 -4.3789,8.1923 -2.2376,2.2376 -5.0886,3.7615 -8.1923,4.3789 -3.1037,0.6173 -6.3207,0.3005 -9.2443,-0.9105 -2.9237,-1.211 -5.4225,-3.2618 -7.1806,-5.893 C 4.93839,26.257917 4,23.164517 4,20.000017 c 0,-4.2435 1.68571,-8.3131 4.68631,-11.3137004 3.0006,-3.0006 7.0702,-4.68631 11.3137,-4.68631 z" />
</svg>
