<svg width="24" height="24" viewBox="0 0 24 24" fill="none" xmlns="http://www.w3.org/2000/svg">
<path fill-rule="evenodd" clip-rule="evenodd" d="M13.2993 1.09654C13.885 1.68232 13.885 2.63207 13.2993 3.21786L6.01712 10.5H22C22.8284 10.5 23.5 11.1716 23.5 12C23.5 12.8284 22.8284 13.5 22 13.5H5.53993L13.2993 21.2593C13.8851 21.8451 13.8851 22.7949 13.2993 23.3807C12.7135 23.9665 11.7637 23.9665 11.178 23.3807L1.1007 13.3034L1.09654 13.2993C0.510749 12.7135 0.510749 11.7637 1.09654 11.1779L1.09655 11.1779L11.1779 1.09654C11.7637 0.510749 12.7135 0.510749 13.2993 1.09654Z" />
</svg>
