<svg width="118" height="164" viewBox="0 0 118 164" xmlns="http://www.w3.org/2000/svg">
<path fill-rule="evenodd" clip-rule="evenodd" d="M29.8565 0.0339703C29.5362 -0.00235808 29.2118 0.0392977 28.911 0.155387L1.27985 10.82C0.508622 11.1177 0 11.8592 0 12.6859V161.5C0 162.605 0.895431 163.5 2 163.5H33V162.823C33.3665 163.238 33.9027 163.5 34.5 163.5H116C117.105 163.5 118 162.605 118 161.5V76.3998C118 75.3766 117.228 74.5185 116.21 74.4109L79 70.4751V7.39296C79 6.37559 78.2362 5.52033 77.2254 5.4057L29.8565 0.0339703ZM77 70.2636V7.39296L29.6311 2.02123L2 12.6859V161.5H32.5V78.7777C32.5 77.8628 33.1209 77.0645 34.0077 76.8393L64.5804 69.0748C64.8098 69.0165 65.0477 68.9994 65.2831 69.0243L77 70.2636ZM65.0727 71.0132L116 76.3998V161.5H34.5V78.7777L65.0727 71.0132Z" fill="currentColor"/>
</svg>
