<svg width="254" height="379" viewBox="0 0 254 379" fill="none" xmlns="http://www.w3.org/2000/svg">
<path d="M113.5 131.5V137.5L90.5 151.5V155.5L87 161.5L85.5 173L76.5 182L64 183.5L54 178.5L50.5 170.5V161.5L54 140L33 122L29 111H22V115V122L18.5 123.5L12.5 126.5L11 133L17 137.5L1 151.5L6.5 157L17 149.5L27 155.5L33 149.5H36.5L36 170.5L38 182L44 193L57 200H69L82 195.5L92.5 188.5L97 251L104 255L100 261L93 274L88 289L86 303.5L87 318.5L89.5 329L94 342.5L84.5 349L81.5 356V363.5L94 367H120L132.5 362.5V356L128.5 349L121 343.5L113.5 339.5L109 327L106 319.5V307.5V297L108.5 284.5L115 270L121.5 260H143L138 270L133 282.5L131 297V313L136 331.5L147 351L141.5 354.5L135 362.5L132 372L138.5 376L151.5 378L165 377L179 374.5L185 370L181 360L174.5 352.5L166 349L162 342.5L154.5 328L150.5 301.5L153 282.5L164 256.5L171 255L182.5 198L196 214.5L207 222H217L226.5 216.5L231 208.5H248.5L252.5 205.5L249.5 151.5L244.5 146.5L242 129.5V126V117H228V126L229 129.5L227.5 145.5L222 151.5V160L218 161L214.5 167V175L218.5 182L217 192.5L214.5 201.5L211 204L206 202L201.5 197L191.5 182V178.5V166L187 161.5V150L164 134.5L165 66L163 51L157.5 43L149 39.5L144.5 33L143.5 11L146 5L140 1.5L135.5 7.5L138.5 12L135.5 33L131.5 38.5L116.5 44.5L109.5 57L108.5 72.5L92.5 80.5L87.5 86.5L87 95L96 104L106.5 105.5V113.5L115.5 115V129.5L113.5 131.5Z" fill="#738658" stroke="black"/>
<path fill-rule="evenodd" clip-rule="evenodd" d="M137 85H102C98.134 85 95 88.134 95 92C95 95.866 98.134 99 102 99H137C140.866 99 144 95.866 144 92C144 88.134 140.866 85 137 85ZM102 83C97.0294 83 93 87.0294 93 92C93 96.9706 97.0294 101 102 101H137C141.971 101 146 96.9706 146 92C146 87.0294 141.971 83 137 83H102ZM112 92C112 93.6569 110.657 95 109 95C107.343 95 106 93.6569 106 92C106 90.3431 107.343 89 109 89C110.657 89 112 90.3431 112 92ZM132 95C133.657 95 135 93.6569 135 92C135 90.3431 133.657 89 132 89C130.343 89 129 90.3431 129 92C129 93.6569 130.343 95 132 95Z" fill="#D9D9D9"/>
</svg>
