<svg width="131" height="224" viewBox="0 0 131 224" fill="none" xmlns="http://www.w3.org/2000/svg">
<path d="M47.0015 56.8429L56.3976 59.782L56.0061 60.7617L52.6783 61.3495L47.7845 63.8967L45.6313 66.6399L44.6525 65.6602L41.7162 64.2886L38.1927 63.8967L34.2777 64.4846L30.7542 66.248L27.8179 69.9709L26.6434 73.3019L27.0349 78.3963L28.6009 82.511L29.9712 83.0989L29.3839 84.8623L28.0137 85.2542L24.6859 94.6593V96.6187L24.2944 97.9903L20.3794 99.7538L13.3323 107.199L9.22155 115.037L5.11077 124.638L4.32777 131.888L6.87253 133.455L5.30653 134.827L3.15326 139.921L1.97876 142.861L1.783 146.192L2.56601 147.955L1.783 151.09L1 153.049V155.205L2.56601 156.968L7.06829 165.981L8.83005 166.961L11.3748 166.373L13.5281 165.394L14.1153 163.63L13.5281 161.475L12.7451 160.103H14.8983L16.2686 158.928H17.8346L19.9879 158.34L21.3581 158.732L23.9029 157.948L26.4476 154.617L27.2307 153.245V151.482L26.2519 150.306H23.9029V145.408L20.9666 141.097H21.7496L22.9241 139.921L23.7071 139.53L25.4689 139.138H27.2307L28.7967 138.158L30.3627 135.611L32.9074 126.793L35.2565 117.192L37.0182 104.456L35.8437 102.693V100.929L37.0182 100.146L40.7375 87.9974L39.9545 86.8217V83.8826L41.3247 83.0989L41.7162 84.8623V88.3892L43.0865 91.3283L46.8058 97.5984L48.7633 100.342L52.091 102.693L52.6783 108.571L50.9165 109.355L48.7633 111.902L47.1973 114.841H44.261L41.7162 115.037L39.1715 116.801L37.0182 119.544L36.2352 123.658L36.431 126.793L39.1715 131.104L40.5417 131.888V133.651L39.1715 135.219L40.346 142.273L41.3247 144.624L41.912 151.482L40.346 152.462L38.3885 154.225L37.0182 158.144L37.4097 161.867L38.3885 163.434L37.0182 165.002L35.2565 168.725L33.4947 175.387L33.1032 181.461L32.7117 186.163L32.9074 191.65L33.6904 195.372L33.4947 196.548L30.3627 196.744L26.4476 197.92L21.1624 201.447L20.3794 202.622L19.5964 203.798L13.7238 206.737L8.83005 210.656L9.22155 216.142L11.1791 216.926L17.8346 218.102L28.2094 218.493H29.1882L34.0819 217.514H38.9757H45.044L49.1548 217.122L53.4613 215.554L53.8528 212.615L55.4188 212.811L57.9636 214.771L62.0744 215.162H65.0106L67.1639 213.791L69.7086 210.46L71.0789 206.345V202.818L70.1002 198.703L68.3384 195.568L66.1851 194.197L67.9469 192.237L68.7299 187.927L68.5341 182.049L67.9469 177.15L67.3596 174.407L65.2064 168.137L63.2489 163.63L60.8998 161.867L60.5083 160.887L60.3126 157.948L59.3338 155.793L56.7891 152.658H54.8316L53.6571 149.523L53.0698 138.55L52.6783 134.631L51.5038 134.435V133.064L52.2868 132.672L53.6571 134.239L56.7891 136.003L61.0956 137.178L67.3596 136.395L70.6874 135.023L72.4492 133.064L73.6237 132.476L74.4067 133.455L73.6237 133.847V137.178L74.6024 139.726L78.3217 150.306L79.1047 151.874L77.3429 153.637L76.9514 156.184L77.3429 159.907L77.9302 161.867L77.3429 163.434L76.9514 168.529V176.954V184.204L77.5387 192.629L78.3217 197.332L79.692 201.447L76.9514 204.582L75.1897 209.088L73.2322 215.554V221.824L77.7345 222.608L83.9985 223L97.5053 222.608L101.225 222.412L104.944 221.824L107.489 220.453L108.663 219.081V217.906L110.425 217.71H112.578L114.536 216.338L115.319 213.791L115.906 211.44L116.102 208.892V204.778L115.514 200.663L115.123 198.508L113.361 195.764L112.187 194.589L112.578 191.062L112.774 188.515L112.187 182.832L111.012 178.522L108.859 172.643L105.531 166.373L103.965 163.63L100.637 159.907L98.4841 159.124L98.6798 158.144L98.0926 156.184L97.3096 154.225L95.5478 152.07L94.1775 150.698L92.22 150.306H90.654L90.0668 147.563L89.6753 144.428L87.522 134.239L86.739 131.496H85.173L84.9772 129.929L85.956 128.753L87.1305 127.381L87.7178 123.071L87.522 120.327L86.3475 117.388L84.5857 115.037L81.6495 113.47H78.5175L78.126 112.294L76.3642 110.335L73.6237 108.375L69.7086 107.787L69.3171 103.281L69.9044 102.497L70.8832 101.125H72.2534L77.5387 99.3619L80.0835 97.0106L84.1942 91.5243L85.956 89.173L86.9348 85.842L87.9135 84.8623L90.4583 82.9029H91.437L92.22 84.4704L91.0455 85.4501V86.6258L94.1775 93.8756L95.9393 98.1862L97.7011 99.9497L96.9181 101.125L96.5266 104.652L96.3308 110.726L96.7223 116.409L97.1138 119.936L98.0926 124.638L99.0713 129.145L100.246 133.847L101.812 136.982L103.182 137.766L104.944 137.962V138.746H103.965L102.791 140.313L100.833 142.861L100.246 145.604L99.6586 146.779V149.718L100.637 152.07L101.029 155.401L102.399 156.576L104.944 156.968L106.706 156.184L107.88 154.029L108.663 152.853L108.859 151.09L108.272 149.131L107.684 147.563L108.663 146.387L109.055 145.212L113.361 145.016L115.319 149.131L116.493 150.306L117.668 151.678L116.885 153.049V154.617L116.493 156.184L115.71 157.164L114.927 158.732H113.948H112.187L111.599 159.515L110.425 160.299V161.671V163.238L111.599 164.414L112.774 165.002H114.34V165.394L115.71 166.373L117.668 166.569L119.625 166.373L121.974 164.61L124.127 162.846L128.434 157.556L130 155.989L129.609 150.894L129.217 149.327L129.609 147.955L130 144.232L129.413 140.901L128.238 137.962L127.064 136.199L126.672 135.611L127.259 135.219L128.63 134.435L129.609 133.064L129.413 127.969L128.238 121.503L124.715 112.098L120.995 105.24L116.885 100.146L114.536 97.5984L111.012 95.4431L109.642 95.639L108.663 93.8756L109.055 93.0918L103.769 80.7476H102.399L102.203 79.5719L103.769 78.3963L104.944 76.6328L105.531 74.8694V72.3222V69.9709L103.769 66.248L102.203 64.0927L99.8543 62.1333L97.7011 61.3495L94.7648 61.5455L91.6328 61.9373L89.088 62.917L87.3263 64.4846L86.5433 63.7008L84.7815 61.9373L81.0622 60.1739L78.5175 59.5861L75.7769 58.9982L73.4279 58.4104L76.1684 57.6267L80.2792 55.8632L83.8027 54.0997L86.739 51.7485L88.8923 49.5931L90.2625 48.2215H91.2413L95.1563 48.0256L97.7011 47.0459L100.442 45.0865L103.378 39.9921L104.552 36.6611L104.944 31.9585L104.552 26.6681L102.203 21.9656L97.5053 17.8508H93.5903L91.2413 14.5199L88.5008 11.1889L82.6282 6.48632L75.3854 2.37158L68.1426 1H58.5508L52.4826 2.9594L45.2398 6.48632L37.997 12.3645L34.0819 18.4387L31.7329 19.8102L27.8179 25.6884L26.0561 30.9788V37.053L28.4052 42.9312L31.7329 47.6337L35.8437 48.8094L39.7587 52.5322L47.0015 56.8429Z" fill="#738658" stroke="black"/>
<path d="M40.7695 19.3106L36.5144 22.5839L34.9671 24.3168L34 29.323V34.3292L34.5802 38.7578L36.9012 42.9938L41.1564 46.0745L45.2181 47.2298L51.6008 48H58.9506H64.5597L71.1358 46.8447L76.5514 44.9193L80.4198 40.8758L81 34.7143V27.3975L78.2922 22.5839L73.4568 19.3106L67.4609 17.7702L60.1111 17H53.9218L46.7654 17.7702L40.7695 19.3106Z" stroke="white" stroke-width="0.4"/>
<path d="M40.1071 24L37.7857 25.519L36.7143 27.7975L36.1786 29.3165L36 31.7848L36.1786 34.2532L36.8929 36.5316L38.1429 38.2405L39.3929 39H41.1786L42.9643 38.2405L44.75 36.5316L45.6429 34.6329L46 33.1139V30.6456L45.8214 28.3671L45.1071 26.2785L43.5 24.7595L41.7143 24H40.1071Z" fill="white"/>
<path d="M67.1235 23L63.5679 25.3721L62.5802 26.7558L61.5926 28.9302L61 30.7093V33.8721L62.3827 36.6395L63.963 38.814L66.5309 40H69.4938L72.4568 39.2093L75.0247 37.8256L76.6049 35.4535L77 33.2791V30.1163L76.2099 27.9419L75.0247 25.5698L72.8519 24.186L70.679 23.1977L67.1235 23Z" fill="white"/>
</svg>
