<svg width="212" height="242" viewBox="0 0 212 242" fill="none" xmlns="http://www.w3.org/2000/svg">
<path d="M28.7821 55.0614L26.3307 43.5939L61.4669 17.3823H64.7354L83.5292 5.09556L94.1517 4.27645H101.506L106.409 1.81911L113.763 1L130.922 9.19113L134.191 15.744V27.2116L129.288 35.4027L108.043 49.3276L110.494 60.7952L100.689 70.6246L108.86 77.9966L116.214 74.7201L123.568 60.7952L148.899 62.4334L147.265 73.0819H166.058L169.327 89.4642L175.047 94.3788L185.669 109.123L188.938 123.867L189.755 165.642L208.549 200.044L211 212.331L205.28 225.437L199.56 235.266L114.58 241L93.3346 231.171L90.0661 219.703L55.7471 221.341L41.856 219.703L33.6848 213.15L30.4163 204.959L28.7821 196.768V189.396L30.4163 183.662L34.5019 182.843H45.1245L44.3074 171.375L23.0623 143.526L18.9767 142.706L19.7938 138.611L14.8911 141.887L9.17121 140.249L1 125.505L13.2568 116.495H16.5253V114.038L28.7821 107.485L32.0506 109.942L35.3191 114.857L39.4047 108.304V102.57H33.6848V97.6553L87.6148 82.0921L85.9805 70.6246L76.9922 77.1775L72.0895 77.9966L64.7354 72.2628L56.5642 66.529L49.2101 72.2628H42.6732L33.6848 62.4334L28.7821 55.0614Z" fill="#738658" stroke="black"/>
<rect x="32.4037" y="45.4444" width="13.5054" height="21.3915" rx="6.7527" transform="rotate(-19.626 32.4037 45.4444)" fill="#D9D9D9"/>
<rect x="50.0272" y="47.0787" width="13.5054" height="21.3915" rx="6.7527" transform="rotate(-19.626 50.0272 47.0787)" fill="#D9D9D9"/>
<path d="M115.073 211.647L169.647 151L200.599 200.326L203.857 215.69L194.897 231.054L121.589 236.714L115.073 231.054L111 222.968L115.073 211.647Z" stroke="black"/>
<path d="M43.8571 194.941L52.2129 191L76.4447 197.305L88.1429 205.975V213.857H58.062L47.1995 209.128L43.8571 194.941Z" stroke="black"/>
<path d="M91 219.571V206.441L103.371 192.489L150.381 142.429L169.5 151" stroke="black"/>
<path d="M163.857 78.1429L76.5102 105.286H38.1429" stroke="black"/>
<path d="M121 174.878L77.9212 136.51L70.6059 140.592L64.1034 136.51V130.796L61.665 128.347L66.5419 120.184L61.665 115.286H42.1576L26.7143 140.592L29.1527 145.49L48.6601 149.571L56.7882 138.959L66.5419 145.49L61.665 152.837L106.369 189.571" stroke="black"/>
<path d="M19.5 139L32 131.5" stroke="black"/>
<path d="M38 121L35 115" stroke="black"/>
</svg>
