<svg width="198" height="238" viewBox="0 0 198 238" fill="none" xmlns="http://www.w3.org/2000/svg">
<path d="M24.3451 93.6637L65.1989 86.1109L68.9753 84.0511L58.6761 75.8116L54.5563 68.6021V62.4225L57.6461 58.6461L58.6761 50.75L60.0493 43.8838L62.1092 37.7042L65.1989 32.5546L79.618 20.1954L92.6637 10.5827L106.053 2L102.62 22.9419L108.113 25.6884L115.665 30.4947L121.502 37.0176L126.308 44.9137V53.4965L124.248 62.4225L142.787 74.7817L138.324 75.8116L122.188 79.588L113.606 81.3046V84.7377L107.083 86.4542H101.246L98.8433 84.7377L95.4102 86.4542L93.6937 88.8574H97.8134L108.113 89.544L122.188 90.9173H132.831L143.474 92.2905L149.653 94.3504L152.743 92.2905L157.549 89.544H164.072H168.879L172.312 86.4542H176.088L179.864 89.544L177.461 94.3504L174.715 98.1268L169.908 98.8134V100.873L174.715 107.396L178.491 111.859L179.864 118.725V125.592L177.461 127.308L176.088 133.488L172.312 134.518L169.908 137.264L166.475 136.577H163.042L155.146 127.995L149.653 122.845L144.504 118.725H133.518L120.815 117.009L95.4102 111.173L102.276 112.889L102.963 117.009L106.396 122.845L112.576 129.368V132.114L128.025 151.34H130.428L134.548 153.4L137.981 157.176L139.011 160.609L171.282 195.283V200.776L172.655 201.463L179.178 204.896L184.327 210.732L188.104 219.658L196 236.137L166.819 222.405L170.595 233.734L148.967 226.181L139.697 219.658L136.951 214.852L130.428 213.822L125.621 210.732L116.695 202.15L106.396 189.79L101.59 183.954L95.4102 181.208L93.3503 176.745V171.938L71.7218 144.474V140.697L59.0194 117.695V109.456L45.9736 112.546L28.1215 113.232V115.979L18.5088 122.158L9.58275 125.592L6.14965 124.562L3.05986 122.158L1 117.695V113.232L3.05986 107.053L10.6127 98.4701V96.0669L7.17958 93.6637L6.14965 85.4243L9.58275 83.0211L15.419 88.8574L21.5986 89.544L24.3451 93.6637Z" fill="#738658" stroke="black"/>
<ellipse cx="66.833" cy="52.7994" rx="5.14965" ry="11.6725" transform="rotate(17.9735 66.833 52.7994)" fill="#D9D9D9"/>
<ellipse cx="90.8646" cy="60.3522" rx="5.14965" ry="11.6725" transform="rotate(17.9735 90.8646 60.3522)" fill="#D9D9D9"/>
<path d="M101.246 157.519L111.889 168.849V173.998L113.606 178.118L117.039 179.491L120.815 180.178L123.905 185.328L136.607 200.09L145.533 208.673L148.623 211.076L157.893 213.479L160.982 212.792L161.669 215.882L166.819 222.405" stroke="black"/>
<path d="M144.16 209.702L142.1 212.449L140.384 213.479L137.637 213.822" stroke="black"/>
<path d="M170.595 201.806L169.908 205.239L166.819 209.359L162.356 212.106" stroke="black"/>
</svg>
