<svg width="109" height="242" viewBox="0 0 109 242" fill="none" xmlns="http://www.w3.org/2000/svg">
<path d="M43.8345 51.4091L40.6508 44.0865L50.4142 42.3885L50.8387 39.8415L49.6713 33.4741L49.0346 28.9107L47.7611 27.3188L46.9121 23.3922L47.4427 17.6615L48.6101 13.3104L50.3081 9.38382L53.7041 6.30622L58.6919 3.44086L61.6634 1L64.2104 3.44086L68.4553 6.30622L72.1697 10.4451L74.1861 14.2655L74.6105 21.1636L75.4595 22.0126L74.9289 27.3188L73.8677 28.9107L71.8513 32.6251L71.4268 40.266L73.8677 44.2987L80.6596 46.1029L83.4189 47.4825L86.072 50.3478L86.921 55.4418V62.1276L86.072 66.7971L83.4189 68.4951L82.2515 66.7971L84.0556 80.1688L84.4801 89.1893L83.4189 89.6138L84.0556 99.5895V105.108V119.541L86.1781 117.631L87.8761 119.541V124.21L86.1781 133.868L85.223 138.431V144.374L83.3127 150.954L79.7045 165.174L79.4923 169.844L81.2964 173.452L80.8719 182.685L77.6882 187.142L77.2637 192.342L75.4595 193.51L74.8228 199.346L73.2309 206.351L71.2146 216.326L70.1533 225.029L75.2473 229.486L81.4025 232.033L85.8597 233.2L87.6638 234.58L88.4067 237.021L87.4516 238.506L79.4923 238.719L64.741 237.976L64.1042 237.445L61.9818 235.216L56.8878 231.29L56.6755 227.894L55.9327 225.453H57.3123L58.3735 220.89L58.4796 214.947L58.1613 207.306V188.416L61.8756 187.354L64.5287 185.02L65.6961 181.305V175.468L65.0594 172.391L63.043 170.374V158.595L63.892 146.496L65.3777 141.084V134.398L63.3614 146.496L62.6185 158.595V170.374L64.741 172.497L65.3777 175.468V181.305L64.2104 185.02L61.6634 187.142L57.949 188.203L55.9327 195.101L53.8102 221.208L54.3408 226.62L55.1898 230.229L57.3123 231.927L61.8756 235.429L63.892 237.657V239.461L62.6185 240.947H55.9327H49.0346L41.9243 239.461L38.5283 237.976L39.0589 231.927L37.8915 230.229V228.955L40.6508 228.318V218.661L39.0589 212.93L39.6956 193.191L41.2875 185.02L39.6956 181.305V177.06L40.6508 172.497L43.1977 169.101L45.957 166.872L44.3651 155.623L41.9243 141.084L39.165 116.463L41.1814 114.447V107.761L43.41 102.03L45.2141 90.9935L37.7854 67.54H39.165L42.2426 64.144L43.0916 58.0949L43.8345 51.4091Z" fill="#738658"/>
<path d="M40.6508 44.0865L43.8345 51.4091L43.0916 58.0949L42.2426 64.144L39.165 67.54H37.7854L45.2141 90.9935L43.41 102.03L41.1814 107.761V114.447L39.165 116.463L41.9242 141.084L44.3651 155.623L45.957 166.872L43.1977 169.101L40.6508 172.497L39.6956 177.06V181.305L41.2875 185.02L39.6956 193.191L39.0589 212.93L40.6508 218.661V228.318L37.8915 228.955V230.229L39.0589 231.927L38.5283 237.976L41.9242 239.461L49.0346 240.947H55.9327H62.6185L63.892 239.461V237.657L61.8756 235.429L57.3123 231.927L55.1898 230.229L54.3408 226.62L53.8102 221.208L55.9327 195.101L57.949 188.203L61.6634 187.142L64.2104 185.02L65.3777 181.305V175.468L64.741 172.497L62.6185 170.374V158.595L63.3614 146.496L65.3777 134.398V141.084L63.892 146.496L63.043 158.595V170.374L65.0594 172.391L65.6961 175.468V181.305L64.5287 185.02L61.8756 187.354L58.1613 188.416V207.306L58.4796 214.947L58.3735 220.89L57.3123 225.453H55.9327L56.6755 227.894L56.8878 231.29L61.9818 235.216L64.1042 237.445L64.741 237.976L79.4923 238.719L87.4516 238.506L88.4067 237.021L87.6638 234.58L85.8597 233.2L81.4025 232.033L75.2473 229.486L70.1533 225.029L71.2146 216.326L73.2309 206.351L74.8228 199.346L75.4595 193.51L77.2637 192.342L77.6882 187.142L80.8719 182.685L81.2964 173.452L79.4923 169.844L79.7045 165.174L83.3127 150.954L85.223 144.374V138.431L86.1781 133.868L87.8761 124.21V119.541L86.1781 117.631L84.0556 119.541V121.557V105.108V99.5895L83.4189 89.6138L84.4801 89.1893L84.0556 80.1688L82.2515 66.7971L83.4189 68.4951L86.072 66.7971L86.921 62.1276V55.4418L86.072 50.3478L83.4189 47.4825L80.6596 46.1029L73.8677 44.2987L71.4268 40.266L71.8513 32.6251L73.8677 28.9107L74.9289 27.3188L75.4595 22.0126L74.6105 21.1636L74.1861 14.2655L72.1697 10.4451L68.4553 6.30622L64.2104 3.44086L61.6634 1L58.6919 3.44086L53.7041 6.30622L50.3081 9.38382L48.6101 13.3104L47.4427 17.6615L46.9121 23.3922L47.7611 27.3188L49.0346 28.9107L49.6713 33.4741L50.8387 39.8415L50.4142 42.3885L40.6508 44.0865Z" stroke="black" stroke-width="0.6"/>
<path d="M42.6007 51.4091L39.417 44.1926L36.87 44.511L32.4128 46.7396L28.3801 49.1805L23.18 55.0173V58.4133L17.6615 63.9318H15.7513L4.28986 77.1973L1 80.1688L6.20009 80.4872L13.6288 86.5362L14.1594 89.1894H16.8125L28.0617 96.2997V97.9977L29.7597 98.9528L30.9271 97.2548L34.9598 100.014L35.4904 101.712L36.5517 102.03L37.9313 101.712L44.4049 109.353L48.756 113.386L56.7153 115.508V114.659L61.0664 114.447L60.5358 112.749H63.9317V111.582L61.7031 109.353H65.5236V107.018L62.2338 106.169L58.7317 103.728L53.8499 99.6957L55.2295 98.9528L57.5643 98.4222L60.1113 99.6957H61.7031V98.4222L59.05 96.2997L56.503 95.2384L53.2132 94.9201H48.0131L45.4661 94.0711L42.3885 91.9486L25.1964 75.9238L34.5353 67.8584L36.87 67.2216H38.2497L41.115 63.9318L42.6007 51.4091Z" fill="#738658" stroke="black" stroke-width="0.6"/>
<circle cx="56.8878" cy="20.9514" r="2.75923" fill="#D9D9D9"/>
<circle cx="66.439" cy="20.9514" r="2.75923" fill="#D9D9D9"/>
<path d="M84.4404 47.1641L81.9995 45.8906H85.6077L97.0692 56.5031L95.0528 61.0664L104.498 74.8626L105.453 75.1809L106.833 75.6054L108 81.8668L107.363 84.7321L105.877 99.9079L105.453 104.365L103.967 105.32L102.057 109.565L100.784 114.978L96.3263 122.194L90.5956 124.741L89.8527 122.937V121.239L91.0201 120.39V118.798L89.8527 117.631L90.065 116.357L95.4773 111.794L96.3263 109.035V107.124L94.4161 108.292H92.6119L92.1875 106.7L94.4161 100.651L92.6119 86.2179L92.1875 85.0505V80.381L88.7915 75.6054L84.8649 70.5115L84.5465 68.4951L87.3057 66.7971L88.1547 62.1277V55.3357L87.0935 50.0295L84.4404 47.1641Z" fill="#738658" stroke="black" stroke-width="0.6"/>
</svg>
