<svg width="49" height="37" viewBox="0 0 49 37" fill="none" xmlns="http://www.w3.org/2000/svg">
<path d="M2.97977 12.8278L3.66414 14.1626H3.66414L2.97977 12.8278ZM23.7149 2.19658L23.0305 0.861796L23.0305 0.861797L23.7149 2.19658ZM25.3422 2.19658L24.6578 3.53136V3.53136L25.3422 2.19658ZM46.0202 12.7986L46.7046 11.4638L46.0202 12.7986ZM46.0086 16.0237L46.6833 17.3634L46.0086 16.0237ZM24.897 26.6547L25.5717 27.9944H25.5717L24.897 26.6547ZM23.2694 26.6426L22.5751 27.9722L22.5751 27.9722L23.2694 26.6426ZM2.96787 16.0409L2.27353 17.3705H2.27353L2.96787 16.0409ZM26.0376 12.4589C25.4518 11.8732 24.502 11.8732 23.9162 12.4589L14.3703 22.0049C13.7845 22.5907 13.7845 23.5404 14.3703 24.1262C14.9561 24.712 15.9058 24.712 16.4916 24.1262L24.9769 15.6409L33.4622 24.1262C34.048 24.712 34.9977 24.712 35.5835 24.1262C36.1693 23.5404 36.1693 22.5907 35.5835 22.0049L26.0376 12.4589ZM26.167 12.165C26.167 12.8429 25.6242 13.3742 24.9769 13.3742V16.3742C27.3011 16.3742 29.167 14.4796 29.167 12.165H26.167ZM24.9769 13.3742C24.3297 13.3742 23.7868 12.8429 23.7868 12.165H20.7868C20.7868 14.4796 22.6528 16.3742 24.9769 16.3742V13.3742ZM23.7868 12.165C23.7868 11.4871 24.3297 10.9557 24.9769 10.9557V7.9557C22.6528 7.9557 20.7868 9.85031 20.7868 12.165H23.7868ZM24.9769 10.9557C25.6242 10.9557 26.167 11.4871 26.167 12.165H29.167C29.167 9.85031 27.3011 7.9557 24.9769 7.9557V10.9557ZM3.66414 14.1626L24.3993 3.53136L23.0305 0.861797L2.29541 11.4931L3.66414 14.1626ZM24.6578 3.53136L45.3359 14.1333L46.7046 11.4638L26.0265 0.861797L24.6578 3.53136ZM45.334 14.6839L24.2224 25.3149L25.5717 27.9944L46.6833 17.3634L45.334 14.6839ZM23.9638 25.313L3.66222 14.7113L2.27353 17.3705L22.5751 27.9722L23.9638 25.313ZM24.2224 25.3149C24.1406 25.3561 24.0451 25.3555 23.9638 25.313L22.5751 27.9722C23.5125 28.4618 24.6271 28.47 25.5717 27.9944L24.2224 25.3149ZM45.3359 14.1333C45.4023 14.1674 45.4369 14.2067 45.4586 14.2443C45.4835 14.2872 45.5002 14.3444 45.5 14.4093C45.4998 14.4743 45.4826 14.5313 45.4575 14.574C45.4354 14.6114 45.4006 14.6504 45.334 14.6839L46.6833 17.3634C49.0959 16.1485 49.1081 12.6961 46.7046 11.4638L45.3359 14.1333ZM24.3993 3.53136C24.4808 3.48955 24.5763 3.48955 24.6578 3.53136L26.0265 0.861798C25.0857 0.379401 23.9714 0.379401 23.0305 0.861796L24.3993 3.53136ZM2.29541 11.4931C-0.0885968 12.7154 -0.100986 16.1305 2.27353 17.3705L3.66222 14.7113C3.59689 14.6772 3.56256 14.638 3.54087 14.6002C3.51627 14.5574 3.49976 14.5006 3.5 14.4363C3.50024 14.372 3.51716 14.3153 3.54206 14.2727C3.56401 14.2351 3.5986 14.1962 3.66414 14.1626L2.29541 11.4931ZM23.4769 13.5196L23.4769 37H26.4769L26.4769 13.5196L23.4769 13.5196Z"/>
</svg>
