<svg width="20" height="27" viewBox="0 0 20 27" fill="none" xmlns="http://www.w3.org/2000/svg">
<path d="M9 26.5898H1.5C1.22386 26.5898 1 26.3659 1 26.0898V3.06922C1 2.87095 1.11715 2.69141 1.29863 2.61156L4.83979 1.05345C4.9194 1.01842 5.00676 1.00477 5.09326 1.01383L12.832 1.82456C13.0866 1.85123 13.2799 2.06586 13.2799 2.32183V12" stroke="currentColor" stroke-width="1"/>
<path d="M6.14978 13.5896V26.0898C6.14978 26.3659 6.37364 26.5898 6.64978 26.5898H18.8804C19.1566 26.5898 19.3804 26.3659 19.3804 26.0898V13.2545C19.3804 12.9987 19.1874 12.7842 18.933 12.7573L11.2299 11.9425C11.1711 11.9363 11.1116 11.9406 11.0543 11.9551L6.5267 13.105C6.305 13.1613 6.14978 13.3609 6.14978 13.5896Z" stroke="currentColor" stroke-width="1"/>
</svg>
