<svg width="26" height="34" viewBox="0 0 26 34" fill="none" xmlns="http://www.w3.org/2000/svg">
<mask id="path-1-inside-1_631_5178" >
<path fill-rule="evenodd" clip-rule="evenodd" d="M8.5 5.5C8.5 7.15685 7.15685 8.5 5.5 8.5C3.84315 8.5 2.5 7.15685 2.5 5.5C2.5 3.84315 3.84315 2.5 5.5 2.5C7.15685 2.5 8.5 3.84315 8.5 5.5ZM6.67857 10.8734C9.14979 10.3339 11 8.13302 11 5.5C11 2.46243 8.53757 0 5.5 0C2.46243 0 0 2.46243 0 5.5C0 8.08203 1.77925 10.2485 4.17857 10.8402V23.1598C1.77925 23.7515 0 25.918 0 28.5C0 31.5376 2.46243 34 5.5 34C8.53757 34 11 31.5376 11 28.5C11 25.867 9.14979 23.6661 6.67857 23.1266V19.1929H17.6C19.3949 19.1929 20.85 17.7378 20.85 15.9429V10.989C23.7245 10.8085 26 8.42 26 5.5C26 2.46243 23.5376 0 20.5 0C17.4624 0 15 2.46243 15 5.5C15 7.77465 16.3808 9.72679 18.35 10.5639V15.9429C18.35 16.3571 18.0142 16.6929 17.6 16.6929H6.67857V10.8734ZM5.5 31.5C7.15685 31.5 8.5 30.1569 8.5 28.5C8.5 26.8431 7.15685 25.5 5.5 25.5C3.84315 25.5 2.5 26.8431 2.5 28.5C2.5 30.1569 3.84315 31.5 5.5 31.5ZM23.5 5.5C23.5 7.15685 22.1569 8.5 20.5 8.5C18.8431 8.5 17.5 7.15685 17.5 5.5C17.5 3.84315 18.8431 2.5 20.5 2.5C22.1569 2.5 23.5 3.84315 23.5 5.5Z"/>
</mask>
<path fill-rule="evenodd" clip-rule="evenodd" d="M8.5 5.5C8.5 7.15685 7.15685 8.5 5.5 8.5C3.84315 8.5 2.5 7.15685 2.5 5.5C2.5 3.84315 3.84315 2.5 5.5 2.5C7.15685 2.5 8.5 3.84315 8.5 5.5ZM6.67857 10.8734C9.14979 10.3339 11 8.13302 11 5.5C11 2.46243 8.53757 0 5.5 0C2.46243 0 0 2.46243 0 5.5C0 8.08203 1.77925 10.2485 4.17857 10.8402V23.1598C1.77925 23.7515 0 25.918 0 28.5C0 31.5376 2.46243 34 5.5 34C8.53757 34 11 31.5376 11 28.5C11 25.867 9.14979 23.6661 6.67857 23.1266V19.1929H17.6C19.3949 19.1929 20.85 17.7378 20.85 15.9429V10.989C23.7245 10.8085 26 8.42 26 5.5C26 2.46243 23.5376 0 20.5 0C17.4624 0 15 2.46243 15 5.5C15 7.77465 16.3808 9.72679 18.35 10.5639V15.9429C18.35 16.3571 18.0142 16.6929 17.6 16.6929H6.67857V10.8734ZM5.5 31.5C7.15685 31.5 8.5 30.1569 8.5 28.5C8.5 26.8431 7.15685 25.5 5.5 25.5C3.84315 25.5 2.5 26.8431 2.5 28.5C2.5 30.1569 3.84315 31.5 5.5 31.5ZM23.5 5.5C23.5 7.15685 22.1569 8.5 20.5 8.5C18.8431 8.5 17.5 7.15685 17.5 5.5C17.5 3.84315 18.8431 2.5 20.5 2.5C22.1569 2.5 23.5 3.84315 23.5 5.5Z" />
<path d="M6.67857 10.8734L6.46527 9.89644L5.67857 10.0682V10.8734H6.67857ZM4.17857 10.8402H5.17857V10.0569L4.41802 9.86932L4.17857 10.8402ZM4.17857 23.1598L4.41802 24.1307L5.17857 23.9431V23.1598H4.17857ZM6.67857 23.1266H5.67857V23.9318L6.46527 24.1036L6.67857 23.1266ZM6.67857 19.1929V18.1929H5.67857V19.1929H6.67857ZM20.85 10.989L20.7873 9.99101L19.85 10.0499V10.989H20.85ZM18.35 10.5639H19.35V9.9024L18.7412 9.64361L18.35 10.5639ZM6.67857 16.6929H5.67857V17.6929H6.67857V16.6929ZM5.5 9.5C7.70914 9.5 9.5 7.70914 9.5 5.5H7.5C7.5 6.60457 6.60457 7.5 5.5 7.5V9.5ZM1.5 5.5C1.5 7.70914 3.29086 9.5 5.5 9.5V7.5C4.39543 7.5 3.5 6.60457 3.5 5.5H1.5ZM5.5 1.5C3.29086 1.5 1.5 3.29086 1.5 5.5H3.5C3.5 4.39543 4.39543 3.5 5.5 3.5V1.5ZM9.5 5.5C9.5 3.29086 7.70914 1.5 5.5 1.5V3.5C6.60457 3.5 7.5 4.39543 7.5 5.5H9.5ZM10 5.5C10 7.65306 8.48692 9.45507 6.46527 9.89644L6.89187 11.8504C9.81265 11.2127 12 8.61298 12 5.5H10ZM5.5 1C7.98528 1 10 3.01472 10 5.5H12C12 1.91015 9.08985 -1 5.5 -1V1ZM1 5.5C1 3.01472 3.01472 1 5.5 1V-1C1.91015 -1 -1 1.91015 -1 5.5H1ZM4.41802 9.86932C2.45485 9.38516 1 7.61124 1 5.5H-1C-1 8.55283 1.10365 11.1118 3.93913 11.8111L4.41802 9.86932ZM5.17857 23.1598V10.8402H3.17857V23.1598H5.17857ZM1 28.5C1 26.3888 2.45485 24.6148 4.41802 24.1307L3.93913 22.1889C1.10365 22.8882 -1 25.4472 -1 28.5H1ZM5.5 33C3.01472 33 1 30.9853 1 28.5H-1C-1 32.0899 1.91015 35 5.5 35V33ZM10 28.5C10 30.9853 7.98528 33 5.5 33V35C9.08985 35 12 32.0899 12 28.5H10ZM6.46527 24.1036C8.48692 24.5449 10 26.3469 10 28.5H12C12 25.387 9.81265 22.7873 6.89187 22.1496L6.46527 24.1036ZM5.67857 19.1929V23.1266H7.67857V19.1929H5.67857ZM17.6 18.1929H6.67857V20.1929H17.6V18.1929ZM19.85 15.9429C19.85 17.1855 18.8426 18.1929 17.6 18.1929V20.1929C19.9472 20.1929 21.85 18.2901 21.85 15.9429H19.85ZM19.85 10.989V15.9429H21.85V10.989H19.85ZM20.9127 11.9871C24.3107 11.7737 27 8.95129 27 5.5H25C25 7.88871 23.1382 9.84337 20.7873 9.99101L20.9127 11.9871ZM27 5.5C27 1.91015 24.0899 -1 20.5 -1V1C22.9853 1 25 3.01472 25 5.5H27ZM20.5 -1C16.9101 -1 14 1.91015 14 5.5H16C16 3.01472 18.0147 1 20.5 1V-1ZM14 5.5C14 8.18979 15.6336 10.4957 17.9588 11.4842L18.7412 9.64361C17.1281 8.95785 16 7.35952 16 5.5H14ZM19.35 15.9429V10.5639H17.35V15.9429H19.35ZM17.6 17.6929C18.5665 17.6929 19.35 16.9094 19.35 15.9429H17.35C17.35 15.8048 17.4619 15.6929 17.6 15.6929V17.6929ZM6.67857 17.6929H17.6V15.6929H6.67857V17.6929ZM5.67857 10.8734V16.6929H7.67857V10.8734H5.67857ZM7.5 28.5C7.5 29.6046 6.60457 30.5 5.5 30.5V32.5C7.70914 32.5 9.5 30.7091 9.5 28.5H7.5ZM5.5 26.5C6.60457 26.5 7.5 27.3954 7.5 28.5H9.5C9.5 26.2909 7.70914 24.5 5.5 24.5V26.5ZM3.5 28.5C3.5 27.3954 4.39543 26.5 5.5 26.5V24.5C3.29086 24.5 1.5 26.2909 1.5 28.5H3.5ZM5.5 30.5C4.39543 30.5 3.5 29.6046 3.5 28.5H1.5C1.5 30.7091 3.29086 32.5 5.5 32.5V30.5ZM20.5 9.5C22.7091 9.5 24.5 7.70914 24.5 5.5H22.5C22.5 6.60457 21.6046 7.5 20.5 7.5V9.5ZM16.5 5.5C16.5 7.70914 18.2909 9.5 20.5 9.5V7.5C19.3954 7.5 18.5 6.60457 18.5 5.5H16.5ZM20.5 1.5C18.2909 1.5 16.5 3.29086 16.5 5.5H18.5C18.5 4.39543 19.3954 3.5 20.5 3.5V1.5ZM24.5 5.5C24.5 3.29086 22.7091 1.5 20.5 1.5V3.5C21.6046 3.5 22.5 4.39543 22.5 5.5H24.5Z"  mask="url(#path-1-inside-1_631_5178)"/>
</svg>
