<svg width="28" height="37" viewBox="0 0 28 37" fill="none" xmlns="http://www.w3.org/2000/svg">
<path d="M5.92292 17.412H18.8462C20.6304 17.412 22.0771 15.9501 22.0771 14.1471V9.67278C19.9189 9.17801 18.3078 7.22759 18.3078 4.89704C18.3078 2.19246 20.4775 0 23.1539 0C25.8303 0 28 2.19253 28 4.89704C28 7.22759 26.3889 9.17803 24.2307 9.67278V14.1471C24.2307 17.1523 21.8202 19.5882 18.8462 19.5882H5.92292V27.3272C8.08113 27.822 9.69221 29.7724 9.69221 32.103C9.69221 34.8075 7.52249 37 4.8461 37C2.16972 37 0 34.8075 0 32.103C0 29.7724 1.61114 27.822 3.76929 27.3272V9.67284C1.61107 9.17808 0 7.22766 0 4.89711C0 2.19253 2.16972 6.60718e-05 4.8461 6.60718e-05C7.52249 6.60718e-05 9.69221 2.19259 9.69221 4.89711C9.69221 7.22766 8.08107 9.1781 5.92292 9.67284V17.412ZM4.8461 7.61748C6.33308 7.61748 7.53838 6.39951 7.53838 4.89691C7.53838 3.39431 6.33308 2.17634 4.8461 2.17634C3.35913 2.17634 2.15383 3.39431 2.15383 4.89691C2.15383 6.39951 3.35913 7.61748 4.8461 7.61748V7.61748ZM4.8461 34.8239C6.33308 34.8239 7.53838 33.6059 7.53838 32.1033C7.53838 30.6007 6.33308 29.3827 4.8461 29.3827C3.35913 29.3827 2.15383 30.6007 2.15383 32.1033C2.15383 33.6059 3.35913 34.8239 4.8461 34.8239V34.8239ZM23.1538 7.61748C24.6407 7.61748 25.846 6.39951 25.846 4.89691C25.846 3.39431 24.6407 2.17634 23.1538 2.17634C21.6668 2.17634 20.4615 3.39431 20.4615 4.89691C20.4615 6.39951 21.6668 7.61748 23.1538 7.61748V7.61748Z" fill="black"/>
</svg>
