<svg width="35" height="34" viewBox="0 0 35 34" fill="none" xmlns="http://www.w3.org/2000/svg">
<path fill-rule="evenodd" clip-rule="evenodd" d="M0.700012 7.00001C0.700012 3.52062 3.52062 0.700012 7.00001 0.700012H28.0714C31.5508 0.700012 34.3714 3.52062 34.3714 7.00001V27C34.3714 30.4794 31.5508 33.3 28.0714 33.3H7.00001C3.52062 33.3 0.700012 30.4794 0.700012 27V7.00001ZM7.00001 3.30001C4.95656 3.30001 3.30001 4.95656 3.30001 7.00001V27C3.30001 29.0435 4.95656 30.7 7.00001 30.7H28.0714C30.1149 30.7 31.7714 29.0435 31.7714 27V7.00001C31.7714 4.95656 30.1149 3.30001 28.0714 3.30001H7.00001Z" />
<rect x="13" y="12" width="9" height="10" rx="2" fill="#459A47"/>
</svg>
