<svg width="35" height="34" viewBox="0 0 35 34" fill="none" xmlns="http://www.w3.org/2000/svg">
<path fill-rule="evenodd" clip-rule="evenodd" d="M7.00002 0.399994C3.35494 0.399994 0.400024 3.35492 0.400024 6.99999V27C0.400024 30.6451 3.35495 33.6 7.00003 33.6H28.0715C31.7165 33.6 34.6715 30.6451 34.6715 27V6.99999C34.6715 3.35491 31.7165 0.399994 28.0714 0.399994H7.00002ZM3.60002 6.99999C3.60002 5.12223 5.12226 3.59999 7.00002 3.59999H28.0714C29.9492 3.59999 31.4715 5.12223 31.4715 6.99999V27C31.4715 28.8778 29.9492 30.4 28.0715 30.4H7.00003C5.12226 30.4 3.60002 28.8778 3.60002 27V6.99999ZM23.8715 16.5C23.8715 19.9794 21.0508 22.8 17.5715 22.8C14.0921 22.8 11.2715 19.9794 11.2715 16.5C11.2715 13.0206 14.0921 10.2 17.5715 10.2C21.0508 10.2 23.8715 13.0206 23.8715 16.5ZM27.0715 16.5C27.0715 21.7467 22.8182 26 17.5715 26C12.3247 26 8.07145 21.7467 8.07145 16.5C8.07145 11.2533 12.3247 6.99999 17.5715 6.99999C22.8182 6.99999 27.0715 11.2533 27.0715 16.5Z" fill="black"/>
<path d="M25 16.5C25 20.6421 21.6421 24 17.5 24C13.3579 24 10 20.6421 10 16.5C10 12.3579 13.3579 9 17.5 9C21.6421 9 25 12.3579 25 16.5Z" fill="#459A47"/>
</svg>
