<svg width="35" height="34" viewBox="0 0 35 34" fill="none" xmlns="http://www.w3.org/2000/svg">
<path fill-rule="evenodd" clip-rule="evenodd" d="M4.00002 3.59999C3.77911 3.59999 3.60002 3.77908 3.60002 3.99999V9.49999H0.400024V3.99999C0.400024 2.01177 2.0118 0.399994 4.00002 0.399994H9.76788V3.59999H4.00002ZM31.0715 3.59999H25.3036V0.399994H31.0715C33.0597 0.399994 34.6715 2.01177 34.6715 3.99999V9.49999H31.4715V3.99999C31.4715 3.77908 31.2924 3.59999 31.0715 3.59999ZM3.60002 24.5V30C3.60002 30.2209 3.77911 30.4 4.00003 30.4H9.76788V33.6H4.00003C2.0118 33.6 0.400024 31.9882 0.400024 30V24.5H3.60002ZM31.4715 30V24.5H34.6715V30C34.6715 31.9882 33.0597 33.6 31.0715 33.6H25.3036V30.4H31.0715C31.2924 30.4 31.4715 30.2209 31.4715 30Z" />
<path d="M27 16.5C27 21.7467 22.7467 26 17.5 26C12.2533 26 8 21.7467 8 16.5C8 11.2533 12.2533 7 17.5 7C22.7467 7 27 11.2533 27 16.5Z" fill="#459A47"/>
</svg>
