<svg width="35" height="34" viewBox="0 0 35 34" fill="none" xmlns="http://www.w3.org/2000/svg">
<path fill-rule="evenodd" clip-rule="evenodd" d="M0.700027 7C0.700027 3.5206 3.52063 0.699997 7.00003 0.699997H28.0715C31.5508 0.699997 34.3715 3.5206 34.3715 7V27C34.3715 30.4794 31.5508 33.3 28.0715 33.3H7.00003C3.52064 33.3 0.700027 30.4794 0.700027 27V7ZM7.00003 3.3C4.95657 3.3 3.30003 4.95654 3.30003 7V27C3.30003 29.0434 4.95658 30.7 7.00003 30.7H28.0715C30.1149 30.7 31.7715 29.0434 31.7715 27V7C31.7715 4.95654 30.1149 3.3 28.0715 3.3H7.00003ZM10.4393 9.93934C11.0251 9.35355 11.9749 9.35355 12.5607 9.93934L17.25 14.6287L21.9393 9.93934C22.5251 9.35355 23.4749 9.35355 24.0607 9.93934C24.6464 10.5251 24.6464 11.4749 24.0607 12.0607L19.3713 16.75L24.0607 21.4393C24.6464 22.0251 24.6464 22.9749 24.0607 23.5607C23.4749 24.1464 22.5251 24.1464 21.9393 23.5607L17.25 18.8713L12.5607 23.5607C11.9749 24.1464 11.0251 24.1464 10.4393 23.5607C9.85355 22.9749 9.85355 22.0251 10.4393 21.4393L15.1287 16.75L10.4393 12.0607C9.85355 11.4749 9.85355 10.5251 10.4393 9.93934Z" />
</svg>
