<svg width="50" height="50" viewBox="0 0 50 50" fill="none" xmlns="http://www.w3.org/2000/svg">
<path d="M32.4625 15.4552L15.4144 32.5033C14.6332 33.2844 14.6423 34.5417 15.4346 35.3115C16.2269 36.0812 17.5025 36.072 18.2836 35.2909L35.3317 18.2428C36.1128 17.4617 36.1038 16.2044 35.3115 15.4346C34.5191 14.6649 33.2436 14.6741 32.4625 15.4552Z" fill="#848484"/>
<path d="M35.2908 32.4625L18.2427 15.4144C17.4616 14.6332 16.2043 14.6423 15.4346 15.4346C14.6648 16.2269 14.674 17.5025 15.4551 18.2836L32.5032 35.3317C33.2844 36.1128 34.5416 36.1038 35.3114 35.3115C36.0812 34.5191 36.072 33.2436 35.2908 32.4625Z" fill="#848484"/>
</svg>
