<?xml version="1.0" encoding="UTF-8" standalone="no"?>
<svg
   xmlns:dc="http://purl.org/dc/elements/1.1/"
   xmlns:cc="http://creativecommons.org/ns#"
   xmlns:rdf="http://www.w3.org/1999/02/22-rdf-syntax-ns#"
   xmlns:svg="http://www.w3.org/2000/svg"
   xmlns="http://www.w3.org/2000/svg"
   xmlns:sodipodi="http://sodipodi.sourceforge.net/DTD/sodipodi-0.dtd"
   xmlns:inkscape="http://www.inkscape.org/namespaces/inkscape"
   inkscape:version="1.0 (4035a4f, 2020-05-01)"
   sodipodi:docname="Close.svg"
   id="svg331"
   version="1.1"
   viewBox="0 0 15 15.000005"
   height="15.000005"
   width="15">
  <metadata
     id="metadata337">
    <rdf:RDF>
      <cc:Work
         rdf:about="">
        <dc:format>image/svg+xml</dc:format>
        <dc:type
           rdf:resource="http://purl.org/dc/dcmitype/StillImage" />
      </cc:Work>
    </rdf:RDF>
  </metadata>
  <defs
     id="defs335" />
  <sodipodi:namedview
     inkscape:current-layer="svg331"
     inkscape:window-maximized="0"
     inkscape:window-y="0"
     inkscape:window-x="0"
     inkscape:cy="7.5"
     inkscape:cx="5.5924855"
     inkscape:zoom="34.6"
     showgrid="false"
     id="namedview333"
     inkscape:window-height="859"
     inkscape:window-width="1211"
     inkscape:pageshadow="2"
     inkscape:pageopacity="0"
     guidetolerance="10"
     gridtolerance="10"
     objecttolerance="10"
     borderopacity="1"
     bordercolor="#666666"
     pagecolor="#ffffff" />
  <path
     style="stroke-width:0.75"
     id="path329"
     d="m 8.8209,7.4991975 5.901975,-5.89323 c 0.1764,-0.1764225 0.27555,-0.41571 0.27555,-0.6652125 0,-0.249504 -0.09915,-0.4887885 -0.27555,-0.665214 C 14.546475,0.0991147 14.307225,0 14.057775,0 13.80825,0 13.569,0.0991147 13.3926,0.275541 L 7.5,6.17814 1.6073925,0.275541 C 1.4309925,0.0991147 1.1917275,2e-7 0.942255,2e-7 0.6927758,2e-7 0.4535167,0.0991152 0.27711,0.275541 0.1007032,0.4519665 0.001599,0.691251 0.001599,0.940755 c 0,0.2495025 0.099104,0.48879 0.275511,0.6652125 L 6.179085,7.4991975 0.27711,13.39245 C 0.189303,13.479525 0.1196092,13.583175 0.0720482,13.697325 0.0244871,13.811475 0,13.93395 0,14.057625 0,14.1813 0.024487,14.303775 0.072048,14.418 c 0.047561,0.11415 0.1172548,0.217725 0.2050618,0.304875 0.08709,0.08783 0.1907032,0.1575 0.3048637,0.20505 C 0.6961335,14.975475 0.81858,15 0.942255,15 1.0659225,15 1.188375,14.97547 1.3025325,14.92792 1.41669,14.880375 1.52031,14.8107 1.6073925,14.722875 L 7.5,8.820225 l 5.8926,5.90265 c 0.08708,0.08783 0.190725,0.1575 0.304875,0.20505 0.11415,0.04755 0.236625,0.07208 0.3603,0.07208 0.123675,0 0.246075,-0.02453 0.360225,-0.07208 0.11415,-0.04755 0.2178,-0.117225 0.304875,-0.20505 0.08783,-0.08715 0.1575,-0.190725 0.20505,-0.304875 C 14.97555,14.303775 15,14.1813 15,14.057625 c 0,-0.123675 -0.02445,-0.24615 -0.07208,-0.3603 -0.04755,-0.11415 -0.117225,-0.2178 -0.20505,-0.304875 z" />
</svg>
