<svg width="50" height="50" viewBox="0 0 50 50" fill="none" xmlns="http://www.w3.org/2000/svg">
<circle cx="25" cy="25" r="24.95" stroke="black" stroke-width="0.1"/>
<path d="M33.1697 14.7479L14.7071 33.2106C14.3166 33.6011 14.3211 34.2296 14.7172 34.6145L16.152 36.0084C16.5481 36.3933 17.1858 36.3887 17.5764 35.9982L36.039 17.5355C36.4295 17.145 36.425 16.5165 36.0288 16.1316L34.5941 14.7377C34.198 14.3528 33.5603 14.3574 33.1697 14.7479Z" fill="#848484"/>
<path d="M35.9981 33.1697L17.5355 14.7071C17.145 14.3166 16.5164 14.3211 16.1315 14.7172L14.7376 16.152C14.3527 16.5481 14.3573 17.1858 14.7479 17.5764L33.2105 36.039C33.601 36.4295 34.2296 36.425 34.6144 36.0288L36.0084 34.5941C36.3932 34.198 36.3886 33.5603 35.9981 33.1697Z" fill="#848484"/>
</svg>
