<svg width="50" height="50" viewBox="0 0 50 50" fill="none" xmlns="http://www.w3.org/2000/svg">
<path d="M32.4625 15.4552L15.4144 32.5033C14.6333 33.2844 14.6424 34.5417 15.4347 35.3115C16.227 36.0812 17.5025 36.072 18.2837 35.2909L35.3318 18.2428C36.1129 17.4617 36.1038 16.2044 35.3115 15.4346C34.5192 14.6649 33.2437 14.6741 32.4625 15.4552Z" fill="black"/>
<path d="M35.2909 32.4625L18.2428 15.4144C17.4617 14.6332 16.2044 14.6423 15.4346 15.4346C14.6649 16.2269 14.6741 17.5025 15.4552 18.2836L32.5033 35.3317C33.2844 36.1128 34.5417 36.1038 35.3115 35.3115C36.0812 34.5191 36.072 33.2436 35.2909 32.4625Z" fill="black"/>
</svg>
