<svg width="22" height="23" viewBox="0 0 22 23" fill="none" xmlns="http://www.w3.org/2000/svg">
<path fill-rule="evenodd" clip-rule="evenodd" d="M12.9274 11.3631L21.2811 2.61852C21.8534 2.01949 21.8534 1.04829 21.2811 0.449268C20.7089 -0.149755 19.7811 -0.149756 19.2088 0.449267L10.8551 9.19386L2.50145 0.449271C1.9292 -0.149751 1.00141 -0.149751 0.429168 0.449272C-0.143076 1.04829 -0.143076 2.0195 0.429168 2.61852L8.78286 11.3631L0.42917 20.1077C-0.143075 20.7067 -0.143075 21.6779 0.42917 22.277C1.00141 22.876 1.92921 22.876 2.50145 22.277L10.8551 13.5324L19.2088 22.277C19.7811 22.876 20.7089 22.876 21.2811 22.277C21.8534 21.6779 21.8534 20.7067 21.2811 20.1077L12.9274 11.3631Z" />
</svg>
