<svg width="20" height="20" viewBox="0 0 20 20" fill="none" xmlns="http://www.w3.org/2000/svg">
<path d="M11.7612 9.99893L19.6305 2.14129C19.8657 1.90606 19.9979 1.58701 19.9979 1.25434C19.9979 0.921668 19.8657 0.602622 19.6305 0.367388C19.3953 0.132153 19.0763 0 18.7437 0C18.411 0 18.092 0.132153 17.8568 0.367388L10 8.23752L2.14319 0.367388C1.90799 0.132153 1.58897 2.95361e-07 1.25634 2.97839e-07C0.923701 3.00318e-07 0.604689 0.132153 0.36948 0.367388C0.134271 0.602622 0.00213201 0.921668 0.002132 1.25434C0.002132 1.58701 0.134271 1.90606 0.36948 2.14129L8.23878 9.99893L0.36948 17.8566C0.252404 17.9727 0.159479 18.1109 0.0960643 18.2631C0.0326494 18.4153 0 18.5786 0 18.7435C0 18.9084 0.0326494 19.0717 0.0960643 19.224C0.159479 19.3762 0.252404 19.5143 0.36948 19.6305C0.4856 19.7476 0.623751 19.8405 0.775965 19.9039C0.928178 19.9673 1.09144 20 1.25634 20C1.42123 20 1.5845 19.9673 1.73671 19.9039C1.88892 19.8405 2.02708 19.7476 2.14319 19.6305L10 11.7603L17.8568 19.6305C17.9729 19.7476 18.1111 19.8405 18.2633 19.9039C18.4155 19.9673 18.5788 20 18.7437 20C18.9086 20 19.0718 19.9673 19.224 19.9039C19.3762 19.8405 19.5144 19.7476 19.6305 19.6305C19.7476 19.5143 19.8405 19.3762 19.9039 19.224C19.9674 19.0717 20 18.9084 20 18.7435C20 18.5786 19.9674 18.4153 19.9039 18.2631C19.8405 18.1109 19.7476 17.9727 19.6305 17.8566L11.7612 9.99893Z" />
</svg>
