<svg width="23" height="38" viewBox="0 0 23 38" fill="none" xmlns="http://www.w3.org/2000/svg">
<path fill-rule="evenodd" clip-rule="evenodd" d="M2.25 19.25C2.25 24.2206 6.27944 28.25 11.25 28.25C16.2206 28.25 20.25 24.2206 20.25 19.25C20.25 14.2794 16.2206 10.25 11.25 10.25C6.27944 10.25 2.25 14.2794 2.25 19.25ZM0.249999 19.25C0.249999 25.1576 4.90697 29.9775 10.7501 30.2388L10.75 30.25L10.75 36.25C10.75 36.8023 11.1977 37.25 11.75 37.25C12.3023 37.25 12.75 36.8023 12.75 36.25L12.75 30.25C12.75 30.216 12.7483 30.1824 12.745 30.1493C18.113 29.4199 22.25 24.8181 22.25 19.25C22.25 13.6819 18.113 9.08014 12.745 8.35074C12.7483 8.31761 12.75 8.284 12.75 8.25L12.75 1.75C12.75 1.19771 12.3023 0.75 11.75 0.75C11.1977 0.75 10.75 1.19771 10.75 1.75L10.75 8.25C10.75 8.25372 10.75 8.25744 10.7501 8.26116C4.90697 8.52252 0.249999 13.3424 0.249999 19.25Z"/>
</svg>
