<svg width="50" height="50" viewBox="0 0 50 50" xmlns="http://www.w3.org/2000/svg">
<path d="M34.3084 14.0002H14.904C13.2963 14.0002 12 15.3198 12 16.9694V29.7366C12 31.3809 13.2963 32.6953 14.904 32.6953H15.3685V37.1098C15.3685 37.4606 15.5726 37.7801 15.884 37.9214C15.9962 37.9738 16.1187 38 16.2361 38C16.4454 38 16.6546 37.9057 16.818 37.7591L22.2533 32.6951H34.3134C35.916 32.6951 37.2174 31.3807 37.2174 29.7363V16.9692C37.2123 15.3197 35.9159 14 34.3082 14L34.3084 14.0002ZM35.4772 29.7363C35.4772 30.4014 34.9566 30.9145 34.3084 30.9145H21.9166C21.7022 30.9145 21.4929 31.0088 21.3347 31.1554L17.1037 35.1038V31.8309C17.1037 31.3387 16.7158 30.9145 16.236 30.9145H14.9039C14.2557 30.9145 13.7352 30.4013 13.7352 29.7363V16.9691C13.7352 16.3041 14.2557 15.7804 14.9039 15.7804H34.3135C34.9617 15.7804 35.4822 16.3041 35.4822 16.9691V29.7363L35.4772 29.7363Z"/>
<path d="M31.0166 25.6255H18.1959C17.7162 25.6255 17.3282 26.0235 17.3282 26.5157C17.3282 27.008 17.7161 27.406 18.1959 27.406H31.0115C31.4912 27.406 31.8791 27.008 31.8791 26.5157C31.8791 26.0235 31.4963 25.6255 31.0166 25.6255Z"/>
<path d="M31.0166 22.1697H18.1959C17.7162 22.1697 17.3282 22.5677 17.3282 23.0599C17.3282 23.5522 17.7161 23.9502 18.1959 23.9502H31.0115C31.4912 23.9502 31.8791 23.5522 31.8791 23.0599C31.8791 22.5677 31.4963 22.1697 31.0166 22.1697Z"/>
<path d="M18.1955 20.4415H23.09C23.5698 20.4415 23.9577 20.0435 23.9577 19.5513C23.9577 19.059 23.5698 18.661 23.09 18.661H18.1955C17.7158 18.661 17.3279 19.059 17.3279 19.5513C17.3279 20.0435 17.7158 20.4415 18.1955 20.4415Z"/>
</svg>
