<svg width="23" height="49" viewBox="0 0 23 49" fill="none" xmlns="http://www.w3.org/2000/svg">
<circle cx="11.5" cy="24.5" r="9.5" fill="#00FF06"/>
<path fill-rule="evenodd" clip-rule="evenodd" d="M2.25 24.25C2.25 29.2206 6.27944 33.25 11.25 33.25C16.2206 33.25 20.25 29.2206 20.25 24.25C20.25 19.2794 16.2206 15.25 11.25 15.25C6.27944 15.25 2.25 19.2794 2.25 24.25ZM0.249999 24.25C0.249999 30.1576 4.90696 34.9775 10.7501 35.2388L10.75 35.25L10.75 48C10.75 48.5523 11.1977 49 11.75 49C12.3023 49 12.75 48.5523 12.75 48L12.75 35.25C12.75 35.216 12.7483 35.1824 12.745 35.1493C18.1129 34.4199 22.25 29.8181 22.25 24.25C22.25 18.7449 18.2059 14.1843 12.9265 13.3769C12.9739 13.2606 13 13.1334 13 13L13 1C13 0.447715 12.5523 -4.23901e-07 12 -4.48042e-07C11.4477 -4.72183e-07 11 0.447715 11 1L11 13C11 13.0871 11.0111 13.1716 11.0321 13.2521C5.05752 13.3682 0.249999 18.2477 0.249999 24.25Z"/>
</svg>
