<svg width="30" height="38" viewBox="0 0 30 38" fill="none" xmlns="http://www.w3.org/2000/svg">
<path d="M16.875 22.8H9.375C8.87772 22.8 8.40081 23.0002 8.04918 23.3565C7.69754 23.7128 7.5 24.1961 7.5 24.7C7.5 25.2039 7.69754 25.6872 8.04918 26.0435C8.40081 26.3998 8.87772 26.6 9.375 26.6H16.875C17.3723 26.6 17.8492 26.3998 18.2008 26.0435C18.5525 25.6872 18.75 25.2039 18.75 24.7C18.75 24.1961 18.5525 23.7128 18.2008 23.3565C17.8492 23.0002 17.3723 22.8 16.875 22.8ZM24.375 3.8H22.1625C21.7757 2.69126 21.0599 1.7309 20.1132 1.05058C19.1666 0.370269 18.0355 0.00330507 16.875 0H13.125C11.9645 0.00330507 10.8334 0.370269 9.88675 1.05058C8.94013 1.7309 8.22434 2.69126 7.8375 3.8H5.625C4.13316 3.8 2.70242 4.40053 1.64752 5.46949C0.592632 6.53845 0 7.98827 0 9.5V32.3C0 33.8117 0.592632 35.2616 1.64752 36.3305C2.70242 37.3995 4.13316 38 5.625 38H24.375C25.8668 38 27.2976 37.3995 28.3525 36.3305C29.4074 35.2616 30 33.8117 30 32.3V9.5C30 7.98827 29.4074 6.53845 28.3525 5.46949C27.2976 4.40053 25.8668 3.8 24.375 3.8ZM11.25 5.7C11.25 5.19609 11.4475 4.71282 11.7992 4.3565C12.1508 4.00018 12.6277 3.8 13.125 3.8H16.875C17.3723 3.8 17.8492 4.00018 18.2008 4.3565C18.5525 4.71282 18.75 5.19609 18.75 5.7V7.6H11.25V5.7ZM26.25 32.3C26.25 32.8039 26.0525 33.2872 25.7008 33.6435C25.3492 33.9998 24.8723 34.2 24.375 34.2H5.625C5.12772 34.2 4.65081 33.9998 4.29918 33.6435C3.94754 33.2872 3.75 32.8039 3.75 32.3V9.5C3.75 8.99609 3.94754 8.51282 4.29918 8.1565C4.65081 7.80018 5.12772 7.6 5.625 7.6H7.5V9.5C7.5 10.0039 7.69754 10.4872 8.04918 10.8435C8.40081 11.1998 8.87772 11.4 9.375 11.4H20.625C21.1223 11.4 21.5992 11.1998 21.9508 10.8435C22.3025 10.4872 22.5 10.0039 22.5 9.5V7.6H24.375C24.8723 7.6 25.3492 7.80018 25.7008 8.1565C26.0525 8.51282 26.25 8.99609 26.25 9.5V32.3ZM20.625 15.2H9.375C8.87772 15.2 8.40081 15.4002 8.04918 15.7565C7.69754 16.1128 7.5 16.5961 7.5 17.1C7.5 17.6039 7.69754 18.0872 8.04918 18.4435C8.40081 18.7998 8.87772 19 9.375 19H20.625C21.1223 19 21.5992 18.7998 21.9508 18.4435C22.3025 18.0872 22.5 17.6039 22.5 17.1C22.5 16.5961 22.3025 16.1128 21.9508 15.7565C21.5992 15.4002 21.1223 15.2 20.625 15.2Z" />
</svg>
