<svg width="50" height="50" viewBox="0 0 50 50" fill="none" xmlns="http://www.w3.org/2000/svg">
<path d="M27.1665 35.4375L27.2774 14.2238C27.2803 13.6716 26.8349 13.2262 26.2826 13.2291L23.7227 13.2425C23.1705 13.2453 22.7204 13.6954 22.7175 14.2477L22.6066 35.4614C22.6037 36.0137 23.0491 36.459 23.6014 36.4561L26.1613 36.4428C26.7135 36.4399 27.1636 35.9898 27.1665 35.4375Z" fill="#7D7D7D"/>
<path d="M14.4684 27.4339L35.6821 27.323C36.2344 27.3202 36.6845 26.8701 36.6874 26.3178L36.7007 23.758C36.7036 23.2057 36.2583 22.7603 35.706 22.7632L14.4923 22.8741C13.94 22.877 13.4899 23.327 13.4871 23.8793L13.4737 26.4392C13.4708 26.9915 13.9162 27.4368 14.4684 27.4339Z" fill="#7D7D7D"/>
<circle cx="25" cy="25" r="24.5" stroke="#494747"/>
</svg>
