<svg width="34" height="30" viewBox="0 0 34 30" fill="none" xmlns="http://www.w3.org/2000/svg">
<path fill-rule="evenodd" clip-rule="evenodd" d="M6.3097 3.4C6.14401 3.4 6.0097 3.53431 6.0097 3.7V8.97034C6.0097 9.90923 5.24858 10.6703 4.3097 10.6703C3.37081 10.6703 2.6097 9.90923 2.6097 8.97034V3.7C2.6097 1.65655 4.26624 0 6.3097 0H27.9762C30.0197 0 31.6762 1.65655 31.6762 3.7V8.97034C31.6762 9.90923 30.9151 10.6703 29.9762 10.6703C29.0374 10.6703 28.2762 9.90923 28.2762 8.97034V3.7C28.2762 3.53431 28.1419 3.4 27.9762 3.4H6.3097ZM0.0999985 14.4735C0.0999985 13.7555 0.682028 13.1735 1.4 13.1735L32.0944 13.1735C32.8124 13.1735 33.3944 13.7555 33.3944 14.4735C33.3944 15.1915 32.8124 15.7735 32.0944 15.7735L1.4 15.7735C0.682028 15.7735 0.0999984 15.1915 0.0999985 14.4735ZM28.2763 25.632C28.2763 25.7977 28.1419 25.932 27.9763 25.932L6.30972 25.932C6.14403 25.932 6.00972 25.7977 6.00972 25.632L6.00972 20.3617C6.00972 19.4228 5.2486 18.6617 4.30972 18.6617C3.37084 18.6617 2.60972 19.4228 2.60972 20.3617L2.60972 25.632C2.60972 27.6755 4.26626 29.332 6.30972 29.332L27.9763 29.332C30.0197 29.332 31.6763 27.6755 31.6763 25.632V20.3617C31.6763 19.4228 30.9151 18.6617 29.9763 18.6617C29.0374 18.6617 28.2763 19.4228 28.2763 20.3617L28.2763 25.632Z" />
</svg>
