<svg width="29" height="24" viewBox="0 0 29 24" xmlns="http://www.w3.org/2000/svg">
<path fill-rule="evenodd" clip-rule="evenodd" d="M28.8457 11.9698C28.8457 11.317 28.3165 10.7878 27.6638 10.7878L2.08646 10.7878C1.43369 10.7878 0.904518 11.317 0.904518 11.9698C0.904518 12.6225 1.43369 13.1517 2.08646 13.1517L27.6638 13.1517C28.3165 13.1517 28.8457 12.6225 28.8457 11.9698ZM5.37584 3.6582L5.37584 7.2207C5.37584 7.53565 5.25073 7.83769 5.02803 8.06039C4.80534 8.28309 4.50329 8.4082 4.18834 8.4082C3.8734 8.4082 3.57135 8.28309 3.34865 8.06039C3.12596 7.83769 3.00084 7.53565 3.00084 7.2207L3.00084 3.6582C3.00084 2.71337 3.37618 1.80723 4.04428 1.13913C4.71237 0.471036 5.61851 0.0957021 6.56334 0.0957022L9.97376 0.0957023L10.1258 0.0957023L19.6258 0.0957027L20.684 0.0957028L23.1883 0.0957029C24.1332 0.0957029 25.0393 0.471037 25.7074 1.13914C26.3755 1.80723 26.7508 2.71337 26.7508 3.6582L26.7508 7.2207C26.7508 7.53565 26.6257 7.83769 26.403 8.06039C26.1803 8.28309 25.8783 8.4082 25.5633 8.4082C25.2484 8.4082 24.9464 8.28309 24.7237 8.06039C24.501 7.83769 24.3758 7.53565 24.3758 7.2207L24.3758 3.6582C24.3758 3.34326 24.2507 3.04121 24.028 2.81851C23.8053 2.59581 23.5033 2.4707 23.1883 2.4707L19.6258 2.4707C19.6146 2.4707 19.6034 2.47054 19.5921 2.47022L10.1596 2.47022C10.1483 2.47054 10.1371 2.4707 10.1258 2.4707L6.56334 2.4707C6.2484 2.4707 5.94635 2.59581 5.72366 2.81851C5.50096 3.04121 5.37584 3.34326 5.37584 3.6582ZM26.7508 16.7207L26.7508 20.2832C26.7508 21.228 26.3755 22.1342 25.7074 22.8023C25.0393 23.4704 24.1332 23.8457 23.1883 23.8457L19.6258 23.8457C19.6084 23.8457 19.5911 23.8453 19.5737 23.8446L10.1779 23.8446C10.1606 23.8453 10.1433 23.8457 10.1258 23.8457L6.56334 23.8457C5.61851 23.8457 4.71237 23.4704 4.04428 22.8023C3.37618 22.1342 3.00084 21.228 3.00084 20.2832L3.00084 16.7207C3.00084 16.4058 3.12595 16.1037 3.34865 15.881C3.57135 15.6583 3.8734 15.5332 4.18834 15.5332C4.50329 15.5332 4.80534 15.6583 5.02803 15.881C5.25073 16.1037 5.37584 16.4058 5.37584 16.7207L5.37584 20.2832C5.37584 20.5981 5.50095 20.9002 5.72365 21.1229C5.94635 21.3456 6.2484 21.4707 6.56334 21.4707L9.97293 21.4707L9.97293 21.47L20.6832 21.47L20.6832 21.4707L23.1883 21.4707C23.5033 21.4707 23.8053 21.3456 24.028 21.1229C24.2507 20.9002 24.3758 20.5981 24.3758 20.2832L24.3758 16.7207C24.3758 16.4058 24.501 16.1037 24.7237 15.881C24.9464 15.6583 25.2484 15.5332 25.5633 15.5332C25.8783 15.5332 26.1803 15.6583 26.403 15.881C26.6257 16.1037 26.7508 16.4058 26.7508 16.7207Z"/>
</svg>
