<svg width="50" height="50" viewBox="0 0 50 50" fill="none" xmlns="http://www.w3.org/2000/svg">
<path d="M49 25C49 38.2548 38.2548 49 25 49C11.7452 49 1 38.2548 1 25C1 11.7452 11.7452 1 25 1C38.2548 1 49 11.7452 49 25Z" stroke="#494747" stroke-width="2"/>
<path d="M36.7176 13H13.3928C13.2002 13 13.0442 13.2329 13.0442 13.521V36.479C13.0442 36.7666 13.2 37 13.3928 37H36.7176C36.91 37 37.0662 36.7666 37.0662 36.479V13.521C37.0662 13.2334 36.91 13 36.7176 13ZM22.5162 30.2189C21.9639 30.2189 21.5162 29.7712 21.5162 29.2189V26.5212C21.5162 25.9689 21.9639 25.5212 22.5162 25.5212H27.5942C28.1465 25.5212 28.5942 25.9689 28.5942 26.5212V29.2189C28.5942 29.7712 28.1465 30.2189 27.5942 30.2189H22.5162ZM27.5938 19.7815C28.1461 19.7815 28.5938 20.2293 28.5938 20.7815V23.4792C28.5938 24.0315 28.1461 24.4792 27.5938 24.4792H22.5162C21.9639 24.4792 21.5162 24.0315 21.5162 23.4792V20.7815C21.5162 20.2293 21.9639 19.7815 22.5162 19.7815H27.5938ZM19.8191 19.7815C20.3714 19.7815 20.8191 20.2293 20.8191 20.7815V23.4792C20.8191 24.0315 20.3714 24.4792 19.8191 24.4792H14.7411C14.1888 24.4792 13.7411 24.0315 13.7411 23.4792V20.7815C13.7411 20.2293 14.1888 19.7815 14.7411 19.7815H19.8191ZM19.8191 25.5212C20.3714 25.5212 20.8191 25.9689 20.8191 26.5212V29.2189C20.8191 29.7712 20.3714 30.2189 19.8191 30.2189H14.7411C14.1888 30.2189 13.7411 29.7712 13.7411 29.2189V26.5212C13.7411 25.9689 14.1888 25.5212 14.7411 25.5212H19.8191ZM21.5162 32.2609C21.5162 31.7086 21.9639 31.2609 22.5162 31.2609H27.5942C28.1465 31.2609 28.5942 31.7086 28.5942 32.2609V34.9583C28.5942 35.5106 28.1465 35.9583 27.5942 35.9583H22.5162C21.9639 35.9583 21.5162 35.5106 21.5162 34.9583V32.2609ZM30.2913 30.219C29.739 30.219 29.2913 29.7713 29.2913 29.219V26.5213C29.2913 25.969 29.739 25.5213 30.2913 25.5213H35.3689C35.9212 25.5213 36.3689 25.969 36.3689 26.5213V29.219C36.3689 29.7713 35.9212 30.219 35.3689 30.219H30.2913ZM30.2913 24.4793C29.739 24.4793 29.2913 24.0316 29.2913 23.4793V20.7816C29.2913 20.2293 29.739 19.7816 30.2913 19.7816H35.3689C35.9212 19.7816 36.3689 20.2293 36.3689 20.7816V23.4793C36.3689 24.0316 35.9212 24.4793 35.3689 24.4793H30.2913ZM13.7411 32.2609C13.7411 31.7086 14.1888 31.2609 14.7411 31.2609H19.8191C20.3714 31.2609 20.8191 31.7086 20.8191 32.2609V34.9583C20.8191 35.5106 20.3714 35.9583 19.8191 35.9583H14.7411C14.1888 35.9583 13.7411 35.5106 13.7411 34.9583V32.2609ZM30.2913 35.9585C29.739 35.9585 29.2913 35.5108 29.2913 34.9585V32.2609C29.2913 31.7086 29.739 31.2609 30.2913 31.2609H35.3689C35.9212 31.2609 36.3689 31.7086 36.3689 32.2609V34.9583C36.3689 35.5106 35.9212 35.9583 35.3689 35.9583L30.2913 35.9585Z" fill="#848484"/>
</svg>
