<svg width="36" height="39" viewBox="0 0 36 39" fill="none" xmlns="http://www.w3.org/2000/svg">
<path d="M13.65 31.2C14.1672 31.2 14.6632 30.9946 15.0289 30.6289C15.3946 30.2632 15.6 29.7672 15.6 29.25V17.55C15.6 17.0328 15.3946 16.5368 15.0289 16.1711C14.6632 15.8054 14.1672 15.6 13.65 15.6C13.1328 15.6 12.6368 15.8054 12.2711 16.1711C11.9054 16.5368 11.7 17.0328 11.7 17.55V29.25C11.7 29.7672 11.9054 30.2632 12.2711 30.6289C12.6368 30.9946 13.1328 31.2 13.65 31.2ZM33.15 7.8H25.35V5.85C25.35 4.29848 24.7337 2.81051 23.6366 1.71343C22.5395 0.616338 21.0515 0 19.5 0H15.6C14.0485 0 12.5605 0.616338 11.4634 1.71343C10.3663 2.81051 9.75 4.29848 9.75 5.85V7.8H1.95C1.43283 7.8 0.936838 8.00545 0.571142 8.37114C0.205446 8.73684 0 9.23283 0 9.75C0 10.2672 0.205446 10.7632 0.571142 11.1289C0.936838 11.4946 1.43283 11.7 1.95 11.7H3.9V33.15C3.9 34.7015 4.51634 36.1895 5.61343 37.2866C6.71051 38.3837 8.19848 39 9.75 39H25.35C26.9015 39 28.3895 38.3837 29.4866 37.2866C30.5837 36.1895 31.2 34.7015 31.2 33.15V11.7H33.15C33.6672 11.7 34.1632 11.4946 34.5289 11.1289C34.8946 10.7632 35.1 10.2672 35.1 9.75C35.1 9.23283 34.8946 8.73684 34.5289 8.37114C34.1632 8.00545 33.6672 7.8 33.15 7.8ZM13.65 5.85C13.65 5.33283 13.8554 4.83684 14.2211 4.47114C14.5868 4.10545 15.0828 3.9 15.6 3.9H19.5C20.0172 3.9 20.5132 4.10545 20.8789 4.47114C21.2446 4.83684 21.45 5.33283 21.45 5.85V7.8H13.65V5.85ZM27.3 33.15C27.3 33.6672 27.0946 34.1632 26.7289 34.5289C26.3632 34.8946 25.8672 35.1 25.35 35.1H9.75C9.23283 35.1 8.73684 34.8946 8.37114 34.5289C8.00545 34.1632 7.8 33.6672 7.8 33.15V11.7H27.3V33.15ZM21.45 31.2C21.9672 31.2 22.4632 30.9946 22.8289 30.6289C23.1946 30.2632 23.4 29.7672 23.4 29.25V17.55C23.4 17.0328 23.1946 16.5368 22.8289 16.1711C22.4632 15.8054 21.9672 15.6 21.45 15.6C20.9328 15.6 20.4368 15.8054 20.0711 16.1711C19.7054 16.5368 19.5 17.0328 19.5 17.55V29.25C19.5 29.7672 19.7054 30.2632 20.0711 30.6289C20.4368 30.9946 20.9328 31.2 21.45 31.2Z" />
</svg>
