<svg width="22" height="24" viewBox="0 0 22 24" fill="none" xmlns="http://www.w3.org/2000/svg">
<path fill-rule="evenodd" clip-rule="evenodd" d="M12.9274 11.7059L21.2811 2.96132C21.8534 2.3623 21.8534 1.39109 21.2811 0.792072C20.7089 0.193049 19.7811 0.193048 19.2089 0.792071L10.8552 9.53667L2.50147 0.792075C1.92922 0.193053 1.00143 0.193053 0.429183 0.792076C-0.143061 1.3911 -0.143061 2.3623 0.429184 2.96133L8.78288 11.7059L0.429185 20.4505C-0.14306 21.0495 -0.143059 22.0207 0.429185 22.6198C1.00143 23.2188 1.92922 23.2188 2.50147 22.6198L10.8552 13.8752L19.2089 22.6198C19.7811 23.2188 20.7089 23.2188 21.2811 22.6198C21.8534 22.0207 21.8534 21.0495 21.2811 20.4505L12.9274 11.7059Z" />
</svg>
