<svg width="50" height="50" viewBox="0 0 50 50" fill="none" xmlns="http://www.w3.org/2000/svg">
<circle cx="25" cy="25" r="25" fill="#848484"/>
<path d="M33.2596 15.3095L14.797 33.7721C14.4064 34.1627 14.4131 34.789 14.8118 35.1712L15.3272 35.6651C15.726 36.0472 16.3658 36.0404 16.7563 35.6499L35.2189 17.1872C35.6094 16.7967 35.6028 16.1704 35.204 15.7882L34.6887 15.2943C34.2899 14.9122 33.6501 14.919 33.2596 15.3095Z" fill="#E5E5E5"/>
<path d="M35.0882 33.1697L16.6256 14.7071C16.235 14.3166 15.6087 14.3232 15.2266 14.722L14.7326 15.2374C14.3505 15.6361 14.3573 16.2759 14.7478 16.6665L33.2105 35.1291C33.601 35.5196 34.2274 35.5129 34.6095 35.1142L35.1034 34.5988C35.4855 34.2001 35.4787 33.5603 35.0882 33.1697Z" fill="#E5E5E5"/>
</svg>
