<svg width="38" height="28" viewBox="0 0 38 28" fill="none" xmlns="http://www.w3.org/2000/svg">
<path d="M10.702 0.599322L8.28122 1.40626C6.23455 2.08849 4.67152 3.75918 4.12695 5.84671L2.00001 14L0.175196 22.7591C-0.217589 24.6445 0.772703 26.5454 2.54284 27.3041L2.72991 27.3842C4.77326 28.26 7.13186 27.2308 7.87957 25.1372C8.52306 23.3354 10.3905 22.2781 12.2666 22.6533L17.2525 23.6505C18.4055 23.8811 19.5933 23.8751 20.7439 23.6329L25.6415 22.6018C27.2606 22.2609 28.8725 23.2106 29.3591 24.7919C29.9506 26.7145 32.1483 27.6209 33.9232 26.6743L35.1191 26.0365C36.8235 25.1275 37.7168 23.1971 37.3064 21.3095L35.5 13L33.5159 6.05577C32.8819 3.83648 31.1733 2.08541 28.9703 1.39696L26.294 0.560635C25.2122 0.222576 24.0339 0.582692 23.3258 1.46772C22.8039 2.12018 22.0136 2.5 21.178 2.5H15.8063C14.9807 2.5 14.1997 2.12467 13.6839 1.47992C12.9726 0.59072 11.7823 0.239223 10.702 0.599322Z" fill="#5565E3"/>
<path d="M28 11.5C28 13.433 26.433 15 24.5 15C22.567 15 21 13.433 21 11.5C21 9.567 22.567 8 24.5 8C26.433 8 28 9.567 28 11.5Z" fill="#D9D9D9"/>
<path d="M17 11.5C17 13.433 15.433 15 13.5 15C11.567 15 10 13.433 10 11.5C10 9.567 11.567 8 13.5 8C15.433 8 17 9.567 17 11.5Z" fill="#D9D9D9"/>
</svg>
