<svg width="43" height="33" viewBox="0 0 43 33" fill="none" xmlns="http://www.w3.org/2000/svg">
<path fill-rule="evenodd" clip-rule="evenodd" d="M7.28228 3.25161C7.12328 3.35876 6.98515 3.49015 6.87145 3.63894C4.49971 6.65741 0.270042 15.1698 0.794585 26.5876C0.80404 26.8175 0.858527 27.0453 0.957087 27.2566C1.05683 27.4705 1.20171 27.6676 1.39074 27.833C1.6271 28.0398 1.89342 28.3252 2.20181 28.6556C3.49988 30.0464 5.54345 32.2361 9.23707 32.7305C9.38781 32.7535 9.53856 32.7563 9.68595 32.7405C9.94823 32.7127 10.196 32.626 10.4138 32.4925C10.6313 32.3596 10.8208 32.1787 10.9647 31.9584C11.0455 31.8351 11.1114 31.7004 11.1595 31.5566L13.0371 26.2992C16.8328 27.5994 23.437 28.6715 30.2475 26.355L31.2948 30.8935C31.501 31.7869 32.3573 32.3613 33.2487 32.2323C33.4441 32.2607 33.6478 32.2562 33.8524 32.2141C36.1656 31.7386 38.9842 31.1273 42.1056 27.9722C42.2305 27.8489 42.3374 27.7063 42.4213 27.5482C42.5145 27.3727 42.5757 27.1848 42.6049 26.993C43.2252 23.2417 43.0559 13.5814 37.0775 3.79634L37.0737 3.7901C37.0341 3.72526 36.9903 3.66293 36.9425 3.60358C36.7165 3.32279 36.4161 3.12714 36.0876 3.02784L29.206 0.910407C27.6319 0.42607 25.9304 1.07807 25.0831 2.49029C25.0686 2.51445 25.0425 2.52924 25.0143 2.52924H18.4479C17.6892 1.10487 16.019 0.417757 14.4722 0.906226L7.7556 3.02725C7.58919 3.07731 7.42938 3.15233 7.28228 3.25161ZM34.3402 28.5251C35.9002 28.1462 37.4581 27.5512 39.226 25.8922C39.6201 22.5397 39.3038 14.4912 34.4244 6.17801L28.1767 4.25563C28.1414 4.24478 28.1033 4.25939 28.0843 4.29103C27.4373 5.36941 26.2719 6.02924 25.0143 6.02924H18.3621C17.1301 6.02924 16.0005 5.35524 15.4135 4.27933L9.32536 6.20191C7.41216 8.90004 3.99612 16.0605 4.26497 25.7241C4.58965 26.0383 4.88264 26.3458 5.16344 26.6404L5.16353 26.6405L5.16359 26.6406C6.11744 27.6415 6.93078 28.495 8.3682 28.9659L10.3439 23.434C10.3561 23.3985 10.3695 23.3631 10.3842 23.3279C10.4627 23.1386 10.5713 22.9698 10.7023 22.8252C11.0575 22.4326 11.573 22.2236 12.0962 22.2522C12.2888 22.2627 12.4825 22.3055 12.6695 22.3831C12.7049 22.3977 12.7396 22.4134 12.7736 22.4301C15.581 23.7618 23.2614 25.6871 30.7822 22.3967C31.0152 22.2948 31.2584 22.2476 31.4973 22.2496C32.2956 22.2477 33.0181 22.7957 33.2052 23.6065L34.3402 28.5251ZM27.5 17C27.8898 17 29 16.3776 29 14.5C29 12.6224 27.8898 12 27.5 12C27.1102 12 26 12.6224 26 14.5C26 16.3776 27.1102 17 27.5 17ZM27.5 19C29.433 19 31 16.9853 31 14.5C31 12.0147 29.433 10 27.5 10C25.567 10 24 12.0147 24 14.5C24 16.9853 25.567 19 27.5 19ZM18 14.5C18 16.3776 16.8898 17 16.5 17C16.1102 17 15 16.3776 15 14.5C15 12.6224 16.1102 12 16.5 12C16.8898 12 18 12.6224 18 14.5ZM20 14.5C20 16.9853 18.433 19 16.5 19C14.567 19 13 16.9853 13 14.5C13 12.0147 14.567 10 16.5 10C18.433 10 20 12.0147 20 14.5Z" />
</svg>
