<svg width="46" height="28" viewBox="0 0 46 28" xmlns="http://www.w3.org/2000/svg">
<path fill-rule="evenodd" clip-rule="evenodd" fill="currentColor" d="M27.3035 0.512212C26.7141 0.499212 26.2414 0.996447 26.2841 1.58452L26.2861 1.61135L12.3103 0.963565C12.2752 0.961938 12.2402 0.962167 12.2054 0.964211C12.0417 0.931666 11.87 0.983363 11.7516 1.10379C11.7216 1.12165 11.6925 1.14114 11.6644 1.1622L5.85201 5.51714C5.1554 6.03907 5.41905 7.12379 6.25237 7.29739L6.25242 7.2974C6.25274 7.29746 6.25322 7.29756 6.25402 7.29853L6.2541 7.29863V19.7245L1.68125 21.0523C0.694712 21.3387 0.72959 22.7483 1.72909 22.9856L21.697 27.7266C21.8634 27.7661 22.0371 27.7623 22.2015 27.7155L45.0253 21.2273C45.9745 20.9574 46.0006 19.6217 45.0627 19.3149L38.0771 17.0303L38.1542 5.92696C38.86 5.78495 39.1367 4.89619 38.6051 4.37965L36.4308 2.26654C36.2498 2.09062 36.0089 1.98967 35.7566 1.98393L30.067 1.85465L30.0619 1.53513C30.0532 0.997756 29.6214 0.563328 29.0841 0.551479L27.3035 0.512212ZM12.1395 2.05579L6.45356 6.31598L6.45423 6.31792L6.45632 6.31841C6.91795 6.41458 7.2541 6.82195 7.2541 7.29775V19.7245C7.2541 19.7998 7.24567 19.8736 7.22958 19.9449C7.24603 19.9953 7.25466 20.0493 7.25406 20.1053L7.24289 21.1495L17.5832 22.8772L17.5254 5.2677L12.1395 2.05579ZM18.1779 23.9594C18.1843 23.9582 18.1907 23.9569 18.1971 23.9554L31.1685 21.2584L37.5563 20.8614L38.0175 20.8328L38.0252 20.3707L38.0632 18.0779L44.7519 20.2654L21.928 26.7536L1.9601 22.0126L6.24691 20.7679L6.23836 21.5667L6.23378 21.9947L6.65593 22.0653L17.9929 23.9595C17.9991 23.9607 18.0053 23.9617 18.0115 23.9626L18.0952 23.9766L18.1779 23.9594ZM37.0988 17.2378C37.0839 17.2839 37.0755 17.3328 37.0746 17.3837L37.033 19.892L31.0707 20.2626L31.035 20.2648L30.9999 20.2721L18.5832 22.8538L18.5261 5.49749L31.6767 5.86767L31.6766 5.86787H31.6907H37.1546L37.0771 17.0234C37.0766 17.0965 37.084 17.1684 37.0988 17.2378ZM37.6727 4.86787L35.7339 2.98368L30.0443 2.85439C29.5073 2.84219 29.0758 2.40787 29.0672 1.87076L29.062 1.55124L27.2815 1.51197L27.2834 1.5388C27.3269 2.13654 26.8385 2.63803 26.2398 2.61028L14.0763 2.04649L18.1687 4.48703L31.6978 4.86787H37.6727Z"/>
</svg>
