<svg width="19" height="19" viewBox="0 0 19 19" fill="none" xmlns="http://www.w3.org/2000/svg">
<path d="M1 17V2C1 1.44772 1.44772 1 2 1H7C7.55228 1 8 1.44772 8 2V17C8 17.5523 7.55228 18 7 18H2C1.44772 18 1 17.5523 1 17Z" />
<path d="M11 17V9C11 8.44772 11.4477 8 12 8H17C17.5523 8 18 8.44772 18 9V17C18 17.5523 17.5523 18 17 18H12C11.4477 18 11 17.5523 11 17Z" />
<path d="M11 5V2C11 1.44772 11.4477 1 12 1H17C17.5523 1 18 1.44772 18 2V5C18 5.55228 17.5523 6 17 6H12C11.4477 6 11 5.55228 11 5Z" />
</svg>
