<svg width="31" height="28" viewBox="0 0 31 28" fill="none" xmlns="http://www.w3.org/2000/svg">
<path fill-rule="evenodd" clip-rule="evenodd" d="M27.5 8.5V4.5C27.5 3.94772 27.0523 3.5 26.5 3.5L4.5 3.5C3.94772 3.5 3.5 3.94772 3.5 4.5V8.5C3.5 9.05229 3.94772 9.5 4.5 9.5L26.5 9.5C27.0523 9.5 27.5 9.05229 27.5 8.5ZM30.5 4.5C30.5 2.29086 28.7091 0.5 26.5 0.5H4.5C2.29086 0.5 0.5 2.29086 0.5 4.5V8.5C0.5 10.7091 2.29086 12.5 4.5 12.5L26.5 12.5C28.7091 12.5 30.5 10.7091 30.5 8.5V4.5ZM27.5 23.5V19.5C27.5 18.9477 27.0523 18.5 26.5 18.5H23.5C22.9477 18.5 22.5 18.9477 22.5 19.5V23.5C22.5 24.0523 22.9477 24.5 23.5 24.5H26.5C27.0523 24.5 27.5 24.0523 27.5 23.5ZM30.5 19.5C30.5 17.2909 28.7091 15.5 26.5 15.5H23.5C21.2909 15.5 19.5 17.2909 19.5 19.5V23.5C19.5 25.7091 21.2909 27.5 23.5 27.5H26.5C28.7091 27.5 30.5 25.7091 30.5 23.5V19.5ZM14.5 19.5V23.5C14.5 24.0523 14.0523 24.5 13.5 24.5H4.5C3.94772 24.5 3.5 24.0523 3.5 23.5V19.5C3.5 18.9477 3.94771 18.5 4.5 18.5H13.5C14.0523 18.5 14.5 18.9477 14.5 19.5ZM13.5 15.5C15.7091 15.5 17.5 17.2909 17.5 19.5V23.5C17.5 25.7091 15.7091 27.5 13.5 27.5H4.5C2.29086 27.5 0.5 25.7091 0.5 23.5V19.5C0.5 17.2909 2.29086 15.5 4.5 15.5L13.5 15.5Z" fill="black"/>
</svg>
