<svg width="43" height="50" viewBox="0 0 43 50" fill="none" xmlns="http://www.w3.org/2000/svg">
<circle cx="15.5" cy="25" r="3" />
<path d="M3.06154 14.4496L3.75202 15.7812L3.75202 15.7812L3.06154 14.4496ZM26.0793 2.51441L25.3889 1.18277L25.3889 1.18277L26.0793 2.51441ZM27.8813 36.0492L27.2203 34.7027L27.2203 34.7027L27.8813 36.0492ZM4.42909 47.5621L5.0901 48.9086L5.0901 48.9086L4.42909 47.5621ZM1.54796 45.7373L0.0481205 45.7153L0.0481205 45.7153L1.54796 45.7373ZM1.98239 16.1957L3.48223 16.2177L1.98239 16.1957ZM16.4145 23.8111C15.7579 23.306 14.8161 23.4288 14.311 24.0854C13.8059 24.7421 13.9288 25.6838 14.5854 26.1889L16.4145 23.8111ZM41.694 46.4874C42.5155 46.3803 43.0945 45.6275 42.9874 44.806L41.2413 31.4194C41.1342 30.5979 40.3814 30.0188 39.5599 30.126C38.7384 30.2331 38.1593 30.9859 38.2665 31.8074L39.8186 43.7066L27.9194 45.2587C27.0979 45.3658 26.5188 46.1186 26.626 46.9401C26.7331 47.7616 27.4859 48.3406 28.3074 48.2335L41.694 46.4874ZM3.75202 15.7812L26.7698 3.84604L25.3889 1.18277L2.37107 13.1179L3.75202 15.7812ZM27.5 4.28992V34.2538H30.5V4.28992H27.5ZM27.2203 34.7027L3.76808 46.2156L5.0901 48.9086L28.5423 37.3957L27.2203 34.7027ZM3.0478 45.7594L3.48223 16.2177L0.482557 16.1736L0.0481205 45.7153L3.0478 45.7594ZM3.76808 46.2156C3.43297 46.3801 3.04231 46.1327 3.0478 45.7594L0.0481205 45.7153C0.0096956 48.3282 2.74434 50.0601 5.0901 48.9086L3.76808 46.2156ZM27.5 34.2538C27.5 34.4445 27.3915 34.6186 27.2203 34.7027L28.5423 37.3957C29.7406 36.8074 30.5 35.5887 30.5 34.2538H27.5ZM26.7698 3.84604C27.1026 3.67346 27.5 3.915 27.5 4.28992H30.5C30.5 1.66554 27.7187 -0.0252704 25.3889 1.18277L26.7698 3.84604ZM2.37107 13.1179C1.22702 13.7111 0.501506 14.885 0.482557 16.1736L3.48223 16.2177C3.48494 16.0336 3.58859 15.8659 3.75202 15.7812L2.37107 13.1179ZM14.5854 26.1889L40.5854 46.1889L42.4145 43.8111L16.4145 23.8111L14.5854 26.1889Z" />
</svg>
