<svg width="50" height="50" viewBox="0 0 50 50" fill="none" xmlns="http://www.w3.org/2000/svg">
<path d="M22.2586 30.6589L22.2586 20.8612C22.2586 20.6403 22.0796 20.4612 21.8586 20.4612L19.9907 20.4612C19.7698 20.4612 19.5907 20.6403 19.5907 20.8612L19.5907 30.6589C19.5907 30.8798 19.4116 31.0589 19.1907 31.0589L16.749 31.0589C16.4082 31.0589 16.2235 31.4578 16.444 31.7176L20.615 36.635C20.7763 36.8252 21.0704 36.823 21.2289 36.6305L25.2773 31.7131C25.4921 31.4522 25.3065 31.0589 24.9685 31.0589L22.6586 31.0589C22.4377 31.0589 22.2586 30.8798 22.2586 30.6589Z" fill="#848484"/>
<path d="M29.6266 17.8101L29.6266 27.6078C29.6266 27.8288 29.8057 28.0078 30.0266 28.0078L31.8946 28.0078C32.1155 28.0078 32.2946 27.8288 32.2946 27.6078L32.2946 17.8101C32.2946 17.5892 32.4737 17.4101 32.6946 17.4101L35.1363 17.4101C35.477 17.4101 35.6617 17.0113 35.4413 16.7514L31.2702 11.834C31.1089 11.6438 30.8148 11.646 30.6564 11.8385L26.608 16.7559C26.3931 17.0168 26.5787 17.4101 26.9168 17.4101L29.2266 17.4101C29.4475 17.4101 29.6266 17.5892 29.6266 17.8101Z" fill="#848484"/>
<circle cx="25" cy="25" r="24.5" stroke="#494747"/>
</svg>
