<svg width="30" height="31" viewBox="0 0 30 31" fill="none" xmlns="http://www.w3.org/2000/svg">
<path fill-rule="evenodd" clip-rule="evenodd" d="M0.497528 25.1088C0.497528 28.2844 3.07189 30.8588 6.24753 30.8588L24.1088 30.8588C27.2844 30.8588 29.8588 28.2844 29.8588 25.1088L29.8588 6.25246C29.8588 3.07683 27.2844 0.502463 24.1088 0.502463L6.24753 0.502464C3.07189 0.502464 0.497527 3.07682 0.497527 6.25246L0.497528 25.1088ZM6.24753 29.3588C3.90032 29.3588 1.99753 27.456 1.99753 25.1088L1.99753 6.25246C1.99753 3.90525 3.90032 2.00246 6.24753 2.00246L24.1088 2.00246C26.456 2.00246 28.3588 3.90525 28.3588 6.25246L28.3588 25.1088C28.3588 27.456 26.456 29.3588 24.1088 29.3588L6.24753 29.3588ZM9.2046 17.1043C8.91009 16.813 8.43523 16.8157 8.14396 17.1102C7.85269 17.4047 7.85531 17.8795 8.14982 18.1708L14.1864 24.1411L14.7138 24.6627L15.2412 24.1411L21.2778 18.1708C21.5723 17.8795 21.5749 17.4047 21.2837 17.1102C20.9924 16.8157 20.5175 16.813 20.223 17.1043L15.4638 21.8112L15.4638 6.89107C15.4638 6.47686 15.128 6.14107 14.7138 6.14107C14.2996 6.14107 13.9638 6.47686 13.9638 6.89107L13.9638 21.8112L9.2046 17.1043Z" />
</svg>
