<svg width="40" height="38" viewBox="0 0 40 38" fill="none" xmlns="http://www.w3.org/2000/svg">
<path fill-rule="evenodd" clip-rule="evenodd" d="M3.00195 8.5L3.00195 3.5C3.00195 2.94772 3.44967 2.5 4.00195 2.5L9.00195 2.5V0.5H4.00195C2.3451 0.5 1.00195 1.84315 1.00195 3.5L1.00195 8.5H3.00195ZM35.502 2.5H30.502V0.5H35.502C37.1588 0.5 38.502 1.84315 38.502 3.5V8.5H36.502V3.5C36.502 2.94772 36.0542 2.5 35.502 2.5ZM11.002 13C11.002 11.3431 12.3451 10 14.002 10H16.6735C17.4692 10 18.2322 10.3161 18.7948 10.8787L20.1233 12.2071C20.3108 12.3946 20.5652 12.5 20.8304 12.5H26.502C28.1588 12.5 29.502 13.8431 29.502 15.5V23.5C29.502 25.1569 28.1588 26.5 26.502 26.5H14.002C12.3451 26.5 11.002 25.1569 11.002 23.5V13ZM14.002 12C13.4497 12 13.002 12.4477 13.002 13V23.5C13.002 24.0523 13.4497 24.5 14.002 24.5H26.502C27.0542 24.5 27.502 24.0523 27.502 23.5V15.5C27.502 14.9477 27.0542 14.5 26.502 14.5H20.8304C20.0347 14.5 19.2717 14.1839 18.7091 13.6213L17.3806 12.2929C17.1931 12.1054 16.9387 12 16.6735 12H14.002ZM4 35H9V37H4C2.34315 37 1 35.6569 1 34V29H3L3 34C3 34.5523 3.44772 35 4 35ZM36.5 29V34C36.5 34.5523 36.0523 35 35.5 35H30.5V37H35.5C37.1569 37 38.5 35.6569 38.5 34V29H36.5Z" fill="black"/>
<path d="M3.00195 3.5L2.50195 3.5L2.50195 3.5L3.00195 3.5ZM3.00195 8.5V9H3.50195L3.50195 8.5L3.00195 8.5ZM4.00195 2.5L4.00195 3L4.00195 3L4.00195 2.5ZM9.00195 2.5L9.00195 3L9.50195 3V2.5H9.00195ZM9.00195 0.5H9.50195V0H9.00195V0.5ZM1.00195 3.5L1.50195 3.5L1.00195 3.5ZM1.00195 8.5L0.501953 8.5L0.501953 9H1.00195V8.5ZM30.502 2.5H30.002V3H30.502V2.5ZM30.502 0.5V0H30.002V0.5H30.502ZM38.502 8.5V9H39.002V8.5H38.502ZM36.502 8.5H36.002V9H36.502V8.5ZM18.7091 13.6213L19.0626 13.2678L19.0626 13.2678L18.7091 13.6213ZM17.3806 12.2929L17.0271 12.6464L17.0271 12.6464L17.3806 12.2929ZM9 35H9.5V34.5H9V35ZM9 37V37.5H9.5V37H9ZM1 29V28.5H0.5V29H1ZM3 29L3.5 29L3.5 28.5H3V29ZM3 34L2.5 34V34H3ZM36.5 29V28.5H36V29H36.5ZM30.5 35V34.5H30V35H30.5ZM30.5 37H30V37.5H30.5V37ZM38.5 29H39V28.5H38.5V29ZM2.50195 3.5L2.50195 8.5L3.50195 8.5L3.50195 3.5L2.50195 3.5ZM4.00195 2C3.17353 2 2.50195 2.67157 2.50195 3.5H3.50195C3.50195 3.22386 3.72581 3 4.00195 3V2ZM9.00195 2L4.00195 2L4.00195 3L9.00195 3L9.00195 2ZM8.50195 0.5V2.5H9.50195V0.5H8.50195ZM4.00195 1H9.00195V0H4.00195V1ZM1.50195 3.5C1.50195 2.11929 2.62124 1 4.00195 1V0C2.06896 0 0.501953 1.567 0.501953 3.5L1.50195 3.5ZM1.50195 8.5L1.50195 3.5L0.501953 3.5L0.501953 8.5L1.50195 8.5ZM3.00195 8H1.00195V9H3.00195V8ZM30.502 3H35.502V2H30.502V3ZM30.002 0.5V2.5H31.002V0.5H30.002ZM35.502 0H30.502V1H35.502V0ZM39.002 3.5C39.002 1.567 37.4349 0 35.502 0V1C36.8827 1 38.002 2.11929 38.002 3.5H39.002ZM39.002 8.5V3.5H38.002V8.5H39.002ZM36.502 9H38.502V8H36.502V9ZM36.002 3.5V8.5H37.002V3.5H36.002ZM35.502 3C35.7781 3 36.002 3.22386 36.002 3.5H37.002C37.002 2.67157 36.3304 2 35.502 2V3ZM14.002 9.5C12.069 9.5 10.502 11.067 10.502 13H11.502C11.502 11.6193 12.6212 10.5 14.002 10.5V9.5ZM16.6735 9.5H14.002V10.5H16.6735V9.5ZM19.1484 10.5251C18.492 9.86875 17.6018 9.5 16.6735 9.5V10.5C17.3366 10.5 17.9725 10.7634 18.4413 11.2322L19.1484 10.5251ZM20.4768 11.8536L19.1484 10.5251L18.4413 11.2322L19.7697 12.5607L20.4768 11.8536ZM20.8304 12C20.6978 12 20.5706 11.9473 20.4768 11.8536L19.7697 12.5607C20.051 12.842 20.4326 13 20.8304 13V12ZM26.502 12H20.8304V13H26.502V12ZM30.002 15.5C30.002 13.567 28.435 12 26.502 12V13C27.8827 13 29.002 14.1193 29.002 15.5H30.002ZM30.002 23.5V15.5H29.002V23.5H30.002ZM26.502 27C28.435 27 30.002 25.433 30.002 23.5H29.002C29.002 24.8807 27.8827 26 26.502 26V27ZM14.002 27H26.502V26H14.002V27ZM10.502 23.5C10.502 25.433 12.069 27 14.002 27V26C12.6212 26 11.502 24.8807 11.502 23.5H10.502ZM10.502 13V23.5H11.502V13H10.502ZM13.502 13C13.502 12.7239 13.7258 12.5 14.002 12.5V11.5C13.1735 11.5 12.502 12.1716 12.502 13H13.502ZM13.502 23.5V13H12.502V23.5H13.502ZM14.002 24C13.7258 24 13.502 23.7761 13.502 23.5H12.502C12.502 24.3284 13.1735 25 14.002 25V24ZM26.502 24H14.002V25H26.502V24ZM27.002 23.5C27.002 23.7761 26.7781 24 26.502 24V25C27.3304 25 28.002 24.3284 28.002 23.5H27.002ZM27.002 15.5V23.5H28.002V15.5H27.002ZM26.502 15C26.7781 15 27.002 15.2239 27.002 15.5H28.002C28.002 14.6716 27.3304 14 26.502 14V15ZM20.8304 15H26.502V14H20.8304V15ZM18.3555 13.9749C19.0119 14.6313 19.9021 15 20.8304 15V14C20.1673 14 19.5315 13.7366 19.0626 13.2678L18.3555 13.9749ZM17.0271 12.6464L18.3555 13.9749L19.0626 13.2678L17.7342 11.9393L17.0271 12.6464ZM16.6735 12.5C16.8061 12.5 16.9333 12.5527 17.0271 12.6464L17.7342 11.9393C17.4529 11.658 17.0714 11.5 16.6735 11.5V12.5ZM14.002 12.5H16.6735V11.5H14.002V12.5ZM9 34.5H4V35.5H9V34.5ZM9.5 37V35H8.5V37H9.5ZM4 37.5H9V36.5H4V37.5ZM0.5 34C0.5 35.933 2.067 37.5 4 37.5V36.5C2.61929 36.5 1.5 35.3807 1.5 34H0.5ZM0.5 29V34H1.5V29H0.5ZM3 28.5H1V29.5H3V28.5ZM3.5 34L3.5 29L2.5 29L2.5 34L3.5 34ZM4 34.5C3.72386 34.5 3.5 34.2761 3.5 34H2.5C2.5 34.8284 3.17157 35.5 4 35.5V34.5ZM37 34V29H36V34H37ZM35.5 35.5C36.3284 35.5 37 34.8284 37 34H36C36 34.2761 35.7761 34.5 35.5 34.5V35.5ZM30.5 35.5H35.5V34.5H30.5V35.5ZM31 37V35H30V37H31ZM35.5 36.5H30.5V37.5H35.5V36.5ZM38 34C38 35.3807 36.8807 36.5 35.5 36.5V37.5C37.433 37.5 39 35.933 39 34H38ZM38 29V34H39V29H38ZM36.5 29.5H38.5V28.5H36.5V29.5Z" fill="black"/>
</svg>
