<svg width="31" height="28" viewBox="0 0 31 28" fill="none" xmlns="http://www.w3.org/2000/svg">
<path fill-rule="evenodd" clip-rule="evenodd" d="M0.85 3.75C0.85 2.14837 2.14838 0.85 3.75 0.85H10.0741C11.0246 0.85 11.9147 1.31571 12.4566 2.0965L15.5226 6.51422C15.7282 6.81039 16.0658 6.98703 16.4263 6.98703H27.8617C29.4633 6.98703 30.7617 8.28541 30.7617 9.88703V24.4542C30.7617 26.0558 29.4633 27.3542 27.8617 27.3542H3.75C2.14837 27.3542 0.85 26.0558 0.85 24.4542V3.75ZM3.75 2.65C3.14249 2.65 2.65 3.14249 2.65 3.75V24.4542C2.65 25.0617 3.14249 25.5542 3.75 25.5542H27.8617C28.4692 25.5542 28.9617 25.0617 28.9617 24.4542V9.88703C28.9617 9.27952 28.4692 8.78703 27.8617 8.78703H16.4263C15.4759 8.78703 14.5858 8.32133 14.0439 7.54053L10.9778 3.12281C10.7723 2.82665 10.4346 2.65 10.0741 2.65H3.75Z" />
</svg>
