<svg width="35" height="32" viewBox="0 0 35 32" fill="none" xmlns="http://www.w3.org/2000/svg">
<path fill-rule="evenodd" clip-rule="evenodd" d="M0 3.75C0 1.67893 1.67893 0 3.75 0H10.0741C11.3031 0 12.4541 0.60221 13.1549 1.61186L16.2209 6.02958C16.2677 6.09689 16.3444 6.13703 16.4263 6.13703H27.8617C29.9328 6.13703 31.6117 7.81597 31.6117 9.88703V24.4542C31.6117 26.5253 29.9328 28.2042 27.8617 28.2042H3.75C1.67893 28.2042 0 26.5253 0 24.4542V3.75ZM3.75 3.5C3.61193 3.5 3.5 3.61193 3.5 3.75V24.4542C3.5 24.5923 3.61193 24.7042 3.75 24.7042H27.8617C27.9997 24.7042 28.1117 24.5923 28.1117 24.4542V9.88703C28.1117 9.74896 27.9998 9.63703 27.8617 9.63703H16.4263C15.1973 9.63703 14.0463 9.03483 13.3456 8.02518L10.2795 3.60746C10.2328 3.54015 10.1561 3.5 10.0741 3.5H3.75Z" fill="black"/>
<rect x="21" y="18" width="13" height="13" rx="6.5" fill="#4EEF4B" stroke="black" stroke-width="2"/>
</svg>
