<svg width="27" height="24" viewBox="0 0 27 24" fill="none" xmlns="http://www.w3.org/2000/svg">
<path fill-rule="evenodd" clip-rule="evenodd" d="M1.14893 4.14905C1.14893 2.4922 2.49207 1.14905 4.14893 1.14905H8.99108C9.77618 1.14905 10.53 1.45681 11.0907 2.00629L13.4055 4.27451C13.5924 4.45767 13.8437 4.56025 14.1054 4.56025H23.1251C24.7819 4.56025 26.1251 5.9034 26.1251 7.56025V19.934C26.1251 21.5909 24.7819 22.934 23.1251 22.934H4.14893C2.49207 22.934 1.14893 21.5909 1.14893 19.934V4.14905ZM4.14893 3.14905C3.59664 3.14905 3.14893 3.59676 3.14893 4.14905V19.934C3.14893 20.4863 3.59664 20.934 4.14893 20.934H23.1251C23.6773 20.934 24.1251 20.4863 24.1251 19.934V7.56025C24.1251 7.00797 23.6773 6.56025 23.1251 6.56025H14.1054C13.3203 6.56025 12.5665 6.25249 12.0058 5.70302L9.69097 3.43479C9.50405 3.25164 9.25278 3.14905 8.99108 3.14905H4.14893Z"/>
<path d="M11.0907 2.00629L10.9158 2.18485L10.9158 2.18485L11.0907 2.00629ZM13.4055 4.27451L13.5805 4.09595L13.5805 4.09595L13.4055 4.27451ZM12.0058 5.70302L11.8308 5.88158L11.8308 5.88158L12.0058 5.70302ZM9.69097 3.43479L9.86594 3.25623L9.86594 3.25623L9.69097 3.43479ZM4.14893 0.899048C2.354 0.899048 0.898926 2.35413 0.898926 4.14905H1.39893C1.39893 2.63027 2.63014 1.39905 4.14893 1.39905V0.899048ZM8.99108 0.899048H4.14893V1.39905H8.99108V0.899048ZM11.2657 1.82772C10.6582 1.23246 9.8416 0.899048 8.99108 0.899048V1.39905C9.71075 1.39905 10.4017 1.68116 10.9158 2.18485L11.2657 1.82772ZM13.5805 4.09595L11.2657 1.82772L10.9158 2.18485L13.2306 4.45307L13.5805 4.09595ZM14.1054 4.31025C13.9091 4.31025 13.7207 4.23331 13.5805 4.09595L13.2306 4.45307C13.4642 4.68202 13.7783 4.81025 14.1054 4.81025V4.31025ZM23.1251 4.31025H14.1054V4.81025H23.1251V4.31025ZM26.3751 7.56025C26.3751 5.76533 24.92 4.31025 23.1251 4.31025V4.81025C24.6438 4.81025 25.8751 6.04147 25.8751 7.56025H26.3751ZM26.3751 19.934V7.56025H25.8751V19.934H26.3751ZM23.1251 23.184C24.92 23.184 26.3751 21.729 26.3751 19.934H25.8751C25.8751 21.4528 24.6438 22.684 23.1251 22.684V23.184ZM4.14893 23.184H23.1251V22.684H4.14893V23.184ZM0.898926 19.934C0.898926 21.729 2.354 23.184 4.14893 23.184V22.684C2.63014 22.684 1.39893 21.4528 1.39893 19.934H0.898926ZM0.898926 4.14905V19.934H1.39893V4.14905H0.898926ZM3.39893 4.14905C3.39893 3.73483 3.73471 3.39905 4.14893 3.39905V2.89905C3.45857 2.89905 2.89893 3.45869 2.89893 4.14905H3.39893ZM3.39893 19.934V4.14905H2.89893V19.934H3.39893ZM4.14893 20.684C3.73471 20.684 3.39893 20.3483 3.39893 19.934H2.89893C2.89893 20.6244 3.45857 21.184 4.14893 21.184V20.684ZM23.1251 20.684H4.14893V21.184H23.1251V20.684ZM23.8751 19.934C23.8751 20.3483 23.5393 20.684 23.1251 20.684V21.184C23.8154 21.184 24.3751 20.6244 24.3751 19.934H23.8751ZM23.8751 7.56025V19.934H24.3751V7.56025H23.8751ZM23.1251 6.81025C23.5393 6.81025 23.8751 7.14604 23.8751 7.56025H24.3751C24.3751 6.8699 23.8154 6.31025 23.1251 6.31025V6.81025ZM14.1054 6.81025H23.1251V6.31025H14.1054V6.81025ZM11.8308 5.88158C12.4383 6.47685 13.2549 6.81025 14.1054 6.81025V6.31025C13.3857 6.31025 12.6948 6.02814 12.1807 5.52445L11.8308 5.88158ZM9.516 3.61336L11.8308 5.88158L12.1807 5.52445L9.86594 3.25623L9.516 3.61336ZM8.99108 3.39905C9.18736 3.39905 9.37581 3.47599 9.516 3.61336L9.86594 3.25623C9.6323 3.02728 9.31821 2.89905 8.99108 2.89905V3.39905ZM4.14893 3.39905H8.99108V2.89905H4.14893V3.39905Z"/>
</svg>
