<svg width="34" height="44" viewBox="0 0 34 44" fill="none" xmlns="http://www.w3.org/2000/svg">
<path d="M3.34264 12.6964L4.02853 14.0304L4.02853 14.0304L3.34264 12.6964ZM23.7577 2.19979L23.0718 0.86579V0.865791L23.7577 2.19979ZM25.3559 31.6925L24.6994 30.3438L25.3559 31.6925ZM4.55555 41.8177L5.21207 43.1664H5.21207L4.55555 41.8177ZM2.0002 40.2129L0.500368 40.1906L2.0002 40.2129ZM2.38552 14.232L3.88535 14.2542L2.38552 14.232ZM14.1677 20.4894C13.3472 20.6037 12.7747 21.3615 12.8889 22.182L14.7512 35.553C14.8655 36.3735 15.6233 36.946 16.4438 36.8317C17.2643 36.7174 17.8368 35.9596 17.7225 35.1391L16.0672 23.2538L27.9524 21.5985C28.773 21.4842 29.3455 20.7264 29.2312 19.9059C29.1169 19.0854 28.3591 18.5129 27.5386 18.6272L14.1677 20.4894ZM15.5354 21.9751C15.5354 22.5919 15.0276 23.1135 14.3746 23.1135V26.1135C16.6606 26.1135 18.5354 24.2726 18.5354 21.9751H15.5354ZM14.3746 23.1135C13.7215 23.1135 13.2138 22.5919 13.2138 21.9751H10.2138C10.2138 24.2726 12.0886 26.1135 14.3746 26.1135V23.1135ZM13.2138 21.9751C13.2138 21.3583 13.7215 20.8367 14.3746 20.8367V17.8367C12.0886 17.8367 10.2138 19.6776 10.2138 21.9751H13.2138ZM14.3746 20.8367C15.0276 20.8367 15.5354 21.3583 15.5354 21.9751H18.5354C18.5354 19.6776 16.6606 17.8367 14.3746 17.8367V20.8367ZM4.02853 14.0304L24.4436 3.53379L23.0718 0.865791L2.65675 11.3624L4.02853 14.0304ZM24.8481 3.76129V30.1135H27.8481V3.76129H24.8481ZM24.6994 30.3438L3.89903 40.469L5.21207 43.1664L26.0124 33.0412L24.6994 30.3438ZM3.50004 40.2351L3.88535 14.2542L0.88568 14.2097L0.500368 40.1906L3.50004 40.2351ZM3.89903 40.469C3.69619 40.5677 3.49745 40.4094 3.50004 40.2351L0.500368 40.1906C0.464004 42.6426 3.03717 44.2251 5.21207 43.1664L3.89903 40.469ZM24.8481 30.1135C24.8481 30.2055 24.7952 30.2971 24.6994 30.3438L26.0124 33.0412C27.1312 32.4965 27.8481 31.3633 27.8481 30.1135H24.8481ZM24.4436 3.53379C24.6448 3.43034 24.8481 3.58581 24.8481 3.76129H27.8481C27.8481 1.29901 25.2321 -0.244966 23.0718 0.86579L24.4436 3.53379ZM2.65675 11.3624C1.58832 11.9117 0.903569 13.0035 0.88568 14.2097L3.88535 14.2542C3.88667 14.1653 3.93732 14.0772 4.02853 14.0304L2.65675 11.3624ZM13.4704 23.1719L32.0958 37.2434L33.9042 34.8497L15.2788 20.7783L13.4704 23.1719Z"/>
</svg>
