<svg width="176" height="120" viewBox="0 0 176 120" fill="none" xmlns="http://www.w3.org/2000/svg">
<path stroke="currentColor" d="M28.5144 56.4426L28.6139 57.444M28.7565 58.8778L28.899 60.3116M77.3735 79.606L65.9221 95.9871M77.3735 79.606C90.28 80.6738 104.517 79.235 116.058 75.7541M77.3735 79.606L78.3189 102.417M65.9221 95.9871L67.2385 119.142M65.9221 95.9871L37.4711 89.2427M67.2385 119.142L78.3189 102.417M67.2385 119.142L39.5933 112.26L37.4711 89.2427M78.3189 102.417C90.861 103.508 104.689 102.038 115.906 98.479M148.925 67.0336L149.955 45.0644M148.925 67.0336L173.492 64.6114L175.173 42.7054M148.925 67.0336L148.906 67.6499M149.955 45.0644L149.936 45.6648M149.955 45.0644L175.173 42.7054M149.936 45.6648C149.702 52.1293 145.734 59.0416 138.58 64.6647L157.226 77.1508M149.936 45.6648L148.906 67.6499M157.226 77.1508L155.912 99.9071L133.844 111.929M157.226 77.1508L134.535 88.9184M133.844 111.929L134.535 88.9184M133.844 111.929L115.906 98.479M134.535 88.9184L116.058 75.7541M148.906 67.6499L148.417 71.2517M175.173 42.7054L168.396 28.1879L144.067 30.3782C139.159 24.6502 130.949 19.7337 121.484 16.5851L129.343 5.34054M116.058 75.7541L115.906 98.479M29.0887 13.7447L50.3737 5.55522L64.1385 14.7713C74.4318 12.2069 86.3014 11.2153 97.254 11.9692L105.731 1L129.343 5.34054M29.0887 13.7447L42.6136 23.3794C34.7927 28.086 29.0104 34.3692 26.9688 40.89L1 43.2275L1.53097 58.9156M29.0887 13.7447L31.0658 34.8137M129.343 5.34054L129.039 19.6012M38.3908 88.0531C34.9554 85.1325 32.3708 81.92 30.7013 78.6569M30.7013 78.6569L4.4871 81.2414L1.53097 58.9156M30.7013 78.6569L28.4884 56.3942M1.53097 58.9156L28.4884 56.3942M28.4884 56.3942C31.8802 62.899 39.5352 69.1472 49.7731 73.3268L37.4711 89.2427" stroke-width="3"/>
</svg>
