<svg version="1.1" id="Capa_1" xmlns="http://www.w3.org/2000/svg" xmlns:xlink="http://www.w3.org/1999/xlink" x="0px" y="0px"
	 viewBox="0 0 517.214 517.214" style="enable-background:new 0 0 517.214 517.214;" xml:space="preserve">
<g>
	<path d="M458.936,70.662c-9.616,0-17.483,7.867-17.483,17.483s7.867,17.483,17.483,17.483c11.364,0,20.397,6.702,22.728,16.609
		c-0.583,1.748-0.874,3.497-0.874,5.245v119.469c-20.98-20.689-49.827-33.51-81.589-33.51c-42.543,0-79.549,22.728-99.946,56.821
		c-10.49-9.907-24.477-16.026-39.92-16.026s-29.43,6.119-39.92,16.026c-20.397-33.801-57.695-56.821-99.946-56.821
		c-33.218,0-63.231,13.987-84.502,36.423v-115.39c0.874-2.04,1.457-4.371,1.457-6.993c0-12.821,9.033-21.854,21.854-21.854
		c9.616,0,17.483-7.867,17.483-17.483s-7.867-17.483-17.483-17.483c-29.43,0-52.45,20.397-56.238,48.662
		C0.874,121.654,0,124.568,0,127.482v203.972c0,4.079,1.457,7.576,3.497,10.49c6.119,58.569,55.655,104.608,115.972,104.608
		c64.397,0,116.555-52.158,116.555-116.555c0-4.371-0.291-8.45-0.583-12.53c0.583-1.457,0.583-3.205,0.583-4.954
		c0-12.821,10.49-23.311,23.311-23.311c12.821,0,23.311,10.49,23.311,23.311c0,1.748,0.291,3.205,0.583,4.954
		c-0.583,4.079-0.583,8.45-0.583,12.53c0,64.397,52.158,116.555,116.555,116.555c63.231,0,114.807-50.701,116.555-113.641
		c0-0.583,0-0.874,0-1.457V134.476c0.874-2.04,1.457-4.371,1.457-6.993C517.214,95.721,491.571,70.662,458.936,70.662z
		 M119.469,411.585c-44.874,0-81.589-36.715-81.589-81.589s36.715-81.589,81.589-81.589s81.589,36.715,81.589,81.589
		S164.343,411.585,119.469,411.585z M399.201,411.585c-44.874,0-81.589-36.715-81.589-81.589s36.715-81.589,81.589-81.589
		s81.589,36.715,81.589,81.589S444.075,411.585,399.201,411.585z"/>
</g>
<g>
</g>
<g>
</g>
<g>
</g>
<g>
</g>
<g>
</g>
<g>
</g>
<g>
</g>
<g>
</g>
<g>
</g>
<g>
</g>
<g>
</g>
<g>
</g>
<g>
</g>
<g>
</g>
<g>
</g>
</svg>
