<svg width="35" height="34" viewBox="0 0 35 34" fill="none" xmlns="http://www.w3.org/2000/svg">
<path fill-rule="evenodd" clip-rule="evenodd" d="M0.400024 7C0.400024 3.35492 3.35494 0.400002 7.00002 0.400002H28.0714C31.7165 0.400002 34.6715 3.35492 34.6715 7V27C34.6715 30.6451 31.7165 33.6 28.0715 33.6H7.00003C3.35495 33.6 0.400024 30.6451 0.400024 27V7ZM7.00002 3.6C5.12226 3.6 3.60002 5.12223 3.60002 7V27C3.60002 28.8778 5.12226 30.4 7.00003 30.4H28.0715C29.9492 30.4 31.4715 28.8778 31.4715 27V7C31.4715 5.12223 29.9492 3.6 28.0714 3.6H7.00002Z" />
<rect x="13" y="7" width="9" height="20" rx="2" fill="#459A47"/>
<path d="M9 26L27 8" stroke="black" stroke-width="4" stroke-linecap="round"/>
</svg>
