<svg width="29" height="28" viewBox="0 0 29 28" fill="none" xmlns="http://www.w3.org/2000/svg">
<path fill-rule="evenodd" clip-rule="evenodd" d="M21.9513 22.2742C20.0156 23.9713 17.4793 25 14.7028 25C8.62763 25 3.70276 20.0751 3.70276 14C3.70276 11.6389 4.44664 9.45159 5.71282 7.65958L21.9513 22.2742ZM23.9183 20.0084L7.76083 5.4667C9.65416 3.92458 12.0705 3 14.7028 3C20.7779 3 25.7028 7.92487 25.7028 14C25.7028 16.2172 25.0468 18.2812 23.9183 20.0084ZM28.7028 14C28.7028 21.732 22.4347 28 14.7028 28C6.97077 28 0.702759 21.732 0.702759 14C0.702759 6.26801 6.97077 0 14.7028 0C22.4347 0 28.7028 6.26801 28.7028 14Z" fill="#6A9559"/>
</svg>
