<svg width="33" height="32" viewBox="0 0 33 32" fill="none" xmlns="http://www.w3.org/2000/svg">
<path fill-rule="evenodd" clip-rule="evenodd" d="M25.5656 26.838L29.9581 31.0791L32.0419 28.9209L27.6713 24.701C29.5691 22.3118 30.7028 19.2883 30.7028 16C30.7028 8.26801 24.4347 2 16.7028 2C13.238 2 10.0672 3.25864 7.62259 5.34364L3.04189 0.920898L0.958108 3.0791L5.5603 7.52259C3.76736 9.87556 2.70276 12.8135 2.70276 16C2.70276 23.732 8.97077 30 16.7028 30C20.0657 30 23.1518 28.8142 25.5656 26.838ZM25.5001 22.6047C26.8831 20.7654 27.7028 18.4784 27.7028 16C27.7028 9.92487 22.7779 5 16.7028 5C14.0857 5 11.6822 5.9139 9.79378 7.43996L25.5001 22.6047ZM7.73753 9.62475L23.3883 24.7359C21.5354 26.156 19.2177 27 16.7028 27C10.6276 27 5.70276 22.0751 5.70276 16C5.70276 13.6236 6.45632 11.4232 7.73753 9.62475Z" />
</svg>
