<svg width="32" height="33" viewBox="0 0 32 33" fill="none" xmlns="http://www.w3.org/2000/svg">
<path fill-rule="evenodd" clip-rule="evenodd" d="M12.3899 1.62569C14.5618 -0.279307 17.8155 -0.258158 19.9625 1.67492L29.814 10.545C31.0145 11.6259 31.7 13.1655 31.7 14.781V15V27C31.7 30.148 29.148 32.7 26 32.7H6C2.85198 32.7 0.300003 30.148 0.300001 27L0.299995 15V14.8122C0.299995 13.1709 1.0075 11.6093 2.24141 10.527L12.3899 1.62569ZM17.6875 4.20165C16.8211 3.42164 15.5083 3.4131 14.6319 4.18178L4.48338 13.0831C3.98548 13.5198 3.7 14.1499 3.7 14.8122V15L3.7 27C3.7 28.2703 4.72975 29.3 6 29.3H26C27.2703 29.3 28.3 28.2703 28.3 27V15V14.781C28.3 14.1291 28.0234 13.5079 27.539 13.0717L17.6875 4.20165Z"/>
</svg>
