<svg width="36" height="36" viewBox="0 0 36 36" fill="none" xmlns="http://www.w3.org/2000/svg">
<path fill-rule="evenodd" clip-rule="evenodd" d="M18 32.8C26.1738 32.8 32.8 26.1738 32.8 18C32.8 9.82619 26.1738 3.2 18 3.2C9.82619 3.2 3.2 9.82619 3.2 18C3.2 26.1738 9.82619 32.8 18 32.8ZM18 36C27.9411 36 36 27.9411 36 18C36 8.05887 27.9411 0 18 0C8.05887 0 0 8.05887 0 18C0 27.9411 8.05887 36 18 36ZM18 27.8C17.0059 27.8 16.2 26.9941 16.2 26L16.2 17C16.2 16.0059 17.0059 15.2 18 15.2C18.9941 15.2 19.8 16.0059 19.8 17V26C19.8 26.9941 18.9941 27.8 18 27.8ZM19.8 10C19.8 9.00589 18.9941 8.2 18 8.2C17.0059 8.2 16.2 9.00589 16.2 10V11C16.2 11.9941 17.0059 12.8 18 12.8C18.9941 12.8 19.8 11.9941 19.8 11V10Z"/>
</svg>
