<svg width="33" height="33" viewBox="0 0 33 33" xmlns="http://www.w3.org/2000/svg">
  <path d="m 16.249997,14.625 c -0.431,0 -0.8443,0.1712 -1.149,0.476 -0.3048,0.3047 -0.476,0.718 -0.476,1.149 v 6.5 c 0,0.431 0.1712,0.8443 0.476,1.1491 0.3047,0.3047 0.718,0.4759 1.149,0.4759 0.431,0 0.8443,-0.1712 1.1491,-0.4759 0.3047,-0.3048 0.4759,-0.7181 0.4759,-1.1491 v -6.5 c 0,-0.431 -0.1712,-0.8443 -0.4759,-1.149 -0.3048,-0.3048 -0.7181,-0.476 -1.1491,-0.476 z m 0.6175,-6.37 c -0.3956,-0.1625 -0.8394,-0.1625 -1.235,0 -0.1995,0.0773 -0.3817,0.1933 -0.5362,0.3413 -0.1436,0.1579 -0.259,0.3393 -0.3413,0.5362 -0.091,0.1929 -0.1355,0.4043 -0.13,0.6175 -0.0012,0.2139 0.0398,0.4259 0.1206,0.6238 0.0809,0.198 0.2001,0.3781 0.3507,0.53 0.1579,0.1435 0.3393,0.2589 0.5362,0.3412 0.2462,0.1011 0.5135,0.1403 0.7783,0.1139 0.2648,-0.0263 0.5192,-0.1173 0.7406,-0.2649 0.2215,-0.1476 0.4033,-0.3474 0.5294,-0.5818 0.1262,-0.2343 0.1929,-0.4961 0.1942,-0.7622 -0.006,-0.4302 -0.1743,-0.8423 -0.4712,-1.1537 -0.1546,-0.148 -0.3368,-0.264 -0.5363,-0.3413 z M 16.249997,0 c -3.2139,0 -6.3556995,0.95305 -9.0279995,2.73862 -2.67231,1.78557 -4.75511,4.32348 -5.98503,7.29278 -1.22993002,2.9693 -1.55173002,6.2366 -0.92472002,9.3888 0.62701,3.1522 2.17467002,6.0477 4.44727002,8.3203 2.27258,2.2726 5.16808,3.8203 8.3202795,4.4473 3.1522,0.627 6.4195,0.3052 9.3888,-0.9248 2.9693,-1.2299 5.5072,-3.3127 7.2928,-5.985 1.7856,-2.6723 2.7386,-5.8141 2.7386,-9.028 0,-2.134 -0.4203,-4.2471 -1.2369,-6.2186 -0.8167,-1.9715 -2.0137,-3.76293 -3.5226,-5.27188 -1.509,-1.50896 -3.3003,-2.70592 -5.2719,-3.52256 C 20.497097,0.42032 18.383997,0 16.249997,0 Z m 0,29.25 c -2.5711,0 -5.0846,-0.7624 -7.2223995,-2.1909 -2.1378,-1.4285 -3.80409,-3.4588 -4.78803,-5.8342 -0.98394,-2.3755 -1.24138,-4.9893 -0.73977,-7.5111 0.50161,-2.5217 1.73974,-4.8381 3.5578,-6.6562 1.8181,-1.81807 4.1344995,-3.0562 6.6561995,-3.55781 2.5218,-0.50161 5.1357,-0.24416 7.5111,0.73978 2.3754,0.98394 4.4058,2.65013 5.8342,4.78803 1.4285,2.1378 2.1909,4.6512 2.1909,7.2224 0,3.4478 -1.3696,6.7544 -3.8076,9.1924 -2.438,2.438 -5.7446,3.8076 -9.1924,3.8076 z"/>
</svg>
