<svg width="39" height="39" viewBox="0 0 39 39" xmlns="http://www.w3.org/2000/svg">
<path d="M19.5 17.875C19.069 17.875 18.6557 18.0462 18.351 18.351C18.0462 18.6557 17.875 19.069 17.875 19.5V26C17.875 26.431 18.0462 26.8443 18.351 27.1491C18.6557 27.4538 19.069 27.625 19.5 27.625C19.931 27.625 20.3443 27.4538 20.6491 27.1491C20.9538 26.8443 21.125 26.431 21.125 26V19.5C21.125 19.069 20.9538 18.6557 20.6491 18.351C20.3443 18.0462 19.931 17.875 19.5 17.875ZM20.1175 11.505C19.7219 11.3425 19.2781 11.3425 18.8825 11.505C18.683 11.5823 18.5008 11.6983 18.3463 11.8463C18.2027 12.0042 18.0873 12.1856 18.005 12.3825C17.914 12.5754 17.8695 12.7868 17.875 13C17.8738 13.2139 17.9148 13.4259 17.9956 13.6238C18.0765 13.8218 18.1957 14.0019 18.3463 14.1538C18.5042 14.2973 18.6856 14.4127 18.8825 14.495C19.1287 14.5961 19.396 14.6353 19.6608 14.6089C19.9256 14.5826 20.18 14.4916 20.4014 14.344C20.6229 14.1964 20.8047 13.9966 20.9308 13.7622C21.057 13.5279 21.1237 13.2661 21.125 13C21.119 12.5698 20.9507 12.1577 20.6538 11.8463C20.4992 11.6983 20.317 11.5823 20.1175 11.505ZM19.5 3.25C16.2861 3.25 13.1443 4.20305 10.472 5.98862C7.79969 7.77419 5.71689 10.3121 4.48697 13.2814C3.25704 16.2507 2.93524 19.518 3.56225 22.6702C4.18926 25.8224 5.73692 28.7179 8.00952 30.9905C10.2821 33.2631 13.1776 34.8108 16.3298 35.4378C19.482 36.0648 22.7493 35.743 25.7186 34.513C28.6879 33.2831 31.2258 31.2003 33.0114 28.528C34.797 25.8557 35.75 22.7139 35.75 19.5C35.75 17.366 35.3297 15.2529 34.5131 13.2814C33.6964 11.3099 32.4994 9.51847 30.9905 8.00952C29.4815 6.50056 27.6902 5.3036 25.7186 4.48696C23.7471 3.67032 21.634 3.25 19.5 3.25V3.25ZM19.5 32.5C16.9289 32.5 14.4154 31.7376 12.2776 30.3091C10.1398 28.8806 8.47351 26.8503 7.48957 24.4749C6.50563 22.0994 6.24819 19.4856 6.7498 16.9638C7.25141 14.4421 8.48954 12.1257 10.3076 10.3076C12.1257 8.48953 14.4421 7.2514 16.9638 6.74979C19.4856 6.24818 22.0995 6.50563 24.4749 7.48957C26.8503 8.47351 28.8807 10.1397 30.3091 12.2776C31.7376 14.4154 32.5 16.9288 32.5 19.5C32.5 22.9478 31.1304 26.2544 28.6924 28.6924C26.2544 31.1304 22.9478 32.5 19.5 32.5V32.5Z"/>
</svg>
