<svg width="34" height="34" viewBox="0 0 34 34" fill="none" xmlns="http://www.w3.org/2000/svg">
<path fill-rule="evenodd" clip-rule="evenodd" d="M0.699988 6.99998C0.699988 3.52059 3.5206 0.699983 6.99999 0.699984L27 0.699985C30.4794 0.699986 33.3 3.52059 33.3 6.99999L33.3 27C33.3 30.4794 30.4794 33.3 27 33.3L6.99999 33.3C3.5206 33.3 0.699989 30.4794 0.69999 27L0.699988 6.99998ZM6.99999 3.29998C4.95654 3.29998 3.29999 4.95653 3.29999 6.99998L3.29999 27C3.29999 29.0434 4.95654 30.7 6.99999 30.7L27 30.7C29.0434 30.7 30.7 29.0434 30.7 27L30.7 6.99998C30.7 4.95653 29.0434 3.29998 27 3.29998L6.99999 3.29998ZM16.9999 7.19993C17.994 7.19993 18.7999 8.00581 18.7999 8.99992L18.7999 17.9999C18.7999 18.994 17.994 19.7999 16.9999 19.7999C16.0058 19.7999 15.1999 18.994 15.1999 17.9999L15.1999 8.99992C15.1999 8.00581 16.0058 7.19993 16.9999 7.19993ZM15.1999 25C15.1999 25.9941 16.0058 26.8 16.9999 26.8C17.994 26.8 18.7999 25.9941 18.7999 25L18.7999 24C18.7999 23.0059 17.994 22.2 16.9999 22.2C16.0058 22.2 15.1999 23.0059 15.1999 24L15.1999 25Z" />
</svg>
