<svg width="34" height="34" viewBox="0 0 34 34" fill="none" xmlns="http://www.w3.org/2000/svg">
<path fill-rule="evenodd" clip-rule="evenodd" d="M33.3 27C33.3 30.4794 30.4794 33.3 27 33.3L7.00001 33.3C3.52061 33.3 0.700009 30.4794 0.700009 27L0.700011 7.00002C0.700011 3.52062 3.52062 0.700015 7.00001 0.700015L27 0.700017C30.4794 0.700017 33.3 3.52062 33.3 7.00002L33.3 27ZM27 30.7C29.0435 30.7 30.7 29.0435 30.7 27L30.7 7.00002C30.7 4.95656 29.0435 3.30002 27 3.30002L7.00001 3.30002C4.95656 3.30002 3.30001 4.95656 3.30001 7.00002L3.30001 27C3.30001 29.0435 4.95656 30.7 7.00001 30.7L27 30.7ZM17.0001 26.8001C16.006 26.8001 15.2001 25.9942 15.2001 25.0001L15.2001 16.0001C15.2001 15.006 16.006 14.2001 17.0001 14.2001C17.9942 14.2001 18.8001 15.006 18.8001 16.0001L18.8001 25.0001C18.8001 25.9942 17.9942 26.8001 17.0001 26.8001ZM18.8001 9.00002C18.8001 8.0059 17.9942 7.20002 17.0001 7.20002C16.006 7.20002 15.2001 8.0059 15.2001 9.00002L15.2001 10C15.2001 10.9941 16.006 11.8 17.0001 11.8C17.9942 11.8 18.8001 10.9941 18.8001 10L18.8001 9.00002Z" />
</svg>
