<svg width="35" height="34" viewBox="0 0 35 34" fill="none" xmlns="http://www.w3.org/2000/svg">
<path fill-rule="evenodd" clip-rule="evenodd" d="M6 0.399994C2.90721 0.399994 0.400002 2.9072 0.400002 5.99999V28C0.400002 31.0928 2.90721 33.6 6 33.6H29.0714C32.1642 33.6 34.6714 31.0928 34.6714 28V5.99999C34.6714 2.9072 32.1642 0.399994 29.0714 0.399994H6ZM3.6 5.99999C3.6 4.67451 4.67452 3.59999 6 3.59999H29.0714C30.3969 3.59999 31.4714 4.67451 31.4714 5.99999V28C31.4714 29.3255 30.3969 30.4 29.0714 30.4H6C4.67452 30.4 3.6 29.3255 3.6 28V5.99999ZM10 9.5C9.17157 9.5 8.5 10.1716 8.5 11C8.5 11.8284 9.17157 12.5 10 12.5H25.5C26.3284 12.5 27 11.8284 27 11C27 10.1716 26.3284 9.5 25.5 9.5H10ZM8.5 17C8.5 16.1716 9.17157 15.5 10 15.5H25.5C26.3284 15.5 27 16.1716 27 17C27 17.8284 26.3284 18.5 25.5 18.5H10C9.17157 18.5 8.5 17.8284 8.5 17ZM10 21.5C9.17157 21.5 8.5 22.1716 8.5 23C8.5 23.8284 9.17157 24.5 10 24.5H19C19.8284 24.5 20.5 23.8284 20.5 23C20.5 22.1716 19.8284 21.5 19 21.5H10Z" />
</svg>
