<svg width="35" height="34" viewBox="0 0 35 34" fill="none" xmlns="http://www.w3.org/2000/svg">
<path fill-rule="evenodd" clip-rule="evenodd" d="M0.700024 6.99999C0.700024 3.5206 3.52063 0.699994 7.00002 0.699994H28.0714C31.5508 0.699994 34.3715 3.5206 34.3715 6.99999V27C34.3715 30.4794 31.5508 33.3 28.0715 33.3H7.00003C3.52063 33.3 0.700024 30.4794 0.700024 27V6.99999ZM7.00002 3.29999C4.95657 3.29999 3.30002 4.95654 3.30002 6.99999V27C3.30002 29.0434 4.95657 30.7 7.00003 30.7H28.0715C30.1149 30.7 31.7715 29.0434 31.7715 27V6.99999C31.7715 4.95654 30.1149 3.29999 28.0714 3.29999H7.00002Z"/>
<rect x="13" y="7" width="9" height="20" rx="2" fill="#459A47"/>
</svg>
