<svg width="52" height="39" viewBox="0 0 52 39" fill="none" xmlns="http://www.w3.org/2000/svg">
<path d="M50.237 13.8474L47.7604 12.5L25.9715 0.146985H25.699C25.5472 0.0834843 25.3897 0.0342721 25.2285 0H24.7579H24.3122C24.143 0.0342946 23.9772 0.0834853 23.8169 0.146985H23.5444L1.25548 12.3957C0.874347 12.6094 0.557328 12.9192 0.336768 13.2937C0.116208 13.6681 0 14.0937 0 14.527C0 14.9604 0.116208 15.3859 0.336768 15.7604C0.557328 16.1348 0.874347 16.4446 1.25548 16.6583L7.42209 20.0389V31.6508C7.42209 33.5999 8.20486 35.4692 9.59819 36.8475C10.9915 38.2257 12.8813 39 14.8517 39H34.6641C36.6346 39 38.5244 38.2257 39.9177 36.8475C41.311 35.4692 42.0938 33.5999 42.0938 31.6508V20.0389L47.5 16.6043V24.4058C47.5 25.0555 47.5356 25.6786 48 26.138C48.4644 26.5974 48.8432 26.6043 49.5 26.6043C50.1568 26.6043 50.3102 26.5974 50.7746 26.138C51.2391 25.6786 51.5 25.0555 51.5 24.4058V15.9786C51.4992 15.5446 51.3819 15.1185 51.16 14.744C50.938 14.3695 50.6195 14.0601 50.237 13.8474ZM38.5 31.6508C38.5 32.3005 37.9644 33.5406 37.5 34C37.0356 34.4594 35.321 35.5 34.6641 35.5H14.8517C14.1949 35.5 12.9644 34.9594 12.5 34.5C12.0356 34.0406 11 32.3005 11 31.6508L10.5 21.5L23.5444 28.8825L23.9159 29.0295H24.1388C24.3444 29.0551 24.5524 29.0551 24.7579 29.0295C24.9635 29.0551 25.1715 29.0551 25.3771 29.0295H25.6C25.7314 29.0021 25.8571 28.9524 25.9715 28.8825L38.5 21.5V31.6508ZM24.7579 25.2829L4.5 14.5025L24.3122 3.5L44 14.527L24.7579 25.2829Z" />
</svg>
