<svg width="36" height="44" viewBox="0 0 36 44" fill="none" xmlns="http://www.w3.org/2000/svg">
<path d="M12.0811 2.18334L11.4225 3.53102L11.4225 3.53102L12.0811 2.18334ZM33.0051 12.4087L33.6637 11.061L33.0051 12.4087ZM33.9998 14.0241L35.4996 14.0463V14.0463L33.9998 14.0241ZM33.6123 40.2533L35.1122 40.2755L33.6123 40.2533ZM31.0737 41.8281L31.7124 40.4709L31.0737 41.8281ZM10.1497 31.9815L10.7884 30.6243H10.7884L10.1497 31.9815ZM9.13136 30.3551L7.63152 30.3333L9.13136 30.3551ZM9.51873 3.74712L8.01889 3.72528L9.51873 3.74712ZM23.3153 22.5998C23.4556 21.7833 22.9075 21.0077 22.0911 20.8674L8.78616 18.5806C7.96971 18.4402 7.19408 18.9883 7.05375 19.8048C6.91342 20.6213 7.46153 21.3969 8.27798 21.5372L20.1046 23.5699L18.0718 35.3965C17.9315 36.213 18.4796 36.9886 19.2961 37.1289C20.1125 37.2693 20.8882 36.7212 21.0285 35.9047L23.3153 22.5998ZM1.13434 35.1388C0.457788 35.6168 0.296906 36.5529 0.774999 37.2294C1.25309 37.906 2.18911 38.0669 2.86566 37.5888L1.13434 35.1388ZM22.7336 22.1987C22.7336 22.8307 22.2171 23.3546 21.5656 23.3546V26.3546C23.8611 26.3546 25.7336 24.5004 25.7336 22.1987H22.7336ZM21.5656 23.3546C20.9141 23.3546 20.3975 22.8307 20.3975 22.1987H17.3975C17.3975 24.5004 19.2701 26.3546 21.5656 26.3546V23.3546ZM20.3975 22.1987C20.3975 21.5667 20.9141 21.0427 21.5656 21.0427V18.0427C19.2701 18.0427 17.3975 19.897 17.3975 22.1987H20.3975ZM21.5656 21.0427C22.2171 21.0427 22.7336 21.5667 22.7336 22.1987H25.7336C25.7336 19.897 23.8611 18.0427 21.5656 18.0427V21.0427ZM11.4225 3.53102L32.3465 13.7563L33.6637 11.061L12.7396 0.835652L11.4225 3.53102ZM32.5 14.002L32.1125 40.2312L35.1122 40.2755L35.4996 14.0463L32.5 14.002ZM31.7124 40.4709L10.7884 30.6243L9.51099 33.3388L30.435 43.1853L31.7124 40.4709ZM10.6312 30.3769L11.0186 3.76895L8.01889 3.72528L7.63152 30.3333L10.6312 30.3769ZM10.7884 30.6243C10.6884 30.5772 10.6297 30.4792 10.6312 30.3769L7.63152 30.3333C7.6128 31.6189 8.35036 32.7926 9.51099 33.3388L10.7884 30.6243ZM32.1125 40.2312C32.1097 40.4186 31.9055 40.5618 31.7124 40.4709L30.435 43.1853C32.5812 44.1953 35.0769 42.6637 35.1122 40.2755L32.1125 40.2312ZM32.3465 13.7563C32.4444 13.8042 32.5015 13.9011 32.5 14.002L35.4996 14.0463C35.5184 12.7779 34.8008 11.6166 33.6637 11.061L32.3465 13.7563ZM12.7396 0.835652C10.5896 -0.215056 8.05397 1.31571 8.01889 3.72528L11.0186 3.76895C11.0213 3.5799 11.229 3.43646 11.4225 3.53102L12.7396 0.835652ZM20.9713 21.1207L1.13434 35.1388L2.86566 37.5888L22.7026 23.5707L20.9713 21.1207Z"/>
</svg>
