<?xml version="1.0" encoding="utf-8"?>
<!-- Generator: Adobe Illustrator 26.5.0, SVG Export Plug-In . SVG Version: 6.00 Build 0)  -->
<svg version="1.1" id="Layer_1" xmlns="http://www.w3.org/2000/svg" xmlns:xlink="http://www.w3.org/1999/xlink" x="0px" y="0px"
	 viewBox="0 0 435.7 486" style="enable-background:new 0 0 435.7 486;" xml:space="preserve">
<style type="text/css">
	.st0{clip-path:url(#SVGID_00000116230736341724104710000012193568090303552656_);}
	.st1{clip-path:url(#SVGID_00000143577992121726442960000000956326480504278419_);}
	.st2{clip-path:url(#SVGID_00000057852956312711867690000018020295906675342008_);}
	.st3{clip-path:url(#SVGID_00000059999970367217878070000003217069932365540793_);}
	.st4{clip-path:url(#SVGID_00000100354880262234176400000000412368793573370759_);}
	.st5{clip-path:url(#SVGID_00000041977529981905846470000016985242982639134346_);}
	.st6{clip-path:url(#SVGID_00000116204563616875633570000018217296910907131580_);}
	.st7{clip-path:url(#SVGID_00000029011735481207752680000013109165582988226465_);}
	.st8{clip-path:url(#SVGID_00000010301530204987702750000007884044889755986846_);}
	.st9{clip-path:url(#SVGID_00000155128194000035867020000016145936972483868342_);}
	.st10{clip-path:url(#SVGID_00000021841263893996671970000004423576885967007882_);}
	.st11{clip-path:url(#SVGID_00000011006391840711877490000013651956964131929763_);}
</style>
<symbol  id="a" viewBox="-8.2 -8 16.4 16">
	<path d="M8.2-0.1v1.4H-3.2c0.1,1.1,0.5,2,1.2,2.6s1.7,0.9,3,0.9c1,0,2.1-0.1,3.2-0.5c1-0.3,2.1-0.7,3.3-1.4v3.8
		C6.3,7.1,5.2,7.5,4,7.7C2.9,7.9,1.7,8,0.5,8C-2.3,8-4.4,7.3-6,5.9C-7.5,4.5-8.2,2.6-8.2,0c0-2.5,0.8-4.5,2.3-5.9S-2.4-8,0.3-8
		C2.7-8,4.6-7.3,6-5.9C7.5-4.4,8.2-2.5,8.2-0.1L8.2-0.1z M3.2-1.7c0-0.9-0.3-1.7-0.8-2.2C1.8-4.5,1.1-4.8,0.3-4.8
		C-0.6-4.8-1.4-4.5-2-4s-1,1.3-1.1,2.3H3.2z"/>
</symbol>
<symbol  id="b" viewBox="-6.1 -9.8 12.2 19.6">
	<path d="M1.1-9.8v4.3h5V-2h-5v6.5c0,0.7,0.1,1.2,0.4,1.4s0.8,0.4,1.7,0.4h2.5v3.5H1.6c-1.9,0-3.3-0.4-4.1-1.2s-1.2-2.2-1.2-4.1V-2
		h-2.4v-3.5h2.4v-4.3H1.1z"/>
</symbol>
<symbol  id="c" viewBox="-5.7 -7.9 11.4 15.8">
	<path d="M5.7-3.3C5.2-3.5,4.8-3.6,4.4-3.7C4-3.8,3.6-3.9,3.1-3.9c-1.3,0-2.2,0.4-2.9,1.2s-1,2-1,3.5v7.1h-4.9V-7.5h4.9V-5
		c0.6-1,1.3-1.7,2.2-2.2c0.8-0.5,1.8-0.7,2.9-0.7c0.2,0,0.3,0,0.5,0s0.5,0,0.8,0.1L5.7-3.3z"/>
</symbol>
<symbol  id="d" viewBox="-8.4 -8 16.8 16">
	<path d="M0-4.5c-1.1,0-1.9,0.4-2.5,1.2C-3-2.6-3.3-1.5-3.3,0S-3,2.6-2.5,3.4C-1.9,4.2-1.1,4.5,0,4.5s1.9-0.4,2.4-1.2
		C3,2.6,3.3,1.5,3.3,0S3-2.6,2.5-3.4C1.9-4.1,1.1-4.5,0-4.5z M0-8c2.6,0,4.7,0.7,6.2,2.1S8.4-2.5,8.4,0S7.7,4.5,6.2,5.9S2.7,8,0,8
		c-2.6,0-4.7-0.7-6.2-2.1S-8.4,2.5-8.4,0s0.7-4.5,2.2-5.9S-2.6-8,0-8z"/>
</symbol>
<symbol  id="e" viewBox="-8.7 -10.6 17.4 21.3">
	<path d="M-8.7-10.6h4.9L0.3-0.3l3.5-10.4h4.9L2.3,6.1C1.6,7.8,0.9,9,0,9.6c-0.9,0.7-2,1-3.4,1h-2.8V7.5h1.5c0.8,0,1.4-0.1,1.8-0.4
		C-2.5,6.8-2.2,6.3-2,5.6l0.1-0.4L-8.7-10.6z"/>
</symbol>
<symbol  id="f" viewBox="-7.7 -7.9 15.4 15.8">
	<path d="M7.7-1.5v9.3H2.8V0.7c0-1.3,0-2.2-0.1-2.7S2.5-2.9,2.4-3.1C2.2-3.5,1.9-3.7,1.6-3.9C1.3-4.1,0.9-4.1,0.5-4.1
		c-1,0-1.8,0.4-2.4,1.2S-2.8-1-2.8,0.4v7.5h-4.9V-7.5h4.9v2.2c0.7-0.9,1.5-1.5,2.3-2c0.8-0.4,1.8-0.6,2.8-0.6c1.8,0,3.1,0.5,4,1.6
		C7.2-5.1,7.7-3.5,7.7-1.5L7.7-1.5z"/>
</symbol>
<symbol  id="g" viewBox="-7.7 -7.8 15.4 15.7">
	<path d="M-7.7,1.6v-9.3h4.9v1.5c0,0.8,0,1.9,0,3.1c0,1.3,0,2.1,0,2.5c0,1.2,0,2.1,0.1,2.7c0.1,0.5,0.2,0.9,0.3,1.2
		c0.2,0.3,0.5,0.6,0.8,0.8c0.3,0.2,0.7,0.2,1.1,0.2c1,0,1.8-0.4,2.4-1.2s0.9-1.9,0.9-3.3v-7.6h4.9V7.6H2.8V5.2
		c-0.7,0.9-1.5,1.6-2.3,2s-1.7,0.6-2.7,0.6c-1.8,0-3.1-0.5-4-1.6C-7.2,5.2-7.7,3.7-7.7,1.6L-7.7,1.6z"/>
</symbol>
<symbol  id="h" viewBox="-7.1 -10.2 14.2 20.5">
	<path d="M-7.1-10.2H7.1v4h-9v3.8h8.4v4h-8.4v8.7h-5.2V-10.2z"/>
</symbol>
<symbol  id="i" viewBox="-8.2 -10.9 16.4 21.7">
	<path d="M-0.1,7.3c1.1,0,1.9-0.4,2.4-1.1C2.9,5.4,3.1,4.3,3.1,3c0-1.5-0.3-2.6-0.8-3.3C1.8-1.3,1-1.7-0.1-1.7S-2-1.3-2.5-0.5
		C-3,0.2-3.3,1.4-3.3,2.8S-3,5.4-2.5,6.1C-1.9,6.9-1.1,7.3-0.1,7.3L-0.1,7.3z M-3.3-2.6c0.7-0.9,1.4-1.5,2.2-2
		C-0.3-5,0.7-5.2,1.7-5.2c1.9,0,3.4,0.8,4.7,2.2c1.2,1.5,1.8,3.4,1.8,5.8S7.6,7.2,6.4,8.6s-2.8,2.2-4.7,2.2c-1.1,0-2-0.2-2.8-0.6
		s-1.6-1.1-2.2-2v2.2h-4.9v-21.3h4.9C-3.3-10.9-3.3-2.6-3.3-2.6z"/>
</symbol>
<symbol  id="j" viewBox="-8.1 -10.8 16.3 21.6">
	<path d="M3.3-2.6v-8.2h4.9v21.3H3.3V8.2c-0.7,0.9-1.4,1.6-2.2,2s-1.8,0.6-2.8,0.6c-1.9,0-3.4-0.8-4.6-2.2c-1.2-1.5-1.8-3.4-1.8-5.8
		S-7.6-1.5-6.3-3s2.8-2.2,4.6-2.2c1.1,0,2,0.2,2.8,0.6S2.6-3.5,3.3-2.6L3.3-2.6z M0.1,7.3c1,0,1.8-0.4,2.4-1.1
		C3,5.4,3.3,4.3,3.3,2.8S3,0.2,2.5-0.5C1.9-1.3,1.1-1.7,0.1-1.7s-1.8,0.4-2.4,1.2s-0.8,1.9-0.8,3.3c0,1.5,0.3,2.6,0.8,3.3
		C-1.8,6.9-1,7.3,0.1,7.3z"/>
</symbol>
<symbol  id="k" viewBox="-7.8 -8 15.5 16">
	<path d="M0.4,0.8c-1,0-1.8,0.2-2.3,0.5s-0.8,0.9-0.8,1.5s0.2,1.1,0.6,1.5c0.4,0.3,1,0.5,1.7,0.5c0.9,0,1.7-0.3,2.3-1s1-1.5,1-2.5
		V0.8H0.4z M7.8-1.1v8.7H2.9V5.4C2.3,6.3,1.5,7,0.7,7.4S-1.1,8-2.3,8c-1.6,0-2.9-0.4-3.9-1.3s-1.5-2.1-1.5-3.6
		c0-1.8,0.6-3.1,1.8-3.9s3.2-1.3,5.8-1.3h2.9v-0.4c0-0.8-0.3-1.3-0.9-1.7C1.4-4.6,0.4-4.8-0.9-4.8c-1.1,0-2,0.1-2.9,0.3
		C-4.8-4.3-5.6-4-6.3-3.6v-3.7c1-0.2,2.1-0.4,3.1-0.6C-2.1-8-1-8,0-8c2.8,0,4.8,0.5,6,1.6S7.8-3.5,7.8-1.1L7.8-1.1z"/>
</symbol>
<symbol  id="l" viewBox="-6.8 -8 13.6 16">
	<path d="M6.8-7.2v4c-0.7-0.5-1.3-0.8-2-1C4.1-4.4,3.4-4.5,2.7-4.5c-1.4,0-2.4,0.4-3.2,1.2S-1.7-1.4-1.7,0s0.4,2.5,1.1,3.3
		c0.8,0.8,1.8,1.2,3.2,1.2c0.8,0,1.5-0.1,2.2-0.3c0.7-0.2,1.3-0.6,1.9-1v4C6,7.5,5.2,7.7,4.4,7.8C3.6,8,2.9,8,2.1,8
		c-2.8,0-4.9-0.7-6.5-2.1S-6.8,2.5-6.8,0S-6-4.5-4.5-5.9C-2.9-7.3-0.7-8,2.1-8c0.8,0,1.5,0,2.3,0.2C5.2-7.7,6-7.5,6.8-7.2L6.8-7.2z"
		/>
</symbol>
<symbol  id="m" viewBox="-4.1 -13.6 8.2 27.3">
	<path d="M-0.8-7.7h4.9v15c0,2.1-0.5,3.6-1.5,4.7s-2.4,1.6-4.3,1.6h-2.4v-3.2h0.9c0.9,0,1.6-0.2,1.9-0.6C-1,9.4-0.8,8.6-0.8,7.3
		V-7.7z M-0.8-13.6h4.9v4h-4.9L-0.8-13.6z"/>
</symbol>
<symbol  id="n" viewBox="-8.4 -10.1 16.8 20.3">
	<path d="M-8.4-10.1h8.7c2.6,0,4.6,0.6,6,1.7c1.4,1.1,2.1,2.8,2.1,4.9S7.7,0.2,6.3,1.3C4.9,2.5,2.9,3,0.3,3h-3.5v7.1h-5.2V-10.1z
		 M-3.1-6.4v5.7h2.9c1,0,1.8-0.2,2.4-0.8C2.7-1.9,3-2.6,3-3.5S2.7-5.1,2.2-5.6C1.6-6.1,0.8-6.4-0.2-6.4H-3.1z"/>
</symbol>
<symbol  id="o" viewBox="-9.1 -10.2 18.3 20.4">
	<path d="M-9.1-10.2h5.9l7.4,14v-14h5v20.4H3.3l-7.4-14v14h-5V-10.2z"/>
</symbol>
<symbol  id="p" viewBox="-7.7 -10.6 15.4 21.3">
	<path d="M7.7,1.2v9.3H2.8V3.4c0-1.3,0-2.3-0.1-2.8s-0.2-0.8-0.3-1C2.2-0.8,1.9-1,1.6-1.2S0.9-1.4,0.5-1.4c-1,0-1.8,0.4-2.4,1.2
		s-0.9,1.9-0.9,3.3v7.5h-4.9v-21.3h4.9v8.2c0.7-0.9,1.5-1.5,2.3-2c0.9-0.4,1.8-0.6,2.8-0.6c1.8,0,3.1,0.5,4,1.6
		C7.2-2.4,7.7-0.9,7.7,1.2L7.7,1.2z"/>
</symbol>
<symbol  id="q" viewBox="-12.3 -7.9 24.6 15.8">
	<path d="M1.9-4.8C2.5-5.7,3.2-6.5,4.1-7s1.8-0.7,2.8-0.7c1.8,0,3.1,0.5,4,1.6s1.4,2.7,1.4,4.7v9.3H7.4v-8v-0.4c0-0.1,0-0.3,0-0.6
		c0-1.1-0.2-1.9-0.5-2.3S6.1-4,5.4-4C4.5-4,3.8-3.7,3.2-2.9C2.7-2.1,2.5-1,2.5,0.4v7.5h-4.9v-8c0-1.7-0.1-2.8-0.4-3.3
		s-0.8-0.7-1.6-0.7c-0.9,0-1.7,0.4-2.2,1.2S-7.4-1-7.4,0.4v7.5h-4.9V-7.4h4.9v2.2c0.6-0.9,1.3-1.5,2.1-2c0.8-0.4,1.6-0.7,2.6-0.7
		c1.1,0,2,0.3,2.8,0.8C0.9-6.5,1.5-5.7,1.9-4.8L1.9-4.8z"/>
</symbol>
<symbol  id="r" viewBox="-5.9 -10.7 11.8 21.4">
	<path d="M5.9-10.6v3.2H3.2C2.6-7.4,2.1-7.3,1.8-7C1.5-6.8,1.4-6.4,1.4-5.7v1.1h4.2v3.5H1.4v11.8h-4.9V-1.2h-2.4v-3.5h2.4v-1.1
		c0-1.7,0.5-2.9,1.4-3.7c0.9-0.8,2.4-1.2,4.3-1.2L5.9-10.6z"/>
</symbol>
<symbol  id="s" viewBox="-8.4 -10.7 16.8 21.3">
	<path d="M-8.4-10.7h4.9V0.9l5.6-5.6h5.7l-7.5,7l8.1,8.3H2.5l-6-6.4v6.4h-4.9V-10.7z"/>
</symbol>
<symbol  id="t" viewBox="-8.7 -10.6 17.4 21.1">
	<path d="M8.7,9.1c-1,0.5-2,0.9-3,1.1c-1,0.3-2.1,0.4-3.3,0.4c-3.4,0-6.1-0.9-8.1-2.8s-3-4.5-3-7.7c0-3.3,1-5.8,3-7.7
		s4.7-2.9,8.1-2.9c1.1,0,2.2,0.1,3.3,0.4c1.1,0.2,2.1,0.6,3,1.1v4.2c-1-0.7-2-1.2-2.9-1.5s-1.9-0.5-3-0.5c-1.9,0-3.4,0.6-4.4,1.8
		c-1.1,1.2-1.6,2.9-1.6,5s0.5,3.8,1.6,5s2.5,1.8,4.4,1.8c1.1,0,2.1-0.1,3-0.5c0.9-0.3,1.9-0.8,2.9-1.4V9.1z"/>
</symbol>
<g>
	<path d="M431.2,142c0-7.8-2-15.6-6-22.4c-3.9-6.8-9.6-12.4-16.4-16.3L250.3,12.6c-10.2-5.9-21.8-9-33.6-9s-23.4,3.1-33.6,9
		L25.2,103.3C16,108.5,9,116.9,5.3,126.8c-3.6,9.9-3.6,20.9,0,30.8c3.6,9.9,10.7,18.3,19.9,23.5l19.6,11.2l-20.1,11.9l0,0
		c-9.2,5.2-16.2,13.6-19.9,23.5c-3.6,9.9-3.6,20.9,0,30.8s10.7,18.3,19.9,23.5l20.2,11.2L24.7,305l0,0c-9.2,5.2-16.2,13.6-19.9,23.5
		c-3.6,9.9-3.6,20.9,0,30.8s10.7,18.3,19.9,23.5L183.1,473c20.7,11.8,46,11.8,66.6,0l158.5-90.7c9.2-5.2,16.2-13.6,19.9-23.5
		c3.6-9.9,3.6-20.9,0-30.8s-10.7-18.3-19.9-23.5l-19.5-11.3l20.2-11.8l0,0c9.2-5.2,16.2-13.6,19.9-23.5c3.6-9.9,3.6-20.9,0-30.8
		s-10.7-18.3-19.9-23.5l-20.2-11.2l20.2-11.8l0,0c6.8-3.9,12.5-9.5,16.4-16.3C429.2,157.6,431.3,149.9,431.2,142L431.2,142z
		 M205.5,51.3c3.4-2,7.3-3,11.2-3s7.8,1,11.2,3L386.4,142l-158.5,90.7c-6.9,4-15.5,4-22.4,0L47.1,142L205.5,51.3z M386.4,343.6
		l-158.5,90.7c-6.9,4-15.5,4-22.4,0L47,343.6L90.1,319l93,53.2c20.7,11.8,46,11.8,66.6,0l93-53.2L386.4,343.6z M386.4,242.8
		l-158.5,90.7c-6.9,4-15.5,4-22.4,0L47,242.8l43.1-24.6l93,53.2c20.7,11.8,46,11.8,66.6,0l93-53.2L386.4,242.8z"/>
	<g>
		<defs>
			<rect id="SVGID_1_" x="-61.9" y="586" width="17.4" height="21.2"/>
		</defs>
		<clipPath id="SVGID_00000086676315830788447250000016744713099529564324_">
			<use xlink:href="#SVGID_1_"  style="overflow:visible;"/>
		</clipPath>
		<g style="clip-path:url(#SVGID_00000086676315830788447250000016744713099529564324_);">
			
				<use xlink:href="#t"  width="17.4" height="21.1" x="-8.7" y="-10.6" transform="matrix(1 0 0 1 -53.2091 596.6624)" style="overflow:visible;"/>
		</g>
	</g>
	<g>
		<defs>
			<rect id="SVGID_00000151539089875383692430000010329001634402229944_" x="-40.4" y="591.2" width="11.4" height="15.7"/>
		</defs>
		<clipPath id="SVGID_00000136410245638539347980000002958281045554516099_">
			<use xlink:href="#SVGID_00000151539089875383692430000010329001634402229944_"  style="overflow:visible;"/>
		</clipPath>
		<g style="clip-path:url(#SVGID_00000136410245638539347980000002958281045554516099_);">
			
				<use xlink:href="#c"  width="11.4" height="15.8" x="-5.7" y="-7.9" transform="matrix(1 0 0 1 -34.6903 598.9639)" style="overflow:visible;"/>
		</g>
	</g>
	<g>
		<defs>
			<rect id="SVGID_00000125591972694868560450000000369229596326397368_" x="-27.7" y="591.2" width="16.4" height="16.1"/>
		</defs>
		<clipPath id="SVGID_00000081611602706494896450000001795367940637808304_">
			<use xlink:href="#SVGID_00000125591972694868560450000000369229596326397368_"  style="overflow:visible;"/>
		</clipPath>
		<g style="clip-path:url(#SVGID_00000081611602706494896450000001795367940637808304_);">
			
				<use xlink:href="#a"  width="16.4" height="16" x="-8.2" y="-8" transform="matrix(1 0 0 1 -19.5061 599.1592)" style="overflow:visible;"/>
		</g>
	</g>
	<g>
		<defs>
			<rect id="SVGID_00000026874583740315619480000003788002184397466529_" x="-8.7" y="591.2" width="15.5" height="16.1"/>
		</defs>
		<clipPath id="SVGID_00000054225899548140978180000012633826789559189661_">
			<use xlink:href="#SVGID_00000026874583740315619480000003788002184397466529_"  style="overflow:visible;"/>
		</clipPath>
		<g style="clip-path:url(#SVGID_00000054225899548140978180000012633826789559189661_);">
			
				<use xlink:href="#k"  width="15.5" height="16" x="-7.8" y="-8" transform="matrix(1 0 0 1 -1.0446 599.1592)" style="overflow:visible;"/>
		</g>
	</g>
	<g>
		<defs>
			<rect id="SVGID_00000008851139183944270160000010892492777286912934_" x="9.3" y="587.2" width="12.4" height="19.7"/>
		</defs>
		<clipPath id="SVGID_00000045614844511026391910000001062576479668017589_">
			<use xlink:href="#SVGID_00000008851139183944270160000010892492777286912934_"  style="overflow:visible;"/>
		</clipPath>
		<g style="clip-path:url(#SVGID_00000045614844511026391910000001062576479668017589_);">
			
				<use xlink:href="#b"  width="12.2" height="19.6" x="-6.1" y="-9.8" transform="matrix(1 0 0 1 15.517 596.9799)" style="overflow:visible;"/>
		</g>
	</g>
	<g>
		<g>
			<defs>
				<rect id="SVGID_00000109025962137620140820000016468172739266907796_" x="22.4" y="606.8" width="700" height="700"/>
			</defs>
			<clipPath id="SVGID_00000156546090479842363050000016766163509744852368_">
				<use xlink:href="#SVGID_00000109025962137620140820000016468172739266907796_"  style="overflow:visible;"/>
			</clipPath>
			<g style="clip-path:url(#SVGID_00000156546090479842363050000016766163509744852368_);">
				<g>
					<defs>
						<rect id="SVGID_00000059279200039820968200000008803423193877079721_" x="23.6" y="591.2" width="16.4" height="16.1"/>
					</defs>
					<clipPath id="SVGID_00000158738878363445726490000017892799020329180340_">
						<use xlink:href="#SVGID_00000059279200039820968200000008803423193877079721_"  style="overflow:visible;"/>
					</clipPath>
					<g style="clip-path:url(#SVGID_00000158738878363445726490000017892799020329180340_);">
						
							<use xlink:href="#a"  width="16.4" height="16" x="-8.2" y="-8" transform="matrix(1 0 0 1 31.7635 599.1592)" style="overflow:visible;"/>
					</g>
				</g>
			</g>
		</g>
	</g>
	<g>
		<defs>
			<rect id="SVGID_00000054946924167195937230000015384925462812764546_" x="42.6" y="585.6" width="16.4" height="21.7"/>
		</defs>
		<clipPath id="SVGID_00000176003163491401452020000016773158523246790298_">
			<use xlink:href="#SVGID_00000054946924167195937230000015384925462812764546_"  style="overflow:visible;"/>
		</clipPath>
		<g style="clip-path:url(#SVGID_00000176003163491401452020000016773158523246790298_);">
			
				<use xlink:href="#j"  width="16.3" height="21.6" x="-8.1" y="-10.8" transform="matrix(1 0 0 1 50.8565 596.3624)" style="overflow:visible;"/>
		</g>
	</g>
	<g>
		<defs>
			<rect id="SVGID_00000036247457584272846340000017181710581405166485_" x="73.5" y="585.6" width="16.4" height="21.7"/>
		</defs>
		<clipPath id="SVGID_00000045585352900146728120000004414699503898391938_">
			<use xlink:href="#SVGID_00000036247457584272846340000017181710581405166485_"  style="overflow:visible;"/>
		</clipPath>
		<g style="clip-path:url(#SVGID_00000045585352900146728120000004414699503898391938_);">
			
				<use xlink:href="#i"  width="16.4" height="21.7" x="-8.2" y="-10.9" transform="matrix(1 0 0 1 81.6928 596.3125)" style="overflow:visible;"/>
		</g>
	</g>
	<g>
		<defs>
			<rect id="SVGID_00000096046840280256808680000010592363649581662616_" x="91.5" y="591.5" width="17.4" height="21.4"/>
		</defs>
		<clipPath id="SVGID_00000069381178102720839530000017911639172407305661_">
			<use xlink:href="#SVGID_00000096046840280256808680000010592363649581662616_"  style="overflow:visible;"/>
		</clipPath>
		<g style="clip-path:url(#SVGID_00000069381178102720839530000017911639172407305661_);">
			
				<use xlink:href="#e"  width="17.4" height="21.3" x="-8.7" y="-10.6" transform="matrix(1 0 0 1 100.2123 602.1256)" style="overflow:visible;"/>
		</g>
	</g>
	<g>
		<defs>
			<rect id="SVGID_00000177457757396995668270000009207888773154287244_" x="121.7" y="586.4" width="14.2" height="20.4"/>
		</defs>
		<clipPath id="SVGID_00000026860195466876250200000013051335019328016040_">
			<use xlink:href="#SVGID_00000177457757396995668270000009207888773154287244_"  style="overflow:visible;"/>
		</clipPath>
		<g style="clip-path:url(#SVGID_00000026860195466876250200000013051335019328016040_);">
			
				<use xlink:href="#h"  width="14.2" height="20.5" x="-7.1" y="-10.2" transform="matrix(1 0 0 1 128.845 596.6549)" style="overflow:visible;"/>
		</g>
	</g>
	<g>
		<defs>
			<rect id="SVGID_00000060018303619903413240000004575766825277174459_" x="140.5" y="591.4" width="15.4" height="15.7"/>
		</defs>
		<clipPath id="SVGID_00000101075880226958594160000003497113091448786560_">
			<use xlink:href="#SVGID_00000060018303619903413240000004575766825277174459_"  style="overflow:visible;"/>
		</clipPath>
		<g style="clip-path:url(#SVGID_00000101075880226958594160000003497113091448786560_);">
			
				<use xlink:href="#g"  width="15.4" height="15.7" x="-7.7" y="-7.8" transform="matrix(1 0 0 1 148.1733 599.2964)" style="overflow:visible;"/>
		</g>
	</g>
	<g>
		<defs>
			<rect id="SVGID_00000004540671649316002720000009089515986737860785_" x="160.6" y="591.2" width="15.4" height="15.7"/>
		</defs>
		<clipPath id="SVGID_00000003066233325520116150000011129630178617022111_">
			<use xlink:href="#SVGID_00000004540671649316002720000009089515986737860785_"  style="overflow:visible;"/>
		</clipPath>
		<g style="clip-path:url(#SVGID_00000003066233325520116150000011129630178617022111_);">
			
				<use xlink:href="#f"  width="15.4" height="15.8" x="-7.7" y="-7.9" transform="matrix(1 0 0 1 168.2788 598.9642)" style="overflow:visible;"/>
		</g>
	</g>
	<g>
		<defs>
			<rect id="SVGID_00000058567799018565327740000006534140442728361097_" x="180.5" y="585.6" width="16.8" height="21.3"/>
		</defs>
		<clipPath id="SVGID_00000147901930629092010500000003779807622814618498_">
			<use xlink:href="#SVGID_00000058567799018565327740000006534140442728361097_"  style="overflow:visible;"/>
		</clipPath>
		<g style="clip-path:url(#SVGID_00000147901930629092010500000003779807622814618498_);">
			
				<use xlink:href="#s"  width="16.8" height="21.3" x="-8.4" y="-10.7" transform="matrix(1 0 0 1 188.9154 596.2174)" style="overflow:visible;"/>
		</g>
	</g>
	<g>
		<g>
			<defs>
				<rect id="SVGID_00000167398505663916729600000001577137058000315572_" x="196.8" y="606.8" width="700" height="700"/>
			</defs>
			<clipPath id="SVGID_00000002348269623817033210000015255009626311897737_">
				<use xlink:href="#SVGID_00000167398505663916729600000001577137058000315572_"  style="overflow:visible;"/>
			</clipPath>
			<g style="clip-path:url(#SVGID_00000002348269623817033210000015255009626311897737_);">
				<g>
					<defs>
						<rect id="SVGID_00000106120349630400710660000002845794378929781173_" x="197.1" y="591.5" width="17.4" height="21.4"/>
					</defs>
					<clipPath id="SVGID_00000047760121402077630340000018304772876502827443_">
						<use xlink:href="#SVGID_00000106120349630400710660000002845794378929781173_"  style="overflow:visible;"/>
					</clipPath>
					<g style="clip-path:url(#SVGID_00000047760121402077630340000018304772876502827443_);">
						
							<use xlink:href="#e"  width="17.4" height="21.3" x="-8.7" y="-10.6" transform="matrix(1 0 0 1 205.8256 602.1256)" style="overflow:visible;"/>
					</g>
				</g>
			</g>
		</g>
	</g>
	<g>
		<defs>
			<rect id="SVGID_00000023242748580443039750000006947669150997847985_" x="-62.7" y="613.6" width="11.9" height="21.3"/>
		</defs>
		<clipPath id="SVGID_00000172430934172892835620000002459803158922527412_">
			<use xlink:href="#SVGID_00000023242748580443039750000006947669150997847985_"  style="overflow:visible;"/>
		</clipPath>
		<g style="clip-path:url(#SVGID_00000172430934172892835620000002459803158922527412_);">
			
				<use xlink:href="#r"  width="11.8" height="21.4" x="-5.9" y="-10.7" transform="matrix(1 0 0 1 -56.8109 624.1671)" style="overflow:visible;"/>
		</g>
	</g>
	<g>
		<g>
			<defs>
				<rect id="SVGID_00000008850761369100043070000015753186657307731120_" x="-51.1" y="634.8" width="700" height="700"/>
			</defs>
			<clipPath id="SVGID_00000044858011070601149830000000018019775953273513_">
				<use xlink:href="#SVGID_00000008850761369100043070000015753186657307731120_"  style="overflow:visible;"/>
			</clipPath>
			<g style="clip-path:url(#SVGID_00000044858011070601149830000000018019775953273513_);">
				<g>
					<defs>
						<rect id="SVGID_00000128465346190991912480000003916116107125164439_" x="-48.8" y="619.2" width="11.4" height="15.7"/>
					</defs>
					<clipPath id="SVGID_00000101101742222483162370000005433332038845850801_">
						<use xlink:href="#SVGID_00000128465346190991912480000003916116107125164439_"  style="overflow:visible;"/>
					</clipPath>
					<g style="clip-path:url(#SVGID_00000101101742222483162370000005433332038845850801_);">
						
							<use xlink:href="#c"  width="11.4" height="15.8" x="-5.7" y="-7.9" transform="matrix(1 0 0 1 -43.0575 626.9639)" style="overflow:visible;"/>
					</g>
				</g>
			</g>
		</g>
	</g>
	<g>
		<defs>
			<rect id="SVGID_00000169535927153656067100000015692940276606087833_" x="-36.1" y="619.2" width="16.8" height="16.1"/>
		</defs>
		<clipPath id="SVGID_00000024000811281620260630000008363341185842759314_">
			<use xlink:href="#SVGID_00000169535927153656067100000015692940276606087833_"  style="overflow:visible;"/>
		</clipPath>
		<g style="clip-path:url(#SVGID_00000024000811281620260630000008363341185842759314_);">
			
				<use xlink:href="#d"  width="16.8" height="16" x="-8.4" y="-8" transform="matrix(1 0 0 1 -27.6783 627.1587)" style="overflow:visible;"/>
		</g>
	</g>
	<g>
		<defs>
			<rect id="SVGID_00000110431547825784555140000013512111031785913984_" x="-15.7" y="619.2" width="24.6" height="15.7"/>
		</defs>
		<clipPath id="SVGID_00000170993842530586983770000000691740525562083501_">
			<use xlink:href="#SVGID_00000110431547825784555140000013512111031785913984_"  style="overflow:visible;"/>
		</clipPath>
		<g style="clip-path:url(#SVGID_00000170993842530586983770000000691740525562083501_);">
			
				<use xlink:href="#q"  width="24.6" height="15.8" x="-12.3" y="-7.9" transform="matrix(1 0 0 1 -3.4126 626.8636)" style="overflow:visible;"/>
		</g>
	</g>
	<g>
		<g>
			<defs>
				<rect id="SVGID_00000147204510880746414530000016725305932825054647_" x="20.9" y="634.8" width="700" height="700"/>
			</defs>
			<clipPath id="SVGID_00000024680847857424653740000016666200166312525187_">
				<use xlink:href="#SVGID_00000147204510880746414530000016725305932825054647_"  style="overflow:visible;"/>
			</clipPath>
			<g style="clip-path:url(#SVGID_00000024680847857424653740000016666200166312525187_);">
				<g>
					<defs>
						<rect id="SVGID_00000128479128817011248730000015595733809886860171_" x="21.2" y="615.2" width="12.4" height="19.7"/>
					</defs>
					<clipPath id="SVGID_00000016045140450918584250000011087175106597551513_">
						<use xlink:href="#SVGID_00000128479128817011248730000015595733809886860171_"  style="overflow:visible;"/>
					</clipPath>
					<g style="clip-path:url(#SVGID_00000016045140450918584250000011087175106597551513_);">
						
							<use xlink:href="#b"  width="12.2" height="19.6" x="-6.1" y="-9.8" transform="matrix(1 0 0 1 27.4272 624.9799)" style="overflow:visible;"/>
					</g>
				</g>
			</g>
		</g>
	</g>
	<g>
		<defs>
			<rect id="SVGID_00000119815747418301606280000004065995487060430747_" x="36.6" y="613.6" width="15.4" height="21.3"/>
		</defs>
		<clipPath id="SVGID_00000118361138160058449900000003802512490119130809_">
			<use xlink:href="#SVGID_00000119815747418301606280000004065995487060430747_"  style="overflow:visible;"/>
		</clipPath>
		<g style="clip-path:url(#SVGID_00000118361138160058449900000003802512490119130809_);">
			
				<use xlink:href="#p"  width="15.4" height="21.3" x="-7.7" y="-10.6" transform="matrix(1 0 0 1 44.3022 624.2172)" style="overflow:visible;"/>
		</g>
	</g>
	<g>
		<g>
			<defs>
				<rect id="SVGID_00000108269144616197326020000017627530633448742276_" x="54.2" y="634.8" width="700" height="700"/>
			</defs>
			<clipPath id="SVGID_00000175324135446156126800000014509027677367991180_">
				<use xlink:href="#SVGID_00000108269144616197326020000017627530633448742276_"  style="overflow:visible;"/>
			</clipPath>
			<g style="clip-path:url(#SVGID_00000175324135446156126800000014509027677367991180_);">
				<g>
					<defs>
						<rect id="SVGID_00000164489852316582420060000016926129892918012301_" x="55.4" y="619.2" width="16.4" height="16.1"/>
					</defs>
					<clipPath id="SVGID_00000108293699064259276410000013689874373684706728_">
						<use xlink:href="#SVGID_00000164489852316582420060000016926129892918012301_"  style="overflow:visible;"/>
					</clipPath>
					<g style="clip-path:url(#SVGID_00000108293699064259276410000013689874373684706728_);">
						
							<use xlink:href="#a"  width="16.4" height="16" x="-8.2" y="-8" transform="matrix(1 0 0 1 63.6033 627.1592)" style="overflow:visible;"/>
					</g>
				</g>
			</g>
		</g>
	</g>
	<g>
		<defs>
			<rect id="SVGID_00000118364163234986295920000017470359207309905066_" x="85.5" y="614.4" width="18.3" height="20.4"/>
		</defs>
		<clipPath id="SVGID_00000149369066631703971550000009748870255303052719_">
			<use xlink:href="#SVGID_00000118364163234986295920000017470359207309905066_"  style="overflow:visible;"/>
		</clipPath>
		<g style="clip-path:url(#SVGID_00000149369066631703971550000009748870255303052719_);">
			
				<use xlink:href="#o"  width="18.3" height="20.4" x="-9.1" y="-10.2" transform="matrix(1 0 0 1 94.6881 624.6047)" style="overflow:visible;"/>
		</g>
	</g>
	<g>
		<g>
			<defs>
				<rect id="SVGID_00000108287004315007406410000003514042182053410216_" x="106.4" y="634.8" width="700" height="700"/>
			</defs>
			<clipPath id="SVGID_00000067216204309813135010000014581555023724253863_">
				<use xlink:href="#SVGID_00000108287004315007406410000003514042182053410216_"  style="overflow:visible;"/>
			</clipPath>
			<g style="clip-path:url(#SVGID_00000067216204309813135010000014581555023724253863_);">
				<g>
					<defs>
						<rect id="SVGID_00000067921316930432689370000003589662563766738071_" x="107.6" y="619.2" width="16.8" height="16.1"/>
					</defs>
					<clipPath id="SVGID_00000132797123600963143010000004169753344167050424_">
						<use xlink:href="#SVGID_00000067921316930432689370000003589662563766738071_"  style="overflow:visible;"/>
					</clipPath>
					<g style="clip-path:url(#SVGID_00000132797123600963143010000004169753344167050424_);">
						
							<use xlink:href="#d"  width="16.8" height="16" x="-8.4" y="-8" transform="matrix(1 0 0 1 115.9702 627.1587)" style="overflow:visible;"/>
					</g>
				</g>
			</g>
		</g>
	</g>
	<g>
		<g>
			<defs>
				<rect id="SVGID_00000103947669421532334830000004543077342509546631_" x="125.6" y="634.8" width="700" height="700"/>
			</defs>
			<clipPath id="SVGID_00000003092833691177179370000003462976902936289431_">
				<use xlink:href="#SVGID_00000103947669421532334830000004543077342509546631_"  style="overflow:visible;"/>
			</clipPath>
			<g style="clip-path:url(#SVGID_00000003092833691177179370000003462976902936289431_);">
				<g>
					<defs>
						<rect id="SVGID_00000005961167707279193920000003517381340936761783_" x="127.8" y="619.4" width="15.4" height="15.7"/>
					</defs>
					<clipPath id="SVGID_00000053505031912973728480000015189541482386351258_">
						<use xlink:href="#SVGID_00000005961167707279193920000003517381340936761783_"  style="overflow:visible;"/>
					</clipPath>
					<g style="clip-path:url(#SVGID_00000053505031912973728480000015189541482386351258_);">
						
							<use xlink:href="#g"  width="15.4" height="15.7" x="-7.7" y="-7.8" transform="matrix(1 0 0 1 135.4741 627.2964)" style="overflow:visible;"/>
					</g>
				</g>
			</g>
		</g>
	</g>
	<g>
		<g>
			<defs>
				<rect id="SVGID_00000131346513012501960230000004095653643270025881_" x="145.6" y="634.8" width="700" height="700"/>
			</defs>
			<clipPath id="SVGID_00000077316945022960712410000008059780918461174673_">
				<use xlink:href="#SVGID_00000131346513012501960230000004095653643270025881_"  style="overflow:visible;"/>
			</clipPath>
			<g style="clip-path:url(#SVGID_00000077316945022960712410000008059780918461174673_);">
				<g>
					<defs>
						<rect id="SVGID_00000162328374182344964410000008251591325941134008_" x="147.9" y="619.2" width="15.4" height="15.7"/>
					</defs>
					<clipPath id="SVGID_00000182503261515242596130000013603965404639453358_">
						<use xlink:href="#SVGID_00000162328374182344964410000008251591325941134008_"  style="overflow:visible;"/>
					</clipPath>
					<g style="clip-path:url(#SVGID_00000182503261515242596130000013603965404639453358_);">
						
							<use xlink:href="#f"  width="15.4" height="15.8" x="-7.7" y="-7.9" transform="matrix(1 0 0 1 155.5796 626.9642)" style="overflow:visible;"/>
					</g>
				</g>
			</g>
		</g>
	</g>
	<g>
		<defs>
			<rect id="SVGID_00000048489076565154005450000018242152210786257035_" x="177.8" y="614.4" width="16.8" height="20.4"/>
		</defs>
		<clipPath id="SVGID_00000019665973087364918910000001511036839441976962_">
			<use xlink:href="#SVGID_00000048489076565154005450000018242152210786257035_"  style="overflow:visible;"/>
		</clipPath>
		<g style="clip-path:url(#SVGID_00000019665973087364918910000001511036839441976962_);">
			
				<use xlink:href="#n"  width="16.8" height="20.3" x="-8.4" y="-10.1" transform="matrix(1 0 0 1 186.1811 624.5549)" style="overflow:visible;"/>
		</g>
	</g>
	<g>
		<g>
			<defs>
				<rect id="SVGID_00000067937202130821685810000008102934828888769199_" x="195.8" y="634.8" width="700" height="700"/>
			</defs>
			<clipPath id="SVGID_00000119107628902459443280000007480854072918377916_">
				<use xlink:href="#SVGID_00000067937202130821685810000008102934828888769199_"  style="overflow:visible;"/>
			</clipPath>
			<g style="clip-path:url(#SVGID_00000119107628902459443280000007480854072918377916_);">
				<g>
					<defs>
						<rect id="SVGID_00000134212806648911587210000012882450418492467073_" x="198.1" y="619.2" width="11.4" height="15.7"/>
					</defs>
					<clipPath id="SVGID_00000039819712800478627890000014984764635263354540_">
						<use xlink:href="#SVGID_00000134212806648911587210000012882450418492467073_"  style="overflow:visible;"/>
					</clipPath>
					<g style="clip-path:url(#SVGID_00000039819712800478627890000014984764635263354540_);">
						
							<use xlink:href="#c"  width="11.4" height="15.8" x="-5.7" y="-7.9" transform="matrix(1 0 0 1 203.7745 626.9639)" style="overflow:visible;"/>
					</g>
				</g>
			</g>
		</g>
	</g>
	<g>
		<g>
			<defs>
				<rect id="SVGID_00000021079989581813518360000006697029874626691774_" x="209.6" y="634.8" width="700" height="700"/>
			</defs>
			<clipPath id="SVGID_00000124864418193019940400000002912018634401165458_">
				<use xlink:href="#SVGID_00000021079989581813518360000006697029874626691774_"  style="overflow:visible;"/>
			</clipPath>
			<g style="clip-path:url(#SVGID_00000124864418193019940400000002912018634401165458_);">
				<g>
					<defs>
						<rect id="SVGID_00000168091416485331991580000007062799447054132611_" x="210.7" y="619.2" width="16.8" height="16.1"/>
					</defs>
					<clipPath id="SVGID_00000145740610248242909260000011111225250881082537_">
						<use xlink:href="#SVGID_00000168091416485331991580000007062799447054132611_"  style="overflow:visible;"/>
					</clipPath>
					<g style="clip-path:url(#SVGID_00000145740610248242909260000011111225250881082537_);">
						
							<use xlink:href="#d"  width="16.8" height="16" x="-8.4" y="-8" transform="matrix(1 0 0 1 219.1499 627.1587)" style="overflow:visible;"/>
					</g>
				</g>
			</g>
		</g>
	</g>
	<g>
		<defs>
			<rect id="SVGID_00000093165945582727481740000002070843351451288994_" x="227.8" y="613.5" width="8.2" height="27.3"/>
		</defs>
		<clipPath id="SVGID_00000169522729043771186540000004221140648422959770_">
			<use xlink:href="#SVGID_00000093165945582727481740000002070843351451288994_"  style="overflow:visible;"/>
		</clipPath>
		<g style="clip-path:url(#SVGID_00000169522729043771186540000004221140648422959770_);">
			
				<use xlink:href="#m"  width="8.2" height="27.3" x="-4.1" y="-13.6" transform="matrix(1 0 0 1 231.9272 627.1409)" style="overflow:visible;"/>
		</g>
	</g>
	<g>
		<g>
			<defs>
				<rect id="SVGID_00000178196700234099208900000009980471246336736395_" x="238.4" y="634.8" width="700" height="700"/>
			</defs>
			<clipPath id="SVGID_00000129203289231796610330000002266328169346919603_">
				<use xlink:href="#SVGID_00000178196700234099208900000009980471246336736395_"  style="overflow:visible;"/>
			</clipPath>
			<g style="clip-path:url(#SVGID_00000129203289231796610330000002266328169346919603_);">
				<g>
					<defs>
						<rect id="SVGID_00000105419885081448358110000006481465698049660043_" x="239.6" y="619.2" width="16.4" height="16.1"/>
					</defs>
					<clipPath id="SVGID_00000069356123604186786260000015000732749038881455_">
						<use xlink:href="#SVGID_00000105419885081448358110000006481465698049660043_"  style="overflow:visible;"/>
					</clipPath>
					<g style="clip-path:url(#SVGID_00000069356123604186786260000015000732749038881455_);">
						
							<use xlink:href="#a"  width="16.4" height="16" x="-8.2" y="-8" transform="matrix(1 0 0 1 247.7908 627.1592)" style="overflow:visible;"/>
					</g>
				</g>
			</g>
		</g>
	</g>
	<g>
		<defs>
			<rect id="SVGID_00000066504512588985633490000004446509608420483717_" x="258.5" y="619.2" width="13.5" height="16.1"/>
		</defs>
		<clipPath id="SVGID_00000023995081315772046160000005527495223296583844_">
			<use xlink:href="#SVGID_00000066504512588985633490000004446509608420483717_"  style="overflow:visible;"/>
		</clipPath>
		<g style="clip-path:url(#SVGID_00000023995081315772046160000005527495223296583844_);">
			
				<use xlink:href="#l"  width="13.6" height="16" x="-6.8" y="-8" transform="matrix(1 0 0 1 265.322 627.1596)" style="overflow:visible;"/>
		</g>
	</g>
	<g>
		<g>
			<defs>
				<rect id="SVGID_00000060724322498415079090000015176161815278190779_" x="274" y="634.8" width="700" height="700"/>
			</defs>
			<clipPath id="SVGID_00000038379427877428987540000018270236546398095238_">
				<use xlink:href="#SVGID_00000060724322498415079090000015176161815278190779_"  style="overflow:visible;"/>
			</clipPath>
			<g style="clip-path:url(#SVGID_00000038379427877428987540000018270236546398095238_);">
				<g>
					<defs>
						<rect id="SVGID_00000181789856565075970390000006004852669711471289_" x="274.3" y="615.2" width="12.4" height="19.7"/>
					</defs>
					<clipPath id="SVGID_00000088093640327208524440000006244210030215712156_">
						<use xlink:href="#SVGID_00000181789856565075970390000006004852669711471289_"  style="overflow:visible;"/>
					</clipPath>
					<g style="clip-path:url(#SVGID_00000088093640327208524440000006244210030215712156_);">
						
							<use xlink:href="#b"  width="12.2" height="19.6" x="-6.1" y="-9.8" transform="matrix(1 0 0 1 280.517 624.9799)" style="overflow:visible;"/>
					</g>
				</g>
			</g>
		</g>
	</g>
</g>
</svg>
