<svg width="34" height="34" viewBox="0 0 34 34" fill="none" xmlns="http://www.w3.org/2000/svg">
<path d="M17.0819 22.9082L10.4415 29.5486C9.63749 30.3246 8.56376 30.7582 7.44642 30.7582C6.32908 30.7582 5.25535 30.3246 4.45137 29.5486C4.05706 29.1559 3.74419 28.6891 3.5307 28.1752C3.31722 27.6612 3.20732 27.1101 3.20732 26.5536C3.20732 25.997 3.31722 25.446 3.5307 24.932C3.74419 24.418 4.05706 23.9513 4.45137 23.5585L11.0918 16.9181C11.4141 16.5958 11.5951 16.1587 11.5951 15.703C11.5951 15.2472 11.4141 14.8101 11.0918 14.4878C10.7695 14.1656 10.3324 13.9845 9.87669 13.9845C9.42092 13.9845 8.98383 14.1656 8.66155 14.4878L2.02111 21.1454C0.683361 22.6015 -0.0401323 24.5181 0.00171956 26.495C0.0435715 28.4718 0.847532 30.3561 2.24571 31.7543C3.64388 33.1525 5.52816 33.9564 7.50503 33.9983C9.48191 34.0401 11.3985 33.3166 12.8546 31.9789L19.5122 25.3384C19.6717 25.1789 19.7983 24.9894 19.8847 24.7809C19.9711 24.5724 20.0155 24.349 20.0155 24.1233C20.0155 23.8976 19.9711 23.6742 19.8847 23.4657C19.7983 23.2572 19.6717 23.0678 19.5122 22.9082C19.3526 22.7486 19.1632 22.622 18.9547 22.5357C18.7462 22.4493 18.5227 22.4049 18.297 22.4049C18.0714 22.4049 17.8479 22.4493 17.6394 22.5357C17.4309 22.622 17.2415 22.7486 17.0819 22.9082ZM31.7662 2.23381C30.3265 0.803047 28.3792 0 26.3494 0C24.3197 0 22.3724 0.803047 20.9327 2.23381L14.2751 8.87425C14.1156 9.03383 13.989 9.22327 13.9026 9.43176C13.8162 9.64025 13.7718 9.86372 13.7718 10.0894C13.7718 10.3151 13.8162 10.5385 13.9026 10.747C13.989 10.9555 14.1156 11.1449 14.2751 11.3045C14.4347 11.4641 14.6241 11.5907 14.8326 11.677C15.0411 11.7634 15.2646 11.8078 15.4903 11.8078C15.7159 11.8078 15.9394 11.7634 16.1479 11.677C16.3564 11.5907 16.5458 11.4641 16.7054 11.3045L23.3458 4.66408C24.1498 3.88815 25.2235 3.45452 26.3409 3.45452C27.4582 3.45452 28.5319 3.88815 29.3359 4.66408C29.7302 5.05683 30.0431 5.52358 30.2566 6.03755C30.4701 6.55152 30.58 7.10258 30.58 7.65912C30.58 8.21566 30.4701 8.76673 30.2566 9.28069C30.0431 9.79466 29.7302 10.2614 29.3359 10.6542L22.6955 17.2946C22.5351 17.4537 22.4077 17.643 22.3209 17.8516C22.234 18.0601 22.1892 18.2838 22.1892 18.5097C22.1892 18.7357 22.234 18.9594 22.3209 19.1679C22.4077 19.3765 22.5351 19.5658 22.6955 19.7249C22.8546 19.8853 23.0439 20.0126 23.2524 20.0995C23.461 20.1864 23.6847 20.2311 23.9106 20.2311C24.1365 20.2311 24.3602 20.1864 24.5688 20.0995C24.7774 20.0126 24.9666 19.8853 25.1257 19.7249L31.7662 13.0673C33.197 11.6276 34 9.68031 34 7.65056C34 5.62082 33.197 3.67352 31.7662 2.23381ZM11.4683 22.5317C11.6283 22.6903 11.8179 22.8158 12.0264 22.9009C12.235 22.9861 12.4582 23.0293 12.6835 23.028C12.9087 23.0293 13.132 22.9861 13.3405 22.9009C13.549 22.8158 13.7387 22.6903 13.8986 22.5317L22.319 14.1113C22.6412 13.789 22.8223 13.3519 22.8223 12.8962C22.8223 12.4404 22.6412 12.0033 22.319 11.681C21.9967 11.3588 21.5596 11.1777 21.1038 11.1777C20.6481 11.1777 20.211 11.3588 19.8887 11.681L11.4683 20.1014C11.3079 20.2605 11.1806 20.4498 11.0937 20.6583C11.0068 20.8669 10.9621 21.0906 10.9621 21.3165C10.9621 21.5425 11.0068 21.7662 11.0937 21.9747C11.1806 22.1833 11.3079 22.3726 11.4683 22.5317Z"/>
</svg>
