<svg width="50" height="50" viewBox="0 0 50 50" fill="none" xmlns="http://www.w3.org/2000/svg">
<path d="M33.8144 36.6059H14.8858C13.2948 36.6059 12 35.3107 12 33.7195V16.8858C12 15.2943 13.2948 14 14.8858 14C14.9012 14 16.7652 14.0543 17.7674 14.0543C19.6106 14.0543 20.3372 15.589 20.5246 16.6949H33.8757C35.4671 16.6949 36.7621 17.9896 36.7621 19.5806V24.2259H35.7989L35.7987 19.5809C35.7987 18.5198 34.9358 17.6568 33.8755 17.6568H19.6344L19.6132 17.197C19.6085 17.1078 19.4906 15.0159 17.7673 15.0159C16.7552 15.0159 14.8719 14.9615 14.8719 14.9615C13.825 14.9615 12.962 15.8247 12.962 16.8856V33.7193C12.962 34.7798 13.825 35.6427 14.8861 35.6427H33.8147L33.8144 36.6059Z" />
<path d="M33.8755 36.6059H14.8858C14.0989 36.6059 13.418 36.2876 13.0169 35.7346C12.6163 35.1815 12.5266 34.4358 12.7721 33.688L15.167 26.3621C15.6406 24.9188 17.2599 23.7454 18.7771 23.7454H37.7668C38.5533 23.7454 39.2346 24.0622 39.6359 24.6159C40.0365 25.1689 40.1257 25.9144 39.8801 26.6614L37.4848 33.9873C37.0117 35.4316 35.3923 36.6056 33.8753 36.6056L33.8755 36.6059ZM18.777 24.7072C17.6635 24.7072 16.4286 25.602 16.0809 26.6615L13.6862 33.9874C13.5358 34.4455 13.5753 34.866 13.7961 35.1701C14.0176 35.4753 14.4046 35.643 14.8857 35.643H33.8754C34.9896 35.643 36.2239 34.7481 36.5715 33.6877L38.9668 26.3617C39.116 25.904 39.0775 25.4844 38.8566 25.1797C38.636 24.875 38.248 24.7068 37.7671 24.7068H18.7773L18.777 24.7072Z"/>
</svg>
