<svg width="31" height="30" viewBox="0 0 31 30" fill="none" xmlns="http://www.w3.org/2000/svg">
<path fill-rule="evenodd" clip-rule="evenodd" d="M5.75 0C2.57436 0 0 2.57436 0 5.75V23.6113C0 26.7869 2.57436 29.3613 5.75 29.3613H24.6063C27.7819 29.3613 30.3563 26.7869 30.3563 23.6113V5.75C30.3563 2.57436 27.7819 0 24.6063 0H5.75ZM1.5 5.75C1.5 3.40279 3.40279 1.5 5.75 1.5H24.6063C26.9535 1.5 28.8563 3.40279 28.8563 5.75V23.6113C28.8563 25.9585 26.9535 27.8613 24.6063 27.8613H5.75C3.40279 27.8613 1.5 25.9585 1.5 23.6113V5.75ZM13.7545 8.70707C14.0457 8.41257 14.0431 7.9377 13.7486 7.64643C13.4541 7.35516 12.9792 7.35778 12.688 7.65229L6.71769 13.6889L6.19609 14.2163L6.71769 14.7437L12.688 20.7803C12.9792 21.0748 13.4541 21.0774 13.7486 20.7861C14.0431 20.4949 14.0457 20.02 13.7545 19.7255L9.04755 14.9663H23.9677C24.3819 14.9663 24.7177 14.6305 24.7177 14.2163C24.7177 13.8021 24.3819 13.4663 23.9677 13.4663H9.04754L13.7545 8.70707Z" />
</svg>
