<svg width="35" height="30" viewBox="0 0 35 30" fill="none" xmlns="http://www.w3.org/2000/svg">
<path fill-rule="evenodd" clip-rule="evenodd" d="M11.0807 14.0808C10.5731 14.5884 10.5731 15.4116 11.0807 15.9192L19.3539 24.1924C19.8616 24.7001 20.6847 24.7001 21.1924 24.1924C21.7001 23.6847 21.7001 22.8616 21.1924 22.3539L15.1385 16.3L33 16.3C33.718 16.3 34.3 15.718 34.3 15C34.3 14.282 33.718 13.7 33 13.7L15.1385 13.7L21.1924 7.64609C21.7001 7.13841 21.7001 6.31529 21.1924 5.80761C20.6847 5.29993 19.8616 5.29993 19.3539 5.80761L11.0807 14.0808ZM4.36798 26.2763C4.20229 26.2763 4.06798 26.142 4.06798 25.9763L4.06798 4.30974C4.06798 4.14405 4.2023 4.00974 4.36798 4.00974L9.63832 4.00974C10.5772 4.00974 11.3383 3.24862 11.3383 2.30974C11.3383 1.37086 10.5772 0.60974 9.63832 0.60974L4.36798 0.60974C2.32453 0.60974 0.667984 2.26628 0.667984 4.30974L0.667979 25.9763C0.667979 28.0197 2.32453 29.6763 4.36798 29.6763L9.63832 29.6763C10.5772 29.6763 11.3383 28.9152 11.3383 27.9763C11.3383 27.0374 10.5772 26.2763 9.63832 26.2763L4.36798 26.2763Z" />
</svg>
