<svg width="40" height="37" viewBox="0 0 40 37" fill="none" xmlns="http://www.w3.org/2000/svg">
<path fill-rule="evenodd" clip-rule="evenodd" d="M0 3C0 1.34314 1.34315 -2.38419e-07 3 0L13.6667 1.49012e-06H19.4242H37C38.6569 1.49012e-06 40 1.34315 40 3V34C40 35.6569 38.6569 37 37 37H3C1.34314 37 0 35.6569 0 34V3ZM3 2C2.44772 2 2 2.44772 2 3V34C2 34.5523 2.44771 35 3 35H37C37.5523 35 38 34.5523 38 34V3C38 2.44772 37.5523 2 37 2H19.4242H13.6667L3 2Z" />
<path d="M15.7424 19.8123L9.55666 24.6884C8.83501 25.2572 8.71115 26.3034 9.28002 27.0251C9.84888 27.7467 10.895 27.8706 11.6167 27.3017L31.4806 11.6433C32.2022 11.0745 32.3261 10.0283 31.7572 9.30666C31.1884 8.58501 30.1422 8.46116 29.4205 9.03002L19.148 17.1277L15.7424 19.8123Z"  stroke-width="2"/>
<path d="M30.25 18.618L31.2338 21.6459C31.3677 22.0579 31.7516 22.3369 32.1849 22.3369H35.3686L32.7929 24.2082C32.4424 24.4628 32.2958 24.9142 32.4296 25.3262L33.4134 28.3541L30.8378 26.4828C30.4873 26.2281 30.0127 26.2281 29.6622 26.4828L27.0866 28.3541L28.0704 25.3262C28.2042 24.9142 28.0576 24.4628 27.7071 24.2082L25.1314 22.3369L28.3151 22.3369C28.7484 22.3369 29.1323 22.0579 29.2662 21.6459L30.25 18.618Z" />
<path d="M14.25 4.61803L15.2338 7.6459C15.3677 8.05792 15.7516 8.33688 16.1849 8.33688H19.3686L16.7929 10.2082C16.4424 10.4628 16.2958 10.9142 16.4296 11.3262L17.4134 14.3541L14.8378 12.4828C14.4873 12.2281 14.0127 12.2281 13.6622 12.4828L11.0866 14.3541L12.0704 11.3262C12.2042 10.9142 12.0576 10.4628 11.7071 10.2082L9.13145 8.33688L12.3151 8.33688C12.7484 8.33688 13.1323 8.05792 13.2662 7.6459L14.25 4.61803Z" />
<path d="M30.25 18.618L31.2338 21.6459C31.3677 22.0579 31.7516 22.3369 32.1849 22.3369H35.3686L32.7929 24.2082C32.4424 24.4628 32.2958 24.9142 32.4296 25.3262L33.4134 28.3541L30.8378 26.4828C30.4873 26.2281 30.0127 26.2281 29.6622 26.4828L27.0866 28.3541L28.0704 25.3262C28.2042 24.9142 28.0576 24.4628 27.7071 24.2082L25.1314 22.3369L28.3151 22.3369C28.7484 22.3369 29.1323 22.0579 29.2662 21.6459L30.25 18.618Z" />
</svg>
