<svg width="52" height="52" viewBox="0 0 52 52" fill="none" xmlns="http://www.w3.org/2000/svg">
<path d="M51 26C51 39.8071 39.8071 51 26 51C12.1929 51 1 39.8071 1 26C1 12.1929 12.1929 1 26 1C39.8071 1 51 12.1929 51 26Z" stroke="black" stroke-width="0.1"/>
<path d="M36 14H16C14.8954 14 14 14.8954 14 16V16.8C14 17.9046 14.8954 18.8 16 18.8H36C37.1046 18.8 38 17.9046 38 16.8V16C38 14.8954 37.1046 14 36 14Z" fill="#7D7D7D"/>
<path d="M36 23.6H16C14.8954 23.6 14 24.4954 14 25.6V26.4C14 27.5045 14.8954 28.4 16 28.4H36C37.1046 28.4 38 27.5045 38 26.4V25.6C38 24.4954 37.1046 23.6 36 23.6Z" fill="#7D7D7D"/>
<path d="M36 33.2H16C14.8954 33.2 14 34.0954 14 35.2V36C14 37.1045 14.8954 38 16 38H36C37.1046 38 38 37.1045 38 36V35.2C38 34.0954 37.1046 33.2 36 33.2Z" fill="#7D7D7D"/>
</svg>
