<svg width="47" height="24" viewBox="0 0 47 24" xmlns="http://www.w3.org/2000/svg">
<path fill-rule="evenodd" clip-rule="evenodd" fill="currentColor" d="M15.4424 1.38562C15.4077 1.37651 15.3709 1.38013 15.3386 1.39583L9.68358 4.14817C9.66069 4.15931 9.6467 4.18308 9.64806 4.2085C9.64949 4.23521 9.66755 4.25815 9.69318 4.2658L9.74417 4.28102C10.0966 4.38622 10.3394 4.70873 10.3431 5.07652L10.4451 15.3497C10.4496 15.8028 10.0979 16.1798 9.64559 16.2067L1.71752 16.6776C1.56814 16.6865 1.52242 16.8846 1.65281 16.9581L11.6829 22.6061C11.7106 22.6217 11.7425 22.6281 11.7741 22.6244L45.1699 18.6798C45.2264 18.6731 45.2742 18.6351 45.2935 18.5816L45.9372 16.7921C45.9724 16.6944 45.9 16.5914 45.7961 16.5914H40.3269C39.856 16.5914 39.4749 16.2085 39.4769 15.7376L39.4842 14.0808C39.4843 14.0628 39.4729 14.0468 39.4558 14.041C39.4024 14.0228 39.352 13.999 39.3054 13.9702L36.4572 14.3091L36.0623 14.356L36.0658 13.9584L36.087 11.582L36.0898 11.2682L36.402 11.2369L39.2865 10.9469C39.3249 10.9431 39.3625 10.9456 39.3982 10.9536C39.4319 10.9416 39.4669 10.9323 39.503 10.9259L39.5634 9.819C39.5802 9.51012 39.8193 9.26373 40.1205 9.23162L40.1418 9.05562C40.1461 9.01983 40.1375 8.98367 40.1173 8.95377L37.7294 5.40844C37.7015 5.36696 37.6547 5.34214 37.6047 5.34224L32.893 5.35173L31.1508 5.46659C31.0594 5.47262 30.9676 5.46382 30.879 5.44054L15.4424 1.38562ZM38.968 11.6825L38.953 13.3072L36.7693 13.567L36.7842 11.902L38.968 11.6825ZM15.0323 0.766418C15.215 0.677467 15.4236 0.656952 15.6202 0.708592L31.0568 4.76351C31.0725 4.76762 31.0887 4.76917 31.1048 4.7681L32.8581 4.65251L32.8692 4.65177L32.8804 4.65175L37.6033 4.64224C37.8867 4.64167 38.1517 4.78236 38.31 5.0174L40.6979 8.56273C40.812 8.73217 40.8613 8.93704 40.8367 9.13985L40.8078 9.37831C40.7727 9.66819 40.5427 9.89167 40.2587 9.92404L40.1996 11.0078C40.1831 11.3089 39.9614 11.5564 39.6687 11.609L39.6527 13.3382C39.6526 13.3563 39.664 13.3724 39.6811 13.3783C39.9831 13.4809 40.1856 13.765 40.1842 14.0839L40.1769 15.7407C40.1766 15.8238 40.2438 15.8914 40.3269 15.8914H45.7961C46.3847 15.8914 46.7952 16.4752 46.5959 17.0291L45.9521 18.8186C45.8431 19.1217 45.572 19.3372 45.252 19.375L11.8562 23.3196C11.6773 23.3407 11.4964 23.3045 11.3394 23.2161L1.30934 17.568C0.570473 17.1519 0.829535 16.0292 1.67601 15.9789L9.60408 15.5079C9.6839 15.5031 9.74597 15.4366 9.74518 15.3567L9.64311 5.08347C9.6425 5.02258 9.6023 4.96919 9.54396 4.95177L9.49297 4.93655C9.18399 4.84433 8.96629 4.5679 8.94906 4.24592C8.93266 3.9395 9.10133 3.65305 9.37724 3.51876L15.0323 0.766418ZM17.0787 4.65899L16.9968 4.64007L16.9151 4.66048L12.9151 5.66048L12.65 5.72676V6.00003V19.5V19.7523L12.8894 19.8321L14.3894 20.3321L14.4598 20.3556L14.5337 20.3484L30.0337 18.8484L30.35 18.8178V18.5V8.00003V7.7216L30.0787 7.65899L17.0787 4.65899ZM13.35 6.2733L17.0033 5.35998L29.65 8.27846V18.1823L14.5402 19.6445L13.35 19.2478V6.2733Z"/>
</svg>
