<svg width="40" height="39" viewBox="0 0 40 39" xmlns="http://www.w3.org/2000/svg">
<path d="M39.2143 21.3899C38.9259 21.1514 38.5762 20.9988 38.2052 20.9493C37.8342 20.8998 37.4568 20.9555 37.1159 21.1101C35.0026 22.0771 32.7049 22.5749 30.3808 22.569C26.0817 22.5638 21.959 20.8591 18.9115 17.8267C15.8641 14.7942 14.1392 10.6799 14.1128 6.38089C14.1219 5.03354 14.2896 3.69196 14.6124 2.38382C14.6809 2.03516 14.6552 1.67453 14.538 1.3391C14.4207 1.00367 14.2162 0.705561 13.9454 0.47549C13.6746 0.245419 13.3474 0.0917042 12.9974 0.030183C12.6474 -0.0313383 12.2874 0.0015583 11.9544 0.125484C8.82133 1.53427 6.09782 3.71637 4.03971 6.46679C1.9816 9.21721 0.656438 12.4457 0.188721 15.8489C-0.278997 19.2521 0.12608 22.7184 1.3659 25.9221C2.60571 29.1257 4.63958 31.9616 7.27641 34.1634C9.91325 36.3652 13.0665 37.8605 16.44 38.5089C19.8134 39.1573 23.2964 38.9375 26.5615 37.8702C29.8267 36.8029 32.767 34.923 35.1062 32.4073C37.4453 29.8915 39.1066 26.8224 39.9338 23.4883C40.0346 23.1066 40.02 22.7036 39.892 22.3301C39.7639 21.9566 39.5281 21.6295 39.2143 21.3899ZM20.2283 34.76C16.8743 34.7364 13.6096 33.6766 10.8812 31.7257C8.15274 29.7749 6.09401 27.0284 4.98686 23.8623C3.87971 20.6962 3.77826 17.2653 4.69639 14.0393C5.61452 10.8133 7.50736 7.94993 10.1157 5.84128V6.38089C10.121 11.7539 12.2578 16.9053 16.0571 20.7046C19.8564 24.5039 25.0078 26.6407 30.3808 26.646C31.7916 26.6512 33.1987 26.5038 34.5778 26.2063C33.1986 28.8154 31.1332 30.9985 28.6045 32.52C26.0757 34.0415 23.1795 34.8436 20.2283 34.84V34.76Z"/>
</svg>
