<svg width="36" height="36" viewBox="0 0 36 36" fill="none" xmlns="http://www.w3.org/2000/svg">
<path fill-rule="evenodd" clip-rule="evenodd" d="M33 18C33 26.2843 26.2843 33 18 33C9.71573 33 3 26.2843 3 18C3 9.71573 9.71573 3 18 3C26.2843 3 33 9.71573 33 18ZM36 18C36 27.9411 27.9411 36 18 36C8.05887 36 0 27.9411 0 18C0 8.05887 8.05887 0 18 0C27.9411 0 36 8.05887 36 18ZM20 11C20 9.89543 19.1046 9 18 9C16.8954 9 16 9.89543 16 11V12C16 13.1046 16.8954 14 18 14C19.1046 14 20 13.1046 20 12V11ZM18 16C19.1046 16 20 16.8954 20 18V19C20 20.1046 19.1046 21 18 21C16.8954 21 16 20.1046 16 19V18C16 16.8954 16.8954 16 18 16ZM20 25C20 23.8954 19.1046 23 18 23C16.8954 23 16 23.8954 16 25V26C16 27.1046 16.8954 28 18 28C19.1046 28 20 27.1046 20 26V25Z"/>
</svg>
