<svg width="34" height="34" viewBox="0 0 34 34" fill="none" xmlns="http://www.w3.org/2000/svg">
<path fill-rule="evenodd" clip-rule="evenodd" d="M6.99997 0.599994C3.46535 0.599994 0.599975 3.46537 0.599975 6.99999L0.599974 27C0.599974 30.5346 3.46535 33.4 6.99997 33.4L27 33.4C30.5346 33.4 33.4 30.5346 33.4 27L33.4 6.99999C33.4 3.46537 30.5346 0.599994 27 0.599994L6.99997 0.599994ZM3.39997 6.99999C3.39997 5.01177 5.01175 3.39999 6.99997 3.39999L27 3.39999C28.9882 3.39999 30.6 5.01177 30.6 6.99999L30.6 27C30.6 28.9882 28.9882 30.6 27 30.6L6.99997 30.6C5.01175 30.6 3.39997 28.9882 3.39997 27L3.39997 6.99999ZM8.99994 15C8.44765 15 7.99994 15.4477 7.99994 16L7.99994 18C7.99994 18.5523 8.44765 19 8.99994 19L10.9999 19C11.5522 19 11.9999 18.5523 11.9999 18L11.9999 16C11.9999 15.4477 11.5522 15 10.9999 15L8.99994 15ZM14.9999 16C14.9999 15.4477 15.4477 15 15.9999 15L17.9999 15C18.5522 15 18.9999 15.4477 18.9999 16L18.9999 18C18.9999 18.5523 18.5522 19 17.9999 19L15.9999 19C15.4477 19 14.9999 18.5523 14.9999 18L14.9999 16ZM22.9999 15C22.4477 15 21.9999 15.4477 21.9999 16L21.9999 18C21.9999 18.5523 22.4477 19 22.9999 19L24.9999 19C25.5522 19 25.9999 18.5523 25.9999 18L25.9999 16C25.9999 15.4477 25.5522 15 24.9999 15L22.9999 15Z" />
</svg>
