<svg width="36" height="36" viewBox="0 0 36 36" fill="none" xmlns="http://www.w3.org/2000/svg">
<path fill-rule="evenodd" clip-rule="evenodd" d="M18 33C9.71573 33 3 26.2843 3 18C3 9.71573 9.71573 3 18 3C26.2843 3 33 9.71573 33 18C33 26.2843 26.2843 33 18 33ZM18 36C8.05887 36 -1.22135e-06 27.9411 -7.86805e-07 18C-3.52265e-07 8.05887 8.05887 -1.22135e-06 18 -7.86805e-07C27.9411 -3.52265e-07 36 8.05887 36 18C36 27.9411 27.9411 36 18 36ZM10 16C9.44772 16 9 16.4477 9 17L9 19C9 19.5523 9.44771 20 10 20L12 20C12.5523 20 13 19.5523 13 19L13 17C13 16.4477 12.5523 16 12 16L10 16ZM16 17C16 16.4477 16.4477 16 17 16L19 16C19.5523 16 20 16.4477 20 17L20 19C20 19.5523 19.5523 20 19 20L17 20C16.4477 20 16 19.5523 16 19L16 17ZM24 16C23.4477 16 23 16.4477 23 17L23 19C23 19.5523 23.4477 20 24 20L26 20C26.5523 20 27 19.5523 27 19L27 17C27 16.4477 26.5523 16 26 16L24 16Z"/>
</svg>
