<svg width="34" height="34" viewBox="0 0 34 34" fill="none" xmlns="http://www.w3.org/2000/svg">
<path fill-rule="evenodd" clip-rule="evenodd" d="M6.99997 0.399993C3.35489 0.399993 0.399975 3.35492 0.399975 6.99999L0.399974 27C0.399974 30.6451 3.3549 33.6 6.99997 33.6L27 33.6C30.6451 33.6 33.6 30.6451 33.6 27L33.6 6.99999C33.6 3.35491 30.6451 0.399994 27 0.399994L6.99997 0.399993ZM3.59997 6.99999C3.59997 5.12223 5.12221 3.59999 6.99997 3.59999L27 3.59999C28.8777 3.59999 30.4 5.12223 30.4 6.99999L30.4 27C30.4 28.8778 28.8777 30.4 27 30.4L6.99997 30.4C5.12221 30.4 3.59997 28.8778 3.59997 27L3.59997 6.99999ZM8.99994 15C8.44765 15 7.99994 15.4477 7.99994 16L7.99994 18C7.99994 18.5523 8.44765 19 8.99994 19L10.9999 19C11.5522 19 11.9999 18.5523 11.9999 18L11.9999 16C11.9999 15.4477 11.5522 15 10.9999 15L8.99994 15ZM14.9999 16C14.9999 15.4477 15.4477 15 15.9999 15L17.9999 15C18.5522 15 18.9999 15.4477 18.9999 16L18.9999 18C18.9999 18.5523 18.5522 19 17.9999 19L15.9999 19C15.4477 19 14.9999 18.5523 14.9999 18L14.9999 16ZM22.9999 15C22.4477 15 21.9999 15.4477 21.9999 16L21.9999 18C21.9999 18.5523 22.4477 19 22.9999 19L24.9999 19C25.5522 19 25.9999 18.5523 25.9999 18L25.9999 16C25.9999 15.4477 25.5522 15 24.9999 15L22.9999 15Z"/>
</svg>
