<svg width="36" height="36" viewBox="0 0 36 36" fill="none" xmlns="http://www.w3.org/2000/svg">
<path fill-rule="evenodd" clip-rule="evenodd" d="M32.2 18C32.2 25.8424 25.8424 32.2 18 32.2C10.1576 32.2 3.8 25.8424 3.8 18C3.8 10.1576 10.1576 3.8 18 3.8C25.8424 3.8 32.2 10.1576 32.2 18ZM36 18C36 27.9411 27.9411 36 18 36C8.05887 36 0 27.9411 0 18C0 8.05887 8.05887 0 18 0C27.9411 0 36 8.05887 36 18ZM19.8 12C19.8 11.0059 18.9941 10.2 18 10.2C17.0059 10.2 16.2 11.0059 16.2 12V13C16.2 13.9941 17.0059 14.8 18 14.8C18.9941 14.8 19.8 13.9941 19.8 13V12ZM18 16.2C18.9941 16.2 19.8 17.0059 19.8 18V19C19.8 19.9941 18.9941 20.8 18 20.8C17.0059 20.8 16.2 19.9941 16.2 19V18C16.2 17.0059 17.0059 16.2 18 16.2ZM19.8 24C19.8 23.0059 18.9941 22.2 18 22.2C17.0059 22.2 16.2 23.0059 16.2 24V25C16.2 25.9941 17.0059 26.8 18 26.8C18.9941 26.8 19.8 25.9941 19.8 25V24Z" />
</svg>
