<svg width="14" height="23" viewBox="0 0 14 23" fill="none" xmlns="http://www.w3.org/2000/svg">
<path fill-rule="evenodd" clip-rule="evenodd" d="M3.06067 0.93934C2.47489 0.353553 1.52514 0.353553 0.939355 0.93934C0.353568 1.52513 0.353568 2.47487 0.939354 3.06066L9.8214 11.9427L0.996566 19.8851C0.380801 20.4392 0.330883 21.3877 0.885072 22.0034C1.43926 22.6192 2.38769 22.6691 3.00346 22.1149L12.9947 13.1228C13.007 13.1119 13.0192 13.1007 13.0312 13.0893C13.1596 12.968 13.2619 12.829 13.3377 12.6795C13.5429 12.2759 13.5535 11.7988 13.3697 11.3875C13.3024 11.2368 13.2089 11.095 13.0893 10.9688C13.0771 10.9558 13.0647 10.9432 13.0521 10.9307L3.06067 0.93934Z" />
</svg>
