<svg width="34" height="33" viewBox="0 0 34 33" fill="none" xmlns="http://www.w3.org/2000/svg">
<path fill-rule="evenodd" clip-rule="evenodd" d="M6.10352e-05 5.05C6.10352e-05 2.28858 2.23864 0.0499992 5.00006 0.0499992H28.0715C30.8329 0.0499992 33.0715 2.28858 33.0715 5.05V27.05C33.0715 29.8114 30.8329 32.05 28.0715 32.05H5.00006C2.23864 32.05 6.10352e-05 29.8114 6.10352e-05 27.05V5.05ZM5.00006 2.05C3.34321 2.05 2.00006 3.39315 2.00006 5.05V27.05C2.00006 28.7069 3.34321 30.05 5.00006 30.05H28.0715C29.7283 30.05 31.0715 28.7069 31.0715 27.05V5.05C31.0715 3.39315 29.7283 2.05 28.0715 2.05H5.00006ZM10.8851 27.0034C10.3309 26.3877 10.3808 25.4392 10.9966 24.8851L19.8214 16.9427L10.9393 8.06066C10.3536 7.47487 10.3536 6.52513 10.9393 5.93934C11.5251 5.35355 12.4749 5.35355 13.0607 5.93934L23.0521 15.9307C23.0647 15.9432 23.0771 15.9559 23.0894 15.9688C23.2089 16.095 23.3024 16.2368 23.3697 16.3875C23.5547 16.801 23.5416 17.278 23.3377 17.6795C23.2618 17.829 23.1595 17.968 23.0312 18.0893C23.0192 18.1007 23.007 18.1119 22.9947 18.1228L13.0034 27.1149C12.3877 27.6691 11.4392 27.6192 10.8851 27.0034Z" />
</svg>
