<svg width="40" height="40" viewBox="0 0 40 40" fill="none" xmlns="http://www.w3.org/2000/svg">
<path d="M30 10H10C9.46957 10 8.96086 10.2107 8.58579 10.5858C8.21071 10.9609 8 11.4696 8 12C8 12.5304 8.21071 13.0391 8.58579 13.4142C8.96086 13.7893 9.46957 14 10 14H30C30.5304 14 31.0391 13.7893 31.4142 13.4142C31.7893 13.0391 32 12.5304 32 12C32 11.4696 31.7893 10.9609 31.4142 10.5858C31.0391 10.2107 30.5304 10 30 10ZM30 18H10C9.46957 18 8.96086 18.2107 8.58579 18.5858C8.21071 18.9609 8 19.4696 8 20C8 20.5304 8.21071 21.0391 8.58579 21.4142C8.96086 21.7893 9.46957 22 10 22H30C30.5304 22 31.0391 21.7893 31.4142 21.4142C31.7893 21.0391 32 20.5304 32 20C32 19.4696 31.7893 18.9609 31.4142 18.5858C31.0391 18.2107 30.5304 18 30 18ZM34 0H6C4.4087 0 2.88258 0.632141 1.75736 1.75736C0.632141 2.88258 0 4.4087 0 6V26C0 27.5913 0.632141 29.1174 1.75736 30.2426C2.88258 31.3679 4.4087 32 6 32H29.18L36.58 39.42C36.7669 39.6054 36.9885 39.752 37.2322 39.8516C37.4759 39.9511 37.7368 40.0015 38 40C38.2624 40.0068 38.5226 39.952 38.76 39.84C39.1252 39.69 39.4379 39.4352 39.6586 39.1077C39.8792 38.7803 39.998 38.3949 40 38V6C40 4.4087 39.3679 2.88258 38.2426 1.75736C37.1174 0.632141 35.5913 0 34 0ZM36 33.18L31.42 28.58C31.2331 28.3946 31.0115 28.248 30.7678 28.1485C30.5241 28.0489 30.2632 27.9985 30 28H6C5.46957 28 4.96086 27.7893 4.58579 27.4142C4.21071 27.0391 4 26.5304 4 26V6C4 5.46957 4.21071 4.96086 4.58579 4.58579C4.96086 4.21072 5.46957 4 6 4H34C34.5304 4 35.0391 4.21072 35.4142 4.58579C35.7893 4.96086 36 5.46957 36 6V33.18Z"    />
</svg>
