<svg width="33" height="33" viewBox="0 0 33 33" fill="none" xmlns="http://www.w3.org/2000/svg">
<path fill-rule="evenodd" clip-rule="evenodd" d="M0.5 5C0.5 2.51472 2.51472 0.5 5 0.5H28C30.4853 0.5 32.5 2.51472 32.5 5V27.535C32.5 31.0859 28.5798 33.2378 25.5841 31.3315L19.9317 27.7345C19.691 27.5814 19.4117 27.5 19.1264 27.5H5C2.51472 27.5 0.5 25.4853 0.5 23V5ZM5 3.5C4.17157 3.5 3.5 4.17157 3.5 5V23C3.5 23.8284 4.17157 24.5 5 24.5H19.1264C19.9822 24.5 20.8203 24.7441 21.5423 25.2035L27.1947 28.8005C28.1933 29.4359 29.5 28.7186 29.5 27.535V5C29.5 4.17157 28.8284 3.5 28 3.5H5ZM8.2 10.925C8.2 10.207 8.78203 9.62501 9.5 9.62501H24.45C25.168 9.62501 25.75 10.207 25.75 10.925C25.75 11.643 25.168 12.225 24.45 12.225H9.5C8.78203 12.225 8.2 11.643 8.2 10.925ZM9.5 16.675C8.78203 16.675 8.2 17.257 8.2 17.975C8.2 18.693 8.78203 19.275 9.5 19.275H24.45C25.168 19.275 25.75 18.693 25.75 17.975C25.75 17.257 25.168 16.675 24.45 16.675H9.5Z" />
</svg>
