<svg width="38" height="27" viewBox="0 0 38 27" fill="none" xmlns="http://www.w3.org/2000/svg">
<path fill-rule="evenodd" clip-rule="evenodd" d="M2.7606 0.95C1.75908 0.95 0.950155 1.76748 0.960697 2.76895L1.20006 25.5084C1.20233 25.7246 1.29012 25.9198 1.43094 26.0623C1.45606 26.1387 1.49196 26.2165 1.54174 26.2941C1.77164 26.6523 2.13034 26.744 2.33303 26.7741C2.50973 26.8003 2.72163 26.8001 2.89876 26.8H2.89879L2.93503 26.8H31.826L31.8453 26.8H31.8454C31.9293 26.8001 32.0484 26.8002 32.1559 26.7881C32.2922 26.7727 32.484 26.7317 32.6728 26.5983C32.8616 26.4649 32.9643 26.2977 33.0243 26.1744C33.0716 26.077 33.1113 25.9648 33.1392 25.8856L33.1392 25.8856L33.1457 25.8674L36.9707 15.0674L36.9821 15.0353C37.0362 14.8828 37.1027 14.6955 37.1355 14.529C37.1741 14.3329 37.2035 13.9902 36.9738 13.6652C36.7441 13.3401 36.4112 13.2534 36.2135 13.2244C36.0456 13.1997 35.8468 13.1999 35.685 13.2L35.651 13.2H30.6617V8.88703C30.6617 7.89292 29.8558 7.08703 28.8617 7.08703H15.9031C15.8376 7.08703 15.7762 7.05492 15.7388 7.00107L12.0761 1.72369C11.7398 1.23906 11.1873 0.95 10.5974 0.95H2.7606ZM29.0617 13.2V8.88703C29.0617 8.77658 28.9722 8.68704 28.8617 8.68704H15.9031C15.3132 8.68704 14.7607 8.39798 14.4244 7.91334L10.7617 2.63597C10.7243 2.58212 10.6629 2.55 10.5974 2.55H2.7606C2.64932 2.55 2.55944 2.64083 2.56061 2.7521L2.76749 22.4055L6.61234 14.0167L6.61971 14.0006C6.65153 13.931 6.69721 13.8311 6.74846 13.7447C6.81352 13.635 6.91946 13.4891 7.09845 13.3742C7.27744 13.2594 7.45424 13.2238 7.58105 13.2104C7.68091 13.1998 7.79077 13.1999 7.8673 13.2H7.86733L7.88503 13.2H29.0617ZM29.8617 14.8H35.368L31.6847 25.2H3.24671L8.01337 14.8H29.8617Z" />
</svg>
