<svg width="37" height="27" viewBox="0 0 37 27" fill="none" xmlns="http://www.w3.org/2000/svg">
<path fill-rule="evenodd" clip-rule="evenodd" d="M2.26038 0.35C1.20322 0.35 0.349356 1.2129 0.360484 2.27L0.599847 25.0095C0.602316 25.2441 0.694364 25.4568 0.843155 25.6155C0.870222 25.6922 0.907411 25.7702 0.95736 25.8481C1.21046 26.2425 1.60466 26.3414 1.81814 26.373C2.00259 26.4004 2.22182 26.4002 2.39693 26.4H2.39695L2.43482 26.4H31.3258L31.3456 26.4C31.4286 26.4001 31.5533 26.4003 31.6669 26.3875C31.8126 26.371 32.0228 26.3267 32.2303 26.18C32.4379 26.0333 32.5499 25.85 32.614 25.7181C32.664 25.6154 32.7055 25.4978 32.7331 25.4195L32.7331 25.4195L32.7397 25.4008L36.5647 14.6008L36.5766 14.5674C36.6301 14.4167 36.6991 14.2224 36.7334 14.0484C36.7742 13.8411 36.8081 13.4652 36.5553 13.1074C36.3024 12.7497 35.9368 12.6562 35.7278 12.6254C35.5523 12.5996 35.3461 12.5998 35.1862 12.6L35.1508 12.6H30.2615V8.38704C30.2615 7.33769 29.4108 6.48703 28.3615 6.48703H15.4029C15.3701 6.48703 15.3394 6.47098 15.3208 6.44405L11.658 1.16667C11.303 0.655118 10.7198 0.35 10.0971 0.35H2.26038ZM28.4615 12.6V8.38704C28.4615 8.33181 28.4167 8.28703 28.3615 8.28703H15.4029C14.7802 8.28703 14.1971 7.98192 13.842 7.47036L10.1793 2.19298C10.1606 2.16606 10.1299 2.15 10.0971 2.15H2.26038C2.20474 2.15 2.1598 2.19542 2.16038 2.25105L2.36256 21.4576L6.02122 13.475L6.02876 13.4585C6.06021 13.3897 6.10809 13.2849 6.16223 13.1937C6.23183 13.0763 6.34749 12.9163 6.54423 12.7901C6.74096 12.6638 6.93462 12.6253 7.07028 12.611C7.17581 12.5998 7.29101 12.5999 7.36669 12.6H7.3667L7.38482 12.6H28.4615ZM29.3615 14.4H34.7263L31.1138 24.6H2.90233L7.57733 14.4H29.3615Z" />
</svg>
