<svg width="43" height="43" viewBox="0 0 43 43" xmlns="http://www.w3.org/2000/svg">
<path d="M25.083 22.3957H23.2913V20.604C23.2913 20.1289 23.1026 19.6731 22.7666 19.3371C22.4306 19.0011 21.9749 18.8124 21.4997 18.8124C21.0245 18.8124 20.5688 19.0011 20.2328 19.3371C19.8968 19.6731 19.708 20.1289 19.708 20.604V22.3957H17.9163C17.4412 22.3957 16.9854 22.5845 16.6494 22.9205C16.3134 23.2565 16.1247 23.7122 16.1247 24.1874C16.1247 24.6626 16.3134 25.1183 16.6494 25.4543C16.9854 25.7903 17.4412 25.979 17.9163 25.979H19.708V27.7707C19.708 28.2459 19.8968 28.7016 20.2328 29.0376C20.5688 29.3736 21.0245 29.5624 21.4997 29.5624C21.9749 29.5624 22.4306 29.3736 22.7666 29.0376C23.1026 28.7016 23.2913 28.2459 23.2913 27.7707V25.979H25.083C25.5582 25.979 26.0139 25.7903 26.3499 25.4543C26.6859 25.1183 26.8747 24.6626 26.8747 24.1874C26.8747 23.7122 26.6859 23.2565 26.3499 22.9205C26.0139 22.5845 25.5582 22.3957 25.083 22.3957ZM34.0413 9.85404H22.7897L22.2163 8.06238C21.8447 7.01108 21.1552 6.1014 20.2435 5.45937C19.3319 4.81734 18.2431 4.47475 17.128 4.47904H8.95801C7.53247 4.47904 6.16532 5.04534 5.15731 6.05335C4.1493 7.06135 3.58301 8.42851 3.58301 9.85404V33.1457C3.58301 34.5712 4.1493 35.9384 5.15731 36.9464C6.16532 37.9544 7.53247 38.5207 8.95801 38.5207H34.0413C35.4669 38.5207 36.834 37.9544 37.842 36.9464C38.8501 35.9384 39.4163 34.5712 39.4163 33.1457V15.229C39.4163 13.8035 38.8501 12.4364 37.842 11.4283C36.834 10.4203 35.4669 9.85404 34.0413 9.85404ZM35.833 33.1457C35.833 33.6209 35.6442 34.0766 35.3082 34.4126C34.9722 34.7486 34.5165 34.9374 34.0413 34.9374H8.95801C8.48283 34.9374 8.02711 34.7486 7.69111 34.4126C7.35511 34.0766 7.16634 33.6209 7.16634 33.1457V9.85404C7.16634 9.37886 7.35511 8.92315 7.69111 8.58714C8.02711 8.25114 8.48283 8.06238 8.95801 8.06238H17.128C17.5036 8.06141 17.87 8.17851 18.1755 8.39714C18.4809 8.61576 18.7099 8.92485 18.8301 9.28071L19.7976 12.219C19.9178 12.5749 20.1468 12.884 20.4522 13.1026C20.7576 13.3212 21.1241 13.4383 21.4997 13.4374H34.0413C34.5165 13.4374 34.9722 13.6261 35.3082 13.9621C35.6442 14.2981 35.833 14.7539 35.833 15.229V33.1457Z"   />
</svg>
