<svg width="33" height="29" viewBox="0 0 33 29" fill="none" xmlns="http://www.w3.org/2000/svg">
<path fill-rule="evenodd" clip-rule="evenodd" d="M0.75 4.5C0.75 2.42893 2.42893 0.75 4.5 0.75H10.8241C12.0531 0.75 13.2041 1.35221 13.9049 2.36186L16.9709 6.77958C17.0177 6.84689 17.0944 6.88703 17.1763 6.88703H28.6117C30.6828 6.88703 32.3617 8.56597 32.3617 10.637V25.2042C32.3617 27.2753 30.6828 28.9542 28.6117 28.9542H4.5C2.42893 28.9542 0.75 27.2753 0.75 25.2042V4.5ZM4.5 4.25C4.36193 4.25 4.25 4.36193 4.25 4.5V25.2042C4.25 25.3423 4.36193 25.4542 4.5 25.4542H28.6117C28.7497 25.4542 28.8617 25.3423 28.8617 25.2042V10.637C28.8617 10.499 28.7498 10.387 28.6117 10.387H17.1763C15.9473 10.387 14.7963 9.78483 14.0956 8.77518L11.0295 4.35746C10.9828 4.29015 10.9061 4.25 10.8241 4.25H4.5Z" />
</svg>
