<svg width="38" height="28" viewBox="0 0 38 28" fill="none" xmlns="http://www.w3.org/2000/svg">
<path d="M11.4189 2.17983L10.1866 3.03509L10.1866 3.03509L11.4189 2.17983ZM15.0816 7.45721L13.8493 8.31246L13.8493 8.31246L15.0816 7.45721ZM0.25 25C0.25 25.8284 0.921573 26.5 1.75 26.5C2.57843 26.5 3.25 25.8284 3.25 25H0.25ZM2.38958 25.15L3.75318 25.775L3.75318 25.775L2.38958 25.15ZM7.33958 14.35L8.70318 14.975L8.70318 14.975L7.33958 14.35ZM36.2166 14.8003L34.8026 14.2995L34.8026 14.2995L36.2166 14.8003ZM32.3916 25.6003L30.9776 25.0995L30.9776 25.0995L32.3916 25.6003ZM32.2111 25.945L31.3455 24.72L31.3454 24.72L32.2111 25.945ZM36.3205 14.1269L35.0955 14.9926L35.0955 14.9926L36.3205 14.1269ZM2.21502 25.862L0.952588 26.6721L0.952591 26.6721L2.21502 25.862ZM2.75 3.25H10.5974V0.25H2.75V3.25ZM10.1866 3.03509L13.8493 8.31246L16.3139 6.60195L12.6512 1.32457L10.1866 3.03509ZM15.9031 9.38703H28.8617V6.38703H15.9031V9.38703ZM3.25 25V2.75H0.25V25H3.25ZM28.3617 8.88703V12H31.3617V8.88703H28.3617ZM28.8617 9.38703C28.5855 9.38703 28.3617 9.16318 28.3617 8.88703H31.3617C31.3617 7.50632 30.2424 6.38703 28.8617 6.38703V9.38703ZM13.8493 8.31246C14.3165 8.98556 15.0838 9.38703 15.9031 9.38703V6.38703C16.067 6.38703 16.2204 6.46733 16.3139 6.60195L13.8493 8.31246ZM10.5974 3.25C10.4335 3.25 10.28 3.16971 10.1866 3.03509L12.6512 1.32457C12.184 0.651471 11.4167 0.25 10.5974 0.25V3.25ZM2.75 0.25C1.36929 0.25 0.25 1.36929 0.25 2.75H3.25C3.25 3.02614 3.02614 3.25 2.75 3.25V0.25ZM3.75318 25.775L8.70318 14.975L5.97598 13.725L1.02598 24.525L3.75318 25.775ZM7.88502 15.5H35.651V12.5H7.88502V15.5ZM34.8026 14.2995L30.9776 25.0995L33.8055 26.1011L37.6305 15.3011L34.8026 14.2995ZM31.826 24.5H2.93502V27.5H31.826V24.5ZM30.9776 25.0995C30.9589 25.1523 30.9498 25.1778 30.9427 25.1966C30.9356 25.2153 30.9408 25.1995 30.956 25.1683C30.9913 25.0956 31.1033 24.8911 31.3455 24.72L33.0768 27.17C33.3968 26.9439 33.5648 26.6636 33.6538 26.4806C33.7261 26.3318 33.7827 26.1655 33.8055 26.1011L30.9776 25.0995ZM31.826 27.5C31.8944 27.5 32.07 27.5022 32.2343 27.4837C32.4366 27.4609 32.7569 27.3961 33.0768 27.17L31.3454 24.72C31.5876 24.5489 31.8177 24.5116 31.898 24.5026C31.9325 24.4987 31.9492 24.4991 31.9291 24.4995C31.9091 24.4999 31.8819 24.5 31.826 24.5V27.5ZM35.651 15.5C35.7536 15.5 35.8162 15.5001 35.8658 15.5014C35.9174 15.5028 35.9119 15.5048 35.8789 15.4999C35.8476 15.4953 35.7282 15.4761 35.5776 15.4031C35.4067 15.3201 35.2317 15.1852 35.0955 14.9926L37.5455 13.2612C37.154 12.7072 36.5917 12.5725 36.3153 12.5318C36.0725 12.4961 35.7955 12.5 35.651 12.5V15.5ZM37.6305 15.3011C37.6787 15.1649 37.7749 14.905 37.8223 14.6643C37.8762 14.3902 37.937 13.8152 37.5455 13.2612L35.0955 14.9926C34.9593 14.7999 34.8906 14.5898 34.8695 14.401C34.8509 14.2347 34.8727 14.1158 34.8788 14.0848C34.8852 14.052 34.8889 14.0475 34.873 14.0965C34.8577 14.1437 34.8369 14.2028 34.8026 14.2995L37.6305 15.3011ZM8.70318 14.975C8.72451 14.9284 8.73466 14.9065 8.74237 14.8905C8.75002 14.8747 8.74343 14.8897 8.72657 14.9181C8.68719 14.9845 8.56976 15.1629 8.34059 15.3099L6.72039 12.7851C6.41717 12.9797 6.24325 13.2243 6.1464 13.3875C6.06778 13.5201 6.00173 13.6689 5.97598 13.725L8.70318 14.975ZM7.88502 12.5C7.82323 12.5 7.66046 12.4981 7.50721 12.5143C7.31845 12.5343 7.0236 12.5905 6.72039 12.7851L8.34059 15.3099C8.11142 15.457 7.90034 15.4894 7.82359 15.4976C7.79072 15.5011 7.77432 15.5008 7.79189 15.5004C7.8096 15.5001 7.83382 15.5 7.88502 15.5V12.5ZM1.02598 24.525C0.959058 24.671 0.833964 24.9345 0.762801 25.1796C0.684371 25.4497 0.560269 26.0607 0.952588 26.6721L3.47746 25.0519C3.61417 25.265 3.6725 25.4942 3.67939 25.6949C3.68539 25.8695 3.65144 25.9898 3.64385 26.016C3.6354 26.0451 3.63287 26.0451 3.65573 25.9915C3.67771 25.9399 3.70681 25.8762 3.75318 25.775L1.02598 24.525ZM2.93502 24.5C2.82373 24.5 2.75364 24.4999 2.69762 24.4984C2.63934 24.4968 2.64044 24.4945 2.67039 24.499C2.69734 24.503 2.82089 24.5223 2.97712 24.6005C3.1567 24.6904 3.34074 24.8389 3.47745 25.0519L0.952591 26.6721C1.34491 27.2835 1.95207 27.4253 2.23033 27.4665C2.48282 27.504 2.77439 27.5 2.93502 27.5V24.5Z" />
</svg>
