<svg width="284" height="284" viewBox="0 0 284 284" fill="none" xmlns="http://www.w3.org/2000/svg">
<circle cx="142" cy="142" r="142" fill="#6D8752"/>
<path d="M87 188.835V102C87 96.4772 91.4772 92 97 92H120.796C124.073 92 127.142 93.6059 129.011 96.2983L140.785 113.262C142.653 115.955 145.723 117.56 149 117.56H194.084C199.607 117.56 204.084 122.038 204.084 127.56V134.691" stroke="currentColor" stroke-width="10" stroke-linecap="round"/>
<path d="M105.601 154.688L101.027 164.667C95.1805 177.423 92.2572 183.801 95.2086 188.401C98.1599 193 105.176 193 119.208 193H199.897C206.726 193 210.141 193 212.735 191.167C215.33 189.333 216.469 186.114 218.749 179.677L222.284 169.698C226.586 157.551 228.737 151.478 225.748 147.249C222.76 143.021 216.317 143.021 203.431 143.021H123.782C117.549 143.021 114.433 143.021 111.965 144.604C109.497 146.188 108.198 149.021 105.601 154.688Z" stroke="currentColor" stroke-width="10"/>
</svg>
