<svg width="30" height="26" viewBox="0 0 30 26" fill="none" xmlns="http://www.w3.org/2000/svg">
<path d="M0.724001 23.5199L0.520091 3.01989C0.509028 1.9076 1.40765 1 2.51999 1H9C9.62951 1 10.2223 1.29639 10.6 1.8L13.9 6.2C14.2777 6.70361 14.8705 7 15.5 7H27C28.1046 7 29 7.89543 29 9V23.5C29 24.6046 28.1046 25.5 27 25.5H2.7239C1.62709 25.5 0.73491 24.6166 0.724001 23.5199Z" fill="#459A47"/>
<path fill-rule="evenodd" clip-rule="evenodd" d="M0.25 2.75C0.25 1.36929 1.36929 0.25 2.75 0.25H9.07415C9.89348 0.25 10.6608 0.651473 11.128 1.32457L14.194 5.74229C14.4743 6.14615 14.9347 6.38703 15.4263 6.38703H26.8617C28.2424 6.38703 29.3617 7.50632 29.3617 8.88703V23.4542C29.3617 24.8349 28.2424 25.9542 26.8617 25.9542H2.75C1.36929 25.9542 0.25 24.8349 0.25 23.4542V2.75ZM2.75 1.25C1.92157 1.25 1.25 1.92157 1.25 2.75V23.4542C1.25 24.2826 1.92157 24.9542 2.75 24.9542H26.8617C27.6901 24.9542 28.3617 24.2826 28.3617 23.4542V8.88703C28.3617 8.05861 27.6901 7.38703 26.8617 7.38703H15.4263C14.607 7.38703 13.8397 6.98556 13.3725 6.31246L10.3064 1.89474C10.0261 1.49088 9.56574 1.25 9.07415 1.25H2.75Z" />
</svg>
