<svg width="32" height="29" viewBox="0 0 32 29" fill="none" xmlns="http://www.w3.org/2000/svg">
<path d="M2 24V4.5C2 3.39543 2.89543 2.5 4 2.5L10.4721 2.49999C11.1173 2.49999 11.7228 2.8112 12.0983 3.33577L15.1971 7.66423C15.5727 8.1888 16.1782 8.50001 16.8233 8.50001L27 8.50001C28.1046 8.50001 29 9.39544 29 10.5V24C29 25.1046 28.1046 26 27 26H4C2.89543 26 2 25.1046 2 24Z" fill="#459A47"/>
<path fill-rule="evenodd" clip-rule="evenodd" d="M0 3.75C0 1.67893 1.67893 0 3.75 0H10.0741C11.3031 0 12.4541 0.60221 13.1549 1.61186L16.2209 6.02958C16.2677 6.09689 16.3444 6.13703 16.4263 6.13703H27.8617C29.9328 6.13703 31.6117 7.81597 31.6117 9.88703V24.4542C31.6117 26.5253 29.9328 28.2042 27.8617 28.2042H3.75C1.67893 28.2042 0 26.5253 0 24.4542V3.75ZM3.75 3.5C3.61193 3.5 3.5 3.61193 3.5 3.75V24.4542C3.5 24.5923 3.61193 24.7042 3.75 24.7042H27.8617C27.9997 24.7042 28.1117 24.5923 28.1117 24.4542V9.88703C28.1117 9.74896 27.9998 9.63703 27.8617 9.63703H16.4263C15.1973 9.63703 14.0463 9.03483 13.3456 8.02518L10.2795 3.60746C10.2328 3.54015 10.1561 3.5 10.0741 3.5H3.75Z" />
</svg>
