<svg width="50" height="50" viewBox="0 0 50 50" fill="none" xmlns="http://www.w3.org/2000/svg">
<path d="M50 25C50 38.8071 38.8071 50 25 50C11.1929 50 0 38.8071 0 25C0 11.1929 11.1929 0 25 0C38.8071 0 50 11.1929 50 25Z" fill="#E5E5E5"/>
<path d="M50 25C50 38.8071 38.8071 50 25 50C11.1929 50 0 38.8071 0 25C0 11.1929 11.1929 0 25 0C38.8071 0 50 11.1929 50 25Z" fill="#E5E5E5"/>
<path d="M14.157 26.2306V33.923C14.157 34.7391 14.4909 35.5217 15.0847 36.0988C15.6789 36.6759 16.4846 37 17.3248 37H33.1634C34.0036 37 34.8093 36.6759 35.4034 36.0988C35.9973 35.5217 36.3312 34.7391 36.3312 33.923V26.2306C36.3312 25.4147 35.9972 24.6322 35.4034 24.055C34.8093 23.4779 34.0036 23.1538 33.1634 23.1538H29.9956V26.2309H33.1634V33.9233H17.3248V26.2309H20.4926V23.1541H17.3248C16.4846 23.1541 15.6789 23.4782 15.0847 24.0553C14.4909 24.6324 14.157 25.415 14.157 26.2309V26.2306Z" fill="black"/>
<path d="M26.8279 29.6156V17.7294L29.9957 20.4986L32.2368 18.5393L26.3647 13.4061C26.0675 13.1461 25.6645 13 25.2441 13C24.8237 13 24.4207 13.1461 24.1236 13.4061L18.2515 18.5393L20.4926 20.4986L23.6603 17.7294V29.6156H26.8279Z" fill="black"/>
</svg>
