<svg width="36" height="26" viewBox="0 0 36 26" fill="none" xmlns="http://www.w3.org/2000/svg">
<path fill-rule="evenodd" clip-rule="evenodd" d="M1.76038 0.25C0.925779 0.25 0.251676 0.931234 0.260461 1.76579L0.499824 24.5053C0.501511 24.6655 0.578426 24.8074 0.696668 24.8977C0.713307 24.9746 0.743753 25.0537 0.794008 25.1321C0.954296 25.3818 1.20652 25.4521 1.37681 25.4773C1.53049 25.5001 1.72097 25.5001 1.90591 25.5L1.93482 25.5H30.8258L30.8422 25.5H30.8423C30.9299 25.5 31.0323 25.5001 31.122 25.49C31.2301 25.4778 31.3669 25.447 31.4995 25.3533C31.6321 25.2596 31.7068 25.1409 31.7543 25.0432C31.7938 24.962 31.8279 24.8654 31.8572 24.7828L31.8572 24.7828L31.8627 24.7672L35.6877 13.9672L35.6968 13.9413C35.7533 13.7821 35.8126 13.6148 35.8409 13.4711C35.8729 13.3084 35.889 13.0652 35.7286 12.8383C35.5682 12.6113 35.3336 12.5453 35.1696 12.5212C35.0247 12.4999 34.8472 12.4999 34.6782 12.5L34.6508 12.5H29.3615V7.88703C29.3615 7.05861 28.6899 6.38703 27.8615 6.38703H14.9029C14.739 6.38703 14.5856 6.30674 14.4921 6.17212L10.8294 0.894743C10.5491 0.490883 10.0887 0.25 9.59715 0.25H1.76038ZM28.3615 12.5V7.88703C28.3615 7.61089 28.1376 7.38703 27.8615 7.38703H14.9029C14.4113 7.38703 13.9509 7.14615 13.6706 6.74229L10.0079 1.46491C9.91448 1.33029 9.76101 1.25 9.59715 1.25H1.76038C1.48218 1.25 1.25748 1.47708 1.26041 1.75526L1.48139 22.7492L5.88484 13.1417L5.89115 13.1279L5.89116 13.1279C5.9244 13.0553 5.96362 12.9696 6.00625 12.8977C6.05769 12.811 6.1345 12.7074 6.26025 12.6267C6.386 12.546 6.51221 12.5194 6.61247 12.5087C6.69557 12.4999 6.78979 12.5 6.86967 12.5L6.88481 12.5H28.3615ZM34.6508 13.5C34.7034 13.5 34.7499 13.5 34.7919 13.5003C34.7781 13.5399 34.7626 13.5838 34.745 13.6334L30.92 24.4334L30.8964 24.4999L30.8258 24.5H1.93482C1.87703 24.5 1.82577 24.5 1.77948 24.4997C1.79848 24.4575 1.81983 24.4109 1.84391 24.3583L6.79391 13.5583L6.8207 13.5001L6.88481 13.5H28.8615H34.6508Z" />
</svg>
