<svg width="35" height="34" viewBox="0 0 35 34" fill="none" xmlns="http://www.w3.org/2000/svg">
<path fill-rule="evenodd" clip-rule="evenodd" d="M0.750031 7C0.750031 3.54822 3.54825 0.75 7.00003 0.75H28.0715C31.5232 0.75 34.3215 3.54822 34.3215 7V27C34.3215 30.4518 31.5232 33.25 28.0715 33.25H7.00003C3.54825 33.25 0.750031 30.4518 0.750031 27V7ZM7.00003 3.25C4.92896 3.25 3.25003 4.92893 3.25003 7V27C3.25003 29.0711 4.92896 30.75 7.00003 30.75H28.0715C30.1425 30.75 31.8215 29.0711 31.8215 27V7C31.8215 4.92893 30.1425 3.25 28.0715 3.25H7.00003ZM18 14.5C19.3807 14.5 20.5 13.3807 20.5 12C20.5 10.6193 19.3807 9.5 18 9.5C16.6193 9.5 15.5 10.6193 15.5 12C15.5 13.3807 16.6193 14.5 18 14.5ZM18 17C20.7614 17 23 14.7614 23 12C23 9.23858 20.7614 7 18 7C15.2386 7 13 9.23858 13 12C13 14.7614 15.2386 17 18 17ZM23.9724 25.0464C24.0281 25.1958 24.0795 25.3471 24.1265 25.5H18H11.8735C11.9205 25.3471 11.9719 25.1958 12.0276 25.0464C12.3742 24.1167 12.8764 23.2878 13.4943 22.6013C14.1117 21.9154 14.8302 21.387 15.6011 21.0322C16.371 20.6779 17.1852 20.5 18 20.5C18.8148 20.5 19.629 20.6779 20.3989 21.0322C21.1698 21.387 21.8883 21.9154 22.5057 22.6013C23.1236 23.2878 23.6258 24.1167 23.9724 25.0464ZM26.3149 24.1732C26.4761 24.6055 26.6094 25.0489 26.7142 25.5C26.9036 26.3148 27 27.1547 27 28H24.5H18H11.5H9C9 27.1547 9.09644 26.3148 9.28579 25.5C9.39061 25.0489 9.52391 24.6055 9.68508 24.1732C10.1374 22.9599 10.8003 21.8575 11.636 20.9289C12.4718 20.0003 13.4639 19.2638 14.5558 18.7612C15.6478 18.2587 16.8181 18 18 18C19.1819 18 20.3522 18.2587 21.4442 18.7612C22.5361 19.2638 23.5282 20.0003 24.364 20.9289C25.1997 21.8575 25.8626 22.9599 26.3149 24.1732Z"/>
</svg>
