<svg width="34" height="40" viewBox="0 0 34 40" fill="none" xmlns="http://www.w3.org/2000/svg">
<path d="M28.4485 4.881C25.3233 1.75575 21.0845 -3.29299e-08 16.6648 0C12.245 3.29299e-08 8.00625 1.75575 4.881 4.881C1.75575 8.00625 3.29299e-08 12.245 0 16.6648C-3.29299e-08 21.0845 1.75575 25.3233 4.881 28.4485L15.2311 38.8183C15.4137 39.0023 15.6309 39.1485 15.8702 39.2482C16.1095 39.3479 16.3662 39.3992 16.6255 39.3992C16.8848 39.3992 17.1415 39.3479 17.3808 39.2482C17.6201 39.1485 17.8373 39.0023 18.0199 38.8183L28.4485 28.3503C31.5607 25.2381 33.3091 21.017 33.3091 16.6157C33.3091 12.2143 31.5607 7.99325 28.4485 4.881ZM25.6401 25.5419L16.6648 34.5565L7.68946 25.5419C5.91629 23.7671 4.70911 21.5064 4.22051 19.0457C3.73191 16.5849 3.98384 14.0345 4.94444 11.7169C5.90505 9.39932 7.5312 7.41854 9.61735 6.02496C11.7035 4.63139 14.156 3.88759 16.6648 3.88759C19.1736 3.88759 21.626 4.63139 23.7122 6.02496C25.7983 7.41854 27.4245 9.39932 28.3851 11.7169C29.3457 14.0345 29.5976 16.5849 29.109 19.0457C28.6204 21.5064 27.4133 23.7671 25.6401 25.5419ZM10.7729 10.6354C9.18741 12.2258 8.2971 14.3798 8.2971 16.6255C8.2971 18.8712 9.18741 21.0252 10.7729 22.6156C11.9508 23.7955 13.4509 24.6013 15.0851 24.9319C16.7192 25.2625 18.4146 25.1031 19.9585 24.4738C21.5024 23.8445 22.8261 22.7732 23.7635 21.3945C24.7009 20.0157 25.2102 18.3908 25.2276 16.7237C25.2365 15.6105 25.0221 14.5069 24.597 13.478C24.172 12.4492 23.545 11.516 22.7531 10.7336C21.9747 9.93738 21.0465 9.30293 20.022 8.86679C18.9975 8.43065 17.8968 8.20142 16.7834 8.1923C15.6699 8.18317 14.5657 8.39433 13.5342 8.81361C12.5026 9.2329 11.5642 9.85204 10.7729 10.6354ZM19.9839 19.8268C19.2396 20.5824 18.256 21.056 17.2012 21.1667C16.1464 21.2773 15.0859 21.0182 14.201 20.4335C13.3161 19.8488 12.6618 18.9749 12.35 17.9612C12.0381 16.9474 12.0881 15.8569 12.4913 14.8759C12.8945 13.8949 13.6259 13.0845 14.5606 12.5831C15.4952 12.0818 16.5749 11.9206 17.6152 12.1273C18.6555 12.3339 19.5917 12.8955 20.2638 13.7159C20.9358 14.5364 21.302 15.5649 21.2997 16.6255C21.2712 17.8378 20.7626 18.9892 19.8857 19.8268H19.9839Z" />
</svg>
