<svg xmlns="http://www.w3.org/2000/svg" xmlns:xlink="http://www.w3.org/1999/xlink" version="1.1" width="1000" height="1000" viewBox="0 0 1000 1000" xml:space="preserve">
<desc>Created with Fabric.js 3.5.0</desc>
<defs>
</defs>
<g transform="matrix(1.2987 0 0 1.2987 499.9993 409.0915)" id="605056">
<path style="stroke: none; stroke-width: 1; stroke-dasharray: none; stroke-linecap: butt; stroke-dashoffset: 0; stroke-linejoin: miter; stroke-miterlimit: 4; is-custom-font: none; font-file-url: none; fill: rgb(0,0,0); fill-rule: nonzero; opacity: 1;" transform=" translate(-349.9996, -280.0007)" d="m 337.68 524.16 c 2.2383 4.4805 7.2812 7.8398 12.32 7.8398 s 10.078 -2.8008 12.32 -7.8398 l 131.6 -263.2 c 10.641 -21.281 16.238 -44.238 16.801 -68.879 c 0 -1.1211 0.55859 -2.2383 0.55859 -3.3594 c 0 -88.484 -72.242 -160.72 -161.28 -160.72 s -161.28 72.238 -161.28 161.28 c 0 1.1211 0 2.2383 0.55859 3.3594 c 0.55859 24.078 6.1602 47.602 16.801 68.879 z m 12.32 -468.16 c 72.238 0 131.6 58.238 133.28 129.92 c 0 1.1211 -0.55859 2.2383 -0.55859 3.3594 c 0 21.281 -4.4805 41.441 -13.441 59.359 l -119.28 238 l -119.28 -238 c -8.9609 -18.48 -14 -38.078 -13.441 -59.359 c 0 -1.1211 0 -2.2383 -0.55859 -3.3594 c 1.6797 -71.684 61.043 -129.92 133.28 -129.92 z" stroke-linecap="round"/>
</g>
<g transform="matrix(1.2987 0 0 1.2987 499.9999 291.2739)" id="361774">
<path style="stroke: none; stroke-width: 1; stroke-dasharray: none; stroke-linecap: butt; stroke-dashoffset: 0; stroke-linejoin: miter; stroke-miterlimit: 4; is-custom-font: none; font-file-url: none; fill: rgb(0,0,0); fill-rule: nonzero; opacity: 1;" transform=" translate(-350, -189.281)" d="m 350 276.64 c 48.16 0 87.359 -39.199 87.359 -87.359 s -39.199 -87.359 -87.359 -87.359 s -87.359 39.199 -87.359 87.359 s 39.199 87.359 87.359 87.359 z m 0 -147.28 c 33.039 0 59.359 26.879 59.359 59.359 c 0 33.039 -26.879 59.359 -59.359 59.359 s -59.359 -26.879 -59.359 -59.359 s 26.32 -59.359 59.359 -59.359 z" stroke-linecap="round"/>
</g>
</svg>