<svg width="31" height="33" viewBox="0 0 31 33" xmlns="http://www.w3.org/2000/svg">
<path fill-rule="evenodd" clip-rule="evenodd" fill="currentColor" d="M19.2416 0.562213L30.2292 6.55546C30.2567 6.56964 30.2826 6.58626 30.3067 6.605C30.343 6.63314 30.3746 6.66566 30.4012 6.70139C30.4069 6.70908 30.4124 6.71692 30.4176 6.72489C30.4321 6.74686 30.4449 6.77019 30.456 6.79477C30.4644 6.81357 30.4717 6.83287 30.4777 6.85253C30.4783 6.85418 30.4788 6.85582 30.4792 6.85748C30.483 6.8701 30.4863 6.88288 30.489 6.89577C30.4996 6.94522 30.5027 6.99638 30.4979 7.04744C30.4972 7.05387 30.4965 7.06031 30.4956 7.06674L28.498 25.0457C28.4962 25.0652 28.4932 25.0846 28.4891 25.1037C28.4586 25.2485 28.3667 25.3675 28.2444 25.4362C28.2274 25.4458 28.2097 25.4544 28.1916 25.4619L12.212 32.453C12.1942 32.4613 12.1758 32.4686 12.1569 32.4748C12.1436 32.4793 12.1302 32.4831 12.1166 32.4863C12.1117 32.4875 12.1068 32.4886 12.1019 32.4896C12.0546 32.4995 12.0068 32.5023 11.96 32.4985C11.8995 32.4937 11.8418 32.4781 11.7889 32.4534C11.7527 32.4365 11.7182 32.4152 11.6863 32.3895C11.6569 32.3658 11.6299 32.3386 11.6061 32.3081L2.61787 21.3226C2.58631 21.2852 2.56002 21.2431 2.54032 21.1971C2.5206 21.1511 2.50818 21.103 2.5029 21.0544L0.5045 5.06724C0.497479 5.01593 0.49859 4.9651 0.506928 4.91616C0.509029 4.90383 0.51159 4.89161 0.514595 4.87954C0.529697 4.8185 0.55656 4.75952 0.595493 4.70606C0.636872 4.64907 0.690322 4.60064 0.75313 4.56502C0.796976 4.54011 0.845193 4.52156 0.896691 4.51074L18.8891 0.512427C18.9084 0.508043 18.9279 0.504789 18.9476 0.502696C18.989 0.498274 19.03 0.499124 19.0699 0.504767C19.1307 0.513362 19.1888 0.533077 19.2416 0.562213ZM1.65375 6.19898L3.47824 20.7949L11.3759 30.4476L10.0137 13.194L1.65375 6.19898ZM12.4431 31.2603L27.5349 24.6577L29.4188 7.70267L11.0314 13.3781L12.4431 31.2603ZM28.7205 6.87165L10.6734 12.4421L2.09929 5.26789L18.9253 1.52878L28.7205 6.87165Z"/>
</svg>
