<?xml version="1.0" encoding="utf-8"?>
<svg viewBox="210 44.801 279.998 470.4" xmlns="http://www.w3.org/2000/svg">
  <path d="M 349.82 44.801 C 272.496 44.801 210 107.375 210 184.801 C 210 202.582 215.184 225.164 221.199 240.801 L 349.999 515.201 L 478.799 240.801 C 484.846 225.156 489.998 202.59 489.998 184.801 C 489.998 107.375 427.15 44.801 349.818 44.801 L 349.82 44.801 Z M 349.996 117.602 C 387.113 117.602 417.195 147.637 417.195 184.801 C 417.195 221.965 387.113 252 349.996 252 C 312.879 252 282.797 221.965 282.797 184.801 C 282.797 147.637 312.879 117.602 349.996 117.602 L 349.996 117.602 Z"/>
</svg>