<svg width="54" height="48" viewBox="0 0 54 48" fill="none" xmlns="http://www.w3.org/2000/svg">
<circle cx="27.5" cy="32" r="3" />
<path d="M2.96898 30.234L3.6495 31.5707L3.6495 31.5707L2.96898 30.234ZM26.0927 18.4619L25.4121 17.1252L25.4121 17.1252L26.0927 18.4619ZM27.9074 18.4619L27.2269 19.7987L27.2269 19.7987L27.9074 18.4619ZM50.9674 30.2016L51.648 28.8648L51.648 28.8648L50.9674 30.2016ZM50.9545 33.7728L51.6253 35.1144L51.6253 35.1144L50.9545 33.7728ZM27.411 45.5445L28.0818 46.8862L28.0818 46.8862L27.411 45.5445ZM25.5959 45.5312L24.9054 46.8628L24.9054 46.8628L25.5959 45.5312ZM2.95571 33.7918L2.26523 35.1235L2.26523 35.1235L2.95571 33.7918ZM26 32C26 32.8284 26.6716 33.5 27.5 33.5C28.3285 33.5 29 32.8284 29 32H26ZM28.5607 0.93934C27.9749 0.353553 27.0252 0.353553 26.4394 0.93934L16.8934 10.4853C16.3076 11.0711 16.3076 12.0208 16.8934 12.6066C17.4792 13.1924 18.429 13.1924 19.0148 12.6066L27.5 4.12132L35.9853 12.6066C36.5711 13.1924 37.5209 13.1924 38.1066 12.6066C38.6924 12.0208 38.6924 11.0711 38.1066 10.4853L28.5607 0.93934ZM3.6495 31.5707L26.7732 19.7987L25.4121 17.1252L2.28845 28.8972L3.6495 31.5707ZM27.2269 19.7987L50.2869 31.5383L51.648 28.8648L28.5879 17.1252L27.2269 19.7987ZM50.2837 32.4311L26.7401 44.2029L28.0818 46.8862L51.6253 35.1144L50.2837 32.4311ZM26.2864 44.1996L3.64618 32.4602L2.26523 35.1235L24.9054 46.8628L26.2864 44.1996ZM26.7402 44.2029C26.5971 44.2744 26.4284 44.2732 26.2864 44.1996L24.9054 46.8628C25.8995 47.3783 27.0802 47.387 28.0818 46.8862L26.7402 44.2029ZM50.2869 31.5383C50.6526 31.7245 50.6507 32.2476 50.2837 32.4311L51.6253 35.1144C54.1946 33.8298 54.2078 30.168 51.648 28.8648L50.2869 31.5383ZM26.7732 19.7987C26.9157 19.7261 27.0844 19.7261 27.2269 19.7987L28.5879 17.1252C27.5903 16.6173 26.4098 16.6173 25.4121 17.1252L26.7732 19.7987ZM2.28845 28.8972C-0.250369 30.1897 -0.26388 33.8121 2.26523 35.1235L3.64618 32.4602C3.28488 32.2729 3.28681 31.7554 3.6495 31.5707L2.28845 28.8972ZM29 32V2H26V32H29Z" />
</svg>
