<svg width="34" height="33" viewBox="0 0 34 33" fill="none" xmlns="http://www.w3.org/2000/svg">
<path fill-rule="evenodd" clip-rule="evenodd" d="M6.10352e-05 5.05C6.10352e-05 2.28858 2.23864 0.0499992 5.00006 0.0499992H28.0715C30.8329 0.0499992 33.0715 2.28858 33.0715 5.05V27.05C33.0715 29.8114 30.8329 32.05 28.0715 32.05H5.00006C2.23864 32.05 6.10352e-05 29.8114 6.10352e-05 27.05V5.05ZM5.00006 2.05C3.34321 2.05 2.00006 3.39315 2.00006 5.05V27.05C2.00006 28.7069 3.34321 30.05 5.00006 30.05H28.0715C29.7283 30.05 31.0715 28.7069 31.0715 27.05V5.05C31.0715 3.39315 29.7283 2.05 28.0715 2.05H5.00006ZM20.0607 5.93934C20.6464 6.52513 20.6464 7.47487 20.0607 8.06066L12.1213 16L20.0607 23.9393C20.6464 24.5251 20.6464 25.4749 20.0607 26.0607C19.4749 26.6464 18.5251 26.6464 17.9393 26.0607L8.94078 17.0621C8.9403 17.0616 8.93982 17.0611 8.93934 17.0607C8.86612 16.9874 8.80205 16.9085 8.74713 16.8254C8.36271 16.2431 8.42678 15.4519 8.93934 14.9393L17.9393 5.93934C18.5251 5.35355 19.4749 5.35355 20.0607 5.93934Z" />
</svg>
