<svg width="24" height="24" viewBox="0 0 24 24" fill="none" xmlns="http://www.w3.org/2000/svg">
<path fill-rule="evenodd" clip-rule="evenodd" d="M10.8579 22.7235C10.2721 22.1377 10.2721 21.1879 10.8579 20.6022L18.1401 13.32L2.1572 13.32C1.32877 13.32 0.657197 12.6484 0.657197 11.82C0.657197 10.9916 1.32877 10.32 2.1572 10.32L18.6173 10.32L10.8579 2.56066C10.2721 1.97487 10.2721 1.02512 10.8579 0.439338C11.4437 -0.146449 12.3935 -0.146447 12.9792 0.439338L23.0565 10.5166L23.0607 10.5207C23.6464 11.1065 23.6464 12.0563 23.0607 12.6421L23.0606 12.6421L12.9793 22.7235C12.3935 23.3093 11.4437 23.3093 10.8579 22.7235Z"/>
</svg>
