<svg width="33" height="33" viewBox="0 0 33 33" fill="none" xmlns="http://www.w3.org/2000/svg">
<path fill-rule="evenodd" clip-rule="evenodd" d="M6.3 0C2.82061 0 0 2.82061 0 6.3V26.3C0 29.7794 2.82061 32.6 6.3 32.6H26.3C29.7794 32.6 32.6 29.7794 32.6 26.3V6.3C32.6 2.82061 29.7794 0 26.3 0H6.3ZM2.6 6.3C2.6 4.25655 4.25655 2.6 6.3 2.6H26.3C28.3435 2.6 30 4.25655 30 6.3V26.3C30 28.3435 28.3435 30 26.3 30H6.3C4.25655 30 2.6 28.3435 2.6 26.3V6.3ZM15.1352 19.5557V19.8469H18.1608V19.5557C18.1608 19.1343 18.22 18.7792 18.3384 18.4903C18.4567 18.1968 18.6319 17.9364 18.8639 17.7091C19.1007 17.4818 19.3966 17.264 19.7517 17.0557C20.2062 16.7858 20.6016 16.4875 20.9378 16.1608C21.2787 15.8294 21.5438 15.4482 21.7332 15.0173C21.9226 14.5865 22.0173 14.0893 22.0173 13.5259C22.0173 12.6688 21.7995 11.9444 21.3639 11.3526C20.9283 10.7607 20.3294 10.3133 19.567 10.0102C18.8095 9.7072 17.943 9.55568 16.9676 9.55568C16.0775 9.55568 15.2631 9.70956 14.5244 10.0173C13.7858 10.3204 13.1916 10.7891 12.7418 11.4236C12.2967 12.058 12.067 12.8724 12.0528 13.8668H15.3199C15.3246 13.5353 15.4027 13.2536 15.5543 13.0216C15.7105 12.7848 15.9094 12.6026 16.1509 12.4747C16.3971 12.3469 16.6598 12.283 16.9392 12.283C17.2186 12.283 17.4719 12.3421 17.6991 12.4605C17.9312 12.5741 18.1134 12.7375 18.246 12.9506C18.3786 13.1636 18.4449 13.4098 18.4449 13.6892C18.4449 13.978 18.3762 14.2361 18.2389 14.4634C18.1016 14.6906 17.9146 14.9037 17.6778 15.1026C17.4458 15.2967 17.1807 15.4884 16.8824 15.6778C16.5083 15.9193 16.1911 16.1868 15.9307 16.4804C15.6703 16.7692 15.4714 17.1527 15.3341 17.631C15.2015 18.1092 15.1352 18.7508 15.1352 19.5557ZM15.3909 23.9662C15.7555 24.326 16.1935 24.506 16.7048 24.506C17.0315 24.506 17.3322 24.4231 17.6068 24.2574C17.8862 24.0917 18.1111 23.8691 18.2815 23.5898C18.4567 23.3104 18.5467 23.0003 18.5514 22.6594C18.5467 22.1575 18.3597 21.729 17.9903 21.3739C17.621 21.014 17.1925 20.8341 16.7048 20.8341C16.1935 20.8341 15.7555 21.014 15.3909 21.3739C15.0311 21.729 14.8535 22.1575 14.8582 22.6594C14.8535 23.1707 15.0311 23.6063 15.3909 23.9662Z" />
</svg>
