<svg width="38" height="38" viewBox="0 0 38 38" fill="none" xmlns="http://www.w3.org/2000/svg">
<path fill-rule="evenodd" clip-rule="evenodd" d="M34.5 19C34.5 27.5604 27.5604 34.5 19 34.5C10.4396 34.5 3.5 27.5604 3.5 19C3.5 10.4396 10.4396 3.5 19 3.5C27.5604 3.5 34.5 10.4396 34.5 19ZM38 19C38 29.4934 29.4934 38 19 38C8.50659 38 0 29.4934 0 19C0 8.50659 8.50659 0 19 0C29.4934 0 38 8.50659 38 19ZM17.5682 21.4773V21.767H20.7983V21.4773C20.804 20.9205 20.875 20.4517 21.0114 20.071C21.1534 19.6903 21.3665 19.3551 21.6506 19.0653C21.9403 18.7756 22.3097 18.4972 22.7585 18.2301C23.2926 17.9119 23.7557 17.5568 24.1477 17.1648C24.5398 16.767 24.8438 16.3125 25.0597 15.8011C25.2812 15.2841 25.392 14.6932 25.392 14.0284C25.392 13.0341 25.1449 12.1847 24.6506 11.4801C24.1562 10.7756 23.4744 10.2386 22.6051 9.86932C21.7358 9.49432 20.7358 9.30682 19.6051 9.30682C18.5767 9.30682 17.6364 9.49148 16.7841 9.86079C15.9318 10.2244 15.2472 10.7784 14.7301 11.5227C14.2131 12.2614 13.9403 13.1989 13.9119 14.3352H17.3892C17.4062 13.8693 17.5199 13.4801 17.7301 13.1676C17.9403 12.8494 18.2102 12.6108 18.5398 12.4517C18.8693 12.2869 19.2188 12.2045 19.5881 12.2045C19.9688 12.2045 20.3153 12.2841 20.6278 12.4432C20.946 12.6023 21.1989 12.8295 21.3864 13.125C21.5739 13.4205 21.6676 13.7642 21.6676 14.1562C21.6676 14.5256 21.5852 14.8608 21.4205 15.1619C21.2557 15.4574 21.0341 15.7273 20.7557 15.9716C20.4773 16.2159 20.1619 16.4517 19.8097 16.679C19.3381 16.9744 18.9347 17.304 18.5994 17.6676C18.2642 18.0312 18.0085 18.5085 17.8324 19.0994C17.6619 19.6903 17.5739 20.483 17.5682 21.4773ZM17.7983 26.625C18.2017 27.0227 18.6875 27.2216 19.2557 27.2216C19.6193 27.2216 19.9545 27.1307 20.2614 26.9489C20.5682 26.7614 20.8153 26.5142 21.0028 26.2074C21.196 25.8949 21.2955 25.5511 21.3011 25.1761C21.2955 24.6193 21.0881 24.142 20.679 23.7443C20.2699 23.3466 19.7955 23.1477 19.2557 23.1477C18.6875 23.1477 18.2017 23.3466 17.7983 23.7443C17.4006 24.142 17.2045 24.6193 17.2102 25.1761C17.2045 25.7386 17.4006 26.2216 17.7983 26.625Z" />
</svg>
