<svg width="50" height="50" viewBox="0 0 50 50" fill="none" xmlns="http://www.w3.org/2000/svg">
<circle cx="25" cy="25" r="25" fill="#E5E5E5"/>
<path d="M22.8831 32.3418C22.8831 31.7896 23.3309 31.3418 23.8831 31.3418H26.6864C27.2387 31.3418 27.6864 31.7896 27.6864 32.3418V35C27.6864 35.5523 27.2387 36 26.6864 36H23.8831C23.3309 36 22.8831 35.5523 22.8831 35V32.3418ZM18.043 19.7367C17.4742 19.7367 17.0149 19.2615 17.0841 18.697C17.3924 16.1779 18.4336 14.3539 20.2075 13.225C21.4755 12.4083 23.0336 12 24.8818 12C27.3103 12 29.3251 12.5803 30.9261 13.7408C32.5379 14.9013 33.3439 16.6206 33.3439 18.8986C33.3439 20.2955 32.9946 21.4721 32.2962 22.4285C31.8878 23.0087 31.1034 23.7502 29.9429 24.6528L28.7985 25.5393C28.1753 26.0228 27.7616 26.587 27.5574 27.2317C27.4841 27.4639 27.4299 27.7691 27.3948 28.1473C27.3442 28.6924 26.9077 29.1336 26.3603 29.1336H24.0321C23.4659 29.1336 23.01 28.6634 23.0484 28.0985C23.1346 26.8332 23.289 25.9264 23.5118 25.3781C23.7911 24.6797 24.5111 23.8791 25.6716 22.9765L26.8482 22.0578C27.2351 21.7676 27.5467 21.4506 27.7831 21.1068C28.2129 20.5158 28.4278 19.8657 28.4278 19.1565C28.4278 18.3398 28.186 17.5984 27.7025 16.9322C27.2297 16.2552 26.3593 15.9167 25.0913 15.9167C23.8449 15.9167 22.9584 16.3304 22.4318 17.1578C22.1099 17.6742 21.8885 18.2032 21.7675 18.7447C21.647 19.2837 21.2104 19.7367 20.6582 19.7367H18.043Z" fill="#7D7D7D"/>
</svg>
