<svg width="284" height="284" viewBox="0 0 284 284" fill="none" xmlns="http://www.w3.org/2000/svg">
<circle cx="142" cy="142" r="142" fill="#6D8752"/>
<path d="M131.266 163.208V162.196C131.337 155.591 131.994 150.335 133.237 146.429C134.515 142.523 136.326 139.362 138.67 136.947C141.013 134.533 143.837 132.331 147.139 130.342C149.27 128.993 151.188 127.484 152.892 125.815C154.597 124.146 155.946 122.228 156.94 120.062C157.935 117.896 158.432 115.499 158.432 112.871C158.432 109.71 157.686 106.976 156.195 104.668C154.703 102.359 152.714 100.584 150.229 99.3409C147.778 98.0625 145.044 97.4233 142.026 97.4233C139.291 97.4233 136.681 97.9915 134.195 99.1278C131.71 100.264 129.65 102.04 128.016 104.455C126.383 106.834 125.442 109.906 125.193 113.67H109C109.249 107.278 110.864 101.88 113.847 97.4766C116.83 93.0376 120.772 89.6818 125.673 87.4091C130.609 85.1364 136.06 84 142.026 84C148.56 84 154.277 85.2251 159.178 87.6754C164.078 90.0902 167.878 93.4815 170.577 97.8494C173.311 102.182 174.678 107.242 174.678 113.031C174.678 117.008 174.057 120.594 172.814 123.79C171.571 126.951 169.795 129.774 167.487 132.26C165.214 134.746 162.48 136.947 159.284 138.865C156.266 140.747 153.815 142.7 151.933 144.724C150.087 146.749 148.737 149.146 147.885 151.915C147.033 154.685 146.571 158.112 146.5 162.196V163.208H131.266ZM139.309 195.594C136.397 195.594 133.893 194.565 131.798 192.505C129.703 190.41 128.656 187.888 128.656 184.941C128.656 182.029 129.703 179.543 131.798 177.484C133.893 175.388 136.397 174.341 139.309 174.341C142.185 174.341 144.671 175.388 146.766 177.484C148.897 179.543 149.962 182.029 149.962 184.941C149.962 186.894 149.465 188.688 148.471 190.321C147.512 191.919 146.234 193.197 144.636 194.156C143.038 195.115 141.262 195.594 139.309 195.594Z" fill="currentColor"/>
</svg>
