<svg width="34" height="32" viewBox="0 0 34 32" fill="none" xmlns="http://www.w3.org/2000/svg">
<path fill-rule="evenodd" clip-rule="evenodd" d="M2.99999 3.09944e-06C1.34313 3.09944e-06 -1.21593e-05 1.34315 -1.21593e-05 3V23.0425C-1.21593e-05 24.6993 1.34313 26.0425 2.99999 26.0425H23.3748C23.6647 26.0425 23.9402 26.1682 24.1302 26.3872L27.7839 30.5989C29.6032 32.6962 33.05 31.4095 33.05 28.6331V3C33.05 1.34315 31.7068 3.09944e-06 30.05 3.09944e-06H2.99999ZM1.99999 3C1.99999 2.44772 2.4477 2 2.99999 2H30.05C30.6023 2 31.05 2.44772 31.05 3V28.6331C31.05 29.5585 29.9011 29.9874 29.2946 29.2884L25.6409 25.0766C25.0711 24.4198 24.2444 24.0425 23.3748 24.0425H2.99999C2.4477 24.0425 1.99999 23.5948 1.99999 23.0425V3ZM10.1996 7.52523C10.9245 7.52523 11.5122 6.93755 11.5122 6.21262C11.5122 5.48768 10.9245 4.9 10.1996 4.9C9.47462 4.9 8.88694 5.48768 8.88694 6.21262C8.88694 6.93755 9.47462 7.52523 10.1996 7.52523ZM10.1996 9.12523C11.8082 9.12523 13.1122 7.82121 13.1122 6.21262C13.1122 4.60402 11.8082 3.3 10.1996 3.3C8.59097 3.3 7.28694 4.60402 7.28694 6.21262C7.28694 7.82121 8.59097 9.12523 10.1996 9.12523ZM19.8119 8.83767C20.721 7.50748 22.7493 7.7432 23.3291 9.2464L27.1128 19.0559C27.6182 20.3662 26.6512 21.7757 25.2468 21.7757H7.30354C5.671 21.7757 4.72619 19.9254 5.68346 18.6029L10.3152 12.2045C10.9734 11.2953 12.2508 11.1056 13.1447 11.7844L16.2083 14.1105L19.8119 8.83767ZM21.4631 9.96615L17.8596 15.239C17.2142 16.1833 15.9098 16.395 14.9989 15.7034L11.9353 13.3772L7.30354 19.7757H25.2468L21.4631 9.96615Z" />
</svg>
