<svg width="35" height="33" viewBox="0 0 35 33" fill="none" xmlns="http://www.w3.org/2000/svg">
<path fill-rule="evenodd" clip-rule="evenodd" d="M0.699989 4C0.699989 2.17746 2.17745 0.7 3.99999 0.7H31.05C32.8725 0.7 34.35 2.17746 34.35 4V29.6331C34.35 32.6871 30.5585 34.1025 28.5572 31.7955L24.9036 27.5838C24.7706 27.4305 24.5777 27.3425 24.3748 27.3425H3.99999C2.17745 27.3425 0.699989 25.865 0.699989 24.0425V4ZM3.99999 3.3C3.61339 3.3 3.29999 3.6134 3.29999 4V24.0425C3.29999 24.4291 3.61339 24.7425 3.99999 24.7425H24.3748C25.3313 24.7425 26.2408 25.1575 26.8676 25.88L30.5212 30.0918C30.9457 30.5811 31.75 30.2809 31.75 29.6331V4C31.75 3.6134 31.4366 3.3 31.05 3.3H3.99999ZM11.1996 7.72523C11.4827 7.72523 11.7122 7.49573 11.7122 7.21262C11.7122 6.92951 11.4827 6.7 11.1996 6.7C10.9164 6.7 10.6869 6.92951 10.6869 7.21262C10.6869 7.49573 10.9164 7.72523 11.1996 7.72523ZM11.1996 10.1252C12.8081 10.1252 14.1122 8.82121 14.1122 7.21262C14.1122 5.60402 12.8081 4.3 11.1996 4.3C9.59097 4.3 8.28694 5.60402 8.28694 7.21262C8.28694 8.82121 9.59097 10.1252 11.1996 10.1252ZM19.0247 16.3518L22.4135 11.3932L25.9553 20.5757H8.69522L12.9773 14.6603L15.878 16.8627C16.88 17.6235 18.3148 17.3906 19.0247 16.3518ZM24.5157 10.1744C23.8779 8.5209 21.6468 8.26161 20.6468 9.72482L17.1618 14.8241L14.2657 12.6251C13.2823 11.8784 11.8772 12.0871 11.1532 13.0872L6.52146 19.4857C5.46845 20.9403 6.50775 22.9757 8.30354 22.9757H26.2468C27.7916 22.9757 28.8553 21.4253 28.2994 19.984L24.5157 10.1744Z" />
</svg>
