<svg width="35" height="44" viewBox="0 0 35 44" fill="none" xmlns="http://www.w3.org/2000/svg">
<path d="M4.8466 2.18334L4.16891 3.52152L4.8466 2.18334ZM25.0381 12.4087L25.7157 11.0705L25.0381 12.4087ZM25.9979 14.0241L27.4977 14.0455V14.0455L25.9979 14.0241ZM25.624 40.2533L27.1238 40.2747L25.624 40.2533ZM23.1742 41.8281L23.8317 40.4799L23.1742 41.8281ZM2.98285 31.9815L3.64033 30.6333L3.64033 30.6333L2.98285 31.9815ZM2.00018 30.3551L0.500329 30.334L2.00018 30.3551ZM2.37399 3.74712L0.874142 3.72605L2.37399 3.74712ZM12.5142 22.4476C12.3962 23.2676 12.9653 24.028 13.7853 24.146L27.1477 26.0685C27.9677 26.1865 28.7281 25.6174 28.846 24.7974C28.964 23.9774 28.3949 23.217 27.5749 23.0991L15.6973 21.3902L17.4062 9.51245C17.5241 8.69247 16.955 7.9321 16.1351 7.81413C15.3151 7.69615 14.5547 8.26524 14.4367 9.08523L12.5142 22.4476ZM33.8988 9.64093C34.562 9.14453 34.6973 8.20446 34.2009 7.54123C33.7045 6.87799 32.7644 6.74274 32.1012 7.23913L33.8988 9.64093ZM15.0736 22.1987C15.0736 22.8814 14.5489 23.3546 13.999 23.3546V26.3546C16.293 26.3546 18.0736 24.4496 18.0736 22.1987H15.0736ZM13.999 23.3546C13.4492 23.3546 12.9244 22.8814 12.9244 22.1987H9.92442C9.92442 24.4496 11.705 26.3546 13.999 26.3546V23.3546ZM12.9244 22.1987C12.9244 21.5159 13.4492 21.0427 13.999 21.0427V18.0427C11.705 18.0427 9.92442 19.9477 9.92442 22.1987H12.9244ZM13.999 21.0427C14.5489 21.0427 15.0736 21.5159 15.0736 22.1987H18.0736C18.0736 19.9477 16.293 18.0427 13.999 18.0427V21.0427ZM4.16891 3.52152L24.3604 13.7469L25.7157 11.0705L5.52428 0.845148L4.16891 3.52152ZM24.4981 14.0028L24.1241 40.232L27.1238 40.2747L27.4977 14.0455L24.4981 14.0028ZM23.8317 40.4799L3.64033 30.6333L2.32537 33.3298L22.5167 43.1763L23.8317 40.4799ZM3.50003 30.3762L3.87385 3.76819L0.874142 3.72605L0.500329 30.334L3.50003 30.3762ZM3.64033 30.6333C3.57138 30.5997 3.49818 30.5082 3.50003 30.3762L0.500329 30.334C0.482685 31.5899 1.17783 32.7701 2.32537 33.3298L3.64033 30.6333ZM24.1241 40.232C24.1224 40.3528 24.0678 40.4275 24.0044 40.4683C23.9715 40.4894 23.9409 40.4979 23.9177 40.4996C23.8985 40.5011 23.8717 40.4994 23.8317 40.4799L22.5167 43.1763C24.6999 44.241 27.0909 42.587 27.1238 40.2747L24.1241 40.232ZM24.3604 13.7469C24.4287 13.7814 24.4999 13.8727 24.4981 14.0028L27.4977 14.0455C27.5154 12.8063 26.8391 11.6394 25.7157 11.0705L24.3604 13.7469ZM5.52428 0.845148C3.33718 -0.262441 0.906913 1.3934 0.874142 3.72605L3.87385 3.76819C3.87556 3.64616 3.93083 3.57149 3.99488 3.53098C4.02815 3.50994 4.05896 3.50178 4.0822 3.50028C4.1013 3.49905 4.12837 3.50099 4.16891 3.52152L5.52428 0.845148ZM14.8977 23.8621L33.8988 9.64093L32.1012 7.23913L13.1001 21.4604L14.8977 23.8621Z"/>
</svg>
