<svg width="27" height="22" viewBox="0 0 27 22" fill="none" xmlns="http://www.w3.org/2000/svg">
<path d="M6.64131 7.94452L0.265304 9.51497C-0.0884348 9.6021 -0.0884346 10.0974 0.265304 10.1845L6.64131 11.755C6.7668 11.7859 6.86479 11.8824 6.89616 12.006L8.49016 18.2878C8.5786 18.6364 9.08132 18.6364 9.16975 18.2878L10.7638 12.006C10.7951 11.8824 10.8931 11.7859 11.0186 11.755L17.3946 10.1845C17.7484 10.0974 17.7483 9.6021 17.3946 9.51497L11.0186 7.94452C10.8931 7.91361 10.7951 7.81708 10.7638 7.69344L9.16975 1.41164C9.08132 1.06313 8.5786 1.06313 8.49016 1.41164L6.89616 7.69344C6.86479 7.81708 6.7668 7.91361 6.64131 7.94452Z" fill="#5565E3"/>
<path d="M20.8849 3.57354L17.778 4.33881C17.4242 4.42593 17.4242 4.92123 17.778 5.00835L20.8849 5.77362C21.0104 5.80453 21.1084 5.90107 21.1398 6.0247L21.9165 9.08577C22.005 9.43429 22.5077 9.43429 22.5961 9.08577L23.3729 6.0247C23.4042 5.90107 23.5022 5.80453 23.6277 5.77362L26.7347 5.00835C27.0884 4.92123 27.0884 4.42593 26.7347 4.33881L23.6277 3.57354C23.5022 3.54263 23.4042 3.44609 23.3729 3.32246L22.5961 0.261384C22.5077 -0.0871277 22.005 -0.0871284 21.9165 0.261384L21.1398 3.32246C21.1084 3.44609 21.0104 3.54263 20.8849 3.57354Z" fill="#5565E3"/>
<path d="M18.1474 17.6067L15.9744 18.1419C15.6207 18.229 15.6207 18.7243 15.9744 18.8115L18.1474 19.3467C18.2729 19.3776 18.3709 19.4741 18.4022 19.5978L18.9455 21.7386C19.0339 22.0871 19.5366 22.0871 19.6251 21.7386L20.1683 19.5978C20.1997 19.4741 20.2977 19.3776 20.4231 19.3467L22.5961 18.8115C22.9499 18.7243 22.9499 18.229 22.5961 18.1419L20.4231 17.6067C20.2977 17.5758 20.1997 17.4792 20.1683 17.3556L19.6251 15.2147C19.5366 14.8662 19.0339 14.8662 18.9455 15.2147L18.4022 17.3556C18.3708 17.4792 18.2729 17.5758 18.1474 17.6067Z" fill="#5565E3"/>
</svg>
