<svg width="30" height="30" viewBox="0 0 30 30" fill="none" xmlns="http://www.w3.org/2000/svg">
<path d="M25 0H5C2.23858 0 0 2.23858 0 5V25C0 27.7614 2.23858 30 5 30H25C27.7614 30 30 27.7614 30 25V5C30 2.23858 27.7614 0 25 0Z" fill="#459A47"/>
<path d="M8.00006 10C8.00006 8.89545 8.89549 8.00002 10.0001 8.00002C11.1046 8.00002 12.0001 8.89545 12.0001 10C12.0001 11.1046 11.1046 12 10.0001 12C8.89549 12 8.00006 11.1046 8.00006 10Z" fill="white"/>
<path d="M7.00006 19H23.0001V21H7.00006V19Z" fill="white"/>
<path d="M18.0001 10C18.0001 8.89545 18.8955 8.00002 20.0001 8.00002C21.1046 8.00002 22.0001 8.89545 22.0001 10C22.0001 11.1046 21.1046 12 20.0001 12C18.8955 12 18.0001 11.1046 18.0001 10Z" fill="white"/>
</svg>
