<svg width="31" height="31" viewBox="0 0 31 31" fill="none" xmlns="http://www.w3.org/2000/svg">
<path d="M25.7999 0.799995H5.79993C3.0385 0.799995 0.799927 3.03857 0.799927 5.8V25.8C0.799927 28.5614 3.0385 30.8 5.79993 30.8H25.7999C28.5613 30.8 30.7999 28.5614 30.7999 25.8V5.8C30.7999 3.03857 28.5613 0.799995 25.7999 0.799995Z" fill="#05FF00"/>
<path d="M20.8254 9.04366L18.1642 9.70896C17.8612 9.7847 17.8612 10.2153 18.1642 10.291L20.8254 10.9563C20.9329 10.9832 21.0168 11.0671 21.0437 11.1746L21.709 13.8358C21.7847 14.1388 22.2153 14.1388 22.291 13.8358L22.9563 11.1746C22.9832 11.0671 23.0671 10.9832 23.1746 10.9563L25.8358 10.291C26.1388 10.2153 26.1388 9.7847 25.8358 9.70896L23.1746 9.04366C23.0671 9.01679 22.9832 8.93286 22.9563 8.82537L22.291 6.16417C22.2153 5.86119 21.7847 5.86118 21.709 6.16417L21.0437 8.82537C21.0168 8.93286 20.9329 9.01679 20.8254 9.04366Z" fill="white"/>
<path d="M8.62537 12.8437L5.16417 13.709C4.86118 13.7847 4.86119 14.2153 5.16417 14.291L8.62537 15.1563C8.73286 15.1832 8.81679 15.2671 8.84366 15.3746L9.70896 18.8358C9.7847 19.1388 10.2153 19.1388 10.291 18.8358L11.1563 15.3746C11.1832 15.2671 11.2671 15.1832 11.3746 15.1563L14.8358 14.291C15.1388 14.2153 15.1388 13.7847 14.8358 13.709L11.3746 12.8437C11.2671 12.8168 11.1832 12.7329 11.1563 12.6254L10.291 9.16417C10.2153 8.86119 9.7847 8.86119 9.70896 9.16417L8.84366 12.6254C8.81679 12.7329 8.73286 12.8168 8.62537 12.8437Z" fill="white"/>
<path d="M15.1642 21.709L17.0254 21.2437C17.1329 21.2168 17.2168 21.1329 17.2437 21.0254L17.709 19.1642C17.7847 18.8612 18.2153 18.8612 18.291 19.1642L18.7563 21.0254C18.7832 21.1329 18.8671 21.2168 18.9746 21.2437L20.8358 21.709C21.1388 21.7847 21.1388 22.2153 20.8358 22.291L18.9746 22.7563C18.8671 22.7832 18.7832 22.8671 18.7563 22.9746L18.291 24.8358C18.2153 25.1388 17.7847 25.1388 17.709 24.8358L17.2437 22.9746C17.2168 22.8671 17.1329 22.7832 17.0254 22.7563L15.1642 22.291C14.8612 22.2153 14.8612 21.7847 15.1642 21.709Z" fill="white"/>
</svg>
