<svg width="31" height="31" viewBox="0 0 31 31" fill="none" xmlns="http://www.w3.org/2000/svg">
<path d="M25.7999 0.800003H5.79993C3.0385 0.800003 0.799927 3.03858 0.799927 5.8V25.8C0.799927 28.5614 3.0385 30.8 5.79993 30.8H25.7999C28.5613 30.8 30.7999 28.5614 30.7999 25.8V5.8C30.7999 3.03858 28.5613 0.800003 25.7999 0.800003Z" fill="#459A47"/>
<path d="M9.62533 12.8437L4.16413 14.209C3.86114 14.2847 3.86114 14.7153 4.16413 14.791L9.62533 16.1563C9.73282 16.1832 9.81674 16.2671 9.84361 16.3746L11.2089 21.8358C11.2847 22.1388 11.7153 22.1388 11.791 21.8358L13.1563 16.3746C13.1832 16.2671 13.2671 16.1832 13.3746 16.1563L18.8358 14.791C19.1388 14.7153 19.1388 14.2847 18.8358 14.209L13.3746 12.8437C13.2671 12.8168 13.1832 12.7329 13.1563 12.6254L11.791 7.16417C11.7153 6.86119 11.2847 6.86119 11.2089 7.16417L9.84361 12.6254C9.81674 12.7329 9.73282 12.8168 9.62533 12.8437Z" fill="#4EEF4B"/>
<path d="M20.6253 8.84366L17.1641 9.70896C16.8611 9.78471 16.8611 10.2153 17.1641 10.291L20.6253 11.1563C20.7328 11.1832 20.8167 11.2671 20.8436 11.3746L21.7089 14.8358C21.7847 15.1388 22.2153 15.1388 22.291 14.8358L23.1563 11.3746C23.1832 11.2671 23.2671 11.1832 23.3746 11.1563L26.8358 10.291C27.1388 10.2153 27.1388 9.78471 26.8358 9.70896L23.3746 8.84366C23.2671 8.81679 23.1832 8.73286 23.1563 8.62538L22.291 5.16417C22.2153 4.86119 21.7847 4.86119 21.7089 5.16418L20.8436 8.62538C20.8167 8.73286 20.7328 8.81679 20.6253 8.84366Z" fill="#4EEF4B"/>
<path d="M17.8253 22.0437L15.1641 22.709C14.8611 22.7847 14.8611 23.2153 15.1641 23.291L17.8253 23.9563C17.9328 23.9832 18.0167 24.0671 18.0436 24.1746L18.7089 26.8358C18.7847 27.1388 19.2153 27.1388 19.291 26.8358L19.9563 24.1746C19.9832 24.0671 20.0671 23.9832 20.1746 23.9563L22.8358 23.291C23.1388 23.2153 23.1388 22.7847 22.8358 22.709L20.1746 22.0437C20.0671 22.0168 19.9832 21.9329 19.9563 21.8254L19.291 19.1642C19.2153 18.8612 18.7847 18.8612 18.7089 19.1642L18.0436 21.8254C18.0167 21.9329 17.9328 22.0168 17.8253 22.0437Z" fill="#4EEF4B"/>
</svg>
