<svg width="38" height="35" viewBox="0 0 38 35" fill="none" xmlns="http://www.w3.org/2000/svg">
<path fill-rule="evenodd" clip-rule="evenodd" d="M3.69232 0.538467C2.03547 0.538467 0.692322 1.88161 0.692322 3.53847V31.8462C0.692322 33.503 2.03547 34.8462 3.69232 34.8462H34.7692C36.4261 34.8462 37.7692 33.503 37.7692 31.8462V3.53847C37.7692 1.88162 36.4261 0.538467 34.7692 0.538467H18.6993H13.3846H3.69232ZM2.69232 3.53847C2.69232 2.98618 3.14004 2.53847 3.69232 2.53847L13.3846 2.53847H18.6993H34.7692C35.3215 2.53847 35.7692 2.98618 35.7692 3.53847V31.8462C35.7692 32.3984 35.3215 32.8462 34.7692 32.8462H3.69232C3.14004 32.8462 2.69232 32.3984 2.69232 31.8462V3.53847ZM13 20C11.8955 20 11 20.8954 11 22V26C11 27.1046 11.8955 28 13 28H26C27.1046 28 28 27.1046 28 26V22C28 20.8954 27.1046 20 26 20H19.2728H17H13ZM13 22H17H19.2728H26L26 26H13V22ZM9.50002 8.50001V13.5H14.5V8.50001H9.50002ZM7.50002 7.90001C7.50002 7.12681 8.12683 6.50001 8.90002 6.50001H15.1C15.8732 6.50001 16.5 7.12681 16.5 7.90001V14.1C16.5 14.8732 15.8732 15.5 15.1 15.5H8.90002C8.12683 15.5 7.50002 14.8732 7.50002 14.1V7.90001ZM24 13.5V8.50001H29V13.5H24ZM23.4 6.50001C22.6268 6.50001 22 7.12681 22 7.90001V14.1C22 14.8732 22.6268 15.5 23.4 15.5H29.6C30.3732 15.5 31 14.8732 31 14.1V7.90001C31 7.12681 30.3732 6.50001 29.6 6.50001H23.4Z"/>
</svg>
