<svg width="28" height="28" viewBox="0 0 28 28" fill="none" xmlns="http://www.w3.org/2000/svg">
<path fill-rule="evenodd" clip-rule="evenodd" d="M3.84997 1.60001C2.60733 1.60001 1.59998 2.60736 1.59998 3.85001V24.1124C1.59998 25.355 2.60733 26.3624 3.84998 26.3624H24.1123C25.355 26.3624 26.3623 25.355 26.3623 24.1124V7.07524C26.3623 6.47505 26.1225 5.89974 25.6963 5.47722L22.4424 2.25199C22.043 1.85618 21.5109 1.62503 20.9513 1.60192V7.52561C20.9513 9.59668 19.2724 11.2756 17.2013 11.2756H10.7613C8.6902 11.2756 7.01126 9.59668 7.01126 7.52561V1.60001H3.84997ZM8.51126 1.60001V7.52561C8.51126 8.76825 9.51862 9.77561 10.7613 9.77561H17.2013C18.444 9.77561 19.4513 8.76825 19.4513 7.52561V1.60001H8.51126ZM0.0999756 3.85001C0.0999756 1.77894 1.77891 0.100006 3.84997 0.100006H20.8584C21.8472 0.100006 22.796 0.490554 23.4983 1.18665L26.7522 4.41188C27.4627 5.11607 27.8623 6.07493 27.8623 7.07524V24.1124C27.8623 26.1834 26.1834 27.8624 24.1123 27.8624H3.84998C1.77891 27.8624 0.0999756 26.1834 0.0999756 24.1124V3.85001ZM19.9657 15.4809H7.30562C6.47719 15.4809 5.80562 16.1524 5.80562 16.9809V20.6565C5.80562 21.4849 6.47719 22.1565 7.30562 22.1565H19.9657C20.7941 22.1565 21.4657 21.4849 21.4657 20.6565V16.9809C21.4657 16.1524 20.7941 15.4809 19.9657 15.4809ZM7.30562 13.9809C5.64877 13.9809 4.30562 15.324 4.30562 16.9809V20.6565C4.30562 22.3133 5.64877 23.6565 7.30562 23.6565H19.9657C21.6226 23.6565 22.9657 22.3133 22.9657 20.6565V16.9809C22.9657 15.324 21.6226 13.9809 19.9657 13.9809H7.30562Z" />
</svg>
