<svg width="30" height="30" viewBox="0 0 30 30" fill="none" xmlns="http://www.w3.org/2000/svg">
<path fill-rule="evenodd" clip-rule="evenodd" d="M4.85 3.1C3.8835 3.1 3.1 3.8835 3.1 4.85V25.1124C3.1 26.0789 3.8835 26.8624 4.85 26.8624H25.1124C26.0789 26.8624 26.8624 26.0789 26.8624 25.1124V8.07523C26.8624 7.60842 26.6759 7.16095 26.3443 6.83233L23.0904 3.6071C22.9076 3.42591 22.689 3.28908 22.4514 3.2035V8.52561C22.4514 10.8728 20.5486 12.7756 18.2014 12.7756H11.7613C9.41408 12.7756 7.51129 10.8728 7.51129 8.52561V3.1H4.85ZM10.0113 3.1V8.52561C10.0113 9.4921 10.7948 10.2756 11.7613 10.2756H18.2014C19.1679 10.2756 19.9514 9.4921 19.9514 8.52561V3.1H10.0113ZM0.6 4.85C0.6 2.50279 2.50279 0.6 4.85 0.6H21.8585C22.9791 0.6 24.0544 1.04262 24.8503 1.83153L28.1042 5.05676C28.9094 5.85484 29.3624 6.94155 29.3624 8.07523V25.1124C29.3624 27.4596 27.4596 29.3624 25.1124 29.3624H4.85C2.50279 29.3624 0.6 27.4596 0.6 25.1124V4.85ZM20.9657 17.4808H8.30564C8.0295 17.4808 7.80564 17.7047 7.80564 17.9808V21.6565C7.80564 21.9326 8.0295 22.1565 8.30564 22.1565H20.9657C21.2419 22.1565 21.4657 21.9326 21.4657 21.6565V17.9808C21.4657 17.7047 21.2419 17.4808 20.9657 17.4808ZM8.30564 14.9808C6.64879 14.9808 5.30564 16.324 5.30564 17.9808V21.6565C5.30564 23.3133 6.64879 24.6565 8.30564 24.6565H20.9657C22.6226 24.6565 23.9657 23.3133 23.9657 21.6565V17.9808C23.9657 16.324 22.6226 14.9808 20.9657 14.9808H8.30564Z" />
</svg>
