<svg width="111" height="110" viewBox="0 0 111 110" fill="none" xmlns="http://www.w3.org/2000/svg">
<circle cx="55.5901" cy="54.8656" r="54.8656" fill="#6D8752"/>
<path fill-rule="evenodd" clip-rule="evenodd" d="M39.25 36.5C38.2835 36.5 37.5 37.2835 37.5 38.25V72.4256C37.5 73.3921 38.2835 74.1756 39.25 74.1756H73.4256C74.3921 74.1756 75.1756 73.3921 75.1756 72.4256V44.1108C75.1756 43.644 74.989 43.1965 74.6575 42.8679L68.7446 37.0071C68.4169 36.6823 67.9741 36.5 67.5127 36.5H67.1033V47.0515C67.1033 49.3987 65.2005 51.3015 62.8533 51.3015H49.8228C47.4756 51.3015 45.5728 49.3987 45.5728 47.0515V36.5H39.25ZM48.0728 36.5V47.0515C48.0728 48.018 48.8563 48.8015 49.8228 48.8015H62.8533C63.8198 48.8015 64.6033 48.018 64.6033 47.0515V36.5H48.0728ZM35 38.25C35 35.9028 36.9028 34 39.25 34H67.5127C68.6333 34 69.7086 34.4426 70.5046 35.2315L76.4174 41.0923C77.2226 41.8904 77.6756 42.9771 77.6756 44.1108V72.4256C77.6756 74.7728 75.7728 76.6756 73.4256 76.6756H39.25C36.9028 76.6756 35 74.7728 35 72.4256V38.25ZM67.0821 57.8373H44.5363C44.2602 57.8373 44.0363 58.0611 44.0363 58.3373V67.1388C44.0363 67.415 44.2602 67.6388 44.5363 67.6388H67.0821C67.3583 67.6388 67.5821 67.415 67.5821 67.1388V58.3373C67.5821 58.0612 67.3583 57.8373 67.0821 57.8373ZM44.5363 55.3373C42.8795 55.3373 41.5363 56.6804 41.5363 58.3373V67.1388C41.5363 68.7957 42.8795 70.1388 44.5363 70.1388H67.0821C68.739 70.1388 70.0821 68.7957 70.0821 67.1388V58.3373C70.0821 56.6804 68.739 55.3373 67.0821 55.3373H44.5363Z" fill="black"/>
<path d="M74.6575 42.8679L75.0095 42.5128V42.5128L74.6575 42.8679ZM68.7446 37.0071L69.0966 36.652V36.652L68.7446 37.0071ZM67.1033 36.5V36H66.6033V36.5H67.1033ZM45.5728 36.5H46.0728V36H45.5728V36.5ZM48.0728 36.5V36H47.5728V36.5H48.0728ZM64.6033 36.5H65.1033V36H64.6033V36.5ZM70.5046 35.2315L70.1526 35.5866V35.5866L70.5046 35.2315ZM76.4174 41.0923L76.0654 41.4474V41.4474L76.4174 41.0923ZM38 38.25C38 37.5596 38.5596 37 39.25 37V36C38.0074 36 37 37.0074 37 38.25H38ZM38 72.4256V38.25H37V72.4256H38ZM39.25 73.6756C38.5596 73.6756 38 73.1159 38 72.4256H37C37 73.6682 38.0074 74.6756 39.25 74.6756V73.6756ZM73.4256 73.6756H39.25V74.6756H73.4256V73.6756ZM74.6756 72.4256C74.6756 73.1159 74.1159 73.6756 73.4256 73.6756V74.6756C74.6682 74.6756 75.6756 73.6682 75.6756 72.4256H74.6756ZM74.6756 44.1108V72.4256H75.6756V44.1108H74.6756ZM74.3055 43.223C74.5423 43.4577 74.6756 43.7773 74.6756 44.1108H75.6756C75.6756 43.5106 75.4358 42.9353 75.0095 42.5128L74.3055 43.223ZM68.3927 37.3622L74.3055 43.223L75.0095 42.5128L69.0966 36.652L68.3927 37.3622ZM67.5127 37C67.8423 37 68.1586 37.1302 68.3927 37.3622L69.0966 36.652C68.6753 36.2343 68.106 36 67.5127 36V37ZM67.1033 37H67.5127V36H67.1033V37ZM66.6033 36.5V47.0515H67.6033V36.5H66.6033ZM66.6033 47.0515C66.6033 49.1226 64.9244 50.8015 62.8533 50.8015V51.8015C65.4766 51.8015 67.6033 49.6749 67.6033 47.0515H66.6033ZM62.8533 50.8015H49.8228V51.8015H62.8533V50.8015ZM49.8228 50.8015C47.7517 50.8015 46.0728 49.1226 46.0728 47.0515H45.0728C45.0728 49.6749 47.1994 51.8015 49.8228 51.8015V50.8015ZM46.0728 47.0515V36.5H45.0728V47.0515H46.0728ZM39.25 37H45.5728V36H39.25V37ZM47.5728 36.5V47.0515H48.5728V36.5H47.5728ZM47.5728 47.0515C47.5728 48.2942 48.5801 49.3015 49.8228 49.3015V48.3015C49.1324 48.3015 48.5728 47.7419 48.5728 47.0515H47.5728ZM49.8228 49.3015H62.8533V48.3015H49.8228V49.3015ZM62.8533 49.3015C64.0959 49.3015 65.1033 48.2942 65.1033 47.0515H64.1033C64.1033 47.7419 63.5436 48.3015 62.8533 48.3015V49.3015ZM65.1033 47.0515V36.5H64.1033V47.0515H65.1033ZM48.0728 37H64.6033V36H48.0728V37ZM39.25 33.5C36.6266 33.5 34.5 35.6266 34.5 38.25H35.5C35.5 36.1789 37.1789 34.5 39.25 34.5V33.5ZM67.5127 33.5H39.25V34.5H67.5127V33.5ZM70.8565 34.8764C69.967 33.9947 68.7652 33.5 67.5127 33.5V34.5C68.5015 34.5 69.4503 34.8905 70.1526 35.5866L70.8565 34.8764ZM76.7694 40.7372L70.8565 34.8764L70.1526 35.5866L76.0654 41.4474L76.7694 40.7372ZM78.1756 44.1108C78.1756 42.8437 77.6693 41.6292 76.7694 40.7372L76.0654 41.4474C76.7759 42.1516 77.1756 43.1105 77.1756 44.1108H78.1756ZM78.1756 72.4256V44.1108H77.1756V72.4256H78.1756ZM73.4256 77.1756C76.0489 77.1756 78.1756 75.0489 78.1756 72.4256H77.1756C77.1756 74.4966 75.4966 76.1756 73.4256 76.1756V77.1756ZM39.25 77.1756H73.4256V76.1756H39.25V77.1756ZM34.5 72.4256C34.5 75.0489 36.6266 77.1756 39.25 77.1756V76.1756C37.1789 76.1756 35.5 74.4966 35.5 72.4256H34.5ZM34.5 38.25V72.4256H35.5V38.25H34.5ZM44.5363 58.3373H67.0821V57.3373H44.5363V58.3373ZM44.5363 58.3373V58.3373V57.3373C43.984 57.3373 43.5363 57.785 43.5363 58.3373H44.5363ZM44.5363 67.1388V58.3373H43.5363V67.1388H44.5363ZM44.5363 67.1388H44.5363H43.5363C43.5363 67.6911 43.984 68.1388 44.5363 68.1388V67.1388ZM67.0821 67.1388H44.5363V68.1388H67.0821V67.1388ZM67.0821 67.1388V68.1388C67.6344 68.1388 68.0821 67.6911 68.0821 67.1388H67.0821ZM67.0821 58.3373V67.1388H68.0821V58.3373H67.0821ZM67.0821 58.3373H67.0821H68.0821C68.0821 57.785 67.6344 57.3373 67.0821 57.3373V58.3373ZM42.0363 58.3373C42.0363 56.9566 43.1556 55.8373 44.5363 55.8373V54.8373C42.6033 54.8373 41.0363 56.4043 41.0363 58.3373H42.0363ZM42.0363 67.1388V58.3373H41.0363V67.1388H42.0363ZM44.5363 69.6388C43.1556 69.6388 42.0363 68.5195 42.0363 67.1388H41.0363C41.0363 69.0718 42.6033 70.6388 44.5363 70.6388V69.6388ZM67.0821 69.6388H44.5363V70.6388H67.0821V69.6388ZM69.5821 67.1388C69.5821 68.5195 68.4628 69.6388 67.0821 69.6388V70.6388C69.0151 70.6388 70.5821 69.0718 70.5821 67.1388H69.5821ZM69.5821 58.3373V67.1388H70.5821V58.3373H69.5821ZM67.0821 55.8373C68.4628 55.8373 69.5821 56.9566 69.5821 58.3373H70.5821C70.5821 56.4043 69.0151 54.8373 67.0821 54.8373V55.8373ZM44.5363 55.8373H67.0821V54.8373H44.5363V55.8373Z" fill="black"/>
</svg>
