<svg width="43" height="29" viewBox="0 0 43 29" fill="none" xmlns="http://www.w3.org/2000/svg">
<path d="M15.6255 25L35.1155 22.6549L35 9.30444L33.8035 9.33441L31.2616 1.61736H31.0305M15.6255 25V9.41158M15.6255 25L8.07702 22.8392L8 9.41158M26.9482 9.25724H28.1806L31.0305 1.61736M26.9482 9.25724L24.5604 2.54341M26.9482 9.25724L24.0212 1M24.5604 2.54341L28.1806 2.77492L28.3347 2.3119L30.7995 2.08039L31.0305 1.61736M24.5604 2.54341L24.0212 1M15.6255 9.41158L20.4011 9.25724H20.6321L23.7131 1M15.6255 9.41158H8M15.6255 9.41158L16.7039 2.15756L11.9283 2.77492M11.9283 2.77492L16.6268 2.15756L20.9402 2.38907L21.0173 1.84887L23.4821 1.46302L23.7131 1M11.9283 2.77492L8 9.41158M23.7131 1H24.0212M8 22.5L1 23.5L14.5 28.5L42 24.5L35 22" stroke="currentColor" stroke-width="1"/>
</svg>
