<svg width="23" height="21" viewBox="0 0 23 21" fill="none" xmlns="http://www.w3.org/2000/svg">
<path fill-rule="evenodd" clip-rule="evenodd" d="M5.02529 3.96209C5.02529 4.49344 4.59454 4.92418 4.0632 4.92418C3.53185 4.92418 3.10111 4.49344 3.10111 3.96209C3.10111 3.43074 3.53185 3 4.0632 3C4.59454 3 5.02529 3.43074 5.02529 3.96209ZM6.2718 7.25199C5.64075 7.67647 4.8809 7.92418 4.0632 7.92418C1.87499 7.92418 0.101106 6.15029 0.101106 3.96209C0.101106 1.77389 1.87499 0 4.0632 0C6.2514 0 8.02529 1.77389 8.02529 3.96209C8.02529 4.23555 7.99758 4.50254 7.94483 4.76041L12.8042 8.22396L20.284 2.05362C20.9231 1.52645 21.8685 1.61715 22.3956 2.2562C22.9228 2.89524 22.8321 3.84065 22.1931 4.36782L15.3333 10.0266L22.2536 14.9592C22.9282 15.44 23.0853 16.3767 22.6045 17.0513C22.1237 17.7259 21.187 17.8829 20.5124 17.4021L12.9375 12.003L7.88003 16.1751C7.96149 16.7024 7.93714 17.2549 7.79016 17.8035C7.22381 19.9171 5.05125 21.1714 2.93761 20.6051C0.823968 20.0388 -0.43036 17.8662 0.135988 15.7525C0.702337 13.6389 2.8749 12.3846 4.98854 12.9509C5.47849 13.0822 5.92226 13.2998 6.30789 13.583L10.4083 10.2004L6.2718 7.25199ZM4.89238 17.027C5.02991 16.5138 4.72533 15.9862 4.21208 15.8487C3.69884 15.7112 3.17129 16.0158 3.03377 16.529C2.89624 17.0422 3.20082 17.5698 3.71407 17.7073C4.22731 17.8448 4.75486 17.5403 4.89238 17.027Z" />
</svg>
