<svg width="93" height="107" viewBox="0 0 93 107" fill="none" xmlns="http://www.w3.org/2000/svg">
<path d="M5.86396 44.4986C5.67662 44.3347 5.67513 47.8388 5.67513 48.2331C5.67513 56.8596 5.67513 65.486 5.67513 74.1124C5.67513 80.6513 5.67513 87.1902 5.67513 93.7291C5.67513 94.8935 5.67513 96.0579 5.67513 97.2223C5.67513 98.4403 5.03571 97.2123 4.77298 96.7188C2.58397 92.607 3.04554 86.7938 3.03161 82.3472C3.01755 77.8628 2.99373 73.3517 3.34631 68.8778C3.65453 64.9669 4.40314 61.1186 4.98278 57.2442C5.13224 56.2452 5.7722 54.5156 5.47582 53.4782" stroke="#FF00F5" stroke-width="3" stroke-linecap="round"/>
<path d="M8.28395 53.1845C8.28395 66.6539 8.28395 80.1233 8.28395 93.5927C8.28395 94.4387 8.81307 97.9269 8.00071 98.649C7.6719 98.9413 7.71748 98.0307 7.71748 97.9356" stroke="#00FF06" stroke-width="3" stroke-linecap="round"/>
<path d="M1.67529 53.5621C3.68685 53.5621 5.74106 54.3985 7.63372 54.9469C13.7528 56.7199 19.9294 58.2403 26.1384 59.6674C30.489 60.6674 35.4221 61.8704 39.8176 61.8704" stroke="#FC10F3" stroke-width="3" stroke-linecap="round"/>
<path d="M27.7388 40.4656C29.7445 40.3123 31.8565 40.9896 33.7854 41.3921C40.0218 42.6936 46.2964 43.7389 52.596 44.6887C57.0102 45.3542 62.0206 46.1776 66.4034 45.8426" stroke="#FC10F3" stroke-width="3" stroke-linecap="round"/>
<path d="M42.2725 56.3945V104.544" stroke="#FC10F3" stroke-width="3" stroke-linecap="round"/>
<path d="M39 67L39.2725 104.544" stroke="#05FF00" stroke-width="3" stroke-linecap="round"/>
<path d="M61 54L61.2725 91.5445" stroke="#05FF00" stroke-width="3" stroke-linecap="round"/>
<path d="M38.6846 60.171C46.4204 56.9725 53.6099 52.6536 61.1755 49.0933C61.5527 48.9158 63.1994 48.4639 62.0987 48.4639" stroke="#FC10F3" stroke-width="3" stroke-linecap="round"/>
<path d="M6.68457 51.171C14.4204 47.9725 21.6099 43.6536 29.1755 40.0933C29.5527 39.9158 31.1994 39.4639 30.0987 39.4639" stroke="#FC10F3" stroke-width="3" stroke-linecap="round"/>
<path d="M63.7979 13.9092V93.5927" stroke="#FC10F3" stroke-width="3" stroke-linecap="round"/>
<path d="M32.8311 7.8669V36.3792" stroke="#FC10F3" stroke-width="3" stroke-linecap="round"/>
<path d="M19.2358 9.5663C39.3604 9.5663 59.4524 7.74204 79.5859 8.08719C82.8925 8.14387 86.5277 8.10829 89.6879 9.27258C89.7389 9.29136 91.1225 10.0108 90.6111 9.75513" stroke="#FC10F3" stroke-width="3" stroke-linecap="round"/>
<path d="M33.5864 3.90161H75.3164" stroke="#4EEF4B" stroke-width="3" stroke-linecap="round"/>
<path d="M73.6169 3.33514C73.6169 3.79671 73.6169 5.18141 73.6169 4.71985C73.6169 4.02323 73.761 3.10735 73.4281 2.47495C72.38 0.483527 68.2771 5.37079 67.8473 5.81083C66.2826 7.41314 64.754 9.04747 62.9904 10.437C61.9718 11.2395 60.6869 12.3345 59.3503 12.5455C55.4676 13.1586 58.1483 3.69905 54.3989 3.94357C51.0707 4.16063 47.3306 7.09831 43.9717 5.97867" stroke="#4EEF4B" stroke-width="3" stroke-linecap="round"/>
<path d="M19.5386 52.1216C20.6174 52.0081 21.5344 51.7281 22.5579 51.3371C25.3132 50.2846 27.9929 49.0328 30.6946 47.8526C30.8859 47.769 36.5407 45.6027 36.5052 46.0282C36.4354 46.8661 34.9239 48.4923 34.544 49.0111C34.1904 49.4941 32.2362 51.4942 32.2362 52.2949C32.2362 52.4338 32.4853 52.1708 32.6011 52.0943C33.3342 51.6101 33.5334 51.4833 34.3981 50.9814C36.2033 49.9336 38.0481 48.927 39.9898 48.1536C40.3716 48.0015 44.1965 46.3367 44.2953 47.2688C44.3651 47.9268 43.8658 48.885 43.6477 49.4398C43.2453 50.4633 42.7574 51.4592 42.3889 52.4956C41.804 54.1406 44.5808 53.0372 45.244 52.8149C46.4043 52.4259 47.5643 51.8692 48.765 51.629" stroke="#05FF00" stroke-width="3" stroke-linecap="round"/>
</svg>
