<svg width="28" height="28" viewBox="0 0 28 28" fill="none" xmlns="http://www.w3.org/2000/svg">
<path fill-rule="evenodd" clip-rule="evenodd" d="M20.4365 11.7182C20.4365 16.5332 16.5332 20.4365 11.7182 20.4365C6.90328 20.4365 3 16.5332 3 11.7182C3 6.90328 6.90328 3 11.7182 3C16.5332 3 20.4365 6.90328 20.4365 11.7182ZM18.8754 20.9975C16.8958 22.5267 14.4132 23.4365 11.7182 23.4365C5.24643 23.4365 0 18.19 0 11.7182C0 5.24643 5.24643 0 11.7182 0C18.19 0 23.4365 5.24643 23.4365 11.7182C23.4365 14.4136 22.5264 16.8965 20.9968 18.8763L27.0599 24.9393C27.6457 25.5251 27.6457 26.4749 27.0599 27.0607C26.4741 27.6464 25.5244 27.6464 24.9386 27.0607L18.8754 20.9975Z" />
</svg>
