<svg width="50" height="50" viewBox="0 0 50 50" fill="none" xmlns="http://www.w3.org/2000/svg">
<path d="M50 25C50 38.8071 38.8071 50 25 50C11.1929 50 0 38.8071 0 25C0 11.1929 11.1929 0 25 0C38.8071 0 50 11.1929 50 25Z" fill="#E5E5E5"/>
<path d="M50 25C50 38.8071 38.8071 50 25 50C11.1929 50 0 38.8071 0 25C0 11.1929 11.1929 0 25 0C38.8071 0 50 11.1929 50 25Z" fill="#E5E5E5"/>
<path d="M50 25C50 38.8071 38.8071 50 25 50C11.1929 50 0 38.8071 0 25C0 11.1929 11.1929 0 25 0C38.8071 0 50 11.1929 50 25Z" fill="#E5E5E5"/>
<path d="M50 25C50 38.8071 38.8071 50 25 50C11.1929 50 0 38.8071 0 25C0 11.1929 11.1929 0 25 0C38.8071 0 50 11.1929 50 25Z" fill="#E5E5E5"/>
<path d="M30.7649 28.4174C32.0149 26.8 32.7861 24.7913 32.7861 22.6C32.7861 17.3043 28.3979 13 22.9991 13C17.6003 13 13.2121 17.3043 13.2121 22.6C13.2121 27.8956 17.6003 32.2 22.9991 32.2C24.9443 32.2041 26.8453 31.6312 28.4526 30.5565L34.5414 36.5304C34.6866 36.6773 34.8601 36.7945 35.0519 36.8751C35.2436 36.9557 35.4498 36.9982 35.6584 37C35.8674 37.0006 36.0743 36.9593 36.2664 36.8786C36.4585 36.7978 36.6317 36.6793 36.7754 36.5304C37.3871 35.9304 37.3871 34.9391 36.7754 34.313L30.7649 28.4174ZM16.4035 22.6C16.4035 19.0522 19.3556 16.1304 22.9991 16.1304C26.6427 16.1304 29.5947 19.0522 29.5947 22.6C29.5947 24.3158 28.8998 25.9614 27.6629 27.1747C26.426 28.3879 24.7484 29.0696 22.9991 29.0696C21.2499 29.0696 19.5723 28.3879 18.3353 27.1747C17.0984 25.9614 16.4035 24.3158 16.4035 22.6Z" fill="#7D7D7D"/>
</svg>
