<svg width="40" height="40" viewBox="0 0 40 40" fill="none" xmlns="http://www.w3.org/2000/svg">
<path d="M39.4384 36.6001L32.0228 29.2444C34.9013 25.6554 36.2952 21.0999 35.9181 16.5146C35.5409 11.9293 33.4213 7.66281 29.995 4.59236C26.5687 1.52191 22.0963 -0.119108 17.4972 0.00673792C12.8982 0.132584 8.52218 2.01573 5.26895 5.26895C2.01573 8.52218 0.132584 12.8982 0.00673792 17.4972C-0.119108 22.0963 1.52191 26.5687 4.59236 29.995C7.66281 33.4213 11.9293 35.5409 16.5146 35.9181C21.0999 36.2952 25.6554 34.9013 29.2444 32.0228L36.6 39.3784C36.7859 39.5657 37.0069 39.7144 37.2505 39.8159C37.4941 39.9174 37.7553 39.9696 38.0192 39.9696C38.2831 39.9696 38.5443 39.9174 38.7879 39.8159C39.0315 39.7144 39.2525 39.5657 39.4384 39.3784C39.7986 39.0057 40 38.5076 40 37.9892C40 37.4709 39.7986 36.9728 39.4384 36.6001ZM18.0311 32.0228C15.2638 32.0228 12.5586 31.2022 10.2577 29.6647C7.9568 28.1273 6.16345 25.9421 5.10445 23.3855C4.04546 20.8288 3.76837 18.0156 4.30825 15.3014C4.84812 12.5873 6.1807 10.0942 8.13747 8.13747C10.0942 6.1807 12.5873 4.84812 15.3014 4.30825C18.0156 3.76837 20.8288 4.04546 23.3855 5.10445C25.9421 6.16345 28.1273 7.9568 29.6647 10.2577C31.2022 12.5586 32.0228 15.2638 32.0228 18.0311C32.0228 21.7419 30.5486 25.3008 27.9247 27.9247C25.3007 30.5486 21.7419 32.0228 18.0311 32.0228Z"/>
</svg>
