<svg width="48" height="49" viewBox="0 0 48 49" fill="none" xmlns="http://www.w3.org/2000/svg">
<circle cx="32.5" cy="25" r="3" />
<path d="M21.8354 2.3919L21.1744 3.7384L21.1744 3.7384L21.8354 2.3919ZM45.3629 13.9418L46.0239 12.5953L46.0239 12.5953L45.3629 13.9418ZM46.4814 15.7665L47.9812 15.7886L47.9812 15.7886L46.4814 15.7665ZM46.0457 45.3934L47.5455 45.4155L47.5455 45.4155L46.0457 45.3934ZM43.1911 47.1722L43.8322 45.8161L43.8322 45.8161L43.1911 47.1722ZM19.6637 36.0501L20.3048 34.694L20.3048 34.694L19.6637 36.0501ZM18.5187 34.213L17.0188 34.1912L18.5187 34.213ZM18.9542 4.15825L17.4544 4.13651L18.9542 4.15825ZM33.5876 26.4458C34.2944 26.0137 34.5171 25.0904 34.0849 24.3836C33.6528 23.6768 32.7295 23.4542 32.0227 23.8863L33.5876 26.4458ZM0.541806 43.6483C0.347586 44.4537 0.842995 45.264 1.64833 45.4582L14.7721 48.6232C15.5774 48.8174 16.3877 48.322 16.5819 47.5167C16.7762 46.7113 16.2808 45.901 15.4754 45.7068L3.80986 42.8935L6.62319 31.2279C6.81741 30.4226 6.322 29.6123 5.51667 29.418C4.71133 29.2238 3.90102 29.7192 3.7068 30.5246L0.541806 43.6483ZM21.1744 3.7384L44.7019 15.2883L46.0239 12.5953L22.4964 1.0454L21.1744 3.7384ZM44.9815 15.7445L44.5458 45.3714L47.5455 45.4155L47.9812 15.7886L44.9815 15.7445ZM43.8322 45.8161L20.3048 34.694L19.0226 37.4062L42.5501 48.5283L43.8322 45.8161ZM20.0185 34.2347L20.4541 4.17999L17.4544 4.13651L17.0188 34.1912L20.0185 34.2347ZM20.3048 34.694C20.1276 34.6102 20.0157 34.4307 20.0185 34.2347L17.0188 34.1912C16.9989 35.563 17.7823 36.8199 19.0226 37.4062L20.3048 34.694ZM44.5458 45.3714C44.5405 45.735 44.161 45.9715 43.8322 45.8161L42.5501 48.5283C44.8518 49.6163 47.5081 47.9611 47.5455 45.4155L44.5458 45.3714ZM44.7019 15.2883C44.8755 15.3735 44.9844 15.5511 44.9815 15.7445L47.9812 15.7886C48.0011 14.4353 47.2389 13.1917 46.0239 12.5953L44.7019 15.2883ZM22.4964 1.0454C20.1906 -0.08652 17.4916 1.56817 17.4544 4.13651L20.4541 4.17999C20.4594 3.81308 20.845 3.5767 21.1744 3.7384L22.4964 1.0454ZM32.0227 23.8863L1.21757 42.7202L2.78243 45.2798L33.5876 26.4458L32.0227 23.8863Z" />
</svg>
