<svg width="44" height="35" viewBox="0 0 44 35" xmlns="http://www.w3.org/2000/svg">
<path fill-rule="evenodd" clip-rule="evenodd" fill="currentColor" d="M15.8625 0.50417C15.7899 0.498985 15.7169 0.503727 15.6456 0.518264L14.2016 0.812697C13.8243 0.889631 13.5553 1.22447 13.5615 1.6095L13.5655 1.85358L11.8912 1.72911L11.8711 1.72787C11.8494 1.72553 11.8272 1.7246 11.8048 1.72516C11.7739 1.72593 11.7438 1.72947 11.7146 1.73555L11.6955 1.73862L5.79641 2.75962C5.54171 2.8037 5.33948 2.98127 5.25549 3.21222L5.16696 3.23079C4.77769 3.31247 4.52529 3.68757 4.5923 4.07627L4.81815 17.3059C4.82339 17.6125 5.00343 17.8892 5.28166 18.0181L6.17472 18.432L6.29037 23.5498L0.926763 25.1293C0.0990973 25.373 -0.0521025 26.4802 0.6799 26.937L12.17 34.1063C12.4025 34.2513 12.6843 34.2946 12.9496 34.2261L42.7994 26.513C43.7023 26.2797 43.8226 25.0466 42.9818 24.6432L36.6701 21.6149L36.7847 18.25L36.9911 18.215C37.3741 18.1499 37.655 17.8192 37.6572 17.4307L37.6628 16.4338C37.6649 16.054 37.3998 15.7251 37.0282 15.6466L36.8107 15.6006L37.0725 15.5669C37.4749 15.515 37.7748 15.1702 37.7703 14.7645L37.7593 13.7766C37.755 13.3839 37.4663 13.0525 37.078 12.9943L36.7578 12.9463L36.758 12.9369L37.1554 12.8948C37.5656 12.8513 37.8754 12.503 37.871 12.0906L37.86 11.0773C37.8557 10.6724 37.5495 10.3346 37.147 10.2907L36.8674 10.2601L36.8675 10.2588L37.3063 10.1845C37.6834 10.1207 37.9626 9.79892 37.9725 9.41658L38.0002 8.35537C38.0117 7.91055 37.6581 7.54176 37.2132 7.53464L36.962 7.53063L36.9663 6.68711C36.9686 6.25625 36.6291 5.90102 36.1986 5.88363L36.1774 5.88277C36.2097 5.42452 35.8496 5.03245 35.3891 5.02683L34.8545 5.02032L34.9128 3.89271C34.9356 3.45162 34.5967 3.07549 34.1556 3.05247L30.8755 2.88128C30.7734 2.6732 30.5624 2.5244 30.3099 2.51753L30.0629 2.5108L30.069 2.33458C30.084 1.8994 29.7482 1.53213 29.3134 1.5082L26.8881 1.3747C26.8441 1.37227 26.8 1.37349 26.7562 1.37834L25.1566 1.55527C24.8214 1.59235 24.5557 1.83428 24.4756 2.14588L22.9308 2.02276L22.9134 2.02157C22.8915 2.01918 22.8692 2.01822 22.8465 2.01878C22.8226 2.01937 22.7991 2.02163 22.7761 2.02544L22.7592 2.02757L20.9882 2.26907L19.6979 2.22129L19.6939 1.51816C19.6915 1.10023 19.3678 0.754578 18.9509 0.724798L15.8625 0.50417ZM22.3726 3.08954L21.5129 3.20677V5.71367L22.4374 5.72748L22.3726 3.08954ZM19.4694 3.21352L20.5129 3.25216V5.69873L13.9078 5.60006L13.9042 5.6L13.9014 5.59996L13.8871 5.59975L13.8729 5.60051C13.8707 5.60061 13.8686 5.60073 13.8665 5.60086L12.4032 5.67937L12.3307 2.76454L13.7097 2.86706C13.7729 2.87176 13.8348 2.869 13.8946 2.85957C13.9413 2.87751 13.9915 2.88869 14.044 2.89188L19.1704 3.20232C19.2182 3.20522 19.2649 3.2013 19.3094 3.19141C19.3609 3.20393 19.4144 3.21148 19.4694 3.21352ZM13.4053 6.62704L11.9429 6.7055L11.429 6.73307L11.4162 6.21864L11.3317 2.81645L6.16838 3.71011C6.08568 3.92937 5.89584 4.09963 5.65485 4.15019L5.59392 4.16298L5.81587 17.1635L6.70823 17.5771C6.98502 17.7053 7.16476 17.9798 7.17165 18.2848L7.29218 23.6187L13.7389 27.0835L13.4053 6.62704ZM13.9734 28.342C14.0553 28.3973 14.1545 28.4289 14.2608 28.4272C14.313 28.4264 14.3632 28.4175 14.4103 28.4019C14.4306 28.399 14.4508 28.3953 14.4709 28.3908L36.0042 23.5733C36.3598 23.4937 36.6167 23.184 36.6291 22.8198L36.633 22.7062L42.5492 25.5448L12.6994 33.2579L1.20926 26.0886L6.7431 24.4589L13.9176 28.3148C13.9359 28.3246 13.9545 28.3337 13.9734 28.342ZM14.7426 27.3053L14.4051 6.6076L22.9425 6.73514L23.4626 6.74291L23.4499 6.22292L23.3722 3.06111L24.5951 3.15858C24.6588 3.16365 24.7211 3.1611 24.7812 3.15174C24.8279 3.17014 24.8782 3.18177 24.931 3.18535L29.512 3.49579C29.5651 3.49939 29.6168 3.49457 29.6658 3.48246C29.72 3.49565 29.7763 3.50336 29.8343 3.50494L29.9072 3.50693L29.8542 6.45713L29.8449 6.97631L30.3641 6.96602L35.6471 6.86123C35.6842 6.86049 35.7203 6.85572 35.755 6.84734C35.8107 6.86215 35.869 6.87113 35.9291 6.87356L35.9653 6.87502L35.961 7.7233C35.9587 8.16174 36.3098 8.52032 36.7481 8.52733L36.9952 8.53129L36.9771 9.22601L36.5372 9.30046C36.1581 9.36461 35.8782 9.68939 35.8708 10.0738L35.8641 10.4237C35.8561 10.8377 36.1654 11.1894 36.5771 11.2344L36.862 11.2655L36.8691 11.9195L36.477 11.9611C36.0758 12.0037 35.7691 12.3382 35.7615 12.7416L35.7547 13.1029C35.7471 13.5046 36.0386 13.8496 36.4359 13.9092L36.7613 13.958L36.7684 14.5978L36.3525 14.6513C35.9663 14.7011 35.672 15.0217 35.6555 15.4108L35.6434 15.6932C35.6268 16.0837 35.8948 16.4291 36.2773 16.5099L36.6619 16.5912L36.6582 17.2572L36.4565 17.2914C36.0819 17.355 35.8037 17.6732 35.7908 18.0529L35.635 22.6312L14.7426 27.3053ZM33.8451 5.17644C33.8297 5.47323 33.9779 5.73942 34.2094 5.88955L30.8634 5.95592L30.9006 3.88395L33.9038 4.04069L33.8451 5.17644ZM14.5667 1.9217L18.6976 2.17186L18.695 1.70906L15.8185 1.50358L14.5641 1.75936L14.5667 1.9217Z"/>
</svg>
