<svg width="30" height="27" viewBox="0 0 30 27" fill="none" xmlns="http://www.w3.org/2000/svg">
<path fill-rule="evenodd" clip-rule="evenodd" d="M9.33333 24L4 24C3.44771 24 3 23.5523 3 23L3 4C3 3.44772 3.44771 3 4 3L9.33333 3C9.88562 3 10.3333 3.44771 10.3333 4L10.3333 23C10.3333 23.5523 9.88562 24 9.33333 24ZM13.3333 23C13.3333 25.2091 11.5425 27 9.33333 27L4 27C1.79086 27 -7.8281e-08 25.2091 -1.74846e-07 23L-1.00536e-06 4C-1.10193e-06 1.79086 1.79086 -7.8281e-08 4 -1.74845e-07L9.33333 -4.07973e-07C11.5425 -5.04538e-07 13.3333 1.79086 13.3333 4L13.3333 23ZM26 24L21 24C20.4477 24 20 23.5523 20 23L20 13C20 12.4477 20.4477 12 21 12L26 12C26.5523 12 27 12.4477 27 13L27 23C27 23.5523 26.5523 24 26 24ZM30 23C30 25.2091 28.2091 27 26 27L21 27C18.7909 27 17 25.2091 17 23L17 13C17 10.7909 18.7909 9 21 9L26 9C28.2091 9 30 10.7909 30 13L30 23Z"/>
</svg>
