<svg width="50" height="50" viewBox="0 0 50 50" fill="none" xmlns="http://www.w3.org/2000/svg">
<path d="M49.2424 24.8106C49.2424 38.0948 38.4735 48.8637 25.1894 48.8637C11.9053 48.8637 1.13635 38.0948 1.13635 24.8106C1.13635 11.5265 11.9053 0.757614 25.1894 0.757614C38.4735 0.757614 49.2424 11.5265 49.2424 24.8106Z" fill="#E5E5E5"/>
<path d="M49.2424 24.8106C49.2424 38.0948 38.4735 48.8637 25.1894 48.8637C11.9053 48.8637 1.13635 38.0948 1.13635 24.8106C1.13635 11.5265 11.9053 0.757614 25.1894 0.757614C38.4735 0.757614 49.2424 11.5265 49.2424 24.8106Z" fill="#E5E5E5"/>
<circle cx="14.5834" cy="24.8106" r="3.97727" fill="black"/>
<circle cx="25.1894" cy="24.8106" r="3.97727" fill="black"/>
<circle cx="36.1742" cy="24.8106" r="3.97727" fill="black"/>
</svg>
