<svg width="284" height="284" viewBox="0 0 284 284" fill="none" xmlns="http://www.w3.org/2000/svg">
<circle cx="142" cy="142" r="142" fill="#6D8752"/>
<path d="M178.75 153.917C175.082 153.941 171.465 154.777 168.158 156.366C164.852 157.955 161.939 160.256 159.628 163.105L127.966 148.515C129.454 143.957 129.454 139.043 127.966 134.485L159.628 119.895C163.363 124.402 168.57 127.445 174.33 128.486C180.091 129.528 186.034 128.501 191.11 125.587C196.187 122.674 200.072 118.06 202.078 112.561C204.084 107.062 204.084 101.031 202.076 95.5329C200.069 90.0344 196.184 85.4216 191.106 82.5088C186.029 79.596 180.086 78.5704 174.326 79.613C168.566 80.6556 163.36 83.6993 159.625 88.207C155.891 92.7147 153.869 98.3966 153.917 104.25C153.935 105.729 154.081 107.204 154.351 108.658L121.571 123.744C118.076 120.327 113.651 118.017 108.849 117.104C104.047 116.191 99.0828 116.715 94.5776 118.611C90.0724 120.506 86.2269 123.69 83.5228 127.761C80.8186 131.833 79.3762 136.612 79.3762 141.5C79.3762 146.388 80.8186 151.167 83.5228 155.239C86.2269 159.31 90.0724 162.493 94.5776 164.389C99.0828 166.285 104.047 166.809 108.849 165.896C113.651 164.983 118.076 162.673 121.571 159.256L154.351 174.342C154.081 175.796 153.935 177.271 153.917 178.75C153.917 183.662 155.373 188.463 158.102 192.547C160.83 196.63 164.709 199.813 169.247 201.693C173.784 203.573 178.777 204.064 183.595 203.106C188.412 202.148 192.837 199.783 196.31 196.31C199.783 192.837 202.148 188.412 203.106 183.595C204.064 178.778 203.572 173.784 201.693 169.247C199.813 164.709 196.63 160.831 192.547 158.102C188.463 155.373 183.661 153.917 178.75 153.917ZM178.75 91.8333C181.206 91.8333 183.606 92.5616 185.648 93.9259C187.69 95.2903 189.282 97.2295 190.221 99.4983C191.161 101.767 191.407 104.264 190.928 106.672C190.449 109.081 189.266 111.293 187.53 113.03C185.793 114.766 183.581 115.949 181.172 116.428C178.764 116.907 176.267 116.661 173.998 115.721C171.729 114.782 169.79 113.19 168.426 111.148C167.061 109.106 166.333 106.706 166.333 104.25C166.333 100.957 167.641 97.7987 169.97 95.4701C172.299 93.1415 175.457 91.8333 178.75 91.8333V91.8333ZM104.25 153.917C101.794 153.917 99.3935 153.188 97.3516 151.824C95.3097 150.46 93.7182 148.52 92.7784 146.252C91.8386 143.983 91.5927 141.486 92.0718 139.078C92.5509 136.669 93.7335 134.457 95.47 132.72C97.2065 130.984 99.4189 129.801 101.828 129.322C104.236 128.843 106.733 129.089 109.002 130.028C111.27 130.968 113.21 132.56 114.574 134.602C115.938 136.644 116.667 139.044 116.667 141.5C116.667 144.793 115.358 147.951 113.03 150.28C110.701 152.608 107.543 153.917 104.25 153.917ZM178.75 191.167C176.294 191.167 173.893 190.438 171.852 189.074C169.81 187.71 168.218 185.77 167.278 183.502C166.339 181.233 166.093 178.736 166.572 176.328C167.051 173.919 168.233 171.707 169.97 169.97C171.706 168.234 173.919 167.051 176.328 166.572C178.736 166.093 181.233 166.339 183.502 167.278C185.77 168.218 187.71 169.81 189.074 171.852C190.438 173.894 191.167 176.294 191.167 178.75C191.167 182.043 189.858 185.201 187.53 187.53C185.201 189.858 182.043 191.167 178.75 191.167Z" fill="black"/>
</svg>
