<svg width="49" height="49" viewBox="0 0 49 49" xmlns="http://www.w3.org/2000/svg">
<path d="M36.7502 28.5831C35.544 28.5911 34.3545 28.8662 33.2672 29.3887C32.1799 29.9111 31.2219 30.668 30.4619 31.6048L20.0494 26.8069C20.539 25.3078 20.539 23.6918 20.0494 22.1927L30.4619 17.3948C31.6902 18.877 33.4026 19.8776 35.2969 20.2201C37.1912 20.5626 39.1455 20.225 40.8151 19.2668C42.4847 18.3086 43.7621 16.7914 44.4219 14.9831C45.0817 13.1747 45.0816 11.1913 44.4214 9.3831C43.7612 7.57484 42.4835 6.05791 40.8138 5.10001C39.1441 4.14211 37.1896 3.80483 35.2954 4.14768C33.4012 4.49054 31.689 5.4915 30.461 6.9739C29.2329 8.45631 28.568 10.3249 28.5836 12.2498C28.5897 12.7362 28.6375 13.2211 28.7265 13.6994L17.9465 18.6606C16.7972 17.5368 15.3418 16.7772 13.7627 16.4769C12.1836 16.1766 10.551 16.349 9.06943 16.9724C7.58786 17.5959 6.32321 18.6427 5.43394 19.9817C4.54466 21.3207 4.07031 22.8924 4.07031 24.4998C4.07031 26.1072 4.54466 27.6789 5.43394 29.0179C6.32321 30.3569 7.58786 31.4037 9.06943 32.0271C10.551 32.6506 12.1836 32.823 13.7627 32.5227C15.3418 32.2224 16.7972 31.4627 17.9465 30.3389L28.7265 35.3002C28.6375 35.7784 28.5897 36.2634 28.5836 36.7498C28.5836 38.365 29.0625 39.9439 29.9599 41.2869C30.8573 42.6299 32.1327 43.6767 33.625 44.2948C35.1173 44.9129 36.7593 45.0746 38.3435 44.7595C39.9277 44.4444 41.3828 43.6666 42.5249 42.5245C43.6671 41.3824 44.4449 39.9272 44.76 38.343C45.0751 36.7588 44.9134 35.1168 44.2953 33.6245C43.6771 32.1323 42.6304 30.8568 41.2874 29.9594C39.9444 29.0621 38.3655 28.5831 36.7502 28.5831ZM36.7502 8.16645C37.5579 8.16645 38.3473 8.40594 39.0188 8.85462C39.6903 9.3033 40.2137 9.94103 40.5228 10.6872C40.8318 11.4333 40.9127 12.2543 40.7551 13.0464C40.5976 13.8385 40.2087 14.5661 39.6376 15.1371C39.0665 15.7082 38.339 16.0971 37.5469 16.2547C36.7548 16.4122 35.9338 16.3314 35.1876 16.0223C34.4415 15.7132 33.8038 15.1899 33.3551 14.5184C32.9064 13.8469 32.6669 13.0574 32.6669 12.2498C32.6669 11.1668 33.0971 10.1282 33.8629 9.36243C34.6287 8.59666 35.6673 8.16645 36.7502 8.16645V8.16645ZM12.2502 28.5831C11.4426 28.5831 10.6532 28.3436 9.98167 27.895C9.31017 27.4463 8.78679 26.8085 8.47774 26.0624C8.16868 25.3163 8.08782 24.4953 8.24537 23.7032C8.40293 22.9111 8.79183 22.1835 9.36289 21.6124C9.93396 21.0414 10.6615 20.6525 11.4536 20.4949C12.2457 20.3374 13.0667 20.4182 13.8129 20.7273C14.559 21.0363 15.1967 21.5597 15.6454 22.2312C16.0941 22.9027 16.3336 23.6922 16.3336 24.4998C16.3336 25.5828 15.9034 26.6214 15.1376 27.3871C14.3718 28.1529 13.3332 28.5831 12.2502 28.5831ZM36.7502 40.8331C35.9426 40.8331 35.1532 40.5936 34.4817 40.145C33.8102 39.6963 33.2868 39.0585 32.9777 38.3124C32.6687 37.5663 32.5878 36.7453 32.7454 35.9532C32.9029 35.1611 33.2918 34.4335 33.8629 33.8624C34.434 33.2914 35.1615 32.9025 35.9536 32.7449C36.7457 32.5874 37.5667 32.6682 38.3129 32.9773C39.059 33.2863 39.6967 33.8097 40.1454 34.4812C40.5941 35.1527 40.8336 35.9422 40.8336 36.7498C40.8336 37.8328 40.4034 38.8714 39.6376 39.6371C38.8718 40.4029 37.8332 40.8331 36.7502 40.8331Z"/>
</svg>
