<svg width="36" height="35" viewBox="0 0 36 35" xmlns="http://www.w3.org/2000/svg">
<path fill-rule="evenodd" clip-rule="evenodd" fill="currentColor" d="M25.8548 0.823152C25.615 0.593119 25.2766 0.497236 24.9517 0.567289L15.6772 2.56743C15.5378 2.59748 15.4065 2.65698 15.292 2.74194L6.43552 9.31484C6.22032 9.47455 6.10034 9.73214 6.11656 9.99964C6.14017 10.3891 6.44364 10.7036 6.83206 10.741L7.16016 10.7726L7.22118 23.1094L6.49244 22.9697C5.86035 22.8485 5.28001 23.3473 5.30485 23.9904L5.50225 29.101L0.930061 29.6058C-0.19282 29.7297 -0.280913 31.3291 0.821537 31.5756L15.7126 34.9059C15.8291 34.9319 15.9493 34.9369 16.0676 34.9206L24.9005 33.7013L24.9214 33.6984L24.942 33.6938L31.2978 32.262C31.5768 32.1992 31.8155 32.0199 31.9537 31.7695L35.8173 24.7656C36.1878 24.0939 35.6954 23.2724 34.9284 23.2826L33.9937 23.2951C33.9891 23.2951 33.9845 23.2951 33.9799 23.2953L32.6624 23.3128L32.6229 22.6352C33.1019 22.5945 33.4779 22.197 33.4858 21.7101L33.6681 10.4651C34.1053 10.3676 34.4187 9.97918 34.4187 9.52832V9.46442C34.4187 9.19199 34.3076 8.93135 34.111 8.74276L25.8548 0.823152ZM33.0401 24.3079L32.6758 24.3127C32.141 24.3199 31.6953 23.905 31.6641 23.3711L31.6213 22.6373C31.5912 22.1223 31.9792 21.6824 32.4868 21.6415L32.6687 10.4166C32.6759 9.97185 32.9874 9.59192 33.4187 9.49554V9.46442L25.7218 2.08131L25.4694 2.47637L25.4195 2.55434L25.3451 2.60931L15.7551 9.69266L15.7971 31.2872L30.0499 29.0108L31.656 26.3463L31.663 26.3346L31.6706 26.3234L33.0401 24.3079ZM24.8324 1.61601L15.888 3.54496L7.44214 9.81308C7.46765 9.82056 7.49273 9.82902 7.51732 9.83841C7.5441 9.8306 7.57189 9.82494 7.60053 9.82163L15.0648 8.95934L24.6766 1.85991L24.8324 1.61601ZM8.16012 10.7636C8.16013 10.765 8.16014 10.7663 8.16015 10.7677L8.22116 23.1045C8.22428 23.7343 7.6514 24.2102 7.03284 24.0915L6.3041 23.9518L6.5015 29.0624C6.50267 29.0926 6.50248 29.1225 6.501 29.1521L14.7969 31.2321L14.7557 10.0017L8.16012 10.7636ZM5.88025 30.0271C5.79627 30.0613 5.7063 30.0846 5.61197 30.095L1.03978 30.5997L15.9309 33.93L24.7428 32.7136L31.0781 31.2865L34.9417 24.2825L34.2601 24.2916L32.5054 26.8742L30.7864 29.726L30.6665 29.925L30.4371 29.9617L15.799 32.2996L15.7994 32.5144L15.1879 32.361C15.1804 32.3593 15.173 32.3575 15.1657 32.3555L5.89825 30.0319C5.89219 30.0304 5.8862 30.0288 5.88025 30.0271Z"/>
</svg>
