<svg width="38" height="36" viewBox="0 0 38 36" fill="none" xmlns="http://www.w3.org/2000/svg">
<path fill-rule="evenodd" clip-rule="evenodd" d="M25.212 1.95441L16.9725 3.73134L9.11808 9.56051L15.9889 8.76678L25.212 1.95441ZM9.36104 10.9418L9.42119 23.1035C9.42493 23.8593 8.73748 24.4303 7.9952 24.288L7.5137 24.1956L7.6991 28.9956L15.5965 30.9756L15.5562 10.2261L9.36104 10.9418ZM6.89144 30.2364C6.80951 30.2644 6.72336 30.2839 6.63395 30.2938L3.25574 30.6667L16.9393 33.7269L25.7071 32.5166L31.9464 31.1111L35.6005 24.4871L35.367 24.4902L33.6739 26.9821L31.9578 29.8293L31.7899 30.1079L31.4687 30.1592L16.9994 32.4701L17 32.7708L16.1437 32.5561C16.1367 32.5546 16.1298 32.5529 16.1228 32.5511L16.1128 32.5484L6.89144 30.2364ZM34.9748 23.0953L33.851 23.1103L33.8329 22.8013C34.3185 22.6741 34.6774 22.2363 34.6858 21.7133L34.8657 10.6146C35.3121 10.4477 35.6188 10.0186 35.6188 9.52832V9.46442C35.6188 9.1375 35.4854 8.82474 35.2495 8.59843L26.9933 0.67882C26.7055 0.402779 26.2994 0.28772 25.9096 0.371784L16.635 2.37192C16.4678 2.40799 16.3102 2.47939 16.1729 2.58134L7.31636 9.15424C7.04689 9.35423 6.89665 9.67678 6.91695 10.0117C6.94652 10.4995 7.32652 10.8932 7.81291 10.9401L7.96109 10.9544L8.02001 22.8672L7.53014 22.7733C6.77163 22.6278 6.07522 23.2263 6.10503 23.9981L6.29524 28.9227L1.90815 29.407C0.560688 29.5557 0.454979 31.4749 1.77792 31.7708L16.669 35.1011C16.8088 35.1323 16.9531 35.1383 17.095 35.1187L25.9278 33.8994L25.9571 33.8954L25.986 33.8889L32.3418 32.4571C32.6766 32.3817 32.9631 32.1666 33.1288 31.8661L36.9925 24.8622C37.4371 24.0562 36.8462 23.0704 35.9258 23.0827L34.9938 23.0951C34.9875 23.0951 34.9811 23.0952 34.9748 23.0953ZM33.6591 24.5128L32.5052 26.211L32.4945 26.2267L32.4847 26.243L30.9266 28.828L16.9966 31.0528L16.9554 9.79343L26.464 2.77019L26.5682 2.69322L26.6379 2.58407L26.7592 2.39427L34.0756 9.41242C33.7154 9.60772 33.4757 9.98574 33.4688 10.4134L33.2896 21.4714C32.7659 21.6 32.3888 22.0877 32.4216 22.6489L32.4645 23.3828C32.5016 24.017 33.026 24.5112 33.6591 24.5128Z" fill="black"/>
</svg>
