<svg width="42" height="48" viewBox="0 0 42 48" fill="none" xmlns="http://www.w3.org/2000/svg">
<path fill-rule="evenodd" clip-rule="evenodd" d="M20.9797 5.08338L6.36991 22H10.3C11.515 22 12.5 22.985 12.5 24.2V44H30V24.2C30 22.985 30.985 22 32.2 22H35.205L20.9797 5.08338ZM19.333 0.870371C20.2181 -0.154526 21.8102 -0.14405 22.6818 0.892414L40.7543 22.3841C41.9577 23.8152 40.9403 26 39.0705 26H34V45.8C34 47.015 33.015 48 31.8 48H10.7C9.485 48 8.50001 47.015 8.50001 45.8V26H2.437C0.553557 26 -0.459064 23.7875 0.771988 22.362L19.333 0.870371Z"/>
</svg>
