<svg width="36" height="23" viewBox="0 0 36 23" fill="none" xmlns="http://www.w3.org/2000/svg">
<path fill-rule="evenodd" clip-rule="evenodd" d="M25.5607 0.439344C24.9749 -0.146443 24.0252 -0.146443 23.4394 0.439344C22.8536 1.02513 22.8536 1.97488 23.4394 2.56066L32.3214 11.4427L23.4966 19.3851C22.8808 19.9392 22.8309 20.8877 23.3851 21.5035C23.9393 22.1192 24.8877 22.1691 25.5035 21.6149L35.4947 12.6229C35.5072 12.6118 35.5195 12.6004 35.5317 12.5889C35.6598 12.4676 35.762 12.3288 35.8377 12.1795C36.0436 11.7745 36.0536 11.2956 35.8679 10.8833C35.8007 10.7342 35.7078 10.5938 35.5894 10.4688C35.5771 10.4559 35.5647 10.4432 35.5521 10.4307L25.5607 0.439344ZM10.4393 21.5607C11.0251 22.1465 11.9749 22.1465 12.5607 21.5607C13.1464 20.9749 13.1464 20.0251 12.5607 19.4394L3.67862 10.5573L12.5035 2.61496C13.1192 2.06077 13.1691 1.11234 12.6149 0.496572C12.0608 -0.119193 11.1123 -0.16911 10.4966 0.385078L0.50534 9.37717C0.492852 9.38825 0.480504 9.39958 0.468304 9.41115C0.340199 9.53242 0.238072 9.67124 0.162297 9.82049C-0.0435379 10.2255 -0.0535763 10.7045 0.132181 11.1167C0.199377 11.2658 0.292194 11.4062 0.410631 11.5312C0.422896 11.5441 0.435342 11.5569 0.44796 11.5693L10.4393 21.5607ZM19 1C19 0.447719 18.5523 3.8147e-06 18 3.8147e-06C17.4477 3.8147e-06 17 0.447719 17 1V21.5C17 22.0523 17.4477 22.5 18 22.5C18.5523 22.5 19 22.0523 19 21.5V1Z" />
</svg>
