<svg width="35" height="34" viewBox="0 0 35 34" fill="none" xmlns="http://www.w3.org/2000/svg">
<path fill-rule="evenodd" clip-rule="evenodd" d="M0.400024 6.99999C0.400024 3.35492 3.35494 0.399994 7.00002 0.399994H28.0714C31.7165 0.399994 34.6715 3.35491 34.6715 6.99999V27C34.6715 30.6451 31.7165 33.6 28.0715 33.6H7.00003C3.35495 33.6 0.400024 30.6451 0.400024 27V6.99999ZM7.00002 3.59999C5.12226 3.59999 3.60002 5.12223 3.60002 6.99999V27C3.60002 28.8778 5.12226 30.4 7.00003 30.4H28.0715C29.9492 30.4 31.4715 28.8778 31.4715 27V6.99999C31.4715 5.12223 29.9492 3.59999 28.0714 3.59999H7.00002Z" fill="black"/>
<rect x="13" y="7" width="9" height="20" rx="2" fill="#459A47"/>
</svg>
