<svg width="44" height="38" viewBox="0 0 44 38" fill="none" xmlns="http://www.w3.org/2000/svg">
<path d="M42.9921 1.07342C42.701 0.733291 42.3548 0.463321 41.9732 0.279086C41.5917 0.0948521 41.1825 0 40.7692 0C40.3559 0 39.9467 0.0948521 39.5652 0.279086C39.1837 0.463321 38.8374 0.733291 38.5463 1.07342L15.2218 28.145L5.42233 16.7503C5.12014 16.4119 4.76341 16.1459 4.37251 15.9673C3.98161 15.7887 3.5642 15.7012 3.1441 15.7096C2.72401 15.718 2.30946 15.8223 1.92412 16.0164C1.53879 16.2105 1.19021 16.4907 0.8983 16.841C0.606388 17.1912 0.376856 17.6047 0.222807 18.0578C0.0687587 18.5109 -0.00678932 18.9947 0.000478759 19.4816C0.00774684 19.9686 0.0976883 20.4491 0.265166 20.8957C0.432644 21.3424 0.67438 21.7464 0.976571 22.0847L12.9989 36.0197C13.2899 36.3598 13.6362 36.6298 14.0177 36.814C14.3993 36.9983 14.8085 37.0931 15.2218 37.0931C15.6351 37.0931 16.0443 36.9983 16.4258 36.814C16.8073 36.6298 17.1536 36.3598 17.4447 36.0197L42.9921 6.4079C43.3099 6.06808 43.5635 5.65565 43.737 5.1966C43.9104 4.73754 44 4.24182 44 3.74066C44 3.2395 43.9104 2.74378 43.737 2.28472C43.5635 1.82567 43.3099 1.41324 42.9921 1.07342Z" />
</svg>
