<svg width="40" height="40" viewBox="0 0 40 40" fill="none" xmlns="http://www.w3.org/2000/svg">
<path fill-rule="evenodd" clip-rule="evenodd" d="M20 0.200001C20.9941 0.200001 21.8 1.00589 21.8 2V7C21.8 7.99411 20.9941 8.8 20 8.8C19.0059 8.8 18.2 7.99411 18.2 7V2C18.2 1.00589 19.0059 0.200001 20 0.200001ZM20 27C23.866 27 27 23.866 27 20C27 16.134 23.866 13 20 13C16.134 13 13 16.134 13 20C13 23.866 16.134 27 20 27ZM20 31C26.0751 31 31 26.0751 31 20C31 13.9249 26.0751 9 20 9C13.9249 9 9 13.9249 9 20C9 26.0751 13.9249 31 20 31ZM21.8 33C21.8 32.0059 20.9941 31.2 20 31.2C19.0059 31.2 18.2 32.0059 18.2 33V38C18.2 38.9941 19.0059 39.8 20 39.8C20.9941 39.8 21.8 38.9941 21.8 38V33ZM39.8 20C39.8 20.9941 38.9941 21.8 38 21.8H33C32.0059 21.8 31.2 20.9941 31.2 20C31.2 19.0059 32.0059 18.2 33 18.2H38C38.9941 18.2 39.8 19.0059 39.8 20ZM7 21.8C7.99411 21.8 8.8 20.9941 8.8 20C8.8 19.0059 7.99411 18.2 7 18.2H2C1.00588 18.2 0.199997 19.0059 0.199997 20C0.199997 20.9941 1.00588 21.8 2 21.8H7ZM34.0007 5.99929C34.7037 6.70223 34.7037 7.84193 34.0007 8.54487L30.4652 12.0804C29.7622 12.7833 28.6225 12.7833 27.9196 12.0804C27.2166 11.3775 27.2166 10.2378 27.9196 9.53482L31.4551 5.99929C32.1581 5.29634 33.2978 5.29634 34.0007 5.99929ZM12.0804 30.4652C12.7833 29.7622 12.7833 28.6225 12.0804 27.9196C11.3775 27.2167 10.2378 27.2167 9.53482 27.9196L5.99929 31.4551C5.29634 32.1581 5.29634 33.2978 5.99929 34.0007C6.70223 34.7037 7.84193 34.7037 8.54487 34.0007L12.0804 30.4652ZM5.99928 5.99929C6.70223 5.29634 7.84192 5.29634 8.54487 5.99929L12.0804 9.53482C12.7833 10.2378 12.7833 11.3775 12.0804 12.0804C11.3775 12.7833 10.2378 12.7833 9.53482 12.0804L5.99928 8.54487C5.29634 7.84193 5.29634 6.70223 5.99928 5.99929ZM30.4652 27.9196C29.7622 27.2166 28.6225 27.2166 27.9196 27.9196C27.2167 28.6225 27.2167 29.7622 27.9196 30.4652L31.4551 34.0007C32.1581 34.7037 33.2978 34.7037 34.0007 34.0007C34.7037 33.2978 34.7037 32.1581 34.0007 31.4551L30.4652 27.9196Z"/>
</svg>
