<svg width="42" height="39" viewBox="0 0 42 39" fill="none" xmlns="http://www.w3.org/2000/svg">
<path fill-rule="evenodd" clip-rule="evenodd" d="M21.0001 0C13.7276 0 7.40536 4.14258 4.19442 10.2852L1.81063 9.66113C1.31063 9.56641 0.791101 9.7041 0.431726 10.0264C0.0733273 10.3477 -0.0760868 10.8096 0.0371944 11.251L2.20321 17.9092C2.28426 18.2148 2.48544 18.4863 2.77059 18.6729C2.94735 18.7891 3.14852 18.8682 3.36141 18.9072C3.4913 18.9307 3.62509 18.9395 3.75985 18.9316C4.11337 18.9111 4.44833 18.7812 4.70321 18.5635L9.98055 13.8516C10.2384 13.6279 10.3966 13.3281 10.4249 13.0098C10.4532 12.6904 10.3497 12.373 10.1349 12.1152C9.92001 11.8574 9.60751 11.6777 9.25399 11.6084L6.98641 11.0137C9.81259 6.11133 15.005 2.85449 21.0001 2.85449C28.6847 2.85449 35.1358 8.25781 36.8604 15.5469C36.921 15.9404 37.1397 16.291 37.464 16.5127C37.7882 16.7344 38.1886 16.8066 38.5675 16.7139C38.9474 16.6191 39.2706 16.3682 39.46 16.0195C39.628 15.71 39.6778 15.3486 39.5997 15.0059C39.5899 14.9629 39.5782 14.9199 39.5645 14.8779C37.5391 6.32129 29.9669 0 21.0001 0ZM6.00009 13.5469V13.5L6.04012 13.5107L6.00009 13.5469ZM4.31161 15H4.37118L4.32528 15.041L4.31161 15ZM38.2559 20.0801C37.8985 20.0938 37.5577 20.2197 37.297 20.4365L32.0196 25.1484C31.7618 25.3721 31.6036 25.6709 31.5753 25.9902C31.547 26.3096 31.6505 26.627 31.8653 26.8848C32.0802 27.1426 32.3936 27.3223 32.7462 27.3916L35.0147 27.9863C32.1876 32.8906 26.9952 36.1455 21.0001 36.1455C13.3155 36.1455 6.86434 30.7275 5.13973 23.4385C5.06844 23.1113 4.88583 22.8203 4.62606 22.6172C4.36532 22.4131 4.04305 22.3096 3.71493 22.3242C3.52352 22.335 3.33895 22.3848 3.17098 22.4688C2.97176 22.5693 2.79598 22.7178 2.66122 22.9053C2.5118 23.1143 2.42294 23.3564 2.39852 23.6064C2.38192 23.7725 2.39364 23.9424 2.43563 24.1074C4.46102 32.6641 12.0323 39 21.0001 39C28.2696 39 34.5938 34.8555 37.8057 28.7148L40.1895 29.3398C40.6895 29.4336 41.2091 29.2959 41.5675 28.9746C41.796 28.7695 41.9395 28.5078 41.9845 28.2314C42.0108 28.0732 42.004 27.9102 41.963 27.749L39.797 21.0908C39.714 20.7891 39.5138 20.5234 39.2325 20.3389C39.1104 20.2588 38.9757 20.1963 38.8341 20.1523C38.6495 20.0947 38.4532 20.0703 38.2559 20.0801ZM38.3321 26L38.3731 26.1289L37.8858 26H38.3321ZM36.0001 25.4541L35.96 25.4902L36.0001 25.501V25.4541Z" />
</svg>
