<svg width="49" height="37" viewBox="0 0 49 37" fill="none" xmlns="http://www.w3.org/2000/svg">
<path d="M2.97977 21.3351L3.6504 22.6768L3.6504 22.6768L2.97977 21.3351ZM23.7149 10.9712L23.0443 9.62946L23.0443 9.62947L23.7149 10.9712ZM25.3422 10.9712L24.6716 12.3129L24.6716 12.3129L25.3422 10.9712ZM46.0202 21.3065L46.6909 19.9648L46.6909 19.9648L46.0202 21.3065ZM46.0086 24.4505L46.6696 25.797L46.6696 25.797L46.0086 24.4505ZM24.897 34.8141L25.558 36.1606L25.558 36.1606L24.897 34.8141ZM23.2694 34.8024L22.5889 36.1391L22.5889 36.1391L23.2694 34.8024ZM2.96787 24.4673L2.28736 25.804L2.28736 25.804L2.96787 24.4673ZM23.9162 23.9505C24.502 24.5363 25.4518 24.5363 26.0376 23.9505L35.5835 14.4045C36.1693 13.8187 36.1693 12.869 35.5835 12.2832C34.9977 11.6974 34.048 11.6974 33.4622 12.2832L24.9769 20.7685L16.4916 12.2832C15.9058 11.6974 14.9561 11.6974 14.3703 12.2832C13.7845 12.869 13.7845 13.8187 14.3703 14.4045L23.9162 23.9505ZM26.167 22.8898C26.167 23.4942 25.6603 24.0309 24.9769 24.0309V27.0309C27.2649 27.0309 29.167 25.2028 29.167 22.8898H26.167ZM24.9769 24.0309C24.2935 24.0309 23.7868 23.4942 23.7868 22.8898H20.7868C20.7868 25.2028 22.6889 27.0309 24.9769 27.0309V24.0309ZM23.7868 22.8898C23.7868 22.2854 24.2935 21.7487 24.9769 21.7487V18.7487C22.6889 18.7487 20.7868 20.5769 20.7868 22.8898H23.7868ZM24.9769 21.7487C25.6603 21.7487 26.167 22.2854 26.167 22.8898H29.167C29.167 20.5769 27.2649 18.7487 24.9769 18.7487V21.7487ZM3.6504 22.6768L24.3855 12.3129L23.0443 9.62947L2.30914 19.9933L3.6504 22.6768ZM24.6716 12.3129L45.3496 22.6483L46.6909 19.9648L26.0128 9.62947L24.6716 12.3129ZM45.3476 23.104L24.236 33.4676L25.558 36.1606L46.6696 25.797L45.3476 23.104ZM23.95 33.4656L3.64838 23.1305L2.28736 25.804L22.5889 36.1391L23.95 33.4656ZM24.236 33.4676C24.1465 33.5116 24.0385 33.5107 23.95 33.4656L22.5889 36.1391C23.5191 36.6127 24.6211 36.6205 25.558 36.1606L24.236 33.4676ZM45.3496 22.6483C45.5506 22.7487 45.5503 23.0045 45.3476 23.104L46.6696 25.797C49.0999 24.604 49.1132 21.1755 46.6909 19.9648L45.3496 22.6483ZM24.3855 12.3129C24.4746 12.2684 24.5825 12.2684 24.6716 12.3129L26.0128 9.62947C25.0794 9.16294 23.9777 9.16293 23.0443 9.62946L24.3855 12.3129ZM2.30914 19.9933C-0.0925959 21.1938 -0.106176 24.5856 2.28736 25.804L3.64838 23.1305C3.45007 23.0296 3.45034 22.7768 3.6504 22.6768L2.30914 19.9933ZM26.4769 22.8898V0H23.4769V22.8898H26.4769Z"/>
</svg>
