<svg width="34" height="36" viewBox="0 0 34 36" fill="none" xmlns="http://www.w3.org/2000/svg">
<path fill-rule="evenodd" clip-rule="evenodd" d="M16.1774 2.09668H4.93548C3.31426 2.09668 2 3.41094 2 5.03216C2 6.65338 3.31426 7.96764 4.93547 7.96764H16.1774C17.7986 7.96764 19.1129 6.65338 19.1129 5.03216C19.1129 3.41093 17.7986 2.09668 16.1774 2.09668ZM4.93548 0.0966797C2.20969 0.0966797 0 2.30637 0 5.03216C0 7.41537 1.68915 9.40405 3.93555 9.86629V29.081C3.93555 30.7379 5.2787 32.081 6.93555 32.081H12.8872V30.8718C12.9226 33.5671 15.1185 35.7411 17.8222 35.7411H29.0641C31.7899 35.7411 33.9996 33.5314 33.9996 30.8056C33.9996 28.0798 31.7899 25.8701 29.0641 25.8701H17.8222C15.1185 25.8701 12.9226 28.0441 12.8872 30.7394V30.081H6.93555C6.38326 30.081 5.93555 29.6333 5.93555 29.081V19.1934H12.9071C13.135 21.7077 15.2485 23.6776 17.8222 23.6776H29.0641C31.7899 23.6776 33.9996 21.4679 33.9996 18.7421C33.9996 16.0163 31.7899 13.8066 29.0641 13.8066H17.8222C15.4966 13.8066 13.5467 15.4151 13.0243 17.5803V17.1934H5.93555V9.96764H16.1774C18.9032 9.96764 21.1129 7.75795 21.1129 5.03216C21.1129 2.30637 18.9032 0.0966797 16.1774 0.0966797H4.93548ZM29.0641 15.8066H17.8222C16.201 15.8066 14.8867 17.1209 14.8867 18.7421C14.8867 20.3633 16.201 21.6776 17.8222 21.6776H29.0641C30.6853 21.6776 31.9996 20.3633 31.9996 18.7421C31.9996 17.1209 30.6853 15.8066 29.0641 15.8066ZM17.8222 27.8701H29.0641C30.6853 27.8701 31.9996 29.1844 31.9996 30.8056C31.9996 32.4268 30.6853 33.7411 29.0641 33.7411H17.8222C16.201 33.7411 14.8867 32.4268 14.8867 30.8056C14.8867 29.1844 16.201 27.8701 17.8222 27.8701Z"/>
</svg>
