<svg width="50" height="50" viewBox="0 0 50 50" fill="none" xmlns="http://www.w3.org/2000/svg">
<path d="M49.2424 24.8106C49.2424 38.0947 38.4735 48.8637 25.1894 48.8637C11.9053 48.8637 1.13635 38.0947 1.13635 24.8106C1.13635 11.5265 11.9053 0.757599 25.1894 0.757599C38.4735 0.757599 49.2424 11.5265 49.2424 24.8106Z" fill="#E5E5E5"/>
<path d="M49.2424 24.8106C49.2424 38.0947 38.4735 48.8637 25.1894 48.8637C11.9053 48.8637 1.13635 38.0947 1.13635 24.8106C1.13635 11.5265 11.9053 0.757599 25.1894 0.757599C38.4735 0.757599 49.2424 11.5265 49.2424 24.8106Z" fill="#E5E5E5"/>
<circle cx="18" cy="18" r="6" fill="#848484" stroke="#494747" stroke-width="2"/>
<circle cx="33" cy="32" r="6" fill="#848484" stroke="#494747" stroke-width="2"/>
<path d="M18 24V30C18 31.1046 18.8954 32 20 32H27" stroke="#494747" stroke-width="2"/>
</svg>
