<?xml version="1.0" encoding="UTF-8" standalone="no"?>
<svg
   width="24"
   height="24"
   viewBox="0 0 24 24"
   version="1.1"
   id="svg1"
   sodipodi:docname="Tree.svg"
   inkscape:version="1.4 (e7c3feb1, 2024-10-09)"
   xmlns:inkscape="http://www.inkscape.org/namespaces/inkscape"
   xmlns:sodipodi="http://sodipodi.sourceforge.net/DTD/sodipodi-0.dtd"
   xmlns="http://www.w3.org/2000/svg"
   xmlns:svg="http://www.w3.org/2000/svg"
   xmlns:rdf="http://www.w3.org/1999/02/22-rdf-syntax-ns#"
   xmlns:cc="http://creativecommons.org/ns#"
   xmlns:dc="http://purl.org/dc/elements/1.1/">
  <defs
     id="defs1" />
  <sodipodi:namedview
     id="namedview1"
     pagecolor="#ffffff"
     bordercolor="#000000"
     borderopacity="0.25"
     inkscape:showpageshadow="2"
     inkscape:pageopacity="0.0"
     inkscape:pagecheckerboard="0"
     inkscape:deskcolor="#d1d1d1"
     inkscape:zoom="10.905725"
     inkscape:cx="12.837295"
     inkscape:cy="15.817381"
     inkscape:window-width="1352"
     inkscape:window-height="830"
     inkscape:window-x="0"
     inkscape:window-y="37"
     inkscape:window-maximized="0"
     inkscape:current-layer="svg1" />
  <title
     id="title1">NavTree</title>
  <path
     fill-rule="evenodd"
     clip-rule="evenodd"
     d="M 12.370805,3.7106579 H 4.8334096 c -0.7230513,0 -1.3388738,0.618141 -1.3388738,1.3891742 0,0.7710473 0.6158225,1.3891884 1.3388738,1.3891884 h 7.5373954 c 0.72305,0 1.338873,-0.6181411 1.338873,-1.3891884 0,-0.7710332 -0.615823,-1.3891742 -1.338873,-1.3891742 z M 4.8334096,2.0415251 c -1.6431995,0 -2.9752744,1.3822449 -2.9752744,3.058307 0,1.6724097 1.3262684,3.0522822 2.9645181,3.0582913 v 9.1602156 c 0,1.50844 1.1988723,2.731309 2.677747,2.731309 H 8.715428 c 0.3548313,1.276734 1.501784,2.223739 2.861886,2.223739 h 7.537409 c 1.643244,0 2.975274,-1.382193 2.975274,-3.058307 0,-1.675961 -1.33203,-3.058261 -2.975274,-3.058261 h -7.537409 c -1.360087,0 -2.5070252,0.946975 -2.8618713,2.223695 H 7.5004003 c -0.5751048,0 -1.0413465,-0.475552 -1.0413465,-1.062175 v -4.326301 h 2.2563889 c 0.3548314,1.276764 1.5017693,2.223756 2.8618713,2.223756 h 7.537409 c 1.643244,0 2.975274,-1.382256 2.975274,-3.058322 0,-1.676067 -1.33203,-3.0583079 -2.975274,-3.0583079 h -7.537409 c -1.360087,0 -2.5070399,0.9469909 -2.8618713,2.2237419 H 6.4590538 V 8.158154 h 5.9117512 c 1.643197,0 2.975273,-1.3822553 2.975273,-3.0583219 0,-1.6760621 -1.332074,-3.058307 -2.975273,-3.058307 z M 19.114723,10.768298 h -7.537409 c -0.723051,0 -1.338873,0.618141 -1.338873,1.389174 0,0.771048 0.615822,1.389187 1.338873,1.389187 h 7.537409 c 0.722993,0 1.338874,-0.618139 1.338874,-1.389187 0,-0.771033 -0.615881,-1.389174 -1.338874,-1.389174 z m -7.537409,7.057609 h 7.537409 c 0.722993,0 1.338874,0.618185 1.338874,1.389173 0,0.77114 -0.615881,1.389174 -1.338874,1.389174 h -7.537409 c -0.723051,0 -1.338873,-0.618034 -1.338873,-1.389174 0,-0.770987 0.615822,-1.389173 1.338873,-1.389173 z"
     style="stroke-width:0.150243"
     id="path1" />
  <metadata
     id="metadata1">
    <rdf:RDF>
      <cc:Work
         rdf:about="">
        <dc:title>NavTree</dc:title>
      </cc:Work>
    </rdf:RDF>
  </metadata>
</svg>
