<?xml version="1.0" encoding="UTF-8" standalone="no"?>
<svg
   width="30"
   height="30"
   viewBox="0 0 30 30"
   version="1.1"
   xmlns="http://www.w3.org/2000/svg"
   xmlns:svg="http://www.w3.org/2000/svg">
  <title>NavTree</title>
  <path
     fill-rule="evenodd"
     clip-rule="evenodd"
     d="M 15.49024,4.562505 H 6.1764712 c -0.8934562,0 -1.6544125,0.7638212 -1.6544125,1.7165675 0,0.9527637 0.7609563,1.716585 1.6544125,1.716585 H 15.49024 c 0.893455,0 1.654412,-0.7638213 1.654412,-1.716585 0,-0.9527463 -0.760957,-1.7165675 -1.654412,-1.7165675 z M 6.1764712,2.5 C 4.1460112,2.5 2.5,4.208005 2.5,6.2790725 2.5,8.3456275 4.1388362,10.0507 6.16318,10.058125 v 11.319048 c 0,1.86394 1.4814162,3.375009 3.3088237,3.375009 H 10.973383 C 11.411839,26.32981 12.8291,27.5 14.509743,27.5 h 9.313787 c 2.030514,0 3.67647,-1.707941 3.67647,-3.779073 0,-2.070942 -1.645956,-3.779015 -3.67647,-3.779015 h -9.313787 c -1.680625,0 -3.097868,1.170153 -3.536341,2.747763 H 9.4720037 c -0.7106424,0 -1.2867649,-0.587627 -1.2867649,-1.312502 v -5.345901 h 2.7881632 c 0.438456,1.577666 1.855698,2.747838 3.536341,2.747838 h 9.313787 c 2.030514,0 3.67647,-1.708018 3.67647,-3.779091 0,-2.071074 -1.645956,-3.779073 -3.67647,-3.779073 h -9.313787 c -1.680625,0 -3.097885,1.170173 -3.536341,2.747821 H 8.1852388 V 10.058163 H 15.49024 c 2.030458,0 3.67647,-1.7080168 3.67647,-3.7790905 C 19.16671,4.208005 17.520699,2.5 15.49024,2.5 Z M 23.82353,13.283453 h -9.313787 c -0.893455,0 -1.654411,0.76382 -1.654411,1.716566 0,0.952765 0.760956,1.716584 1.654411,1.716584 h 9.313787 c 0.893383,0 1.654412,-0.763819 1.654412,-1.716584 0,-0.952746 -0.761029,-1.716566 -1.654412,-1.716566 z m -9.313787,8.720909 h 9.313787 c 0.893383,0 1.654412,0.763876 1.654412,1.716565 0,0.952878 -0.761029,1.716568 -1.654412,1.716568 h -9.313787 c -0.893455,0 -1.654411,-0.76369 -1.654411,-1.716568 0,-0.952688 0.760956,-1.716565 1.654411,-1.716565 z"
     style="stroke-width:0.185652"/>
</svg>
