<?xml version="1.0" encoding="UTF-8" standalone="no"?>
<svg
   width="20"
   height="20"
   viewBox="0 0 20 20"
   version="1.1"
   id="svg1"
   sodipodi:docname="Tree.svg"
   inkscape:version="1.4 (e7c3feb1, 2024-10-09)"
   xmlns:inkscape="http://www.inkscape.org/namespaces/inkscape"
   xmlns:sodipodi="http://sodipodi.sourceforge.net/DTD/sodipodi-0.dtd"
   xmlns="http://www.w3.org/2000/svg"
   xmlns:svg="http://www.w3.org/2000/svg">
  <defs
     id="defs1" />
  <sodipodi:namedview
     id="namedview1"
     pagecolor="#ffffff"
     bordercolor="#000000"
     borderopacity="0.25"
     inkscape:showpageshadow="2"
     inkscape:pageopacity="0.0"
     inkscape:pagecheckerboard="0"
     inkscape:deskcolor="#d1d1d1"
     inkscape:zoom="6.6827969"
     inkscape:cx="11.073208"
     inkscape:cy="8.379725"
     inkscape:window-width="1328"
     inkscape:window-height="537"
     inkscape:window-x="0"
     inkscape:window-y="37"
     inkscape:window-maximized="0"
     inkscape:current-layer="svg1" />
  <path
     fill-rule="evenodd"
     clip-rule="evenodd"
     d="M 10.392192,1.650004 H 2.941177 c -0.714765,0 -1.32353,0.611057 -1.32353,1.373254 0,0.762211 0.608765,1.373268 1.32353,1.373268 h 7.451015 c 0.714764,0 1.323529,-0.611057 1.323529,-1.373268 0,-0.762197 -0.608765,-1.373254 -1.323529,-1.373254 z M 2.941177,0 C 1.316809,0 0,1.366404 0,3.023258 0,4.676502 1.311069,6.04056 2.930544,6.0465 v 9.055238 c 0,1.491153 1.185133,2.700007 2.647059,2.700007 H 6.778706 C 7.129471,19.063848 8.26328,20 9.607795,20 h 7.451029 C 18.683235,20 20,18.633647 20,16.976742 20,15.319988 18.683235,13.95353 17.058824,13.95353 H 9.607795 c -1.3445,0 -2.478295,0.936122 -2.829074,2.19821 H 5.577603 c -0.568514,0 -1.029412,-0.470101 -1.029412,-1.050002 v -4.276721 h 2.23053 c 0.350765,1.262133 1.484559,2.198271 2.829074,2.198271 h 7.451029 C 18.683235,13.023288 20,11.656874 20,10.000015 20,8.343156 18.683235,6.976757 17.058824,6.976757 H 9.607795 c -1.3445,0 -2.478309,0.936138 -2.829074,2.198256 H 4.548191 V 6.04653 h 5.844001 c 1.624367,0 2.941176,-1.366413 2.941176,-3.023272 C 13.333368,1.366404 12.016559,0 10.392192,0 Z M 17.058824,8.626762 H 9.607795 c -0.714765,0 -1.32353,0.611056 -1.32353,1.373253 0,0.762212 0.608765,1.373268 1.32353,1.373268 h 7.451029 c 0.714706,0 1.323529,-0.611056 1.323529,-1.373268 0,-0.762197 -0.608823,-1.373253 -1.323529,-1.373253 z m -7.451029,6.976727 h 7.451029 c 0.714706,0 1.323529,0.611102 1.323529,1.373253 0,0.762302 -0.608823,1.373254 -1.323529,1.373254 H 9.607795 c -0.714765,0 -1.32353,-0.610952 -1.32353,-1.373254 0,-0.762151 0.608765,-1.373253 1.32353,-1.373253 z"
     id="path1"
     style="stroke-width:0.148522" />
</svg>
