<svg width="27" height="31" viewBox="0 0 27 31" fill="none" xmlns="http://www.w3.org/2000/svg">
<path fill-rule="evenodd" clip-rule="evenodd" d="M12.602 2.6H4.16438C3.3004 2.6 2.6 3.3004 2.6 4.16438C2.6 5.02836 3.3004 5.72876 4.16438 5.72876H12.602C13.466 5.72876 14.1664 5.02836 14.1664 4.16438C14.1664 3.3004 13.466 2.6 12.602 2.6ZM4.16438 0C1.86446 0 0 1.86446 0 4.16438C0 6.12768 1.35863 7.77366 3.18699 8.21342H2.61942V24.1434C2.61942 25.9659 4.09689 27.4434 5.91942 27.4434H10.234V25.9701C10.2658 28.2427 12.1179 30.0752 14.398 30.0752H22.8356C25.1355 30.0752 27 28.2107 27 25.9108C27 23.6109 25.1355 21.7464 22.8356 21.7464H14.398C12.1179 21.7464 10.2658 23.5789 10.234 25.8515V24.8434H5.91942C5.53282 24.8434 5.21942 24.53 5.21942 24.1434V16.5691H10.3177C10.7052 18.4679 12.3847 19.8966 14.398 19.8966H22.8356C25.1355 19.8966 27 18.0321 27 15.7322C27 13.4323 25.1355 11.5678 22.8356 11.5678H14.398C12.4256 11.5678 10.7734 12.9391 10.3429 14.7803V13.9691H5.21942V8.32876H12.602C14.9019 8.32876 16.7664 6.4643 16.7664 4.16438C16.7664 1.86446 14.9019 0 12.602 0H4.16438ZM22.8356 14.1678H14.398C13.534 14.1678 12.8336 14.8682 12.8336 15.7322C12.8336 16.5962 13.534 17.2966 14.398 17.2966H22.8356C23.6996 17.2966 24.4 16.5962 24.4 15.7322C24.4 14.8682 23.6996 14.1678 22.8356 14.1678ZM14.398 24.3464H22.8356C23.6996 24.3464 24.4 25.0468 24.4 25.9108C24.4 26.7748 23.6996 27.4752 22.8356 27.4752H14.398C13.534 27.4752 12.8336 26.7748 12.8336 25.9108C12.8336 25.0468 13.534 24.3464 14.398 24.3464Z" />
</svg>
