<svg width="38" height="35" viewBox="0 0 38 35" fill="none" xmlns="http://www.w3.org/2000/svg">
<path fill-rule="evenodd" clip-rule="evenodd" d="M0.75 2C0.75 1.30964 1.30964 0.75 2 0.75H36C36.6904 0.75 37.25 1.30964 37.25 2C37.25 2.69036 36.6904 3.25 36 3.25H2C1.30964 3.25 0.75 2.69036 0.75 2ZM0.75 18.1055C0.75 17.4151 1.30964 16.8555 2 16.8555H36C36.6904 16.8555 37.25 17.4151 37.25 18.1055C37.25 18.7958 36.6904 19.3555 36 19.3555H2C1.30964 19.3555 0.75 18.7958 0.75 18.1055ZM2 32.0654C1.30964 32.0654 0.75 32.6251 0.75 33.3154C0.75 34.0058 1.30964 34.5654 2 34.5654H36C36.6904 34.5654 37.25 34.0058 37.25 33.3154C37.25 32.6251 36.6904 32.0654 36 32.0654H2Z" fill="black"/>
</svg>
