<svg width="31" height="28" viewBox="0 0 31 28" fill="none" xmlns="http://www.w3.org/2000/svg">
<path fill-rule="evenodd" clip-rule="evenodd" d="M3.5 8.5V4.5C3.5 3.94772 3.94771 3.5 4.5 3.5L26.5 3.5C27.0523 3.5 27.5 3.94771 27.5 4.5V8.5C27.5 9.05228 27.0523 9.5 26.5 9.5L4.5 9.5C3.94772 9.5 3.5 9.05229 3.5 8.5ZM4.5 12.5C2.29086 12.5 0.5 10.7091 0.5 8.5V4.5C0.5 2.29086 2.29086 0.5 4.5 0.5H26.5C28.7091 0.5 30.5 2.29086 30.5 4.5V8.5C30.5 10.7091 28.7091 12.5 26.5 12.5L4.5 12.5ZM3.5 23.5V19.5C3.5 18.9477 3.94772 18.5 4.5 18.5L26.5 18.5C27.0523 18.5 27.5 18.9477 27.5 19.5V23.5C27.5 24.0523 27.0523 24.5 26.5 24.5L4.5 24.5C3.94772 24.5 3.5 24.0523 3.5 23.5ZM4.5 27.5C2.29086 27.5 0.5 25.7091 0.5 23.5V19.5C0.5 17.2909 2.29086 15.5 4.5 15.5L26.5 15.5C28.7091 15.5 30.5 17.2909 30.5 19.5V23.5C30.5 25.7091 28.7091 27.5 26.5 27.5L4.5 27.5Z" />
</svg>
