<svg width="19" height="19" viewBox="0 0 19 19" fill="none" xmlns="http://www.w3.org/2000/svg">
<path d="M11.5 7V2C11.5 1.44772 11.9477 1 12.5 1H17.5C18.0523 1 18.5 1.44772 18.5 2V7C18.5 7.55228 18.0523 8 17.5 8H12.5C11.9477 8 11.5 7.55228 11.5 7Z" />
<path d="M1 7V2C1 1.44772 1.44772 1 2 1H7C7.55228 1 8 1.44772 8 2V7C8 7.55228 7.55228 8 7 8H2C1.44772 8 1 7.55228 1 7Z" />
<path d="M1 7V2C1 1.44772 1.44772 1 2 1H7C7.55228 1 8 1.44772 8 2V7C8 7.55228 7.55228 8 7 8H2C1.44772 8 1 7.55228 1 7Z" />
<path d="M11.5 17V12C11.5 11.4477 11.9477 11 12.5 11H17.5C18.0523 11 18.5 11.4477 18.5 12V17C18.5 17.5523 18.0523 18 17.5 18H12.5C11.9477 18 11.5 17.5523 11.5 17Z" />
<path d="M1 17V12C1 11.4477 1.44772 11 2 11H7C7.55228 11 8 11.4477 8 12V17C8 17.5523 7.55228 18 7 18H2C1.44772 18 1 17.5523 1 17Z" />
<path d="M1 17V12C1 11.4477 1.44772 11 2 11H7C7.55228 11 8 11.4477 8 12V17C8 17.5523 7.55228 18 7 18H2C1.44772 18 1 17.5523 1 17Z" />
</svg>
