<svg width="36" height="35" viewBox="0 0 36 35" fill="none" xmlns="http://www.w3.org/2000/svg">
<path fill-rule="evenodd" clip-rule="evenodd" d="M35 3H1V1H35V3ZM35 19.1053H1V17.1053H35V19.1053ZM1 34.3158H35V32.3158H1V34.3158Z" />
<path d="M1 3H0.5C0.5 3.27614 0.723858 3.5 1 3.5V3ZM35 3V3.5C35.2761 3.5 35.5 3.27614 35.5 3H35ZM1 1V0.5C0.723858 0.5 0.5 0.723858 0.5 1H1ZM35 1H35.5C35.5 0.723858 35.2761 0.5 35 0.5V1ZM1 19.1053H0.5C0.5 19.3814 0.723858 19.6053 1 19.6053V19.1053ZM35 19.1053V19.6053C35.2761 19.6053 35.5 19.3814 35.5 19.1053H35ZM1 17.1053V16.6053C0.723858 16.6053 0.5 16.8291 0.5 17.1053H1ZM35 17.1053H35.5C35.5 16.8291 35.2761 16.6053 35 16.6053V17.1053ZM35 34.3158V34.8158C35.2761 34.8158 35.5 34.5919 35.5 34.3158H35ZM1 34.3158H0.5C0.5 34.5919 0.723858 34.8158 1 34.8158V34.3158ZM35 32.3158H35.5C35.5 32.0396 35.2761 31.8158 35 31.8158V32.3158ZM1 32.3158V31.8158C0.723858 31.8158 0.5 32.0396 0.5 32.3158H1ZM1 3.5H35V2.5H1V3.5ZM0.5 1V3H1.5V1H0.5ZM35 0.5H1V1.5H35V0.5ZM35.5 3V1H34.5V3H35.5ZM1 19.6053H35V18.6053H1V19.6053ZM0.5 17.1053V19.1053H1.5V17.1053H0.5ZM35 16.6053H1V17.6053H35V16.6053ZM35.5 19.1053V17.1053H34.5V19.1053H35.5ZM35 33.8158H1V34.8158H35V33.8158ZM34.5 32.3158V34.3158H35.5V32.3158H34.5ZM1 32.8158H35V31.8158H1V32.8158ZM1.5 34.3158V32.3158H0.5V34.3158H1.5Z" />
</svg>
