<svg width="30" height="31" viewBox="0 0 30 31" fill="none" xmlns="http://www.w3.org/2000/svg">
<path fill-rule="evenodd" clip-rule="evenodd" d="M29.3613 5.75003C29.3613 2.57439 26.7869 3.0405e-05 23.6113 3.02662e-05L5.75001 2.94855e-05C2.57438 2.93467e-05 1.32389e-05 2.57439 1.31001e-05 5.75003L1.22759e-05 24.6063C1.21371e-05 27.782 2.57437 30.3563 5.75001 30.3563L23.6113 30.3563C26.7869 30.3563 29.3613 27.782 29.3613 24.6063L29.3613 5.75003ZM23.6113 1.50003C25.9585 1.50003 27.8613 3.40282 27.8613 5.75003L27.8613 24.6063C27.8613 26.9535 25.9585 28.8563 23.6113 28.8563L5.75001 28.8563C3.4028 28.8563 1.50001 26.9535 1.50001 24.6063L1.50001 5.75003C1.50001 3.40282 3.4028 1.50003 5.75001 1.50003L23.6113 1.50003ZM20.6542 13.7545C20.9487 14.0458 21.4236 14.0431 21.7148 13.7486C22.0061 13.4541 22.0035 12.9793 21.709 12.688L15.6724 6.71772L15.145 6.19612L14.6176 6.71772L8.58098 12.688C8.28648 12.9793 8.28385 13.4541 8.57512 13.7486C8.86639 14.0431 9.34126 14.0458 9.63577 13.7545L14.395 9.04757L14.395 23.9677C14.395 24.3819 14.7308 24.7177 15.145 24.7177C15.5592 24.7177 15.895 24.3819 15.895 23.9677L15.895 9.04757L20.6542 13.7545Z" />
</svg>
