<svg width="35" height="34" viewBox="0 0 35 34" fill="none" xmlns="http://www.w3.org/2000/svg">
<path fill-rule="evenodd" clip-rule="evenodd" d="M6 0.4C2.90721 0.4 0.4 2.90721 0.4 6V28C0.4 31.0928 2.90721 33.6 6 33.6H29.0714C32.1642 33.6 34.6714 31.0928 34.6714 28V6C34.6714 2.9072 32.1642 0.4 29.0714 0.4H6ZM3.6 6C3.6 4.67452 4.67452 3.6 6 3.6H29.0714C30.3969 3.6 31.4714 4.67452 31.4714 6V28C31.4714 29.3255 30.3969 30.4 29.0714 30.4H6C4.67452 30.4 3.6 29.3255 3.6 28V6ZM23.8714 16.5C23.8714 19.9794 21.0508 22.8 17.5714 22.8C14.092 22.8 11.2714 19.9794 11.2714 16.5C11.2714 13.0206 14.092 10.2 17.5714 10.2C21.0508 10.2 23.8714 13.0206 23.8714 16.5ZM27.0714 16.5C27.0714 21.7467 22.8181 26 17.5714 26C12.3247 26 8.07143 21.7467 8.07143 16.5C8.07143 11.2533 12.3247 7 17.5714 7C22.8181 7 27.0714 11.2533 27.0714 16.5Z" />
</svg>
