<?xml version="1.0" encoding="UTF-8"?>
<svg version="1.1" xmlns="http://www.w3.org/2000/svg" width="1024" height="1024">
<path d="M0 0 C337.92 0 675.84 0 1024 0 C1024 337.92 1024 675.84 1024 1024 C686.08 1024 348.16 1024 0 1024 C0 686.08 0 348.16 0 0 Z " fill="#FEFEFE" transform="translate(0,0)"/>
<path d="M0 0 C5.33632504 1.36703923 10.7018208 2.59073949 16.07421875 3.80664062 C25.38565119 5.93839572 34.68488839 8.11885018 43.97848511 10.32678223 C60.54825895 14.26275962 77.12314348 18.1771765 93.70232964 22.0733099 C97.14830758 22.88313291 100.59410494 23.69370038 104.03936768 24.50656128 C120.25598915 28.33187146 136.49022357 32.04704253 152.78012085 35.54885864 C162.48263955 37.64355687 172.10414863 39.98432623 181.71484375 42.46289062 C186.02032024 43.5560666 190.33989603 44.53327797 194.68359375 45.46289062 C195.8638916 45.7193335 197.04418945 45.97577637 198.26025391 46.23999023 C200.53285291 46.72946578 202.80849843 47.20507956 205.08740234 47.66430664 C211.26572412 49.00605362 215.23966045 50.30510621 219.63671875 54.93164062 C220.83862221 57.33544755 220.7609792 58.81899693 220.75976658 61.50374794 C220.76175763 62.47263061 220.76374868 63.44151328 220.76580006 64.43975604 C220.76288722 65.51172303 220.75997438 66.58369003 220.75697327 67.68814087 C220.7582549 69.38742015 220.7582549 69.38742015 220.75956243 71.1210283 C220.76121846 74.94284321 220.75569383 78.76461488 220.75024414 82.58642578 C220.74940645 85.31575041 220.7500759 88.04507417 220.75068665 90.7743988 C220.75121179 96.6637276 220.748066 102.55304535 220.74244881 108.44237137 C220.7343325 116.9574179 220.73171845 125.47245907 220.73046082 133.98750906 C220.7282705 147.80157157 220.72161097 161.61562819 220.7121582 175.4296875 C220.70298355 188.85123668 220.69590298 202.27278426 220.69165039 215.69433594 C220.69125631 216.93464443 220.69125631 216.93464443 220.69085426 218.20000966 C220.68954925 222.34805612 220.68828554 226.49610259 220.68704236 230.64414907 C220.67667039 265.07331716 220.65905263 299.50247826 220.63671875 333.93164062 C221.77316141 334.06207449 222.90960407 334.19250835 224.08048439 334.32689476 C225.60295094 334.50336632 227.1254082 334.67991797 228.64785767 334.85653687 C229.76578123 334.98451991 229.76578123 334.98451991 230.9062891 335.11508846 C238.46953367 335.99563396 245.96438605 337.20664973 253.47265625 338.47070312 C254.94553587 338.71542266 256.41848407 338.95972964 257.89149475 339.20365906 C260.99570899 339.7183135 264.09955109 340.23513032 267.20309448 340.7538147 C275.38637 342.12109358 283.57213218 343.47337868 291.7578125 344.82617188 C292.98066421 345.02844296 292.98066421 345.02844296 294.22821999 345.23480034 C308.83165878 347.64939148 323.44765608 349.9735002 338.07421875 352.24414062 C368.51393135 356.98845343 368.51393135 356.98845343 382.6567688 359.29159546 C384.49122857 359.58888849 386.32624058 359.88279743 388.16183472 360.17300415 C390.66159802 360.56886734 393.15903025 360.97711037 395.65625 361.38867188 C396.3817807 361.5008606 397.1073114 361.61304932 397.85482788 361.7286377 C402.9991253 362.59695995 407.58969433 363.78702918 411.27774048 367.65089417 C413.03879984 370.6064454 413.03421369 372.64514252 413.0690918 376.07714844 C413.08888596 377.31813293 413.10868011 378.55911743 413.1290741 379.83770752 C413.13584331 381.18672535 413.14229024 382.53574482 413.1484375 383.88476562 C413.1652881 385.2691202 413.18343887 386.65345951 413.20283508 388.03778076 C413.25030045 391.6741865 413.28013183 395.31053034 413.30627441 398.94714355 C413.33609768 402.66085025 413.38262187 406.37434375 413.42773438 410.08789062 C413.51372791 417.36903476 413.58109036 424.65019446 413.63671875 431.93164062 C414.84038086 432.45330811 416.04404297 432.97497559 417.28417969 433.51245117 C418.89659928 434.21832482 420.5088975 434.92447576 422.12109375 435.63085938 C422.9104834 435.97209839 423.69987305 436.3133374 424.51318359 436.66491699 C461.72490892 453.02853467 489.81792539 485.71676189 504.50048828 523.1328125 C518.31400465 560.19704402 516.88425686 602.85155635 500.56591797 638.93603516 C482.61734612 677.48349346 452.96154152 705.63769016 413.63671875 721.93164062 C413.63055542 722.79329834 413.63055542 722.79329834 413.62426758 723.67236328 C413.59115878 726.30146709 413.52050182 728.92830591 413.44921875 731.55664062 C413.44341797 732.46027344 413.43761719 733.36390625 413.43164062 734.29492188 C413.28624546 738.72139686 413.09674459 741.97547632 410.2734375 745.51757812 C406.9775059 748.53518661 404.75123962 749.05586478 400.44419646 749.06274313 C399.58349809 749.06652777 398.72279972 749.07031242 397.83601958 749.07421175 C396.88810732 749.07329982 395.94019507 749.07238789 394.9635582 749.07144833 C393.95423475 749.07439975 392.9449113 749.07735117 391.9050023 749.08039203 C388.48953717 749.08912193 385.07410576 749.0906672 381.65863037 749.0922699 C379.19852341 749.0969982 376.73841724 749.10214874 374.27831197 749.10768753 C368.20477904 749.12016293 362.1312559 749.12788983 356.05771415 749.13358632 C348.78566236 749.14063895 341.51362332 749.15339711 334.24157967 749.16613551 C315.82876595 749.19800316 297.41594378 749.21782341 279.00311172 749.23542103 C274.01742242 749.2401879 269.03173339 749.24519671 264.04604435 749.25022626 C233.1092364 749.28126902 202.17242631 749.30789181 171.23560715 749.32464504 C164.06673936 749.3285824 156.89787162 749.33259422 149.72900391 749.33666992 C148.83834679 749.33717159 147.94768968 749.33767326 147.03004295 749.33819013 C118.14339823 749.35461354 89.25683814 749.3930776 60.37023507 749.44395703 C30.6832892 749.49615099 0.99638841 749.5289555 -28.69060428 749.53622257 C-32.88150226 749.53725121 -37.07240015 749.53848753 -41.26329803 749.53984261 C-42.08812741 749.54010064 -42.91295678 749.54035868 -43.76278099 749.54062454 C-57.04952996 749.54532381 -70.33616756 749.5702763 -83.62287482 749.60259403 C-96.9721727 749.63459119 -110.32134488 749.64461591 -123.67067656 749.63216209 C-131.60560202 749.62541371 -139.54009642 749.63542524 -147.4749547 749.66928909 C-153.39402484 749.69271048 -159.31278246 749.68492346 -165.2318742 749.66482127 C-167.63095989 749.66158043 -170.03008485 749.66856992 -172.42910483 749.6866185 C-175.68239488 749.70961738 -178.93351516 749.69586759 -182.18675613 749.67272091 C-183.12530372 749.68819714 -184.06385131 749.70367338 -185.03083974 749.71961859 C-190.79587821 749.62864534 -193.87729398 748.48767474 -198.09214346 744.51105577 C-200.43582957 741.59897703 -200.48892983 738.82455139 -200.49208242 735.24424142 C-200.49535461 734.27291369 -200.4986268 733.30158597 -200.50199816 732.30082408 C-200.50051453 731.22909137 -200.49903091 730.15735867 -200.49750233 729.05314922 C-200.49985456 727.91352141 -200.50220679 726.77389359 -200.5046303 725.59973159 C-200.51016589 722.41748567 -200.51119067 719.2352741 -200.51035289 716.0530246 C-200.51052208 712.59811852 -200.51642471 709.14322155 -200.52159375 705.68831998 C-200.53093242 698.82746583 -200.53484392 691.96661812 -200.53711272 685.10575841 C-200.54007145 676.89142802 -200.54876685 668.67710623 -200.557527 660.46278034 C-200.57838467 640.60762923 -200.58884281 620.75247662 -200.5976566 600.89731711 C-200.60186075 591.50876799 -200.60708301 582.1202195 -200.61234113 572.73167092 C-200.63023141 540.60780104 -200.64522894 508.48393099 -200.65266132 476.36005688 C-200.65313608 474.34282935 -200.65361197 472.32560183 -200.65408899 470.3083743 C-200.65432536 469.30799055 -200.65456174 468.3076068 -200.65480528 467.27690839 C-200.6560065 462.20828723 -200.65722194 457.13966608 -200.65844727 452.07104492 C-200.65868742 451.06515416 -200.65892757 450.0592634 -200.65917499 449.0228911 C-200.66707148 416.39464197 -200.69051049 383.76642916 -200.72300321 351.13819589 C-200.75727609 316.65958674 -200.77701005 282.18099885 -200.78030556 247.70237237 C-200.78072312 243.91983528 -200.78120269 240.1372982 -200.78172874 236.35476112 C-200.78185194 235.42336174 -200.78197513 234.49196235 -200.78210205 233.53233875 C-200.78443712 218.52337332 -200.80011401 203.51444997 -200.82057059 188.50549956 C-200.84079396 173.42887649 -200.84632244 158.35230413 -200.83679996 143.27567001 C-200.83157156 134.31194973 -200.83752541 125.34839789 -200.85933463 116.38470175 C-200.87279402 110.40219 -200.87180901 104.41979481 -200.85893267 98.43728203 C-200.85200347 95.0252227 -200.85147648 91.61348649 -200.86849276 88.20145538 C-200.88346494 84.52989435 -200.87404009 80.85919392 -200.85826588 77.18765545 C-200.86848808 76.12294625 -200.87871029 75.05823704 -200.88924226 73.96126392 C-200.83270613 67.97561247 -200.38632975 64.47390127 -196.36328125 59.93164062 C-193.82006836 58.2331543 -193.82006836 58.2331543 -190.953125 56.91210938 C-189.88562012 56.41501465 -188.81811523 55.91791992 -187.71826172 55.40576172 C-182.1445147 52.95675251 -176.5544761 50.5644292 -170.92578125 48.24414062 C-168.89707002 47.4014135 -166.86910615 46.55690423 -164.84117126 45.71231079 C-163.37949549 45.10360452 -161.91762757 44.49535945 -160.45558167 43.88754272 C-150.76331363 39.85614986 -141.0954186 35.76693728 -131.42578125 31.68164062 C-130.0052243 31.08178848 -130.0052243 31.08178848 -128.55596924 30.46981812 C-112.81136152 23.82137875 -97.07816978 17.14626139 -81.35375977 10.45019531 C-79.80356113 9.79033416 -78.25334996 9.13050244 -76.703125 8.47070312 C-75.60582565 8.00333992 -75.60582565 8.00333992 -74.48635864 7.52653503 C-70.22133556 5.71257825 -65.94527288 3.92824324 -61.66015625 2.16210938 C-58.62752472 0.90661609 -55.65061457 -0.37839736 -52.7265625 -1.86914062 C-34.96939509 -10.66814676 -18.13135248 -4.72384158 0 0 Z " fill="#05371A" transform="translate(387.36328125,141.068359375)"/>
<path d="M0 0 C0 230.34 0 460.68 0 698 C-39.93 698 -79.86 698 -121 698 C-121 484.16 -121 270.32 -121 50 C-112.53490973 46.09303526 -104.11950816 42.32698117 -95.5 38.8125 C-92.96420381 37.77105164 -90.42890306 36.72849515 -87.89453125 35.68359375 C-87.2108699 35.40175232 -86.52720856 35.11991089 -85.8228302 34.82952881 C-75.91933932 30.73782355 -66.05626781 26.54954767 -56.1875 22.375 C-52.31262583 20.73668141 -48.43760626 19.09870704 -44.5625 17.4609375 C-43.63890182 17.07058823 -42.71530365 16.68023895 -41.76371765 16.27806091 C-34.41077969 13.17141929 -27.05367199 10.07514596 -19.6875 7 C-18.78346436 6.62149902 -17.87942871 6.24299805 -16.94799805 5.85302734 C-2.89221793 0 -2.89221793 0 0 0 Z " fill="#1AC218" transform="translate(333,168)"/>
<path d="M0 0 C35.24750587 7.95911423 35.24750587 7.95911423 47.66329956 11.03106689 C51.52115058 11.98499828 55.38167894 12.9279846 59.2421875 13.87109375 C59.99920456 14.0561145 60.75622162 14.24113525 61.53617859 14.4317627 C71.2540302 16.8012284 81.00419921 19.02788405 90.75537109 21.25537109 C96.75743963 22.63282098 102.7534604 24.03621231 108.75 25.4375 C110.00353271 25.73027832 111.25706543 26.02305664 112.54858398 26.32470703 C115.09426143 26.91933449 117.63991564 27.51406145 120.18554688 28.10888672 C127.70700942 29.86601282 135.22905456 31.62064448 142.7512207 33.37475586 C148.98988775 34.82980897 155.2279647 36.28730045 161.46484375 37.75 C171.76604941 40.16336767 182.06698211 42.57484722 192.390625 44.890625 C193.43537743 45.12519409 193.43537743 45.12519409 194.50123596 45.36450195 C197.84559599 46.11476458 201.19064703 46.86156225 204.53686523 47.60351562 C205.74544189 47.87357422 206.95401855 48.14363281 208.19921875 48.421875 C209.24940186 48.65487305 210.29958496 48.88787109 211.3815918 49.12792969 C216.28211776 50.3090024 221.13677807 51.67366675 226 53 C226 138.8 226 224.6 226 313 C215.95132743 311.88348083 215.95132743 311.88348083 212.23828125 311.24609375 C197.3942615 308.78378729 185.07576383 308.1038942 170.46704102 312.16625977 C160.08985233 315.05102866 149.62097965 317.46513658 139.125 319.875 C135.35511135 320.74324734 131.58562259 321.61321384 127.81640625 322.484375 C126.89064789 322.69829895 125.96488953 322.9122229 125.01107788 323.13262939 C116.67834527 325.06372087 108.36899077 327.08455629 100.0625 329.125 C87.90089558 332.10946915 75.70033878 334.87969818 63.46893311 337.56289673 C53.00973841 339.85820209 42.58886822 342.26702895 32.1875 344.8125 C6.86890963 351 6.86890963 351 0 351 C0 235.17 0 119.34 0 0 Z " fill="#FEFEFE" transform="translate(358,158)"/>
<path d="M0 0 C0 122.76 0 245.52 0 372 C-57.42 372 -114.84 372 -174 372 C-174 262.11 -174 152.22 -174 39 C-160.14 36.03 -160.14 36.03 -146 33 C-140.04065554 31.534038 -140.04065554 31.534038 -134.09130859 30.02832031 C-129.21741596 28.78750742 -124.31612998 27.67021175 -119.4140625 26.546875 C-117.08476149 26.0112272 -114.7555005 25.4754054 -112.42626953 24.93945312 C-111.78307644 24.79154957 -111.13988335 24.64364601 -110.47719955 24.49126053 C-101.94111771 22.52777784 -93.40801145 20.55141926 -84.87441635 18.5771637 C-78.84666046 17.18294007 -72.81857377 15.79014746 -66.79051018 14.39725494 C-61.59535249 13.19675026 -56.40032545 11.99568564 -51.20556641 10.79345703 C-46.09898631 9.61166319 -40.99207435 8.43131344 -35.88493347 7.2519455 C-33.96164602 6.80754599 -32.03847633 6.36263651 -30.11543274 5.91718292 C-27.43599487 5.29660312 -24.75613413 4.67788102 -22.07617188 4.05957031 C-21.3020546 3.87982162 -20.52793732 3.70007294 -19.73036194 3.51487732 C-4.46150271 0 -4.46150271 0 0 0 Z " fill="#1AC318" transform="translate(532,494)"/>
<path d="M0 0 C1.13526123 0.30550781 1.13526123 0.30550781 2.29345703 0.6171875 C24.29542572 6.74276246 42.46086434 18.44740927 59 34 C59.59039063 34.5259375 60.18078125 35.051875 60.7890625 35.59375 C79.16062109 52.65927362 89.77187139 76.94558135 95 101 C95.226875 101.93457031 95.45375 102.86914062 95.6875 103.83203125 C99.17045958 120.35190205 97.82466884 138.65305394 94 155 C93.83902832 155.69609375 93.67805664 156.3921875 93.51220703 157.109375 C85.65675975 189.7083493 64.49109405 218.42153254 36 236 C6.8232456 253.72679288 -28.76928524 260.31990019 -62.29931641 252.76635742 C-64.54434772 252.21320313 -66.7725174 251.61976368 -69 251 C-70.00691895 250.72712158 -70.00691895 250.72712158 -71.03417969 250.44873047 C-91.48326715 244.74236417 -108.77430644 233.57613326 -124 219 C-124.73476563 218.32839844 -125.46953125 217.65679688 -126.2265625 216.96484375 C-141.41465352 202.6086093 -151.07052725 184.52553986 -157.40673828 164.83447266 C-157.90527361 163.29291114 -158.43183142 161.76045151 -158.96484375 160.23046875 C-168.83547213 130.61858362 -164.02286945 94.78874013 -150.234375 67.1940918 C-133.81112239 35.80172874 -105.8202745 12.04479813 -72.0625 1.1875 C-48.57676888 -5.82544053 -23.67821827 -6.47814458 0 0 Z " fill="#1AC318" transform="translate(779,592)"/>
<path d="M0 0 C11.25223722 1.12522372 11.25223722 1.12522372 15.8359375 1.84106445 C17.40293396 2.08388153 17.40293396 2.08388153 19.00158691 2.331604 C20.67142639 2.59478424 20.67142639 2.59478424 22.375 2.86328125 C23.57942749 3.0510614 24.78385498 3.23884155 26.02478027 3.43231201 C29.32461901 3.9477777 32.62401456 4.46591295 35.92318726 4.98561478 C38.01906058 5.31550009 40.11509555 5.64433936 42.21118164 5.97286987 C73.05147292 10.80782126 103.86339208 15.81700157 134.67475891 20.83232117 C148.47503026 23.07851065 162.27642407 25.31761982 176.08007812 27.54293823 C178.44430126 27.92440842 180.80840109 28.30664385 183.17236328 28.68972778 C194.25674098 30.48578888 205.3251781 32.26575018 216.47583008 33.60107422 C219 34 219 34 220 35 C220.08871273 38.02977804 220.1151935 41.03667022 220.09765625 44.06640625 C220.09553383 45.42934059 220.09553383 45.42934059 220.09336853 46.81980896 C220.08775193 49.73407221 220.07519665 52.64825981 220.0625 55.5625 C220.05748714 57.53320202 220.05292386 59.50390524 220.04882812 61.47460938 C220.03777711 66.31643559 220.02050138 71.15820495 220 76 C218.5622522 75.78887573 218.5622522 75.78887573 217.09545898 75.57348633 C207.04968823 74.16730645 197.19987402 73.63547838 187.0625 73.6875 C185.94755661 73.69023422 185.94755661 73.69023422 184.81008911 73.69302368 C173.92180633 73.73790844 163.57615227 74.19177113 153 77 C152.3287207 77.16628906 151.65744141 77.33257813 150.96582031 77.50390625 C111.2753695 87.40360299 77.80517248 113.45775284 56.66601562 148.19189453 C46.40926364 165.60460912 39.75273839 184.98008441 37 205 C36.81695313 206.20785156 36.63390625 207.41570312 36.4453125 208.66015625 C32.89889483 237.85233021 37.96423499 267.72897807 51 294 C51.30663574 294.6295459 51.61327148 295.2590918 51.92919922 295.90771484 C59.19707582 310.69590336 68.58793588 323.17565032 80 335 C80.78890625 335.85207031 81.5778125 336.70414063 82.390625 337.58203125 C98.59554447 354.61866016 120.69722986 366.89742551 143 374 C143 374.33 143 374.66 143 375 C95.81 375 48.62 375 0 375 C0 251.25 0 127.5 0 0 Z " fill="#FDFDFD" transform="translate(556,491)"/>
<path d="M0 0 C13.86 0 27.72 0 42 0 C42 21.45 42 42.9 42 65 C63.45 65 84.9 65 107 65 C107 78.53 107 92.06 107 106 C85.55 106 64.1 106 42 106 C42 126.79 42 147.58 42 169 C28.14 169 14.28 169 0 169 C0 148.21 0 127.42 0 106 C-22.11 106 -44.22 106 -67 106 C-67 92.14 -67 78.28 -67 64 C-44.89 64 -22.78 64 0 64 C0 42.88 0 21.76 0 0 Z " fill="#FCFEFC" transform="translate(725,632)"/>
<path d="M0 0 C0.33 0 0.66 0 1 0 C1 230.34 1 460.68 1 698 C-38.93 698 -78.86 698 -120 698 C-120 484.16 -120 270.32 -120 50 C-119.01 50.33 -118.02 50.66 -117 51 C-117.33 263.85 -117.66 476.7 -118 696 C-79.06 696 -40.12 696 0 696 C0 466.32 0 236.64 0 0 Z " fill="#1ECF1B" transform="translate(332,168)"/>
<path d="M0 0 C0 0.66 0 1.32 0 2 C-6.30927835 4.62886598 -6.30927835 4.62886598 -9 5 C-9.66 4.34 -10.32 3.68 -11 3 C-4.5 0 -4.5 0 0 0 Z " fill="#153922" transform="translate(346,136)"/>
</svg>
