<svg xmlns="http://www.w3.org/2000/svg" xmlns:xlink="http://www.w3.org/1999/xlink" version="1.1" width="1000" height="1000" viewBox="0 0 1000 1000" xml:space="preserve">
<desc>Created with Fabric.js 3.5.0</desc>
<defs>
</defs>
<rect x="0" y="0" width="100%" height="100%" fill="#ffffff"/>
<g transform="matrix(1.2987 0 0 1.2987 499.9987 409.0919)" id="472018">
<path style="stroke: none; stroke-width: 1; stroke-dasharray: none; stroke-linecap: butt; stroke-dashoffset: 0; stroke-linejoin: miter; stroke-miterlimit: 4; is-custom-font: none; font-file-url: none; fill: rgb(0,0,0); fill-rule: nonzero; opacity: 1;" transform=" translate(-349.999, -280.001)" d="m 349.82 44.801 c -77.324 0 -139.82 62.574 -139.82 140 c 0 17.781 5.1836 40.363 11.199 56 l 128.8 274.4 l 128.8 -274.4 c 6.0469 -15.645 11.199 -38.211 11.199 -56 c 0 -77.426 -62.848 -140 -140.18 -140 z m 0.17578 72.801 c 37.117 0 67.199 30.035 67.199 67.199 c 0 37.164 -30.082 67.199 -67.199 67.199 s -67.199 -30.035 -67.199 -67.199 c 0 -37.164 30.082 -67.199 67.199 -67.199 z" stroke-linecap="round"/>
</g>
</svg>