<svg width="45" height="45" viewBox="0 0 45 45" fill="none" xmlns="http://www.w3.org/2000/svg">
<path d="M45 22.5C45 34.9264 34.9264 45 22.5 45C10.0736 45 0 34.9264 0 22.5C0 10.0736 10.0736 0 22.5 0C34.9264 0 45 10.0736 45 22.5Z" fill="#E5E5E5"/>
<path d="M45 22.5C45 34.9264 34.9264 45 22.5 45C10.0736 45 0 34.9264 0 22.5C0 10.0736 10.0736 0 22.5 0C34.9264 0 45 10.0736 45 22.5Z" fill="#E5E5E5"/>
<path d="M45 22.5C45 34.9264 34.9264 45 22.5 45C10.0736 45 0 34.9264 0 22.5C0 10.0736 10.0736 0 22.5 0C34.9264 0 45 10.0736 45 22.5Z" fill="#E5E5E5"/>
<path d="M45 22.5C45 34.9264 34.9264 45 22.5 45C10.0736 45 0 34.9264 0 22.5C0 10.0736 10.0736 0 22.5 0C34.9264 0 45 10.0736 45 22.5Z" fill="#E5E5E5"/>
<path d="M25.0323 29.9677H21V34H25.0323V29.9677Z" fill="#848484"/>
<path d="M21.8065 29.1613L21 29.9677H25.0323V34L25.8387 33.1935V29.1613H21.8065Z" fill="#C4C4C4" stroke="black" stroke-width="0.05"/>
<path d="M21 9.80648L21 27.5484L25.0323 27.5484L25.0323 9.80648L21 9.80648Z" fill="#848484"/>
<path d="M21.8065 9L21 9.80645H25.0323V27.5484L25.8387 26.7419V9H21.8065Z" fill="#C4C4C4" stroke="black" stroke-width="0.05"/>
</svg>
