<svg width="108" height="52" viewBox="0 0 108 52" fill="none" xmlns="http://www.w3.org/2000/svg">
<path d="M106.736 1.87203L107.835 49.5878L104.774 50.5189L103.682 0.165649L106.736 1.87203Z" fill="#E5E5E5"/>
<path d="M103.96 50.4991L103.967 50.7642L100.447 51.8344L99.9041 24.4858L103.418 24.9597L103.96 50.4991Z" fill="#E5E5E5"/>
<path d="M64.3143 3.56515L64.5227 48.6634L58.5641 49.6177L58.4648 1.81238L64.3143 3.56515Z" fill="#E5E5E5"/>
<path d="M30.1372 26.6196L29.9321 47.0465L23.6956 47.7092L23.9669 26.3247L30.1372 26.6196Z" fill="#E5E5E5"/>
<path d="M22.6436 5.0065L22.359 26.338L22.0745 47.6727L22.0712 47.8815L15.0571 48.627L15.7916 3.63477L22.6436 5.0065Z" fill="#E5E5E5"/>
<path d="M103.682 0.165649L104.774 50.5189L103.964 50.499H103.96L103.418 24.9596L99.9041 24.4858L85.6046 24.6448V24.6415L85.2804 0.944291L103.682 0.165649Z" fill="#848484"/>
<path d="M99.9041 24.4858L100.447 51.8344L80.3639 51.344L80.0629 24.7045L85.6046 24.6449L99.9041 24.4858Z" fill="#848484"/>
<path d="M58.4649 1.81238L58.5641 49.6177L43.8379 49.283L44.0298 2.42866L58.4649 1.81238Z" fill="#848484"/>
<path d="M23.9669 26.3247L23.6956 47.7092L22.0745 47.6727L22.359 26.338L23.9669 26.3247Z" fill="#848484"/>
<path d="M15.7915 3.63477L15.0571 48.627L0.165405 48.2857L1.16458 4.26099L15.7915 3.63477Z" fill="#848484"/>
<path d="M64.5227 48.6635L58.5641 49.6177" stroke="white" stroke-width="0.3" stroke-linecap="round" stroke-linejoin="round"/>
<path d="M99.9041 24.4858L100.447 51.8344" stroke="white" stroke-width="0.3" stroke-linecap="round" stroke-linejoin="round"/>
<path d="M80.0629 24.7045L85.6046 24.6449L99.9041 24.4858" stroke="white" stroke-width="0.3" stroke-linecap="round" stroke-linejoin="round"/>
<path d="M103.967 50.7641L103.96 50.499L103.418 24.9596" stroke="white" stroke-width="0.3" stroke-linecap="round" stroke-linejoin="round"/>
<path d="M23.9669 26.3247L23.6956 47.7092" stroke="white" stroke-width="0.3" stroke-linecap="round" stroke-linejoin="round"/>
<path d="M15.7916 3.63477L15.0571 48.627" stroke="white" stroke-width="0.3" stroke-linecap="round" stroke-linejoin="round"/>
<path d="M22.0712 47.8814L22.0745 47.6727L22.359 26.3379L22.6435 5.00647" stroke="white" stroke-width="0.3" stroke-linecap="round" stroke-linejoin="round"/>
<path d="M58.5641 49.6177L58.4648 1.81238" stroke="white" stroke-width="0.3" stroke-linecap="round" stroke-linejoin="round"/>
<path d="M103.964 50.499L104.774 50.5187" stroke="white" stroke-width="0.3" stroke-linecap="round" stroke-linejoin="round"/>
<path d="M85.2804 0.944336L85.6046 24.6415" stroke="white" stroke-width="0.3" stroke-linecap="round" stroke-linejoin="round"/>
<path d="M106.736 1.87203L103.682 0.165649" stroke="white" stroke-width="0.3" stroke-linecap="round" stroke-linejoin="round"/>
<path d="M85.2804 0.944291L103.682 0.165649" stroke="white" stroke-width="0.3" stroke-linecap="round" stroke-linejoin="round"/>
<path d="M107.835 49.5879L106.736 1.87207" stroke="white" stroke-width="0.3" stroke-linecap="round" stroke-linejoin="round"/>
<path d="M104.774 50.5189L107.835 49.5879" stroke="white" stroke-width="0.3" stroke-linecap="round" stroke-linejoin="round"/>
<path d="M80.0629 24.7045L80.3639 51.3439" stroke="white" stroke-width="0.3" stroke-linecap="round" stroke-linejoin="round"/>
<path d="M103.418 24.9597L99.9041 24.4858" stroke="white" stroke-width="0.3" stroke-linecap="round" stroke-linejoin="round"/>
<path d="M80.3639 51.344L100.447 51.8344" stroke="white" stroke-width="0.3" stroke-linecap="round" stroke-linejoin="round"/>
<path d="M100.447 51.8344L103.967 50.7642" stroke="white" stroke-width="0.3" stroke-linecap="round" stroke-linejoin="round"/>
<path d="M22.359 26.3378L23.9669 26.3247" stroke="white" stroke-width="0.3" stroke-linecap="round" stroke-linejoin="round"/>
<path d="M22.0745 47.6727L23.6956 47.7092" stroke="white" stroke-width="0.3" stroke-linecap="round" stroke-linejoin="round"/>
<path d="M30.1373 26.6196L23.9669 26.3247" stroke="white" stroke-width="0.3" stroke-linecap="round" stroke-linejoin="round"/>
<path d="M29.9321 47.0465L30.1373 26.6196" stroke="white" stroke-width="0.3" stroke-linecap="round" stroke-linejoin="round"/>
<path d="M23.6956 47.7092L29.9321 47.0465" stroke="white" stroke-width="0.3" stroke-linecap="round" stroke-linejoin="round"/>
<path d="M1.16458 4.26099L0.165405 48.2857" stroke="white" stroke-width="0.3" stroke-linecap="round" stroke-linejoin="round"/>
<path d="M22.6434 5.0065L15.7915 3.63477" stroke="white" stroke-width="0.3" stroke-linecap="round" stroke-linejoin="round"/>
<path d="M1.16455 4.26099L15.7915 3.63477" stroke="white" stroke-width="0.3" stroke-linecap="round" stroke-linejoin="round"/>
<path d="M0.165405 48.2858L15.0571 48.627" stroke="white" stroke-width="0.3" stroke-linecap="round" stroke-linejoin="round"/>
<path d="M15.0571 48.627L22.0712 47.8815" stroke="white" stroke-width="0.3" stroke-linecap="round" stroke-linejoin="round"/>
<path d="M44.0298 2.42871L43.8379 49.283" stroke="white" stroke-width="0.3" stroke-linecap="round" stroke-linejoin="round"/>
<path d="M58.4649 1.81238L44.0298 2.42866" stroke="white" stroke-width="0.3" stroke-linecap="round" stroke-linejoin="round"/>
<path d="M64.3143 3.56515L58.4648 1.81238" stroke="white" stroke-width="0.3" stroke-linecap="round" stroke-linejoin="round"/>
<path d="M64.5228 48.6634L64.3143 3.56519" stroke="white" stroke-width="0.3" stroke-linecap="round" stroke-linejoin="round"/>
<path d="M43.8379 49.2831L58.5641 49.6177" stroke="white" stroke-width="0.3" stroke-linecap="round" stroke-linejoin="round"/>
<path d="M103.682 0.165649L104.774 50.5189" stroke="white" stroke-width="0.3" stroke-linecap="round" stroke-linejoin="round"/>
</svg>
