<svg width="47" height="46" viewBox="0 0 47 46" fill="none" xmlns="http://www.w3.org/2000/svg">
<circle cx="23.7201" cy="23" r="22.5" fill="#E5E5E5" stroke="#848484"/>
<path d="M17.0193 10.685L12.4918 15.2126L12.3107 15.3937L19.1926 22.2756L12.4918 28.9764L17.0193 33.5039L23.7201 26.8031L30.2398 33.3228L34.7674 28.7953L28.4288 22.4567L35.1296 15.7559L30.602 11.2283L24.0823 17.748L17.0193 10.685Z" fill="#848484"/>
<path d="M12.3107 30.7874V28.9764L17.0193 33.3228L23.7201 26.622L30.4209 33.3228L35.1296 28.6142V30.063L30.0587 35.1339L23.3579 28.4331L16.6571 35.1339L12.3107 30.7874Z" fill="#C4C4C4"/>
<path d="M12.1296 16.8425V15.3937L19.1926 22.0945L18.2871 23L12.1296 16.8425Z" fill="#C4C4C4"/>
<path d="M35.1296 17.9291V15.937L28.4288 22.4567L29.6965 23.5433L35.1296 17.9291Z" fill="#C4C4C4"/>
</svg>
