<svg width="47" height="46" viewBox="0 0 47 46" fill="none" xmlns="http://www.w3.org/2000/svg">
<circle cx="23.4401" cy="23" r="22.5" fill="#E5E5E5" stroke="#848484"/>
<path d="M22.9552 18L23.1973 18.2388L22.9552 24.4478L23.8027 24.9254L25.2556 24.0896L25.4978 19.3134L37 25.1642L24.0448 34L10 24.806L22.9552 18Z" fill="#848484"/>
<path d="M26.44 10L24.4 10.84L22 17.44L24.28 16.24L23.92 25L25.36 24.16L25.84 15.4L28 14.32L26.44 10Z" fill="#05FF00" stroke="#05FF00" stroke-width="0.1"/>
<path d="M10.3527 26.7575V25.077L24.1565 34.3195L37 25.4371L36.7599 27.1176L30.4582 31.5588L24.1565 36L10.3527 26.7575Z" fill="#C4C4C4" stroke="#848484" stroke-width="0.1"/>
<path d="M26.4371 10.1929L25.4768 9.71274L23.4363 10.673L21.1556 17.1548L21.9959 17.6349L24.3965 11.0331L26.4371 10.1929Z" fill="#C4C4C4" stroke="black" stroke-width="0.1"/>
<path d="M24.2765 16.4346L23.4363 16.9147L23.0762 24.7169L23.9164 25.197L24.2765 16.4346Z" fill="#C4C4C4" stroke="black" stroke-width="0.1"/>
</svg>
