<svg width="47" height="47" viewBox="0 0 47 47" fill="none" xmlns="http://www.w3.org/2000/svg">
<path d="M46 23.5C46 35.9264 35.9264 46 23.5 46C11.0736 46 1 35.9264 1 23.5C1 11.0736 11.0736 1 23.5 1C35.9264 1 46 11.0736 46 23.5Z" fill="#E5E5E5"/>
<path d="M46 23.5C46 35.9264 35.9264 46 23.5 46C11.0736 46 1 35.9264 1 23.5C1 11.0736 11.0736 1 23.5 1C35.9264 1 46 11.0736 46 23.5Z" fill="#E5E5E5"/>
<path d="M46 23.5C46 35.9264 35.9264 46 23.5 46C11.0736 46 1 35.9264 1 23.5C1 11.0736 11.0736 1 23.5 1C35.9264 1 46 11.0736 46 23.5Z" fill="#E5E5E5"/>
<path d="M46 23.5C46 35.9264 35.9264 46 23.5 46C11.0736 46 1 35.9264 1 23.5C1 11.0736 11.0736 1 23.5 1C35.9264 1 46 11.0736 46 23.5Z" fill="#E5E5E5"/>
<path d="M46 23.5C46 35.9264 35.9264 46 23.5 46C11.0736 46 1 35.9264 1 23.5C1 11.0736 11.0736 1 23.5 1C35.9264 1 46 11.0736 46 23.5Z" stroke="#848484"/>
</svg>
