<svg width="46" height="46" viewBox="0 0 46 46" fill="none" xmlns="http://www.w3.org/2000/svg">
<circle cx="23" cy="23" r="22.5" fill="#E5E5E5" stroke="#848484"/>
<path d="M16.2993 16.6614L15.2126 15.5748H19.5591V13.0393H24.9922V14.126H20.6457V16.6614H16.2993Z" fill="#C4C4C4" stroke="black" stroke-width="0.1"/>
<path d="M30.0629 19.5591V8.51181L30.9685 10.1417V20.4646L25.5354 30.2441H20.6456L19.7401 28.9764H24.811L30.0629 19.5591Z" fill="#C4C4C4" stroke="#494747" stroke-width="0.1"/>
<path d="M24.4489 37.307H19.0159L19.9214 38.3937H25.1733V33.5039L24.4489 32.5984V37.307Z" fill="#C4C4C4" stroke="#494747" stroke-width="0.1"/>
<path d="M15.2126 8.51413V15.5547H19.5591V13.0393H24.9922V19.3097L19.799 29.0469H24.7382L30.063 19.559L30.0301 10.685V8.51413H27.5276H15.2126Z" fill="#848484"/>
<path d="M24.5265 32.6454H19.0228V37.3023H24.5265V32.6454Z" fill="#848484"/>
</svg>
