<svg width="281" height="141" viewBox="0 0 281 141" fill="none" xmlns="http://www.w3.org/2000/svg">
<g clip-path="url(#clip0_603_70)">
<path d="M275.06 0.5L274.47 66.97L273.22 66.96L249.6 66.7L250.07 1.12L275.06 0.5Z" fill="black"/>
<path d="M267.65 68.52L267.05 140.38L240.52 139.04V68.21L267.65 68.52Z" fill="black"/>
<path d="M240.52 68.2099V139.04L213.08 137.66L213.4 67.8899L240.52 68.2099Z" fill="black"/>
<path d="M133.74 65.0601L133.8 126.55L114.61 125.66L114.47 64.8601L133.74 65.0601Z" fill="black"/>
<path d="M153.01 65.2601L152.99 127.44L133.8 126.55L133.74 65.0601L153.01 65.2601Z" fill="black"/>
<path d="M153.04 3.07007L153.02 65.2601H153.01L133.74 65.0601L133.68 3.56007L153.04 3.07007Z" fill="black"/>
<path d="M133.68 3.56006L133.74 65.0601L114.47 64.8601L114.33 4.05006L133.68 3.56006Z" fill="black"/>
<path d="M39.5901 64.0801L40.0301 122.21L19.8301 121.27V63.8701L39.5901 64.0801Z" fill="black"/>
<path d="M19.8301 63.8699V121.27L1.67009 120.43L1.09009 63.6799L19.8301 63.8699Z" fill="black"/>
<path d="M19.83 6.43994V63.8699L1.09 63.6799L0.5 6.92994L19.83 6.43994Z" fill="black"/>
<path d="M166.65 121.7L152.99 127.44" stroke="#3B561E" stroke-linecap="round" stroke-linejoin="round"/>
<path d="M213.08 137.66L240.52 139.04L267.05 140.38" stroke="#3B561E" stroke-linecap="round" stroke-linejoin="round"/>
<path d="M267.05 140.38L272.64 133.63" stroke="#3B561E" stroke-linecap="round" stroke-linejoin="round"/>
<path d="M114.33 4.05005L114.47 64.8601L114.61 125.66" stroke="#3B561E" stroke-linecap="round" stroke-linejoin="round"/>
<path d="M153.04 3.07007L133.68 3.56007L114.33 4.05007" stroke="#3B561E" stroke-linecap="round" stroke-linejoin="round"/>
<path d="M166.8 6.23007L153.04 3.07007" stroke="#3B561E" stroke-linecap="round" stroke-linejoin="round"/>
<path d="M166.65 121.7L166.8 6.22998" stroke="#3B561E" stroke-linecap="round" stroke-linejoin="round"/>
<path d="M114.61 125.66L133.8 126.55L152.99 127.44" stroke="#3B561E" stroke-linecap="round" stroke-linejoin="round"/>
<path d="M62.1001 116.75L77.6301 112.92" stroke="#3B561E" stroke-linecap="round" stroke-linejoin="round"/>
<path d="M77.6301 112.92L77.3701 62.1699" stroke="#3B561E" stroke-linecap="round" stroke-linejoin="round"/>
<path d="M77.37 62.1699L61.78 63.0499" stroke="#3B561E" stroke-linecap="round" stroke-linejoin="round"/>
<path d="M58 116.58L62.1 116.75" stroke="#3B561E" stroke-linecap="round" stroke-linejoin="round"/>
<path d="M57.6499 61.99L77.3699 62.17" stroke="#3B561E" stroke-linecap="round" stroke-linejoin="round"/>
<path d="M57.6599 63.01L61.7799 63.05" stroke="#3B561E" stroke-linecap="round" stroke-linejoin="round"/>
<path d="M61.78 63.05L62.1 116.75" stroke="#3B561E" stroke-linecap="round" stroke-linejoin="round"/>
<path d="M39.1499 5.94995L39.5899 64.08L40.0299 122.21" stroke="#3B561E" stroke-linecap="round" stroke-linejoin="round"/>
<path d="M58.0001 117.77L57.9901 116.58L57.6501 63.0099V61.9899L57.3101 8.38989" stroke="#3B561E" stroke-linecap="round" stroke-linejoin="round"/>
<path d="M275.06 0.5L274.47 66.97L273.89 132.12" stroke="#3B561E" stroke-linecap="round" stroke-linejoin="round"/>
<path d="M267.65 68.52L267.05 140.38" stroke="#3B561E" stroke-linecap="round" stroke-linejoin="round"/>
<path d="M213.4 67.8899L240.52 68.2099L267.65 68.5199" stroke="#3B561E" stroke-linecap="round" stroke-linejoin="round"/>
<path d="M272.64 133.63L272.65 132.06L273.22 66.96" stroke="#3B561E" stroke-linecap="round" stroke-linejoin="round"/>
<path d="M222.65 66.4199L224.73 66.4399L273.22 66.9599" stroke="#3B561E" stroke-linecap="round" stroke-linejoin="round"/>
<path d="M153.02 65.2601L153.04 3.07007" stroke="#3B561E" stroke-linecap="round" stroke-linejoin="round"/>
<path d="M152.99 127.44L153.01 65.26" stroke="#3B561E" stroke-linecap="round" stroke-linejoin="round"/>
<path d="M0.5 6.92993L1.09 63.6799L1.67 120.43" stroke="#3B561E" stroke-linecap="round" stroke-linejoin="round"/>
<path d="M57.3099 8.38995L39.1499 5.94995" stroke="#3B561E" stroke-linecap="round" stroke-linejoin="round"/>
<path d="M0.5 6.92995L19.83 6.43995L39.15 5.94995" stroke="#3B561E" stroke-linecap="round" stroke-linejoin="round"/>
<path d="M1.66992 120.43L19.8299 121.27L40.0299 122.21" stroke="#3B561E" stroke-linecap="round" stroke-linejoin="round"/>
<path d="M40.03 122.21L58 117.77" stroke="#3B561E" stroke-linecap="round" stroke-linejoin="round"/>
<path d="M272.65 132.06L273.89 132.12" stroke="#3B561E" stroke-linecap="round" stroke-linejoin="round"/>
<path d="M225.07 1.73999L224.73 66.44" stroke="#3B561E" stroke-linecap="round" stroke-linejoin="round"/>
<path d="M279.69 3.6L275.06 0.5" stroke="#3B561E" stroke-linecap="round" stroke-linejoin="round"/>
<path d="M225.07 1.74L250.07 1.12L275.06 0.5" stroke="#3B561E" stroke-linecap="round" stroke-linejoin="round"/>
<path d="M278.56 126.47L279.69 3.6001" stroke="#3B561E" stroke-linecap="round" stroke-linejoin="round"/>
<path d="M273.89 132.12L278.56 126.47" stroke="#3B561E" stroke-linecap="round" stroke-linejoin="round"/>
<path d="M213.4 67.8899L213.08 137.66" stroke="#3B561E" stroke-linecap="round" stroke-linejoin="round"/>
<path d="M273.22 66.96L267.65 68.52" stroke="#3B561E" stroke-linecap="round" stroke-linejoin="round"/>
<path d="M222.65 66.4199L213.4 67.8899" stroke="#3B561E" stroke-linecap="round" stroke-linejoin="round"/>
<path d="M249.6 66.7001L250.07 1.12012" stroke="#3B561E" stroke-linecap="round" stroke-linejoin="round"/>
<path d="M224.73 66.4399L249.6 66.6999L273.22 66.9599L274.47 66.9699" stroke="#3B561E" stroke-linecap="round" stroke-linejoin="round"/>
<path d="M114.47 64.8601L133.74 65.0601L153.01 65.2601H153.02" stroke="#3B561E" stroke-linecap="round" stroke-linejoin="round"/>
<path d="M133.68 3.56006L133.74 65.0601L133.8 126.55" stroke="#3B561E" stroke-linecap="round" stroke-linejoin="round"/>
<path d="M1.09009 63.6799L19.8301 63.8699L39.5901 64.0799" stroke="#3B561E" stroke-linecap="round" stroke-linejoin="round"/>
<path d="M19.8301 6.43994V63.8699V121.27" stroke="#3B561E" stroke-linecap="round" stroke-linejoin="round"/>
<path d="M240.52 68.21V139.04" stroke="#3B561E" stroke-linecap="round" stroke-linejoin="round"/>
</g>
<defs>
<clipPath id="clip0_603_70">
<rect width="280.19" height="140.88" fill="white"/>
</clipPath>
</defs>
</svg>
