<svg width="320" height="139" viewBox="0 0 320 139" fill="none" xmlns="http://www.w3.org/2000/svg">
<path d="M0 4.27692L36 0V139L0 131.263V4.27692Z" fill="#848484"/>
<path d="M0 4.27692L36 0V139L0 131.263V4.27692Z" fill="#848484"/>
<path d="M0 4.27692L36 0V139L0 131.263V4.27692Z" fill="#848484"/>
<path d="M72 5.24895L36 0V139L72 134.179V5.24895Z" fill="#848484"/>
<path d="M72 5.24895L36 0V139L72 134.179V5.24895Z" fill="#848484"/>
<path d="M72 5.24895L36 0V139L72 134.179V5.24895Z" fill="white"/>
<path d="M110 76H74V134L110 130.027V76Z" fill="#848484"/>
<path d="M110 76H74V134L110 130.027V76Z" fill="#848484"/>
<path d="M110 76H74V134L110 130.027V76Z" fill="white"/>
<path d="M221 71H253V139L221 133.666V71Z" fill="#848484"/>
<path d="M221 71H253V139L221 133.666V71Z" fill="#848484"/>
<path d="M221 71H253V139L221 133.666V71Z" fill="#848484"/>
<path d="M255 3.29843L287 0V70H255V3.29843Z" fill="#848484"/>
<path d="M255 3.29843L287 0V70H255V3.29843Z" fill="#848484"/>
<path d="M255 3.29843L287 0V70H255V3.29843Z" fill="#848484"/>
<path d="M285 71.4338L253 71V139L285 135.458V71.4338Z" fill="#848484"/>
<path d="M285 71.4338L253 71V139L285 135.458V71.4338Z" fill="#848484"/>
<path d="M285 71.4338L253 71V139L285 135.458V71.4338Z" fill="white"/>
<path d="M320 4.92527L288 0V135L320 131.262V4.92527Z" fill="#848484"/>
<path d="M320 4.92527L288 0V135L320 131.262V4.92527Z" fill="#848484"/>
<path d="M320 4.92527L288 0V135L320 131.262V4.92527Z" fill="white"/>
<path d="M126 4.19963L164 0V139L126 132.708V4.19963Z" fill="#848484"/>
<path d="M126 4.19963L164 0V139L126 132.708V4.19963Z" fill="#848484"/>
<path d="M126 4.19963L164 0V139L126 132.708V4.19963Z" fill="#848484"/>
<path d="M202 5.05765L164 0V139L202 132.708V5.05765Z" fill="#848484"/>
<path d="M202 5.05765L164 0V139L202 132.708V5.05765Z" fill="#848484"/>
<path d="M202 5.05765L164 0V139L202 132.708V5.05765Z" fill="white"/>
</svg>
