<svg width="329" height="180" viewBox="0 0 329 180" fill="none" xmlns="http://www.w3.org/2000/svg">
<path d="M0 18.4L36 14V157L0 149.04V18.4Z" fill="#848484"/>
<path d="M0 18.4L36 14V157L0 149.04V18.4Z" fill="#848484"/>
<path d="M0 18.4L36 14V157L0 149.04V18.4Z" fill="#848484"/>
<path d="M72 19.4L36 14V157L72 152.04V19.4Z" fill="#848484"/>
<path d="M72 19.4L36 14V157L72 152.04V19.4Z" fill="#848484"/>
<path d="M72 19.4L36 14V157L72 152.04V19.4Z" fill="white"/>
<path d="M110 92H74V152L110 147.89V92Z" fill="#848484"/>
<path d="M110 92H74V152L110 147.89V92Z" fill="#848484"/>
<path d="M110 92H74V152L110 147.89V92Z" fill="white"/>
<path d="M212 92H250V180L212 173.098V92Z" fill="#848484"/>
<path d="M212 92H250V180L212 173.098V92Z" fill="#848484"/>
<path d="M212 92H250V180L212 173.098V92Z" fill="#848484"/>
<path d="M252 4.24084L290 0V90H252V4.24084Z" fill="#848484"/>
<path d="M252 4.24084L290 0V90H252V4.24084Z" fill="#848484"/>
<path d="M252 4.24084L290 0V90H252V4.24084Z" fill="#848484"/>
<path d="M288 92.5614L250 92V180L288 175.417V92.5614Z" fill="#848484"/>
<path d="M288 92.5614L250 92V180L288 175.417V92.5614Z" fill="#848484"/>
<path d="M288 92.5614L250 92V180L288 175.417V92.5614Z" fill="white"/>
<path d="M329 6.38462L291 0V175L329 170.154V6.38462Z" fill="#848484"/>
<path d="M329 6.38462L291 0V175L329 170.154V6.38462Z" fill="#848484"/>
<path d="M329 6.38462L291 0V175L329 170.154V6.38462Z" fill="white"/>
<path d="M123 10.8341L161 6V166L123 158.758V10.8341Z" fill="#848484"/>
<path d="M123 10.8341L161 6V166L123 158.758V10.8341Z" fill="#848484"/>
<path d="M123 10.8341L161 6V166L123 158.758V10.8341Z" fill="#848484"/>
<path d="M199 11.8218L161 6V166L199 158.758V11.8218Z" fill="#848484"/>
<path d="M199 11.8218L161 6V166L199 158.758V11.8218Z" fill="#848484"/>
<path d="M199 11.8218L161 6V166L199 158.758V11.8218Z" fill="white"/>
</svg>
