<svg width="344" height="231" viewBox="0 0 344 231" fill="none" xmlns="http://www.w3.org/2000/svg">
<path d="M332.129 23.7163L342.723 165.378L323.44 148.066L313.838 1L332.129 23.7163Z" fill="#848484"/>
<path d="M342.723 165.378L285.503 175.1L263.94 158.794L323.44 148.066L342.723 165.378Z" fill="#848484"/>
<path d="M313.838 1L323.44 148.066L263.94 158.794L263.766 153.524L318.384 143.52L313.53 66.2523L292.262 43.2947L260.32 50.8847L259.126 15.0669L313.838 1Z" fill="#60BB46"/>
<path d="M313.53 66.2523L318.384 143.52L296.419 123.794L292.262 43.2947L313.53 66.2523Z" fill="#848484"/>
<path d="M318.384 143.52L263.766 153.524L258.295 154.529L233.835 136.037L296.419 123.794L318.384 143.52Z" fill="#848484"/>
<path d="M292.262 43.2947L296.419 123.794L233.835 136.037L232.427 57.5225L260.32 50.8847L292.262 43.2947Z" fill="#60BB46"/>
<path d="M205.232 54.5589L205.608 188.671L177.407 171.439L179.083 31.7219L205.232 54.5589Z" fill="#848484"/>
<path d="M205.607 188.671L162.106 196.06L132.269 179.659L177.406 171.439L205.607 188.671Z" fill="#848484"/>
<path d="M179.083 31.7219L177.406 171.439L132.269 179.659L137.123 42.5973L179.083 31.7219Z" fill="#60BB46"/>
<path d="M109.566 160.215L106.562 223.322L80.7349 211.588L84.7444 146.282L109.566 160.215Z" fill="#848484"/>
<path d="M106.562 223.322L64.6968 230L37.8101 218.83L80.735 211.588L106.562 223.322Z" fill="#848484"/>
<path d="M84.7445 146.282L80.735 211.588L37.8101 218.83L38.1453 214.7L74.0435 208.544L77.986 147.677L84.7445 146.282Z" fill="#60BB46"/>
<path d="M82.304 81.1239L77.986 147.677L74.0435 208.544L45.333 195.483L55.8866 63.6509L82.304 81.1239Z" fill="#848484"/>
<path d="M38.1453 214.699L30.8369 215.947L1 203.556L45.333 195.483L74.0434 208.544L38.1453 214.699Z" fill="#848484"/>
<path d="M55.8865 63.6509L45.333 195.483L1 203.556L14.2355 74.4458L55.8865 63.6509Z" fill="#60BB46"/>
<path d="M292.262 43.2947L296.419 123.794" stroke="#05FF00" stroke-miterlimit="10"/>
<path d="M14.2356 74.4458L55.8866 63.6509" stroke="#05FF00" stroke-miterlimit="10"/>
<path d="M82.3039 81.1239L55.8865 63.6509" stroke="#05FF00" stroke-miterlimit="10"/>
<path d="M14.2355 74.4458L1 203.556" stroke="#05FF00" stroke-miterlimit="10"/>
<path d="M263.94 158.793L285.503 175.1" stroke="#05FF00" stroke-miterlimit="10"/>
<path d="M285.503 175.1L342.723 165.378" stroke="#05FF00" stroke-miterlimit="10"/>
<path d="M323.44 148.066L342.723 165.378" stroke="#05FF00" stroke-miterlimit="10"/>
<path d="M342.723 165.378L332.129 23.7163" stroke="#05FF00" stroke-miterlimit="10"/>
<path d="M259.126 15.0669L313.838 1" stroke="#05FF00" stroke-miterlimit="10"/>
<path d="M332.129 23.7163L313.838 1" stroke="#05FF00" stroke-miterlimit="10"/>
<path d="M259.126 15.0669L260.32 50.8846" stroke="#05FF00" stroke-miterlimit="10"/>
<path d="M37.8101 218.83L64.6968 230" stroke="#05FF00" stroke-miterlimit="10"/>
<path d="M64.6968 230L106.562 223.322" stroke="#05FF00" stroke-miterlimit="10"/>
<path d="M80.7349 211.588L106.562 223.322" stroke="#05FF00" stroke-miterlimit="10"/>
<path d="M106.562 223.322L109.566 160.215" stroke="#05FF00" stroke-miterlimit="10"/>
<path d="M109.566 160.215L84.7444 146.282" stroke="#05FF00" stroke-miterlimit="10"/>
<path d="M77.9858 147.677L84.7444 146.282" stroke="#05FF00" stroke-miterlimit="10"/>
<path d="M38.1453 214.686V214.699L37.8101 218.83" stroke="#05FF00" stroke-miterlimit="10"/>
<path d="M205.607 188.671L205.232 54.5588" stroke="#05FF00" stroke-miterlimit="10"/>
<path d="M205.232 54.5589L179.083 31.7219" stroke="#05FF00" stroke-miterlimit="10"/>
<path d="M179.083 31.7219L137.123 42.5973" stroke="#05FF00" stroke-miterlimit="10"/>
<path d="M137.123 42.5974L132.269 179.66" stroke="#05FF00" stroke-miterlimit="10"/>
<path d="M233.835 136.037L258.295 154.529" stroke="#05FF00" stroke-miterlimit="10"/>
<path d="M296.419 123.794L318.384 143.52" stroke="#05FF00" stroke-miterlimit="10"/>
<path d="M318.384 143.52L313.53 66.2522" stroke="#05FF00" stroke-miterlimit="10"/>
<path d="M313.53 66.2523L292.262 43.2947" stroke="#05FF00" stroke-miterlimit="10"/>
<path d="M232.427 57.5225L233.835 136.037" stroke="#05FF00" stroke-miterlimit="10"/>
<path d="M263.766 153.524L263.94 158.794" stroke="#05FF00" stroke-miterlimit="10"/>
<path d="M30.8369 215.946L38.1453 214.699L74.0434 208.544" stroke="#05FF00" stroke-miterlimit="10"/>
<path d="M45.333 195.483L74.0435 208.544" stroke="#05FF00" stroke-miterlimit="10"/>
<path d="M1 203.556L45.333 195.483" stroke="#05FF00" stroke-miterlimit="10"/>
<path d="M74.0435 208.544L77.986 147.677L82.3039 81.1238" stroke="#05FF00" stroke-miterlimit="10"/>
<path d="M55.8866 63.6509L45.333 195.483" stroke="#05FF00" stroke-miterlimit="10"/>
<path d="M263.94 158.794L323.44 148.066" stroke="#05FF00" stroke-miterlimit="10"/>
<path d="M313.838 1L323.44 148.066" stroke="#05FF00" stroke-miterlimit="10"/>
<path d="M37.8101 218.83L80.735 211.588" stroke="#05FF00" stroke-miterlimit="10"/>
<path d="M84.7444 146.282L80.7349 211.588" stroke="#05FF00" stroke-miterlimit="10"/>
<path d="M162.106 196.059L205.607 188.671" stroke="#05FF00" stroke-miterlimit="10"/>
<path d="M205.608 188.671L177.407 171.439" stroke="#05FF00" stroke-miterlimit="10"/>
<path d="M132.269 179.659L177.406 171.439" stroke="#05FF00" stroke-miterlimit="10"/>
<path d="M162.106 196.06L132.269 179.659" stroke="#05FF00" stroke-miterlimit="10"/>
<path d="M177.407 171.439L179.083 31.7219" stroke="#05FF00" stroke-miterlimit="10"/>
<path d="M258.295 154.529L263.766 153.524L318.384 143.52" stroke="#05FF00" stroke-miterlimit="10"/>
<path d="M233.835 136.037L296.419 123.794" stroke="#05FF00" stroke-miterlimit="10"/>
<path d="M232.427 57.5225L260.32 50.8847L292.262 43.2947" stroke="#05FF00" stroke-miterlimit="10"/>
<path d="M1 203.556L30.8369 215.947" stroke="#05FF00" stroke-miterlimit="10"/>
</svg>
