<svg width="272" height="108" viewBox="0 0 272 108" fill="none" xmlns="http://www.w3.org/2000/svg">
<path d="M1 8.73725L24.9854 7.96353V94.6205L1 92.8744V8.73725Z" fill="#E5E5E5"/>
<path d="M44.3285 50.5182H48.9708V92.2993H44.3285V50.5182Z" fill="#E5E5E5"/>
<path d="M144.139 2.54745L176.635 1V52.0657L144.139 51.9789V2.54745Z" fill="#E5E5E5"/>
<path d="M172.766 52.0657H176.635V102.358H172.766V52.0657Z" fill="#E5E5E5"/>
<path d="M120.927 52.0657H154.971V105.453L120.927 103.905V52.0657Z" fill="#E5E5E5"/>
<path d="M71.4087 5.64239L96.1678 4.09494V98.4891L72.1824 96.9417L71.4087 5.64239Z" fill="#E5E5E5"/>
<path d="M182.825 52.0657H213.774V104.679L182.825 103.131V52.0657Z" fill="#E5E5E5"/>
<path d="M222.285 52.0657H255.555L254.781 107L221.511 105.453L222.285 52.0657Z" fill="#E5E5E5"/>
<path d="M154.971 52.0657H172.766V103.131L154.971 105.453V52.0657Z" fill="#848484"/>
<path d="M24.9854 7.96353L44.3284 8.73725V92.2993L24.9854 94.6205V7.96353Z" fill="#848484"/>
<path d="M96.1678 4.09494L117.058 6.41611V96.1679L96.1678 98.4891V4.09494Z" fill="#848484"/>
<path d="M48.9708 50.5182H66.7664V90.7518L48.9708 92.2993V50.5182Z" fill="#848484"/>
<path d="M176.635 1L192.883 3.32117V52.0657H176.635V1Z" fill="#848484"/>
<path d="M213.774 52.0657H222.208L221.511 103.905L213.774 104.679V52.0657Z" fill="#848484"/>
<path d="M255.555 52.0657H271.029V103.905L254.781 107L255.555 52.0657Z" fill="#848484"/>
<path d="M176.635 52.0657H182.825V101.584L176.635 102.358V52.0657Z" fill="#848484"/>
<path d="M24.9854 7.96353V94.6205" stroke="black" stroke-width="0.24"/>
<path d="M221.511 88.4307L237.759 89.2044" stroke="black" stroke-width="0.24"/>
<path d="M221.511 105.453L254.781 107" stroke="black" stroke-width="0.24"/>
<path d="M44.3285 50.5182H66.7664" stroke="black" stroke-width="0.24"/>
<path d="M44.3284 8.73725L24.9854 7.96353" stroke="black" stroke-width="0.24"/>
<path d="M117.058 96.1679V6.41606" stroke="black" stroke-width="0.24"/>
<path d="M117.058 96.1679L96.1678 98.489" stroke="black" stroke-width="0.24"/>
<path d="M154.971 52.0657V105.453" stroke="black" stroke-width="0.24"/>
<path d="M172.766 52.0657H154.971" stroke="black" stroke-width="0.24"/>
<path d="M48.9707 50.5182V92.2993" stroke="black" stroke-width="0.24"/>
<path d="M117.058 6.41611L96.1678 4.09494" stroke="black" stroke-width="0.24"/>
<path d="M96.1678 98.4891V4.09494" stroke="black" stroke-width="0.24"/>
<path d="M271.029 52.0657H238.533" stroke="black" stroke-width="0.24"/>
<path d="M139.496 52.0657H172.766" stroke="black" stroke-width="0.24"/>
<path d="M255.555 52.0657H222.285" stroke="black" stroke-width="0.24"/>
<path d="M221.511 103.905L213.774 104.679" stroke="black" stroke-width="0.24"/>
<path d="M120.927 52.0657H154.971" stroke="black" stroke-width="0.24"/>
<path d="M48.9707 92.2992L66.7663 90.7518" stroke="black" stroke-width="0.24"/>
<path d="M192.883 52.0656V3.32112" stroke="black" stroke-width="0.24"/>
<path d="M1 92.8235L24.9501 94.6205L44.3285 92.2993" stroke="black" stroke-width="0.24"/>
<path d="M213.774 104.679V52.0657" stroke="black" stroke-width="0.24"/>
<path d="M71.4087 5.64241L72.1824 96.9417" stroke="black" stroke-width="0.24"/>
<path d="M238.533 52.0657H222.285" stroke="black" stroke-width="0.24"/>
<path d="M254.781 107L255.555 52.0657" stroke="black" stroke-width="0.24"/>
<path d="M271.029 103.905L254.781 107" stroke="black" stroke-width="0.24"/>
<path d="M66.7663 50.5182H48.9707" stroke="black" stroke-width="0.24"/>
<path d="M182.825 52.0657V103.131" stroke="black" stroke-width="0.24"/>
<path d="M44.3285 92.2993H48.9708" stroke="black" stroke-width="0.24"/>
<path d="M66.7665 90.7518V50.5182" stroke="black" stroke-width="0.24"/>
<path d="M44.3285 50.5182H48.9708" stroke="black" stroke-width="0.24"/>
<path d="M72.1825 96.9415L96.1679 98.489" stroke="black" stroke-width="0.24"/>
<path d="M176.635 1V102.358" stroke="black" stroke-width="0.24"/>
<path d="M222.285 52.0657L221.511 105.453" stroke="black" stroke-width="0.24"/>
<path d="M237.759 89.2044V88.4307" stroke="black" stroke-width="0.24"/>
<path d="M144.139 2.54745L176.635 1" stroke="black" stroke-width="0.24"/>
<path d="M144.139 2.54747V52.0657" stroke="black" stroke-width="0.24"/>
<path d="M172.766 102.358H176.635" stroke="black" stroke-width="0.24"/>
<path d="M1 8.7372V93.073" stroke="black" stroke-width="0.24"/>
<path d="M182.825 103.131L213.774 104.679" stroke="black" stroke-width="0.24"/>
<path d="M197.526 86.8832H198.299" stroke="black" stroke-width="0.24"/>
<path d="M230.796 52.0657H213.774" stroke="black" stroke-width="0.24"/>
<path d="M172.766 103.131V52.0657" stroke="black" stroke-width="0.24"/>
<path d="M213.774 52.0657H182.825" stroke="black" stroke-width="0.24"/>
<path d="M176.635 102.358L182.825 101.584" stroke="black" stroke-width="0.24"/>
<path d="M44.3285 92.2992V8.7372" stroke="black" stroke-width="0.24"/>
<path d="M192.883 3.32117L176.635 1" stroke="black" stroke-width="0.24"/>
<path d="M120.927 52.0657V103.905" stroke="black" stroke-width="0.24"/>
<path d="M139.496 52.0657H120.927" stroke="black" stroke-width="0.24"/>
<path d="M120.927 103.905L154.971 105.453" stroke="black" stroke-width="0.24"/>
<path d="M154.971 105.453L172.766 103.131" stroke="black" stroke-width="0.24"/>
<path d="M96.1678 4.09494L71.4087 5.64239" stroke="black" stroke-width="0.24"/>
<path d="M271.029 52.0657H255.555" stroke="black" stroke-width="0.24"/>
<path d="M1 8.73725L24.9854 7.96353" stroke="black" stroke-width="0.24"/>
<path d="M271.029 103.905V52.0657" stroke="black" stroke-width="0.24"/>
<path d="M198.299 103.905H197.526" stroke="black" stroke-width="0.24"/>
<path d="M44.3284 8.73722L24.5985 8.35036L24.9854 94.6204L44.3284 91.9124V8.73722Z" stroke="#848484"/>
<path d="M67.1532 50.9051H48.9707V92.2992L67.1532 90.7518V50.9051Z" stroke="#848484"/>
<path d="M117.058 6.41611L95.781 4.09494L96.1679 98.4891L117.058 96.1679V6.41611Z" stroke="#848484"/>
<path d="M173.153 52.4525V103.131L154.584 105.066V52.4525H173.153Z" stroke="#848484"/>
<path d="M176.635 102.745V1L192.496 3.70803V52.0657H182.825V101.971L176.635 102.745Z" stroke="#848484"/>
<path d="M192.496 52.0657H213.774V76L199.5 75.6936V77.3236L213.774 77.8224V104.679L199.073 103.905V86.8832H196.752V103.905L183.212 102.745" stroke="#848484"/>
<path d="M255.168 52.0657H222.285L221.511 86.8832L237.759 87.6569V89.5913L221.511 88.8175L221.124 105.453L255.168 107V75L238.5 74.4343V72.5L255.168 73V52.0657Z" stroke="#848484"/>
</svg>
