<svg width="47" height="47" viewBox="0 0 47 47" fill="none" xmlns="http://www.w3.org/2000/svg">
<path d="M46 23.5C46 35.9264 35.9264 46 23.5 46C11.0736 46 1 35.9264 1 23.5C1 11.0736 11.0736 1 23.5 1C35.9264 1 46 11.0736 46 23.5Z" fill="#E5E5E5"/>
<path d="M46 23.5C46 35.9264 35.9264 46 23.5 46C11.0736 46 1 35.9264 1 23.5C1 11.0736 11.0736 1 23.5 1C35.9264 1 46 11.0736 46 23.5Z" fill="#E5E5E5"/>
<path d="M46 23.5C46 35.9264 35.9264 46 23.5 46C11.0736 46 1 35.9264 1 23.5C1 11.0736 11.0736 1 23.5 1C35.9264 1 46 11.0736 46 23.5Z" fill="#E5E5E5"/>
<path d="M46 23.5C46 35.9264 35.9264 46 23.5 46C11.0736 46 1 35.9264 1 23.5C1 11.0736 11.0736 1 23.5 1C35.9264 1 46 11.0736 46 23.5Z" fill="#E5E5E5"/>
<path d="M46 23.5C46 35.9264 35.9264 46 23.5 46C11.0736 46 1 35.9264 1 23.5C1 11.0736 11.0736 1 23.5 1C35.9264 1 46 11.0736 46 23.5Z" stroke="#C4C4C4" stroke-width="0.5"/>
<path d="M33.7881 12H12V16.4196H33.7881V12Z" fill="#848484"/>
<path d="M33.7881 20.8393H12V25.2589H33.7881V20.8393Z" fill="#848484"/>
<path d="M33.7881 29.6786H12V34.0982H33.7881V29.6786Z" fill="#848484"/>
<path d="M13.1672 17.625L12 16.4196H33.7881V12L34.9554 13.2054V17.625H13.1672Z" fill="#C4C4C4" stroke="black" stroke-width="0.1"/>
<path d="M13.1672 26.4643L12 25.2589H33.7881V20.8393L34.9554 22.0447V26.4643H13.1672Z" fill="#C4C4C4" stroke="black" stroke-width="0.1"/>
<path d="M13.1672 35.3036L12 34.0982H33.7881V29.6786L34.9554 30.8839V35.3036H13.1672Z" fill="#C4C4C4" stroke="black" stroke-width="0.1"/>
</svg>
