<svg width="48" height="48" viewBox="0 0 48 48" fill="none" xmlns="http://www.w3.org/2000/svg">
<path d="M47.36 24C47.36 36.7025 37.0625 47 24.36 47C11.6574 47 1.35999 36.7025 1.35999 24C1.35999 11.2974 11.6574 1 24.36 1C37.0625 1 47.36 11.2974 47.36 24Z" fill="#E5E5E5"/>
<path d="M47.36 24C47.36 36.7025 37.0625 47 24.36 47C11.6574 47 1.35999 36.7025 1.35999 24C1.35999 11.2974 11.6574 1 24.36 1C37.0625 1 47.36 11.2974 47.36 24Z" fill="#E5E5E5"/>
<path d="M47.36 24C47.36 36.7025 37.0625 47 24.36 47C11.6574 47 1.35999 36.7025 1.35999 24C1.35999 11.2974 11.6574 1 24.36 1C37.0625 1 47.36 11.2974 47.36 24Z" fill="#E5E5E5"/>
<path d="M47.36 24C47.36 36.7025 37.0625 47 24.36 47C11.6574 47 1.35999 36.7025 1.35999 24C1.35999 11.2974 11.6574 1 24.36 1C37.0625 1 47.36 11.2974 47.36 24Z" fill="#E5E5E5"/>
<path d="M47.36 24C47.36 36.7025 37.0625 47 24.36 47C11.6574 47 1.35999 36.7025 1.35999 24C1.35999 11.2974 11.6574 1 24.36 1C37.0625 1 47.36 11.2974 47.36 24Z" stroke="#848484"/>
<path d="M19.0707 8.96265L7.96912 20.7528L19.7979 31.578L23.5173 27.7666L35.0914 38.6649L38.5805 34.9594L27.0914 24.1413L30.8977 20.099L19.0707 8.96265Z" fill="#848484"/>
<path d="M19.189 12.8992L11.8708 20.6713L19.6429 27.9894L26.961 20.2174L19.189 12.8992Z" fill="#E5E5E5" stroke="black" stroke-width="0.1"/>
<path d="M22.9102 30.6689L19.7634 31.6143L23.5187 27.6985L24.719 28.8388L22.9102 30.6689Z" fill="#C4C4C4"/>
<path d="M21.039 8.90352L19.0707 8.96272L30.8977 20.099L27.0795 24.154L38.5686 34.9721L35.0686 38.6892L37.0369 38.63L40.5369 34.9129L29.0478 24.0948L32.866 20.0398L21.039 8.90352Z" fill="#C4C4C4"/>
<path d="M19.189 12.8992L11.8708 20.6713L19.6429 27.9894L20.5974 26.9757L13.8391 20.6121L20.2027 13.8538L19.189 12.8992Z" fill="#C4C4C4"/>
</svg>
