<svg width="48" height="48" viewBox="0 0 48 48" fill="none" xmlns="http://www.w3.org/2000/svg">
<path d="M47.36 24C47.36 36.7025 37.0625 47 24.36 47C11.6574 47 1.35999 36.7025 1.35999 24C1.35999 11.2974 11.6574 1 24.36 1C37.0625 1 47.36 11.2974 47.36 24Z" fill="#E5E5E5"/>
<path d="M47.36 24C47.36 36.7025 37.0625 47 24.36 47C11.6574 47 1.35999 36.7025 1.35999 24C1.35999 11.2974 11.6574 1 24.36 1C37.0625 1 47.36 11.2974 47.36 24Z" fill="#E5E5E5"/>
<path d="M47.36 24C47.36 36.7025 37.0625 47 24.36 47C11.6574 47 1.35999 36.7025 1.35999 24C1.35999 11.2974 11.6574 1 24.36 1C37.0625 1 47.36 11.2974 47.36 24Z" fill="#E5E5E5"/>
<path d="M47.36 24C47.36 36.7025 37.0625 47 24.36 47C11.6574 47 1.35999 36.7025 1.35999 24C1.35999 11.2974 11.6574 1 24.36 1C37.0625 1 47.36 11.2974 47.36 24Z" fill="#E5E5E5"/>
<path d="M47.36 24C47.36 36.7025 37.0625 47 24.36 47C11.6574 47 1.35999 36.7025 1.35999 24C1.35999 11.2974 11.6574 1 24.36 1C37.0625 1 47.36 11.2974 47.36 24Z" stroke="#848484"/>
<path d="M19.1824 11.9952L9.96912 21.7799L19.7859 30.7638L22.8726 27.6007L32.4781 36.6452L35.3737 33.5701L25.8388 24.592L28.9977 21.2373L19.1824 11.9952Z" fill="#848484"/>
<path d="M19.2805 15.2622L13.2072 21.7122L19.6572 27.7856L25.7305 21.3356L19.2805 15.2622Z" fill="#E5E5E5" stroke="black" stroke-width="0.1"/>
<path d="M22.3688 30.0093L19.7573 30.7939L22.8739 27.5442L23.87 28.4905L22.3688 30.0093Z" fill="#C4C4C4"/>
<path d="M20.8159 11.9462L19.1824 11.9953L28.9976 21.2374L25.8289 24.6026L35.3638 33.5806L32.4591 36.6654L34.0926 36.6163L36.9973 33.5315L27.4624 24.5535L30.6311 21.1882L20.8159 11.9462Z" fill="#C4C4C4"/>
<path d="M19.2805 15.2622L13.2072 21.7123L19.6572 27.7856L20.4494 26.9443L14.8406 21.6631L20.1218 16.0544L19.2805 15.2622Z" fill="#C4C4C4"/>
</svg>
