<svg width="46" height="46" viewBox="0 0 46 46" fill="none" xmlns="http://www.w3.org/2000/svg">
<circle cx="23" cy="23" r="22.9" stroke="black" stroke-width="0.2"/>
<path d="M28.14 11.0086C28.3455 11.0375 28.5389 11.1249 28.697 11.2608L39.6107 20.428C39.8574 20.6369 40 20.9452 40 21.27C40 21.5951 39.8574 21.9033 39.6107 22.1123L28.697 31.2795C28.4841 31.456 28.2126 31.5447 27.9373 31.5278C27.6622 31.511 27.4033 31.3897 27.2132 31.1884C27.0229 30.9871 26.9153 30.7209 26.912 30.4428V26.7874C24.4513 26.811 15.9879 27.2829 9.80215 32.7346C9.56031 32.9441 9.23956 33.0362 8.92437 32.9871C8.60945 32.9377 8.33133 32.7523 8.16359 32.4788C7.99561 32.2056 7.95475 31.8721 8.05143 31.566C11.1077 22.0746 20.2937 17.8734 26.9114 16.0504V12.1086C26.9091 11.7914 27.0426 11.4886 27.2778 11.2778C27.5131 11.067 27.8276 10.9692 28.14 11.0086ZM29.0949 14.4463V16.8757C29.0949 17.1195 29.0147 17.3566 28.8665 17.5494C28.7183 17.7425 28.5107 17.8802 28.2763 17.9413C22.9288 19.3059 15.6806 22.3609 11.8602 28.5753C19.1691 24.2469 27.3668 24.5434 28.0606 24.5761C28.34 24.591 28.6034 24.7132 28.7957 24.9179C28.9883 25.1227 29.0954 25.3941 29.0951 25.6762V28.0942L37.2233 21.2764L29.0949 14.4463Z" fill="black"/>
</svg>
