<svg width="48" height="48" viewBox="0 0 48 48" fill="none" xmlns="http://www.w3.org/2000/svg">
<path d="M47.4 24C47.4 36.7025 37.1026 47 24.4 47C11.6975 47 1.40002 36.7025 1.40002 24C1.40002 11.2974 11.6975 1 24.4 1C37.1026 1 47.4 11.2974 47.4 24Z" fill="#E5E5E5"/>
<path d="M47.4 24C47.4 36.7025 37.1026 47 24.4 47C11.6975 47 1.40002 36.7025 1.40002 24C1.40002 11.2974 11.6975 1 24.4 1C37.1026 1 47.4 11.2974 47.4 24Z" fill="#E5E5E5"/>
<path d="M47.4 24C47.4 36.7025 37.1026 47 24.4 47C11.6975 47 1.40002 36.7025 1.40002 24C1.40002 11.2974 11.6975 1 24.4 1C37.1026 1 47.4 11.2974 47.4 24Z" fill="#E5E5E5"/>
<path d="M47.4 24C47.4 36.7025 37.1026 47 24.4 47C11.6975 47 1.40002 36.7025 1.40002 24C1.40002 11.2974 11.6975 1 24.4 1C37.1026 1 47.4 11.2974 47.4 24Z" fill="#E5E5E5"/>
<path d="M47.4 24C47.4 36.7025 37.1026 47 24.4 47C11.6975 47 1.40002 36.7025 1.40002 24C1.40002 11.2974 11.6975 1 24.4 1C37.1026 1 47.4 11.2974 47.4 24Z" stroke="#848484"/>
<rect x="27.5885" y="26.3455" width="11.5973" height="11.5973" fill="#C4C4C4"/>
<rect x="14.226" y="11.5696" width="11.3505" height="11.3505" fill="#C4C4C4"/>
<rect x="14.226" y="11.5696" width="11.3505" height="11.3505" fill="#C4C4C4"/>
<rect x="27.5885" y="26.3455" width="11.5973" height="11.5973" fill="#C4C4C4"/>
<path d="M14.5328 11.5696H25.5765L22.2021 10.0357H12.0786V20.9261L14.5328 22.9201V11.5696Z" fill="#848484" stroke="#7D7D7D" stroke-width="0.1"/>
<path d="M14.5328 11.5696H25.5765L22.2021 10.0357H12.0786V20.9261L14.5328 22.9201V11.5696Z" fill="#848484" stroke="#7D7D7D" stroke-width="0.1"/>
<path d="M21.2818 19.2389L16.6802 19.2389L16.6802 20.7727L23.736 20.7727L23.736 13.717L21.2818 13.717L21.2818 19.2389Z" fill="#848484"/>
<path d="M27.9019 26.3454H39.1858L35.7379 24.7782H25.3944V35.9053L27.9019 37.9427V26.3454Z" fill="#848484" stroke="#7D7D7D" stroke-width="0.1"/>
<path d="M27.9019 26.3454H39.1858L35.7379 24.7782H25.3944V35.9053L27.9019 37.9427V26.3454Z" fill="#848484" stroke="#7D7D7D" stroke-width="0.1"/>
<path d="M16.58 20.78V13.88H23.48" stroke="#848484" stroke-width="0.5"/>
<path d="M19.4714 22.7679V30.9822H25.6321" stroke="#C4C4C4" stroke-width="2"/>
</svg>
