ISO-10303-21;
HEADER;
FILE_DESCRIPTION(('Bldrs logo — the STEP twin of public/index.ifc'),'2;1');
FILE_NAME('index.step','2022-03-04T16:39:21',('Bldrs'),('Bldrs, Inc.'),'tools/models/makeIndexStep.mjs','Bldrs: Share','');
FILE_SCHEMA(('AUTOMOTIVE_DESIGN { 1 0 10303 214 1 1 1 1 }'));
ENDSEC;
DATA;
#1 = APPLICATION_CONTEXT('core data for automotive mechanical design processes');
#2 = APPLICATION_PROTOCOL_DEFINITION('international standard','automotive_design',2000,#1);
#3 = PRODUCT_CONTEXT('',#1,'mechanical');
#4 = PRODUCT_DEFINITION_CONTEXT('part definition',#1,'design');
#5 = ( LENGTH_UNIT() NAMED_UNIT(*) SI_UNIT(.MILLI.,.METRE.) );
#6 = ( NAMED_UNIT(*) PLANE_ANGLE_UNIT() SI_UNIT($,.RADIAN.) );
#7 = ( NAMED_UNIT(*) SI_UNIT($,.STERADIAN.) SOLID_ANGLE_UNIT() );
#8 = UNCERTAINTY_MEASURE_WITH_UNIT(LENGTH_MEASURE(1.E-004),#5,'distance_accuracy_value','confusion accuracy');
#9 = ( GEOMETRIC_REPRESENTATION_CONTEXT(3) GLOBAL_UNCERTAINTY_ASSIGNED_CONTEXT((#8)) GLOBAL_UNIT_ASSIGNED_CONTEXT((#5,#6,#7)) REPRESENTATION_CONTEXT('Context #1','3D Context with UNIT and UNCERTAINTY') );
#10 = CARTESIAN_POINT('',(0.,0.,0.));
#11 = DIRECTION('',(0.,0.,1.));
#12 = DIRECTION('',(1.,0.,0.));
#13 = AXIS2_PLACEMENT_3D('',#10,#11,#12);
#14 = CARTESIAN_POINT('',(0.,0.,0.));
#15 = VERTEX_POINT('',#14);
#16 = CARTESIAN_POINT('',(10000.,0.,0.));
#17 = VERTEX_POINT('',#16);
#18 = CARTESIAN_POINT('',(10000.,11450.4049888,0.));
#19 = VERTEX_POINT('',#18);
#20 = CARTESIAN_POINT('',(0.,11450.4049888,0.));
#21 = VERTEX_POINT('',#20);
#22 = CARTESIAN_POINT('',(0.,0.,30000.));
#23 = VERTEX_POINT('',#22);
#24 = CARTESIAN_POINT('',(10000.,0.,30000.));
#25 = VERTEX_POINT('',#24);
#26 = CARTESIAN_POINT('',(10000.,11450.4049888,30000.));
#27 = VERTEX_POINT('',#26);
#28 = CARTESIAN_POINT('',(0.,11450.4049888,30000.));
#29 = VERTEX_POINT('',#28);
#30 = CARTESIAN_POINT('',(0.,0.,0.));
#31 = DIRECTION('',(1.,0.,0.));
#32 = VECTOR('',#31,1.);
#33 = LINE('',#30,#32);
#34 = EDGE_CURVE('',#15,#17,#33,.T.);
#35 = CARTESIAN_POINT('',(10000.,0.,0.));
#36 = DIRECTION('',(0.,1.,0.));
#37 = VECTOR('',#36,1.);
#38 = LINE('',#35,#37);
#39 = EDGE_CURVE('',#17,#19,#38,.T.);
#40 = CARTESIAN_POINT('',(10000.,11450.4049888,0.));
#41 = DIRECTION('',(-1.,0.,0.));
#42 = VECTOR('',#41,1.);
#43 = LINE('',#40,#42);
#44 = EDGE_CURVE('',#19,#21,#43,.T.);
#45 = CARTESIAN_POINT('',(0.,11450.4049888,0.));
#46 = DIRECTION('',(0.,-1.,0.));
#47 = VECTOR('',#46,1.);
#48 = LINE('',#45,#47);
#49 = EDGE_CURVE('',#21,#15,#48,.T.);
#50 = CARTESIAN_POINT('',(0.,0.,30000.));
#51 = DIRECTION('',(1.,0.,0.));
#52 = VECTOR('',#51,1.);
#53 = LINE('',#50,#52);
#54 = EDGE_CURVE('',#23,#25,#53,.T.);
#55 = CARTESIAN_POINT('',(10000.,0.,30000.));
#56 = DIRECTION('',(0.,1.,0.));
#57 = VECTOR('',#56,1.);
#58 = LINE('',#55,#57);
#59 = EDGE_CURVE('',#25,#27,#58,.T.);
#60 = CARTESIAN_POINT('',(10000.,11450.4049888,30000.));
#61 = DIRECTION('',(-1.,0.,0.));
#62 = VECTOR('',#61,1.);
#63 = LINE('',#60,#62);
#64 = EDGE_CURVE('',#27,#29,#63,.T.);
#65 = CARTESIAN_POINT('',(0.,11450.4049888,30000.));
#66 = DIRECTION('',(0.,-1.,0.));
#67 = VECTOR('',#66,1.);
#68 = LINE('',#65,#67);
#69 = EDGE_CURVE('',#29,#23,#68,.T.);
#70 = CARTESIAN_POINT('',(0.,0.,0.));
#71 = DIRECTION('',(0.,0.,1.));
#72 = VECTOR('',#71,1.);
#73 = LINE('',#70,#72);
#74 = EDGE_CURVE('',#15,#23,#73,.T.);
#75 = CARTESIAN_POINT('',(10000.,0.,0.));
#76 = DIRECTION('',(0.,0.,1.));
#77 = VECTOR('',#76,1.);
#78 = LINE('',#75,#77);
#79 = EDGE_CURVE('',#17,#25,#78,.T.);
#80 = CARTESIAN_POINT('',(10000.,11450.4049888,0.));
#81 = DIRECTION('',(0.,0.,1.));
#82 = VECTOR('',#81,1.);
#83 = LINE('',#80,#82);
#84 = EDGE_CURVE('',#19,#27,#83,.T.);
#85 = CARTESIAN_POINT('',(0.,11450.4049888,0.));
#86 = DIRECTION('',(0.,0.,1.));
#87 = VECTOR('',#86,1.);
#88 = LINE('',#85,#87);
#89 = EDGE_CURVE('',#21,#29,#88,.T.);
#90 = CARTESIAN_POINT('',(0.,0.,0.));
#91 = DIRECTION('',(0.,0.,-1.));
#92 = DIRECTION('',(1.,0.,0.));
#93 = AXIS2_PLACEMENT_3D('',#90,#91,#92);
#94 = PLANE('',#93);
#95 = ORIENTED_EDGE('',*,*,#49,.F.);
#96 = ORIENTED_EDGE('',*,*,#44,.F.);
#97 = ORIENTED_EDGE('',*,*,#39,.F.);
#98 = ORIENTED_EDGE('',*,*,#34,.F.);
#99 = EDGE_LOOP('',(#95,#96,#97,#98));
#100 = FACE_OUTER_BOUND('',#99,.T.);
#101 = ADVANCED_FACE('',(#100),#94,.T.);
#102 = CARTESIAN_POINT('',(0.,0.,30000.));
#103 = DIRECTION('',(0.,0.,1.));
#104 = DIRECTION('',(1.,0.,0.));
#105 = AXIS2_PLACEMENT_3D('',#102,#103,#104);
#106 = PLANE('',#105);
#107 = ORIENTED_EDGE('',*,*,#54,.T.);
#108 = ORIENTED_EDGE('',*,*,#59,.T.);
#109 = ORIENTED_EDGE('',*,*,#64,.T.);
#110 = ORIENTED_EDGE('',*,*,#69,.T.);
#111 = EDGE_LOOP('',(#107,#108,#109,#110));
#112 = FACE_OUTER_BOUND('',#111,.T.);
#113 = ADVANCED_FACE('',(#112),#106,.T.);
#114 = CARTESIAN_POINT('',(0.,0.,0.));
#115 = DIRECTION('',(0.,-1.,0.));
#116 = DIRECTION('',(1.,0.,0.));
#117 = AXIS2_PLACEMENT_3D('',#114,#115,#116);
#118 = PLANE('',#117);
#119 = ORIENTED_EDGE('',*,*,#34,.T.);
#120 = ORIENTED_EDGE('',*,*,#79,.T.);
#121 = ORIENTED_EDGE('',*,*,#54,.F.);
#122 = ORIENTED_EDGE('',*,*,#74,.F.);
#123 = EDGE_LOOP('',(#119,#120,#121,#122));
#124 = FACE_OUTER_BOUND('',#123,.T.);
#125 = ADVANCED_FACE('',(#124),#118,.T.);
#126 = CARTESIAN_POINT('',(0.,11450.4049888,0.));
#127 = DIRECTION('',(0.,1.,0.));
#128 = DIRECTION('',(1.,0.,0.));
#129 = AXIS2_PLACEMENT_3D('',#126,#127,#128);
#130 = PLANE('',#129);
#131 = ORIENTED_EDGE('',*,*,#89,.T.);
#132 = ORIENTED_EDGE('',*,*,#64,.F.);
#133 = ORIENTED_EDGE('',*,*,#84,.F.);
#134 = ORIENTED_EDGE('',*,*,#44,.T.);
#135 = EDGE_LOOP('',(#131,#132,#133,#134));
#136 = FACE_OUTER_BOUND('',#135,.T.);
#137 = ADVANCED_FACE('',(#136),#130,.T.);
#138 = CARTESIAN_POINT('',(0.,0.,0.));
#139 = DIRECTION('',(-1.,0.,0.));
#140 = DIRECTION('',(0.,1.,0.));
#141 = AXIS2_PLACEMENT_3D('',#138,#139,#140);
#142 = PLANE('',#141);
#143 = ORIENTED_EDGE('',*,*,#74,.T.);
#144 = ORIENTED_EDGE('',*,*,#69,.F.);
#145 = ORIENTED_EDGE('',*,*,#89,.F.);
#146 = ORIENTED_EDGE('',*,*,#49,.T.);
#147 = EDGE_LOOP('',(#143,#144,#145,#146));
#148 = FACE_OUTER_BOUND('',#147,.T.);
#149 = ADVANCED_FACE('',(#148),#142,.T.);
#150 = CARTESIAN_POINT('',(10000.,0.,0.));
#151 = DIRECTION('',(1.,0.,0.));
#152 = DIRECTION('',(0.,1.,0.));
#153 = AXIS2_PLACEMENT_3D('',#150,#151,#152);
#154 = PLANE('',#153);
#155 = ORIENTED_EDGE('',*,*,#39,.T.);
#156 = ORIENTED_EDGE('',*,*,#84,.T.);
#157 = ORIENTED_EDGE('',*,*,#59,.F.);
#158 = ORIENTED_EDGE('',*,*,#79,.F.);
#159 = EDGE_LOOP('',(#155,#156,#157,#158));
#160 = FACE_OUTER_BOUND('',#159,.T.);
#161 = ADVANCED_FACE('',(#160),#154,.T.);
#162 = CLOSED_SHELL('',(#101,#113,#125,#137,#149,#161));
#163 = MANIFOLD_SOLID_BREP('',#162);
#164 = COLOUR_RGB('',0.,1.,0.);
#165 = FILL_AREA_STYLE_COLOUR('',#164);
#166 = FILL_AREA_STYLE('',(#165));
#167 = SURFACE_STYLE_FILL_AREA(#166);
#168 = SURFACE_SIDE_STYLE('',(#167));
#169 = SURFACE_STYLE_USAGE(.BOTH.,#168);
#170 = PRESENTATION_STYLE_ASSIGNMENT((#169));
#171 = STYLED_ITEM('color',(#170),#163);
#172 = PRODUCT('Together','Together','',(#3));
#173 = PRODUCT_DEFINITION_FORMATION('','',#172);
#174 = PRODUCT_DEFINITION('design','',#173,#4);
#175 = PRODUCT_DEFINITION_SHAPE('','',#174);
#176 = PRODUCT_RELATED_PRODUCT_CATEGORY('part','',(#172));
#177 = ADVANCED_BREP_SHAPE_REPRESENTATION('',(#13,#163),#9);
#178 = CARTESIAN_POINT('',(0.,0.,0.));
#179 = VERTEX_POINT('',#178);
#180 = CARTESIAN_POINT('',(10000.,0.,0.));
#181 = VERTEX_POINT('',#180);
#182 = CARTESIAN_POINT('',(10000.,11450.4049888,0.));
#183 = VERTEX_POINT('',#182);
#184 = CARTESIAN_POINT('',(0.,11450.4049888,0.));
#185 = VERTEX_POINT('',#184);
#186 = CARTESIAN_POINT('',(0.,0.,15000.));
#187 = VERTEX_POINT('',#186);
#188 = CARTESIAN_POINT('',(10000.,0.,15000.));
#189 = VERTEX_POINT('',#188);
#190 = CARTESIAN_POINT('',(10000.,11450.4049888,15000.));
#191 = VERTEX_POINT('',#190);
#192 = CARTESIAN_POINT('',(0.,11450.4049888,15000.));
#193 = VERTEX_POINT('',#192);
#194 = CARTESIAN_POINT('',(0.,0.,0.));
#195 = DIRECTION('',(1.,0.,0.));
#196 = VECTOR('',#195,1.);
#197 = LINE('',#194,#196);
#198 = EDGE_CURVE('',#179,#181,#197,.T.);
#199 = CARTESIAN_POINT('',(10000.,0.,0.));
#200 = DIRECTION('',(0.,1.,0.));
#201 = VECTOR('',#200,1.);
#202 = LINE('',#199,#201);
#203 = EDGE_CURVE('',#181,#183,#202,.T.);
#204 = CARTESIAN_POINT('',(10000.,11450.4049888,0.));
#205 = DIRECTION('',(-1.,0.,0.));
#206 = VECTOR('',#205,1.);
#207 = LINE('',#204,#206);
#208 = EDGE_CURVE('',#183,#185,#207,.T.);
#209 = CARTESIAN_POINT('',(0.,11450.4049888,0.));
#210 = DIRECTION('',(0.,-1.,0.));
#211 = VECTOR('',#210,1.);
#212 = LINE('',#209,#211);
#213 = EDGE_CURVE('',#185,#179,#212,.T.);
#214 = CARTESIAN_POINT('',(0.,0.,15000.));
#215 = DIRECTION('',(1.,0.,0.));
#216 = VECTOR('',#215,1.);
#217 = LINE('',#214,#216);
#218 = EDGE_CURVE('',#187,#189,#217,.T.);
#219 = CARTESIAN_POINT('',(10000.,0.,15000.));
#220 = DIRECTION('',(0.,1.,0.));
#221 = VECTOR('',#220,1.);
#222 = LINE('',#219,#221);
#223 = EDGE_CURVE('',#189,#191,#222,.T.);
#224 = CARTESIAN_POINT('',(10000.,11450.4049888,15000.));
#225 = DIRECTION('',(-1.,0.,0.));
#226 = VECTOR('',#225,1.);
#227 = LINE('',#224,#226);
#228 = EDGE_CURVE('',#191,#193,#227,.T.);
#229 = CARTESIAN_POINT('',(0.,11450.4049888,15000.));
#230 = DIRECTION('',(0.,-1.,0.));
#231 = VECTOR('',#230,1.);
#232 = LINE('',#229,#231);
#233 = EDGE_CURVE('',#193,#187,#232,.T.);
#234 = CARTESIAN_POINT('',(0.,0.,0.));
#235 = DIRECTION('',(0.,0.,1.));
#236 = VECTOR('',#235,1.);
#237 = LINE('',#234,#236);
#238 = EDGE_CURVE('',#179,#187,#237,.T.);
#239 = CARTESIAN_POINT('',(10000.,0.,0.));
#240 = DIRECTION('',(0.,0.,1.));
#241 = VECTOR('',#240,1.);
#242 = LINE('',#239,#241);
#243 = EDGE_CURVE('',#181,#189,#242,.T.);
#244 = CARTESIAN_POINT('',(10000.,11450.4049888,0.));
#245 = DIRECTION('',(0.,0.,1.));
#246 = VECTOR('',#245,1.);
#247 = LINE('',#244,#246);
#248 = EDGE_CURVE('',#183,#191,#247,.T.);
#249 = CARTESIAN_POINT('',(0.,11450.4049888,0.));
#250 = DIRECTION('',(0.,0.,1.));
#251 = VECTOR('',#250,1.);
#252 = LINE('',#249,#251);
#253 = EDGE_CURVE('',#185,#193,#252,.T.);
#254 = CARTESIAN_POINT('',(0.,0.,0.));
#255 = DIRECTION('',(0.,0.,-1.));
#256 = DIRECTION('',(1.,0.,0.));
#257 = AXIS2_PLACEMENT_3D('',#254,#255,#256);
#258 = PLANE('',#257);
#259 = ORIENTED_EDGE('',*,*,#213,.F.);
#260 = ORIENTED_EDGE('',*,*,#208,.F.);
#261 = ORIENTED_EDGE('',*,*,#203,.F.);
#262 = ORIENTED_EDGE('',*,*,#198,.F.);
#263 = EDGE_LOOP('',(#259,#260,#261,#262));
#264 = FACE_OUTER_BOUND('',#263,.T.);
#265 = ADVANCED_FACE('',(#264),#258,.T.);
#266 = CARTESIAN_POINT('',(0.,0.,15000.));
#267 = DIRECTION('',(0.,0.,1.));
#268 = DIRECTION('',(1.,0.,0.));
#269 = AXIS2_PLACEMENT_3D('',#266,#267,#268);
#270 = PLANE('',#269);
#271 = ORIENTED_EDGE('',*,*,#218,.T.);
#272 = ORIENTED_EDGE('',*,*,#223,.T.);
#273 = ORIENTED_EDGE('',*,*,#228,.T.);
#274 = ORIENTED_EDGE('',*,*,#233,.T.);
#275 = EDGE_LOOP('',(#271,#272,#273,#274));
#276 = FACE_OUTER_BOUND('',#275,.T.);
#277 = ADVANCED_FACE('',(#276),#270,.T.);
#278 = CARTESIAN_POINT('',(0.,0.,0.));
#279 = DIRECTION('',(0.,-1.,0.));
#280 = DIRECTION('',(1.,0.,0.));
#281 = AXIS2_PLACEMENT_3D('',#278,#279,#280);
#282 = PLANE('',#281);
#283 = ORIENTED_EDGE('',*,*,#198,.T.);
#284 = ORIENTED_EDGE('',*,*,#243,.T.);
#285 = ORIENTED_EDGE('',*,*,#218,.F.);
#286 = ORIENTED_EDGE('',*,*,#238,.F.);
#287 = EDGE_LOOP('',(#283,#284,#285,#286));
#288 = FACE_OUTER_BOUND('',#287,.T.);
#289 = ADVANCED_FACE('',(#288),#282,.T.);
#290 = CARTESIAN_POINT('',(0.,11450.4049888,0.));
#291 = DIRECTION('',(0.,1.,0.));
#292 = DIRECTION('',(1.,0.,0.));
#293 = AXIS2_PLACEMENT_3D('',#290,#291,#292);
#294 = PLANE('',#293);
#295 = ORIENTED_EDGE('',*,*,#253,.T.);
#296 = ORIENTED_EDGE('',*,*,#228,.F.);
#297 = ORIENTED_EDGE('',*,*,#248,.F.);
#298 = ORIENTED_EDGE('',*,*,#208,.T.);
#299 = EDGE_LOOP('',(#295,#296,#297,#298));
#300 = FACE_OUTER_BOUND('',#299,.T.);
#301 = ADVANCED_FACE('',(#300),#294,.T.);
#302 = CARTESIAN_POINT('',(0.,0.,0.));
#303 = DIRECTION('',(-1.,0.,0.));
#304 = DIRECTION('',(0.,1.,0.));
#305 = AXIS2_PLACEMENT_3D('',#302,#303,#304);
#306 = PLANE('',#305);
#307 = ORIENTED_EDGE('',*,*,#238,.T.);
#308 = ORIENTED_EDGE('',*,*,#233,.F.);
#309 = ORIENTED_EDGE('',*,*,#253,.F.);
#310 = ORIENTED_EDGE('',*,*,#213,.T.);
#311 = EDGE_LOOP('',(#307,#308,#309,#310));
#312 = FACE_OUTER_BOUND('',#311,.T.);
#313 = ADVANCED_FACE('',(#312),#306,.T.);
#314 = CARTESIAN_POINT('',(10000.,0.,0.));
#315 = DIRECTION('',(1.,0.,0.));
#316 = DIRECTION('',(0.,1.,0.));
#317 = AXIS2_PLACEMENT_3D('',#314,#315,#316);
#318 = PLANE('',#317);
#319 = ORIENTED_EDGE('',*,*,#203,.T.);
#320 = ORIENTED_EDGE('',*,*,#248,.T.);
#321 = ORIENTED_EDGE('',*,*,#223,.F.);
#322 = ORIENTED_EDGE('',*,*,#243,.F.);
#323 = EDGE_LOOP('',(#319,#320,#321,#322));
#324 = FACE_OUTER_BOUND('',#323,.T.);
#325 = ADVANCED_FACE('',(#324),#318,.T.);
#326 = CLOSED_SHELL('',(#265,#277,#289,#301,#313,#325));
#327 = MANIFOLD_SOLID_BREP('',#326);
#328 = COLOUR_RGB('',0.,1.,0.);
#329 = FILL_AREA_STYLE_COLOUR('',#328);
#330 = FILL_AREA_STYLE('',(#329));
#331 = SURFACE_STYLE_FILL_AREA(#330);
#332 = SURFACE_SIDE_STYLE('',(#331));
#333 = SURFACE_STYLE_USAGE(.BOTH.,#332);
#334 = PRESENTATION_STYLE_ASSIGNMENT((#333));
#335 = STYLED_ITEM('color',(#334),#327);
#336 = PRODUCT('Together','Together','',(#3));
#337 = PRODUCT_DEFINITION_FORMATION('','',#336);
#338 = PRODUCT_DEFINITION('design','',#337,#4);
#339 = PRODUCT_DEFINITION_SHAPE('','',#338);
#340 = PRODUCT_RELATED_PRODUCT_CATEGORY('part','',(#336));
#341 = ADVANCED_BREP_SHAPE_REPRESENTATION('',(#13,#327),#9);
#342 = PRODUCT('Bldrs','Bldrs','',(#3));
#343 = PRODUCT_DEFINITION_FORMATION('','',#342);
#344 = PRODUCT_DEFINITION('design','',#343,#4);
#345 = PRODUCT_DEFINITION_SHAPE('','',#344);
#346 = PRODUCT_RELATED_PRODUCT_CATEGORY('part','',(#342));
#347 = PRODUCT('Build','Build','',(#3));
#348 = PRODUCT_DEFINITION_FORMATION('','',#347);
#349 = PRODUCT_DEFINITION('design','',#348,#4);
#350 = PRODUCT_DEFINITION_SHAPE('','',#349);
#351 = PRODUCT_RELATED_PRODUCT_CATEGORY('part','',(#347));
#352 = PRODUCT('Every','Every','',(#3));
#353 = PRODUCT_DEFINITION_FORMATION('','',#352);
#354 = PRODUCT_DEFINITION('design','',#353,#4);
#355 = PRODUCT_DEFINITION_SHAPE('','',#354);
#356 = PRODUCT_RELATED_PRODUCT_CATEGORY('part','',(#352));
#357 = PRODUCT('Thing','Thing','',(#3));
#358 = PRODUCT_DEFINITION_FORMATION('','',#357);
#359 = PRODUCT_DEFINITION('design','',#358,#4);
#360 = PRODUCT_DEFINITION_SHAPE('','',#359);
#361 = PRODUCT_RELATED_PRODUCT_CATEGORY('part','',(#357));
#362 = CARTESIAN_POINT('',(0.,-11450.4049888,0.));
#363 = DIRECTION('',(0.,0.,1.));
#364 = DIRECTION('',(1.,0.,0.));
#365 = AXIS2_PLACEMENT_3D('',#362,#363,#364);
#366 = CARTESIAN_POINT('',(24000.,-11450.4049888,0.));
#367 = DIRECTION('',(0.,0.,1.));
#368 = DIRECTION('',(1.,0.,0.));
#369 = AXIS2_PLACEMENT_3D('',#366,#367,#368);
#370 = CARTESIAN_POINT('',(48000.,-11450.4049888,0.));
#371 = DIRECTION('',(0.,0.,1.));
#372 = DIRECTION('',(1.,0.,0.));
#373 = AXIS2_PLACEMENT_3D('',#370,#371,#372);
#374 = CARTESIAN_POINT('',(62000.,-11450.4049888,0.));
#375 = DIRECTION('',(0.,0.,1.));
#376 = DIRECTION('',(1.,0.,0.));
#377 = AXIS2_PLACEMENT_3D('',#374,#375,#376);
#378 = CARTESIAN_POINT('',(76000.,-11450.4049888,0.));
#379 = DIRECTION('',(0.,0.,1.));
#380 = DIRECTION('',(1.,0.,0.));
#381 = AXIS2_PLACEMENT_3D('',#378,#379,#380);
#382 = CARTESIAN_POINT('',(2.32304809423,-24098.0424609,0.));
#383 = DIRECTION('',(0.,0.,1.));
#384 = DIRECTION('',(1.,0.,0.));
#385 = AXIS2_PLACEMENT_3D('',#382,#383,#384);
#386 = CARTESIAN_POINT('',(47859.6390944,973.380492763,0.));
#387 = DIRECTION('',(0.,0.,1.));
#388 = DIRECTION('',(1.,0.,0.));
#389 = AXIS2_PLACEMENT_3D('',#386,#387,#388);
#390 = SHAPE_REPRESENTATION('',(#13),#9);
#391 = SHAPE_REPRESENTATION('',(#13),#9);
#392 = SHAPE_REPRESENTATION('',(#13),#9);
#393 = SHAPE_REPRESENTATION('',(#13,#365,#369,#373,#377,#381,#385,#389),#9);
#394 = SHAPE_DEFINITION_REPRESENTATION(#345,#390);
#395 = SHAPE_DEFINITION_REPRESENTATION(#350,#391);
#396 = SHAPE_DEFINITION_REPRESENTATION(#355,#392);
#397 = SHAPE_DEFINITION_REPRESENTATION(#360,#393);
#398 = SHAPE_DEFINITION_REPRESENTATION(#175,#177);
#399 = SHAPE_DEFINITION_REPRESENTATION(#339,#341);
#400 = NEXT_ASSEMBLY_USAGE_OCCURRENCE('Build','Build','',#344,#349,$);
#401 = PRODUCT_DEFINITION_SHAPE('','',#400);
#402 = ITEM_DEFINED_TRANSFORMATION('','',#13,#13);
#403 = ( REPRESENTATION_RELATIONSHIP('','',#391,#390) REPRESENTATION_RELATIONSHIP_WITH_TRANSFORMATION(#402) SHAPE_REPRESENTATION_RELATIONSHIP() );
#404 = CONTEXT_DEPENDENT_SHAPE_REPRESENTATION(#403,#401);
#405 = NEXT_ASSEMBLY_USAGE_OCCURRENCE('Every','Every','',#349,#354,$);
#406 = PRODUCT_DEFINITION_SHAPE('','',#405);
#407 = ITEM_DEFINED_TRANSFORMATION('','',#13,#13);
#408 = ( REPRESENTATION_RELATIONSHIP('','',#392,#391) REPRESENTATION_RELATIONSHIP_WITH_TRANSFORMATION(#407) SHAPE_REPRESENTATION_RELATIONSHIP() );
#409 = CONTEXT_DEPENDENT_SHAPE_REPRESENTATION(#408,#406);
#410 = NEXT_ASSEMBLY_USAGE_OCCURRENCE('Thing','Thing','',#354,#359,$);
#411 = PRODUCT_DEFINITION_SHAPE('','',#410);
#412 = ITEM_DEFINED_TRANSFORMATION('','',#13,#13);
#413 = ( REPRESENTATION_RELATIONSHIP('','',#393,#392) REPRESENTATION_RELATIONSHIP_WITH_TRANSFORMATION(#412) SHAPE_REPRESENTATION_RELATIONSHIP() );
#414 = CONTEXT_DEPENDENT_SHAPE_REPRESENTATION(#413,#411);
#415 = NEXT_ASSEMBLY_USAGE_OCCURRENCE('1','1','',#359,#174,$);
#416 = PRODUCT_DEFINITION_SHAPE('','',#415);
#417 = ITEM_DEFINED_TRANSFORMATION('','',#13,#365);
#418 = ( REPRESENTATION_RELATIONSHIP('','',#177,#393) REPRESENTATION_RELATIONSHIP_WITH_TRANSFORMATION(#417) SHAPE_REPRESENTATION_RELATIONSHIP() );
#419 = CONTEXT_DEPENDENT_SHAPE_REPRESENTATION(#418,#416);
#420 = NEXT_ASSEMBLY_USAGE_OCCURRENCE('2','2','',#359,#174,$);
#421 = PRODUCT_DEFINITION_SHAPE('','',#420);
#422 = ITEM_DEFINED_TRANSFORMATION('','',#13,#369);
#423 = ( REPRESENTATION_RELATIONSHIP('','',#177,#393) REPRESENTATION_RELATIONSHIP_WITH_TRANSFORMATION(#422) SHAPE_REPRESENTATION_RELATIONSHIP() );
#424 = CONTEXT_DEPENDENT_SHAPE_REPRESENTATION(#423,#421);
#425 = NEXT_ASSEMBLY_USAGE_OCCURRENCE('3','3','',#359,#174,$);
#426 = PRODUCT_DEFINITION_SHAPE('','',#425);
#427 = ITEM_DEFINED_TRANSFORMATION('','',#13,#373);
#428 = ( REPRESENTATION_RELATIONSHIP('','',#177,#393) REPRESENTATION_RELATIONSHIP_WITH_TRANSFORMATION(#427) SHAPE_REPRESENTATION_RELATIONSHIP() );
#429 = CONTEXT_DEPENDENT_SHAPE_REPRESENTATION(#428,#426);
#430 = NEXT_ASSEMBLY_USAGE_OCCURRENCE('4','4','',#359,#338,$);
#431 = PRODUCT_DEFINITION_SHAPE('','',#430);
#432 = ITEM_DEFINED_TRANSFORMATION('','',#13,#377);
#433 = ( REPRESENTATION_RELATIONSHIP('','',#341,#393) REPRESENTATION_RELATIONSHIP_WITH_TRANSFORMATION(#432) SHAPE_REPRESENTATION_RELATIONSHIP() );
#434 = CONTEXT_DEPENDENT_SHAPE_REPRESENTATION(#433,#431);
#435 = NEXT_ASSEMBLY_USAGE_OCCURRENCE('5','5','',#359,#338,$);
#436 = PRODUCT_DEFINITION_SHAPE('','',#435);
#437 = ITEM_DEFINED_TRANSFORMATION('','',#13,#381);
#438 = ( REPRESENTATION_RELATIONSHIP('','',#341,#393) REPRESENTATION_RELATIONSHIP_WITH_TRANSFORMATION(#437) SHAPE_REPRESENTATION_RELATIONSHIP() );
#439 = CONTEXT_DEPENDENT_SHAPE_REPRESENTATION(#438,#436);
#440 = NEXT_ASSEMBLY_USAGE_OCCURRENCE('6','6','',#359,#338,$);
#441 = PRODUCT_DEFINITION_SHAPE('','',#440);
#442 = ITEM_DEFINED_TRANSFORMATION('','',#13,#385);
#443 = ( REPRESENTATION_RELATIONSHIP('','',#341,#393) REPRESENTATION_RELATIONSHIP_WITH_TRANSFORMATION(#442) SHAPE_REPRESENTATION_RELATIONSHIP() );
#444 = CONTEXT_DEPENDENT_SHAPE_REPRESENTATION(#443,#441);
#445 = NEXT_ASSEMBLY_USAGE_OCCURRENCE('7','7','',#359,#338,$);
#446 = PRODUCT_DEFINITION_SHAPE('','',#445);
#447 = ITEM_DEFINED_TRANSFORMATION('','',#13,#389);
#448 = ( REPRESENTATION_RELATIONSHIP('','',#341,#393) REPRESENTATION_RELATIONSHIP_WITH_TRANSFORMATION(#447) SHAPE_REPRESENTATION_RELATIONSHIP() );
#449 = CONTEXT_DEPENDENT_SHAPE_REPRESENTATION(#448,#446);
#450 = MECHANICAL_DESIGN_GEOMETRIC_PRESENTATION_REPRESENTATION('',(#171,#335),#9);
ENDSEC;
END-ISO-10303-21;
