<svg xmlns="http://www.w3.org/2000/svg" viewBox="0 0 24 24" fill="none" stroke-width="1.5" stroke-linecap="round" stroke-linejoin="round">
  <!-- Document body -->
  <path d="M6 2h8l4 4v14a2 2 0 0 1-2 2H6a2 2 0 0 1-2-2V4a2 2 0 0 1 2-2z" stroke="#999" fill="#999" opacity="0.1"/>
  <path d="M6 2h8l4 4v14a2 2 0 0 1-2 2H6a2 2 0 0 1-2-2V4a2 2 0 0 1 2-2z" stroke="#999" fill="none"/>
  <!-- Page fold -->
  <path d="M14 2v4h4" stroke="#999" fill="none"/>
  <!-- Check lines on document -->
  <line x1="7" y1="9" x2="9" y2="9" stroke="#00D4AA" stroke-width="1.5"/>
  <line x1="10" y1="9" x2="15" y2="9" stroke="#666" stroke-width="1.5"/>
  <line x1="7" y1="12" x2="9" y2="12" stroke="#FF6B35" stroke-width="1.5"/>
  <line x1="10" y1="12" x2="14" y2="12" stroke="#666" stroke-width="1.5"/>
  <line x1="7" y1="15" x2="9" y2="15" stroke="#00D4AA" stroke-width="1.5"/>
  <line x1="10" y1="15" x2="13" y2="15" stroke="#666" stroke-width="1.5"/>
  <!-- Magnifying glass -->
  <circle cx="18" cy="16" r="3.5" stroke="#FF6B35" stroke-width="1.5" fill="#1A1A1A" opacity="0.85"/>
  <circle cx="18" cy="16" r="3.5" stroke="#FF6B35" stroke-width="1.5" fill="none"/>
  <line x1="20.5" y1="18.5" x2="23" y2="21" stroke="#FF6B35" stroke-width="2"/>
</svg>
