<?xml version="1.0" encoding="UTF-8" standalone="no"?>
<svg
   viewBox="0 0 84.76 48.687698"
   width="20"
   height="15.158063"
   version="1.1"
   id="svg1"
   sodipodi:docname="Discord.svg"
   inkscape:version="1.4 (e7c3feb1, 2024-10-09)"
   xmlns:inkscape="http://www.inkscape.org/namespaces/inkscape"
   xmlns:sodipodi="http://sodipodi.sourceforge.net/DTD/sodipodi-0.dtd"
   xmlns="http://www.w3.org/2000/svg"
   xmlns:svg="http://www.w3.org/2000/svg">
  <defs
     id="defs1" />
  <sodipodi:namedview
     id="namedview1"
     pagecolor="#ffffff"
     bordercolor="#000000"
     borderopacity="0.25"
     inkscape:showpageshadow="2"
     inkscape:pageopacity="0.0"
     inkscape:pagecheckerboard="0"
     inkscape:deskcolor="#d1d1d1"
     inkscape:zoom="8.657587"
     inkscape:cx="11.08854"
     inkscape:cy="-0.75078656"
     inkscape:window-width="1416"
     inkscape:window-height="792"
     inkscape:window-x="0"
     inkscape:window-y="37"
     inkscape:window-maximized="0"
     inkscape:current-layer="svg1" />
  <path
     d="M 71.79979,-1.534011 A 70.099858,70.099858 0 0 0 54.313159,-6.914 a 48.039903,48.039903 0 0 0 -2.239995,4.553324 65.119868,65.119868 0 0 0 -19.406628,0 A 48.246569,48.246569 0 0 0 30.426541,-6.914 70.59319,70.59319 0 0 0 12.926576,-1.520677 C 1.8599323,14.852623 -1.1400617,30.819257 0.35993529,46.559225 v 0 A 70.486524,70.486524 0 0 0 21.806558,57.32587 51.799895,51.799895 0 0 0 26.399882,49.919218 45.613241,45.613241 0 0 1 19.166564,46.465892 c 0.606665,-0.439999 1.199997,-0.893332 1.773329,-1.333331 a 50.379898,50.379898 0 0 0 42.879913,0 c 0.579999,0.473333 1.173331,0.926665 1.77333,1.333331 a 45.786574,45.786574 0 0 1 -7.246652,3.459993 51.333229,51.333229 0 0 0 4.593324,7.399985 70.166524,70.166524 0 0 0 21.459957,-10.759978 v 0 c 1.76,-18.253297 -3.00666,-34.073265 -12.599975,-48.099903 z M 28.299878,36.879245 c -4.179991,0 -7.633317,-3.793326 -7.633317,-8.459983 0,-4.666657 3.333326,-8.493316 7.619984,-8.493316 4.286658,0 7.713318,3.826659 7.639985,8.493316 -0.07333,4.666657 -3.36666,8.459983 -7.626652,8.459983 z m 28.159943,0 c -4.186658,0 -7.626651,-3.793326 -7.626651,-8.459983 0,-4.666657 3.333327,-8.493316 7.626651,-8.493316 4.293325,0 7.693318,3.826659 7.619985,8.493316 -0.07333,4.666657 -3.359993,8.459983 -7.619985,8.459983 z"
     id="path1"
     style="stroke-width:0.666665" />
</svg>
