<svg width="46" height="28" viewBox="0 0 46 28" fill="none" xmlns="http://www.w3.org/2000/svg">
<path fill-rule="evenodd" clip-rule="evenodd" d="M27.3036 0.512246C26.7141 0.499246 26.2414 0.996481 26.2842 1.58455L26.2861 1.61138L12.3104 0.963599C12.2753 0.961972 12.2402 0.962201 12.2054 0.964245C12.0417 0.9317 11.87 0.983397 11.7516 1.10382C11.7217 1.12169 11.6926 1.14117 11.6644 1.16224L5.85203 5.51718C5.15543 6.0391 5.41907 7.12382 6.2524 7.29743L6.25245 7.29744C6.25276 7.2975 6.25325 7.29759 6.25404 7.29856L6.25412 7.29866V19.7245L1.68127 21.0523C0.694737 21.3388 0.729615 22.7483 1.72912 22.9856L21.6971 27.7266C21.8634 27.7661 22.0371 27.7623 22.2015 27.7156L45.0253 21.2273C45.9745 20.9575 46.0006 19.6217 45.0627 19.315L38.0771 17.0303L38.1542 5.92699C38.86 5.78498 39.1367 4.89622 38.6052 4.37968L36.4308 2.26658C36.2498 2.09066 36.009 1.9897 35.7566 1.98397L30.0671 1.85468L30.0619 1.53516C30.0533 0.99779 29.6214 0.563362 29.0841 0.551513L27.3036 0.512246ZM12.1395 2.05582L6.45358 6.31601L6.45426 6.31795L6.45634 6.31844C6.91798 6.41461 7.25412 6.82198 7.25412 7.29778V19.7245C7.25412 19.7999 7.24569 19.8737 7.22961 19.9449C7.24606 19.9954 7.25469 20.0493 7.25409 20.1053L7.24291 21.1495L17.5833 22.8772L17.5254 5.26774L12.1395 2.05582ZM18.1779 23.9595C18.1843 23.9583 18.1907 23.9569 18.1971 23.9555L31.1685 21.2585L37.5563 20.8615L38.0175 20.8328L38.0252 20.3707L38.0633 18.0779L44.7519 20.2654L21.9281 26.7537L1.96013 22.0127L6.24694 20.7679L6.23839 21.5668L6.23381 21.9948L6.65596 22.0653L17.9929 23.9595C17.9991 23.9607 18.0053 23.9617 18.0115 23.9627L18.0953 23.9766L18.1779 23.9595ZM37.0988 17.2379C37.0839 17.2839 37.0755 17.3329 37.0746 17.3837L37.033 19.8921L31.0707 20.2626L31.035 20.2648L31 20.2721L18.5832 22.8538L18.5261 5.49753L31.6767 5.86771L31.6767 5.86791H31.6907H37.1546L37.0771 17.0234C37.0766 17.0966 37.0841 17.1684 37.0988 17.2379ZM37.6727 4.86791L35.7339 2.98371L30.0443 2.85442C29.5073 2.84222 29.0758 2.4079 29.0672 1.87079L29.062 1.55127L27.2815 1.512L27.2835 1.53883C27.327 2.13658 26.8385 2.63806 26.2398 2.61031L14.0763 2.04653L18.1687 4.48707L31.6978 4.86791H37.6727Z" />
</svg>
