<svg width="47" height="24" viewBox="0 0 47 24" fill="none" xmlns="http://www.w3.org/2000/svg">
<path fill-rule="evenodd" clip-rule="evenodd" d="M14.9666 0.631532C15.1816 0.526884 15.427 0.502748 15.6583 0.563501L31.0949 4.61842L32.8482 4.50282L32.8641 4.50177L32.8801 4.50174L37.603 4.49223C37.9364 4.49156 38.2482 4.65707 38.4344 4.93359L40.8223 8.47892C40.9565 8.67826 41.0145 8.91929 40.9856 9.15789L40.9567 9.39635C40.9185 9.71168 40.6943 9.96365 40.4021 10.0478L40.3493 11.016C40.3314 11.3437 40.1161 11.6198 39.8176 11.7244L39.8034 13.2651C40.1251 13.4074 40.3358 13.7279 40.3342 14.0846L40.3269 15.7414H45.796C46.4886 15.7414 46.9714 16.4282 46.737 17.0799L46.0932 18.8693C45.9649 19.226 45.646 19.4795 45.2696 19.5239L11.8738 23.4685C11.6633 23.4934 11.4504 23.4508 11.2658 23.3468L1.23571 17.6987C0.36645 17.2092 0.671229 15.8883 1.66708 15.8291L9.59515 15.3581L9.49316 5.09315L9.45003 5.08028C9.08034 4.96993 8.81986 4.63918 8.79924 4.25392C8.77961 3.88729 8.98144 3.54455 9.31157 3.38387L14.9666 0.631532ZM30.8408 5.58561L15.4042 1.53069L9.93286 4.19364C10.2681 4.35471 10.4892 4.69428 10.493 5.07501L10.5951 15.3482C10.6004 15.8813 10.1866 16.3248 9.65445 16.3564L1.72638 16.8274L11.7565 22.4754L45.1523 18.5308L45.796 16.7414H40.3269C39.7729 16.7414 39.3245 16.291 39.3269 15.737L39.3339 14.1543C39.3134 14.1452 39.2933 14.1355 39.2738 14.125L36.4748 14.458L35.9107 14.5251L35.9158 13.957L35.937 11.5806L35.941 11.1324L36.387 11.0876L39.2715 10.7977C39.3014 10.7947 39.3309 10.7944 39.3598 10.7965L39.4135 9.81082C39.4321 9.46976 39.6693 9.19014 39.9847 9.10486L39.9929 9.03755L37.605 5.49223L32.898 5.5017L31.1607 5.61625C31.0531 5.62334 30.9451 5.61299 30.8408 5.58561ZM38.8164 11.8485L38.8042 13.1738L36.9208 13.3979L36.933 12.0378L38.8164 11.8485ZM17.1124 4.51282L16.9953 4.4858L16.8787 4.51495L12.8787 5.51495L12.5 5.60963V6.00002V19.5V19.8604L12.8419 19.9744L14.3419 20.4744L14.4425 20.5079L14.5482 20.4977L30.0482 18.9977L30.5 18.954V18.5V8.00002V7.60226L30.1124 7.51282L17.1124 4.51282ZM13.5 6.3904L17.0047 5.51424L29.5 8.39777V18.0461L14.5574 19.4921L13.5 19.1396V6.3904Z" />
</svg>
