<svg width="44" height="35" viewBox="0 0 44 35" fill="none" xmlns="http://www.w3.org/2000/svg">
<path fill-rule="evenodd" clip-rule="evenodd" d="M15.8624 0.504185C15.7898 0.499 15.7169 0.503742 15.6456 0.518279L14.2015 0.812712C13.8242 0.889646 13.5552 1.22448 13.5614 1.60952L13.5654 1.85359L11.8912 1.72912L11.8711 1.72788C11.8493 1.72555 11.8272 1.72462 11.8047 1.72517C11.7738 1.72594 11.7437 1.72949 11.7145 1.73557L11.6954 1.73864L5.79635 2.75963C5.54164 2.80372 5.33941 2.98128 5.25542 3.21223L5.1669 3.23081C4.77762 3.31249 4.52522 3.68759 4.59223 4.07629L4.81809 17.3059C4.82332 17.6125 5.00336 17.8892 5.28159 18.0181L6.17465 18.432L6.2903 23.5498L0.926695 25.1293C0.0990297 25.3731 -0.0521701 26.4802 0.679832 26.937L12.1699 34.1063C12.4024 34.2513 12.6842 34.2946 12.9495 34.2261L42.7993 26.513C43.7023 26.2797 43.8226 25.0466 42.9818 24.6432L36.6701 21.6149L36.7846 18.25L36.991 18.215C37.374 18.15 37.655 17.8192 37.6572 17.4307L37.6627 16.4338C37.6649 16.054 37.3997 15.7251 37.0282 15.6466L36.8107 15.6006L37.0725 15.5669C37.4749 15.5151 37.7747 15.1702 37.7702 14.7646L37.7592 13.7766C37.7549 13.384 37.4663 13.0525 37.078 12.9943L36.7578 12.9463L36.758 12.9369L37.1553 12.8948C37.5655 12.8513 37.8753 12.5031 37.8709 12.0906L37.86 11.0773C37.8556 10.6724 37.5494 10.3346 37.1469 10.2907L36.8674 10.2601L36.8674 10.2588L37.3062 10.1846C37.6833 10.1207 37.9625 9.79893 37.9725 9.4166L38.0001 8.35539C38.0117 7.91057 37.6581 7.54177 37.2132 7.53466L36.9619 7.53064L36.9663 6.68713C36.9685 6.25626 36.6291 5.90103 36.1985 5.88364L36.1774 5.88279C36.2096 5.42454 35.8496 5.03246 35.3891 5.02685L34.8544 5.02033L34.9128 3.89272C34.9356 3.45163 34.5966 3.07551 34.1555 3.05249L30.8754 2.88129C30.7734 2.67322 30.5623 2.52442 30.3099 2.51754L30.0628 2.51081L30.0689 2.3346C30.0839 1.89942 29.7481 1.53215 29.3134 1.50821L26.888 1.37471C26.844 1.37229 26.7999 1.37351 26.7561 1.37835L25.1566 1.55529C24.8213 1.59237 24.5556 1.83429 24.4755 2.14589L22.9308 2.02278L22.9134 2.02158C22.8914 2.0192 22.8691 2.01824 22.8464 2.01879C22.8225 2.01938 22.799 2.02164 22.7761 2.02546L22.7591 2.02759L20.9882 2.26908L19.6978 2.22131L19.6938 1.51817C19.6914 1.10025 19.3677 0.754593 18.9508 0.724813L15.8624 0.504185ZM22.3726 3.08955L21.5129 3.20679V5.71368L22.4373 5.72749L22.3726 3.08955ZM19.4694 3.21353L20.5129 3.25217V5.69874L13.9077 5.60007C13.9055 5.60003 13.9034 5.59999 13.9013 5.59998L13.887 5.59976L13.8729 5.60052L13.8699 5.60068L13.8663 5.60087L12.4031 5.67938L12.3307 2.76456L13.7096 2.86707C13.7728 2.87177 13.8347 2.86902 13.8946 2.85958C13.9412 2.87752 13.9914 2.88871 14.0439 2.89189L19.1704 3.20234C19.2182 3.20523 19.2648 3.20131 19.3093 3.19142C19.3609 3.20395 19.4144 3.2115 19.4694 3.21353ZM13.4053 6.62705L11.9428 6.70551L11.429 6.73308L11.4162 6.21865L11.3317 2.81646L6.16831 3.71012C6.08561 3.92938 5.89577 4.09964 5.65478 4.15021L5.59385 4.16299L5.8158 17.1635L6.70817 17.5771C6.98495 17.7053 7.16469 17.9799 7.17158 18.2848L7.29211 23.6187L13.7388 27.0835L13.4053 6.62705ZM13.9733 28.342C14.0553 28.3973 14.1544 28.429 14.2608 28.4272C14.313 28.4264 14.3632 28.4176 14.4102 28.4019C14.4305 28.399 14.4507 28.3953 14.4709 28.3908L36.0042 23.5733C36.3598 23.4938 36.6167 23.184 36.6291 22.8198L36.6329 22.7062L42.5492 25.5448L12.6993 33.2579L1.20919 26.0886L6.74304 24.4589L13.9175 28.3148C13.9358 28.3246 13.9544 28.3337 13.9733 28.342ZM14.7425 27.3053L14.4051 6.60761L22.9425 6.73515L23.4626 6.74292L23.4498 6.22294L23.3722 3.06113L24.5951 3.15859C24.6587 3.16366 24.721 3.16111 24.7812 3.15175C24.8279 3.17016 24.8781 3.18179 24.9309 3.18536L29.512 3.49581C29.565 3.4994 29.6167 3.49458 29.6658 3.48248C29.7199 3.49567 29.7763 3.50337 29.8342 3.50495L29.9072 3.50694L29.8542 6.45715L29.8448 6.97633L30.364 6.96603L35.647 6.86124C35.6842 6.86051 35.7203 6.85573 35.7549 6.84736C35.8107 6.86216 35.8689 6.87115 35.929 6.87357L35.9653 6.87504L35.9609 7.72331C35.9586 8.16176 36.3097 8.52034 36.7481 8.52735L36.9952 8.5313L36.9771 9.22603L36.5371 9.30047C36.158 9.36462 35.8782 9.68941 35.8708 10.0738L35.864 10.4237C35.856 10.8377 36.1653 11.1894 36.577 11.2344L36.8619 11.2655L36.869 11.9195L36.4769 11.9611C36.0758 12.0037 35.7691 12.3382 35.7615 12.7416L35.7546 13.1029C35.7471 13.5046 36.0386 13.8496 36.4358 13.9092L36.7612 13.958L36.7683 14.5978L36.3525 14.6514C35.9662 14.7011 35.6719 15.0217 35.6554 15.4108L35.6434 15.6932C35.6267 16.0838 35.8948 16.4291 36.2772 16.51L36.6618 16.5912L36.6581 17.2572L36.4564 17.2914C36.0819 17.355 35.8037 17.6732 35.7907 18.0529L35.6349 22.6312L14.7425 27.3053ZM33.845 5.17645C33.8297 5.47325 33.9778 5.73944 34.2093 5.88956L30.8633 5.95593L30.9006 3.88397L33.9038 4.04071L33.845 5.17645ZM14.5666 1.92171L18.6975 2.17187L18.6949 1.70908L15.8185 1.5036L14.564 1.75938L14.5666 1.92171Z" />
</svg>
