<svg width="36" height="35" viewBox="0 0 36 35" fill="none" xmlns="http://www.w3.org/2000/svg">
<path fill-rule="evenodd" clip-rule="evenodd" d="M25.8548 0.823152C25.615 0.593119 25.2766 0.497236 24.9518 0.567289L15.6772 2.56743C15.5378 2.59748 15.4065 2.65698 15.292 2.74194L6.43555 9.31484C6.22035 9.47455 6.10037 9.73214 6.11659 9.99964C6.1402 10.3891 6.44367 10.7036 6.83209 10.741L7.16019 10.7726L7.22121 23.1094L6.49247 22.9697C5.86038 22.8485 5.28004 23.3473 5.30488 23.9904L5.50228 29.101L0.930092 29.6058C-0.192789 29.7297 -0.280883 31.3291 0.821568 31.5756L15.7126 34.9059C15.8291 34.9319 15.9494 34.9369 16.0676 34.9206L24.9005 33.7013L24.9214 33.6984L24.942 33.6938L31.2978 32.262C31.5768 32.1992 31.8156 32.0199 31.9537 31.7695L35.8174 24.7656C36.1879 24.0939 35.6954 23.2724 34.9284 23.2826L33.9937 23.2951C33.9891 23.2951 33.9845 23.2951 33.9799 23.2953L32.6625 23.3128L32.6229 22.6352C33.1019 22.5945 33.478 22.197 33.4859 21.7101L33.6681 10.4651C34.1053 10.3676 34.4188 9.97918 34.4188 9.52832V9.46442C34.4188 9.19199 34.3076 8.93135 34.111 8.74276L25.8548 0.823152ZM33.0401 24.3079L32.6758 24.3127C32.1411 24.3199 31.6954 23.905 31.6642 23.3711L31.6213 22.6373C31.5912 22.1223 31.9792 21.6824 32.4868 21.6415L32.6687 10.4166C32.6759 9.97185 32.9875 9.59192 33.4188 9.49554V9.46442L25.7219 2.08131L25.4694 2.47637L25.4196 2.55434L25.3452 2.60931L15.7552 9.69266L15.7971 31.2872L30.05 29.0108L31.656 26.3463L31.663 26.3346L31.6707 26.3234L33.0401 24.3079ZM24.8325 1.61601L15.888 3.54496L7.44217 9.81308C7.46768 9.82056 7.49276 9.82902 7.51735 9.83841C7.54413 9.8306 7.57192 9.82494 7.60056 9.82163L15.0648 8.95934L24.6766 1.85991L24.8325 1.61601ZM8.16015 10.7636C8.16016 10.765 8.16017 10.7663 8.16018 10.7677L8.22119 23.1045C8.22431 23.7343 7.65143 24.2102 7.03287 24.0915L6.30414 23.9518L6.50154 29.0624C6.5027 29.0926 6.50251 29.1225 6.50103 29.1521L14.797 31.2321L14.7558 10.0017L8.16015 10.7636ZM5.88028 30.0271C5.7963 30.0613 5.70633 30.0846 5.612 30.095L1.03982 30.5997L15.9309 33.93L24.7428 32.7136L31.0781 31.2865L34.9418 24.2825L34.2602 24.2916L32.5054 26.8742L30.7865 29.726L30.6665 29.925L30.4371 29.9617L15.799 32.2996L15.7995 32.5144L15.1879 32.361C15.1805 32.3593 15.1731 32.3575 15.1657 32.3555L5.89828 30.0319C5.89222 30.0304 5.88623 30.0288 5.88028 30.0271Z" />
</svg>
