<svg width="50" height="50" viewBox="0 0 50 50" fill="none" xmlns="http://www.w3.org/2000/svg">
<path d="M49 25C49 38.2548 38.2548 49 25 49C11.7452 49 1 38.2548 1 25C1 11.7452 11.7452 1 25 1C38.2548 1 49 11.7452 49 25Z" stroke="#494747" stroke-width="2"/>
<path d="M16.9942 12.5984H15.4928C14.0439 12.5984 12.8654 13.7759 12.8654 15.2235V16.7235C12.8654 18.171 14.0439 19.3485 15.4928 19.3485H16.9942C18.443 19.3485 19.6216 18.171 19.6216 16.7235V15.2235C19.6216 13.7759 18.443 12.5984 16.9942 12.5984ZM17.3695 16.7235C17.3695 16.9298 17.2014 17.0985 16.9942 17.0985H15.4928C15.2856 17.0985 15.1175 16.9298 15.1175 16.7235V15.2235C15.1175 15.0174 15.2856 14.8486 15.4928 14.8486H16.9942C17.2014 14.8486 17.3695 15.0174 17.3695 15.2235V16.7235Z" fill="#7D7D7D"/>
<path d="M24.1256 19.3488H25.6269C27.0758 19.3488 28.2544 18.1712 28.2544 16.7237V15.2237C28.2542 13.7762 27.0756 12.5987 25.6268 12.5987H24.1254C22.6765 12.5987 21.4979 13.7762 21.4979 15.2237V16.7237C21.4981 18.1712 22.6767 19.3488 24.1256 19.3488ZM23.7501 15.2237C23.7501 15.0175 23.9183 14.8487 24.1256 14.8487H25.6269C25.8342 14.8487 26.0022 15.0175 26.0022 15.2237V16.7237C26.0022 16.93 25.834 17.0986 25.6268 17.0986H24.1254C23.9182 17.0986 23.7501 16.9298 23.7501 16.7237V15.2237Z" fill="#7D7D7D"/>
<path d="M34.2598 12.5984H32.7584C31.3096 12.5984 30.131 13.7759 30.131 15.2235V16.7235C30.131 18.171 31.3096 19.3485 32.7584 19.3485H34.2598C35.7087 19.3485 36.8873 18.171 36.8873 16.7235V15.2235C36.8873 13.7759 35.7087 12.5984 34.2598 12.5984ZM34.6351 16.7235C34.6351 16.9298 34.467 17.0985 34.2598 17.0985H32.7584C32.5512 17.0985 32.3831 16.9298 32.3831 16.7235V15.2235C32.3831 15.0174 32.5512 14.8486 32.7584 14.8486H34.2598C34.467 14.8486 34.6351 15.0174 34.6351 15.2235V16.7235Z" fill="#7D7D7D"/>
<path d="M15.4928 27.9736H16.9942C18.4431 27.9736 19.6216 26.7961 19.6216 25.3486V23.8486C19.6216 22.4011 18.4431 21.2236 16.9942 21.2236H15.4928C14.0439 21.2237 12.8654 22.4013 12.8654 23.8488V25.3488C12.8654 26.7961 14.0439 27.9737 15.4928 27.9737V27.9736ZM15.1175 23.8488C15.1175 23.6424 15.2856 23.4738 15.4928 23.4738H16.9942C17.2014 23.4736 17.3695 23.6424 17.3695 23.8488V25.3487C17.3695 25.5551 17.2014 25.7237 16.9942 25.7237H15.4928C15.2856 25.7237 15.1175 25.5549 15.1175 25.3486V23.8488Z" fill="#7D7D7D"/>
<path d="M21.498 25.3485C21.498 26.796 22.6766 27.9735 24.1255 27.9735H25.6269C27.0758 27.9735 28.2544 26.796 28.2544 25.3485V23.8485C28.2544 22.401 27.0758 21.2235 25.6269 21.2235H24.1255C22.6766 21.2235 21.498 22.401 21.498 23.8485V25.3485ZM23.75 23.8487C23.75 23.6423 23.9181 23.4737 24.1254 23.4737H25.6267C25.834 23.4737 26.002 23.6425 26.002 23.8487V25.3486C26.002 25.555 25.834 25.7236 25.6267 25.7236H24.1254C23.9181 25.7236 23.75 25.5548 23.75 25.3486V23.8487Z" fill="#7D7D7D"/>
<path d="M34.2598 21.2234H32.7584C31.3096 21.2234 30.131 22.4009 30.131 23.8484V25.3484C30.131 26.7959 31.3096 27.9734 32.7584 27.9734H34.2598C35.7087 27.9734 36.8873 26.7959 36.8873 25.3484V23.8484C36.8873 22.4009 35.7087 21.2234 34.2598 21.2234ZM34.6351 25.3482C34.6351 25.5546 34.467 25.7232 34.2598 25.7232H32.7584C32.5512 25.7232 32.3831 25.5544 32.3831 25.3482V23.8483C32.3831 23.6419 32.5512 23.4733 32.7584 23.4733H34.2598C34.467 23.4733 34.6351 23.6421 34.6351 23.8483V25.3482Z" fill="#7D7D7D"/>
<path d="M12.8652 33.9734C12.8652 35.421 14.0438 36.5985 15.4927 36.5985H16.9941C18.4429 36.5985 19.6215 35.421 19.6215 33.9734V32.4734C19.6215 31.0259 18.4429 29.8484 16.9941 29.8484H15.4927C14.0438 29.8484 12.8652 31.0259 12.8652 32.4734V33.9734ZM15.1174 32.4734C15.1174 32.2671 15.2855 32.0985 15.4927 32.0985H16.9941C17.2013 32.0985 17.3694 32.2671 17.3694 32.4734V33.9734C17.3694 34.1796 17.2013 34.3484 16.9941 34.3484H15.4927C15.2855 34.3484 15.1174 34.1796 15.1174 33.9734V32.4734Z" fill="#7D7D7D"/>
<path d="M21.498 33.9734C21.498 35.421 22.6766 36.5985 24.1255 36.5985H25.6269C27.0758 36.5985 28.2544 35.421 28.2544 33.9734V32.4734C28.2544 31.0259 27.0758 29.8484 25.6269 29.8484H24.1255C22.6766 29.8484 21.498 31.0259 21.498 32.4734V33.9734ZM23.75 32.4734C23.75 32.2671 23.9181 32.0985 24.1254 32.0985H25.6267C25.834 32.0985 26.002 32.2673 26.002 32.4734V33.9734C26.002 34.1798 25.834 34.3484 25.6267 34.3484H24.1254C23.9181 34.3484 23.75 34.1796 23.75 33.9734V32.4734Z" fill="#7D7D7D"/>
<path d="M34.2598 29.8484H32.7584C31.3096 29.8484 30.131 31.0259 30.131 32.4734V33.9734C30.131 35.421 31.3096 36.5985 32.7584 36.5985H34.2598C35.7087 36.5985 36.8873 35.421 36.8873 33.9734V32.4734C36.8873 31.0259 35.7087 29.8484 34.2598 29.8484ZM34.6351 33.9735C34.6351 34.1798 34.467 34.3484 34.2598 34.3484H32.7584C32.5512 34.3484 32.3831 34.1796 32.3831 33.9735V32.4735C32.3831 32.2672 32.5512 32.0985 32.7584 32.0985H34.2598C34.467 32.0985 34.6351 32.2673 34.6351 32.4735V33.9735Z" fill="#7D7D7D"/>
</svg>
