<svg width="47" height="46" viewBox="0 0 47 46" fill="none" xmlns="http://www.w3.org/2000/svg">
<circle cx="23.4401" cy="23" r="22.75" fill="#E5E5E5" stroke="#848484" stroke-width="0.5"/>
<path d="M22.2425 16.6573L22.5485 16.9632L22.2425 24.9185L23.3134 25.5304L25.1493 24.4595L25.4553 18.3401L39.9889 25.8364L23.6194 37.1574L5.87305 25.3775L22.2425 16.6573Z" fill="#848484"/>
<path d="M26.5262 6.40726L23.9254 7.47816L20.8657 15.8924L23.7725 14.3625L23.3135 25.5305L25.1493 24.4596L25.7613 13.2916L28.515 11.9148L26.5262 6.40726Z" fill="#05FF00" stroke="#05FF00" stroke-width="0.1"/>
<path d="M6.02612 27.5193V25.3775L23.6195 37.1574L39.989 25.8365L39.683 27.9783L31.6513 33.6387L23.6195 39.2992L6.02612 27.5193Z" fill="#C4C4C4" stroke="#848484" stroke-width="0.1"/>
<path d="M26.5262 6.40723L25.3023 5.79529L22.7015 7.01918L19.7948 15.2804L20.8657 15.8924L23.9254 7.47813L26.5262 6.40723Z" fill="#C4C4C4" stroke="black" stroke-width="0.1"/>
<path d="M23.7725 14.3625L22.7016 14.9744L22.2427 24.9185L23.3136 25.5305L23.7725 14.3625Z" fill="#C4C4C4" stroke="black" stroke-width="0.1"/>
</svg>
