<svg width="50" height="50" viewBox="0 0 50 50" fill="none" xmlns="http://www.w3.org/2000/svg">
<circle cx="25" cy="25" r="25" fill="#E5E5E5"/>
<path d="M37.2999 12.3077H29.6285C28.9738 12.3077 28.6464 12.3077 28.406 12.4551C28.2714 12.5376 28.1583 12.6507 28.0758 12.7852C27.9285 13.0257 27.9285 13.3531 27.9285 14.0077V35.6627C27.9285 36.3174 27.9285 36.6447 28.0758 36.8852C28.1583 37.0197 28.2714 37.1329 28.406 37.2153C28.6464 37.3627 28.9738 37.3627 29.6285 37.3627H37.2999C37.9546 37.3627 38.2819 37.3627 38.5224 37.2153C38.657 37.1329 38.7701 37.0197 38.8525 36.8852C38.9999 36.6447 38.9999 36.3174 38.9999 35.6627V14.0077C38.9999 13.3531 38.9999 13.0257 38.8525 12.7852C38.7701 12.6507 38.657 12.5376 38.5224 12.4551C38.2819 12.3077 37.9546 12.3077 37.2999 12.3077Z" fill="#C4C4C4" stroke="#848484"/>
<path d="M27.9285 10L27.9285 40" stroke="#05FF00" stroke-width="4" stroke-linecap="round" stroke-linejoin="round"/>
<path d="M27.7499 13.1375C28.0261 13.1375 28.2499 12.9136 28.2499 12.6375C28.2499 12.3613 28.0261 12.1375 27.7499 12.1375V13.1375ZM15.7856 12.6375V12.1375H15.2856V12.6375H15.7856ZM15.7856 37.0331H15.2856V37.5331H15.7856V37.0331ZM27.7499 37.5331C28.0261 37.5331 28.2499 37.3092 28.2499 37.0331C28.2499 36.7569 28.0261 36.5331 27.7499 36.5331V37.5331ZM27.7499 12.1375H26.2544V13.1375H27.7499V12.1375ZM23.2633 12.1375H21.7678V13.1375H23.2633V12.1375ZM21.7678 12.1375H20.2723V13.1375H21.7678V12.1375ZM17.2812 12.1375H15.7856V13.1375H17.2812V12.1375ZM15.2856 12.6375V14.6704H16.2856V12.6375H15.2856ZM15.2856 18.7364V22.8023H16.2856V18.7364H15.2856ZM15.2856 26.8683V30.9342H16.2856V26.8683H15.2856ZM15.2856 35.0001V37.0331H16.2856V35.0001H15.2856ZM15.7856 37.5331H18.7767V36.5331H15.7856V37.5331ZM24.7589 37.5331H27.7499V36.5331H24.7589V37.5331Z" fill="#7D7D7D"/>
<path d="M20.5857 23.5164H9.2C9.08954 23.5164 9 23.606 9 23.7164V26.2835C9 26.3939 9.08954 26.4835 9.2 26.4835H20.5857C20.6962 26.4835 20.7857 26.573 20.7857 26.6835V30.1724C20.7857 30.3428 20.9852 30.4352 21.1151 30.325L27.2103 25.1548C27.3054 25.0741 27.3043 24.9271 27.2081 24.8478L21.1128 19.8297C20.9824 19.7223 20.7857 19.8151 20.7857 19.9841V23.3164C20.7857 23.4269 20.6962 23.5164 20.5857 23.5164Z" fill="#848484"/>
</svg>
