<svg width="50" height="50" viewBox="0 0 50 50" fill="none" xmlns="http://www.w3.org/2000/svg">
<path d="M49 25C49 38.2548 38.2548 49 25 49C11.7452 49 1 38.2548 1 25C1 11.7452 11.7452 1 25 1C38.2548 1 49 11.7452 49 25Z" stroke="#494747" stroke-width="2"/>
<path d="M36.7175 13H13.3927C13.2001 13 13.0441 13.2329 13.0441 13.521V36.479C13.0441 36.7666 13.1999 37 13.3927 37H36.7175C36.9099 37 37.0661 36.7666 37.0661 36.479V13.521C37.0661 13.2334 36.9099 13 36.7175 13ZM22.5161 30.2189C21.9638 30.2189 21.5161 29.7712 21.5161 29.2189V26.5212C21.5161 25.9689 21.9638 25.5212 22.5161 25.5212H27.5941C28.1464 25.5212 28.5941 25.9689 28.5941 26.5212V29.2189C28.5941 29.7712 28.1464 30.2189 27.5941 30.2189H22.5161ZM27.5937 19.7815C28.1459 19.7815 28.5937 20.2293 28.5937 20.7815V23.4792C28.5937 24.0315 28.1459 24.4792 27.5937 24.4792H22.5161C21.9638 24.4792 21.5161 24.0315 21.5161 23.4792V20.7815C21.5161 20.2293 21.9638 19.7815 22.5161 19.7815H27.5937ZM19.819 19.7815C20.3713 19.7815 20.819 20.2293 20.819 20.7815V23.4792C20.819 24.0315 20.3713 24.4792 19.819 24.4792H14.741C14.1887 24.4792 13.741 24.0315 13.741 23.4792V20.7815C13.741 20.2293 14.1887 19.7815 14.741 19.7815H19.819ZM19.819 25.5212C20.3713 25.5212 20.819 25.9689 20.819 26.5212V29.2189C20.819 29.7712 20.3713 30.2189 19.819 30.2189H14.741C14.1887 30.2189 13.741 29.7712 13.741 29.2189V26.5212C13.741 25.9689 14.1887 25.5212 14.741 25.5212H19.819ZM21.5161 32.2609C21.5161 31.7086 21.9638 31.2609 22.5161 31.2609H27.5941C28.1464 31.2609 28.5941 31.7086 28.5941 32.2609V34.9583C28.5941 35.5106 28.1464 35.9583 27.5941 35.9583H22.5161C21.9638 35.9583 21.5161 35.5106 21.5161 34.9583V32.2609ZM30.2912 30.219C29.7389 30.219 29.2912 29.7713 29.2912 29.219V26.5213C29.2912 25.969 29.7389 25.5213 30.2912 25.5213H35.3688C35.9211 25.5213 36.3688 25.969 36.3688 26.5213V29.219C36.3688 29.7713 35.9211 30.219 35.3688 30.219H30.2912ZM30.2912 24.4793C29.7389 24.4793 29.2912 24.0316 29.2912 23.4793V20.7816C29.2912 20.2293 29.7389 19.7816 30.2912 19.7816H35.3688C35.9211 19.7816 36.3688 20.2293 36.3688 20.7816V23.4793C36.3688 24.0316 35.9211 24.4793 35.3688 24.4793H30.2912ZM13.741 32.2609C13.741 31.7086 14.1887 31.2609 14.741 31.2609H19.819C20.3713 31.2609 20.819 31.7086 20.819 32.2609V34.9583C20.819 35.5106 20.3713 35.9583 19.819 35.9583H14.741C14.1887 35.9583 13.741 35.5106 13.741 34.9583V32.2609ZM30.2912 35.9585C29.7389 35.9585 29.2912 35.5108 29.2912 34.9585V32.2609C29.2912 31.7086 29.7389 31.2609 30.2912 31.2609H35.3688C35.9211 31.2609 36.3688 31.7086 36.3688 32.2609V34.9583C36.3688 35.5106 35.9211 35.9583 35.3688 35.9583L30.2912 35.9585Z" fill="#848484"/>
</svg>
