<svg width="50" height="50" viewBox="0 0 50 50" fill="none" xmlns="http://www.w3.org/2000/svg">
<path d="M22.2588 30.6588L22.2588 20.8611C22.2588 20.6402 22.0797 20.4611 21.8588 20.4611L19.9908 20.4611C19.7699 20.4611 19.5908 20.6402 19.5908 20.8611L19.5908 30.6588C19.5908 30.8798 19.4117 31.0588 19.1908 31.0588L16.7491 31.0588C16.4084 31.0588 16.2236 31.4577 16.4441 31.7176L20.6152 36.635C20.7765 36.8251 21.0705 36.823 21.229 36.6305L25.2774 31.7131C25.4923 31.4521 25.3066 31.0588 24.9686 31.0588L22.6588 31.0588C22.4379 31.0588 22.2588 30.8798 22.2588 30.6588Z" fill="#848484"/>
<path d="M29.6265 17.8101L29.6265 27.6078C29.6265 27.8287 29.8056 28.0078 30.0265 28.0078L31.8944 28.0078C32.1154 28.0078 32.2944 27.8287 32.2944 27.6078L32.2944 17.8101C32.2944 17.5892 32.4735 17.4101 32.6944 17.4101L35.1361 17.4101C35.4769 17.4101 35.6616 17.0112 35.4412 16.7513L31.2701 11.834C31.1088 11.6438 30.8147 11.646 30.6562 11.8385L26.6078 16.7559C26.393 17.0168 26.5786 17.4101 26.9166 17.4101L29.2265 17.4101C29.4474 17.4101 29.6265 17.5892 29.6265 17.8101Z" fill="#848484"/>
<circle cx="25" cy="25" r="24.5" stroke="#494747"/>
</svg>
