<svg width="47" height="48" viewBox="0 0 47 48" fill="none" xmlns="http://www.w3.org/2000/svg">
<path d="M46.36 24C46.36 36.7025 36.0625 47 23.36 47C10.6574 47 0.359985 36.7025 0.359985 24C0.359985 11.2974 10.6574 1 23.36 1C36.0625 1 46.36 11.2974 46.36 24Z" fill="#E5E5E5"/>
<path d="M46.36 24C46.36 36.7025 36.0625 47 23.36 47C10.6574 47 0.359985 36.7025 0.359985 24C0.359985 11.2974 10.6574 1 23.36 1C36.0625 1 46.36 11.2974 46.36 24Z" fill="#E5E5E5"/>
<path d="M46.36 24C46.36 36.7025 36.0625 47 23.36 47C10.6574 47 0.359985 36.7025 0.359985 24C0.359985 11.2974 10.6574 1 23.36 1C36.0625 1 46.36 11.2974 46.36 24Z" fill="#E5E5E5"/>
<path d="M46.36 24C46.36 36.7025 36.0625 47 23.36 47C10.6574 47 0.359985 36.7025 0.359985 24C0.359985 11.2974 10.6574 1 23.36 1C36.0625 1 46.36 11.2974 46.36 24Z" fill="#E5E5E5"/>
<path d="M46.36 24C46.36 36.7025 36.0625 47 23.36 47C10.6574 47 0.359985 36.7025 0.359985 24C0.359985 11.2974 10.6574 1 23.36 1C36.0625 1 46.36 11.2974 46.36 24Z" stroke="#848484" stroke-width="0.5"/>
<path d="M18.0707 8.96265L6.96912 20.7528L18.7979 31.578L22.5173 27.7666L34.0914 38.6649L37.5805 34.9594L26.0914 24.1413L29.8977 20.099L18.0707 8.96265Z" fill="#848484"/>
<path d="M18.189 12.8992L10.8708 20.6713L18.6429 27.9894L25.961 20.2174L18.189 12.8992Z" fill="#E5E5E5" stroke="black" stroke-width="0.1"/>
<path d="M21.9102 30.6689L18.7634 31.6143L22.5187 27.6985L23.719 28.8388L21.9102 30.6689Z" fill="#C4C4C4"/>
<path d="M20.039 8.90352L18.0707 8.96272L29.8977 20.099L26.0795 24.154L37.5686 34.9721L34.0686 38.6892L36.0369 38.63L39.5369 34.9129L28.0478 24.0948L31.866 20.0398L20.039 8.90352Z" fill="#C4C4C4"/>
<path d="M18.189 12.8992L10.8708 20.6713L18.6429 27.9894L19.5974 26.9757L12.8391 20.6121L19.2027 13.8538L18.189 12.8992Z" fill="#C4C4C4"/>
</svg>
