<svg width="50" height="50" viewBox="0 0 50 50" fill="none" xmlns="http://www.w3.org/2000/svg">
<path d="M49.2425 24.8106C49.2425 38.0947 38.4736 48.8637 25.1895 48.8637C11.9054 48.8637 1.13647 38.0947 1.13647 24.8106C1.13647 11.5265 11.9054 0.757599 25.1895 0.757599C38.4736 0.757599 49.2425 11.5265 49.2425 24.8106Z" fill="#E5E5E5"/>
<path d="M49.2425 24.8106C49.2425 38.0947 38.4736 48.8637 25.1895 48.8637C11.9054 48.8637 1.13647 38.0947 1.13647 24.8106C1.13647 11.5265 11.9054 0.757599 25.1895 0.757599C38.4736 0.757599 49.2425 11.5265 49.2425 24.8106Z" fill="#E5E5E5"/>
<circle cx="14.5832" cy="24.8106" r="3.97727" fill="#7D7D7D"/>
<circle cx="25.1894" cy="24.8106" r="3.97727" fill="#7D7D7D"/>
<circle cx="36.1743" cy="24.8106" r="3.97727" fill="#7D7D7D"/>
</svg>
