<svg width="47" height="48" viewBox="0 0 47 48" fill="none" xmlns="http://www.w3.org/2000/svg">
<path d="M46.4 24C46.4 36.7025 36.1026 47 23.4 47C10.6975 47 0.400024 36.7025 0.400024 24C0.400024 11.2974 10.6975 1 23.4 1C36.1026 1 46.4 11.2974 46.4 24Z" fill="#E5E5E5"/>
<path d="M46.4 24C46.4 36.7025 36.1026 47 23.4 47C10.6975 47 0.400024 36.7025 0.400024 24C0.400024 11.2974 10.6975 1 23.4 1C36.1026 1 46.4 11.2974 46.4 24Z" fill="#E5E5E5"/>
<path d="M46.4 24C46.4 36.7025 36.1026 47 23.4 47C10.6975 47 0.400024 36.7025 0.400024 24C0.400024 11.2974 10.6975 1 23.4 1C36.1026 1 46.4 11.2974 46.4 24Z" fill="#E5E5E5"/>
<path d="M46.4 24C46.4 36.7025 36.1026 47 23.4 47C10.6975 47 0.400024 36.7025 0.400024 24C0.400024 11.2974 10.6975 1 23.4 1C36.1026 1 46.4 11.2974 46.4 24Z" fill="#E5E5E5"/>
<path d="M46.4 24C46.4 36.7025 36.1026 47 23.4 47C10.6975 47 0.400024 36.7025 0.400024 24C0.400024 11.2974 10.6975 1 23.4 1C36.1026 1 46.4 11.2974 46.4 24Z" stroke="#848484" stroke-width="0.5"/>
<rect x="26.5885" y="26.3455" width="11.5973" height="11.5973" fill="#C4C4C4"/>
<rect x="13.226" y="11.5696" width="11.3505" height="11.3505" fill="#C4C4C4"/>
<rect x="13.226" y="11.5696" width="11.3505" height="11.3505" fill="#C4C4C4"/>
<rect x="26.5885" y="26.3455" width="11.5973" height="11.5973" fill="#C4C4C4"/>
<path d="M13.5328 11.5696H24.5765L21.2021 10.0357H11.0786V20.9261L13.5328 22.9201V11.5696Z" fill="#848484" stroke="#7D7D7D" stroke-width="0.1"/>
<path d="M13.5328 11.5696H24.5765L21.2021 10.0357H11.0786V20.9261L13.5328 22.9201V11.5696Z" fill="#848484" stroke="#7D7D7D" stroke-width="0.1"/>
<path d="M20.2818 19.2389L15.6802 19.2389L15.6802 20.7727L22.736 20.7727L22.736 13.717L20.2818 13.717L20.2818 19.2389Z" fill="#848484"/>
<path d="M26.9019 26.3454H38.1858L34.7379 24.7782H24.3944V35.9053L26.9019 37.9427V26.3454Z" fill="#848484" stroke="#7D7D7D" stroke-width="0.1"/>
<path d="M26.9019 26.3454H38.1858L34.7379 24.7782H24.3944V35.9053L26.9019 37.9427V26.3454Z" fill="#848484" stroke="#7D7D7D" stroke-width="0.1"/>
<path d="M15.58 20.78V13.88H22.48" stroke="#848484" stroke-width="0.5"/>
<path d="M18.4714 22.7679V30.9822H24.6321" stroke="#C4C4C4" stroke-width="2"/>
</svg>
