<svg width="127" height="127" viewBox="0 0 127 127" fill="none" xmlns="http://www.w3.org/2000/svg">
<path d="M45.6725 105.892C45.68 105.138 45.8879 104.559 46.2962 104.155C46.6512 103.803 47.1002 103.629 47.6432 103.635C48.3697 103.642 48.8986 103.885 49.2298 104.365C49.4127 104.635 49.5096 104.904 49.5206 105.174L48.6183 105.165C48.5618 104.957 48.4881 104.8 48.3974 104.694C48.2352 104.505 47.993 104.409 47.6707 104.406C47.3426 104.402 47.0825 104.533 46.8904 104.796C46.6984 105.058 46.6 105.431 46.5952 105.916C46.5904 106.4 46.6864 106.764 46.8832 107.008C47.082 107.25 47.3357 107.373 47.6443 107.376C47.9607 107.379 48.2029 107.278 48.3709 107.073C48.4638 106.962 48.5416 106.796 48.6044 106.574L49.4979 106.583C49.4151 107.053 49.2112 107.434 48.886 107.725C48.5628 108.017 48.1502 108.16 47.6483 108.156C47.0272 108.149 46.5409 107.945 46.1894 107.543C45.8379 107.14 45.6656 106.589 45.6725 105.892ZM52.0912 107.435C52.4486 107.438 52.7331 107.309 52.9446 107.048C53.1582 106.786 53.2674 106.412 53.2722 105.926C53.277 105.442 53.1752 105.066 52.9669 104.801C52.7605 104.533 52.4786 104.397 52.1212 104.394C51.7638 104.39 51.4774 104.519 51.2619 104.781C51.0464 105.042 50.9363 105.416 50.9315 105.903C50.9266 106.389 51.0294 106.765 51.2396 107.031C51.4499 107.297 51.7338 107.431 52.0912 107.435ZM54.1745 105.935C54.1668 106.71 53.9432 107.302 53.5036 107.71C53.1741 108.042 52.7008 108.206 52.0836 108.199C51.4664 108.193 50.9964 108.021 50.6736 107.682C50.2402 107.265 50.0273 106.669 50.035 105.894C50.0428 105.103 50.2675 104.511 50.7089 104.119C51.0383 103.786 51.5116 103.623 52.1288 103.629C52.746 103.635 53.216 103.808 53.5388 104.147C53.9704 104.548 54.1823 105.144 54.1745 105.935ZM54.8725 103.788L55.8187 103.798L57.5086 106.829L57.5384 103.815L58.3791 103.823L58.3364 108.141L57.4341 108.132L55.7009 105.048L55.6706 108.115L54.8298 108.106L54.8725 103.788ZM61.7511 103.856L62.6885 103.866L61.1722 108.169L60.3197 108.161L58.9035 103.828L59.8674 103.838L60.7724 107.125L61.7511 103.856ZM66.4103 104.667L64.1252 104.644L64.1161 105.561L66.2137 105.582L66.2063 106.332L64.1087 106.311L64.0977 107.422L66.4882 107.445L66.4806 108.222L63.2083 108.189L63.251 103.871L66.4178 103.902L66.4103 104.667ZM68.1213 104.669L68.1098 105.829L69.1322 105.84C69.3353 105.842 69.4879 105.82 69.5899 105.774C69.7704 105.694 69.8618 105.532 69.8642 105.29C69.8668 105.028 69.7816 104.852 69.6087 104.76C69.5116 104.709 69.3653 104.682 69.17 104.68L68.1213 104.669ZM69.3649 103.932C69.6676 103.94 69.8996 103.98 70.0611 104.05C70.2244 104.12 70.3621 104.222 70.4741 104.356C70.5667 104.466 70.6398 104.588 70.6931 104.721C70.7465 104.855 70.7723 105.006 70.7707 105.176C70.7686 105.381 70.7149 105.583 70.6094 105.781C70.5039 105.977 70.3317 106.115 70.0926 106.195C70.291 106.277 70.4305 106.392 70.5111 106.542C70.5936 106.689 70.6334 106.914 70.6304 107.217L70.6275 107.507C70.6255 107.704 70.632 107.838 70.647 107.908C70.6693 108.02 70.7232 108.103 70.8086 108.156L70.8075 108.264L69.8144 108.255C69.788 108.159 69.7692 108.081 69.7581 108.023C69.7359 107.901 69.7244 107.777 69.7237 107.65L69.7218 107.249C69.7206 106.973 69.6717 106.789 69.5749 106.697C69.4801 106.604 69.2999 106.556 69.0343 106.553L68.1027 106.544L68.086 108.238L67.2042 108.229L67.2469 103.911L69.3649 103.932ZM74.6996 103.984L74.6921 104.749L73.4001 104.736L73.365 108.29L72.4568 108.281L72.492 104.727L71.1942 104.714L71.2018 103.95L74.6996 103.984ZM78.4155 104.786L76.1305 104.763L76.1214 105.68L78.219 105.701L78.2115 106.451L76.114 106.43L76.103 107.54L78.4935 107.564L78.4858 108.34L75.2135 108.308L75.2563 103.99L78.4231 104.021L78.4155 104.786ZM80.1265 104.788L80.1151 105.948L81.1375 105.958C81.3406 105.96 81.4931 105.938 81.5952 105.893C81.7757 105.812 81.8671 105.651 81.8695 105.409C81.8721 105.147 81.7869 104.971 81.614 104.879C81.5168 104.827 81.3706 104.8 81.1753 104.799L80.1265 104.788ZM81.3702 104.05C81.6729 104.059 81.9049 104.099 82.0663 104.169C82.2297 104.239 82.3674 104.341 82.4794 104.474C82.572 104.585 82.645 104.707 82.6984 104.84C82.7518 104.973 82.7776 105.125 82.7759 105.295C82.7739 105.5 82.7202 105.702 82.6147 105.9C82.5092 106.096 82.3369 106.234 82.0979 106.314C82.2963 106.396 82.4358 106.511 82.5163 106.66C82.5989 106.808 82.6386 107.033 82.6356 107.336L82.6328 107.626C82.6308 107.823 82.6373 107.957 82.6522 108.027C82.6746 108.139 82.7284 108.221 82.8139 108.275L82.8128 108.383L81.8197 108.373C81.7933 108.277 81.7745 108.2 81.7634 108.141C81.7411 108.02 81.7297 107.896 81.729 107.769L81.7271 107.368C81.7259 107.092 81.6769 106.908 81.5802 106.815C81.4854 106.723 81.3052 106.675 81.0396 106.672L80.108 106.663L80.0912 108.356L79.2094 108.348L79.2522 104.029L81.3702 104.05Z" fill="#05FF00"/>
<path d="M60.2121 17.1498L59.3156 17.1409L59.3584 12.8228L60.2548 12.8316L60.2121 17.1498ZM61.0984 12.8458L64.1598 12.8761L64.1523 13.6349L61.9874 13.6135L61.9776 14.6066L63.873 14.6253L63.8656 15.3753L61.9701 15.3565L61.9522 17.167L61.0558 17.1581L61.0984 12.8458ZM64.5571 15.0686C64.5646 14.3148 64.7724 13.7357 65.1808 13.3316C65.5358 12.9796 65.9848 12.8063 66.5278 12.8117C67.2543 12.8188 67.7832 13.0624 68.1144 13.5422C68.2972 13.8116 68.3942 14.0812 68.4052 14.3508L67.5029 14.3419C67.4464 14.1343 67.3727 13.9773 67.282 13.8709C67.1198 13.6818 66.8775 13.5857 66.5553 13.5825C66.2272 13.5792 65.9671 13.7095 65.775 13.9732C65.583 14.235 65.4845 14.6081 65.4798 15.0924C65.475 15.5768 65.571 15.941 65.7678 16.1852C65.9666 16.4274 66.2203 16.55 66.5288 16.5531C66.8452 16.5562 67.0875 16.4551 67.2555 16.2497C67.3484 16.1393 67.4262 15.973 67.489 15.751L68.3825 15.7598C68.2997 16.2297 68.0957 16.6105 67.7706 16.9023C67.4473 17.194 67.0348 17.3374 66.5328 17.3324C65.9118 17.3263 65.4255 17.1222 65.074 16.7203C64.7225 16.3164 64.5502 15.7659 64.5571 15.0686ZM52.5453 19.7557L52.5377 20.5203L51.2458 20.5076L51.2107 24.0611L50.3025 24.0521L50.3377 20.4986L49.0399 20.4857L49.0474 19.7211L52.5453 19.7557ZM54.8438 23.4525C55.2012 23.456 55.4857 23.327 55.6973 23.0654C55.9108 22.8038 56.02 22.4299 56.0248 21.9436C56.0296 21.4592 55.9278 21.0842 55.7195 20.8184C55.5132 20.5507 55.2313 20.4151 54.8739 20.4116C54.5165 20.4081 54.23 20.5371 54.0146 20.7986C53.7991 21.0602 53.6889 21.4341 53.6841 21.9204C53.6793 22.4067 53.782 22.7828 53.9923 23.0485C54.2026 23.3143 54.4864 23.4489 54.8438 23.4525ZM56.9271 21.9525C56.9194 22.7278 56.6958 23.3194 56.2562 23.7272C55.9267 24.0599 55.4534 24.2232 54.8362 24.2171C54.2191 24.211 53.7491 24.0383 53.4263 23.6992C52.9929 23.2828 52.78 22.6869 52.7877 21.9115C52.7955 21.1206 53.0201 20.529 53.4615 20.1369C53.791 19.8042 54.2643 19.6409 54.8815 19.647C55.4986 19.6531 55.9686 19.8257 56.2914 20.1649C56.723 20.5656 56.9349 21.1615 56.9271 21.9525ZM59.5135 23.4987C59.8709 23.5022 60.1554 23.3732 60.367 23.1116C60.5805 22.85 60.6897 22.4761 60.6945 21.9898C60.6993 21.5054 60.5975 21.1304 60.3892 20.8646C60.1829 20.5969 59.901 20.4613 59.5436 20.4578C59.1862 20.4543 58.8997 20.5833 58.6842 20.8448C58.4688 21.1064 58.3586 21.4803 58.3538 21.9666C58.349 22.4529 58.4517 22.8289 58.662 23.0947C58.8723 23.3605 59.1561 23.4951 59.5135 23.4987ZM61.5968 21.9987C61.5891 22.774 61.3655 23.3656 60.9259 23.7734C60.5964 24.1061 60.1231 24.2694 59.5059 24.2633C58.8888 24.2572 58.4188 24.0845 58.096 23.7454C57.6626 23.329 57.4497 22.7331 57.4574 21.9577C57.4652 21.1668 57.6898 20.5752 58.1312 20.1831C58.4607 19.8504 58.934 19.6871 59.5511 19.6932C60.1683 19.6993 60.6383 19.8719 60.9611 20.2111C61.3927 20.6118 61.6046 21.2077 61.5968 21.9987ZM62.3095 19.8523L63.2118 19.8612L63.1767 23.403L65.3153 23.4242L65.3076 24.2005L62.2668 24.1705L62.3095 19.8523ZM66.8458 20.6472L66.8364 21.5993L67.8969 21.6098C68.0863 21.6117 68.24 21.578 68.3578 21.5089C68.4777 21.4378 68.5385 21.3114 68.5403 21.1298C68.5423 20.9287 68.4655 20.7951 68.3099 20.7291C68.1756 20.6828 68.0039 20.6587 67.795 20.6566L66.8458 20.6472ZM66.8293 22.3141L66.8179 23.4654L67.8784 23.4759C68.0678 23.4778 68.2155 23.4539 68.3215 23.4041C68.5138 23.3123 68.6113 23.1335 68.6139 22.8679C68.6162 22.6433 68.5249 22.4881 68.3402 22.4023C68.2372 22.3544 68.0919 22.3286 67.9044 22.3248L66.8293 22.3141ZM68.0895 19.9095C68.6187 19.9225 68.9921 20.0795 69.2099 20.3805C69.3409 20.5654 69.4051 20.7858 69.4025 21.0417C69.3999 21.3053 69.3314 21.5166 69.1971 21.6754C69.1219 21.7645 69.0118 21.8455 68.8665 21.9182C69.0864 22.0005 69.2512 22.1291 69.3608 22.304C69.4723 22.4789 69.5269 22.6904 69.5244 22.9385C69.5219 23.1943 69.4552 23.4232 69.3243 23.625C69.2409 23.7589 69.1372 23.8712 69.0133 23.9618C68.8736 24.0659 68.7088 24.1365 68.519 24.1737C68.3311 24.2109 68.1268 24.2284 67.9061 24.2262L65.9492 24.2069L65.9919 19.8887L68.0895 19.9095ZM72.1867 23.624C72.5441 23.6275 72.8286 23.4985 73.0402 23.2369C73.2537 22.9754 73.3629 22.6014 73.3677 22.1151C73.3725 21.6308 73.2707 21.2557 73.0624 20.99C72.8561 20.7223 72.5742 20.5867 72.2168 20.5831C71.8594 20.5796 71.5729 20.7086 71.3575 20.9702C71.142 21.2317 71.0318 21.6057 71.027 22.092C71.0222 22.5783 71.1249 22.9543 71.3352 23.2201C71.5455 23.4858 71.8293 23.6205 72.1867 23.624ZM74.27 22.124C74.2623 22.8994 74.0387 23.491 73.5991 23.8987C73.2696 24.2314 72.7963 24.3947 72.1792 24.3886C71.562 24.3825 71.092 24.2099 70.7692 23.8707C70.3358 23.4543 70.1229 22.8584 70.1306 22.0831C70.1384 21.2921 70.363 20.7006 70.8044 20.3084C71.1339 19.9757 71.6072 19.8124 72.2244 19.8185C72.8415 19.8246 73.3115 19.9973 73.6343 20.3364C74.0659 20.7372 74.2778 21.3331 74.27 22.124ZM75.6284 24.3026L74.5796 24.2922L75.99 22.1059L74.6897 19.9748L75.7678 19.9854L76.5244 21.3963L77.3292 20.0009L78.3722 20.0112L77.0303 22.081L78.4115 24.3301L77.3158 24.3193L76.5101 22.8406L75.6284 24.3026Z" fill="#05FF00"/>
<rect x="49" y="45" width="33" height="32" fill="#C4C4C4"/>
<path d="M74 60L88.7224 85.5H59.2776L74 60Z" fill="#05FF00"/>
<circle cx="49.5" cy="47.5" r="13.5" fill="#7D7D7D"/>
</svg>
