<svg width="127" height="127" viewBox="0 0 127 127" fill="none" xmlns="http://www.w3.org/2000/svg">
<path d="M50.2573 107.417C50.6147 107.42 50.8992 107.291 51.1107 107.03C51.3243 106.768 51.4335 106.394 51.4383 105.908C51.4431 105.423 51.3413 105.048 51.133 104.783C50.9266 104.515 50.6448 104.379 50.2873 104.376C49.9299 104.372 49.6435 104.501 49.428 104.763C49.2125 105.024 49.1024 105.398 49.0976 105.885C49.0928 106.371 49.1955 106.747 49.4058 107.013C49.616 107.278 49.8999 107.413 50.2573 107.417ZM52.3406 105.917C52.3329 106.692 52.1093 107.284 51.6697 107.691C51.3402 108.024 50.8669 108.187 50.2497 108.181C49.6325 108.175 49.1626 108.003 48.8397 107.663C48.4063 107.247 48.1935 106.651 48.2011 105.876C48.2089 105.085 48.4336 104.493 48.875 104.101C49.2044 103.768 49.6778 103.605 50.2949 103.611C50.9121 103.617 51.3821 103.79 51.7049 104.129C52.1365 104.53 52.3484 105.126 52.3406 105.917ZM55.4712 105.168C55.4734 104.944 55.4154 104.783 55.2972 104.686C55.181 104.589 55.0164 104.54 54.8035 104.538L53.9628 104.529L53.9502 105.801L54.791 105.809C55.0039 105.811 55.1694 105.761 55.2876 105.659C55.4078 105.556 55.4689 105.393 55.4712 105.168ZM56.3647 105.171C56.3597 105.681 56.2272 106.04 55.9673 106.248C55.7075 106.457 55.3383 106.559 54.8598 106.554L53.9428 106.545L53.9275 108.098L53.031 108.089L53.0737 103.77L54.9545 103.789C55.3881 103.793 55.7327 103.908 55.9883 104.133C56.2439 104.359 56.3694 104.705 56.3647 105.171ZM60.1925 103.841L60.185 104.606L58.893 104.593L58.8579 108.146L57.9497 108.137L57.9849 104.584L56.6871 104.571L56.6947 103.806L60.1925 103.841ZM61.5062 108.172L60.6098 108.164L60.6525 103.845L61.5489 103.854L61.5062 108.172ZM65.2548 103.891L66.5526 103.904L66.5099 108.222L65.6691 108.214L65.698 105.293C65.6988 105.209 65.7009 105.092 65.7044 104.941C65.7078 104.789 65.71 104.672 65.7108 104.59L64.8576 108.206L63.9817 108.197L63.206 104.565C63.2052 104.647 63.205 104.764 63.2055 104.917C63.2059 105.067 63.2058 105.184 63.2049 105.268L63.176 108.189L62.3353 108.181L62.378 103.863L63.6904 103.876L64.4419 107.279L65.2548 103.891ZM68.1738 108.238L67.2774 108.23L67.3201 103.911L68.2166 103.92L68.1738 108.238ZM68.7204 107.482L70.9774 104.712L68.8037 104.691L68.8113 103.926L72.1099 103.959L72.1028 104.682L69.8161 107.493L72.0806 107.515L72.0731 108.277L68.7129 108.244L68.7204 107.482ZM75.9137 104.761L73.6287 104.739L73.6196 105.655L75.7171 105.676L75.7097 106.426L73.6122 106.405L73.6012 107.516L75.9917 107.539L75.984 108.316L72.7117 108.283L72.7544 103.965L75.9213 103.996L75.9137 104.761ZM77.6247 104.763L77.6132 105.923L78.6356 105.934C78.8387 105.936 78.9913 105.914 79.0933 105.868C79.2738 105.788 79.3653 105.626 79.3677 105.384C79.3703 105.122 79.2851 104.946 79.1122 104.854C79.015 104.803 78.8688 104.776 78.6735 104.774L77.6247 104.763ZM78.8684 104.026C79.171 104.034 79.4031 104.074 79.5645 104.144C79.7279 104.214 79.8656 104.316 79.9775 104.45C80.0702 104.56 80.1432 104.682 80.1966 104.815C80.2499 104.949 80.2758 105.1 80.2741 105.27C80.2721 105.475 80.2183 105.677 80.1128 105.875C80.0074 106.071 79.8351 106.209 79.596 106.289C79.7945 106.371 79.9339 106.486 80.0145 106.636C80.097 106.783 80.1368 107.008 80.1338 107.311L80.1309 107.601C80.129 107.798 80.1355 107.932 80.1504 108.002C80.1727 108.114 80.2266 108.197 80.312 108.25L80.3109 108.358L79.3178 108.349C79.2914 108.253 79.2727 108.175 79.2615 108.117C79.2393 107.995 79.2278 107.871 79.2271 107.744L79.2252 107.343C79.2241 107.067 79.1751 106.883 79.0784 106.791C78.9836 106.698 78.8034 106.65 78.5377 106.648L77.6062 106.638L77.5894 108.332L76.7076 108.323L76.7503 104.005L78.8684 104.026Z" fill="#05FF00"/>
<path d="M60.2121 17.1498L59.3156 17.1409L59.3584 12.8228L60.2548 12.8316L60.2121 17.1498ZM61.0984 12.8458L64.1598 12.8761L64.1523 13.6349L61.9874 13.6135L61.9776 14.6066L63.873 14.6253L63.8656 15.3753L61.9701 15.3565L61.9522 17.167L61.0558 17.1581L61.0984 12.8458ZM64.5571 15.0686C64.5646 14.3148 64.7724 13.7357 65.1808 13.3316C65.5358 12.9796 65.9848 12.8063 66.5278 12.8117C67.2543 12.8188 67.7832 13.0624 68.1144 13.5422C68.2972 13.8116 68.3942 14.0812 68.4052 14.3508L67.5029 14.3419C67.4464 14.1343 67.3727 13.9773 67.282 13.8709C67.1198 13.6818 66.8775 13.5857 66.5553 13.5825C66.2272 13.5792 65.9671 13.7095 65.775 13.9732C65.583 14.235 65.4845 14.6081 65.4798 15.0924C65.475 15.5768 65.571 15.941 65.7678 16.1852C65.9666 16.4274 66.2203 16.55 66.5288 16.5531C66.8452 16.5562 67.0875 16.4551 67.2555 16.2497C67.3484 16.1393 67.4262 15.973 67.489 15.751L68.3825 15.7598C68.2997 16.2297 68.0957 16.6105 67.7706 16.9023C67.4473 17.194 67.0348 17.3374 66.5328 17.3324C65.9118 17.3263 65.4255 17.1222 65.074 16.7203C64.7225 16.3164 64.5502 15.7659 64.5571 15.0686ZM52.5453 19.7557L52.5377 20.5203L51.2458 20.5076L51.2107 24.0611L50.3025 24.0521L50.3377 20.4986L49.0399 20.4857L49.0474 19.7211L52.5453 19.7557ZM54.8438 23.4525C55.2012 23.456 55.4857 23.327 55.6973 23.0654C55.9108 22.8038 56.02 22.4299 56.0248 21.9436C56.0296 21.4592 55.9278 21.0842 55.7195 20.8184C55.5132 20.5507 55.2313 20.4151 54.8739 20.4116C54.5165 20.4081 54.23 20.5371 54.0146 20.7986C53.7991 21.0602 53.6889 21.4341 53.6841 21.9204C53.6793 22.4067 53.782 22.7828 53.9923 23.0485C54.2026 23.3143 54.4864 23.4489 54.8438 23.4525ZM56.9271 21.9525C56.9194 22.7278 56.6958 23.3194 56.2562 23.7272C55.9267 24.0599 55.4534 24.2232 54.8362 24.2171C54.2191 24.211 53.7491 24.0383 53.4263 23.6992C52.9929 23.2828 52.78 22.6869 52.7877 21.9115C52.7955 21.1206 53.0201 20.529 53.4615 20.1369C53.791 19.8042 54.2643 19.6409 54.8815 19.647C55.4986 19.6531 55.9686 19.8257 56.2914 20.1649C56.723 20.5656 56.9349 21.1615 56.9271 21.9525ZM59.5135 23.4987C59.8709 23.5022 60.1554 23.3732 60.367 23.1116C60.5805 22.85 60.6897 22.4761 60.6945 21.9898C60.6993 21.5054 60.5975 21.1304 60.3892 20.8646C60.1829 20.5969 59.901 20.4613 59.5436 20.4578C59.1862 20.4543 58.8997 20.5833 58.6842 20.8448C58.4688 21.1064 58.3586 21.4803 58.3538 21.9666C58.349 22.4529 58.4517 22.8289 58.662 23.0947C58.8723 23.3605 59.1561 23.4951 59.5135 23.4987ZM61.5968 21.9987C61.5891 22.774 61.3655 23.3656 60.9259 23.7734C60.5964 24.1061 60.1231 24.2694 59.5059 24.2633C58.8888 24.2572 58.4188 24.0845 58.096 23.7454C57.6626 23.329 57.4497 22.7331 57.4574 21.9577C57.4652 21.1668 57.6898 20.5752 58.1312 20.1831C58.4607 19.8504 58.934 19.6871 59.5511 19.6932C60.1683 19.6993 60.6383 19.8719 60.9611 20.2111C61.3927 20.6118 61.6046 21.2077 61.5968 21.9987ZM62.3095 19.8523L63.2118 19.8612L63.1767 23.403L65.3153 23.4242L65.3076 24.2005L62.2668 24.1705L62.3095 19.8523ZM66.8458 20.6472L66.8364 21.5993L67.8969 21.6098C68.0863 21.6117 68.24 21.578 68.3578 21.5089C68.4777 21.4378 68.5385 21.3114 68.5403 21.1298C68.5423 20.9287 68.4655 20.7951 68.3099 20.7291C68.1756 20.6828 68.0039 20.6587 67.795 20.6566L66.8458 20.6472ZM66.8293 22.3141L66.8179 23.4654L67.8784 23.4759C68.0678 23.4778 68.2155 23.4539 68.3215 23.4041C68.5138 23.3123 68.6113 23.1335 68.6139 22.8679C68.6162 22.6433 68.5249 22.4881 68.3402 22.4023C68.2372 22.3544 68.0919 22.3286 67.9044 22.3248L66.8293 22.3141ZM68.0895 19.9095C68.6187 19.9225 68.9921 20.0795 69.2099 20.3805C69.3409 20.5654 69.4051 20.7858 69.4025 21.0417C69.3999 21.3053 69.3314 21.5166 69.1971 21.6754C69.1219 21.7645 69.0118 21.8455 68.8665 21.9182C69.0864 22.0005 69.2512 22.1291 69.3608 22.304C69.4723 22.4789 69.5269 22.6904 69.5244 22.9385C69.5219 23.1943 69.4552 23.4232 69.3243 23.625C69.2409 23.7589 69.1372 23.8712 69.0133 23.9618C68.8736 24.0659 68.7088 24.1365 68.519 24.1737C68.3311 24.2109 68.1268 24.2284 67.9061 24.2262L65.9492 24.2069L65.9919 19.8887L68.0895 19.9095ZM72.1867 23.624C72.5441 23.6275 72.8286 23.4985 73.0402 23.2369C73.2537 22.9754 73.3629 22.6014 73.3677 22.1151C73.3725 21.6308 73.2707 21.2557 73.0624 20.99C72.8561 20.7223 72.5742 20.5867 72.2168 20.5831C71.8594 20.5796 71.5729 20.7086 71.3575 20.9702C71.142 21.2317 71.0318 21.6057 71.027 22.092C71.0222 22.5783 71.1249 22.9543 71.3352 23.2201C71.5455 23.4858 71.8293 23.6205 72.1867 23.624ZM74.27 22.124C74.2623 22.8994 74.0387 23.491 73.5991 23.8987C73.2696 24.2314 72.7963 24.3947 72.1792 24.3886C71.562 24.3825 71.092 24.2099 70.7692 23.8707C70.3358 23.4543 70.1229 22.8584 70.1306 22.0831C70.1384 21.2921 70.363 20.7006 70.8044 20.3084C71.1339 19.9757 71.6072 19.8124 72.2244 19.8185C72.8415 19.8246 73.3115 19.9973 73.6343 20.3364C74.0659 20.7372 74.2778 21.3331 74.27 22.124ZM75.6284 24.3026L74.5796 24.2922L75.99 22.1059L74.6897 19.9748L75.7678 19.9854L76.5244 21.3963L77.3292 20.0009L78.3722 20.0112L77.0303 22.081L78.4115 24.3301L77.3158 24.3193L76.5101 22.8406L75.6284 24.3026Z" fill="#05FF00"/>
<path d="M49.6316 46H34L45.0132 63.5L34 81H50.6974L61 63.5L49.6316 46Z" fill="#C4C4C4"/>
<path d="M67.6316 46H52L63.0132 63.5L52 81H68.6974L79 63.5L67.6316 46Z" fill="#7D7D7D"/>
<path d="M85.6316 46H70L81.0132 63.5L70 81H86.6974L97 63.5L85.6316 46Z" fill="#05FF00"/>
</svg>
