<svg width="127" height="127" viewBox="0 0 127 127" fill="none" xmlns="http://www.w3.org/2000/svg">
<path d="M47.885 104.459L47.8735 105.619L48.8959 105.63C49.099 105.632 49.2516 105.61 49.3536 105.564C49.5341 105.483 49.6256 105.322 49.628 105.08C49.6305 104.818 49.5454 104.642 49.3724 104.55C49.2753 104.498 49.1291 104.472 48.9338 104.47L47.885 104.459ZM49.1287 103.722C49.4313 103.73 49.6634 103.77 49.8248 103.84C49.9882 103.91 50.1259 104.012 50.2378 104.146C50.3305 104.256 50.4035 104.378 50.4569 104.511C50.5102 104.644 50.5361 104.796 50.5344 104.966C50.5324 105.171 50.4786 105.373 50.3731 105.571C50.2677 105.767 50.0954 105.905 49.8563 105.985C50.0547 106.067 50.1942 106.182 50.2748 106.332C50.3573 106.479 50.3971 106.704 50.3941 107.007L50.3912 107.297C50.3893 107.494 50.3958 107.628 50.4107 107.698C50.433 107.81 50.4869 107.892 50.5723 107.946L50.5712 108.054L49.5781 108.045C49.5517 107.949 49.533 107.871 49.5218 107.813C49.4996 107.691 49.4881 107.567 49.4874 107.44L49.4855 107.039C49.4843 106.763 49.4354 106.579 49.3386 106.486C49.2439 106.394 49.0637 106.346 48.798 106.343L47.8664 106.334L47.8497 108.028L46.9679 108.019L47.0106 103.701L49.1287 103.722ZM54.5115 104.54L52.2264 104.517L52.2174 105.434L54.3149 105.455L54.3075 106.205L52.2099 106.184L52.199 107.294L54.5895 107.318L54.5818 108.094L51.3095 108.062L51.3522 103.744L54.519 103.775L54.5115 104.54ZM55.3276 103.783L56.2299 103.792L56.1949 107.334L58.3334 107.355L58.3257 108.131L55.2849 108.101L55.3276 103.783ZM60.8691 107.512C61.2265 107.515 61.511 107.386 61.7226 107.125C61.9361 106.863 62.0453 106.489 62.0501 106.003C62.0549 105.518 61.9531 105.143 61.7448 104.878C61.5385 104.61 61.2566 104.474 60.8992 104.471C60.5418 104.467 60.2553 104.596 60.0398 104.858C59.8244 105.119 59.7142 105.493 59.7094 105.98C59.7046 106.466 59.8073 106.842 60.0176 107.108C60.2279 107.374 60.5117 107.508 60.8691 107.512ZM62.9524 106.012C62.9447 106.787 62.7211 107.379 62.2815 107.786C61.952 108.119 61.4787 108.282 60.8615 108.276C60.2444 108.27 59.7744 108.098 59.4516 107.758C59.0182 107.342 58.8053 106.746 58.813 105.971C58.8208 105.18 59.0454 104.588 59.4868 104.196C59.8163 103.863 60.2896 103.7 60.9067 103.706C61.5239 103.712 61.9939 103.885 62.3167 104.224C62.7483 104.625 62.9602 105.221 62.9524 106.012ZM63.4559 106.058C63.4633 105.304 63.6712 104.725 64.0795 104.321C64.4346 103.969 64.8836 103.795 65.4265 103.801C66.1531 103.808 66.6819 104.051 67.0131 104.531C67.196 104.801 67.293 105.07 67.304 105.34L66.4017 105.331C66.3451 105.123 66.2715 104.966 66.1807 104.86C66.0185 104.671 65.7763 104.575 65.4541 104.572C65.126 104.568 64.8659 104.699 64.6738 104.962C64.4818 105.224 64.3833 105.597 64.3785 106.082C64.3737 106.566 64.4698 106.93 64.6666 107.174C64.8654 107.416 65.119 107.539 65.4276 107.542C65.744 107.545 65.9862 107.444 66.1543 107.239C66.2472 107.128 66.325 106.962 66.3877 106.74L67.2813 106.749C67.1985 107.219 66.9945 107.6 66.6693 107.891C66.3461 108.183 65.9336 108.327 65.4316 108.322C64.8106 108.315 64.3243 108.111 63.9728 107.709C63.6213 107.306 63.449 106.755 63.4559 106.058ZM69.1548 106.606L70.2505 106.617L69.7283 104.913L69.1548 106.606ZM69.2371 103.92L70.2565 103.931L71.7431 108.264L70.7646 108.254L70.4951 107.364L68.9043 107.348L68.5967 108.233L67.6534 108.223L69.2371 103.92ZM75.0288 103.978L75.0212 104.742L73.7293 104.73L73.6941 108.283L72.786 108.274L72.8211 104.721L71.5233 104.708L71.5309 103.943L75.0288 103.978ZM77.3273 107.675C77.6847 107.678 77.9692 107.549 78.1808 107.287C78.3943 107.026 78.5035 106.652 78.5083 106.166C78.5131 105.681 78.4113 105.306 78.203 105.04C77.9966 104.773 77.7148 104.637 77.3574 104.634C77 104.63 76.7135 104.759 76.498 105.021C76.2825 105.282 76.1724 105.656 76.1676 106.142C76.1628 106.629 76.2655 107.005 76.4758 107.271C76.686 107.536 76.9699 107.671 77.3273 107.675ZM79.4106 106.175C79.4029 106.95 79.1793 107.541 78.7397 107.949C78.4102 108.282 77.9369 108.445 77.3197 108.439C76.7026 108.433 76.2326 108.26 75.9097 107.921C75.4763 107.505 75.2635 106.909 75.2711 106.134C75.279 105.343 75.5036 104.751 75.945 104.359C76.2744 104.026 76.7478 103.863 77.3649 103.869C77.9821 103.875 78.4521 104.048 78.7749 104.387C79.2065 104.788 79.4184 105.384 79.4106 106.175ZM81.0181 104.787L81.0067 105.947L82.0291 105.957C82.2322 105.959 82.3848 105.937 82.4868 105.891C82.6673 105.811 82.7587 105.65 82.7611 105.408C82.7637 105.146 82.6785 104.97 82.5056 104.878C82.4084 104.826 82.2622 104.799 82.0669 104.797L81.0181 104.787ZM82.2618 104.049C82.5645 104.058 82.7965 104.098 82.958 104.168C83.1213 104.238 83.259 104.339 83.371 104.473C83.4636 104.584 83.5366 104.706 83.59 104.839C83.6434 104.972 83.6692 105.124 83.6675 105.294C83.6655 105.499 83.6118 105.7 83.5063 105.899C83.4008 106.095 83.2286 106.233 82.9895 106.312C83.1879 106.395 83.3274 106.51 83.4079 106.659C83.4905 106.807 83.5302 107.032 83.5272 107.334L83.5244 107.624C83.5224 107.822 83.5289 107.956 83.5438 108.026C83.5662 108.138 83.62 108.22 83.7055 108.274L83.7044 108.382L82.7113 108.372C82.6849 108.276 82.6661 108.199 82.655 108.14C82.6327 108.019 82.6213 107.895 82.6206 107.768L82.6187 107.366C82.6175 107.091 82.5685 106.907 82.4718 106.814C82.377 106.721 82.1968 106.674 81.9312 106.671L80.9996 106.662L80.9828 108.355L80.101 108.347L80.1438 104.028L82.2618 104.049Z" fill="#05FF00"/>
<path d="M61.2121 17.1498L60.3156 17.1409L60.3584 12.8228L61.2548 12.8316L61.2121 17.1498ZM62.0984 12.8458L65.1598 12.8761L65.1523 13.6349L62.9874 13.6135L62.9776 14.6066L64.873 14.6253L64.8656 15.3753L62.9701 15.3565L62.9522 17.167L62.0558 17.1581L62.0984 12.8458ZM65.5571 15.0686C65.5646 14.3148 65.7724 13.7357 66.1808 13.3316C66.5358 12.9796 66.9848 12.8063 67.5278 12.8117C68.2543 12.8188 68.7832 13.0624 69.1144 13.5422C69.2972 13.8116 69.3942 14.0812 69.4052 14.3508L68.5029 14.3419C68.4464 14.1343 68.3727 13.9773 68.282 13.8709C68.1198 13.6818 67.8775 13.5857 67.5553 13.5825C67.2272 13.5792 66.9671 13.7095 66.775 13.9732C66.583 14.235 66.4845 14.6081 66.4798 15.0924C66.475 15.5768 66.571 15.941 66.7678 16.1852C66.9666 16.4274 67.2203 16.55 67.5288 16.5531C67.8452 16.5562 68.0875 16.4551 68.2555 16.2497C68.3484 16.1393 68.4262 15.973 68.489 15.751L69.3825 15.7598C69.2997 16.2297 69.0957 16.6105 68.7706 16.9023C68.4473 17.194 68.0348 17.3374 67.5328 17.3324C66.9118 17.3263 66.4255 17.1222 66.074 16.7203C65.7225 16.3164 65.5502 15.7659 65.5571 15.0686ZM53.5453 19.7557L53.5377 20.5203L52.2458 20.5076L52.2107 24.0611L51.3025 24.0521L51.3377 20.4986L50.0399 20.4857L50.0474 19.7211L53.5453 19.7557ZM55.8438 23.4525C56.2012 23.456 56.4857 23.327 56.6973 23.0654C56.9108 22.8038 57.02 22.4299 57.0248 21.9436C57.0296 21.4592 56.9278 21.0842 56.7195 20.8184C56.5132 20.5507 56.2313 20.4151 55.8739 20.4116C55.5165 20.4081 55.23 20.5371 55.0146 20.7986C54.7991 21.0602 54.6889 21.4341 54.6841 21.9204C54.6793 22.4067 54.782 22.7828 54.9923 23.0485C55.2026 23.3143 55.4864 23.4489 55.8438 23.4525ZM57.9271 21.9525C57.9194 22.7278 57.6958 23.3194 57.2562 23.7272C56.9267 24.0599 56.4534 24.2232 55.8362 24.2171C55.2191 24.211 54.7491 24.0383 54.4263 23.6992C53.9929 23.2828 53.78 22.6869 53.7877 21.9115C53.7955 21.1206 54.0201 20.529 54.4615 20.1369C54.791 19.8042 55.2643 19.6409 55.8815 19.647C56.4986 19.6531 56.9686 19.8257 57.2914 20.1649C57.723 20.5656 57.9349 21.1615 57.9271 21.9525ZM60.5135 23.4987C60.8709 23.5022 61.1554 23.3732 61.367 23.1116C61.5805 22.85 61.6897 22.4761 61.6945 21.9898C61.6993 21.5054 61.5975 21.1304 61.3892 20.8646C61.1829 20.5969 60.901 20.4613 60.5436 20.4578C60.1862 20.4543 59.8997 20.5833 59.6842 20.8448C59.4688 21.1064 59.3586 21.4803 59.3538 21.9666C59.349 22.4529 59.4517 22.8289 59.662 23.0947C59.8723 23.3605 60.1561 23.4951 60.5135 23.4987ZM62.5968 21.9987C62.5891 22.774 62.3655 23.3656 61.9259 23.7734C61.5964 24.1061 61.1231 24.2694 60.5059 24.2633C59.8888 24.2572 59.4188 24.0845 59.096 23.7454C58.6626 23.329 58.4497 22.7331 58.4574 21.9577C58.4652 21.1668 58.6898 20.5752 59.1312 20.1831C59.4607 19.8504 59.934 19.6871 60.5511 19.6932C61.1683 19.6993 61.6383 19.8719 61.9611 20.2111C62.3927 20.6118 62.6046 21.2077 62.5968 21.9987ZM63.3095 19.8523L64.2118 19.8612L64.1767 23.403L66.3153 23.4242L66.3076 24.2005L63.2668 24.1705L63.3095 19.8523ZM67.8458 20.6472L67.8364 21.5993L68.8969 21.6098C69.0863 21.6117 69.24 21.578 69.3578 21.5089C69.4777 21.4378 69.5385 21.3114 69.5403 21.1298C69.5423 20.9287 69.4655 20.7951 69.3099 20.7291C69.1756 20.6828 69.0039 20.6587 68.795 20.6566L67.8458 20.6472ZM67.8293 22.3141L67.8179 23.4654L68.8784 23.4759C69.0678 23.4778 69.2155 23.4539 69.3215 23.4041C69.5138 23.3123 69.6113 23.1335 69.6139 22.8679C69.6162 22.6433 69.5249 22.4881 69.3402 22.4023C69.2372 22.3544 69.0919 22.3286 68.9044 22.3248L67.8293 22.3141ZM69.0895 19.9095C69.6187 19.9225 69.9921 20.0795 70.2099 20.3805C70.3409 20.5654 70.4051 20.7858 70.4025 21.0417C70.3999 21.3053 70.3314 21.5166 70.1971 21.6754C70.1219 21.7645 70.0118 21.8455 69.8665 21.9182C70.0864 22.0005 70.2512 22.1291 70.3608 22.304C70.4723 22.4789 70.5269 22.6904 70.5244 22.9385C70.5219 23.1943 70.4552 23.4232 70.3243 23.625C70.2409 23.7589 70.1372 23.8712 70.0133 23.9618C69.8736 24.0659 69.7088 24.1365 69.519 24.1737C69.3311 24.2109 69.1268 24.2284 68.9061 24.2262L66.9492 24.2069L66.9919 19.8887L69.0895 19.9095ZM73.1867 23.624C73.5441 23.6275 73.8286 23.4985 74.0402 23.2369C74.2537 22.9754 74.3629 22.6014 74.3677 22.1151C74.3725 21.6308 74.2707 21.2557 74.0624 20.99C73.8561 20.7223 73.5742 20.5867 73.2168 20.5831C72.8594 20.5796 72.5729 20.7086 72.3575 20.9702C72.142 21.2317 72.0318 21.6057 72.027 22.092C72.0222 22.5783 72.1249 22.9543 72.3352 23.2201C72.5455 23.4858 72.8293 23.6205 73.1867 23.624ZM75.27 22.124C75.2623 22.8994 75.0387 23.491 74.5991 23.8987C74.2696 24.2314 73.7963 24.3947 73.1792 24.3886C72.562 24.3825 72.092 24.2099 71.7692 23.8707C71.3358 23.4543 71.1229 22.8584 71.1306 22.0831C71.1384 21.2921 71.363 20.7006 71.8044 20.3084C72.1339 19.9757 72.6072 19.8124 73.2244 19.8185C73.8415 19.8246 74.3115 19.9973 74.6343 20.3364C75.0659 20.7372 75.2778 21.3331 75.27 22.124ZM76.6284 24.3026L75.5796 24.2922L76.99 22.1059L75.6897 19.9748L76.7678 19.9854L77.5244 21.3963L78.3292 20.0009L79.3722 20.0112L78.0303 22.081L79.4115 24.3301L78.3158 24.3193L77.5101 22.8406L76.6284 24.3026Z" fill="#05FF00"/>
<circle cx="55.5" cy="62.5" r="19.5" fill="#C4C4C4"/>
<circle cx="74.5" cy="62.5" r="19.5" fill="#05FF00"/>
</svg>
