<svg width="127" height="127" viewBox="0 0 127 127" fill="none" xmlns="http://www.w3.org/2000/svg">
<circle cx="63.5" cy="63.5" r="62.5" stroke="#494747" stroke-width="2"/>
<path d="M57.5569 108.472L58.6525 108.483L58.1303 106.778L57.5569 108.472ZM57.6391 105.786L58.6586 105.796L60.1451 110.129L59.1666 110.12L58.8971 109.229L57.3063 109.214L56.9987 110.098L56.0554 110.089L57.6391 105.786ZM63.1565 107.215C63.1587 106.99 63.1007 106.829 62.9825 106.732C62.8663 106.636 62.7017 106.586 62.4889 106.584L61.6481 106.576L61.6355 107.847L62.4763 107.855C62.6892 107.858 62.8547 107.807 62.9729 107.705C63.0931 107.603 63.1543 107.439 63.1565 107.215ZM64.05 107.218C64.045 107.727 63.9125 108.086 63.6527 108.295C63.3928 108.503 63.0236 108.605 62.5451 108.6L61.6281 108.591L61.6128 110.144L60.7163 110.135L60.759 105.817L62.6398 105.835C63.0734 105.84 63.418 105.954 63.6736 106.18C63.9292 106.405 64.0547 106.751 64.05 107.218ZM67.1582 107.254C67.1605 107.03 67.1025 106.869 66.9843 106.772C66.868 106.675 66.7035 106.626 66.4906 106.624L65.6498 106.615L65.6373 107.887L66.478 107.895C66.6909 107.897 66.8565 107.847 66.9747 107.745C67.0948 107.642 67.156 107.479 67.1582 107.254ZM68.0518 107.257C68.0468 107.767 67.9143 108.126 67.6544 108.334C67.3945 108.543 67.0253 108.645 66.5468 108.64L65.6299 108.631L65.6145 110.183L64.7181 110.175L64.7608 105.856L66.6416 105.875C67.0751 105.879 67.4197 105.994 67.6753 106.219C67.9309 106.444 68.0564 106.79 68.0518 107.257ZM69.3658 108.887C69.3912 109.085 69.4435 109.233 69.5226 109.331C69.6673 109.511 69.9174 109.602 70.2728 109.605C70.4857 109.608 70.6588 109.586 70.792 109.54C71.0449 109.453 71.1725 109.287 71.1749 109.043C71.1763 108.9 71.1149 108.79 70.9907 108.71C70.8665 108.633 70.6708 108.563 70.4039 108.502L69.9479 108.395C69.4997 108.289 69.1902 108.176 69.0195 108.055C68.7305 107.853 68.5881 107.54 68.5923 107.116C68.5961 106.729 68.7399 106.409 69.0237 106.156C69.3074 105.903 69.7218 105.78 70.2667 105.785C70.7217 105.789 71.1082 105.914 71.4261 106.16C71.746 106.403 71.9115 106.754 71.9225 107.213L71.0554 107.205C71.0423 106.945 70.9309 106.759 70.721 106.648C70.5811 106.574 70.4067 106.536 70.1977 106.534C69.9653 106.532 69.7793 106.577 69.6397 106.669C69.5001 106.762 69.4295 106.892 69.4278 107.06C69.4263 107.214 69.4935 107.33 69.6295 107.408C69.7169 107.459 69.9038 107.521 70.1902 107.592L70.9325 107.778C71.2579 107.859 71.503 107.966 71.6677 108.099C71.9235 108.304 72.0495 108.6 72.0457 108.984C72.0418 109.379 71.8871 109.705 71.5818 109.964C71.2785 110.221 70.8515 110.347 70.3007 110.341C69.7382 110.336 69.2971 110.203 68.9774 109.944C68.6577 109.683 68.5001 109.328 68.5045 108.879L69.3658 108.887Z" fill="#05FF00"/>
<path d="M43.0005 29H39.0005C35.1404 29 32.0004 32.14 32.0004 36.0001V40.0001C32.0004 43.8602 35.1404 47.0002 39.0005 47.0002H43.0005C46.8606 47.0002 50.0006 43.8602 50.0006 40.0001V36.0001C50.0006 32.14 46.8606 29 43.0005 29V29ZM44.0004 40.0002C44.0004 40.5504 43.5526 41.0001 43.0005 41.0001H39.0005C38.4484 41.0001 38.0006 40.5505 38.0006 40.0002V36.0002C38.0006 35.4505 38.4484 35.0003 39.0005 35.0003H43.0005C43.5526 35.0003 44.0004 35.4505 44.0004 36.0002V40.0002Z" fill="#7D7D7D"/>
<path d="M62.0002 47.0007H66.0002C69.8603 47.0007 73.0003 43.8607 73.0003 40.0006V36.0006C72.9999 32.1405 69.8598 29.0005 65.9997 29.0005H61.9998C58.1397 29.0005 54.9996 32.1405 54.9996 36.0006V40.0006C55.0001 43.8607 58.1401 47.0007 62.0002 47.0007V47.0007ZM60.9999 36.0005C60.9999 35.4507 61.4481 35.0006 62.0002 35.0006H66.0002C66.5523 35.0006 67.0001 35.4507 67.0001 36.0005V40.0005C67.0001 40.5507 66.5519 41.0004 65.9997 41.0004H61.9998C61.4476 41.0004 60.9999 40.5502 60.9999 40.0005V36.0005Z" fill="#7D7D7D"/>
<path d="M89 29H85C81.1399 29 77.9999 32.14 77.9999 36.0001V40.0001C77.9999 43.8602 81.1399 47.0002 85 47.0002H89C92.8601 47.0002 96.0001 43.8602 96.0001 40.0001V36.0001C96.0001 32.14 92.8601 29 89 29V29ZM89.9999 40.0002C89.9999 40.5504 89.5521 41.0001 89 41.0001H85C84.4479 41.0001 84.0001 40.5505 84.0001 40.0002V36.0002C84.0001 35.4505 84.4479 35.0003 85 35.0003H89C89.5521 35.0003 89.9999 35.4505 89.9999 36.0002V40.0002Z" fill="#7D7D7D"/>
<path d="M39.0005 70.0005H43.0005C46.8606 70.0005 50.0006 66.8604 50.0006 63.0003V59.0004C50.0006 55.1403 46.8606 52.0002 43.0005 52.0002H39.0005C35.1404 52.0007 32.0004 55.1408 32.0004 59.0009V63.0008C32.0004 66.8604 35.1404 70.0006 39.0005 70.0006V70.0005ZM38.0006 59.0007C38.0006 58.4505 38.4484 58.0008 39.0005 58.0008H43.0005C43.5526 58.0004 44.0004 58.4505 44.0004 59.0007V63.0007C44.0004 63.5509 43.5526 64.0006 43.0005 64.0006H39.0005C38.4484 64.0006 38.0006 63.5505 38.0006 63.0002V59.0007Z" fill="#7D7D7D"/>
<path d="M54.9999 63.0002C54.9999 66.8603 58.1399 70.0003 62 70.0003H66C69.8601 70.0003 73.0001 66.8603 73.0001 63.0002V59.0002C73.0001 55.1401 69.8601 52.0001 66 52.0001H62C58.1399 52.0001 54.9999 55.1401 54.9999 59.0002V63.0002ZM60.9997 59.0005C60.9997 58.4503 61.4474 58.0007 61.9996 58.0007H65.9995C66.5517 58.0007 66.9994 58.4508 66.9994 59.0005V63.0005C66.9994 63.5507 66.5517 64.0004 65.9995 64.0004H61.9996C61.4474 64.0004 60.9997 63.5503 60.9997 63.0005V59.0005Z" fill="#7D7D7D"/>
<path d="M89 51.9999H85C81.1399 51.9999 77.9999 55.14 77.9999 59.0001V63C77.9999 66.8601 81.1399 70.0002 85 70.0002H89C92.8601 70.0002 96.0001 66.8601 96.0001 63V59.0001C96.0001 55.14 92.8601 51.9999 89 51.9999V51.9999ZM89.9999 62.9997C89.9999 63.5499 89.5521 63.9996 89 63.9996H85C84.4479 63.9996 84.0001 63.5494 84.0001 62.9997V58.9997C84.0001 58.4495 84.4479 57.9998 85 57.9998H89C89.5521 57.9998 89.9999 58.4499 89.9999 58.9997V62.9997Z" fill="#7D7D7D"/>
<path d="M32 85.9999C32 89.86 35.14 93 39.0001 93H43.0001C46.8602 93 50.0002 89.86 50.0002 85.9999V81.9999C50.0002 78.1398 46.8602 74.9998 43.0001 74.9998H39.0001C35.14 74.9998 32 78.1398 32 81.9999V85.9999ZM38.0003 81.9999C38.0003 81.4497 38.448 81 39.0002 81H43.0001C43.5523 81 44 81.4497 44 81.9999V85.9999C44 86.5497 43.5523 86.9998 43.0001 86.9998H39.0002C38.448 86.9998 38.0003 86.5497 38.0003 85.9999V81.9999Z" fill="#7D7D7D"/>
<path d="M54.9999 85.9999C54.9999 89.86 58.1399 93 62 93H66C69.8601 93 73.0001 89.86 73.0001 85.9999V81.9999C73.0001 78.1398 69.8601 74.9998 66 74.9998H62C58.1399 74.9998 54.9999 78.1398 54.9999 81.9999V85.9999ZM60.9997 81.9999C60.9997 81.4497 61.4474 81 61.9996 81H65.9995C66.5517 81 66.9994 81.4502 66.9994 81.9999V85.9999C66.9994 86.5501 66.5517 86.9998 65.9995 86.9998H61.9996C61.4474 86.9998 60.9997 86.5497 60.9997 85.9999V81.9999Z" fill="#7D7D7D"/>
<path d="M89 74.9998H85C81.1399 74.9998 77.9999 78.1398 77.9999 81.9999V85.9999C77.9999 89.86 81.1399 93 85 93H89C92.8601 93 96.0001 89.86 96.0001 85.9999V81.9999C96.0001 78.1398 92.8601 74.9998 89 74.9998V74.9998ZM89.9999 86C89.9999 86.5502 89.5521 86.9999 89 86.9999H85C84.4479 86.9999 84.0001 86.5497 84.0001 86V82C84.0001 81.4498 84.4479 81.0001 85 81.0001H89C89.5521 81.0001 89.9999 81.4502 89.9999 82V86Z" fill="#7D7D7D"/>
</svg>
