<svg width="127" height="127" viewBox="0 0 127 127" fill="none" xmlns="http://www.w3.org/2000/svg">
<path d="M50.8412 106.734C50.8666 106.931 50.9188 107.079 50.9979 107.178C51.1427 107.357 51.3928 107.448 51.7482 107.452C51.9611 107.454 52.1342 107.432 52.2674 107.387C52.5203 107.299 52.6479 107.134 52.6503 106.89C52.6517 106.747 52.5903 106.636 52.4661 106.557C52.3418 106.479 52.1462 106.41 51.8792 106.349L51.4232 106.242C50.9751 106.136 50.6656 106.022 50.4949 105.901C50.2059 105.699 50.0635 105.386 50.0677 104.963C50.0715 104.576 50.2153 104.256 50.4991 104.003C50.7828 103.75 51.1972 103.626 51.742 103.631C52.1971 103.636 52.5836 103.761 52.9015 104.006C53.2214 104.25 53.3868 104.601 53.3979 105.06L52.5308 105.051C52.5177 104.791 52.4063 104.606 52.1964 104.494C52.0565 104.421 51.8821 104.383 51.6731 104.381C51.4407 104.378 51.2547 104.423 51.1151 104.516C50.9755 104.608 50.9049 104.738 50.9032 104.906C50.9017 105.061 50.9689 105.177 51.1049 105.254C51.1923 105.306 51.3792 105.367 51.6656 105.438L52.4079 105.624C52.7333 105.706 52.9783 105.813 53.1431 105.945C53.3989 106.151 53.5248 106.446 53.521 106.831C53.5171 107.225 53.3625 107.552 53.0572 107.811C52.7539 108.067 52.3268 108.193 51.7761 108.188C51.2136 108.182 50.7725 108.05 50.4528 107.791C50.1331 107.53 49.9755 107.175 49.9799 106.725L50.8412 106.734ZM56.6371 105.18C56.6393 104.955 56.5814 104.794 56.4632 104.698C56.3469 104.601 56.1824 104.551 55.9695 104.549L55.1287 104.541L55.1161 105.812L55.9569 105.821C56.1698 105.823 56.3354 105.773 56.4536 105.67C56.5737 105.568 56.6349 105.404 56.6371 105.18ZM57.5307 105.183C57.5257 105.693 57.3932 106.052 57.1333 106.26C56.8734 106.468 56.5042 106.57 56.0257 106.565L55.1088 106.556L55.0934 108.109L54.197 108.1L54.2397 103.782L56.1205 103.801C56.554 103.805 56.8986 103.92 57.1542 104.145C57.4098 104.37 57.5353 104.716 57.5307 105.183ZM58.221 103.821L59.1233 103.83L59.0882 107.372L61.2268 107.393L61.2191 108.17L58.1782 108.14L58.221 103.821ZM62.6722 108.184L61.7757 108.175L61.8184 103.857L62.7149 103.866L62.6722 108.184ZM66.6961 103.905L66.6886 104.67L65.3966 104.657L65.3615 108.211L64.4533 108.202L64.4885 104.648L63.1907 104.635L63.1982 103.871L66.6961 103.905ZM70.3639 103.942L70.3564 104.706L69.0644 104.693L69.0293 108.247L68.1211 108.238L68.1563 104.684L66.8585 104.672L66.866 103.907L70.3639 103.942ZM74.0798 104.743L71.7948 104.72L71.7857 105.637L73.8832 105.658L73.8758 106.408L71.7783 106.387L71.7673 107.498L74.1578 107.521L74.1501 108.298L70.8778 108.265L70.9205 103.947L74.0874 103.978L74.0798 104.743ZM75.7908 104.745L75.7793 105.905L76.8017 105.915C77.0049 105.917 77.1574 105.896 77.2594 105.85C77.4399 105.769 77.5314 105.608 77.5338 105.366C77.5364 105.104 77.4512 104.928 77.2783 104.836C77.1811 104.784 77.0349 104.758 76.8396 104.756L75.7908 104.745ZM77.0345 104.008C77.3371 104.016 77.5692 104.056 77.7306 104.126C77.894 104.196 78.0317 104.298 78.1436 104.432C78.2363 104.542 78.3093 104.664 78.3627 104.797C78.4161 104.93 78.4419 105.082 78.4402 105.252C78.4382 105.457 78.3844 105.659 78.279 105.857C78.1735 106.053 78.0012 106.191 77.7621 106.271C77.9606 106.353 78.1 106.468 78.1806 106.618C78.2631 106.765 78.3029 106.99 78.2999 107.293L78.297 107.583C78.2951 107.78 78.3016 107.914 78.3165 107.984C78.3388 108.096 78.3927 108.178 78.4781 108.232L78.4771 108.34L77.4839 108.331C77.4575 108.235 77.4388 108.157 77.4276 108.099C77.4054 107.977 77.3939 107.853 77.3932 107.726L77.3913 107.325C77.3902 107.049 77.3412 106.865 77.2445 106.772C77.1497 106.68 76.9695 106.632 76.7039 106.629L75.7723 106.62L75.7555 108.313L74.8737 108.305L74.9164 103.987L77.0345 104.008Z" fill="#05FF00"/>
<path d="M60.2121 17.1498L59.3156 17.1409L59.3584 12.8228L60.2548 12.8316L60.2121 17.1498ZM61.0984 12.8458L64.1598 12.8761L64.1523 13.6349L61.9874 13.6135L61.9776 14.6066L63.873 14.6253L63.8656 15.3753L61.9701 15.3565L61.9522 17.167L61.0558 17.1581L61.0984 12.8458ZM64.5571 15.0686C64.5646 14.3148 64.7724 13.7357 65.1808 13.3316C65.5358 12.9796 65.9848 12.8063 66.5278 12.8117C67.2543 12.8188 67.7832 13.0624 68.1144 13.5422C68.2972 13.8116 68.3942 14.0812 68.4052 14.3508L67.5029 14.3419C67.4464 14.1343 67.3727 13.9773 67.282 13.8709C67.1198 13.6818 66.8775 13.5857 66.5553 13.5825C66.2272 13.5792 65.9671 13.7095 65.775 13.9732C65.583 14.235 65.4845 14.6081 65.4798 15.0924C65.475 15.5768 65.571 15.941 65.7678 16.1852C65.9666 16.4274 66.2203 16.55 66.5288 16.5531C66.8452 16.5562 67.0875 16.4551 67.2555 16.2497C67.3484 16.1393 67.4262 15.973 67.489 15.751L68.3825 15.7598C68.2997 16.2297 68.0957 16.6105 67.7706 16.9023C67.4473 17.194 67.0348 17.3374 66.5328 17.3324C65.9118 17.3263 65.4255 17.1222 65.074 16.7203C64.7225 16.3164 64.5502 15.7659 64.5571 15.0686ZM52.5453 19.7557L52.5377 20.5203L51.2458 20.5076L51.2107 24.0611L50.3025 24.0521L50.3377 20.4986L49.0399 20.4857L49.0474 19.7211L52.5453 19.7557ZM54.8438 23.4525C55.2012 23.456 55.4857 23.327 55.6973 23.0654C55.9108 22.8038 56.02 22.4299 56.0248 21.9436C56.0296 21.4592 55.9278 21.0842 55.7195 20.8184C55.5132 20.5507 55.2313 20.4151 54.8739 20.4116C54.5165 20.4081 54.23 20.5371 54.0146 20.7986C53.7991 21.0602 53.6889 21.4341 53.6841 21.9204C53.6793 22.4067 53.782 22.7828 53.9923 23.0485C54.2026 23.3143 54.4864 23.4489 54.8438 23.4525ZM56.9271 21.9525C56.9194 22.7278 56.6958 23.3194 56.2562 23.7272C55.9267 24.0599 55.4534 24.2232 54.8362 24.2171C54.2191 24.211 53.7491 24.0383 53.4263 23.6992C52.9929 23.2828 52.78 22.6869 52.7877 21.9115C52.7955 21.1206 53.0201 20.529 53.4615 20.1369C53.791 19.8042 54.2643 19.6409 54.8815 19.647C55.4986 19.6531 55.9686 19.8257 56.2914 20.1649C56.723 20.5656 56.9349 21.1615 56.9271 21.9525ZM59.5135 23.4987C59.8709 23.5022 60.1554 23.3732 60.367 23.1116C60.5805 22.85 60.6897 22.4761 60.6945 21.9898C60.6993 21.5054 60.5975 21.1304 60.3892 20.8646C60.1829 20.5969 59.901 20.4613 59.5436 20.4578C59.1862 20.4543 58.8997 20.5833 58.6842 20.8448C58.4688 21.1064 58.3586 21.4803 58.3538 21.9666C58.349 22.4529 58.4517 22.8289 58.662 23.0947C58.8723 23.3605 59.1561 23.4951 59.5135 23.4987ZM61.5968 21.9987C61.5891 22.774 61.3655 23.3656 60.9259 23.7734C60.5964 24.1061 60.1231 24.2694 59.5059 24.2633C58.8888 24.2572 58.4188 24.0845 58.096 23.7454C57.6626 23.329 57.4497 22.7331 57.4574 21.9577C57.4652 21.1668 57.6898 20.5752 58.1312 20.1831C58.4607 19.8504 58.934 19.6871 59.5511 19.6932C60.1683 19.6993 60.6383 19.8719 60.9611 20.2111C61.3927 20.6118 61.6046 21.2077 61.5968 21.9987ZM62.3095 19.8523L63.2118 19.8612L63.1767 23.403L65.3153 23.4242L65.3076 24.2005L62.2668 24.1705L62.3095 19.8523ZM66.8458 20.6472L66.8364 21.5993L67.8969 21.6098C68.0863 21.6117 68.24 21.578 68.3578 21.5089C68.4777 21.4378 68.5385 21.3114 68.5403 21.1298C68.5423 20.9287 68.4655 20.7951 68.3099 20.7291C68.1756 20.6828 68.0039 20.6587 67.795 20.6566L66.8458 20.6472ZM66.8293 22.3141L66.8179 23.4654L67.8784 23.4759C68.0678 23.4778 68.2155 23.4539 68.3215 23.4041C68.5138 23.3123 68.6113 23.1335 68.6139 22.8679C68.6162 22.6433 68.5249 22.4881 68.3402 22.4023C68.2372 22.3544 68.0919 22.3286 67.9044 22.3248L66.8293 22.3141ZM68.0895 19.9095C68.6187 19.9225 68.9921 20.0795 69.2099 20.3805C69.3409 20.5654 69.4051 20.7858 69.4025 21.0417C69.3999 21.3053 69.3314 21.5166 69.1971 21.6754C69.1219 21.7645 69.0118 21.8455 68.8665 21.9182C69.0864 22.0005 69.2512 22.1291 69.3608 22.304C69.4723 22.4789 69.5269 22.6904 69.5244 22.9385C69.5219 23.1943 69.4552 23.4232 69.3243 23.625C69.2409 23.7589 69.1372 23.8712 69.0133 23.9618C68.8736 24.0659 68.7088 24.1365 68.519 24.1737C68.3311 24.2109 68.1268 24.2284 67.9061 24.2262L65.9492 24.2069L65.9919 19.8887L68.0895 19.9095ZM72.1867 23.624C72.5441 23.6275 72.8286 23.4985 73.0402 23.2369C73.2537 22.9754 73.3629 22.6014 73.3677 22.1151C73.3725 21.6308 73.2707 21.2557 73.0624 20.99C72.8561 20.7223 72.5742 20.5867 72.2168 20.5831C71.8594 20.5796 71.5729 20.7086 71.3575 20.9702C71.142 21.2317 71.0318 21.6057 71.027 22.092C71.0222 22.5783 71.1249 22.9543 71.3352 23.2201C71.5455 23.4858 71.8293 23.6205 72.1867 23.624ZM74.27 22.124C74.2623 22.8994 74.0387 23.491 73.5991 23.8987C73.2696 24.2314 72.7963 24.3947 72.1792 24.3886C71.562 24.3825 71.092 24.2099 70.7692 23.8707C70.3358 23.4543 70.1229 22.8584 70.1306 22.0831C70.1384 21.2921 70.363 20.7006 70.8044 20.3084C71.1339 19.9757 71.6072 19.8124 72.2244 19.8185C72.8415 19.8246 73.3115 19.9973 73.6343 20.3364C74.0659 20.7372 74.2778 21.3331 74.27 22.124ZM75.6284 24.3026L74.5796 24.2922L75.99 22.1059L74.6897 19.9748L75.7678 19.9854L76.5244 21.3963L77.3292 20.0009L78.3722 20.0112L77.0303 22.081L78.4115 24.3301L77.3158 24.3193L76.5101 22.8406L75.6284 24.3026Z" fill="#05FF00"/>
<rect x="40" y="47" width="38" height="40" fill="#494747"/>
<rect x="61" y="40" width="24" height="24" fill="#C4C4C4"/>
<rect x="69" y="52" width="24" height="24" fill="#05FF00"/>
</svg>
