<svg width="42" height="42" viewBox="0 0 42 42" fill="none" xmlns="http://www.w3.org/2000/svg">
<path d="M40.0587 32.2843L8.94604 0.464478L1.16787 8.24265L32.2806 40.0625L40.0587 32.2843Z" fill="#C4C4C4" stroke="black" stroke-width="0.1"/>
<path d="M8.62958 0.423553L40.2171 32.244" stroke="black" stroke-width="0.24" stroke-linecap="round"/>
<path d="M40.2171 32.244L32.0686 40.1098" stroke="black" stroke-width="0.24" stroke-linecap="round"/>
<path d="M40.2171 32.244L39.5 30.8061" stroke="black" stroke-width="0.24" stroke-linecap="round"/>
<path d="M8.62959 0.423544L11.0218 2.13879" stroke="black" stroke-width="0.24" stroke-linecap="round"/>
<path d="M0.984978 8.2776L8.62958 0.423553" stroke="black" stroke-width="0.24" stroke-linecap="round"/>
<path d="M11.0219 2.13879L39.5001 30.8061" stroke="black" stroke-width="0.24" stroke-linecap="round"/>
<path d="M32.0686 40.1098L0.984985 8.27759" stroke="black" stroke-width="0.24" stroke-linecap="round"/>
<path d="M11.0673 1.87867L8.94601 0.464454L40.0587 32.2843L39.7052 30.5165L11.0673 1.87867Z" fill="#7D7D7D" stroke="black" stroke-width="0.1" stroke-linejoin="round"/>
<path d="M40.0587 32.2843L8.94604 0.464478L1.16787 8.24265L32.2806 40.0625L40.0587 32.2843Z" fill="#C4C4C4" stroke="black" stroke-width="0.1"/>
<path d="M8.62958 0.423553L40.2171 32.244" stroke="black" stroke-width="0.24" stroke-linecap="round"/>
<path d="M40.2171 32.244L32.0686 40.1098" stroke="black" stroke-width="0.24" stroke-linecap="round"/>
<path d="M40.2171 32.244L39.5 30.8061" stroke="black" stroke-width="0.24" stroke-linecap="round"/>
<path d="M8.62959 0.423544L11.0218 2.13879" stroke="black" stroke-width="0.24" stroke-linecap="round"/>
<path d="M0.984978 8.2776L8.62958 0.423553" stroke="black" stroke-width="0.24" stroke-linecap="round"/>
<path d="M11.0219 2.13879L39.5001 30.8061" stroke="black" stroke-width="0.24" stroke-linecap="round"/>
<path d="M32.0686 40.1098L0.984985 8.27759" stroke="black" stroke-width="0.24" stroke-linecap="round"/>
<path d="M11.0673 1.87867L8.94601 0.464454L40.0587 32.2843L39.7052 30.5165L11.0673 1.87867Z" fill="#252525" stroke="black" stroke-width="0.1" stroke-linejoin="round"/>
<path d="M8.96688 40.4481L40.7867 9.33539L33.0085 1.55721L1.1887 32.6699L8.96688 40.4481Z" fill="#C4C4C4" stroke="black" stroke-width="0.1"/>
<path d="M40.8276 9.01892L9.00718 40.6064" stroke="black" stroke-width="0.24" stroke-linecap="round"/>
<path d="M9.00722 40.6065L1.14137 32.4579" stroke="black" stroke-width="0.24" stroke-linecap="round"/>
<path d="M9.00722 40.6064L10.4451 39.8893" stroke="black" stroke-width="0.24" stroke-linecap="round"/>
<path d="M40.8276 9.01893L39.1124 11.4112" stroke="black" stroke-width="0.24" stroke-linecap="round"/>
<path d="M32.9736 1.37432L40.8276 9.01892" stroke="black" stroke-width="0.24" stroke-linecap="round"/>
<path d="M39.1124 11.4112L10.4451 39.8894" stroke="black" stroke-width="0.24" stroke-linecap="round"/>
<path d="M1.14132 32.4579L32.9736 1.37433" stroke="black" stroke-width="0.24" stroke-linecap="round"/>
<path d="M39.3726 11.4567L40.7868 9.33538L8.96696 40.4481L10.7347 40.0945L39.3726 11.4567Z" fill="#7D7D7D" stroke="black" stroke-width="0.1" stroke-linejoin="round"/>
<path d="M8.96688 40.4481L40.7867 9.33539L33.0085 1.55721L1.1887 32.6699L8.96688 40.4481Z" fill="#C4C4C4" stroke="black" stroke-width="0.1"/>
<path d="M40.8276 9.01892L9.00718 40.6064" stroke="black" stroke-width="0.24" stroke-linecap="round"/>
<path d="M9.00722 40.6065L1.14137 32.4579" stroke="black" stroke-width="0.24" stroke-linecap="round"/>
<path d="M9.00722 40.6064L10.4451 39.8893" stroke="black" stroke-width="0.24" stroke-linecap="round"/>
<path d="M40.8276 9.01893L39.1124 11.4112" stroke="black" stroke-width="0.24" stroke-linecap="round"/>
<path d="M32.9736 1.37432L40.8276 9.01892" stroke="black" stroke-width="0.24" stroke-linecap="round"/>
<path d="M39.1124 11.4112L10.4451 39.8894" stroke="black" stroke-width="0.24" stroke-linecap="round"/>
<path d="M1.14132 32.4579L32.9736 1.37433" stroke="black" stroke-width="0.24" stroke-linecap="round"/>
<path d="M39.3726 11.4567L40.7868 9.33538L8.96696 40.4481L10.7347 40.0945L39.3726 11.4567Z" fill="#252525" stroke="black" stroke-width="0.1" stroke-linejoin="round"/>
<path d="M29.5 21.5L29 21L28 20L20.5 28L22 29.5L29.5 21.5Z" fill="#C4C4C4"/>
<path d="M22 14.4211L21.5 13.9474L20.5 13L13 20.5789L14.5 22L22 14.4211Z" fill="#C4C4C4"/>
</svg>
