<svg width="46" height="46" viewBox="0 0 46 46" fill="none" xmlns="http://www.w3.org/2000/svg">
<path d="M33.6547 11.0002H11.3396C9.4908 11.0002 8 12.4793 8 14.3282V28.6378C8 30.4808 9.4908 31.954 11.3396 31.954H11.8737V36.9019C11.8737 37.2951 12.1085 37.6532 12.4666 37.8116C12.5957 37.8703 12.7365 37.8997 12.8715 37.8997C13.1122 37.8997 13.3528 37.794 13.5407 37.6297L19.7913 31.9538H33.6604C35.5034 31.9538 37 30.4806 37 28.6376V14.3279C36.9941 12.4791 35.5033 11 33.6545 11L33.6547 11.0002ZM34.9988 28.6375C34.9988 29.383 34.4001 29.9581 33.6547 29.9581H19.404C19.1575 29.9581 18.9169 30.0638 18.7349 30.2281L13.8692 34.6536V30.9853C13.8692 30.4336 13.4232 29.9581 12.8714 29.9581H11.3395C10.5941 29.9581 9.99544 29.3829 9.99544 28.6375V14.3279C9.99544 13.5824 10.5941 12.9955 11.3395 12.9955H33.6605C34.4059 12.9955 35.0046 13.5825 35.0046 14.3279V28.6375L34.9988 28.6375Z"    />
<path d="M29.8693 24.03H15.1255C14.5738 24.03 14.1277 24.4761 14.1277 25.0278C14.1277 25.5796 14.5738 26.0256 15.1255 26.0256H29.8634C30.4151 26.0256 30.8612 25.5796 30.8612 25.0278C30.8612 24.4761 30.421 24.03 29.8693 24.03Z"    />
<path d="M29.8693 20.1567H15.1255C14.5738 20.1567 14.1277 20.6027 14.1277 21.1545C14.1277 21.7062 14.5738 22.1523 15.1255 22.1523H29.8634C30.4151 22.1523 30.8612 21.7062 30.8612 21.1545C30.8612 20.6027 30.421 20.1567 29.8693 20.1567Z"    />
<path d="M15.125 18.2194H20.7537C21.3054 18.2194 21.7515 17.7734 21.7515 17.2216C21.7515 16.6699 21.3054 16.2238 20.7537 16.2238H15.125C14.5733 16.2238 14.1272 16.6699 14.1272 17.2216C14.1272 17.7734 14.5733 18.2194 15.125 18.2194Z"    />
</svg>
