<svg width="50" height="50" viewBox="0 0 50 50" fill="none" xmlns="http://www.w3.org/2000/svg">
<circle cx="25" cy="25" r="25" fill="#E5E5E5"/>
<path d="M37.3 12.3076H29.6286C28.9739 12.3076 28.6465 12.3076 28.4061 12.455C28.2715 12.5374 28.1584 12.6506 28.0759 12.7851C27.9286 13.0256 27.9286 13.3529 27.9286 14.0076V35.6626C27.9286 36.3172 27.9286 36.6446 28.0759 36.8851C28.1584 37.0196 28.2715 37.1327 28.4061 37.2152C28.6465 37.3626 28.9739 37.3626 29.6286 37.3626H37.3C37.9547 37.3626 38.282 37.3626 38.5225 37.2152C38.657 37.1327 38.7702 37.0196 38.8526 36.8851C39 36.6446 39 36.3172 39 35.6626V14.0076C39 13.3529 39 13.0256 38.8526 12.7851C38.7702 12.6506 38.657 12.5374 38.5225 12.455C38.282 12.3076 37.9547 12.3076 37.3 12.3076Z" fill="#C4C4C4" stroke="#848484"/>
<path d="M27.9286 10L27.9286 40" stroke="#05FF00" stroke-width="4" stroke-linecap="round" stroke-linejoin="round"/>
<path d="M27.75 13.1375C28.0261 13.1375 28.25 12.9136 28.25 12.6375C28.25 12.3613 28.0261 12.1375 27.75 12.1375V13.1375ZM15.7857 12.6375V12.1375H15.2857V12.6375H15.7857ZM15.7857 37.0331H15.2857V37.5331H15.7857V37.0331ZM27.75 37.5331C28.0261 37.5331 28.25 37.3092 28.25 37.0331C28.25 36.7569 28.0261 36.5331 27.75 36.5331V37.5331ZM27.75 12.1375H26.2545V13.1375H27.75V12.1375ZM23.2634 12.1375H21.7678V13.1375H23.2634V12.1375ZM21.7678 12.1375H20.2723V13.1375H21.7678V12.1375ZM17.2812 12.1375H15.7857V13.1375H17.2812V12.1375ZM15.2857 12.6375V14.6704H16.2857V12.6375H15.2857ZM15.2857 18.7364V22.8023H16.2857V18.7364H15.2857ZM15.2857 26.8682V30.9342H16.2857V26.8682H15.2857ZM15.2857 35.0001V37.0331H16.2857V35.0001H15.2857ZM15.7857 37.5331H18.7768V36.5331H15.7857V37.5331ZM24.7589 37.5331H27.75V36.5331H24.7589V37.5331Z" fill="#7D7D7D"/>
<path d="M20.5857 23.5163H9.2C9.08954 23.5163 9 23.6059 9 23.7163V26.2834C9 26.3938 9.08954 26.4834 9.2 26.4834H20.5857C20.6962 26.4834 20.7857 26.5729 20.7857 26.6834V30.1724C20.7857 30.3427 20.9852 30.4351 21.1151 30.3249L27.2103 25.1547C27.3054 25.074 27.3043 24.927 27.2081 24.8477L21.1128 19.8296C20.9824 19.7222 20.7857 19.815 20.7857 19.984V23.3163C20.7857 23.4268 20.6962 23.5163 20.5857 23.5163Z" fill="#848484"/>
</svg>
