<svg width="127" height="127" viewBox="0 0 127 127" fill="none" xmlns="http://www.w3.org/2000/svg">
<circle cx="63.5" cy="63.5" r="62.5" stroke="#494747" stroke-width="2"/>
<path d="M15.4224 75.9772V70.0639L63.9954 102.587L109.189 71.3311L108.345 77.2443L63.9954 108.5L15.4224 75.9772Z" fill="#494747" stroke="black" stroke-width="0.1"/>
<path d="M72.0206 17.6895L68.6416 16L61.4612 19.379L53.4361 42.1872L56.3927 43.8767L64.8402 20.6461L72.0206 17.6895Z" fill="#494747" stroke="black" stroke-width="0.1"/>
<path d="M60.1941 45.9886L61.0388 46.8333L60.1941 68.7968L63.1507 70.4863L68.2192 67.5297L69.0639 50.6347L109.189 71.3311L63.9954 102.587L15 70.0639L60.1941 45.9886Z" fill="#929292" stroke="black" stroke-width="0.1"/>
<path d="M64.4178 39.653L61.4612 41.3425L60.1941 68.7968L63.1507 70.4863L64.4178 39.653Z" fill="#494747" stroke="black" stroke-width="0.1"/>
<path d="M72.0206 17.6895L64.8402 20.6461L56.3927 43.8767L64.4178 39.653L63.1507 70.4863L68.2192 67.5297L69.9087 36.6963L77.5114 32.895L72.0206 17.6895Z" fill="#05FF00" stroke="#05FF00" stroke-width="0.1"/>
<path d="M22.6099 70.3789C23.0267 69.7507 23.5163 69.3782 24.0789 69.2615C24.5683 69.1597 25.0393 69.2588 25.4918 69.5589C26.0972 69.9606 26.4082 70.4528 26.4247 71.0356C26.4314 71.3612 26.366 71.64 26.2284 71.8722L25.4764 71.3734C25.5421 71.1685 25.5658 70.9967 25.5476 70.8581C25.5145 70.6111 25.3637 70.3986 25.0951 70.2205C24.8217 70.0391 24.5326 70.0067 24.2279 70.1233C23.9243 70.2383 23.6386 70.4976 23.3708 70.9013C23.1031 71.3049 22.9853 71.6627 23.0174 71.9747C23.0523 72.2861 23.1983 72.527 23.4554 72.6976C23.7191 72.8725 23.9773 72.9196 24.2301 72.8389C24.3681 72.7968 24.5239 72.6998 24.6975 72.5477L25.4421 73.0417C25.1168 73.3907 24.7383 73.5991 24.3068 73.6667C23.8768 73.7354 23.4527 73.631 23.0344 73.3535C22.5168 73.0102 22.2201 72.5743 22.1441 72.0457C22.0692 71.5156 22.2245 70.96 22.6099 70.3789ZM27.5924 71.0508L28.3565 71.5577L26.8893 73.7696C26.7252 74.017 26.6346 74.2171 26.6176 74.3699C26.5749 74.6322 26.7065 74.8648 27.0125 75.0678C27.3169 75.2697 27.5816 75.3 27.8066 75.1586C27.9408 75.0835 28.0899 74.9223 28.254 74.6749L29.7213 72.463L30.4854 72.9699L29.0182 75.1818C28.7644 75.5643 28.5075 75.8227 28.2472 75.9571C27.7667 76.2009 27.2148 76.1161 26.5915 75.7026C25.9681 75.289 25.6745 74.813 25.7106 74.2745C25.7332 73.9825 25.8714 73.6452 26.1251 73.2627L27.5924 71.0508ZM33.8203 75.1822L33.3977 75.8194L32.321 75.1052L30.3566 78.0666L29.5997 77.5645L31.5642 74.6031L30.4827 73.8857L30.9053 73.2485L33.8203 75.1822ZM36.9206 78.8876C37.0448 78.7004 37.0837 78.534 37.0373 78.3884C36.9925 78.2439 36.8815 78.1128 36.7041 77.9951L36.0034 77.5303L35.3005 78.5899L36.0012 79.0546C36.1786 79.1723 36.3447 79.2204 36.4996 79.1989C36.6561 79.1785 36.7965 79.0748 36.9206 78.8876ZM37.6685 79.3766C37.3867 79.8014 37.0801 80.0305 36.7486 80.0637C36.4172 80.097 36.0521 79.9814 35.6533 79.7169L34.8892 79.21L34.0308 80.5039L33.2838 80.0083L35.6709 76.4097L37.2383 77.4495C37.5996 77.6891 37.8261 77.973 37.9179 78.3011C38.0097 78.6291 37.9265 78.9877 37.6685 79.3766ZM38.9887 78.6106L39.7407 79.1094L37.7827 82.0611L39.5649 83.2433L39.1358 83.8902L36.6016 82.2092L38.9887 78.6106ZM41.5441 83.5296L42.4572 84.1353L42.9473 82.4213L41.5441 83.5296ZM43.0756 81.3217L43.9252 81.8852L42.8125 86.3292L41.997 85.7883L42.2558 84.8947L40.9302 84.0153L40.1904 84.5899L39.4043 84.0684L43.0756 81.3217ZM45.6464 83.027L46.4349 83.5501L46.2016 87.0129L47.868 84.5007L48.5687 84.9655L46.1816 88.5641L45.4296 88.0653L45.6555 84.5342L43.9599 87.0904L43.2592 86.6256L45.6464 83.027ZM51.5102 87.8344L49.6059 86.5712L49.099 87.3353L50.8471 88.4949L50.4325 89.1199L48.6845 87.9603L48.0707 88.8856L50.0628 90.2071L49.6337 90.8541L46.9067 89.0451L49.2938 85.4465L51.9329 87.1972L51.5102 87.8344Z" fill="#05FF00"/>
</svg>
