<svg width="127" height="127" viewBox="0 0 127 127" fill="none" xmlns="http://www.w3.org/2000/svg">
<circle cx="63.5" cy="63.5" r="62.5" stroke="#494747" stroke-width="2"/>
<path d="M15.4224 75.9772V70.0639L63.9954 102.587L109.189 71.3311L108.345 77.2443L63.9954 108.5L15.4224 75.9772Z" fill="#494747" stroke="black" stroke-width="0.1"/>
<path d="M72.0205 17.6895L68.6415 16L61.4612 19.379L53.4361 42.1872L56.3927 43.8767L64.8402 20.6461L72.0205 17.6895Z" fill="#494747" stroke="black" stroke-width="0.1"/>
<path d="M60.1941 45.9886L61.0388 46.8333L60.1941 68.7968L63.1507 70.4863L68.2192 67.5297L69.0639 50.6347L109.189 71.3311L63.9954 102.587L15 70.0639L60.1941 45.9886Z" fill="#929292" stroke="black" stroke-width="0.1"/>
<path d="M64.4178 39.653L61.4612 41.3425L60.1941 68.7968L63.1507 70.4863L64.4178 39.653Z" fill="#494747" stroke="black" stroke-width="0.1"/>
<path d="M72.0206 17.6895L64.8402 20.6461L56.3927 43.8767L64.4178 39.653L63.1507 70.4863L68.2192 67.5297L69.9087 36.6963L77.5114 32.895L72.0206 17.6895Z" fill="#05FF00" stroke="#05FF00" stroke-width="0.1"/>
</svg>
