<svg width="127" height="127" viewBox="0 0 127 127" fill="none" xmlns="http://www.w3.org/2000/svg">
<path d="M127 63.5C127 98.5701 98.5701 127 63.5 127C28.4299 127 0 98.5701 0 63.5C0 28.4299 28.4299 0 63.5 0C98.5701 0 127 28.4299 127 63.5Z" fill="#E5E5E5"/>
<path d="M127 63.5C127 98.5701 98.5701 127 63.5 127C28.4299 127 0 98.5701 0 63.5C0 28.4299 28.4299 0 63.5 0C98.5701 0 127 28.4299 127 63.5Z" fill="#E5E5E5"/>
<path d="M127 63.5C127 98.5701 98.5701 127 63.5 127C28.4299 127 0 98.5701 0 63.5C0 28.4299 28.4299 0 63.5 0C98.5701 0 127 28.4299 127 63.5Z" stroke="#E5E5E5"/>
<path d="M45.3523 106.415L45.3244 109.233L46.1564 109.241C46.5822 109.245 46.8811 109.038 47.0532 108.62C47.1473 108.39 47.1959 108.116 47.199 107.798C47.2034 107.359 47.1374 107.021 47.001 106.785C46.8667 106.548 46.5944 106.427 46.1843 106.423L45.3523 106.415ZM46.344 105.674C46.6116 105.681 46.8339 105.714 47.011 105.775C47.3128 105.877 47.5561 106.062 47.7409 106.33C47.8892 106.546 47.9894 106.779 48.0416 107.03C48.0939 107.281 48.1188 107.519 48.1166 107.746C48.1109 108.32 47.9909 108.805 47.7565 109.201C47.4387 109.735 46.9536 109.999 46.3013 109.992L44.4411 109.974L44.4838 105.656L46.344 105.674ZM49.9735 108.397L51.0692 108.408L50.5469 106.703L49.9735 108.397ZM50.0558 105.711L51.0752 105.721L52.5618 110.054L51.5833 110.045L51.3138 109.154L49.723 109.139L49.4154 110.023L48.4721 110.014L50.0558 105.711ZM55.8475 105.768L55.8399 106.533L54.548 106.52L54.5128 110.074L53.6047 110.065L53.6398 106.511L52.342 106.498L52.3496 105.734L55.8475 105.768ZM57.0865 108.467L58.1821 108.478L57.6599 106.774L57.0865 108.467ZM57.1687 105.781L58.1882 105.791L59.6747 110.125L58.6962 110.115L58.4267 109.225L56.8359 109.209L56.5284 110.094L55.585 110.084L57.1687 105.781ZM64.8529 105.857L64.8453 106.622L63.5534 106.609L63.5182 110.163L62.6101 110.154L62.6452 106.6L61.3474 106.587L61.355 105.823L64.8529 105.857ZM66.0919 108.556L67.1875 108.567L66.6653 106.863L66.0919 108.556ZM66.1741 105.87L67.1936 105.881L68.6801 110.214L67.7016 110.204L67.4321 109.314L65.8414 109.298L65.5338 110.183L64.5905 110.173L66.1741 105.87ZM70.1421 106.66L70.1327 107.612L71.1932 107.622C71.3826 107.624 71.5363 107.591 71.6541 107.521C71.774 107.45 71.8348 107.324 71.8366 107.142C71.8386 106.941 71.7618 106.808 71.6062 106.742C71.4719 106.695 71.3002 106.671 71.0913 106.669L70.1421 106.66ZM70.1256 108.327L70.1142 109.478L71.1747 109.488C71.3641 109.49 71.5119 109.466 71.6178 109.417C71.8101 109.325 71.9076 109.146 71.9102 108.88C71.9125 108.656 71.8212 108.501 71.6365 108.415C71.5335 108.367 71.3882 108.341 71.2007 108.337L70.1256 108.327ZM71.3858 105.922C71.915 105.935 72.2884 106.092 72.5062 106.393C72.6372 106.578 72.7014 106.798 72.6989 107.054C72.6962 107.318 72.6277 107.529 72.4934 107.688C72.4183 107.777 72.3081 107.858 72.1628 107.931C72.3827 108.013 72.5475 108.142 72.6571 108.317C72.7686 108.491 72.8232 108.703 72.8207 108.951C72.8182 109.207 72.7515 109.436 72.6206 109.638C72.5372 109.771 72.4336 109.884 72.3096 109.974C72.1699 110.078 72.0051 110.149 71.8153 110.186C71.6274 110.223 71.4231 110.241 71.2024 110.239L69.2455 110.219L69.2882 105.901L71.3858 105.922ZM73.6093 105.944L74.5116 105.953L74.4766 109.495L76.6151 109.516L76.6074 110.292L73.5666 110.262L73.6093 105.944ZM80.4627 106.776L78.1777 106.754L78.1686 107.671L80.2662 107.692L80.2587 108.442L78.1612 108.421L78.1502 109.531L80.5407 109.555L80.533 110.331L77.2607 110.299L77.3035 105.981L80.4703 106.012L80.4627 106.776Z" fill="#05FF00"/>
<path d="M96.0277 29H30.9723C30.4352 29 30 29.6114 30 30.3675V90.6325C30 91.3872 30.4347 92 30.9723 92H96.0277C96.5643 92 97 91.3872 97 90.6325V30.3675C97 29.6128 96.5643 29 96.0277 29V29ZM53.6293 74.1996V61.8682H73.3707V74.1996H53.6293ZM73.3695 46.8016V59.133H53.6293V46.8016H73.3695ZM51.6852 46.8016V59.133H31.9437V46.8016H51.6852ZM51.6852 61.8682V74.1996H31.9437V61.8682H51.6852ZM53.6293 76.9348H73.3707V89.2655H53.6293V76.9348ZM75.3148 74.1998V61.8683H95.055V74.1998H75.3148ZM75.3148 59.1332V46.8017H95.055V59.1332H75.3148ZM31.9437 76.9348H51.6852V89.2655H31.9437V76.9348ZM75.3148 89.2662V76.9348H95.055V89.2655H75.3148V89.2662Z" fill="#494747"/>
</svg>
