<svg width="127" height="127" viewBox="0 0 127 127" fill="none" xmlns="http://www.w3.org/2000/svg">
<path d="M94.5913 79.9247L45.2256 29.437L32.8841 41.7785L82.2499 92.2662L94.5913 79.9247Z" fill="#C4C4C4" stroke="black" stroke-width="0.1"/>
<path d="M44.7234 29.3721L94.8426 79.8609" stroke="black" stroke-width="0.24" stroke-linecap="round"/>
<path d="M94.8427 79.8608L81.9136 92.3414" stroke="black" stroke-width="0.24" stroke-linecap="round"/>
<path d="M94.8426 79.8608L93.7048 77.5793" stroke="black" stroke-width="0.24" stroke-linecap="round"/>
<path d="M44.7235 29.3721L48.5191 32.0936" stroke="black" stroke-width="0.24" stroke-linecap="round"/>
<path d="M32.594 41.834L44.7234 29.3721" stroke="black" stroke-width="0.24" stroke-linecap="round"/>
<path d="M48.5192 32.0937L93.7049 77.5794" stroke="black" stroke-width="0.24" stroke-linecap="round"/>
<path d="M81.9135 92.3414L32.5939 41.8339" stroke="black" stroke-width="0.24" stroke-linecap="round"/>
<path d="M48.5913 31.6809L45.2255 29.437L94.5913 79.9247L94.0303 77.1199L48.5913 31.6809Z" fill="#7D7D7D" stroke="black" stroke-width="0.1" stroke-linejoin="round"/>
<path d="M94.5913 79.9247L45.2256 29.437L32.8841 41.7785L82.2499 92.2662L94.5913 79.9247Z" fill="#7D7D7D" stroke="black" stroke-width="0.1"/>
<path d="M44.7234 29.3721L94.8426 79.8609" stroke="black" stroke-width="0.24" stroke-linecap="round"/>
<path d="M94.8427 79.8608L81.9136 92.3414" stroke="black" stroke-width="0.24" stroke-linecap="round"/>
<path d="M94.8426 79.8608L93.7048 77.5793" stroke="black" stroke-width="0.24" stroke-linecap="round"/>
<path d="M44.7235 29.3721L48.5191 32.0936" stroke="black" stroke-width="0.24" stroke-linecap="round"/>
<path d="M32.594 41.834L44.7234 29.3721" stroke="black" stroke-width="0.24" stroke-linecap="round"/>
<path d="M48.5192 32.0937L93.7049 77.5794" stroke="black" stroke-width="0.24" stroke-linecap="round"/>
<path d="M81.9135 92.3414L32.5939 41.8339" stroke="black" stroke-width="0.24" stroke-linecap="round"/>
<path d="M48.5913 31.6809L45.2255 29.437L94.5913 79.9247L94.0303 77.1199L48.5913 31.6809Z" fill="#252525" stroke="black" stroke-width="0.1" stroke-linejoin="round"/>
<path d="M45.2586 92.8781L95.7463 43.5123L83.4049 31.1709L32.9172 80.5366L45.2586 92.8781Z" fill="#C4C4C4" stroke="black" stroke-width="0.1"/>
<path d="M95.8113 43.0102L45.3226 93.1293" stroke="black" stroke-width="0.24" stroke-linecap="round"/>
<path d="M45.3226 93.1294L32.8421 80.2003" stroke="black" stroke-width="0.24" stroke-linecap="round"/>
<path d="M45.3226 93.1293L47.6041 91.9915" stroke="black" stroke-width="0.24" stroke-linecap="round"/>
<path d="M95.8113 43.0102L93.0898 46.8059" stroke="black" stroke-width="0.24" stroke-linecap="round"/>
<path d="M83.3495 30.8807L95.8113 43.0102" stroke="black" stroke-width="0.24" stroke-linecap="round"/>
<path d="M93.0897 46.8059L47.604 91.9916" stroke="black" stroke-width="0.24" stroke-linecap="round"/>
<path d="M32.842 80.2002L83.3495 30.8807" stroke="black" stroke-width="0.24" stroke-linecap="round"/>
<path d="M93.5026 46.8781L95.7465 43.5123L45.2588 92.8781L48.0636 92.3171L93.5026 46.8781Z" fill="#7D7D7D" stroke="black" stroke-width="0.1" stroke-linejoin="round"/>
<path d="M45.2586 92.8781L95.7463 43.5123L83.4049 31.1709L32.9172 80.5366L45.2586 92.8781Z" fill="#7D7D7D" stroke="black" stroke-width="0.1"/>
<path d="M95.8113 43.0102L45.3226 93.1293" stroke="black" stroke-width="0.24" stroke-linecap="round"/>
<path d="M45.3226 93.1294L32.8421 80.2003" stroke="black" stroke-width="0.24" stroke-linecap="round"/>
<path d="M45.3226 93.1293L47.6041 91.9915" stroke="black" stroke-width="0.24" stroke-linecap="round"/>
<path d="M95.8113 43.0102L93.0898 46.8059" stroke="black" stroke-width="0.24" stroke-linecap="round"/>
<path d="M83.3495 30.8807L95.8113 43.0102" stroke="black" stroke-width="0.24" stroke-linecap="round"/>
<path d="M93.0897 46.8059L47.604 91.9916" stroke="black" stroke-width="0.24" stroke-linecap="round"/>
<path d="M32.842 80.2002L83.3495 30.8807" stroke="black" stroke-width="0.24" stroke-linecap="round"/>
<path d="M93.5026 46.8781L95.7465 43.5123L45.2588 92.8781L48.0636 92.3171L93.5026 46.8781Z" fill="#252525" stroke="black" stroke-width="0.1" stroke-linejoin="round"/>
<path d="M77.838 62.8136L77.0447 62.0202L75.458 60.4336L63.558 73.127L65.938 75.507L77.838 62.8136Z" fill="#7D7D7D"/>
<path d="M65.938 51.5816L65.1446 50.83L63.558 49.3268L51.6579 61.3522L54.0379 63.6069L65.938 51.5816Z" fill="#7D7D7D"/>
<circle cx="63.5" cy="63.5" r="62.5" stroke="#494747" stroke-width="2"/>
</svg>
