<svg width="127" height="127" viewBox="0 0 127 127" fill="none" xmlns="http://www.w3.org/2000/svg">
<circle cx="63.5" cy="63.5" r="62.5" stroke="#494747" stroke-width="2"/>
<path d="M45 29.5L32.5 42L32 42.5L51 61.5L32.5 80L45 92.5L63.5 74L81.5 92L94 79.5L76.5 62L95 43.5L82.5 31L64.5 49L45 29.5Z" fill="#7D7D7D" stroke="#7D7D7D"/>
<path d="M32 85V80L45 92L63.5 73.5L82 92L95 79V83L81 97L62.5 78.5L44 97L32 85Z" fill="#494747" stroke="black" stroke-width="0.1"/>
<path d="M31.5 46.5V42.5L51 61L48.5 63.5L31.5 46.5Z" fill="#494747" stroke="black" stroke-width="0.1"/>
<path d="M95 49.5V44L76.5 62L80 65L95 49.5Z" fill="#494747" stroke="black" stroke-width="0.1"/>
<path d="M43.5209 32.9313C44.054 32.3982 44.6078 32.1303 45.1823 32.1275C45.6823 32.1248 46.1242 32.3154 46.5082 32.6993C47.0219 33.2131 47.2291 33.7572 47.1296 34.3317C47.0716 34.6521 46.9522 34.9125 46.7712 35.1127L46.1332 34.4747C46.2382 34.2868 46.2955 34.1232 46.3051 33.9837C46.3217 33.7351 46.2161 33.4969 45.9882 33.269C45.7562 33.037 45.4793 32.9479 45.1575 33.0018C44.8371 33.0542 44.5056 33.2517 44.1631 33.5942C43.8206 33.9367 43.6342 34.264 43.6038 34.5762C43.5761 34.8883 43.6714 35.1535 43.8896 35.3717C44.1134 35.5954 44.3571 35.6928 44.6209 35.6638C44.7646 35.6499 44.9365 35.5857 45.1368 35.4711L45.7686 36.1029C45.3805 36.3805 44.9683 36.5097 44.5318 36.4903C44.0968 36.4724 43.7018 36.2859 43.3469 35.931C42.9077 35.4918 42.7033 35.0057 42.7337 34.4726C42.7655 33.9381 43.0279 33.4244 43.5209 32.9313ZM48.2711 34.5782L48.9091 35.2163L46.4046 37.7209L47.9168 39.2331L47.3679 39.7821L45.2175 37.6318L48.2711 34.5782ZM49.6176 41.1204C49.8704 41.3731 50.1638 41.4801 50.4981 41.4415C50.8337 41.4042 51.1734 41.2136 51.5173 40.8697C51.8598 40.5272 52.0497 40.1881 52.087 39.8525C52.127 39.5169 52.0207 39.2228 51.768 38.97C51.5152 38.7173 51.2204 38.6089 50.8834 38.6448C50.5464 38.6807 50.206 38.8706 49.8621 39.2145C49.5182 39.5584 49.3283 39.8988 49.2924 40.2358C49.2565 40.5728 49.3649 40.8676 49.6176 41.1204ZM52.1553 41.5077C51.6071 42.056 51.0332 42.3219 50.4338 42.3053C49.9657 42.3122 49.5134 42.0975 49.0769 41.661C48.6405 41.2246 48.4258 40.7723 48.4327 40.3041C48.4147 39.7034 48.6799 39.1289 49.2282 38.5806C49.7875 38.0212 50.362 37.7561 50.9517 37.7851C51.4199 37.7782 51.8722 37.9929 52.3086 38.4293C52.7451 38.8658 52.9598 39.3181 52.9529 39.7862C52.9805 40.3746 52.7147 40.9484 52.1553 41.5077ZM52.5179 43.0469C52.3977 43.2058 52.3314 43.348 52.319 43.4737C52.2969 43.703 52.4115 43.9433 52.6629 44.1946C52.8134 44.3452 52.9522 44.4508 53.0793 44.5116C53.321 44.6262 53.5281 44.5972 53.7008 44.4246C53.8016 44.3237 53.8354 44.2015 53.8023 44.0579C53.7677 43.9156 53.6766 43.7292 53.5288 43.4986L53.2781 43.1029C53.0323 42.7134 52.8908 42.4158 52.8535 42.21C52.7886 41.8634 52.906 41.5402 53.2056 41.2405C53.4791 40.9671 53.8057 40.8393 54.1855 40.8573C54.5653 40.8752 54.9479 41.0769 55.3332 41.4622C55.655 41.784 55.8435 42.1437 55.8987 42.5415C55.9567 42.9392 55.829 43.3059 55.5155 43.6415L54.9023 43.0283C55.0749 42.8336 55.1253 42.623 55.0535 42.3965C55.0052 42.2459 54.9071 42.0968 54.7593 41.949C54.595 41.7847 54.4306 41.6866 54.2663 41.6548C54.102 41.6231 53.9604 41.6666 53.8416 41.7853C53.7325 41.8944 53.6994 42.0243 53.7422 42.1748C53.7684 42.2729 53.8589 42.4476 54.0136 42.6989L54.4134 43.3515C54.5888 43.6374 54.6889 43.8853 54.7138 44.0952C54.7524 44.4211 54.6357 44.7201 54.3637 44.9922C54.0847 45.2712 53.7456 45.3961 53.3465 45.3671C52.9501 45.3381 52.5572 45.1289 52.1678 44.7394C51.77 44.3417 51.5477 43.9384 51.5007 43.5296C51.4551 43.1195 51.5912 42.7555 51.9088 42.4379L52.5179 43.0469ZM58.714 46.1026L57.0982 44.4867L56.4498 45.1351L57.933 46.6184L57.4027 47.1487L55.9194 45.6655L55.1343 46.4506L56.8247 48.141L56.2758 48.69L53.9618 46.376L57.0153 43.3225L59.2547 45.5619L58.714 46.1026Z" fill="#05FF00"/>
</svg>
