<svg width="71" height="71" viewBox="0 0 71 71" fill="none" xmlns="http://www.w3.org/2000/svg">
<path d="M70 35.5C70 54.5538 54.5538 70 35.5 70C16.4462 70 1 54.5538 1 35.5C1 16.4462 16.4462 1 35.5 1C54.5538 1 70 16.4462 70 35.5Z" stroke="#494747"/>
<path d="M47.9913 35.3585C47.9566 34.9 47.7604 34.4658 47.4341 34.1252L31.7929 17.6815C31.4075 17.276 30.8675 17.0319 30.2919 17.0029C29.7162 16.9739 29.1519 17.1625 28.7232 17.527C28.2945 17.8916 28.0364 18.4023 28.0058 18.9469C27.9751 19.4914 28.1744 20.0252 28.5598 20.4307L42.8981 35.4995L28.5567 50.5682C28.3659 50.7692 28.2188 51.0038 28.1238 51.2585C28.0288 51.5133 27.9878 51.7833 28.0031 52.0531C28.0184 52.3229 28.0898 52.5871 28.2131 52.8308C28.3363 53.0745 28.5092 53.2928 28.7217 53.4734C28.9341 53.6539 29.1821 53.793 29.4515 53.8829C29.7208 53.9727 30.0062 54.0115 30.2914 53.997C30.5766 53.9826 30.856 53.9151 31.1136 53.7985C31.3712 53.6818 31.602 53.5184 31.7929 53.3174L47.438 36.8737C47.6336 36.6693 47.7838 36.4297 47.8795 36.1693C47.9752 35.9089 48.0146 35.6329 47.9952 35.3578L47.9913 35.3585Z" fill="#494747"/>
</svg>
