<svg width="127" height="127" viewBox="0 0 127 127" fill="none" xmlns="http://www.w3.org/2000/svg">
<circle cx="63.5" cy="63.5" r="62.5" stroke="#494747" stroke-width="2"/>
<path d="M31.5 95.5L27 91H94V36L98.5 40.5V95.5H31.5Z" fill="#494747" stroke="#252525" stroke-width="0.1"/>
<path d="M27.5 45V91H94V36H73V45H27.5Z" fill="#7D7D7D" stroke="black" stroke-width="0.1"/>
<path d="M30.457 49.6816H31.3594V53.2236H33.498V54H30.457V49.6816ZM36.0352 53.3555C36.3926 53.3555 36.6758 53.2236 36.8848 52.96C37.0957 52.6963 37.2012 52.3213 37.2012 51.835C37.2012 51.3506 37.0957 50.9766 36.8848 50.7129C36.6758 50.4473 36.3926 50.3145 36.0352 50.3145C35.6777 50.3145 35.3926 50.4463 35.1797 50.71C34.9668 50.9736 34.8604 51.3486 34.8604 51.835C34.8604 52.3213 34.9668 52.6963 35.1797 52.96C35.3926 53.2236 35.6777 53.3555 36.0352 53.3555ZM38.1035 51.835C38.1035 52.6104 37.8857 53.2041 37.4502 53.6162C37.124 53.9521 36.6523 54.1201 36.0352 54.1201C35.418 54.1201 34.9463 53.9521 34.6201 53.6162C34.1826 53.2041 33.9639 52.6104 33.9639 51.835C33.9639 51.0439 34.1826 50.4502 34.6201 50.0537C34.9463 49.7178 35.418 49.5498 36.0352 49.5498C36.6523 49.5498 37.124 49.7178 37.4502 50.0537C37.8857 50.4502 38.1035 51.0439 38.1035 51.835ZM39.9756 52.3682H41.0713L40.5322 50.6689L39.9756 52.3682ZM40.0312 49.6816H41.0508L42.5801 54H41.6016L41.3232 53.1123H39.7324L39.4336 54H38.4902L40.0312 49.6816ZM44.0068 50.4316V53.25H44.8389C45.2646 53.25 45.5615 53.04 45.7295 52.6201C45.8213 52.3896 45.8672 52.1152 45.8672 51.7969C45.8672 51.3574 45.7979 51.0205 45.6592 50.7861C45.5225 50.5498 45.249 50.4316 44.8389 50.4316H44.0068ZM44.9912 49.6816C45.2588 49.6855 45.4814 49.7168 45.6592 49.7754C45.9619 49.875 46.207 50.0576 46.3945 50.3232C46.5449 50.5381 46.6475 50.7705 46.7021 51.0205C46.7568 51.2705 46.7842 51.5088 46.7842 51.7354C46.7842 52.3096 46.6689 52.7959 46.4385 53.1943C46.126 53.7314 45.6436 54 44.9912 54H43.1309V49.6816H44.9912ZM49.9629 54H49.0664V49.6816H49.9629V54ZM50.8066 49.6875H53.8682V50.4463H51.7031V51.4395H53.5986V52.1895H51.7031V54H50.8066V49.6875ZM54.2871 51.876C54.2871 51.1221 54.4893 50.541 54.8936 50.1328C55.2451 49.7773 55.6924 49.5996 56.2354 49.5996C56.9619 49.5996 57.4932 49.8379 57.8291 50.3145C58.0146 50.582 58.1143 50.8506 58.1279 51.1201H57.2256C57.167 50.9131 57.0918 50.7568 57 50.6514C56.8359 50.4639 56.5928 50.3701 56.2705 50.3701C55.9424 50.3701 55.6836 50.5029 55.4941 50.7686C55.3047 51.0322 55.21 51.4062 55.21 51.8906C55.21 52.375 55.3096 52.7383 55.5088 52.9805C55.71 53.2207 55.9648 53.3408 56.2734 53.3408C56.5898 53.3408 56.8311 53.2373 56.9971 53.0303C57.0889 52.9189 57.165 52.752 57.2256 52.5293H58.1191C58.041 53 57.8408 53.3828 57.5186 53.6777C57.1982 53.9727 56.7871 54.1201 56.2852 54.1201C55.6641 54.1201 55.1758 53.9209 54.8203 53.5225C54.4648 53.1221 54.2871 52.5732 54.2871 51.876Z" fill="#05FF00"/>
</svg>
