<svg width="351" height="139" viewBox="0 0 351 139" fill="none" xmlns="http://www.w3.org/2000/svg">
<path d="M1.5 119.278V11.4841L31.5 10.5164V121.462L1.5 119.278Z" fill="#C4C4C4" stroke="black"/>
<path d="M57 65H63V119H57V65Z" fill="#C4C4C4"/>
<path d="M186 3L228 1V67L186 66.8878V3Z" fill="#C4C4C4"/>
<path d="M223 67H228V132H223V67Z" fill="#C4C4C4"/>
<path d="M156.5 67.5H199.5V135.477L156.5 133.522V67.5Z" fill="#C4C4C4" stroke="black"/>
<path d="M93.496 124.531L92.504 7.46948L123.5 5.53223V126.467L93.496 124.531Z" fill="#C4C4C4" stroke="black"/>
<path d="M236 67H276V135L236 133V67Z" fill="#C4C4C4"/>
<path d="M287 67H330L329 138L286 136L287 67Z" fill="#C4C4C4"/>
<path d="M56.5 118.556L32.5 121.436V10.5204L56.5 11.4804V118.556Z" stroke="black"/>
<path d="M150.5 123.552L124.5 126.441V5.55863L150.5 8.44752V123.552Z" stroke="black"/>
<path d="M63.5 65.5H85.5V116.542L63.5 118.455V65.5Z" stroke="black"/>
<path d="M32 10V122" stroke="black" stroke-width="0.24"/>
<path d="M286 114L307 115" stroke="black" stroke-width="0.24"/>
<path d="M286 136L329 138" stroke="black" stroke-width="0.24"/>
<path d="M57 65H86" stroke="black" stroke-width="0.24"/>
<path d="M57 11L32 10" stroke="black" stroke-width="0.24"/>
<path d="M330 91H308" stroke="black" stroke-width="0.24"/>
<path d="M308 92H330" stroke="black" stroke-width="0.24"/>
<path d="M151 124V8" stroke="black" stroke-width="0.24"/>
<path d="M151 124L124 127" stroke="black" stroke-width="0.24"/>
<path d="M330 92L350 90" stroke="black" stroke-width="0.24"/>
<path d="M200 67V136" stroke="black" stroke-width="0.24"/>
<path d="M223 67H200" stroke="black" stroke-width="0.24"/>
<path d="M63 65V119" stroke="black" stroke-width="0.24"/>
<path d="M151 8L124 5" stroke="black" stroke-width="0.24"/>
<path d="M124 127V5" stroke="black" stroke-width="0.24"/>
<path d="M286.5 100L276 101" stroke="black" stroke-width="0.24"/>
<path d="M350 89L330 91" stroke="black" stroke-width="0.24"/>
<path d="M276 101L256 100" stroke="black" stroke-width="0.24"/>
<path d="M350 67H308" stroke="black" stroke-width="0.24"/>
<path d="M180 67H223" stroke="black" stroke-width="0.24"/>
<path d="M330 67H287" stroke="black" stroke-width="0.24"/>
<path d="M308 92V91" stroke="black" stroke-width="0.24"/>
<path d="M286 134L276 135" stroke="black" stroke-width="0.24"/>
<path d="M156 67H200" stroke="black" stroke-width="0.24"/>
<path d="M63 119L86 117" stroke="black" stroke-width="0.24"/>
<path d="M249 67V4" stroke="black" stroke-width="0.24"/>
<path d="M1 119.678L31.9544 122L57 119" stroke="black" stroke-width="0.24"/>
<path d="M255 134V112" stroke="black" stroke-width="0.24"/>
<path d="M276 135V67" stroke="black" stroke-width="0.24"/>
<path d="M92 7L93 125" stroke="black" stroke-width="0.24"/>
<path d="M308 67H287" stroke="black" stroke-width="0.24"/>
<path d="M329 138L330 67" stroke="black" stroke-width="0.24"/>
<path d="M350 134L329 138" stroke="black" stroke-width="0.24"/>
<path d="M86 65H63" stroke="black" stroke-width="0.24"/>
<path d="M236 67V133" stroke="black" stroke-width="0.24"/>
<path d="M57 119H63" stroke="black" stroke-width="0.24"/>
<path d="M86 117V65" stroke="black" stroke-width="0.24"/>
<path d="M256 99V100" stroke="black" stroke-width="0.24"/>
<path d="M57 65H63" stroke="black" stroke-width="0.24"/>
<path d="M276 100L286.5 99" stroke="black" stroke-width="0.24"/>
<path d="M307 114L286 113" stroke="black" stroke-width="0.24"/>
<path d="M93 125L124 127" stroke="black" stroke-width="0.24"/>
<path d="M228 1V132" stroke="black" stroke-width="0.24"/>
<path d="M287 67L286 136" stroke="black" stroke-width="0.24"/>
<path d="M256 99L276 100" stroke="black" stroke-width="0.24"/>
<path d="M307 115V114" stroke="black" stroke-width="0.24"/>
<path d="M186 3L228 1" stroke="black" stroke-width="0.24"/>
<path d="M186 3V67" stroke="black" stroke-width="0.24"/>
<path d="M223 132H228" stroke="black" stroke-width="0.24"/>
<path d="M1 11V120" stroke="black" stroke-width="0.24"/>
<path d="M236 133L276 135" stroke="black" stroke-width="0.24"/>
<path d="M255 112H256" stroke="black" stroke-width="0.24"/>
<path d="M298 67H276" stroke="black" stroke-width="0.24"/>
<path d="M223 133V67" stroke="black" stroke-width="0.24"/>
<path d="M276 67H236" stroke="black" stroke-width="0.24"/>
<path d="M228 132L236 131" stroke="black" stroke-width="0.24"/>
<path d="M57 119V11" stroke="black" stroke-width="0.24"/>
<path d="M256 112V134" stroke="black" stroke-width="0.24"/>
<path d="M249 4L228 1" stroke="black" stroke-width="0.24"/>
<path d="M156 67V134" stroke="black" stroke-width="0.24"/>
<path d="M180 67H156" stroke="black" stroke-width="0.24"/>
<path d="M156 134L200 136" stroke="black" stroke-width="0.24"/>
<path d="M200 136L223 133" stroke="black" stroke-width="0.24"/>
<path d="M124 5L92 7" stroke="black" stroke-width="0.24"/>
<path d="M350 67H330" stroke="black" stroke-width="0.24"/>
<path d="M1 11L32 10" stroke="black" stroke-width="0.24"/>
<path d="M350 134V67" stroke="black" stroke-width="0.24"/>
<path d="M256 134H255" stroke="black" stroke-width="0.24"/>
<path d="M185.5 66V3.5L228 1V132H223" stroke="black"/>
<path d="M199.5 67.5H222.5L223 133L200 135.5" stroke="black"/>
<path d="M228 1L249 4V67" stroke="black" stroke-width="0.1"/>
<path d="M228 132.5L235.5 131.5" stroke="black"/>
</svg>
