<svg width="69" height="73" viewBox="0 0 69 73" fill="none" xmlns="http://www.w3.org/2000/svg">
<rect x="4.54358" y="3.5311" width="18.7302" height="18.7302" fill="#C4C4C4"/>
<path d="M5.04978 3.53111H23.2738L17.7053 1H1V18.9709L5.04978 22.2613V3.53111Z" fill="#7D7D7D" stroke="black" stroke-width="0.1"/>
<rect x="4.54358" y="3.5311" width="18.7302" height="18.7302" fill="#C4C4C4"/>
<rect x="8.58704" y="7.06845" width="11.6556" height="11.6556" fill="white" stroke="#C4C4C4"/>
<path d="M5.04978 3.53111H23.2738L17.7053 1H1V18.9709L5.04978 22.2613V3.53111Z" fill="#494747" stroke="black" stroke-width="0.1"/>
<path d="M16.1867 16.1867L8.59334 16.1867L8.59334 18.7178L20.2365 18.7178L20.2364 7.07466L16.1867 7.07466L16.1867 16.1867Z" fill="#494747"/>
<rect x="26.5938" y="27.9137" width="19.1374" height="19.1374" fill="#C4C4C4"/>
<path d="M27.111 27.9137H45.7312L40.0417 25.3275H22.9732V43.6891L27.111 47.0511V27.9137Z" fill="#7D7D7D" stroke="black" stroke-width="0.1"/>
<rect x="26.5938" y="27.9137" width="19.1374" height="19.1374" fill="#C4C4C4"/>
<path d="M27.111 27.9137H45.7312L40.0417 25.3275H22.9732V43.6891L27.111 47.0511V27.9137Z" fill="#494747" stroke="black" stroke-width="0.1"/>
<rect x="49.3519" y="53.026" width="19.1374" height="19.1374" fill="#C4C4C4"/>
<path d="M49.8691 53.026H68.4893L62.7998 50.4398H45.7313V68.8014L49.8691 72.1633V53.026Z" fill="#7D7D7D" stroke="black" stroke-width="0.1"/>
<rect x="49.3519" y="53.026" width="19.1374" height="19.1374" fill="#C4C4C4"/>
<path d="M49.8691 53.026H68.4893L62.7998 50.4398H45.7313V68.8014L49.8691 72.1633V53.026Z" fill="#494747" stroke="black" stroke-width="0.1"/>
<path d="M13.4061 22.0044V35.8992M13.4061 35.8992H23.331M13.4061 35.8992V61.7039H45.662" stroke="#7D7D7D"/>
</svg>
