<svg width="47" height="49" viewBox="0 0 47 49" fill="none" xmlns="http://www.w3.org/2000/svg">
<path d="M46 19.5L1.5 19V30L46 30.5V19.5Z" fill="#C4C4C4" stroke="black" stroke-width="0.1"/>
<path d="M45.5 37L1.5 36.5V47L45.5 48.154V37Z" fill="#C4C4C4" stroke="black" stroke-width="0.1"/>
<path d="M1 12V1L46.5 0.5L46 12H1Z" fill="#C4C4C4"/>
<path d="M1.24731 19.1948L46.0835 19.3595" stroke="black" stroke-width="0.24" stroke-linecap="round"/>
<path d="M46.2121 12.0733L1.15198 12.1461" stroke="black" stroke-width="0.24" stroke-linecap="round"/>
<path d="M46.0835 19.3595L45.8836 30.6834" stroke="black" stroke-width="0.24" stroke-linecap="round"/>
<path d="M46.0835 19.3596L44.5597 18.8499" stroke="black" stroke-width="0.24" stroke-linecap="round"/>
<path d="M1.24731 19.1948L4.15173 18.7161" stroke="black" stroke-width="0.24" stroke-linecap="round"/>
<path d="M1.15198 12.1461L4.07858 12.3575" stroke="black" stroke-width="0.24" stroke-linecap="round"/>
<path d="M46.4173 0.450928L46.2121 12.0733L44.6683 12.2985" stroke="black" stroke-width="0.24" stroke-linecap="round"/>
<path d="M45.5746 48.1895L1.62463 47.1075" stroke="black" stroke-width="0.24" stroke-linecap="round"/>
<path d="M45.7696 37.1427L45.5746 48.1895" stroke="black" stroke-width="0.24" stroke-linecap="round"/>
<path d="M4.33057 34.2698L44.2941 34.8674" stroke="black" stroke-width="0.24" stroke-linecap="round"/>
<path d="M45.7696 37.1427L44.294 34.8674" stroke="black" stroke-width="0.24" stroke-linecap="round"/>
<path d="M1.47998 36.4079L4.33051 34.2698" stroke="black" stroke-width="0.24" stroke-linecap="round"/>
<path d="M44.6683 12.2985L4.07861 12.3575" stroke="black" stroke-width="0.24" stroke-linecap="round"/>
<path d="M1.6246 47.1075L1.47998 36.4079" stroke="black" stroke-width="0.24" stroke-linecap="round"/>
<path d="M1.39542 30.154L1.24731 19.1948" stroke="black" stroke-width="0.24" stroke-linecap="round"/>
<path d="M1 0.907501L46.4173 0.450928" stroke="black" stroke-width="0.24" stroke-linecap="round"/>
<path d="M4.15173 18.7161L44.5597 18.8498" stroke="black" stroke-width="0.24" stroke-linecap="round"/>
<path d="M1.15198 12.1461L1 0.907471" stroke="black" stroke-width="0.24" stroke-linecap="round"/>
<path d="M45.8836 30.6834L1.39539 30.154" stroke="black" stroke-width="0.24" stroke-linecap="round"/>
<path d="M1.47998 36.4079L45.7696 37.1427" stroke="black" stroke-width="0.24" stroke-linecap="round"/>
<path d="M4.5 34L1.5 36.5L45.5 37L44 34.5L4.5 34Z" fill="#7D7D7D" stroke="black" stroke-width="0.3" stroke-linejoin="round"/>
<path d="M4 18.5L1.5 19L46 19.5L44.5 18.5H4Z" fill="#7D7D7D" stroke="black" stroke-width="0.1" stroke-linejoin="round"/>
<path d="M46 19.5L1.5 19V30L46 30.5V19.5Z" fill="#C4C4C4" stroke="black" stroke-width="0.1"/>
<path d="M45.5 36.5L1.5 36V46.5L45.5 47.654V36.5Z" fill="#C4C4C4" stroke="black" stroke-width="0.1"/>
<path d="M1 12V1L46.5 0.5L46 12H1Z" fill="#C4C4C4"/>
<path d="M1.24731 19.1948L46.0835 19.3595" stroke="black" stroke-width="0.24" stroke-linecap="round"/>
<path d="M46.2121 12.0733L1.15198 12.1461" stroke="black" stroke-width="0.24" stroke-linecap="round"/>
<path d="M46.0835 19.3595L45.8836 30.6834" stroke="black" stroke-width="0.24" stroke-linecap="round"/>
<path d="M46.0835 19.3596L44.5597 18.8499" stroke="black" stroke-width="0.24" stroke-linecap="round"/>
<path d="M1.24731 19.1948L4.15173 18.7161" stroke="black" stroke-width="0.24" stroke-linecap="round"/>
<path d="M1.15198 12.1461L4.07858 12.3575" stroke="black" stroke-width="0.24" stroke-linecap="round"/>
<path d="M46.4173 0.450928L46.2121 12.0733L44.6683 12.2985" stroke="black" stroke-width="0.24" stroke-linecap="round"/>
<path d="M45.5746 48.1895L1.62463 47.1075" stroke="black" stroke-width="0.24" stroke-linecap="round"/>
<path d="M45.7696 37.1427L45.5746 48.1895" stroke="black" stroke-width="0.24" stroke-linecap="round"/>
<path d="M4.33057 34.2698L44.2941 34.8674" stroke="black" stroke-width="0.24" stroke-linecap="round"/>
<path d="M45.7696 37.1427L44.294 34.8674" stroke="black" stroke-width="0.24" stroke-linecap="round"/>
<path d="M1.47998 36.4079L4.33051 34.2698" stroke="black" stroke-width="0.24" stroke-linecap="round"/>
<path d="M44.6683 12.2985L4.07861 12.3575" stroke="black" stroke-width="0.24" stroke-linecap="round"/>
<path d="M1.6246 47.1075L1.47998 36.4079" stroke="black" stroke-width="0.24" stroke-linecap="round"/>
<path d="M1.39542 30.154L1.24731 19.1948" stroke="black" stroke-width="0.24" stroke-linecap="round"/>
<path d="M1 0.907501L46.4173 0.450928" stroke="black" stroke-width="0.24" stroke-linecap="round"/>
<path d="M4.15173 18.7161L44.5597 18.8498" stroke="black" stroke-width="0.24" stroke-linecap="round"/>
<path d="M1.15198 12.1461L1 0.907471" stroke="black" stroke-width="0.24" stroke-linecap="round"/>
<path d="M45.8836 30.6834L1.39539 30.154" stroke="black" stroke-width="0.24" stroke-linecap="round"/>
<path d="M1.47998 36.4079L45.7696 37.1427" stroke="black" stroke-width="0.24" stroke-linecap="round"/>
<path d="M4.5 34L1.5 36.5L45.5 37L44 34.5L4.5 34Z" fill="#252525" stroke="black" stroke-width="0.3" stroke-linejoin="round"/>
<path d="M4 18.5L1.5 19L46 19.5L44.5 18.5H4Z" fill="#252525" stroke="black" stroke-width="0.1" stroke-linejoin="round"/>
<path d="M46 19.5L1.5 19V30L46 30.5V19.5Z" fill="#C4C4C4" stroke="black" stroke-width="0.1"/>
<path d="M45.5 37L1.5 36.5V47L45.5 48.154V37Z" fill="#C4C4C4" stroke="black" stroke-width="0.1"/>
<path d="M1 12V1L46.5 0.5L46 12H1Z" fill="#C4C4C4"/>
<path d="M1.24731 19.1948L46.0835 19.3595" stroke="black" stroke-width="0.24" stroke-linecap="round"/>
<path d="M46.2121 12.0733L1.15198 12.1461" stroke="black" stroke-width="0.24" stroke-linecap="round"/>
<path d="M46.0835 19.3595L45.8836 30.6834" stroke="black" stroke-width="0.24" stroke-linecap="round"/>
<path d="M46.0835 19.3596L44.5597 18.8499" stroke="black" stroke-width="0.24" stroke-linecap="round"/>
<path d="M1.24731 19.1948L4.15173 18.7161" stroke="black" stroke-width="0.24" stroke-linecap="round"/>
<path d="M1.15198 12.1461L4.07858 12.3575" stroke="black" stroke-width="0.24" stroke-linecap="round"/>
<path d="M46.4173 0.450928L46.2121 12.0733L44.6683 12.2985" stroke="black" stroke-width="0.24" stroke-linecap="round"/>
<path d="M45.5746 48.1895L1.62463 47.1075" stroke="black" stroke-width="0.24" stroke-linecap="round"/>
<path d="M45.7696 37.1427L45.5746 48.1895" stroke="black" stroke-width="0.24" stroke-linecap="round"/>
<path d="M4.33057 34.2698L44.2941 34.8674" stroke="black" stroke-width="0.24" stroke-linecap="round"/>
<path d="M45.7696 37.1427L44.294 34.8674" stroke="black" stroke-width="0.24" stroke-linecap="round"/>
<path d="M1.47998 36.4079L4.33051 34.2698" stroke="black" stroke-width="0.24" stroke-linecap="round"/>
<path d="M44.6683 12.2985L4.07861 12.3575" stroke="black" stroke-width="0.24" stroke-linecap="round"/>
<path d="M1.6246 47.1075L1.47998 36.4079" stroke="black" stroke-width="0.24" stroke-linecap="round"/>
<path d="M1.39542 30.154L1.24731 19.1948" stroke="black" stroke-width="0.24" stroke-linecap="round"/>
<path d="M4.15173 18.7161L44.5597 18.8498" stroke="black" stroke-width="0.24" stroke-linecap="round"/>
<path d="M1.15198 12.1461L1 0.907471" stroke="black" stroke-width="0.24" stroke-linecap="round"/>
<path d="M45.8836 30.6834L1.39539 30.1541" stroke="black" stroke-width="0.24" stroke-linecap="round"/>
<path d="M1.47998 36.4079L45.7696 37.1427" stroke="black" stroke-width="0.24" stroke-linecap="round"/>
<path d="M4.5 34L1.5 36.5L45.5 37L44 34.5L4.5 34Z" fill="#7D7D7D" stroke="black" stroke-width="0.3" stroke-linejoin="round"/>
<path d="M4 18.5L1.5 19L46 19.5L44.5 18.5H4Z" fill="#7D7D7D" stroke="black" stroke-width="0.1" stroke-linejoin="round"/>
<path d="M46 19.5L1.5 19V30L46 30.5V19.5Z" fill="#C4C4C4" stroke="black" stroke-width="0.1"/>
<path d="M45.5 36.5L1.5 36V46.5L45.5 47.654V36.5Z" fill="#C4C4C4" stroke="black" stroke-width="0.1"/>
<path d="M1 12V1L46.5 0.5L46 12H1Z" fill="#C4C4C4"/>
<path d="M1.24731 19.1948L46.0835 19.3595" stroke="black" stroke-width="0.24" stroke-linecap="round"/>
<path d="M46.2121 12.0733L1.15198 12.1461" stroke="black" stroke-width="0.24" stroke-linecap="round"/>
<path d="M46.0835 19.3595L45.8836 30.6834" stroke="black" stroke-width="0.24" stroke-linecap="round"/>
<path d="M46.0835 19.3596L44.5597 18.8499" stroke="black" stroke-width="0.24" stroke-linecap="round"/>
<path d="M1.24731 19.1948L4.15173 18.7161" stroke="black" stroke-width="0.24" stroke-linecap="round"/>
<path d="M1.15198 12.1461L4.07858 12.3575" stroke="black" stroke-width="0.24" stroke-linecap="round"/>
<path d="M46.4173 0.450928L46.2121 12.0733L44.6683 12.2985" stroke="black" stroke-width="0.24" stroke-linecap="round"/>
<path d="M45.5746 48.1895L1.62463 47.1075" stroke="black" stroke-width="0.24" stroke-linecap="round"/>
<path d="M45.7696 37.1427L45.5746 48.1895" stroke="black" stroke-width="0.24" stroke-linecap="round"/>
<path d="M4.33057 34.2698L44.2941 34.8674" stroke="black" stroke-width="0.24" stroke-linecap="round"/>
<path d="M45.7696 37.1427L44.294 34.8674" stroke="black" stroke-width="0.24" stroke-linecap="round"/>
<path d="M1.47998 36.4079L4.33051 34.2698" stroke="black" stroke-width="0.24" stroke-linecap="round"/>
<path d="M44.6683 12.2985L4.07861 12.3575" stroke="black" stroke-width="0.24" stroke-linecap="round"/>
<path d="M1.6246 47.1075L1.47998 36.4079" stroke="black" stroke-width="0.24" stroke-linecap="round"/>
<path d="M1.39542 30.154L1.24731 19.1948" stroke="black" stroke-width="0.24" stroke-linecap="round"/>
<path d="M4.15173 18.7161L44.5597 18.8498" stroke="black" stroke-width="0.24" stroke-linecap="round"/>
<path d="M1.15198 12.1461L1 0.907471" stroke="black" stroke-width="0.24" stroke-linecap="round"/>
<path d="M45.8836 30.6834L1.39539 30.1541" stroke="black" stroke-width="0.24" stroke-linecap="round"/>
<path d="M1.47998 36.4079L45.7696 37.1427" stroke="black" stroke-width="0.24" stroke-linecap="round"/>
<path d="M4.5 34L1.5 36.5L45.5 37L44 34.5L4.5 34Z" fill="#7D7D7D" stroke="black" stroke-width="0.3" stroke-linejoin="round"/>
<path d="M4 18.5L1.5 19L46 19.5L44.5 18.5H4Z" fill="#7D7D7D" stroke="black" stroke-width="0.1" stroke-linejoin="round"/>
</svg>
