<svg width="114" height="114" viewBox="0 0 114 114" fill="none" xmlns="http://www.w3.org/2000/svg">
<path d="M113 57C113 87.9279 87.9279 113 57 113C26.0721 113 1 87.9279 1 57C1 26.0721 26.0721 1 57 1C87.9279 1 113 26.0721 113 57Z" fill="#E5E5E5"/>
<path d="M113 57C113 87.9279 87.9279 113 57 113C26.0721 113 1 87.9279 1 57C1 26.0721 26.0721 1 57 1C87.9279 1 113 26.0721 113 57Z" fill="#E5E5E5"/>
<path d="M113 57C113 87.9279 87.9279 113 57 113C26.0721 113 1 87.9279 1 57C1 26.0721 26.0721 1 57 1C87.9279 1 113 26.0721 113 57Z" fill="#E5E5E5"/>
<path d="M113 57C113 87.9279 87.9279 113 57 113C26.0721 113 1 87.9279 1 57C1 26.0721 26.0721 1 57 1C87.9279 1 113 26.0721 113 57Z" fill="#E5E5E5"/>
<path d="M113 57C113 87.9279 87.9279 113 57 113C26.0721 113 1 87.9279 1 57C1 26.0721 26.0721 1 57 1C87.9279 1 113 26.0721 113 57Z" stroke="#494747" stroke-width="2"/>
<path d="M85 28H29V39H85V28Z" fill="#7D7D7D" stroke="#7D7D7D" stroke-width="0.1"/>
<path d="M32 42L29 39H85V28L88 31V42H32Z" fill="#494747" stroke="black" stroke-width="0.1"/>
<path d="M85 50H29V61H85V50Z" fill="#7D7D7D" stroke="#7D7D7D" stroke-width="0.1"/>
<path d="M32 64L29 61H85V50L88 53V64H32Z" fill="#494747" stroke="black" stroke-width="0.1"/>
<path d="M85 72H29V83H85V72Z" fill="#7D7D7D" stroke="#7D7D7D" stroke-width="0.1"/>
<path d="M32 86L29 83H85V72L88 75V86H32Z" fill="#494747" stroke="black" stroke-width="0.1"/>
<path d="M68.3193 76.6816H69.6172V81H68.7764V78.0791C68.7764 77.9951 68.7773 77.8779 68.7793 77.7275C68.7812 77.5752 68.7822 77.458 68.7822 77.376L67.9648 81H67.0889L66.2773 77.376C66.2773 77.458 66.2783 77.5752 66.2803 77.7275C66.2822 77.8779 66.2832 77.9951 66.2832 78.0791V81H65.4424V76.6816H66.7549L67.54 80.0771L68.3193 76.6816ZM73.6484 77.4463H71.3633V78.3633H73.4609V79.1133H71.3633V80.2236H73.7539V81H70.4814V76.6816H73.6484V77.4463ZM74.4424 76.6816H75.3887L77.1084 79.6963V76.6816H77.9492V81H77.0469L75.2832 77.9326V81H74.4424V76.6816ZM78.793 76.6816H79.71V79.3359C79.71 79.6328 79.7451 79.8496 79.8154 79.9863C79.9248 80.2285 80.1631 80.3496 80.5303 80.3496C80.8955 80.3496 81.1328 80.2285 81.2422 79.9863C81.3125 79.8496 81.3477 79.6328 81.3477 79.3359V76.6816H82.2646V79.3359C82.2646 79.7949 82.1934 80.1523 82.0508 80.4082C81.7852 80.877 81.2783 81.1113 80.5303 81.1113C79.7822 81.1113 79.2744 80.877 79.0068 80.4082C78.8643 80.1523 78.793 79.7949 78.793 79.3359V76.6816Z" fill="#05FF00"/>
</svg>
