<svg width="66" height="40" viewBox="0 0 66 40" fill="none" xmlns="http://www.w3.org/2000/svg">
<path d="M65.3611 18.7609C59.4903 7.36383 46.7884 0 33 0C19.2117 0 6.51002 7.36415 0.638915 18.7609L0 20L0.638915 21.2391C6.5097 32.6362 19.2117 40 33 40C46.7884 40 59.49 32.6358 65.3611 21.2391L66 20L65.3611 18.7609ZM33 34.6169C21.7014 34.6169 11.2928 28.9231 6.06611 20.0001C11.2936 11.0764 21.7017 5.38329 33 5.38329C44.2983 5.38329 54.7072 11.0764 59.9339 20.0001C54.7064 28.9238 44.2983 34.6169 33 34.6169ZM33 9.31138C27.1472 9.31138 22.3844 14.1059 22.3844 20.0006C22.3844 25.8953 27.1472 30.6898 33 30.6898C38.8528 30.6898 43.6156 25.894 43.6156 20.0006C43.6156 14.1072 38.8528 9.31138 33 9.31138ZM33 25.3063C30.0944 25.3063 27.7308 22.9264 27.7308 20.0006C27.7308 17.0748 30.0944 14.6948 33 14.6948C35.9056 14.6948 38.2692 17.0748 38.2692 20.0006C38.2692 22.9264 35.9056 25.3063 33 25.3063Z" fill="#7D7D7D"/>
</svg>
