<svg width="127" height="127" viewBox="0 0 127 127" fill="none" xmlns="http://www.w3.org/2000/svg">
<circle cx="63.5" cy="63.5" r="62.5" stroke="#494747" stroke-width="2"/>
<circle cx="63.5" cy="63.5" r="62.5" stroke="black" stroke-opacity="0.2" stroke-width="2"/>
<path d="M70.2143 88.1299H55.0195V100.987H70.2143V88.1299Z" fill="#7D7D7D" stroke="black" stroke-width="0.1"/>
<path d="M70 101H55L57.5 104H72V90.5L70 88V101Z" fill="#494747" stroke="#494747" stroke-width="0.1"/>
<rect x="55.5" y="22" width="15" height="56" fill="#7D7D7D"/>
<path d="M70.5 78H55.5L57.5 80.5H72.5V24.5L70.5 22V78Z" fill="#494747" stroke="#494747" stroke-width="0.1"/>
<path d="M60.3682 74.3623L60.3682 73.2666L58.6689 73.8057L60.3682 74.3623ZM57.6816 74.3066L57.6816 73.2871L62 71.7578L62 72.7363L61.1123 73.0146L61.1123 74.6055L62 74.9043L62 75.8477L57.6816 74.3066ZM58.4316 70.3311L59.3838 70.3311L59.3838 69.2705C59.3838 69.0811 59.3486 68.9277 59.2783 68.8105C59.2061 68.6914 59.0791 68.6318 58.8975 68.6318C58.6963 68.6318 58.5635 68.71 58.499 68.8662C58.4541 69.001 58.4316 69.1729 58.4316 69.3818L58.4316 70.3311ZM60.0986 70.3311L61.25 70.3311L61.25 69.2705C61.25 69.0811 61.2246 68.9336 61.1738 68.8281C61.0801 68.6367 60.9004 68.541 60.6348 68.541C60.4102 68.541 60.2559 68.6338 60.1719 68.8193C60.125 68.9229 60.1006 69.0684 60.0986 69.2559L60.0986 70.3311ZM57.6816 69.0947C57.6895 68.5654 57.8428 68.1904 58.1416 67.9697C58.3252 67.8369 58.5449 67.7705 58.8008 67.7705C59.0645 67.7705 59.2764 67.8369 59.4365 67.9697C59.5264 68.0439 59.6084 68.1533 59.6826 68.2979C59.7627 68.0771 59.8896 67.9111 60.0635 67.7998C60.2373 67.6865 60.4482 67.6299 60.6963 67.6299C60.9521 67.6299 61.1816 67.6943 61.3848 67.8232C61.5195 67.9053 61.6328 68.0078 61.7246 68.1309C61.8301 68.2695 61.9023 68.4336 61.9414 68.623C61.9805 68.8105 62 69.0146 62 69.2354L62 71.1924L57.6816 71.1924L57.6816 69.0947ZM61.3555 64.9609C61.3555 64.6035 61.2236 64.3203 60.96 64.1113C60.6963 63.9004 60.3213 63.7949 59.835 63.7949C59.3506 63.7949 58.9766 63.9004 58.7129 64.1113C58.4473 64.3203 58.3145 64.6035 58.3145 64.9609C58.3145 65.3184 58.4463 65.6035 58.71 65.8164C58.9736 66.0293 59.3486 66.1357 59.835 66.1357C60.3213 66.1357 60.6963 66.0293 60.96 65.8164C61.2236 65.6035 61.3555 65.3184 61.3555 64.9609ZM59.835 62.8926C60.6104 62.8926 61.2041 63.1104 61.6162 63.5459C61.9521 63.8721 62.1201 64.3437 62.1201 64.9609C62.1201 65.5781 61.9521 66.0498 61.6162 66.376C61.2041 66.8135 60.6104 67.0322 59.835 67.0322C59.0439 67.0322 58.4502 66.8135 58.0537 66.376C57.7178 66.0498 57.5498 65.5781 57.5498 64.9609C57.5498 64.3437 57.7178 63.8721 58.0537 63.5459C58.4502 63.1104 59.0439 62.8926 59.835 62.8926ZM57.6816 62.2012L57.6816 61.2842L60.3359 61.2842C60.6328 61.2842 60.8496 61.249 60.9863 61.1787C61.2285 61.0693 61.3496 60.8311 61.3496 60.4639C61.3496 60.0986 61.2285 59.8613 60.9863 59.752C60.8496 59.6816 60.6328 59.6465 60.3359 59.6465L57.6816 59.6465L57.6816 58.7295L60.3359 58.7295C60.7949 58.7295 61.1523 58.8008 61.4082 58.9434C61.877 59.209 62.1113 59.7158 62.1113 60.4639C62.1113 61.2119 61.877 61.7197 61.4082 61.9873C61.1523 62.1299 60.7949 62.2012 60.3359 62.2012L57.6816 62.2012ZM57.6816 54.7275L58.4463 54.7275L58.4463 56.0195L62 56.0195L62 56.9277L58.4463 56.9277L58.4463 58.2256L57.6816 58.2256L57.6816 54.7275Z" fill="#05FF00"/>
</svg>
