<svg width="65" height="65" viewBox="0 0 65 65" fill="none" xmlns="http://www.w3.org/2000/svg">
<path d="M65 2.03125C65 0.909977 64.09 0 62.9687 0H38.5937C37.4725 0 36.5625 0.909977 36.5625 2.03125V6.09375C36.5625 7.21502 37.4725 8.125 38.5937 8.125H56.875V26.4063C56.875 27.5275 57.785 28.4375 58.9062 28.4375H62.9687C64.09 28.4375 65 27.5275 65 26.4063V2.03125Z" fill="#7D7D7D"/>
<path d="M8.125 8.125H26.4063C27.5275 8.125 28.4375 7.21502 28.4375 6.09375V2.03125C28.4375 0.909977 27.5275 0 26.4063 0H2.03125C0.909977 0 0 0.909977 0 2.03125V26.4063C0 27.5275 0.909977 28.4375 2.03125 28.4375H6.09375C7.21502 28.4375 8.125 27.5275 8.125 26.4063V8.125Z" fill="#7D7D7D"/>
<path d="M26.4063 65C27.5275 65 28.4375 64.09 28.4375 62.9688V58.9063C28.4375 57.785 27.5275 56.875 26.4063 56.875H8.125V38.5938C8.125 37.4725 7.21502 36.5625 6.09375 36.5625H2.03125C0.909977 36.5625 0 37.4725 0 38.5938V62.9688C0 64.09 0.909977 65 2.03125 65H26.4063Z" fill="#7D7D7D"/>
<path d="M38.5937 65C37.4725 65 36.5625 64.09 36.5625 62.9688V58.9063C36.5625 57.785 37.4725 56.875 38.5937 56.875H56.875V38.5938C56.875 37.4725 57.785 36.5625 58.9062 36.5625H62.9687C64.09 36.5625 65 37.4725 65 38.5938V62.9688C65 64.09 64.09 65 62.9687 65H38.5937Z" fill="#7D7D7D"/>
<path d="M20.6875 45C19.756 45 19 44.3 19 43.4375V21.5625C19 20.7 19.756 20 20.6875 20H44.3125C45.244 20 46 20.7 46 21.5625V43.4375C46 44.3 45.244 45 44.3125 45H20.6875Z" fill="#7D7D7D"/>
</svg>
