<svg width="314" height="115" viewBox="0 0 314 115" fill="none" xmlns="http://www.w3.org/2000/svg">
<path d="M37.5 2H1L3 113H40L37.5 2Z" fill="#C4C4C4" stroke="black"/>
<path d="M44.5 4L38 2L40 113L46 109.5L44.5 4Z" fill="black" stroke="black"/>
<path d="M85.5 58H48L49 113H86L85.5 58Z" fill="#C4C4C4" stroke="black"/>
<path d="M89 57L85.5 58L86 113L90 109.5L89 57Z" fill="black" stroke="black"/>
<path d="M131 2H93.5L95 112.5H131.5L131 2Z" fill="#C4C4C4" stroke="black"/>
<path d="M133 4L131.5 2V113L133.5 109L133 4Z" fill="black" stroke="black"/>
<path d="M141 112V58.5H177V112H141Z" fill="#C4C4C4" stroke="black"/>
<path d="M186.5 2.5L186 112.5H222.5V2.5H186.5Z" fill="#C4C4C4" stroke="black"/>
<path d="M184.5 4.98182L185.5 3V112L184.833 108.036L184.5 4.98182Z" fill="black" stroke="black"/>
<path d="M228 57L232 58L231.5 112L228 108.5V57Z" fill="black" stroke="black"/>
<path d="M268 58H232L231.5 112.5L267.5 112L268 58Z" fill="#C4C4C4" stroke="black"/>
<path d="M250 85.5H267.5" stroke="black"/>
<path d="M249.5 112V94.5" stroke="black"/>
<path d="M313 58H277.5H277L276.5 112H313V58Z" fill="#C4C4C4" stroke="black"/>
<path d="M295.5 76H313" stroke="black"/>
<path d="M276.5 94.5H292.5" stroke="black"/>
<path d="M270.5 57L276.5 58.4865V112L270.5 108.036V57Z" fill="black" stroke="black"/>
<path d="M232.5 58L227.5 56H264L268.287 58H232.5Z" fill="black" stroke="black"/>
<path d="M276.129 58L270 56H306.5L313 58H276.129Z" fill="black" stroke="black"/>
<path d="M84.5 58H48L52.5 56.5H89L84.5 58Z" fill="black" stroke="black"/>
</svg>
