<svg width="113" height="164" viewBox="0 0 113 164" fill="none" xmlns="http://www.w3.org/2000/svg">
<path d="M25.563 1L1 12.4627V163.116H25.563V1Z" fill="#6D8752"/>
<path d="M28.5858 79.5521V163.056L59.9511 163.116L60.0403 71.31L28.5858 79.5521Z" fill="#6D8752"/>
<path d="M25.563 1L77.964 6.65598V73.1602L59.9511 71.4139L28.5857 79.5521V163.116H25.563V1Z" fill="#E9E8E2"/>
<path d="M59.872 71.31L59.9511 163.116H112.352V76.5244L59.872 71.31Z" fill="#E9E8E2"/>
<path d="M60.0401 71.3099L112.184 76.6925" stroke="black" stroke-linecap="round"/>
<path d="M60.0401 71.3099V162.814" stroke="black" stroke-linecap="round"/>
<path d="M60.0402 71.3099L28.5858 79.552V162.982H112.184" stroke="black" stroke-linecap="round"/>
<path d="M112.184 76.6926V162.982" stroke="black" stroke-linecap="round"/>
<path d="M28.5857 162.982H1.16813" stroke="black" stroke-linecap="round"/>
<path d="M1.16813 162.982V12.6061" stroke="black" stroke-linecap="round"/>
<path d="M1.16817 12.6062L25.558 1.16821" stroke="black" stroke-linecap="round"/>
<path d="M25.5579 1.16821L77.8698 6.719" stroke="black" stroke-linecap="round"/>
<path d="M77.8699 6.71899V72.992" stroke="black" stroke-linecap="round"/>
<path d="M25.5579 1.33643V162.814" stroke="black" stroke-linecap="round"/>
</svg>
