<svg width="226" height="126" viewBox="0 0 226 126" fill="none" xmlns="http://www.w3.org/2000/svg">
<path d="M26.0606 2L10 9.49495V108H26.0606M26.0606 2V108M26.0606 2L60.3232 7.35354V49.1111L48.5454 48.0404M26.0606 108H28.202M97.798 13.7778L78.5252 20.202V50.7172L82.8081 51.2525M97.798 13.7778V108M97.798 13.7778L123.495 18.0606L123.495 108M97.798 108H82.8081M97.798 108L123.495 108M82.8081 108V51.2525M82.8081 108L48.5454 108M82.8081 51.2525L48.5454 48.0404M28.202 108V53.3939L48.5454 48.0404M28.202 108H48.5454M48.5454 48.0404V108M130.99 68.3838L123.495 69.4546V108M130.99 68.3838V108M130.99 68.3838H133.131V108M130.99 108H123.495M130.99 108H133.131M154.545 23.4141L133.131 28.7677V108M154.545 23.4141V108M154.545 23.4141L174.889 27.697L174.889 108M154.545 108H133.131M154.545 108H174.889M182.384 68.3838L174.889 69.4546V108M182.384 68.3838V108M182.384 68.3838L199.515 69.9899L199.515 108M182.384 108H174.889M182.384 108H199.515M205.939 70.5253L199.515 71.0606V108M205.939 70.5253V108M205.939 70.5253L224.141 72.6667V108H205.939M205.939 108H199.515M9.96078 20.756C9.94862 20.7652 9.93685 20.7723 9.92548 20.7775M9.92548 20.7775C9.54505 20.9508 9.59725 18.9781 9.68767 18.5712C10.0292 17.0343 11.7171 15.5811 12.5041 14.2355C12.536 14.181 14.2714 11.4345 13.8868 12.8358C13.1846 15.3937 11.3129 17.8921 10.1656 20.2781C10.0856 20.4445 10.0055 20.611 9.92548 20.7775ZM9.92548 20.7775C7.579 25.6568 5.21759 30.5809 3.37198 35.6747C2.79965 37.2544 1.97229 39.2451 1.97229 40.9662C1.97229 41.1575 2.18304 40.6452 2.26247 40.4712C3.501 37.7583 5.13859 35.2148 6.73466 32.7046C9.77726 27.9195 12.8869 23.0623 16.6008 18.7589C16.9725 18.3282 19.9841 14.3828 20.7145 14.6111C21.8931 14.9794 12.2027 37.7644 11.7019 38.9521C10.5009 41.8004 9.30454 44.661 8.15766 47.5369M8.15766 47.5369C7.73858 48.5878 7.32611 49.6407 6.92242 50.6958C5.88049 53.419 7.20266 49.4516 7.46865 48.9035C7.69042 48.4465 7.92025 47.991 8.15766 47.5369ZM8.15766 47.5369C12.0881 40.0205 18.0963 32.9332 24.026 27.0035C24.0772 26.9522 24.5859 26.4082 24.6405 26.8669C24.7528 27.8103 24.1108 29.122 23.787 29.9053C20.112 38.7936 15.6969 47.3471 12.2139 56.3287C8.89476 64.888 5.74123 73.5362 3.37198 82.4108C2.86475 84.3108 1.97229 86.4355 1.97229 88.4363C1.97229 88.8451 2.15266 87.6342 2.31368 87.2585C3.38695 84.7542 4.83434 82.3775 6.1543 80.004C9.89872 73.2709 13.8932 66.7661 18.2224 60.3913C18.925 59.3567 20.7619 55.5766 22.3703 55.2192C22.6402 55.1592 20.3202 62.7355 20.3049 62.781C17.0001 72.5987 13.8661 82.4693 10.8484 92.3794C10.092 94.8632 9.37901 97.3353 8.76592 99.8558C8.74644 99.9359 7.83455 102.258 8.33919 101.409C13.4385 92.8329 20.581 85.0739 27.0302 77.529C30.1235 73.9101 33.3009 70.0558 37.067 67.0825C37.7244 66.5635 37.6544 67.6582 37.5791 68.0725C37.2531 69.8653 36.0531 71.6916 35.4625 73.4323C33.9644 77.8477 32.5366 82.6006 29.932 86.5075M78.4775 27.2083C81.1312 23.8308 83.4436 20.2509 86.7732 17.4446C88.8109 15.7271 92.5987 12.6572 90.3236 17.786C85.6555 28.3098 79.4481 38.1936 74.2784 48.4768C72.8494 51.3193 71.5466 54.2227 70.1476 57.0798C69.7273 57.9382 68.6422 59.9266 70.1988 57.7796L70.5719 57.265C77.5465 47.6443 84.5298 38.0118 92.1842 28.9152C92.9079 28.0552 95.9539 23.3637 97.5611 23.2994C97.9639 23.2833 97.8537 24.1049 97.7488 24.4943C97.3671 25.9122 96.5779 27.4542 95.9566 28.7275C90.9517 38.9843 85.4896 49.0128 80.4404 59.2476C79.3944 61.368 78.2529 63.5057 77.4874 65.7511C76.807 67.7471 79.1028 64.7568 79.2627 64.5903C82.6808 61.0317 86.3484 57.2174 90.6309 54.6901C91.3207 54.283 92.7334 52.9759 92.8499 53.7683C93.1501 55.8098 90.0405 60.5574 89.3336 61.9958C83.6606 73.5389 77.0522 84.6988 72.1618 96.6126C72.1594 96.6184 70.624 100.545 70.8304 100.539C71.4613 100.52 71.9045 99.8704 72.4007 99.4802C75.1828 97.2932 77.8351 94.9362 80.4917 92.6013L80.551 92.5491C85.9062 87.8421 91.2058 83.1841 97.1856 79.27C100.59 77.0415 98.123 81.9074 97.5099 83.4008C92.5941 95.3751 85.9111 106.626 79.5699 117.881C78.4955 119.788 77.5605 121.813 76.395 123.668C75.9462 124.382 75.8634 124.29 75.7122 123.685M143 24.1358C143.589 23.3499 142.48 26.0388 142.078 26.9352C139.709 32.2176 136.77 37.2476 133.953 42.2977C132.223 45.3992 130.494 48.4787 128.969 51.6858C128.894 51.8435 127.404 54.8131 128.184 53.9732C134.684 46.9725 140.837 39.7509 147.95 33.3191C148.193 33.0994 153.673 28.7634 153.685 29.2566C153.735 31.1899 151.289 34.2753 150.442 35.7089C147.365 40.9204 144.04 45.9772 140.883 51.1396C138.788 54.5669 136.889 58.071 135.08 61.6544C134.507 62.789 133.486 64.194 133.236 65.4779C133.063 66.3677 134.742 64.4402 135.353 63.771C137.4 61.5303 139.338 59.2178 141.6 57.1822C142.159 56.6791 143.487 55.2631 144.4 55.2363C144.74 55.2263 144.577 55.8927 144.57 55.9191C144.273 57.0899 143.408 58.9957 142.966 59.9133C136.303 73.7378 127.947 86.665 120.81 100.231C119.661 102.414 118.47 104.599 117.396 106.82C116.975 107.689 118.776 105.466 119.41 104.738C127.12 95.8818 135.241 87.4473 144.024 79.6456C144.191 79.4975 148.086 75.8172 147.472 77.6997C146.362 81.1054 144.24 84.3136 142.488 87.3951C139.405 92.8161 136.2 98.1696 133.339 103.713C131.769 106.754 130.267 109.86 128.901 112.999C128.79 113.254 127.674 115.395 128.935 114.399C135.478 109.227 141.645 103.574 148.223 98.4219C148.649 98.0883 149.89 96.8706 150.579 96.9198C151.294 96.9709 149.434 97.7852 148.838 98.183" stroke="#9E00FF" stroke-width="3" stroke-linecap="round"/>
</svg>
