<svg width="199" height="199" viewBox="0 0 199 199" fill="none" xmlns="http://www.w3.org/2000/svg">
<defs>
  <style>
    .left-face {
      fill: #4eef4b;
    }
    .right-face {
      fill: #d9d9d9;
    }
    #logo path {
      stroke: black;
      stroke-width: 2;
      stroke-linecap: round;
      stroke-linejoin: round;
    }
  </style>
</defs>
<g id="logo">
  <path d="M118.5 27.5L72 25L73 173H79.5V99.5L108 98.5H119L118.5 27.5Z" class="right-face"/>
  <path d="M108 99L155 100V173.5L108 175V99Z" class="right-face"/>
  <path d="M107.224 98.7271L107.773 175.08L79.787 173.783V173.267L79.1602 99.2897L107.224 98.7271Z" class="left-face"/>
  <path d="M71.4348 25L72.7197 173.455L46.3946 172.236L45 27.2976L71.4348 25Z" class="left-face"/>
  <path d="M72.7188 173.455L79.7858 173.268"/>
  <path d="M46.3946 172.236L45 27.2981"/>
  <path d="M45 27.2976L71.4348 25"/>
  <path d="M71.4336 25L118.709 27.3289"/>
  <path d="M118.711 27.3289L119.197 98.8678"/>
  <path d="M107.772 175.08L79.7852 173.782"/>
  <path d="M107.773 175.08L155.346 173.767"/>
  <path d="M154.922 99.2905L155.345 173.768"/>
  <path d="M71.4336 25L72.7185 173.455"/>
  <path d="M79.787 173.784V173.268L79.1602 99.2905"/>
  <path d="M79.1602 99.2897L107.224 98.7271"/>
  <path d="M107.223 98.7271L119.195 98.8677L154.922 99.2897"/>
  <path d="M107.223 98.7271L107.772 175.08"/>
  <path d="M72.7196 173.455L46.3945 172.236"/>
</g>
</svg>
