<svg width="120" height="172" viewBox="0 0 120 172" fill="none" xmlns="http://www.w3.org/2000/svg">
<path d="M28.563 4L4 15.4627V166.116H28.563V4Z" fill="#6D8752"/>
<path d="M31.5858 82.5521V166.056L62.9511 166.116L63.0403 74.31L31.5858 82.5521Z" fill="#6D8752"/>
<path d="M28.563 4.00002L80.964 9.656V76.1603L62.9512 74.4139L31.5857 82.5521V166.116H28.563V4.00002Z" fill="#E9E8E2"/>
<path d="M62.8719 74.31L62.9511 166.116H115.352V79.5244L62.8719 74.31Z" fill="#E9E8E2"/>
<path d="M63.0402 74.3099L115.184 79.6925" stroke="black" stroke-width="1.5" stroke-linecap="round"/>
<path d="M63.0402 74.3099V165.814" stroke="black" stroke-width="1.5" stroke-linecap="round"/>
<path d="M63.0403 74.3099L31.5858 82.552V165.982H115.184" stroke="black" stroke-width="1.5" stroke-linecap="round"/>
<path d="M115.184 79.6926V165.982" stroke="black" stroke-width="1.5" stroke-linecap="round"/>
<path d="M31.5857 165.982H4.16821" stroke="black" stroke-width="1.5" stroke-linecap="round"/>
<path d="M4.16821 165.982V15.6062" stroke="black" stroke-width="1.5" stroke-linecap="round"/>
<path d="M4.16821 15.6062L28.558 4.1682" stroke="black" stroke-width="1.5" stroke-linecap="round"/>
<path d="M28.5579 4.1682L80.8698 9.71899" stroke="black" stroke-width="1.5" stroke-linecap="round"/>
<path d="M80.87 9.71898V75.992" stroke="black" stroke-width="1.5" stroke-linecap="round"/>
<path d="M28.5579 4.33641V165.814" stroke="black" stroke-width="1.5" stroke-linecap="round"/>
<rect x="0.05" y="0.05" width="119.9" height="171.9" rx="9.95" stroke="black" stroke-opacity="0.01" stroke-width="0.1"/>
</svg>
