<svg width="61" height="88" viewBox="0 0 61 88" fill="none" xmlns="http://www.w3.org/2000/svg">
<path d="M14.0478 1L1 7.08898V87.1156H14.0478V1Z" fill="#6D8752"/>
<path d="M15.6536 42.7268V87.0841L32.3148 87.1157L32.3621 38.3486L15.6536 42.7268Z" fill="#6D8752"/>
<path d="M14.0479 1L41.8832 4.00445V39.3314L32.3148 38.4038L15.6535 42.7268V87.1156H14.0479V1Z" fill="#E9E8E2"/>
<path d="M32.2727 38.3486L32.3147 87.1156H60.1501V41.1185L32.2727 38.3486Z" fill="#E9E8E2"/>
<path d="M32.3621 38.3486L60.0608 41.2078" stroke="black" stroke-linecap="round"/>
<path d="M32.3621 38.3486V86.9553" stroke="black" stroke-linecap="round"/>
<path d="M32.3621 38.3486L15.6536 42.7267V87.0447H60.0608" stroke="black" stroke-linecap="round"/>
<path d="M60.0607 41.2078V87.0447" stroke="black" stroke-linecap="round"/>
<path d="M15.6535 87.0447H1.08936" stroke="black" stroke-linecap="round"/>
<path d="M1.08936 87.0447V7.16517" stroke="black" stroke-linecap="round"/>
<path d="M1.08936 7.1652L14.0452 1.08936" stroke="black" stroke-linecap="round"/>
<path d="M14.0451 1.08936L41.8332 4.03793" stroke="black" stroke-linecap="round"/>
<path d="M41.8333 4.03793V39.2421" stroke="black" stroke-linecap="round"/>
<path d="M14.0451 1.17871V86.9554" stroke="black" stroke-linecap="round"/>
</svg>
