<svg width="342" height="137" viewBox="0 0 342 137" fill="none" xmlns="http://www.w3.org/2000/svg">
<path d="M0 10L31 9V121L0 118.743V10Z" fill="#7D7D7D"/>
<path d="M56 64H62V118H56V64Z" fill="#7D7D7D"/>
<path d="M178 2L220 0V66L178 65.8878V2Z" fill="#7D7D7D"/>
<path d="M215 66H220V131H215V66Z" fill="#7D7D7D"/>
<path d="M148 66H192V135L148 133V66Z" fill="#7D7D7D"/>
<path d="M87 6L119 4V126L88 124L87 6Z" fill="#7D7D7D"/>
<path d="M228 66H268V134L228 132V66Z" fill="#7D7D7D"/>
<path d="M279 66H322L321 137L278 135L279 66Z" fill="#7D7D7D"/>
<path d="M192 66H215V132L192 135V66Z" fill="#494747"/>
<path d="M31 9L56 10V118L31 121V9Z" fill="#494747"/>
<path d="M119 4L146 7V123L119 126V4Z" fill="#494747"/>
<path d="M62 64H85V116L62 118V64Z" fill="#494747"/>
<path d="M220 0L241 3V66H220V0Z" fill="#494747"/>
<path d="M268 66H278.9L278 133L268 134V66Z" fill="#494747"/>
<path d="M322 66H342V133L321 137L322 66Z" fill="#494747"/>
<path d="M220 66H228V130L220 131V66Z" fill="#494747"/>
</svg>
