<svg width="272" height="108" viewBox="0 0 272 108" fill="none" xmlns="http://www.w3.org/2000/svg">
<path d="M1 8.73728L24.9854 7.96356V94.6205L1 92.8744V8.73728Z" fill="#848484"/>
<path d="M44.3284 50.5182H48.9708V92.2993H44.3284V50.5182Z" fill="#848484"/>
<path d="M144.139 2.54745L176.635 1V52.0657L144.139 51.9789V2.54745Z" fill="#848484"/>
<path d="M172.766 52.0657H176.635V102.358H172.766V52.0657Z" fill="#848484"/>
<path d="M120.927 52.0657H154.971V105.453L120.927 103.905V52.0657Z" fill="#848484"/>
<path d="M71.4088 5.64235L96.1679 4.09491V98.4891L72.1825 96.9416L71.4088 5.64235Z" fill="#848484"/>
<path d="M182.825 52.0657H213.774V104.679L182.825 103.131V52.0657Z" fill="#848484"/>
<path d="M222.285 52.0657H255.555L254.781 107L221.511 105.453L222.285 52.0657Z" fill="#848484"/>
<path d="M154.971 52.0657H172.766V103.131L154.971 105.453V52.0657Z" fill="#848484"/>
<path d="M24.9854 7.96356L44.3285 8.73728V92.2993L24.9854 94.6205V7.96356Z" fill="#848484"/>
<path d="M96.1678 4.09491L117.058 6.41608V96.1679L96.1678 98.4891V4.09491Z" fill="#848484"/>
<path d="M48.9708 50.5182H66.7664V90.7518L48.9708 92.2993V50.5182Z" fill="#848484"/>
<path d="M176.635 1L192.883 3.32117V52.0657H176.635V1Z" fill="#848484"/>
<path d="M213.774 52.0657H222.208L221.511 103.905L213.774 104.679V52.0657Z" fill="#848484"/>
<path d="M255.555 52.0657H271.029V103.905L254.781 107L255.555 52.0657Z" fill="#848484"/>
<path d="M176.635 52.0657H182.825V101.584L176.635 102.358V52.0657Z" fill="#848484"/>
<path d="M24.9854 7.96356V94.6205" stroke="#E5E5E5" stroke-width="0.5"/>
<path d="M221.511 105.453L254.781 107" stroke="#E5E5E5" stroke-width="0.5"/>
<path d="M44.3284 50.5182H66.7664" stroke="#E5E5E5" stroke-width="0.5"/>
<path d="M44.3284 8.73728L24.9854 7.96356" stroke="#E5E5E5" stroke-width="0.5"/>
<path d="M117.058 96.1679V6.41608" stroke="#E5E5E5" stroke-width="0.5"/>
<path d="M117.058 96.1679L96.1678 98.489" stroke="#E5E5E5" stroke-width="0.5"/>
<path d="M154.971 52.0657V105.453" stroke="#E5E5E5" stroke-width="0.5"/>
<path d="M172.766 52.0657H154.971" stroke="#E5E5E5" stroke-width="0.5"/>
<path d="M48.9708 50.5182V92.2993" stroke="#E5E5E5" stroke-width="0.5"/>
<path d="M117.058 6.41608L96.1678 4.09491" stroke="#E5E5E5" stroke-width="0.5"/>
<path d="M96.1678 98.4891V4.09491" stroke="#E5E5E5" stroke-width="0.5"/>
<path d="M271.029 52.0657H238.533" stroke="#E5E5E5" stroke-width="0.5"/>
<path d="M139.496 52.0657H172.766" stroke="#E5E5E5" stroke-width="0.5"/>
<path d="M255.555 52.0657H222.285" stroke="#E5E5E5" stroke-width="0.5"/>
<path d="M221.511 103.905L213.774 104.679" stroke="#E5E5E5" stroke-width="0.5"/>
<path d="M120.927 52.0657H154.971" stroke="#E5E5E5" stroke-width="0.5"/>
<path d="M48.9708 92.2993L66.7664 90.7518" stroke="#E5E5E5" stroke-width="0.5"/>
<path d="M192.883 52.0656V3.32111" stroke="#E5E5E5" stroke-width="0.5"/>
<path d="M1 92.8235L24.9501 94.6204L44.3285 92.2993" stroke="#E5E5E5" stroke-width="0.5"/>
<path d="M213.774 104.679V52.0657" stroke="#E5E5E5" stroke-width="0.5"/>
<path d="M71.4088 5.6424L72.1825 96.9417" stroke="#E5E5E5" stroke-width="0.5"/>
<path d="M238.533 52.0657H222.285" stroke="#E5E5E5" stroke-width="0.5"/>
<path d="M254.781 107L255.555 52.0657" stroke="#E5E5E5" stroke-width="0.5"/>
<path d="M271.029 103.905L254.781 107" stroke="#E5E5E5" stroke-width="0.5"/>
<path d="M66.7664 50.5182H48.9708" stroke="#E5E5E5" stroke-width="0.5"/>
<path d="M182.825 52.0657V103.131" stroke="#E5E5E5" stroke-width="0.5"/>
<path d="M44.3284 92.2993H48.9708" stroke="#E5E5E5" stroke-width="0.5"/>
<path d="M66.7664 90.7518V50.5182" stroke="#E5E5E5" stroke-width="0.5"/>
<path d="M44.3284 50.5182H48.9708" stroke="#E5E5E5" stroke-width="0.5"/>
<path d="M72.1825 96.9415L96.1679 98.489" stroke="#E5E5E5" stroke-width="0.5"/>
<path d="M176.635 1V102.358" stroke="#E5E5E5" stroke-width="0.5"/>
<path d="M222.285 52.0657L221.511 105.453" stroke="#E5E5E5" stroke-width="0.5"/>
<path d="M144.139 2.54745L176.635 1" stroke="#E5E5E5" stroke-width="0.5"/>
<path d="M144.139 2.54749V52.0657" stroke="#E5E5E5" stroke-width="0.5"/>
<path d="M172.766 102.358H176.635" stroke="#E5E5E5" stroke-width="0.5"/>
<path d="M1 8.73718V93.0729" stroke="#E5E5E5" stroke-width="0.5"/>
<path d="M182.825 103.131L213.774 104.679" stroke="#E5E5E5" stroke-width="0.5"/>
<path d="M230.796 52.0657H213.774" stroke="#E5E5E5" stroke-width="0.5"/>
<path d="M172.766 103.131V52.0657" stroke="#E5E5E5" stroke-width="0.5"/>
<path d="M213.774 52.0657H182.825" stroke="#E5E5E5" stroke-width="0.5"/>
<path d="M176.635 102.358L182.825 101.584" stroke="#E5E5E5" stroke-width="0.5"/>
<path d="M44.3284 92.2992V8.73718" stroke="#E5E5E5" stroke-width="0.5"/>
<path d="M192.883 3.32117L176.635 1" stroke="#E5E5E5" stroke-width="0.5"/>
<path d="M120.927 52.0657V103.905" stroke="#E5E5E5" stroke-width="0.5"/>
<path d="M139.496 52.0657H120.927" stroke="#E5E5E5" stroke-width="0.5"/>
<path d="M120.927 103.905L154.971 105.453" stroke="#E5E5E5" stroke-width="0.5"/>
<path d="M154.971 105.453L172.766 103.131" stroke="#E5E5E5" stroke-width="0.5"/>
<path d="M96.1679 4.09491L71.4088 5.64235" stroke="#E5E5E5" stroke-width="0.5"/>
<path d="M271.029 52.0657H255.555" stroke="#E5E5E5" stroke-width="0.5"/>
<path d="M1 8.73728L24.9854 7.96356" stroke="#E5E5E5" stroke-width="0.5"/>
<path d="M271.029 103.905V52.0657" stroke="#E5E5E5" stroke-width="0.5"/>
<path d="M198.299 103.905H197.526" stroke="#E5E5E5" stroke-width="0.5"/>
</svg>
