<svg width="272" height="108" viewBox="0 0 272 108" fill="none" xmlns="http://www.w3.org/2000/svg">
<path d="M1 9.70554C1 9.16581 1.42831 8.72347 1.96776 8.70607L23.9532 7.99686C24.5178 7.97865 24.9854 8.43142 24.9854 8.99634V93.5451C24.9854 94.1259 24.4921 94.5846 23.9128 94.5424L1.92739 92.9419C1.40466 92.9039 1 92.4687 1 91.9445V9.70554Z" fill="#848484"/>
<path d="M44.3285 51.5182C44.3285 50.966 44.7762 50.5182 45.3285 50.5182H47.9708C48.5231 50.5182 48.9708 50.966 48.9708 51.5182V91.2993C48.9708 91.8516 48.5231 92.2993 47.9708 92.2993H45.3285C44.7762 92.2993 44.3285 91.8516 44.3285 91.2993V51.5182Z" fill="#848484"/>
<path d="M144.139 3.50096C144.139 2.96717 144.558 2.52748 145.091 2.50209L175.587 1.04988C176.158 1.02273 176.635 1.47779 176.635 2.04875V51.063C176.635 51.6163 176.186 52.0645 175.632 52.063L145.136 51.9816C144.585 51.9801 144.139 51.5328 144.139 50.9816V3.50096Z" fill="#848484"/>
<path d="M172.766 53.0657C172.766 52.5134 173.214 52.0657 173.766 52.0657H175.635C176.187 52.0657 176.635 52.5134 176.635 53.0657V101.358C176.635 101.91 176.187 102.358 175.635 102.358H173.766C173.214 102.358 172.766 101.91 172.766 101.358V53.0657Z" fill="#848484"/>
<path d="M120.927 53.0657C120.927 52.5134 121.375 52.0657 121.927 52.0657H153.971C154.523 52.0657 154.971 52.5134 154.971 53.0657V104.406C154.971 104.976 154.495 105.431 153.925 105.405L121.882 103.948C121.348 103.924 120.927 103.484 120.927 102.95V53.0657Z" fill="#848484"/>
<path d="M71.4167 6.58978C71.4122 6.05846 71.824 5.6164 72.3543 5.58325L95.1054 4.16131C95.6811 4.12533 96.1678 4.58254 96.1678 5.15936V97.4225C96.1678 98.0001 95.6799 98.4576 95.1034 98.4204L73.1101 97.0015C72.5872 96.9677 72.179 96.536 72.1745 96.012L71.4167 6.58978Z" fill="#848484"/>
<path d="M182.825 53.0657C182.825 52.5134 183.273 52.0657 183.825 52.0657H212.774C213.326 52.0657 213.774 52.5134 213.774 53.0657V103.628C213.774 104.199 213.295 104.655 212.724 104.626L183.775 103.179C183.243 103.152 182.825 102.713 182.825 102.18V53.0657Z" fill="#848484"/>
<path d="M222.27 53.0512C222.278 52.5046 222.724 52.0657 223.27 52.0657H254.541C255.098 52.0657 255.548 52.522 255.541 53.0798L254.796 105.967C254.788 106.532 254.314 106.978 253.749 106.952L222.478 105.498C221.939 105.472 221.517 105.024 221.525 104.484L222.27 53.0512Z" fill="#848484"/>
<path d="M154.971 53.0657C154.971 52.5134 155.418 52.0657 155.971 52.0657H171.766C172.319 52.0657 172.766 52.5134 172.766 53.0657V102.253C172.766 102.756 172.394 103.18 171.896 103.245L156.1 105.305C155.501 105.383 154.971 104.917 154.971 104.314V53.0657Z" fill="#C4C4C4"/>
<path d="M24.9854 9.00436C24.9854 8.4364 25.4578 7.98246 26.0253 8.00516L43.3684 8.69888C43.9047 8.72034 44.3284 9.16135 44.3284 9.69808V91.4122C44.3284 91.9184 43.9502 92.3447 43.4476 92.405L26.1045 94.4862C25.5092 94.5576 24.9854 94.0928 24.9854 93.4933V9.00436Z" fill="#C4C4C4"/>
<path d="M96.1678 5.21218C96.1678 4.61616 96.6859 4.15247 97.2783 4.21829L116.169 6.31724C116.675 6.37351 117.058 6.80157 117.058 7.31112V95.2729C117.058 95.7824 116.675 96.2105 116.169 96.2667L97.2783 98.3657C96.6859 98.4315 96.1678 97.9678 96.1678 97.3718V5.21218Z" fill="#C4C4C4"/>
<path d="M48.9708 51.5182C48.9708 50.966 49.4185 50.5182 49.9708 50.5182H65.7664C66.3187 50.5182 66.7664 50.966 66.7664 51.5182V89.835C66.7664 90.3537 66.3698 90.7863 65.8531 90.8313L50.0575 92.2048C49.4732 92.2556 48.9708 91.795 48.9708 91.2085V51.5182Z" fill="#C4C4C4"/>
<path d="M176.635 2.15301C176.635 1.54446 177.174 1.077 177.776 1.16306L192.025 3.19851C192.517 3.26889 192.883 3.69081 192.883 4.18846V51.0657C192.883 51.618 192.435 52.0657 191.883 52.0657H177.635C177.083 52.0657 176.635 51.618 176.635 51.0657V2.15301Z" fill="#C4C4C4"/>
<path d="M213.774 53.0657C213.774 52.5134 214.221 52.0657 214.774 52.0657H221.194C221.752 52.0657 222.201 52.5216 222.194 53.0791L221.523 103.012C221.516 103.521 221.129 103.943 220.622 103.994L214.873 104.569C214.284 104.628 213.774 104.165 213.774 103.574V53.0657Z" fill="#C4C4C4"/>
<path d="M255.541 53.0516C255.549 52.5049 255.994 52.0657 256.541 52.0657H270.029C270.581 52.0657 271.029 52.5134 271.029 53.0657V103.078C271.029 103.558 270.688 103.97 270.216 104.06L255.985 106.771C255.363 106.889 254.789 106.407 254.798 105.774L255.541 53.0516Z" fill="#C4C4C4"/>
<path d="M176.635 53.0657C176.635 52.5134 177.083 52.0657 177.635 52.0657H181.825C182.377 52.0657 182.825 52.5134 182.825 53.0657V100.701C182.825 101.205 182.449 101.631 181.949 101.693L177.759 102.217C177.162 102.292 176.635 101.826 176.635 101.225V53.0657Z" fill="#C4C4C4"/>
<path d="M24.9854 7.96356V94.6205" stroke="#848484" stroke-width="0.5"/>
<path d="M221.511 105.453L254.781 107" stroke="#848484" stroke-width="0.5"/>
<path d="M44.3285 50.5182H66.7664" stroke="#848484" stroke-width="0.5"/>
<path d="M44.3284 8.73728L24.9854 7.96356" stroke="#848484" stroke-width="0.5"/>
<path d="M117.058 96.1679V6.41608" stroke="#848484" stroke-width="0.5"/>
<path d="M117.058 96.1678L96.1678 98.489" stroke="#848484" stroke-width="0.5"/>
<path d="M154.971 52.0657V105.453" stroke="#848484" stroke-width="0.5"/>
<path d="M172.766 52.0657H154.971" stroke="#848484" stroke-width="0.5"/>
<path d="M48.9707 50.5182V92.2993" stroke="#848484" stroke-width="0.5"/>
<path d="M117.058 6.41608L96.1678 4.09491" stroke="#848484" stroke-width="0.5"/>
<path d="M96.1678 98.4891V4.09491" stroke="#848484" stroke-width="0.5"/>
<path d="M271.029 52.0657H238.533" stroke="#848484" stroke-width="0.5"/>
<path d="M139.496 52.0657H172.766" stroke="#848484" stroke-width="0.5"/>
<path d="M255.555 52.0657H222.285" stroke="#848484" stroke-width="0.5"/>
<path d="M221.511 103.905L213.774 104.679" stroke="#848484" stroke-width="0.5"/>
<path d="M120.927 52.0657H154.971" stroke="#848484" stroke-width="0.5"/>
<path d="M48.9707 92.2993L66.7663 90.7518" stroke="#848484" stroke-width="0.5"/>
<path d="M192.883 52.0656V3.32111" stroke="#848484" stroke-width="0.5"/>
<path d="M1 92.8235L24.8531 94.6131C24.9176 94.618 24.9825 94.6165 25.0468 94.6088L44.3285 92.2993" stroke="#848484" stroke-width="0.5"/>
<path d="M213.774 104.679V52.0657" stroke="#848484" stroke-width="0.5"/>
<path d="M71.4087 5.6424L72.1824 96.9417" stroke="#848484" stroke-width="0.5"/>
<path d="M238.533 52.0657H222.285" stroke="#848484" stroke-width="0.5"/>
<path d="M254.781 107L255.555 52.0657" stroke="#848484" stroke-width="0.5"/>
<path d="M271.029 103.905L254.781 107" stroke="#848484" stroke-width="0.5"/>
<path d="M66.7663 50.5182H48.9707" stroke="#848484" stroke-width="0.5"/>
<path d="M182.825 52.0657V103.131" stroke="#848484" stroke-width="0.5"/>
<path d="M44.3285 92.2993H48.9708" stroke="#848484" stroke-width="0.5"/>
<path d="M66.7665 90.7518V50.5182" stroke="#848484" stroke-width="0.5"/>
<path d="M44.3285 50.5182H48.9708" stroke="#848484" stroke-width="0.5"/>
<path d="M72.1825 96.9415L96.1679 98.489" stroke="#848484" stroke-width="0.5"/>
<path d="M176.635 1V102.358" stroke="#848484" stroke-width="0.5"/>
<path d="M222.285 52.0657L221.511 105.453" stroke="#848484" stroke-width="0.5"/>
<path d="M144.139 2.54745L176.635 1" stroke="#848484" stroke-width="0.5"/>
<path d="M144.139 2.54749V52.0657" stroke="#848484" stroke-width="0.5"/>
<path d="M172.766 102.358H176.635" stroke="#848484" stroke-width="0.5"/>
<path d="M1 8.73718V93.0729" stroke="#848484" stroke-width="0.5"/>
<path d="M182.825 103.131L213.774 104.679" stroke="#848484" stroke-width="0.5"/>
<path d="M230.796 52.0657H213.774" stroke="#848484" stroke-width="0.5"/>
<path d="M172.766 103.131V52.0657" stroke="#848484" stroke-width="0.5"/>
<path d="M213.774 52.0657H182.825" stroke="#848484" stroke-width="0.5"/>
<path d="M176.635 102.358L182.825 101.584" stroke="#848484" stroke-width="0.5"/>
<path d="M44.3285 92.2992V8.73718" stroke="#848484" stroke-width="0.5"/>
<path d="M192.883 3.32117L176.635 1" stroke="#848484" stroke-width="0.5"/>
<path d="M120.927 52.0657V103.905" stroke="#848484" stroke-width="0.5"/>
<path d="M139.496 52.0657H120.927" stroke="#848484" stroke-width="0.5"/>
<path d="M120.927 103.905L154.971 105.452" stroke="#848484" stroke-width="0.5"/>
<path d="M154.971 105.453L172.766 103.131" stroke="#848484" stroke-width="0.5"/>
<path d="M96.1678 4.09491L71.4087 5.64235" stroke="#848484" stroke-width="0.5"/>
<path d="M271.029 52.0657H255.555" stroke="#848484" stroke-width="0.5"/>
<path d="M1 8.73728L24.9854 7.96356" stroke="#848484" stroke-width="0.5"/>
<path d="M271.029 103.905V52.0657" stroke="#848484" stroke-width="0.5"/>
<path d="M198.299 103.905H197.526" stroke="#848484" stroke-width="0.5"/>
</svg>
