<svg width="199" height="199" viewBox="0 0 199 199" fill="none" xmlns="http://www.w3.org/2000/svg">
<path d="M107.224 98.7271L107.773 175.08L79.7867 173.783V173.267L79.1599 99.2897L107.224 98.7271Z" fill="#05FF00"/>
<path d="M71.4348 25L72.7197 173.455L46.3946 172.236L45 27.2976L71.4348 25Z" fill="#05FF00"/>
<path d="M72.7197 173.455L79.7868 173.268" stroke="black" stroke-width="2" stroke-linecap="round" stroke-linejoin="round"/>
<path d="M46.3946 172.236L45 27.2981" stroke="black" stroke-width="2" stroke-linecap="round" stroke-linejoin="round"/>
<path d="M45 27.2976L71.4348 25" stroke="black" stroke-width="2" stroke-linecap="round" stroke-linejoin="round"/>
<path d="M71.4346 25L118.71 27.3289" stroke="black" stroke-width="2" stroke-linecap="round" stroke-linejoin="round"/>
<path d="M118.71 27.3289L119.196 98.8678" stroke="black" stroke-width="2" stroke-linecap="round" stroke-linejoin="round"/>
<path d="M107.773 175.08L79.7866 173.782" stroke="black" stroke-width="2" stroke-linecap="round" stroke-linejoin="round"/>
<path d="M107.773 175.08L155.346 173.767" stroke="black" stroke-width="2" stroke-linecap="round" stroke-linejoin="round"/>
<path d="M154.923 99.2905L155.346 173.768" stroke="black" stroke-width="2" stroke-linecap="round" stroke-linejoin="round"/>
<path d="M71.4346 25L72.7195 173.455" stroke="black" stroke-width="2" stroke-linecap="round" stroke-linejoin="round"/>
<path d="M79.7867 173.784V173.268L79.1599 99.2905" stroke="black" stroke-width="2" stroke-linecap="round" stroke-linejoin="round"/>
<path d="M79.1599 99.2897L107.224 98.7271" stroke="black" stroke-width="2" stroke-linecap="round" stroke-linejoin="round"/>
<path d="M107.224 98.7271L119.196 98.8677L154.923 99.2897" stroke="black" stroke-width="2" stroke-linecap="round" stroke-linejoin="round"/>
<path d="M107.224 98.7271L107.773 175.08" stroke="black" stroke-width="2" stroke-linecap="round" stroke-linejoin="round"/>
<path d="M72.7201 173.455L46.395 172.236" stroke="black" stroke-width="2" stroke-linecap="round" stroke-linejoin="round"/>
</svg>
