<svg width="64" height="88" viewBox="0 0 64 88" fill="none" xmlns="http://www.w3.org/2000/svg">
<rect x="0.05" y="0.05" width="63.9" height="87.9" stroke="black" stroke-opacity="0.01" stroke-width="0.1"/>
<path d="M15.9675 1L2.93939 7.07977V86.9853H15.9675V1Z" fill="#6D8752"/>
<path d="M17.5708 42.6635V86.9538L34.2068 86.9852L34.2541 38.292L17.5708 42.6635Z" fill="#6D8752"/>
<path d="M15.9675 1L43.7607 3.9999V39.2734L34.2068 38.3472L17.5707 42.6636V86.9853H15.9675V1Z" fill="#E9E8E2"/>
<path d="M34.1648 38.292L34.2068 86.9852H62V41.0577L34.1648 38.292Z" fill="#E9E8E2"/>
<path d="M34.254 38.292L61.9107 41.1469" stroke="black" stroke-width="0.5" stroke-linecap="round"/>
<path d="M34.254 38.292V86.8252" stroke="black" stroke-width="0.5" stroke-linecap="round"/>
<path d="M34.254 38.292L17.5707 42.6635V86.9144H61.9108" stroke="black" stroke-width="0.5" stroke-linecap="round"/>
<path d="M61.9107 41.147V86.9145" stroke="black" stroke-width="0.5" stroke-linecap="round"/>
<path d="M17.5707 86.9144H3.02855" stroke="black" stroke-width="0.5" stroke-linecap="round"/>
<path d="M3.02855 86.9144V7.15582" stroke="black" stroke-width="0.5" stroke-linecap="round"/>
<path d="M3.02859 7.15588L15.9648 1.08923" stroke="black" stroke-width="0.5" stroke-linecap="round"/>
<path d="M15.9648 1.08923L43.7108 4.03334" stroke="black" stroke-width="0.5" stroke-linecap="round"/>
<path d="M43.7108 4.03333V39.1842" stroke="black" stroke-width="0.5" stroke-linecap="round"/>
<path d="M15.9648 1.17847V86.8253" stroke="black" stroke-width="0.5" stroke-linecap="round"/>
</svg>
