<svg width="354" height="139" viewBox="0 0 354 139" fill="none" xmlns="http://www.w3.org/2000/svg">
<path d="M1 11L32 10V122L1 119.743V11Z" fill="#C4C4C4"/>
<path d="M57 65H63V119H57V65Z" fill="#C4C4C4"/>
<path d="M186 3L228 1V67L186 66.8878V3Z" fill="#C4C4C4"/>
<path d="M223 67H228V132H223V67Z" fill="#C4C4C4"/>
<path d="M156 67H200V136L156 134V67Z" fill="#C4C4C4"/>
<path d="M92 7L124 5V127L93 125L92 7Z" fill="#C4C4C4"/>
<path d="M236 67H276V135L236 133V67Z" fill="#C4C4C4"/>
<path d="M287 67H330L329 138L286 136L287 67Z" fill="#C4C4C4"/>
<path d="M200 67H223V133L200 136V67Z" fill="#848484"/>
<path d="M32 10L57 11V119L32 122V10Z" fill="#848484"/>
<path d="M124 5L151 8V124L124 127V5Z" fill="#848484"/>
<path d="M63 65H86V117L63 119V65Z" fill="#848484"/>
<path d="M228 1L249 4V67H228V1Z" fill="#848484"/>
<path d="M276 67H286.9L286 134L276 135V67Z" fill="#848484"/>
<path d="M330 67H350V134L329 138L330 67Z" fill="#848484"/>
<path d="M228 67H236V131L228 132V67Z" fill="#848484"/>
<path d="M32 10V122" stroke="black" stroke-width="0.24"/>
<path d="M286 114L307 115" stroke="black" stroke-width="0.24"/>
<path d="M286 136L329 138" stroke="black" stroke-width="0.24"/>
<path d="M57 65H86" stroke="black" stroke-width="0.24"/>
<path d="M57 11L32 10" stroke="black" stroke-width="0.24"/>
<path d="M330 91H308" stroke="black" stroke-width="0.24"/>
<path d="M308 92H330" stroke="black" stroke-width="0.24"/>
<path d="M151 124V8" stroke="black" stroke-width="0.24"/>
<path d="M151 124L124 127" stroke="black" stroke-width="0.24"/>
<path d="M330 92L350 90" stroke="black" stroke-width="0.24"/>
<path d="M200 67V136" stroke="black" stroke-width="0.24"/>
<path d="M223 67H200" stroke="black" stroke-width="0.24"/>
<path d="M63 65V119" stroke="black" stroke-width="0.24"/>
<path d="M151 8L124 5" stroke="black" stroke-width="0.24"/>
<path d="M124 127V5" stroke="black" stroke-width="0.24"/>
<path d="M286.5 100L276 101" stroke="black" stroke-width="0.24"/>
<path d="M350 89L330 91" stroke="black" stroke-width="0.24"/>
<path d="M276 101L256 100" stroke="black" stroke-width="0.24"/>
<path d="M350 67H308" stroke="black" stroke-width="0.24"/>
<path d="M180 67H223" stroke="black" stroke-width="0.24"/>
<path d="M330 67H287" stroke="black" stroke-width="0.24"/>
<path d="M308 92V91" stroke="black" stroke-width="0.24"/>
<path d="M286 134L276 135" stroke="black" stroke-width="0.24"/>
<path d="M156 67H200" stroke="black" stroke-width="0.24"/>
<path d="M63 119L86 117" stroke="black" stroke-width="0.24"/>
<path d="M249 67V4" stroke="black" stroke-width="0.24"/>
<path d="M1 119.678L31.9544 122L57 119" stroke="black" stroke-width="0.24"/>
<path d="M255 134V112" stroke="black" stroke-width="0.24"/>
<path d="M276 135V67" stroke="black" stroke-width="0.24"/>
<path d="M92 7L93 125" stroke="black" stroke-width="0.24"/>
<path d="M308 67H287" stroke="black" stroke-width="0.24"/>
<path d="M329 138L330 67" stroke="black" stroke-width="0.24"/>
<path d="M350 134L329 138" stroke="black" stroke-width="0.24"/>
<path d="M86 65H63" stroke="black" stroke-width="0.24"/>
<path d="M236 67V133" stroke="black" stroke-width="0.24"/>
<path d="M57 119H63" stroke="black" stroke-width="0.24"/>
<path d="M86 117V65" stroke="black" stroke-width="0.24"/>
<path d="M256 99V100" stroke="black" stroke-width="0.24"/>
<path d="M57 65H63" stroke="black" stroke-width="0.24"/>
<path d="M276 100L286.5 99" stroke="black" stroke-width="0.24"/>
<path d="M307 114L286 113" stroke="black" stroke-width="0.24"/>
<path d="M93 125L124 127" stroke="black" stroke-width="0.24"/>
<path d="M228 1V132" stroke="black" stroke-width="0.24"/>
<path d="M287 67L286 136" stroke="black" stroke-width="0.24"/>
<path d="M256 99L276 100" stroke="black" stroke-width="0.24"/>
<path d="M307 115V114" stroke="black" stroke-width="0.24"/>
<path d="M186 3L228 1" stroke="black" stroke-width="0.24"/>
<path d="M186 3V67" stroke="black" stroke-width="0.24"/>
<path d="M223 132H228" stroke="black" stroke-width="0.24"/>
<path d="M1 11V120" stroke="black" stroke-width="0.24"/>
<path d="M236 133L276 135" stroke="black" stroke-width="0.24"/>
<path d="M255 112H256" stroke="black" stroke-width="0.24"/>
<path d="M298 67H276" stroke="black" stroke-width="0.24"/>
<path d="M223 133V67" stroke="black" stroke-width="0.24"/>
<path d="M276 67H236" stroke="black" stroke-width="0.24"/>
<path d="M228 132L236 131" stroke="black" stroke-width="0.24"/>
<path d="M57 119V11" stroke="black" stroke-width="0.24"/>
<path d="M256 112V134" stroke="black" stroke-width="0.24"/>
<path d="M249 4L228 1" stroke="black" stroke-width="0.24"/>
<path d="M156 67V134" stroke="black" stroke-width="0.24"/>
<path d="M180 67H156" stroke="black" stroke-width="0.24"/>
<path d="M156 134L200 136" stroke="black" stroke-width="0.24"/>
<path d="M200 136L223 133" stroke="black" stroke-width="0.24"/>
<path d="M124 5L92 7" stroke="black" stroke-width="0.24"/>
<path d="M350 67H330" stroke="black" stroke-width="0.24"/>
<path d="M1 11L32 10" stroke="black" stroke-width="0.24"/>
<path d="M350 134V67" stroke="black" stroke-width="0.24"/>
<path d="M256 134H255" stroke="black" stroke-width="0.24"/>
<path d="M57 11L31.5 10.5L32 122L57 118.5V11Z" stroke="#737373"/>
<path d="M86.5 65.5H63V119L86.5 117V65.5Z" stroke="#737373"/>
<path d="M151 8L123.5 5L124 127L151 124V8Z" stroke="#737373"/>
<path d="M223.5 67.5V133L199.5 135.5V67.5H223.5Z" stroke="#737373"/>
<path d="M228 132.5V1L248.5 4.5V67H236V131.5L228 132.5Z" stroke="#737373"/>
<path d="M248.5 67H276V99.5L255.5 98.75V101.5L276 102.5V135L257 134V112H254V134L236.5 132.5" stroke="#737373"/>
<path d="M329.5 67H287L286 112L307 113V115.5L286 114.5L285.5 136L329.5 138V93.5H308V91H329.5V67Z" stroke="#737373"/>
<path d="M287.195 32.4258V25.3652C287.195 24.8574 287.112 24.4229 286.946 24.0615C286.78 23.6904 286.521 23.4023 286.17 23.1973C285.828 22.9922 285.384 22.8896 284.837 22.8896C284.368 22.8896 283.963 22.9727 283.621 23.1387C283.279 23.2949 283.016 23.5244 282.83 23.8271C282.645 24.1201 282.552 24.4668 282.552 24.8672H278.333C278.333 24.1934 278.489 23.5537 278.802 22.9482C279.114 22.3428 279.568 21.8105 280.164 21.3516C280.76 20.8828 281.468 20.5166 282.288 20.2529C283.118 19.9893 284.046 19.8574 285.071 19.8574C286.302 19.8574 287.396 20.0625 288.353 20.4727C289.31 20.8828 290.062 21.498 290.608 22.3184C291.165 23.1387 291.443 24.1641 291.443 25.3945V32.1768C291.443 33.0459 291.497 33.7588 291.604 34.3154C291.712 34.8623 291.868 35.3408 292.073 35.751V36H287.811C287.605 35.5703 287.449 35.0332 287.342 34.3887C287.244 33.7344 287.195 33.0801 287.195 32.4258ZM287.752 26.3467L287.781 28.7344H285.423C284.866 28.7344 284.383 28.7979 283.973 28.9248C283.562 29.0518 283.226 29.2324 282.962 29.4668C282.698 29.6914 282.503 29.9551 282.376 30.2578C282.259 30.5605 282.2 30.8926 282.2 31.2539C282.2 31.6152 282.283 31.9424 282.449 32.2354C282.615 32.5186 282.854 32.7432 283.167 32.9092C283.479 33.0654 283.846 33.1436 284.266 33.1436C284.9 33.1436 285.452 33.0166 285.921 32.7627C286.39 32.5088 286.751 32.1963 287.005 31.8252C287.269 31.4541 287.405 31.1025 287.415 30.7705L288.528 32.5576C288.372 32.958 288.157 33.373 287.884 33.8027C287.62 34.2324 287.283 34.6377 286.873 35.0186C286.463 35.3896 285.97 35.6973 285.394 35.9414C284.817 36.1758 284.134 36.293 283.343 36.293C282.337 36.293 281.424 36.0928 280.604 35.6924C279.793 35.2822 279.148 34.7207 278.67 34.0078C278.201 33.2852 277.967 32.4648 277.967 31.5469C277.967 30.7168 278.123 29.9795 278.436 29.335C278.748 28.6904 279.207 28.1484 279.812 27.709C280.428 27.2598 281.194 26.9229 282.112 26.6982C283.03 26.4639 284.095 26.3467 285.306 26.3467H287.752ZM299.148 13.5V36H294.915V13.5H299.148ZM306.854 23.1973V42.0938H302.635V20.1504H306.546L306.854 23.1973ZM316.888 27.8994V28.207C316.888 29.3594 316.751 30.4287 316.478 31.415C316.214 32.4014 315.823 33.2607 315.306 33.9932C314.788 34.7158 314.144 35.2822 313.372 35.6924C312.61 36.0928 311.731 36.293 310.735 36.293C309.769 36.293 308.929 36.0977 308.216 35.707C307.503 35.3164 306.902 34.7695 306.414 34.0664C305.936 33.3535 305.55 32.5283 305.257 31.5908C304.964 30.6533 304.739 29.6475 304.583 28.5732V27.7676C304.739 26.6152 304.964 25.5605 305.257 24.6035C305.55 23.6367 305.936 22.8018 306.414 22.0986C306.902 21.3857 307.498 20.834 308.201 20.4434C308.914 20.0527 309.749 19.8574 310.706 19.8574C311.712 19.8574 312.596 20.0479 313.357 20.4287C314.129 20.8096 314.773 21.3564 315.291 22.0693C315.818 22.7822 316.214 23.6318 316.478 24.6182C316.751 25.6045 316.888 26.6982 316.888 27.8994ZM312.654 28.207V27.8994C312.654 27.2256 312.596 26.6055 312.479 26.0391C312.371 25.4629 312.195 24.96 311.951 24.5303C311.717 24.1006 311.404 23.7686 311.014 23.5342C310.633 23.29 310.169 23.168 309.622 23.168C309.046 23.168 308.553 23.2607 308.143 23.4463C307.742 23.6318 307.415 23.9004 307.161 24.252C306.907 24.6035 306.717 25.0234 306.59 25.5117C306.463 26 306.385 26.5518 306.355 27.167V29.2031C306.404 29.9258 306.541 30.5752 306.766 31.1514C306.99 31.7178 307.337 32.167 307.806 32.499C308.274 32.8311 308.89 32.9971 309.651 32.9971C310.208 32.9971 310.677 32.875 311.058 32.6309C311.438 32.377 311.746 32.0303 311.98 31.5908C312.225 31.1514 312.396 30.6436 312.493 30.0674C312.601 29.4912 312.654 28.8711 312.654 28.207ZM323.626 13.5V36H319.407V13.5H323.626ZM323.025 27.5186H321.868C321.878 26.415 322.024 25.3994 322.308 24.4717C322.591 23.5342 322.996 22.7236 323.523 22.04C324.051 21.3467 324.681 20.8096 325.413 20.4287C326.155 20.0479 326.976 19.8574 327.874 19.8574C328.655 19.8574 329.363 19.9697 329.998 20.1943C330.643 20.4092 331.194 20.7607 331.653 21.249C332.122 21.7275 332.483 22.3574 332.737 23.1387C332.991 23.9199 333.118 24.8672 333.118 25.9805V36H328.87V25.9512C328.87 25.248 328.768 24.6963 328.562 24.2959C328.367 23.8857 328.079 23.5977 327.698 23.4316C327.327 23.2559 326.868 23.168 326.321 23.168C325.716 23.168 325.198 23.2803 324.769 23.5049C324.349 23.7295 324.012 24.042 323.758 24.4424C323.504 24.833 323.318 25.292 323.201 25.8193C323.084 26.3467 323.025 26.9131 323.025 27.5186ZM344.881 32.4258V25.3652C344.881 24.8574 344.798 24.4229 344.632 24.0615C344.466 23.6904 344.207 23.4023 343.855 23.1973C343.514 22.9922 343.069 22.8896 342.522 22.8896C342.054 22.8896 341.648 22.9727 341.307 23.1387C340.965 23.2949 340.701 23.5244 340.516 23.8271C340.33 24.1201 340.237 24.4668 340.237 24.8672H336.019C336.019 24.1934 336.175 23.5537 336.487 22.9482C336.8 22.3428 337.254 21.8105 337.85 21.3516C338.445 20.8828 339.153 20.5166 339.974 20.2529C340.804 19.9893 341.731 19.8574 342.757 19.8574C343.987 19.8574 345.081 20.0625 346.038 20.4727C346.995 20.8828 347.747 21.498 348.294 22.3184C348.851 23.1387 349.129 24.1641 349.129 25.3945V32.1768C349.129 33.0459 349.183 33.7588 349.29 34.3154C349.397 34.8623 349.554 35.3408 349.759 35.751V36H345.496C345.291 35.5703 345.135 35.0332 345.027 34.3887C344.93 33.7344 344.881 33.0801 344.881 32.4258ZM345.438 26.3467L345.467 28.7344H343.108C342.552 28.7344 342.068 28.7979 341.658 28.9248C341.248 29.0518 340.911 29.2324 340.647 29.4668C340.384 29.6914 340.188 29.9551 340.062 30.2578C339.944 30.5605 339.886 30.8926 339.886 31.2539C339.886 31.6152 339.969 31.9424 340.135 32.2354C340.301 32.5186 340.54 32.7432 340.853 32.9092C341.165 33.0654 341.531 33.1436 341.951 33.1436C342.586 33.1436 343.138 33.0166 343.606 32.7627C344.075 32.5088 344.437 32.1963 344.69 31.8252C344.954 31.4541 345.091 31.1025 345.101 30.7705L346.214 32.5576C346.058 32.958 345.843 33.373 345.569 33.8027C345.306 34.2324 344.969 34.6377 344.559 35.0186C344.148 35.3896 343.655 35.6973 343.079 35.9414C342.503 36.1758 341.819 36.293 341.028 36.293C340.022 36.293 339.109 36.0928 338.289 35.6924C337.479 35.2822 336.834 34.7207 336.355 34.0078C335.887 33.2852 335.652 32.4648 335.652 31.5469C335.652 30.7168 335.809 29.9795 336.121 29.335C336.434 28.6904 336.893 28.1484 337.498 27.709C338.113 27.2598 338.88 26.9229 339.798 26.6982C340.716 26.4639 341.78 26.3467 342.991 26.3467H345.438Z" fill="#05FF00"/>
</svg>
