<svg width="342" height="137" viewBox="0 0 342 137" fill="none" xmlns="http://www.w3.org/2000/svg">
<path d="M0.05 118.697V10.0484L30.95 9.05164V120.946L0.05 118.697Z" fill="#E5E5E5" stroke="black" stroke-width="0.1"/>
<path d="M56.05 64.05H61.95V117.95H56.05V64.05Z" fill="#E5E5E5" stroke="black" stroke-width="0.1"/>
<path d="M178.05 65.838V2.04768L219.95 0.0524375V65.9499L178.05 65.838Z" fill="#E5E5E5" stroke="black" stroke-width="0.1"/>
<path d="M215.05 66.05H219.95V130.95H215.05V66.05Z" fill="#E5E5E5" stroke="black" stroke-width="0.1"/>
<path d="M148.05 66.05H191.95V134.948L148.05 132.952V66.05Z" fill="#E5E5E5" stroke="black" stroke-width="0.1"/>
<path d="M88.0496 123.953L87.0504 6.04695L118.95 4.05322V125.947L88.0496 123.953Z" fill="#E5E5E5" stroke="black" stroke-width="0.1"/>
<path d="M228.05 66.05H267.95V133.947L228.05 131.952V66.05Z" fill="#E5E5E5" stroke="black" stroke-width="0.1"/>
<path d="M278.051 134.952L279.049 66.05H321.949L320.951 136.948L278.051 134.952Z" fill="#E5E5E5" stroke="black" stroke-width="0.1"/>
<path d="M192 66H215V132L192 135V66Z" fill="#494747"/>
<path d="M31 9L56 10V118L31 121V9Z" fill="#494747"/>
<path d="M119 4L146 7V123L119 126V4Z" fill="#494747"/>
<path d="M62 64H85V116L62 118V64Z" fill="#494747"/>
<path d="M220 0L241 3V66H220V0Z" fill="#494747"/>
<path d="M268 66H278.9L278 133L268 134V66Z" fill="#494747"/>
<path d="M322 66H342V133L321 137L322 66Z" fill="#494747"/>
<path d="M220 66H228V130L220 131V66Z" fill="#494747"/>
</svg>
