<svg width="202" height="101" viewBox="0 0 202 101" fill="none" xmlns="http://www.w3.org/2000/svg">
<path d="M16 1L1 8V100H16V1Z" fill="#459A47" stroke="black" stroke-width="0.2"/>
<path d="M83 12L65 18V46.5L69 47V100H83V12Z" fill="#459A47" stroke="black" stroke-width="0.2"/>
<path d="M18 49V100H37V44L18 49Z" fill="#459A47" stroke="black" stroke-width="0.2"/>
<path d="M114 63L107 64V100H114V63Z" fill="#459A47" stroke="black" stroke-width="0.2"/>
<path d="M136 21L116 26V100H136V21Z" fill="#459A47" stroke="black" stroke-width="0.2"/>
<path d="M162 63L155 64V100H162V63Z" fill="#459A47" stroke="black" stroke-width="0.2"/>
<path d="M184 65L178 65.5V100H184V65Z" fill="#459A47" stroke="black" stroke-width="0.2"/>
<path d="M16 1L48 6V45L37 44L18 49V100H16V1Z" fill="#CEE6CA" stroke="black" stroke-width="0.2"/>
<path d="M37 44V100H69V47L37 44Z" fill="#CEE6CA" stroke="black" stroke-width="0.2"/>
<path d="M107 16L83 12V100H107V16Z" fill="#CEE6CA" stroke="black" stroke-width="0.2"/>
<path d="M155 25L136 21V100H155V25Z" fill="#CEE6CA" stroke="black" stroke-width="0.2"/>
<path d="M178 64.5L162 63V100H178V64.5Z" fill="#CEE6CA" stroke="black" stroke-width="0.2"/>
<path d="M201 67L184 65V100H201V67Z" fill="#CEE6CA" stroke="black" stroke-width="0.2"/>
<path d="M116 63H114V100H116V63Z" fill="#CEE6CA" stroke="black" stroke-width="0.2"/>
</svg>
