<svg width="132" height="132" viewBox="0 0 132 132" fill="none" xmlns="http://www.w3.org/2000/svg">
<path d="M60.9426 111.463C61.3 111.467 61.5845 111.337 61.7961 111.076C62.0096 110.814 62.1188 110.44 62.1236 109.954C62.1284 109.47 62.0266 109.095 61.8183 108.829C61.6119 108.561 61.3301 108.426 60.9727 108.422C60.6152 108.419 60.3288 108.548 60.1133 108.809C59.8978 109.071 59.7877 109.445 59.7829 109.931C59.7781 110.417 59.8808 110.793 60.0911 111.059C60.3013 111.325 60.5852 111.459 60.9426 111.463ZM63.0259 109.963C63.0182 110.738 62.7946 111.33 62.355 111.738C62.0255 112.07 61.5522 112.234 60.935 112.228C60.3179 112.221 59.8479 112.049 59.525 111.71C59.0916 111.293 58.8788 110.697 58.8864 109.922C58.8942 109.131 59.1189 108.54 59.5603 108.147C59.8897 107.815 60.3631 107.651 60.9802 107.658C61.5974 107.664 62.0674 107.836 62.3902 108.175C62.8218 108.576 63.0337 109.172 63.0259 109.963ZM66.1565 109.215C66.1587 108.99 66.1007 108.829 65.9825 108.732C65.8663 108.636 65.7017 108.586 65.4889 108.584L64.6481 108.576L64.6355 109.847L65.4763 109.855C65.6892 109.858 65.8547 109.807 65.9729 109.705C66.0931 109.603 66.1543 109.439 66.1565 109.215ZM67.05 109.218C67.045 109.727 66.9125 110.086 66.6527 110.295C66.3928 110.503 66.0236 110.605 65.5451 110.6L64.6281 110.591L64.6128 112.144L63.7163 112.135L63.759 107.817L65.6398 107.835C66.0734 107.84 66.418 107.954 66.6736 108.18C66.9292 108.405 67.0547 108.751 67.05 109.218ZM70.9259 108.652L68.6409 108.63L68.6318 109.547L70.7294 109.568L70.722 110.317L68.6244 110.297L68.6134 111.407L71.0039 111.431L70.9963 112.207L67.724 112.175L67.7667 107.856L70.9335 107.888L70.9259 108.652ZM71.7274 107.896L72.6737 107.905L74.3635 110.937L74.3933 107.922L75.2341 107.93L75.1914 112.248L74.2891 112.24L72.5558 109.155L72.5255 112.222L71.6847 112.214L71.7274 107.896Z" fill="#05FF00"/>
<path d="M35 65.5028V88.0027C35 90.3899 35.9488 92.6788 37.6359 94.3669C39.3239 96.0549 41.613 97.0028 44.0001 97.0028H88.9999C91.3871 97.0028 93.676 96.0549 95.3641 94.3669C97.0513 92.679 98 90.3899 98 88.0027V65.5028C98 63.1164 97.0513 60.8275 95.3641 59.1394C93.6762 57.4514 91.3871 56.5035 88.9999 56.5035H79.9997V65.5036H88.9999V88.0035H44.0001V65.5036H53.0003V56.5043H44.0001C41.613 56.5043 39.324 57.4522 37.6359 59.1402C35.9487 60.8281 35 63.1172 35 65.5036V65.5028Z" fill="#7D7D7D"/>
<path d="M70.9998 79.0027V40.3713L79.9999 49.3714L86.3672 43.0034L69.6837 26.3199C68.8393 25.4748 67.6944 25 66.5 25C65.3055 25 64.1606 25.4748 63.3163 26.3199L46.6328 43.0034L53.0001 49.3714L62.0002 40.3713V79.0027H70.9998Z" fill="#7D7D7D"/>
<path d="M130 65.5C130 100.57 101.57 129 66.5 129C31.4299 129 3 100.57 3 65.5C3 30.4299 31.4299 2 66.5 2C101.57 2 130 30.4299 130 65.5Z" stroke="#494747"/>
</svg>
