<svg width="127" height="127" viewBox="0 0 127 127" fill="none" xmlns="http://www.w3.org/2000/svg">
<path d="M74.4082 62.056C81.1132 59.4933 86.2127 53.9533 88.1959 47.0755C90.1791 40.1976 88.8003 32.7921 84.494 27.0826C80.1877 21.373 73.426 18 66.2489 18C59.0717 18 52.3289 21.3541 48.0037 27.0826C43.6974 32.7921 42.3187 40.1976 44.3018 47.0755C46.285 53.9533 51.3846 59.4933 58.0895 62.056C50.5535 63.8273 43.7541 67.9352 38.6923 73.7955C33.6305 79.6558 30.5708 86.9671 29.9286 94.6741C29.853 95.3148 30.0419 95.9554 30.4385 96.4642C30.8541 96.973 31.4396 97.2933 32.0817 97.3498C32.7239 97.4064 33.3661 97.1991 33.8571 96.7845C34.3482 96.37 34.6504 95.767 34.6882 95.1263C35.2926 87.1932 38.8623 79.7689 44.7173 74.3608C50.5724 68.9527 58.2406 65.9378 66.23 65.9378C74.2193 65.9378 81.8875 68.9527 87.7426 74.3608C93.5977 79.7689 97.1674 87.1932 97.7718 95.1263C97.8662 96.37 98.905 97.3122 100.152 97.331H100.359C101.001 97.2933 101.587 96.9918 102.003 96.5019C102.418 96.012 102.626 95.3901 102.569 94.7494C101.946 87.0236 98.8861 79.7124 93.8243 73.8332C88.7625 67.9352 81.9631 63.8273 74.4082 62.056Z" fill="#494747"/>
<path d="M72.4959 62.056C79.2009 59.4933 84.3005 53.9533 86.2837 47.0755C88.2668 40.1976 86.8881 32.7921 82.5818 27.0826C78.2755 21.373 71.5138 18 64.3366 18C57.1595 18 50.4167 21.3541 46.0915 27.0826C41.7852 32.7921 40.4064 40.1976 42.3896 47.0755C44.3728 53.9533 49.4723 59.4933 56.1773 62.056C48.6413 63.8273 41.8419 67.9352 36.7801 73.7955C31.7183 79.6558 28.6585 86.9671 28.0164 94.6741C27.9408 95.3148 28.1297 95.9554 28.5263 96.4642C28.9418 96.973 29.5273 97.2933 30.1695 97.3498C30.8117 97.4064 31.4538 97.1991 31.9449 96.7845C32.436 96.37 32.7382 95.767 32.776 95.1263C33.3803 87.1932 36.95 79.7689 42.8051 74.3608C48.6602 68.9527 56.3284 65.9378 64.3177 65.9378C72.3071 65.9378 79.9753 68.9527 85.8304 74.3608C91.6854 79.7689 95.2551 87.1932 95.8595 95.1263C95.954 96.37 96.9928 97.3122 98.2393 97.331H98.4471C99.0893 97.2933 99.6748 96.9918 100.09 96.5019C100.506 96.012 100.714 95.3901 100.657 94.7494C100.034 87.0236 96.9739 79.7124 91.9121 73.8332C86.8503 67.9352 80.0509 63.8273 72.4959 62.056Z" fill="#848484"/>
<circle cx="65.2892" cy="41.0315" r="17.5478" fill="#7D7D7D"/>
<path d="M41.9742 76.6959L35.6771 92.5783H93.8043L92.3512 84.6371L84.6009 73.8931L75.3974 68.7547L64.2563 67.3533L51.6621 70.6232L41.9742 76.6959Z" fill="#7D7D7D" stroke="#7D7D7D" stroke-width="4" stroke-linecap="round"/>
<path d="M30.1935 95.8685H98.7397" stroke="#7D7D7D" stroke-width="4" stroke-linecap="round"/>
<circle cx="63.5009" cy="63.5" r="62.5" stroke="#494747" stroke-width="2"/>
</svg>
