<svg width="127" height="127" viewBox="0 0 127 127" fill="none" xmlns="http://www.w3.org/2000/svg">
<circle cx="63.5" cy="63.5" r="62.5" stroke="#494747" stroke-width="2"/>
<path d="M49.5555 47.2111V20H76.7667V47.2111H49.5555Z" fill="#848484" stroke="black" stroke-width="0.1"/>
<path d="M95.2 57.7444H32V97.2444H43.6954V78.2755H46.8441V97.2444H80.131V78.2755H83.2797V97.2444H95.2V57.7444Z" fill="#848484" stroke="black" stroke-width="0.1"/>
<path d="M51.6751 48.9667L49.5555 46.8472H76.4027V20L78.5222 22.1195V48.9667H51.6751Z" fill="#494747" stroke="black" stroke-width="0.1"/>
<path d="M96.9556 59.8422L94.8489 57.7444V96.9023H82.9111L85.0178 99H96.9556V59.8422Z" fill="#494747" stroke="black" stroke-width="0.1"/>
<path d="M49.0392 99L46.9222 96.8933H79.7356V77.9333H82.9111V80.04H82.2055V99H49.0392Z" fill="#494747" stroke="black" stroke-width="0.1"/>
<path d="M34.1317 99L32 96.8933H43.7246V77.9333H46.9222V80.04H45.5011V99H34.1317Z" fill="#494747" stroke="black" stroke-width="0.1"/>
<path d="M36.163 63.6777C36.1884 63.8753 36.2407 64.0233 36.3198 64.1217C36.4645 64.3009 36.7146 64.3922 37.07 64.3957C37.2829 64.3978 37.456 64.3761 37.5892 64.3306C37.8421 64.2432 37.9697 64.0775 37.9721 63.8333C37.9735 63.6908 37.9121 63.5798 37.7879 63.5004C37.6637 63.423 37.468 63.3537 37.2011 63.2925L36.7451 63.1854C36.2969 63.0794 35.9874 62.966 35.8167 62.8452C35.5277 62.6431 35.3853 62.3301 35.3895 61.9063C35.3933 61.5196 35.5371 61.1998 35.8209 60.9467C36.1046 60.6936 36.519 60.5698 37.0639 60.5752C37.5189 60.5797 37.9054 60.7046 38.2233 60.9499C38.5432 61.1934 38.7087 61.5446 38.7197 62.0037L37.8526 61.9952C37.8395 61.7352 37.7281 61.5496 37.5182 61.4381C37.3783 61.3645 37.2039 61.3266 36.9949 61.3245C36.7625 61.3222 36.5765 61.3673 36.4369 61.4596C36.2973 61.552 36.2267 61.6822 36.225 61.8501C36.2235 62.0044 36.2907 62.1203 36.4267 62.1979C36.5141 62.2495 36.701 62.3109 36.9874 62.3821L37.7297 62.5682C38.0551 62.6495 38.3002 62.7565 38.4649 62.889C38.7207 63.0946 38.8467 63.3898 38.8429 63.7746C38.8389 64.1691 38.6843 64.4957 38.379 64.7544C38.0757 65.0112 37.6487 65.1368 37.0979 65.1314C36.5354 65.1258 36.0943 64.9935 35.7746 64.7345C35.4549 64.4735 35.2973 64.1184 35.3017 63.6692L36.163 63.6777ZM42.7267 61.5219L40.4416 61.4993L40.4325 62.4162L42.5301 62.437L42.5227 63.1869L40.4251 63.1662L40.4141 64.2765L42.8046 64.3001L42.797 65.0764L39.5247 65.0441L39.5674 60.7259L42.7342 60.7572L42.7267 61.5219ZM46.6803 60.7963L46.6727 61.5609L45.3808 61.5481L45.3457 65.1016L44.4375 65.0927L44.4727 61.5391L43.1749 61.5263L43.1824 60.7617L46.6803 60.7963ZM50.3481 60.8326L50.3405 61.5972L49.0486 61.5844L49.0135 65.1379L48.1053 65.1289L48.1404 61.5754L46.8427 61.5626L46.8502 60.798L50.3481 60.8326ZM51.6618 65.1641L50.7653 65.1553L50.808 60.8371L51.7045 60.846L51.6618 65.1641ZM52.5335 60.8542L53.4798 60.8635L55.1696 63.895L55.1994 60.8805L56.0402 60.8889L55.9975 65.207L55.0952 65.1981L53.3619 62.1134L53.3316 65.1806L52.4908 65.1723L52.5335 60.8542ZM59.7738 62.2735C59.7083 61.9779 59.5434 61.7702 59.2789 61.6504C59.1311 61.5845 58.9664 61.5507 58.7848 61.5489C58.4371 61.5454 58.1497 61.6744 57.9225 61.9359C57.6973 62.1954 57.5821 62.5888 57.5768 63.1161C57.5716 63.6473 57.689 64.0245 57.9289 64.2476C58.1689 64.4706 58.4432 64.5837 58.7518 64.5868C59.0545 64.5898 59.3034 64.5053 59.4985 64.3334C59.6936 64.1595 59.815 63.9312 59.8627 63.6485L58.8637 63.6386L58.8709 62.9179L60.6696 62.9357L60.6467 65.253L60.049 65.2471L59.9636 64.7072C59.7877 64.9105 59.63 65.0535 59.4905 65.1361C59.2508 65.2802 58.9572 65.3506 58.6095 65.3471C58.0373 65.3415 57.5705 65.1386 57.2092 64.7385C56.8323 64.3363 56.6473 63.7895 56.6541 63.0982C56.661 62.399 56.859 61.8404 57.2479 61.4223C57.6368 61.0043 58.1476 60.7984 58.7804 60.8046C59.3292 60.8101 59.7683 60.9541 60.0975 61.2366C60.4287 61.5173 60.6167 61.8658 60.6614 62.2823L59.7738 62.2735ZM62.1774 63.9351C62.2028 64.1326 62.255 64.2806 62.3341 64.379C62.4788 64.5582 62.7289 64.6495 63.0844 64.6531C63.2973 64.6552 63.4703 64.6334 63.6036 64.5879C63.8564 64.5005 63.984 64.3348 63.9865 64.0907C63.9879 63.9481 63.9265 63.8371 63.8022 63.7578C63.678 63.6804 63.4824 63.611 63.2154 63.5498L62.7594 63.4428C62.3112 63.3368 62.0018 63.2233 61.8311 63.1025C61.5421 62.9004 61.3996 62.5875 61.4038 62.1637C61.4077 61.777 61.5515 61.4571 61.8352 61.204C62.119 60.9509 62.5333 60.8271 63.0782 60.8325C63.5333 60.837 63.9197 60.9619 64.2376 61.2073C64.5575 61.4507 64.723 61.8019 64.7341 62.2611L63.8669 62.2525C63.8539 61.9926 63.7424 61.8069 63.5326 61.6954C63.3927 61.6218 63.2182 61.5839 63.0093 61.5819C62.7769 61.5796 62.5909 61.6246 62.4513 61.717C62.3117 61.8093 62.2411 61.9395 62.2394 62.1075C62.2379 62.2618 62.3051 62.3777 62.441 62.4552C62.5284 62.5068 62.7153 62.5683 63.0017 62.6394L63.7441 62.8255C64.0695 62.9069 64.3145 63.0138 64.4792 63.1463C64.735 63.3519 64.861 63.6471 64.8572 64.0319C64.8533 64.4264 64.6987 64.753 64.3934 65.0117C64.0901 65.2685 63.663 65.3942 63.1123 65.3887C62.5498 65.3832 62.1087 65.2509 61.789 64.9918C61.4693 64.7308 61.3116 64.3757 61.3161 63.9265L62.1774 63.9351Z" fill="#05FF00"/>
</svg>
