<svg width="46" height="69" viewBox="0 0 46 69" fill="none" xmlns="http://www.w3.org/2000/svg">
<path d="M4 33.5L1 35H45L44.5 34L4 33.5Z" fill="#7D7D7D"/>
<path d="M45 35H1L1.5 66.5L44.5 68L45 35Z" fill="#C4C4C4"/>
<path d="M11.5 24V1.50001L34 1.18088V24H11.5Z" fill="#C4C4C4"/>
<path d="M1.04126 34.7032L3.97775 33.7198" stroke="black" stroke-width="0.24" stroke-linecap="round"/>
<path d="M45.1059 35.1009L44.6516 34.0582" stroke="black" stroke-width="0.24" stroke-linecap="round"/>
<path d="M44.7078 68.1092L1.4397 66.7429" stroke="black" stroke-width="0.24" stroke-linecap="round"/>
<path d="M45.1059 35.101L44.7078 68.1093" stroke="black" stroke-width="0.24" stroke-linecap="round"/>
<path d="M3.97778 33.7198L44.6516 34.0583" stroke="black" stroke-width="0.24" stroke-linecap="round"/>
<path d="M34.0323 1L33.9003 23.8071" stroke="black" stroke-width="0.24" stroke-linecap="round"/>
<path d="M1.04126 34.7031L45.1059 35.1009" stroke="black" stroke-width="0.24" stroke-linecap="round"/>
<path d="M33.9002 23.8071L11.7358 23.7777" stroke="black" stroke-width="0.24" stroke-linecap="round"/>
<path d="M34.4556 2.66302L34.329 23.6552" stroke="black" stroke-width="0.24" stroke-linecap="round"/>
<path d="M34.0323 1L34.4556 2.66302" stroke="black" stroke-width="0.24" stroke-linecap="round"/>
<path d="M11.5911 1.32233L34.0324 1" stroke="black" stroke-width="0.24" stroke-linecap="round"/>
<path d="M1.43967 66.7429L1.04126 34.7031" stroke="black" stroke-width="0.24" stroke-linecap="round"/>
<path d="M11.736 23.7777L11.5911 1.32233" stroke="black" stroke-width="0.24" stroke-linecap="round"/>
<path d="M6.5 32L1 35H45L43 32H6.5Z" fill="black"/>
<path d="M44.5 68L45 35H23H1L1.5 66.5L44.5 68Z" fill="#C4C4C4"/>
<path d="M11.5 24V1.50001L34 1.18088V24H11.5Z" fill="#C4C4C4"/>
<path d="M45.1059 35.1009L44.6516 34.0582" stroke="black" stroke-width="0.24" stroke-linecap="round"/>
<path d="M44.7078 68.1092L1.4397 66.7429" stroke="black" stroke-width="0.24" stroke-linecap="round"/>
<path d="M45.1059 35.101L44.7078 68.1093" stroke="black" stroke-width="0.24" stroke-linecap="round"/>
<path d="M34.0323 1L33.9003 23.8071" stroke="black" stroke-width="0.24" stroke-linecap="round"/>
<path d="M33.9002 23.8071L11.7358 23.7777" stroke="black" stroke-width="0.24" stroke-linecap="round"/>
<path d="M34.0323 1L34.4556 2.66302" stroke="black" stroke-width="0.24" stroke-linecap="round"/>
<path d="M11.5911 1.32233L34.0324 1" stroke="black" stroke-width="0.24" stroke-linecap="round"/>
<path d="M1.43967 66.7429L1.04126 34.7031" stroke="black" stroke-width="0.24" stroke-linecap="round"/>
<path d="M11.736 23.7777L11.5911 1.32233" stroke="black" stroke-width="0.24" stroke-linecap="round"/>
<path d="M37 5L34 1V24L37 22.5V5Z" fill="black"/>
</svg>
