<svg width="127" height="127" viewBox="0 0 127 127" fill="none" xmlns="http://www.w3.org/2000/svg">
<circle cx="63.5" cy="63.5" r="62.5" stroke="#494747" stroke-width="2"/>
<path d="M49.163 63.6777C49.1884 63.8753 49.2407 64.0233 49.3198 64.1217C49.4645 64.3009 49.7146 64.3922 50.07 64.3957C50.2829 64.3978 50.456 64.3761 50.5892 64.3306C50.8421 64.2432 50.9697 64.0775 50.9721 63.8333C50.9735 63.6908 50.9121 63.5798 50.7879 63.5004C50.6637 63.423 50.468 63.3537 50.2011 63.2925L49.7451 63.1854C49.2969 63.0794 48.9874 62.966 48.8167 62.8452C48.5277 62.6431 48.3853 62.3301 48.3895 61.9063C48.3933 61.5196 48.5371 61.1998 48.8209 60.9467C49.1046 60.6936 49.519 60.5698 50.0639 60.5752C50.5189 60.5797 50.9054 60.7046 51.2233 60.9499C51.5432 61.1934 51.7087 61.5446 51.7197 62.0037L50.8526 61.9952C50.8395 61.7352 50.7281 61.5496 50.5182 61.4381C50.3783 61.3645 50.2039 61.3266 49.9949 61.3245C49.7625 61.3222 49.5765 61.3673 49.4369 61.4596C49.2973 61.552 49.2267 61.6822 49.225 61.8501C49.2235 62.0044 49.2907 62.1203 49.4267 62.1979C49.5141 62.2495 49.701 62.3109 49.9874 62.3821L50.7297 62.5682C51.0551 62.6495 51.3002 62.7565 51.4649 62.889C51.7207 63.0946 51.8467 63.3898 51.8429 63.7746C51.8389 64.1691 51.6843 64.4957 51.379 64.7544C51.0757 65.0112 50.6487 65.1368 50.0979 65.1314C49.5354 65.1258 49.0943 64.9935 48.7746 64.7345C48.4549 64.4735 48.2973 64.1184 48.3017 63.6692L49.163 63.6777ZM55.7267 61.5219L53.4416 61.4993L53.4325 62.4162L55.5301 62.437L55.5227 63.1869L53.4251 63.1662L53.4141 64.2765L55.8046 64.3001L55.797 65.0764L52.5247 65.0441L52.5674 60.7259L55.7342 60.7572L55.7267 61.5219ZM59.6803 60.7963L59.6727 61.5609L58.3808 61.5481L58.3457 65.1016L57.4375 65.0927L57.4727 61.5391L56.1749 61.5263L56.1824 60.7617L59.6803 60.7963ZM63.3481 60.8326L63.3405 61.5972L62.0486 61.5844L62.0135 65.1379L61.1053 65.1289L61.1404 61.5754L59.8427 61.5626L59.8502 60.798L63.3481 60.8326ZM64.6618 65.1641L63.7653 65.1553L63.808 60.8371L64.7045 60.846L64.6618 65.1641ZM65.5335 60.8542L66.4798 60.8635L68.1696 63.895L68.1994 60.8805L69.0402 60.8889L68.9975 65.207L68.0952 65.1981L66.3619 62.1134L66.3316 65.1806L65.4908 65.1723L65.5335 60.8542ZM72.7738 62.2735C72.7083 61.9779 72.5434 61.7702 72.2789 61.6504C72.1311 61.5845 71.9664 61.5507 71.7848 61.5489C71.4371 61.5454 71.1497 61.6744 70.9225 61.9359C70.6973 62.1954 70.5821 62.5888 70.5768 63.1161C70.5716 63.6473 70.689 64.0245 70.9289 64.2476C71.1689 64.4706 71.4432 64.5837 71.7518 64.5868C72.0545 64.5898 72.3034 64.5053 72.4985 64.3334C72.6936 64.1595 72.815 63.9312 72.8627 63.6485L71.8637 63.6386L71.8709 62.9179L73.6696 62.9357L73.6467 65.253L73.049 65.2471L72.9636 64.7072C72.7877 64.9105 72.63 65.0535 72.4905 65.1361C72.2508 65.2802 71.9572 65.3506 71.6095 65.3471C71.0373 65.3415 70.5705 65.1386 70.2092 64.7385C69.8323 64.3363 69.6473 63.7895 69.6541 63.0982C69.661 62.399 69.859 61.8404 70.2479 61.4223C70.6368 61.0043 71.1476 60.7984 71.7804 60.8046C72.3292 60.8101 72.7683 60.9541 73.0975 61.2366C73.4287 61.5173 73.6167 61.8658 73.6614 62.2823L72.7738 62.2735ZM75.1774 63.9351C75.2028 64.1326 75.255 64.2806 75.3341 64.379C75.4788 64.5582 75.7289 64.6495 76.0844 64.6531C76.2973 64.6552 76.4703 64.6334 76.6036 64.5879C76.8564 64.5005 76.984 64.3348 76.9865 64.0907C76.9879 63.9481 76.9265 63.8371 76.8022 63.7578C76.678 63.6804 76.4824 63.611 76.2154 63.5498L75.7594 63.4428C75.3112 63.3368 75.0018 63.2233 74.8311 63.1025C74.5421 62.9004 74.3996 62.5875 74.4038 62.1637C74.4077 61.777 74.5515 61.4571 74.8352 61.204C75.119 60.9509 75.5333 60.8271 76.0782 60.8325C76.5333 60.837 76.9197 60.9619 77.2376 61.2073C77.5575 61.4507 77.723 61.8019 77.7341 62.2611L76.8669 62.2525C76.8539 61.9926 76.7424 61.8069 76.5326 61.6954C76.3927 61.6218 76.2182 61.5839 76.0093 61.5819C75.7769 61.5796 75.5909 61.6246 75.4513 61.717C75.3117 61.8093 75.2411 61.9395 75.2394 62.1075C75.2379 62.2618 75.3051 62.3777 75.441 62.4552C75.5284 62.5068 75.7153 62.5683 76.0017 62.6394L76.7441 62.8255C77.0695 62.9069 77.3145 63.0138 77.4792 63.1463C77.735 63.3519 77.861 63.6471 77.8572 64.0319C77.8533 64.4264 77.6987 64.753 77.3934 65.0117C77.0901 65.2685 76.663 65.3942 76.1123 65.3887C75.5498 65.3832 75.1087 65.2509 74.789 64.9918C74.4693 64.7308 74.3116 64.3757 74.3161 63.9265L75.1774 63.9351Z" fill="#05FF00"/>
<path d="M72.5118 32.1975L72.5681 32.4973L72.8604 32.5844C75.2592 33.2994 77.668 34.2671 79.8171 35.4683L80.0961 35.6242L80.3548 35.4365L90.0726 28.3838C90.3103 28.2282 90.602 28.181 90.8962 28.2258C91.1971 28.2716 91.4603 28.4083 91.6181 28.5648C91.619 28.5657 91.6198 28.5665 91.6207 28.5674L99.1554 36.3445L99.1926 36.3829L99.2371 36.4126C99.4914 36.5822 99.5745 36.7597 99.5892 36.9237C99.6058 37.1084 99.542 37.3606 99.3409 37.663C99.3404 37.6637 99.34 37.6643 99.3396 37.665L92.5259 47.6461L92.3515 47.9017L92.5024 48.1719C93.7078 50.3293 94.6556 52.479 95.3829 55.1199L95.4677 55.4278L95.7827 55.4803L107.455 57.426L107.496 57.4328H107.537C107.894 57.4328 108.121 57.5596 108.263 57.7194C108.413 57.8884 108.5 58.1305 108.5 58.3961V69.3466C108.5 69.6024 108.414 69.8459 108.261 70.0186C108.117 70.1817 107.89 70.3099 107.537 70.3099H107.491L107.445 70.3185L95.7729 72.5053L95.4729 72.5615L95.3858 72.854C94.6709 75.2533 93.7034 77.6625 92.5024 79.812L92.3466 80.0909L92.5342 80.3495L99.5446 90.0125C99.6308 90.3004 99.6718 90.6302 99.6489 90.9303C99.6237 91.2613 99.5271 91.4909 99.4044 91.6153C99.4036 91.6161 99.4028 91.6169 99.402 91.6177L91.6263 99.1537L91.5879 99.191L91.5582 99.2355C91.2605 99.6822 90.654 99.672 90.3825 99.4005L90.3495 99.3674L90.3109 99.3411L80.327 92.5231L80.0713 92.3485L79.8011 92.4996C77.6534 93.7 75.2445 94.6521 72.8414 95.3843L72.5515 95.4726L72.4957 95.7706L70.3092 107.445L70.3006 107.49V107.537C70.3006 107.894 70.1738 108.12 70.0141 108.263C69.8451 108.413 69.6031 108.5 69.3376 108.5H58.3891C58.1334 108.5 57.89 108.414 57.7173 108.261C57.5542 108.117 57.426 107.89 57.426 107.537V107.496L57.4193 107.455L55.4901 95.7971L55.4376 95.4802L55.1276 95.3961C52.4944 94.6822 50.0892 93.716 47.9417 92.5157L47.6677 92.3625L47.4108 92.5427L37.689 99.3571C37.3878 99.5569 37.1367 99.6202 36.9527 99.6037C36.7888 99.589 36.6113 99.5059 36.4418 99.2515L36.4121 99.207L36.3737 99.1698L28.598 91.6338C28.5971 91.6329 28.5963 91.6321 28.5954 91.6313C28.4389 91.4734 28.3022 91.2102 28.2564 90.9091C28.2116 90.6148 28.2588 90.323 28.4143 90.0852L35.4658 80.3656L35.6534 80.107L35.4976 79.8281C34.2974 77.68 33.3454 75.2707 32.6134 72.8672L32.525 72.5772L32.2271 72.5214L20.5551 70.3345L20.5095 70.326H20.463C20.1059 70.326 19.8795 70.1992 19.7373 70.0394C19.587 69.8704 19.5 69.6283 19.5 69.3627V58.4122C19.5 58.1564 19.586 57.9129 19.7385 57.7402C19.8825 57.5771 20.1095 57.4489 20.463 57.4489H20.5044L20.5452 57.4421L32.2173 55.4964L32.5337 55.4437L32.6176 55.134C33.3315 52.5003 34.2975 50.0947 35.4976 47.9468L35.6506 47.6729L35.4706 47.416L28.6574 37.6925C28.4576 37.3913 28.3942 37.1401 28.4108 36.9559C28.4255 36.7918 28.5086 36.6143 28.7629 36.4448L28.8074 36.4151L28.8446 36.3767L36.3818 28.5971C36.5396 28.4405 36.8028 28.3038 37.1038 28.2579C37.398 28.2131 37.6896 28.2604 37.9274 28.4159L47.6452 35.4686L47.9039 35.6563L48.1828 35.5004C50.3305 34.3 52.7394 33.3479 55.1425 32.6157L55.439 32.5253L55.49 32.2196L57.4353 20.5455L57.4421 20.5047V20.4633C57.4421 20.106 57.5689 19.8795 57.7287 19.7373C57.8977 19.587 58.1397 19.5 58.4051 19.5H69.3537C69.6093 19.5 69.8527 19.5859 70.0255 19.7385C70.1885 19.8826 70.3167 20.1096 70.3167 20.4633V20.5098L70.3253 20.5556L72.5118 32.1975ZM64 41.5909C51.5534 41.5909 41.6029 51.5433 41.6029 63.992C41.6029 76.4406 51.5533 86.393 64 86.393C76.4466 86.393 86.3971 76.4406 86.3971 63.992C86.3971 51.5433 76.4466 41.5909 64 41.5909Z" fill="#7D7D7D" stroke="#494747"/>
</svg>
