<svg width="127" height="127" viewBox="0 0 127 127" fill="none" xmlns="http://www.w3.org/2000/svg">
<circle cx="63.5" cy="63.5" r="62.5" stroke="#494747" stroke-width="2"/>
<path d="M42 23.5065V42.9447H54V36H69V53.3117L54.6623 80.1948H68.2987L83 54L82.9091 29.5V23.5065H76H42Z" fill="#7D7D7D" stroke="black" stroke-width="0.1"/>
<path d="M67.7143 90.1299H52.5195V102.987H67.7143V90.1299Z" fill="#7D7D7D" stroke="black" stroke-width="0.1"/>
<path d="M83 54V23.5L85.5 28V56.5L70.5 83.5H57L54.5 80H68.5L83 54Z" fill="#494747" stroke="#494747" stroke-width="0.1"/>
<path d="M67.5 103H52.5L55 106H69.5V92.5L67.5 90V103Z" fill="#494747" stroke="#494747" stroke-width="0.1"/>
<path d="M45 46L42 43H54V36H69V39H57V46H45Z" fill="#494747" stroke="black" stroke-width="0.1"/>
<path d="M64.76 75.7353L64.3483 76.5317L60.5123 74.5483L60.9241 73.752L64.76 75.7353ZM61.3049 73.0155L61.7395 72.1749L65.2072 72.0319L62.5294 70.6473L62.9155 69.9004L66.7515 71.8838L66.337 72.6853L62.8023 72.8432L65.527 74.252L65.1408 74.9989L61.3049 73.0155ZM63.3083 69.1536L64.7144 66.4341L65.3884 66.7826L64.394 68.7058L65.2763 69.1619L66.1468 67.4782L66.8131 67.8226L65.9425 69.5064L67.5508 70.338L67.139 71.1343L63.3083 69.1536ZM69.1285 65.8833C69.2926 65.5658 69.3056 65.2537 69.1674 64.947C69.03 64.6385 68.7454 64.3726 68.3134 64.1492C67.8831 63.9267 67.5024 63.8486 67.1713 63.9149C66.8394 63.9785 66.5913 64.1691 66.4272 64.4866C66.263 64.8041 66.2491 65.1179 66.3856 65.4281C66.522 65.7384 66.8062 66.0051 67.2382 66.2285C67.6702 66.4519 68.0522 66.5296 68.3842 66.4615C68.7162 66.3935 68.9643 66.2008 69.1285 65.8833ZM68.7278 63.3477C69.4166 63.7038 69.844 64.1699 70.01 64.7461C70.1586 65.1901 70.0912 65.6863 69.8077 66.2345C69.5242 66.7827 69.1584 67.1246 68.7102 67.26C68.1431 67.4594 67.5153 67.381 66.8265 67.0248C66.1238 66.6615 65.6969 66.1945 65.5456 65.6238C65.397 65.1798 65.4645 64.6836 65.7479 64.1354C66.0314 63.5872 66.3973 63.2453 66.8455 63.1099C67.3977 62.9051 68.0251 62.9843 68.7278 63.3477Z" fill="#05FF00"/>
</svg>
