<svg width="114" height="114" viewBox="0 0 114 114" fill="none" xmlns="http://www.w3.org/2000/svg">
<path d="M113 57C113 87.9279 87.9279 113 57 113C26.0721 113 1 87.9279 1 57C1 26.0721 26.0721 1 57 1C87.9279 1 113 26.0721 113 57Z" stroke="#494747" stroke-width="2"/>
<path d="M71.3803 65.5435C74.3983 61.5 76.2604 56.4783 76.2604 51C76.2604 37.7609 65.6654 27 52.6302 27C39.5951 27 29 37.7609 29 51C29 64.2391 39.5951 75 52.6302 75C57.3267 75.0102 61.9166 73.578 65.7972 70.8913L80.4985 85.8261C80.8491 86.1934 81.268 86.4863 81.731 86.6878C82.194 86.8893 82.6917 86.9954 83.1954 87C83.7 87.0016 84.1996 86.8983 84.6635 86.6964C85.1273 86.4945 85.5455 86.1983 85.8923 85.8261C87.3692 84.3261 87.3692 81.8478 85.8923 80.2826L71.3803 65.5435ZM36.7055 51C36.7055 42.1304 43.8331 34.8261 52.6302 34.8261C61.4273 34.8261 68.5549 42.1304 68.5549 51C68.5549 55.2896 66.8772 59.4035 63.8907 62.4367C60.9042 65.4699 56.8537 67.1739 52.6302 67.1739C48.4067 67.1739 44.3562 65.4699 41.3697 62.4367C38.3833 59.4035 36.7055 55.2896 36.7055 51V51Z" fill="#7D7D7D"/>
</svg>
