<svg width="114" height="114" viewBox="0 0 114 114" fill="none" xmlns="http://www.w3.org/2000/svg">
<path d="M113 57.0001C113 87.928 87.9279 113 57 113C26.0721 113 1 87.928 1 57.0001C1 26.0721 26.0721 1.00008 57 1.00008C87.9279 1.00008 113 26.0721 113 57.0001Z" stroke="#494747" stroke-width="2"/>
<path d="M101.305 55.2537L81.5902 21.1068L48.0608 41.1053L54.3423 52.4484L20.821 71.802L27.017 82.5338L60.292 63.3225L67.0513 75.03L101.305 55.2537Z" fill="#848484" stroke="black" stroke-width="0.1"/>
<path d="M92.0426 52.7719L79.0468 30.2624L56.5372 43.2582L69.5331 65.7678L92.0426 52.7719Z" fill="#05FF00" stroke="black" stroke-width="0.1"/>
<path d="M100.064 59.8848L101.305 55.2537L67.0512 75.03L60.2708 63.2859L26.9958 82.4972L20.7804 71.7318L19.5395 76.3629L25.7549 87.1284L59.0299 67.9171L65.8103 79.6612L100.064 59.8848Z" fill="#494747" stroke="black" stroke-width="0.1"/>
<path d="M92.0426 52.7719L79.0468 30.2624L56.5372 43.2582L58.2323 46.1943L77.8058 34.8935L89.1066 54.467L92.0426 52.7719Z" fill="#494747" stroke="black" stroke-width="0.1"/>
<path d="M27.2951 78.0729C27.4174 78.23 27.5376 78.3309 27.6558 78.3754C27.8716 78.4561 28.1333 78.4076 28.4412 78.2298C28.6256 78.1234 28.7635 78.0167 28.8551 77.9097C29.0284 77.7059 29.054 77.4983 28.9319 77.2868C28.8606 77.1634 28.7513 77.099 28.604 77.0939C28.4577 77.0904 28.254 77.1302 27.993 77.2133L27.5459 77.353C27.1061 77.4896 26.782 77.5493 26.5735 77.5321C26.2219 77.5051 25.9401 77.308 25.7282 76.941C25.5349 76.6061 25.496 76.2575 25.6116 75.8953C25.7273 75.5331 26.0211 75.2158 26.493 74.9433C26.8871 74.7158 27.2834 74.6268 27.6819 74.6764C28.0811 74.7233 28.4022 74.9416 28.6452 75.3313L27.8942 75.7649C27.7508 75.5477 27.5604 75.4445 27.323 75.4553C27.1651 75.463 26.9957 75.5191 26.8147 75.6236C26.6134 75.7398 26.4762 75.8732 26.4029 76.0237C26.3297 76.1742 26.3351 76.3222 26.4191 76.4677C26.4962 76.6013 26.6131 76.6669 26.7695 76.6645C26.871 76.6646 27.0632 76.6224 27.346 76.5381L28.0798 76.3208C28.4014 76.2253 28.6667 76.1928 28.8759 76.2231C29.2008 76.2701 29.4594 76.4602 29.6518 76.7934C29.849 77.1351 29.882 77.4949 29.7507 77.873C29.6201 78.2483 29.3163 78.5737 28.8393 78.8491C28.3522 79.1303 27.9051 79.2407 27.4981 79.1803C27.0901 79.1181 26.7738 78.8926 26.5492 78.5035L27.2951 78.0729ZM31.8503 72.8787L29.8713 74.0213L30.3298 74.8154L32.1464 73.7666L32.5214 74.4161L30.7048 75.4649L31.2599 76.4265L33.3303 75.2312L33.7185 75.9035L30.8844 77.5398L28.7252 73.8L31.4679 72.2165L31.8503 72.8787ZM34.534 73.5484L35.4829 73.0006L34.1664 71.7986L34.534 73.5484ZM33.2389 71.194L34.1218 70.6842L37.6054 73.6594L36.758 74.1487L36.0731 73.5191L34.6954 74.3145L34.8805 75.2327L34.0635 75.7043L33.2389 71.194ZM37.0797 69.8426L37.6598 70.8473L38.5452 70.3361C38.7212 70.2345 38.8414 70.138 38.9059 70.0466C39.0205 69.8858 39.0172 69.7004 38.8961 69.4907C38.7653 69.264 38.6021 69.1553 38.4067 69.1644C38.2967 69.1692 38.1571 69.2205 37.988 69.3181L37.0797 69.8426ZM37.7754 68.5749C38.0405 68.4286 38.2603 68.3445 38.4349 68.3227C38.6112 68.2998 38.7815 68.3176 38.9461 68.376C39.0819 68.4238 39.2068 68.4916 39.3205 68.5793C39.4343 68.6669 39.5337 68.7843 39.6186 68.9315C39.7212 69.1091 39.7774 69.3101 39.7874 69.5343C39.7964 69.7569 39.7182 69.9633 39.5528 70.1535C39.7654 70.1232 39.9443 70.1519 40.0896 70.2394C40.2355 70.3243 40.3842 70.4978 40.5356 70.76L40.6806 71.0112C40.7792 71.182 40.8529 71.294 40.9016 71.347C40.9775 71.4317 41.0659 71.4754 41.1667 71.4781L41.2209 71.572L40.3608 72.0686C40.2893 71.9994 40.2338 71.9423 40.1943 71.8974C40.1135 71.8043 40.0405 71.7032 39.9753 71.5943L39.7696 71.2496C39.6285 71.0131 39.4927 70.8795 39.3622 70.8488C39.2335 70.8171 39.0541 70.8677 38.824 71.0005L38.0172 71.4664L38.8639 72.9328L38.1002 73.3738L35.941 69.634L37.7754 68.5749ZM40.6131 69.4703C40.2361 68.8174 40.1206 68.2132 40.2667 67.6575C40.3934 67.1739 40.6919 66.7963 41.1621 66.5248C41.7913 66.1615 42.3705 66.1023 42.8998 66.347C43.1942 66.486 43.4148 66.6688 43.5614 66.8953L42.7799 67.3465C42.6257 67.1965 42.4824 67.0988 42.3502 67.0534C42.1144 66.973 41.8569 67.0134 41.5778 67.1745C41.2936 67.3386 41.1359 67.583 41.1047 67.9078C41.0724 68.2308 41.1774 68.6021 41.4196 69.0216C41.6618 69.4411 41.9297 69.7059 42.2233 69.816C42.5176 69.9235 42.7984 69.9001 43.0657 69.7458C43.3397 69.5876 43.4968 69.3773 43.5371 69.115C43.5609 68.9727 43.5434 68.79 43.4845 68.5669L44.2584 68.1201C44.426 68.5668 44.4441 68.9984 44.3125 69.415C44.1825 69.8306 43.9002 70.1638 43.4655 70.4148C42.9276 70.7253 42.4051 70.797 41.8981 70.6296C41.39 70.4606 40.9617 70.0742 40.6131 69.4703ZM45.5874 69.051L43.4282 65.3112L44.2021 64.8644L45.0253 66.2903L46.4867 65.4466L45.6635 64.0207L46.4399 63.5724L48.599 67.3122L47.8227 67.7605L46.8588 66.091L45.3974 66.9348L46.3612 68.6042L45.5874 69.051Z" fill="#05FF00"/>
<path d="M48 49V41L54.5 52.5L51 54.5L48 49Z" fill="#494747" stroke="black" stroke-width="0.1"/>
</svg>
