<svg width="50" height="50" viewBox="0 0 50 50" fill="none" xmlns="http://www.w3.org/2000/svg">
<path d="M49.2424 24.8106C49.2424 38.0947 38.4735 48.8636 25.1894 48.8636C11.9053 48.8636 1.13637 38.0947 1.13637 24.8106C1.13637 11.5265 11.9053 0.757568 25.1894 0.757568C38.4735 0.757568 49.2424 11.5265 49.2424 24.8106Z" fill="#E5E5E5"/>
<path d="M49.2424 24.8106C49.2424 38.0947 38.4735 48.8636 25.1894 48.8636C11.9053 48.8636 1.13637 38.0947 1.13637 24.8106C1.13637 11.5265 11.9053 0.757568 25.1894 0.757568C38.4735 0.757568 49.2424 11.5265 49.2424 24.8106Z" fill="#E5E5E5"/>
<circle cx="14.5833" cy="24.8105" r="3.97727" fill="#7D7D7D"/>
<circle cx="25.1894" cy="24.8105" r="3.97727" fill="#7D7D7D"/>
<circle cx="36.1742" cy="24.8105" r="3.97727" fill="#7D7D7D"/>
</svg>
