<svg width="127" height="127" viewBox="0 0 127 127" fill="none" xmlns="http://www.w3.org/2000/svg">
<circle cx="63.5" cy="63.5" r="62.5" stroke="#494747" stroke-width="2"/>
<rect x="29.25" y="29.25" width="30.2049" height="30.2049" fill="#C4C4C4" stroke="#7D7D7D" stroke-width="0.5"/>
<path d="M59.7049 59.0374V29L61.7074 31.67V61.7074H31.0025L29 59.0374H59.7049Z" fill="#494747" stroke="black" stroke-width="0.1"/>
<rect x="66.6299" y="29.25" width="30.2049" height="30.2049" fill="#C4C4C4" stroke="#7D7D7D" stroke-width="0.5"/>
<path d="M97.0848 59.0374V29L99.0873 31.67V61.7074H68.3824L66.3799 59.0374H97.0848Z" fill="#494747" stroke="black" stroke-width="0.1"/>
<rect x="29.25" y="29.25" width="30.2049" height="30.2049" fill="#7D7D7D" stroke="#7D7D7D" stroke-width="0.5"/>
<path d="M59.7049 59.0374V29L61.7074 31.67V61.7074H31.0025L29 59.0374H59.7049Z" fill="#494747" stroke="black" stroke-width="0.1"/>
<rect x="66.6299" y="29.25" width="30.2049" height="30.2049" fill="#05FF00" stroke="#7D7D7D" stroke-width="0.5"/>
<path d="M97.0848 59.0374V29L99.0873 31.67V61.7074H68.3824L66.3799 59.0374H97.0848Z" fill="#494747" stroke="black" stroke-width="0.1"/>
<rect x="29.25" y="65.2949" width="30.2049" height="30.2049" fill="#7D7D7D" stroke="#7D7D7D" stroke-width="0.5"/>
<path d="M59.7049 95.0824V65.0449L61.7074 67.7149V97.7524H31.0025L29 95.0824H59.7049Z" fill="#494747" stroke="black" stroke-width="0.1"/>
<rect x="66.6299" y="65.2949" width="30.2049" height="30.2049" fill="#7D7D7D" stroke="#7D7D7D" stroke-width="0.5"/>
<path d="M97.0848 95.0824V65.0449L99.0873 67.7149V97.7524H68.3824L66.3799 95.0824H97.0848Z" fill="#494747" stroke="black" stroke-width="0.1"/>
<path d="M34.1263 92.3147C34.2581 92.2993 34.3572 92.2656 34.4234 92.2136C34.5439 92.1184 34.6067 91.9524 34.6117 91.7155C34.6147 91.5736 34.6015 91.458 34.5721 91.3689C34.5158 91.1997 34.4063 91.1133 34.2436 91.1099C34.1485 91.1079 34.0741 91.148 34.0203 91.2302C33.9677 91.3124 33.9201 91.4423 33.8772 91.6198L33.8024 91.923C33.7284 92.221 33.6505 92.4264 33.5687 92.5393C33.4318 92.7305 33.2221 92.8231 32.9396 92.8171C32.6819 92.8117 32.4697 92.7134 32.3031 92.5223C32.1365 92.3313 32.0571 92.0541 32.0648 91.6909C32.0712 91.3876 32.1574 91.1309 32.3233 90.9208C32.488 90.7094 32.7234 90.6017 33.0295 90.5978L33.0173 91.1758C32.8439 91.1826 32.7193 91.2555 32.6434 91.3945C32.5933 91.4872 32.5667 91.6032 32.5638 91.7425C32.5605 91.8974 32.5892 92.0218 32.6497 92.1155C32.7102 92.2093 32.7965 92.2573 32.9084 92.2597C33.0113 92.2618 33.089 92.2179 33.1417 92.1279C33.1768 92.07 33.2192 91.9459 33.2688 91.7555L33.3984 91.262C33.455 91.0457 33.5281 90.8831 33.6177 90.7743C33.7567 90.6054 33.9544 90.5236 34.2109 90.529C34.4739 90.5346 34.6904 90.6401 34.8606 90.8455C35.0295 91.0497 35.1101 91.3353 35.1023 91.7024C35.0944 92.0773 35.0029 92.3704 34.8278 92.5816C34.6514 92.7927 34.4136 92.8951 34.1141 92.8888L34.1263 92.3147ZM35.0618 90.1055L32.1836 90.0446L32.1962 89.4491L33.2936 89.4723L33.3173 88.3475L32.2199 88.3243L32.2326 87.7268L35.1108 87.7876L35.0982 88.3852L33.8133 88.358L33.7896 89.4828L35.0744 89.5099L35.0618 90.1055ZM34.7203 85.9294C34.7254 85.6911 34.6415 85.5005 34.4687 85.3575C34.2959 85.2132 34.0474 85.1376 33.7233 85.1308C33.4005 85.1239 33.1497 85.189 32.971 85.3259C32.791 85.4614 32.6985 85.6483 32.6934 85.8865C32.6884 86.1248 32.7722 86.3167 32.945 86.4623C33.1177 86.6079 33.3662 86.6841 33.6903 86.691C34.0145 86.6978 34.2659 86.6322 34.4447 86.494C34.6234 86.3558 34.7153 86.1676 34.7203 85.9294ZM33.736 84.5293C34.2528 84.5403 34.6455 84.6938 34.914 84.9899C35.1334 85.212 35.2387 85.5288 35.23 85.9401C35.2213 86.3515 35.1027 86.6635 34.8742 86.8762C34.5933 87.162 34.1945 87.2994 33.6777 87.2885C33.1505 87.2773 32.7578 87.1232 32.4997 86.826C32.2804 86.6039 32.1751 86.2871 32.1838 85.8758C32.1925 85.4644 32.3111 85.1524 32.5396 84.9397C32.81 84.655 33.2088 84.5182 33.736 84.5293ZM32.8231 83.4473L33.5964 83.4637L33.6108 82.7822C33.6137 82.6468 33.6002 82.5449 33.5704 82.4766C33.5182 82.3556 33.4114 82.2935 33.25 82.2901C33.0756 82.2864 32.9572 82.3418 32.8949 82.4564C32.8596 82.5208 32.8406 82.6181 32.8379 82.7482L32.8231 83.4473ZM32.3406 82.6127C32.3488 82.411 32.3768 82.2566 32.4247 82.1495C32.4725 82.0412 32.5415 81.9501 32.6317 81.8765C32.7059 81.8156 32.7876 81.7678 32.8769 81.7332C32.9662 81.6986 33.0675 81.6826 33.1808 81.6849C33.3174 81.6878 33.4514 81.7252 33.5828 81.797C33.7128 81.8688 33.8035 81.9846 33.8548 82.1446C33.911 82.0129 33.9891 81.9208 34.0892 81.8682C34.188 81.8143 34.3383 81.7895 34.5401 81.7938L34.7334 81.7979C34.8649 81.8006 34.9542 81.7973 35.0012 81.7879C35.0758 81.7738 35.1312 81.7385 35.1676 81.682L35.2398 81.6835L35.2258 82.3455C35.1617 82.3624 35.11 82.3743 35.0708 82.3813C34.9897 82.3952 34.9069 82.4019 34.8222 82.4014L34.5546 82.3997C34.371 82.3984 34.2479 82.4297 34.1854 82.4935C34.1228 82.556 34.0897 82.6757 34.086 82.8528L34.0728 83.4737L35.2015 83.4976L35.1891 84.0853L32.3108 84.0245L32.3406 82.6127ZM32.4158 79.0569L32.9255 79.0676L32.9073 79.9288L35.2759 79.9788L35.2631 80.5842L32.8945 80.5341L32.8762 81.3991L32.3665 81.3884L32.4158 79.0569ZM33.8832 78.8593C33.3807 78.8487 32.9963 78.7058 32.7299 78.4306C32.4979 78.1912 32.3858 77.8906 32.3934 77.5287C32.4036 77.0444 32.5699 76.6937 32.8923 76.4765C33.0733 76.3566 33.2537 76.294 33.4335 76.2887L33.4208 76.8901C33.282 76.9263 33.1768 76.9742 33.1052 77.0339C32.9779 77.1406 32.912 77.3013 32.9075 77.5161C32.9028 77.7348 32.9877 77.9092 33.1621 78.0392C33.3352 78.1692 33.5831 78.2376 33.906 78.2444C34.2288 78.2512 34.4723 78.19 34.6366 78.0606C34.7995 77.9299 34.8832 77.7617 34.8875 77.556C34.892 77.3451 34.8264 77.1829 34.6907 77.0693C34.6178 77.0066 34.5076 76.9535 34.36 76.91L34.3726 76.3144C34.6853 76.3731 34.9376 76.5119 35.1296 76.7309C35.3217 76.9485 35.4142 77.2246 35.4071 77.5592C35.3984 77.9732 35.2587 78.2958 34.9881 78.5271C34.7162 78.7584 34.3479 78.8691 33.8832 78.8593ZM32.4844 75.8134L32.4973 75.2023L34.2664 75.2396C34.4643 75.2438 34.6093 75.2235 34.7014 75.1785C34.8644 75.109 34.9484 74.9519 34.9536 74.7072C34.9587 74.4637 34.8814 74.3039 34.7215 74.2276C34.6314 74.1788 34.4873 74.1523 34.2895 74.1481L32.5203 74.1107L32.5333 73.4995L34.3024 73.5369C34.6083 73.5434 34.8455 73.5959 35.0141 73.6946C35.3228 73.8782 35.4718 74.2193 35.4613 74.7179C35.4508 75.2165 35.2874 75.5517 34.9712 75.7234C34.7986 75.8148 34.5594 75.8573 34.2535 75.8508L32.4844 75.8134ZM32.5896 70.8321L33.0993 70.8429L33.0811 71.704L35.4497 71.7541L35.4369 72.3594L33.0683 72.3094L33.05 73.1744L32.5404 73.1637L32.5896 70.8321ZM34.5961 70.0853C34.728 70.0699 34.827 70.0361 34.8932 69.9841C35.0137 69.889 35.0765 69.723 35.0815 69.4861C35.0845 69.3442 35.0713 69.2286 35.042 69.1394C34.9856 68.9702 34.8761 68.8839 34.7134 68.8805C34.6183 68.8785 34.5439 68.9186 34.4901 69.0008C34.4376 69.083 34.3899 69.2129 34.3471 69.3904L34.2723 69.6936C34.1982 69.9916 34.1203 70.197 34.0385 70.3099C33.9016 70.5011 33.6919 70.5937 33.4094 70.5877C33.1517 70.5822 32.9395 70.484 32.7729 70.2929C32.6064 70.1019 32.5269 69.8247 32.5346 69.4615C32.541 69.1582 32.6272 68.9015 32.7931 68.6914C32.9578 68.48 33.1932 68.3723 33.4993 68.3684L33.4871 68.9464C33.3137 68.9531 33.1891 69.026 33.1133 69.1651C33.0631 69.2578 33.0366 69.3738 33.0336 69.5131C33.0303 69.668 33.059 69.7923 33.1195 69.8861C33.18 69.9798 33.2663 70.0279 33.3782 70.0303C33.4811 70.0324 33.5588 69.9885 33.6115 69.8984C33.6466 69.8406 33.689 69.7164 33.7386 69.526L33.8682 69.0326C33.9248 68.8163 33.998 68.6537 34.0875 68.5449C34.2265 68.3759 34.4243 68.2942 34.6807 68.2996C34.9437 68.3051 35.1603 68.4107 35.3304 68.6161C35.4993 68.8203 35.5799 69.1059 35.5721 69.473C35.5642 69.8479 35.4727 70.141 35.2976 70.3521C35.1213 70.5633 34.8834 70.6657 34.584 70.6594L34.5961 70.0853Z" fill="#05FF00"/>
</svg>
