<svg width="114" height="114" viewBox="0 0 114 114" fill="none" xmlns="http://www.w3.org/2000/svg">
<rect x="32.2285" y="26.7346" width="27.6361" height="27.6361" fill="#C4C4C4"/>
<path d="M32.9754 26.7346H59.8645L51.6484 23H27V49.5157L32.9754 54.3707V26.7346Z" fill="#7D7D7D" stroke="black" stroke-width="0.1"/>
<rect x="32.2285" y="26.7346" width="27.6361" height="27.6361" fill="#7D7D7D"/>
<rect x="37.9568" y="31.7161" width="17.673" height="17.673" fill="#05FF00" stroke="#C4C4C4"/>
<path d="M32.9754 26.7346H59.8645L51.6484 23H27V49.5157L32.9754 54.3707V26.7346Z" fill="#494747" stroke="black" stroke-width="0.1"/>
<path d="M49.4077 45.4076L38.2039 45.4076L38.2039 49.1422L55.3831 49.1422L55.3831 31.963L49.4077 31.963L49.4077 45.4076Z" fill="#494747"/>
<rect x="64.7632" y="62.7106" width="28.2368" height="28.2368" fill="#C4C4C4"/>
<path d="M65.5263 62.7106H93L84.6052 58.8948H59.421V85.9869L65.5263 90.9474V62.7106Z" fill="#7D7D7D" stroke="black" stroke-width="0.1"/>
<rect x="64.7632" y="62.7106" width="28.2368" height="28.2368" fill="#7D7D7D"/>
<path d="M65.5263 62.7106H93L84.6052 58.8948H59.421V85.9869L65.5263 90.9474V62.7106Z" fill="#494747" stroke="black" stroke-width="0.1"/>
<path d="M45 54V74H60" stroke="#494747" stroke-width="3"/>
<path d="M113 57C113 87.9279 87.9279 113 57 113C26.0721 113 1 87.9279 1 57C1 26.0721 26.0721 1 57 1C87.9279 1 113 26.0721 113 57Z" stroke="#494747" stroke-width="2"/>
<path d="M70.6768 83.7171L70.6692 84.4817L69.3773 84.4689L69.3422 88.0225L68.434 88.0135L68.4691 84.46L67.1714 84.4471L67.1789 83.6825L70.6768 83.7171ZM72.1019 84.4812L72.0904 85.6413L73.1129 85.6515C73.316 85.6535 73.4685 85.6315 73.5706 85.5857C73.7511 85.5054 73.8425 85.3442 73.8449 85.102C73.8475 84.8403 73.7623 84.6637 73.5894 84.5721C73.4922 84.5204 73.346 84.4936 73.1507 84.4916L72.1019 84.4812ZM73.3456 83.7435C73.6483 83.7524 73.8803 83.7918 74.0417 83.8617C74.2051 83.9317 74.3428 84.0337 74.4548 84.1676C74.5474 84.2779 74.6204 84.3997 74.6738 84.5331C74.7272 84.6664 74.753 84.818 74.7513 84.9879C74.7493 85.193 74.6956 85.3946 74.5901 85.5928C74.4846 85.7891 74.3123 85.927 74.0733 86.0067C74.2717 86.0887 74.4112 86.2044 74.4917 86.3536C74.5743 86.5009 74.614 86.7259 74.611 87.0287L74.6082 87.3187C74.6062 87.5159 74.6127 87.6498 74.6276 87.7203C74.65 87.8318 74.7038 87.9144 74.7892 87.968L74.7882 88.0764L73.7951 88.0665C73.7687 87.9706 73.7499 87.8932 73.7388 87.8345C73.7165 87.7132 73.7051 87.5891 73.7044 87.4621L73.7025 87.0607C73.7013 86.7853 73.6523 86.6012 73.5556 86.5084C73.4608 86.4157 73.2806 86.368 73.015 86.3654L72.0834 86.3562L72.0666 88.0494L71.1848 88.0407L71.2275 83.7226L73.3456 83.7435ZM78.7284 84.5614L76.4434 84.5388L76.4343 85.4558L78.5318 85.4765L78.5244 86.2265L76.4269 86.2058L76.4159 87.316L78.8064 87.3397L78.7987 88.116L75.5264 88.0837L75.5691 83.7655L78.736 83.7968L78.7284 84.5614ZM82.7302 84.601L80.4451 84.5784L80.4361 85.4954L82.5336 85.5161L82.5262 86.2661L80.4286 86.2453L80.4176 87.3556L82.8082 87.3793L82.8005 88.1556L79.5282 88.1232L79.5709 83.8051L82.7377 83.8364L82.7302 84.601Z" fill="#05FF00"/>
</svg>
