<svg width="128" height="128" viewBox="0 0 128 128" fill="none" xmlns="http://www.w3.org/2000/svg">
<path d="M127 64C127 98.7939 98.7939 127 64 127C29.2061 127 1 98.7939 1 64C1 29.2061 29.2061 1 64 1C98.7939 1 127 29.2061 127 64Z" fill="#E5E5E5"/>
<path d="M127 64C127 98.7939 98.7939 127 64 127C29.2061 127 1 98.7939 1 64C1 29.2061 29.2061 1 64 1C98.7939 1 127 29.2061 127 64Z" fill="#E5E5E5"/>
<path d="M127 64C127 98.7939 98.7939 127 64 127C29.2061 127 1 98.7939 1 64C1 29.2061 29.2061 1 64 1C98.7939 1 127 29.2061 127 64Z" fill="#E5E5E5"/>
<path d="M127 64C127 98.7939 98.7939 127 64 127C29.2061 127 1 98.7939 1 64C1 29.2061 29.2061 1 64 1C98.7939 1 127 29.2061 127 64Z" fill="#E5E5E5"/>
<path d="M127 64C127 98.7939 98.7939 127 64 127C29.2061 127 1 98.7939 1 64C1 29.2061 29.2061 1 64 1C98.7939 1 127 29.2061 127 64Z" stroke="#494747" stroke-width="2"/>
<rect x="36.1321" y="29.9514" width="31.0906" height="31.0906" fill="#C4C4C4"/>
<path d="M36.9723 29.9514H67.2226L57.9794 25.75H30.25V55.5802L36.9723 61.042V29.9514Z" fill="#7D7D7D" stroke="black" stroke-width="0.1"/>
<rect x="36.1321" y="29.9514" width="31.0906" height="31.0906" fill="#7D7D7D"/>
<rect x="42.5139" y="35.4932" width="20.0071" height="20.0071" fill="#05FF00" stroke="#C4C4C4"/>
<path d="M36.9723 29.9514H67.2226L57.9794 25.75H30.25V55.5802L36.9723 61.042V29.9514Z" fill="#494747" stroke="black" stroke-width="0.1"/>
<path d="M55.4586 50.9586L42.8543 50.9586L42.8543 55.16L62.1809 55.16L62.1809 35.8334L55.4586 35.8334L55.4586 50.9586Z" fill="#494747"/>
<rect x="72.7335" y="70.4245" width="31.7665" height="31.7665" fill="#C4C4C4"/>
<path d="M73.5921 70.4244H104.5L95.0559 66.1317H66.7236V96.6103L73.5921 102.191V70.4244Z" fill="#7D7D7D" stroke="black" stroke-width="0.1"/>
<rect x="72.7335" y="70.4245" width="31.7665" height="31.7665" fill="#7D7D7D"/>
<path d="M73.5921 70.4244H104.5L95.0559 66.1317H66.7236V96.6103L73.5921 102.191V70.4244Z" fill="#494747" stroke="black" stroke-width="0.1"/>
<path d="M50.5 60.625V83.125H67.375" stroke="#494747" stroke-width="3"/>
<path d="M78.9392 93.8421L78.9317 94.6067L77.6398 94.5939L77.6046 98.1475L76.6964 98.1385L76.7316 94.585L75.4338 94.5721L75.4414 93.8075L78.9392 93.8421ZM80.3644 94.6062L80.3529 95.7663L81.3753 95.7765C81.5784 95.7785 81.731 95.7565 81.833 95.7107C82.0135 95.6304 82.1049 95.4692 82.1073 95.227C82.1099 94.9653 82.0248 94.7887 81.8518 94.6971C81.7547 94.6454 81.6085 94.6186 81.4132 94.6166L80.3644 94.6062ZM81.6081 93.8685C81.9107 93.8774 82.1428 93.9168 82.3042 93.9867C82.4676 94.0567 82.6052 94.1587 82.7172 94.2926C82.8099 94.4029 82.8829 94.5247 82.9363 94.6581C82.9896 94.7914 83.0155 94.943 83.0138 95.1129C83.0118 95.318 82.958 95.5196 82.8525 95.7178C82.7471 95.9141 82.5748 96.052 82.3357 96.1317C82.5341 96.2137 82.6736 96.3294 82.7542 96.4786C82.8367 96.6259 82.8765 96.8509 82.8735 97.1537L82.8706 97.4437C82.8687 97.6409 82.8751 97.7748 82.8901 97.8453C82.9124 97.9568 82.9663 98.0394 83.0517 98.093L83.0506 98.2014L82.0575 98.1915C82.0311 98.0956 82.0123 98.0182 82.0012 97.9595C81.979 97.8382 81.9675 97.7141 81.9668 97.5871L81.9649 97.1857C81.9637 96.9103 81.9148 96.7262 81.818 96.6334C81.7232 96.5407 81.543 96.493 81.2774 96.4904L80.3458 96.4812L80.3291 98.1744L79.4473 98.1657L79.49 93.8476L81.6081 93.8685ZM86.9909 94.6864L84.7058 94.6638L84.6967 95.5808L86.7943 95.6015L86.7869 96.3515L84.6893 96.3308L84.6783 97.441L87.0689 97.4647L87.0612 98.241L83.7889 98.2087L83.8316 93.8905L86.9984 93.9218L86.9909 94.6864ZM90.9926 94.726L88.7076 94.7034L88.6985 95.6204L90.7961 95.6411L90.7886 96.3911L88.6911 96.3703L88.6801 97.4806L91.0706 97.5043L91.0629 98.2806L87.7906 98.2482L87.8333 93.9301L91.0002 93.9614L90.9926 94.726Z" fill="#05FF00"/>
</svg>
