<svg width="80" height="80" viewBox="0 0 80 80" fill="none" xmlns="http://www.w3.org/2000/svg">
<rect x="0.5" y="0.5" width="79" height="79" stroke="#C4C4C4"/>
<rect x="9.54358" y="6.36778" width="18.7302" height="18.7302" fill="#C4C4C4"/>
<path d="M10.0498 6.36778H28.2738L22.7053 3.83667H6V21.8076L10.0498 25.098V6.36778Z" fill="#7D7D7D" stroke="black" stroke-width="0.1"/>
<rect x="9.54358" y="6.36778" width="18.7302" height="18.7302" fill="#C4C4C4"/>
<rect x="13.587" y="9.90511" width="11.6556" height="11.6556" fill="white" stroke="#C4C4C4"/>
<path d="M10.0498 6.36778H28.2738L22.7053 3.83667H6V21.8076L10.0498 25.098V6.36778Z" fill="#7D7D7D" stroke="black" stroke-width="0.1"/>
<path d="M21.1867 19.0233L13.5933 19.0233L13.5933 21.5544L25.2365 21.5544L25.2364 9.91133L21.1867 9.91133L21.1867 19.0233Z" fill="#7D7D7D"/>
<rect x="31.5938" y="30.7504" width="19.1374" height="19.1374" fill="#C4C4C4"/>
<path d="M32.111 30.7503H50.7312L45.0417 28.1642H27.9732V46.5258L32.111 49.8877V30.7503Z" fill="#7D7D7D" stroke="black" stroke-width="0.1"/>
<rect x="31.5938" y="30.7504" width="19.1374" height="19.1374" fill="#C4C4C4"/>
<path d="M32.111 30.7503H50.7312L45.0417 28.1642H27.9732V46.5258L32.111 49.8877V30.7503Z" fill="#7D7D7D" stroke="black" stroke-width="0.1"/>
<rect x="54.3519" y="55.8626" width="19.1374" height="19.1374" fill="#C4C4C4"/>
<path d="M54.8691 55.8626H73.4893L67.7998 53.2765H50.7313V71.638L54.8691 75V55.8626Z" fill="#7D7D7D" stroke="black" stroke-width="0.1"/>
<rect x="54.3519" y="55.8626" width="19.1374" height="19.1374" fill="#C4C4C4"/>
<path d="M54.8691 55.8626H73.4893L67.7998 53.2765H50.7313V71.638L54.8691 75V55.8626Z" fill="#7D7D7D" stroke="black" stroke-width="0.1"/>
<path d="M18.4061 24.841V38.7359M18.4061 38.7359H28.331M18.4061 38.7359V64.5406H50.662" stroke="#7D7D7D"/>
</svg>
