<svg width="68" height="70" viewBox="0 0 68 70" fill="none" xmlns="http://www.w3.org/2000/svg">
<rect x="6.22845" y="4.73456" width="27.6361" height="27.6361" fill="#C4C4C4"/>
<path d="M6.97536 4.7346H33.8645L25.6484 1H1V27.5157L6.97536 32.3707V4.7346Z" fill="#7D7D7D" stroke="black" stroke-width="0.1"/>
<rect x="6.22845" y="4.73456" width="27.6361" height="27.6361" fill="#C4C4C4"/>
<rect x="11.9568" y="9.71613" width="17.673" height="17.673" fill="white" stroke="#C4C4C4"/>
<path d="M6.97536 4.7346H33.8645L25.6484 1H1V27.5157L6.97536 32.3707V4.7346Z" fill="#494747" stroke="black" stroke-width="0.1"/>
<path d="M23.4076 23.4076L12.2038 23.4076L12.2038 27.1422L29.383 27.1422L29.383 9.96304L23.4076 9.96304L23.4076 23.4076Z" fill="#494747"/>
<rect x="38.7632" y="40.7106" width="28.2368" height="28.2368" fill="#C4C4C4"/>
<path d="M39.5263 40.7106H67L58.6052 36.8948H33.421V63.9869L39.5263 68.9474V40.7106Z" fill="#7D7D7D" stroke="black" stroke-width="0.1"/>
<rect x="38.7632" y="40.7106" width="28.2368" height="28.2368" fill="#C4C4C4"/>
<path d="M39.5263 40.7106H67L58.6052 36.8948H33.421V63.9869L39.5263 68.9474V40.7106Z" fill="#494747" stroke="black" stroke-width="0.1"/>
<path d="M19 32V52H34" stroke="#494747" stroke-width="3"/>
</svg>
