<svg width="127" height="127" viewBox="0 0 127 127" fill="none" xmlns="http://www.w3.org/2000/svg">
<path d="M127 63.5C127 98.5701 98.5701 127 63.5 127C28.4299 127 0 98.5701 0 63.5C0 28.4299 28.4299 0 63.5 0C98.5701 0 127 28.4299 127 63.5Z" fill="#E5E5E5"/>
<path d="M127 63.5C127 98.5701 98.5701 127 63.5 127C28.4299 127 0 98.5701 0 63.5C0 28.4299 28.4299 0 63.5 0C98.5701 0 127 28.4299 127 63.5Z" fill="#E5E5E5"/>
<path d="M57.74 105.787L58.6774 105.796L57.1611 110.1L56.3086 110.091L54.8924 105.759L55.8563 105.768L56.7613 109.056L57.74 105.787ZM59.9969 110.128L59.1005 110.119L59.1432 105.801L60.0396 105.81L59.9969 110.128ZM64.069 106.614L61.784 106.592L61.7749 107.509L63.8724 107.529L63.865 108.279L61.7675 108.259L61.7565 109.369L64.147 109.393L64.1393 110.169L60.867 110.137L60.9097 105.818L64.0766 105.85L64.069 106.614ZM65.474 105.864L66.0208 108.342L66.137 109.031L66.2696 108.359L66.7805 105.876L67.7326 105.886L68.2208 108.363L68.3459 109.053L68.4842 108.392L69.0861 105.899L70.003 105.908L68.7446 110.214L67.8833 110.206L67.3868 107.675L67.2427 106.839L67.0821 107.672L66.5357 110.193L65.6978 110.184L64.516 105.854L65.474 105.864Z" fill="#05FF00"/>
<path d="M98.1272 44.0909C97.5394 44.0909 96.653 44.2795 95.7695 45.1763L83.6585 57.4687V48C83.6585 45.7946 81.8903 44 79.7174 44H37.9412C35.7682 44 34 45.7946 34 48V80C34 82.2054 35.7682 84 37.9412 84H79.7174C81.8903 84 83.6585 82.2054 83.6585 80V70.1836L95.7707 82.4771C96.6548 83.3739 97.5411 83.562 98.1283 83.562C99.5551 83.562 101 82.4342 101 80.278L100.999 47.3751C100.999 45.2183 99.555 44.0905 98.1272 44.0905L98.1272 44.0909ZM78.9296 79.1995H38.7298V48.7995H78.9296V79.1995ZM96.2706 76.1962L84.082 63.8262L96.2706 51.4573V76.1962Z" fill="#494747"/>
</svg>
