<svg width="127" height="127" viewBox="0 0 127 127" fill="none" xmlns="http://www.w3.org/2000/svg">
<path d="M127 63.5C127 98.5701 98.5701 127 63.5 127C28.4299 127 0 98.5701 0 63.5C0 28.4299 28.4299 0 63.5 0C98.5701 0 127 28.4299 127 63.5Z" fill="#E5E5E5"/>
<path d="M127 63.5C127 98.5701 98.5701 127 63.5 127C28.4299 127 0 98.5701 0 63.5C0 28.4299 28.4299 0 63.5 0C98.5701 0 127 28.4299 127 63.5Z" fill="#E5E5E5"/>
<path d="M80.1035 62.3902L99.9937 44.3943C100.958 43.5218 102.5 44.2061 102.5 45.5066L102.5 81.9719C102.5 83.2817 100.939 83.9623 99.9793 83.0711L80.0892 64.6017C79.4444 64.003 79.4511 62.9805 80.1035 62.3902Z" fill="#848484" stroke="black"/>
<rect x="32.5" y="43.275" width="52.25" height="40.4167" rx="2.5" fill="#848484" stroke="black"/>
</svg>
