<svg width="47" height="46" viewBox="0 0 47 46" fill="none" xmlns="http://www.w3.org/2000/svg">
<circle cx="23.7201" cy="23" r="23" fill="white"/>
<path d="M17.253 13.071L13.7175 16.6066L20.435 23.3241L13.7175 30.0416L16.8995 33.2236L23.617 26.5061L29.981 32.87L33.5165 29.3345L27.1525 22.9705L33.5165 16.6066L30.3345 13.4246L23.9706 19.7886L17.253 13.071Z" fill="#7D7D7D"/>
<path d="M34.9307 16.6066L31.7488 13.4246L30.4367 13.4246L33.5165 16.6066L27.1526 22.9705L33.5165 29.3345L29.981 32.87H31.3952L34.9307 29.3345L28.5668 22.9705L34.9307 16.6066Z" fill="#C4C4C4"/>
<path d="M18.6673 13.071H17.2531L23.9706 19.7886L24.6777 19.0815L18.6673 13.071Z" fill="#C4C4C4"/>
<path d="M18.3137 33.2236H16.8995L23.6171 26.5061L24.3242 27.2132L18.3137 33.2236Z" fill="#C4C4C4"/>
</svg>
