<svg width="46" height="46" viewBox="0 0 46 46" fill="none" xmlns="http://www.w3.org/2000/svg">
<path d="M16.533 13.071L12.9974 16.6066L19.7149 23.3241L12.9974 30.0416L16.1794 33.2236L22.8969 26.5061L29.2609 32.87L32.7964 29.3345L26.4325 22.9705L32.7964 16.6066L29.6144 13.4246L23.2505 19.7886L16.533 13.071Z" fill="#7D7D7D"/>
<path d="M34.2107 16.6066L31.0287 13.4246L29.7166 13.4246L32.7964 16.6066L26.4325 22.9705L32.7964 29.3345L29.2609 32.87H30.6751L34.2107 29.3345L27.8467 22.9705L34.2107 16.6066Z" fill="#C4C4C4"/>
<path d="M17.9472 13.071H16.533L23.2505 19.7886L23.9576 19.0815L17.9472 13.071Z" fill="#C4C4C4"/>
<path d="M17.5936 33.2236H16.1794L22.8969 26.5061L23.604 27.2132L17.5936 33.2236Z" fill="#C4C4C4"/>
</svg>
