<svg width="45" height="45" viewBox="0 0 45 45" fill="none" xmlns="http://www.w3.org/2000/svg">
<path d="M45 22.5C45 34.9264 34.9264 45 22.5 45C10.0736 45 0 34.9264 0 22.5C0 10.0736 10.0736 0 22.5 0C34.9264 0 45 10.0736 45 22.5Z" fill="white"/>
<path d="M45 22.5C45 34.9264 34.9264 45 22.5 45C10.0736 45 0 34.9264 0 22.5C0 10.0736 10.0736 0 22.5 0C34.9264 0 45 10.0736 45 22.5Z" fill="white"/>
<path d="M45 22.5C45 34.9264 34.9264 45 22.5 45C10.0736 45 0 34.9264 0 22.5C0 10.0736 10.0736 0 22.5 0C34.9264 0 45 10.0736 45 22.5Z" fill="white"/>
<path d="M45 22.5C45 34.9264 34.9264 45 22.5 45C10.0736 45 0 34.9264 0 22.5C0 10.0736 10.0736 0 22.5 0C34.9264 0 45 10.0736 45 22.5Z" fill="white"/>
<path d="M32.7881 11H11V15.4196H32.7881V11Z" fill="#848484"/>
<path d="M32.7881 19.8393H11V24.2589H32.7881V19.8393Z" fill="#848484"/>
<path d="M32.7881 28.6786H11V33.0982H32.7881V28.6786Z" fill="#848484"/>
<path d="M12.1672 16.625L11 15.4196H32.7881V11L33.9554 12.2054V16.625H12.1672Z" fill="#C4C4C4" stroke="black" stroke-width="0.1"/>
<path d="M12.1672 25.4643L11 24.2589H32.7881V19.8393L33.9554 21.0447V25.4643H12.1672Z" fill="#C4C4C4" stroke="black" stroke-width="0.1"/>
<path d="M12.1672 34.3036L11 33.0982H32.7881V28.6786L33.9554 29.8839V34.3036H12.1672Z" fill="#C4C4C4" stroke="black" stroke-width="0.1"/>
</svg>
