<svg width="46" height="46" viewBox="0 0 46 46" fill="none" xmlns="http://www.w3.org/2000/svg">
<circle cx="23" cy="23" r="23" fill="white"/>
<path d="M16.9455 18.0909L16 17.1455H19.7818V14.9394H24.5091V15.8848H20.7273V18.0909H16.9455Z" fill="#C4C4C4" stroke="black" stroke-width="0.1"/>
<path d="M28.9212 20.6121V11L29.709 12.4182V21.4L24.9818 29.9091H20.7272L19.9393 28.8061H24.3515L28.9212 20.6121Z" fill="#C4C4C4" stroke="#494747" stroke-width="0.1"/>
<path d="M24.0365 36.0545H19.3092L20.0971 36.9999H24.6668V32.7454L24.0365 31.9575V36.0545Z" fill="#C4C4C4" stroke="#494747" stroke-width="0.1"/>
<path d="M16 11.002V17.128H19.7818V14.9394H24.5091V20.3952L19.9906 28.8674H24.2881L28.9212 20.6121L28.8926 12.8909V11.002H26.7152H16Z" fill="#848484"/>
<path d="M24.1039 31.9985H19.3152V36.0504H24.1039V31.9985Z" fill="#848484"/>
</svg>
