<svg width="47" height="46" viewBox="0 0 47 46" fill="none" xmlns="http://www.w3.org/2000/svg">
<path d="M46.36 23C46.36 35.7025 36.0625 46 23.36 46C10.6574 46 0.359985 35.7025 0.359985 23C0.359985 10.2974 10.6574 0 23.36 0C36.0625 0 46.36 10.2974 46.36 23Z" fill="white"/>
<path d="M46.36 23C46.36 35.7025 36.0625 46 23.36 46C10.6574 46 0.359985 35.7025 0.359985 23C0.359985 10.2974 10.6574 0 23.36 0C36.0625 0 46.36 10.2974 46.36 23Z" fill="white"/>
<path d="M46.36 23C46.36 35.7025 36.0625 46 23.36 46C10.6574 46 0.359985 35.7025 0.359985 23C0.359985 10.2974 10.6574 0 23.36 0C36.0625 0 46.36 10.2974 46.36 23Z" fill="white"/>
<path d="M46.36 23C46.36 35.7025 36.0625 46 23.36 46C10.6574 46 0.359985 35.7025 0.359985 23C0.359985 10.2974 10.6574 0 23.36 0C36.0625 0 46.36 10.2974 46.36 23Z" fill="white"/>
<path d="M18.1824 10.9952L8.96912 20.7799L18.7859 29.7638L21.8726 26.6007L31.4781 35.6452L34.3737 32.5701L24.8388 23.592L27.9977 20.2373L18.1824 10.9952Z" fill="#848484"/>
<path d="M18.2805 14.2622L12.2072 20.7123L18.6572 26.7856L24.7305 20.3356L18.2805 14.2622Z" fill="#E5E5E5" stroke="black" stroke-width="0.1"/>
<path d="M21.3688 29.0093L18.7573 29.7939L21.8739 26.5442L22.87 27.4906L21.3688 29.0093Z" fill="#C4C4C4"/>
<path d="M19.8159 10.9461L18.1824 10.9953L27.9976 20.2373L24.8289 23.6026L34.3638 32.5806L31.4591 35.6654L33.0926 35.6163L35.9973 32.5315L26.4624 23.5535L29.6311 20.1882L19.8159 10.9461Z" fill="#C4C4C4"/>
<path d="M18.2805 14.2622L12.2072 20.7123L18.6572 26.7856L19.4494 25.9443L13.8406 20.6631L19.1218 15.0544L18.2805 14.2622Z" fill="#C4C4C4"/>
</svg>
